# RAN Carrier Restart: original model study; coordinates in metres
mtllib ran_cvn_australis_2050.mtl
o HardChineHull
usemtl hull
v -10.200000 0.000000 -185.000000
v -15.000000 3.000000 -185.000000
v -14.700000 12.000000 -185.000000
v -11.400000 20.300000 -185.000000
v 11.400000 20.300000 -185.000000
v 14.700000 12.000000 -185.000000
v 15.000000 3.000000 -185.000000
v 10.200000 0.000000 -185.000000
v -15.640000 0.000000 -174.000000
v -23.000000 3.000000 -174.000000
v -22.540000 12.000000 -174.000000
v -17.480000 20.300000 -174.000000
v 17.480000 20.300000 -174.000000
v 22.540000 12.000000 -174.000000
v 23.000000 3.000000 -174.000000
v 15.640000 0.000000 -174.000000
v -18.360000 0.000000 -148.000000
v -27.000000 3.000000 -148.000000
v -26.460000 12.000000 -148.000000
v -20.520000 20.300000 -148.000000
v 20.520000 20.300000 -148.000000
v 26.460000 12.000000 -148.000000
v 27.000000 3.000000 -148.000000
v 18.360000 0.000000 -148.000000
v -19.040000 0.000000 -104.000000
v -28.000000 3.000000 -104.000000
v -27.440000 12.000000 -104.000000
v -21.280000 20.300000 -104.000000
v 21.280000 20.300000 -104.000000
v 27.440000 12.000000 -104.000000
v 28.000000 3.000000 -104.000000
v 19.040000 0.000000 -104.000000
v -19.720000 0.000000 -36.000000
v -29.000000 3.000000 -36.000000
v -28.420000 12.000000 -36.000000
v -22.040000 20.300000 -36.000000
v 22.040000 20.300000 -36.000000
v 28.420000 12.000000 -36.000000
v 29.000000 3.000000 -36.000000
v 19.720000 0.000000 -36.000000
v -19.720000 0.000000 45.000000
v -29.000000 3.000000 45.000000
v -28.420000 12.000000 45.000000
v -22.040000 20.300000 45.000000
v 22.040000 20.300000 45.000000
v 28.420000 12.000000 45.000000
v 29.000000 3.000000 45.000000
v 19.720000 0.000000 45.000000
v -19.040000 0.000000 113.000000
v -28.000000 3.000000 113.000000
v -27.440000 12.000000 113.000000
v -21.280000 20.300000 113.000000
v 21.280000 20.300000 113.000000
v 27.440000 12.000000 113.000000
v 28.000000 3.000000 113.000000
v 19.040000 0.000000 113.000000
v -15.640000 0.000000 153.000000
v -23.000000 3.000000 153.000000
v -22.540000 12.000000 153.000000
v -17.480000 20.300000 153.000000
v 17.480000 20.300000 153.000000
v 22.540000 12.000000 153.000000
v 23.000000 3.000000 153.000000
v 15.640000 0.000000 153.000000
v -8.160000 0.000000 174.000000
v -12.000000 3.000000 174.000000
v -11.760000 12.000000 174.000000
v -9.120000 20.300000 174.000000
v 9.120000 20.300000 174.000000
v 11.760000 12.000000 174.000000
v 12.000000 3.000000 174.000000
v 8.160000 0.000000 174.000000
v -0.884000 0.000000 185.000000
v -1.300000 3.000000 185.000000
v -1.274000 12.000000 185.000000
v -0.988000 20.300000 185.000000
v 0.988000 20.300000 185.000000
v 1.274000 12.000000 185.000000
v 1.300000 3.000000 185.000000
v 0.884000 0.000000 185.000000
f 1 2 3
f 1 3 4
f 1 4 5
f 1 5 6
f 1 6 7
f 1 7 8
f 80 79 78
f 80 78 77
f 80 77 76
f 80 76 75
f 80 75 74
f 80 74 73
f 9 10 2
f 9 2 1
f 10 11 3
f 10 3 2
f 11 12 4
f 11 4 3
f 12 13 5
f 12 5 4
f 13 14 6
f 13 6 5
f 14 15 7
f 14 7 6
f 15 16 8
f 15 8 7
f 16 9 1
f 16 1 8
f 17 18 10
f 17 10 9
f 18 19 11
f 18 11 10
f 19 20 12
f 19 12 11
f 20 21 13
f 20 13 12
f 21 22 14
f 21 14 13
f 22 23 15
f 22 15 14
f 23 24 16
f 23 16 15
f 24 17 9
f 24 9 16
f 25 26 18
f 25 18 17
f 26 27 19
f 26 19 18
f 27 28 20
f 27 20 19
f 28 29 21
f 28 21 20
f 29 30 22
f 29 22 21
f 30 31 23
f 30 23 22
f 31 32 24
f 31 24 23
f 32 25 17
f 32 17 24
f 33 34 26
f 33 26 25
f 34 35 27
f 34 27 26
f 35 36 28
f 35 28 27
f 36 37 29
f 36 29 28
f 37 38 30
f 37 30 29
f 38 39 31
f 38 31 30
f 39 40 32
f 39 32 31
f 40 33 25
f 40 25 32
f 41 42 34
f 41 34 33
f 42 43 35
f 42 35 34
f 43 44 36
f 43 36 35
f 44 45 37
f 44 37 36
f 45 46 38
f 45 38 37
f 46 47 39
f 46 39 38
f 47 48 40
f 47 40 39
f 48 41 33
f 48 33 40
f 49 50 42
f 49 42 41
f 50 51 43
f 50 43 42
f 51 52 44
f 51 44 43
f 52 53 45
f 52 45 44
f 53 54 46
f 53 46 45
f 54 55 47
f 54 47 46
f 55 56 48
f 55 48 47
f 56 49 41
f 56 41 48
f 57 58 50
f 57 50 49
f 58 59 51
f 58 51 50
f 59 60 52
f 59 52 51
f 60 61 53
f 60 53 52
f 61 62 54
f 61 54 53
f 62 63 55
f 62 55 54
f 63 64 56
f 63 56 55
f 64 57 49
f 64 49 56
f 65 66 58
f 65 58 57
f 66 67 59
f 66 59 58
f 67 68 60
f 67 60 59
f 68 69 61
f 68 61 60
f 69 70 62
f 69 62 61
f 70 71 63
f 70 63 62
f 71 72 64
f 71 64 63
f 72 65 57
f 72 57 64
f 73 74 66
f 73 66 65
f 74 75 67
f 74 67 66
f 75 76 68
f 75 68 67
f 76 77 69
f 76 69 68
f 77 78 70
f 77 70 69
f 78 79 71
f 78 71 70
f 79 80 72
f 79 72 71
f 80 73 65
f 80 65 72
o UnderwaterBody
usemtl underwater
v -10.200000 0.000000 -185.000000
v -14.400000 -2.500000 -185.000000
v -9.600000 -8.000000 -185.000000
v 9.600000 -8.000000 -185.000000
v 14.400000 -2.500000 -185.000000
v 10.200000 0.000000 -185.000000
v -15.640000 0.000000 -174.000000
v -22.080000 -2.500000 -174.000000
v -14.720000 -8.000000 -174.000000
v 14.720000 -8.000000 -174.000000
v 22.080000 -2.500000 -174.000000
v 15.640000 0.000000 -174.000000
v -18.360000 0.000000 -148.000000
v -25.920000 -2.500000 -148.000000
v -17.280000 -8.000000 -148.000000
v 17.280000 -8.000000 -148.000000
v 25.920000 -2.500000 -148.000000
v 18.360000 0.000000 -148.000000
v -19.040000 0.000000 -104.000000
v -26.880000 -2.500000 -104.000000
v -17.920000 -8.000000 -104.000000
v 17.920000 -8.000000 -104.000000
v 26.880000 -2.500000 -104.000000
v 19.040000 0.000000 -104.000000
v -19.720000 0.000000 -36.000000
v -27.840000 -2.500000 -36.000000
v -18.560000 -8.000000 -36.000000
v 18.560000 -8.000000 -36.000000
v 27.840000 -2.500000 -36.000000
v 19.720000 0.000000 -36.000000
v -19.720000 0.000000 45.000000
v -27.840000 -2.500000 45.000000
v -18.560000 -8.000000 45.000000
v 18.560000 -8.000000 45.000000
v 27.840000 -2.500000 45.000000
v 19.720000 0.000000 45.000000
v -19.040000 0.000000 113.000000
v -26.880000 -2.500000 113.000000
v -17.920000 -8.000000 113.000000
v 17.920000 -8.000000 113.000000
v 26.880000 -2.500000 113.000000
v 19.040000 0.000000 113.000000
v -15.640000 0.000000 153.000000
v -22.080000 -2.500000 153.000000
v -14.720000 -8.000000 153.000000
v 14.720000 -8.000000 153.000000
v 22.080000 -2.500000 153.000000
v 15.640000 0.000000 153.000000
v -8.160000 0.000000 174.000000
v -11.520000 -2.500000 174.000000
v -7.680000 -8.000000 174.000000
v 7.680000 -8.000000 174.000000
v 11.520000 -2.500000 174.000000
v 8.160000 0.000000 174.000000
v -0.884000 0.000000 185.000000
v -1.248000 -2.500000 185.000000
v -0.832000 -8.000000 185.000000
v 0.832000 -8.000000 185.000000
v 1.248000 -2.500000 185.000000
v 0.884000 0.000000 185.000000
f 86 85 84
f 86 84 83
f 86 83 82
f 86 82 81
f 135 136 137
f 135 137 138
f 135 138 139
f 135 139 140
f 81 82 88
f 81 88 87
f 82 83 89
f 82 89 88
f 83 84 90
f 83 90 89
f 84 85 91
f 84 91 90
f 85 86 92
f 85 92 91
f 86 81 87
f 86 87 92
f 87 88 94
f 87 94 93
f 88 89 95
f 88 95 94
f 89 90 96
f 89 96 95
f 90 91 97
f 90 97 96
f 91 92 98
f 91 98 97
f 92 87 93
f 92 93 98
f 93 94 100
f 93 100 99
f 94 95 101
f 94 101 100
f 95 96 102
f 95 102 101
f 96 97 103
f 96 103 102
f 97 98 104
f 97 104 103
f 98 93 99
f 98 99 104
f 99 100 106
f 99 106 105
f 100 101 107
f 100 107 106
f 101 102 108
f 101 108 107
f 102 103 109
f 102 109 108
f 103 104 110
f 103 110 109
f 104 99 105
f 104 105 110
f 105 106 112
f 105 112 111
f 106 107 113
f 106 113 112
f 107 108 114
f 107 114 113
f 108 109 115
f 108 115 114
f 109 110 116
f 109 116 115
f 110 105 111
f 110 111 116
f 111 112 118
f 111 118 117
f 112 113 119
f 112 119 118
f 113 114 120
f 113 120 119
f 114 115 121
f 114 121 120
f 115 116 122
f 115 122 121
f 116 111 117
f 116 117 122
f 117 118 124
f 117 124 123
f 118 119 125
f 118 125 124
f 119 120 126
f 119 126 125
f 120 121 127
f 120 127 126
f 121 122 128
f 121 128 127
f 122 117 123
f 122 123 128
f 123 124 130
f 123 130 129
f 124 125 131
f 124 131 130
f 125 126 132
f 125 132 131
f 126 127 133
f 126 133 132
f 127 128 134
f 127 134 133
f 128 123 129
f 128 129 134
f 129 130 136
f 129 136 135
f 130 131 137
f 130 137 136
f 131 132 138
f 131 138 137
f 132 133 139
f 132 139 138
f 133 134 140
f 133 140 139
f 134 129 135
f 134 135 140
o FacetedFlightDeck
usemtl deck
v -32.000000 20.300000 -185.000000
v 27.000000 20.300000 -185.000000
v 41.000000 20.300000 -169.000000
v 49.000000 20.300000 -138.000000
v 50.000000 20.300000 -76.000000
v 52.000000 20.300000 -33.000000
v 52.000000 20.300000 72.000000
v 49.000000 20.300000 125.000000
v 40.000000 20.300000 163.000000
v 15.000000 20.300000 185.000000
v -15.000000 20.300000 185.000000
v -39.000000 20.300000 161.000000
v -48.000000 20.300000 123.000000
v -48.000000 20.300000 60.000000
v -52.000000 20.300000 -41.000000
v -52.000000 20.300000 -114.000000
v -43.000000 20.300000 -168.000000
v -32.000000 22.000000 -185.000000
v 27.000000 22.000000 -185.000000
v 41.000000 22.000000 -169.000000
v 49.000000 22.000000 -138.000000
v 50.000000 22.000000 -76.000000
v 52.000000 22.000000 -33.000000
v 52.000000 22.000000 72.000000
v 49.000000 22.000000 125.000000
v 40.000000 22.000000 163.000000
v 15.000000 22.000000 185.000000
v -15.000000 22.000000 185.000000
v -39.000000 22.000000 161.000000
v -48.000000 22.000000 123.000000
v -48.000000 22.000000 60.000000
v -52.000000 22.000000 -41.000000
v -52.000000 22.000000 -114.000000
v -43.000000 22.000000 -168.000000
f 157 141 142
f 157 142 143
f 157 143 144
f 157 144 145
f 157 145 146
f 157 146 147
f 157 147 148
f 157 148 149
f 157 149 150
f 157 150 151
f 157 151 152
f 157 152 153
f 157 153 154
f 157 154 155
f 155 156 157
f 159 158 174
f 160 159 174
f 161 160 174
f 162 161 174
f 163 162 174
f 164 163 174
f 165 164 174
f 166 165 174
f 167 166 174
f 168 167 174
f 169 168 174
f 170 169 174
f 171 170 174
f 172 171 174
f 174 173 172
f 141 158 159
f 141 159 142
f 142 159 160
f 142 160 143
f 143 160 161
f 143 161 144
f 144 161 162
f 144 162 145
f 145 162 163
f 145 163 146
f 146 163 164
f 146 164 147
f 147 164 165
f 147 165 148
f 148 165 166
f 148 166 149
f 149 166 167
f 149 167 150
f 150 167 168
f 150 168 151
f 151 168 169
f 151 169 152
f 152 169 170
f 152 170 153
f 153 170 171
f 153 171 154
f 154 171 172
f 154 172 155
f 155 172 173
f 155 173 156
f 156 173 174
f 156 174 157
f 157 174 158
f 157 158 141
o DeckEdge_01
usemtl edge
v -32.000000 22.070000 -184.860000
v 27.000000 22.070000 -184.860000
v 27.000000 22.070000 -185.140000
v -32.000000 22.070000 -185.140000
v -32.000000 22.110000 -184.860000
v 27.000000 22.110000 -184.860000
v 27.000000 22.110000 -185.140000
v -32.000000 22.110000 -185.140000
f 175 178 177
f 177 176 175
f 181 182 179
f 179 180 181
f 176 180 179
f 176 179 175
f 177 181 180
f 177 180 176
f 178 182 181
f 178 181 177
f 175 179 182
f 175 182 178
o DeckEdge_02
usemtl edge
v 26.894639 22.070000 -184.907809
v 40.894639 22.070000 -168.907809
v 41.105361 22.070000 -169.092191
v 27.105361 22.070000 -185.092191
v 26.894639 22.110000 -184.907809
v 40.894639 22.110000 -168.907809
v 41.105361 22.110000 -169.092191
v 27.105361 22.110000 -185.092191
f 183 186 185
f 185 184 183
f 189 190 187
f 187 188 189
f 184 188 187
f 184 187 183
f 185 189 188
f 185 188 184
f 186 190 189
f 186 189 185
f 183 187 190
f 183 190 186
o DeckEdge_03
usemtl edge
v 40.864441 22.070000 -168.965017
v 48.864441 22.070000 -137.965017
v 49.135559 22.070000 -138.034983
v 41.135559 22.070000 -169.034983
v 40.864441 22.110000 -168.965017
v 48.864441 22.110000 -137.965017
v 49.135559 22.110000 -138.034983
v 41.135559 22.110000 -169.034983
f 191 194 193
f 193 192 191
f 197 198 195
f 195 196 197
f 192 196 195
f 192 195 191
f 193 197 196
f 193 196 192
f 194 198 197
f 194 197 193
f 191 195 198
f 191 198 194
o DeckEdge_04
usemtl edge
v 48.860018 22.070000 -137.997742
v 49.860018 22.070000 -75.997742
v 50.139982 22.070000 -76.002258
v 49.139982 22.070000 -138.002258
v 48.860018 22.110000 -137.997742
v 49.860018 22.110000 -75.997742
v 50.139982 22.110000 -76.002258
v 49.139982 22.110000 -138.002258
f 199 202 201
f 201 200 199
f 205 206 203
f 203 204 205
f 200 204 203
f 200 203 199
f 201 205 204
f 201 204 200
f 202 206 205
f 202 205 201
f 199 203 206
f 199 206 202
o DeckEdge_05
usemtl edge
v 49.860151 22.070000 -75.993495
v 51.860151 22.070000 -32.993495
v 52.139849 22.070000 -33.006505
v 50.139849 22.070000 -76.006505
v 49.860151 22.110000 -75.993495
v 51.860151 22.110000 -32.993495
v 52.139849 22.110000 -33.006505
v 50.139849 22.110000 -76.006505
f 207 210 209
f 209 208 207
f 213 214 211
f 211 212 213
f 208 212 211
f 208 211 207
f 209 213 212
f 209 212 208
f 210 214 213
f 210 213 209
f 207 211 214
f 207 214 210
o DeckEdge_06
usemtl edge
v 51.860000 22.070000 -33.000000
v 51.860000 22.070000 72.000000
v 52.140000 22.070000 72.000000
v 52.140000 22.070000 -33.000000
v 51.860000 22.110000 -33.000000
v 51.860000 22.110000 72.000000
v 52.140000 22.110000 72.000000
v 52.140000 22.110000 -33.000000
f 215 218 217
f 217 216 215
f 221 222 219
f 219 220 221
f 216 220 219
f 216 219 215
f 217 221 220
f 217 220 216
f 218 222 221
f 218 221 217
f 215 219 222
f 215 222 218
o DeckEdge_07
usemtl edge
v 51.860224 22.070000 71.992088
v 48.860224 22.070000 124.992088
v 49.139776 22.070000 125.007912
v 52.139776 22.070000 72.007912
v 51.860224 22.110000 71.992088
v 48.860224 22.110000 124.992088
v 49.139776 22.110000 125.007912
v 52.139776 22.110000 72.007912
f 223 226 225
f 225 224 223
f 229 230 227
f 227 228 229
f 224 228 227
f 224 227 223
f 225 229 228
f 225 228 224
f 226 230 229
f 226 229 225
f 223 227 230
f 223 230 226
o DeckEdge_08
usemtl edge
v 48.863769 22.070000 124.967735
v 39.863769 22.070000 162.967735
v 40.136231 22.070000 163.032265
v 49.136231 22.070000 125.032265
v 48.863769 22.110000 124.967735
v 39.863769 22.110000 162.967735
v 40.136231 22.110000 163.032265
v 49.136231 22.110000 125.032265
f 231 234 233
f 233 232 231
f 237 238 235
f 235 236 237
f 232 236 235
f 232 235 231
f 233 237 236
f 233 236 232
f 234 238 237
f 234 237 233
f 231 235 238
f 231 238 234
o DeckEdge_09
usemtl edge
v 39.907512 22.070000 162.894900
v 14.907512 22.070000 184.894900
v 15.092488 22.070000 185.105100
v 40.092488 22.070000 163.105100
v 39.907512 22.110000 162.894900
v 14.907512 22.110000 184.894900
v 15.092488 22.110000 185.105100
v 40.092488 22.110000 163.105100
f 239 242 241
f 241 240 239
f 245 246 243
f 243 244 245
f 240 244 243
f 240 243 239
f 241 245 244
f 241 244 240
f 242 246 245
f 242 245 241
f 239 243 246
f 239 246 242
o DeckEdge_10
usemtl edge
v 15.000000 22.070000 184.860000
v -15.000000 22.070000 184.860000
v -15.000000 22.070000 185.140000
v 15.000000 22.070000 185.140000
v 15.000000 22.110000 184.860000
v -15.000000 22.110000 184.860000
v -15.000000 22.110000 185.140000
v 15.000000 22.110000 185.140000
f 247 250 249
f 249 248 247
f 253 254 251
f 251 252 253
f 248 252 251
f 248 251 247
f 249 253 252
f 249 252 248
f 250 254 253
f 250 253 249
f 247 251 254
f 247 254 250
o DeckEdge_11
usemtl edge
v -14.901005 22.070000 184.901005
v -38.901005 22.070000 160.901005
v -39.098995 22.070000 161.098995
v -15.098995 22.070000 185.098995
v -14.901005 22.110000 184.901005
v -38.901005 22.110000 160.901005
v -39.098995 22.110000 161.098995
v -15.098995 22.110000 185.098995
f 255 258 257
f 257 256 255
f 261 262 259
f 259 260 261
f 256 260 259
f 256 259 255
f 257 261 260
f 257 260 256
f 258 262 261
f 258 261 257
f 255 259 262
f 255 262 258
o DeckEdge_12
usemtl edge
v -38.863769 22.070000 160.967735
v -47.863769 22.070000 122.967735
v -48.136231 22.070000 123.032265
v -39.136231 22.070000 161.032265
v -38.863769 22.110000 160.967735
v -47.863769 22.110000 122.967735
v -48.136231 22.110000 123.032265
v -39.136231 22.110000 161.032265
f 263 266 265
f 265 264 263
f 269 270 267
f 267 268 269
f 264 268 267
f 264 267 263
f 265 269 268
f 265 268 264
f 266 270 269
f 266 269 265
f 263 267 270
f 263 270 266
o DeckEdge_13
usemtl edge
v -47.860000 22.070000 123.000000
v -47.860000 22.070000 60.000000
v -48.140000 22.070000 60.000000
v -48.140000 22.070000 123.000000
v -47.860000 22.110000 123.000000
v -47.860000 22.110000 60.000000
v -48.140000 22.110000 60.000000
v -48.140000 22.110000 123.000000
f 271 274 273
f 273 272 271
f 277 278 275
f 275 276 277
f 272 276 275
f 272 275 271
f 273 277 276
f 273 276 272
f 274 278 277
f 274 277 273
f 271 275 278
f 271 278 274
o DeckEdge_14
usemtl edge
v -47.860110 22.070000 59.994460
v -51.860110 22.070000 -41.005540
v -52.139890 22.070000 -40.994460
v -48.139890 22.070000 60.005540
v -47.860110 22.110000 59.994460
v -51.860110 22.110000 -41.005540
v -52.139890 22.110000 -40.994460
v -48.139890 22.110000 60.005540
f 279 282 281
f 281 280 279
f 285 286 283
f 283 284 285
f 280 284 283
f 280 283 279
f 281 285 284
f 281 284 280
f 282 286 285
f 282 285 281
f 279 283 286
f 279 286 282
o DeckEdge_15
usemtl edge
v -51.860000 22.070000 -41.000000
v -51.860000 22.070000 -114.000000
v -52.140000 22.070000 -114.000000
v -52.140000 22.070000 -41.000000
v -51.860000 22.110000 -41.000000
v -51.860000 22.110000 -114.000000
v -52.140000 22.110000 -114.000000
v -52.140000 22.110000 -41.000000
f 287 290 289
f 289 288 287
f 293 294 291
f 291 292 293
f 288 292 291
f 288 291 287
f 289 293 292
f 289 292 288
f 290 294 293
f 290 293 289
f 287 291 294
f 287 294 290
o DeckEdge_16
usemtl edge
v -51.861905 22.070000 -113.976984
v -42.861905 22.070000 -167.976984
v -43.138095 22.070000 -168.023016
v -52.138095 22.070000 -114.023016
v -51.861905 22.110000 -113.976984
v -42.861905 22.110000 -167.976984
v -43.138095 22.110000 -168.023016
v -52.138095 22.110000 -114.023016
f 295 298 297
f 297 296 295
f 301 302 299
f 299 300 301
f 296 300 299
f 296 299 295
f 297 301 300
f 297 300 296
f 298 302 301
f 298 301 297
f 295 299 302
f 295 302 298
o DeckEdge_17
usemtl edge
v -42.882460 22.070000 -167.923945
v -31.882460 22.070000 -184.923945
v -32.117540 22.070000 -185.076055
v -43.117540 22.070000 -168.076055
v -42.882460 22.110000 -167.923945
v -31.882460 22.110000 -184.923945
v -32.117540 22.110000 -185.076055
v -43.117540 22.110000 -168.076055
f 303 306 305
f 305 304 303
f 309 310 307
f 307 308 309
f 304 308 307
f 304 307 303
f 305 309 308
f 305 308 304
f 306 310 309
f 306 309 305
f 303 307 310
f 303 310 306
o RakedIsland
usemtl island
v 31.000000 22.000000 -30.000000
v 40.000000 22.000000 -33.000000
v 47.000000 22.000000 -23.000000
v 48.000000 22.000000 28.000000
v 39.000000 22.000000 39.000000
v 31.000000 22.000000 32.000000
v 32.440000 37.000000 -24.060000
v 39.820000 37.000000 -26.520000
v 45.560000 37.000000 -18.320000
v 46.380000 37.000000 23.500000
v 39.000000 37.000000 32.520000
v 32.440000 37.000000 26.780000
f 311 312 313
f 311 313 314
f 311 314 315
f 311 315 316
f 322 321 320
f 322 320 319
f 322 319 318
f 322 318 317
f 317 318 312
f 317 312 311
f 318 319 313
f 318 313 312
f 319 320 314
f 319 314 313
f 320 321 315
f 320 315 314
f 321 322 316
f 321 316 315
f 322 317 311
f 322 311 316
o IntegratedBridge
usemtl island
v 33.000000 36.600000 -17.000000
v 41.000000 36.600000 -19.000000
v 46.000000 36.600000 -12.000000
v 46.000000 36.600000 26.000000
v 38.000000 36.600000 33.000000
v 33.000000 36.600000 27.000000
v 34.080000 44.000000 -13.160000
v 40.640000 44.000000 -14.840000
v 44.740000 44.000000 -8.960000
v 44.740000 44.000000 22.960000
v 38.180000 44.000000 28.840000
v 34.080000 44.000000 23.800000
f 323 324 325
f 323 325 326
f 323 326 327
f 323 327 328
f 334 333 332
f 334 332 331
f 334 331 330
f 334 330 329
f 329 330 324
f 329 324 323
f 330 331 325
f 330 325 324
f 331 332 326
f 331 326 325
f 332 333 327
f 332 327 326
f 333 334 328
f 333 328 327
f 334 329 323
f 334 323 328
o BridgeWindowPort
usemtl glass
v 32.740000 39.150000 -8.000000
v 32.960000 39.150000 -8.000000
v 32.960000 40.850000 -8.000000
v 32.740000 40.850000 -8.000000
v 32.740000 39.150000 22.000000
v 32.960000 39.150000 22.000000
v 32.960000 40.850000 22.000000
v 32.740000 40.850000 22.000000
f 335 338 337
f 335 337 336
f 339 340 341
f 339 341 342
f 335 336 340
f 335 340 339
f 338 342 341
f 338 341 337
f 335 339 342
f 335 342 338
f 336 337 341
f 336 341 340
o BridgeWindowStarboard
usemtl glass
v 45.440000 39.150000 -8.000000
v 45.660000 39.150000 -8.000000
v 45.660000 40.850000 -8.000000
v 45.440000 40.850000 -8.000000
v 45.440000 39.150000 22.000000
v 45.660000 39.150000 22.000000
v 45.660000 40.850000 22.000000
v 45.440000 40.850000 22.000000
f 343 346 345
f 343 345 344
f 347 348 349
f 347 349 350
f 343 344 348
f 343 348 347
f 346 350 349
f 346 349 345
f 343 347 350
f 343 350 346
f 344 345 349
f 344 349 348
o BridgeWindowForward
usemtl glass
v 34.500000 39.200000 32.090000
v 43.500000 39.200000 32.090000
v 43.500000 40.800000 32.090000
v 34.500000 40.800000 32.090000
v 34.500000 39.200000 32.310000
v 43.500000 39.200000 32.310000
v 43.500000 40.800000 32.310000
v 34.500000 40.800000 32.310000
f 351 354 353
f 351 353 352
f 355 356 357
f 355 357 358
f 351 352 356
f 351 356 355
f 354 358 357
f 354 357 353
f 351 355 358
f 351 358 354
f 352 353 357
f 352 357 356
o EnclosedSensorMast
usemtl island
v 35.000000 43.700000 -3.000000
v 41.000000 43.700000 -4.000000
v 44.000000 43.700000 1.000000
v 44.000000 43.700000 19.000000
v 38.000000 43.700000 24.000000
v 35.000000 43.700000 18.000000
v 36.440000 55.000000 1.160000
v 40.520000 55.000000 0.480000
v 42.560000 55.000000 3.880000
v 42.560000 55.000000 16.120000
v 38.480000 55.000000 19.520000
v 36.440000 55.000000 15.440000
f 359 360 361
f 359 361 362
f 359 362 363
f 359 363 364
f 370 369 368
f 370 368 367
f 370 367 366
f 370 366 365
f 365 366 360
f 365 360 359
f 366 367 361
f 366 361 360
f 367 368 362
f 367 362 361
f 368 369 363
f 368 363 362
f 369 370 364
f 369 364 363
f 370 365 359
f 370 359 364
o IntegratedRadar_Port
usemtl sensor
v 34.700000 46.250000 5.500000
v 34.900000 46.250000 5.500000
v 34.900000 51.750000 5.500000
v 34.700000 51.750000 5.500000
v 34.700000 46.250000 14.500000
v 34.900000 46.250000 14.500000
v 34.900000 51.750000 14.500000
v 34.700000 51.750000 14.500000
f 371 374 373
f 371 373 372
f 375 376 377
f 375 377 378
f 371 372 376
f 371 376 375
f 374 378 377
f 374 377 373
f 371 375 378
f 371 378 374
f 372 373 377
f 372 377 376
o IntegratedRadar_Starboard
usemtl sensor
v 44.100000 46.250000 5.500000
v 44.300000 46.250000 5.500000
v 44.300000 51.750000 5.500000
v 44.100000 51.750000 5.500000
v 44.100000 46.250000 14.500000
v 44.300000 46.250000 14.500000
v 44.300000 51.750000 14.500000
v 44.100000 51.750000 14.500000
f 379 382 381
f 379 381 380
f 383 384 385
f 383 385 386
f 379 380 384
f 379 384 383
f 382 386 385
f 382 385 381
f 379 383 386
f 379 386 382
f 380 381 385
f 380 385 384
o IntegratedRadar_Fore
usemtl sensor
v 36.500000 46.250000 22.100000
v 42.500000 46.250000 22.100000
v 42.500000 51.750000 22.100000
v 36.500000 51.750000 22.100000
v 36.500000 46.250000 22.300000
v 42.500000 46.250000 22.300000
v 42.500000 51.750000 22.300000
v 36.500000 51.750000 22.300000
f 387 390 389
f 387 389 388
f 391 392 393
f 391 393 394
f 387 388 392
f 387 392 391
f 390 394 393
f 390 393 389
f 387 391 394
f 387 394 390
f 388 389 393
f 388 393 392
o IntegratedRadar_Aft
usemtl sensor
v 36.500000 46.250000 -3.100000
v 42.500000 46.250000 -3.100000
v 42.500000 51.750000 -3.100000
v 36.500000 51.750000 -3.100000
v 36.500000 46.250000 -2.900000
v 42.500000 46.250000 -2.900000
v 42.500000 51.750000 -2.900000
v 36.500000 51.750000 -2.900000
f 395 398 397
f 395 397 396
f 399 400 401
f 399 401 402
f 395 396 400
f 395 400 399
f 398 402 401
f 398 401 397
f 395 399 402
f 395 402 398
f 396 397 401
f 396 401 400
o ShipboardECM_Module_PortPanel
usemtl dark
v 35.080000 52.250000 7.500000
v 35.320000 52.250000 7.500000
v 35.320000 54.350000 7.500000
v 35.080000 54.350000 7.500000
v 35.080000 52.250000 12.500000
v 35.320000 52.250000 12.500000
v 35.320000 54.350000 12.500000
v 35.080000 54.350000 12.500000
f 403 406 405
f 403 405 404
f 407 408 409
f 407 409 410
f 403 404 408
f 403 408 407
f 406 410 409
f 406 409 405
f 403 407 410
f 403 410 406
f 404 405 409
f 404 409 408
o ShipboardECM_Module_StarboardPanel
usemtl dark
v 43.580000 52.250000 7.500000
v 43.820000 52.250000 7.500000
v 43.820000 54.350000 7.500000
v 43.580000 54.350000 7.500000
v 43.580000 52.250000 12.500000
v 43.820000 52.250000 12.500000
v 43.820000 54.350000 12.500000
v 43.580000 54.350000 12.500000
f 411 414 413
f 411 413 412
f 415 416 417
f 415 417 418
f 411 412 416
f 411 416 415
f 414 418 417
f 414 417 413
f 411 415 418
f 411 418 414
f 412 413 417
f 412 417 416
o DeckEdgeLift_1
usemtl hatch
v 34.500000 22.035000 109.000000
v 47.500000 22.035000 109.000000
v 47.500000 22.205000 109.000000
v 34.500000 22.205000 109.000000
v 34.500000 22.035000 127.000000
v 47.500000 22.035000 127.000000
v 47.500000 22.205000 127.000000
v 34.500000 22.205000 127.000000
f 419 422 421
f 419 421 420
f 423 424 425
f 423 425 426
f 419 420 424
f 419 424 423
f 422 426 425
f 422 425 421
f 419 423 426
f 419 426 422
f 420 421 425
f 420 425 424
o LiftEdge_1_-1
usemtl white
v 34.600000 22.250000 109.310000
v 47.400000 22.250000 109.310000
v 47.400000 22.250000 109.090000
v 34.600000 22.250000 109.090000
v 34.600000 22.290000 109.310000
v 47.400000 22.290000 109.310000
v 47.400000 22.290000 109.090000
v 34.600000 22.290000 109.090000
f 427 430 429
f 429 428 427
f 433 434 431
f 431 432 433
f 428 432 431
f 428 431 427
f 429 433 432
f 429 432 428
f 430 434 433
f 430 433 429
f 427 431 434
f 427 434 430
o LiftEdge_1_1
usemtl white
v 34.600000 22.250000 126.910000
v 47.400000 22.250000 126.910000
v 47.400000 22.250000 126.690000
v 34.600000 22.250000 126.690000
v 34.600000 22.290000 126.910000
v 47.400000 22.290000 126.910000
v 47.400000 22.290000 126.690000
v 34.600000 22.290000 126.690000
f 435 438 437
f 437 436 435
f 441 442 439
f 439 440 441
f 436 440 439
f 436 439 435
f 437 441 440
f 437 440 436
f 438 442 441
f 438 441 437
f 435 439 442
f 435 442 438
o DeckEdgeLift_2
usemtl hatch
v 35.500000 22.035000 60.000000
v 48.500000 22.035000 60.000000
v 48.500000 22.205000 60.000000
v 35.500000 22.205000 60.000000
v 35.500000 22.035000 78.000000
v 48.500000 22.035000 78.000000
v 48.500000 22.205000 78.000000
v 35.500000 22.205000 78.000000
f 443 446 445
f 443 445 444
f 447 448 449
f 447 449 450
f 443 444 448
f 443 448 447
f 446 450 449
f 446 449 445
f 443 447 450
f 443 450 446
f 444 445 449
f 444 449 448
o LiftEdge_2_-1
usemtl white
v 35.600000 22.250000 60.310000
v 48.400000 22.250000 60.310000
v 48.400000 22.250000 60.090000
v 35.600000 22.250000 60.090000
v 35.600000 22.290000 60.310000
v 48.400000 22.290000 60.310000
v 48.400000 22.290000 60.090000
v 35.600000 22.290000 60.090000
f 451 454 453
f 453 452 451
f 457 458 455
f 455 456 457
f 452 456 455
f 452 455 451
f 453 457 456
f 453 456 452
f 454 458 457
f 454 457 453
f 451 455 458
f 451 458 454
o LiftEdge_2_1
usemtl white
v 35.600000 22.250000 77.910000
v 48.400000 22.250000 77.910000
v 48.400000 22.250000 77.690000
v 35.600000 22.250000 77.690000
v 35.600000 22.290000 77.910000
v 48.400000 22.290000 77.910000
v 48.400000 22.290000 77.690000
v 35.600000 22.290000 77.690000
f 459 462 461
f 461 460 459
f 465 466 463
f 463 464 465
f 460 464 463
f 460 463 459
f 461 465 464
f 461 464 460
f 462 466 465
f 462 465 461
f 459 463 466
f 459 466 462
o DeckEdgeLift_3
usemtl hatch
v 36.500000 22.035000 -66.000000
v 49.500000 22.035000 -66.000000
v 49.500000 22.205000 -66.000000
v 36.500000 22.205000 -66.000000
v 36.500000 22.035000 -48.000000
v 49.500000 22.035000 -48.000000
v 49.500000 22.205000 -48.000000
v 36.500000 22.205000 -48.000000
f 467 470 469
f 467 469 468
f 471 472 473
f 471 473 474
f 467 468 472
f 467 472 471
f 470 474 473
f 470 473 469
f 467 471 474
f 467 474 470
f 468 469 473
f 468 473 472
o LiftEdge_3_-1
usemtl white
v 36.600000 22.250000 -65.690000
v 49.400000 22.250000 -65.690000
v 49.400000 22.250000 -65.910000
v 36.600000 22.250000 -65.910000
v 36.600000 22.290000 -65.690000
v 49.400000 22.290000 -65.690000
v 49.400000 22.290000 -65.910000
v 36.600000 22.290000 -65.910000
f 475 478 477
f 477 476 475
f 481 482 479
f 479 480 481
f 476 480 479
f 476 479 475
f 477 481 480
f 477 480 476
f 478 482 481
f 478 481 477
f 475 479 482
f 475 482 478
o LiftEdge_3_1
usemtl white
v 36.600000 22.250000 -48.090000
v 49.400000 22.250000 -48.090000
v 49.400000 22.250000 -48.310000
v 36.600000 22.250000 -48.310000
v 36.600000 22.290000 -48.090000
v 49.400000 22.290000 -48.090000
v 49.400000 22.290000 -48.310000
v 36.600000 22.290000 -48.310000
f 483 486 485
f 485 484 483
f 489 490 487
f 487 488 489
f 484 488 487
f 484 487 483
f 485 489 488
f 485 488 484
f 486 490 489
f 486 489 485
f 483 487 490
f 483 490 486
o DeckEdgeLift_4
usemtl hatch
v 34.500000 22.035000 -149.000000
v 47.500000 22.035000 -149.000000
v 47.500000 22.205000 -149.000000
v 34.500000 22.205000 -149.000000
v 34.500000 22.035000 -131.000000
v 47.500000 22.035000 -131.000000
v 47.500000 22.205000 -131.000000
v 34.500000 22.205000 -131.000000
f 491 494 493
f 491 493 492
f 495 496 497
f 495 497 498
f 491 492 496
f 491 496 495
f 494 498 497
f 494 497 493
f 491 495 498
f 491 498 494
f 492 493 497
f 492 497 496
o LiftEdge_4_-1
usemtl white
v 34.600000 22.250000 -148.690000
v 47.400000 22.250000 -148.690000
v 47.400000 22.250000 -148.910000
v 34.600000 22.250000 -148.910000
v 34.600000 22.290000 -148.690000
v 47.400000 22.290000 -148.690000
v 47.400000 22.290000 -148.910000
v 34.600000 22.290000 -148.910000
f 499 502 501
f 501 500 499
f 505 506 503
f 503 504 505
f 500 504 503
f 500 503 499
f 501 505 504
f 501 504 500
f 502 506 505
f 502 505 501
f 499 503 506
f 499 506 502
o LiftEdge_4_1
usemtl white
v 34.600000 22.250000 -131.090000
v 47.400000 22.250000 -131.090000
v 47.400000 22.250000 -131.310000
v 34.600000 22.250000 -131.310000
v 34.600000 22.290000 -131.090000
v 47.400000 22.290000 -131.090000
v 47.400000 22.290000 -131.310000
v 34.600000 22.290000 -131.310000
f 507 510 509
f 509 508 507
f 513 514 511
f 511 512 513
f 508 512 511
f 508 511 507
f 509 513 512
f 509 512 508
f 510 514 513
f 510 513 509
f 507 511 514
f 507 514 510
o CatapultTrack_1
usemtl gold
v -15.260000 22.130000 59.000000
v -15.260000 22.130000 157.000000
v -14.740000 22.130000 157.000000
v -14.740000 22.130000 59.000000
v -15.260000 22.170000 59.000000
v -15.260000 22.170000 157.000000
v -14.740000 22.170000 157.000000
v -14.740000 22.170000 59.000000
f 515 518 517
f 517 516 515
f 521 522 519
f 519 520 521
f 516 520 519
f 516 519 515
f 517 521 520
f 517 520 516
f 518 522 521
f 518 521 517
f 515 519 522
f 515 522 518
o CatapultDeckGuide_1
usemtl edge
v -13.830000 22.140000 59.000000
v -13.830000 22.140000 157.000000
v -13.670000 22.140000 157.000000
v -13.670000 22.140000 59.000000
v -13.830000 22.180000 59.000000
v -13.830000 22.180000 157.000000
v -13.670000 22.180000 157.000000
v -13.670000 22.180000 59.000000
f 523 526 525
f 525 524 523
f 529 530 527
f 527 528 529
f 524 528 527
f 524 527 523
f 525 529 528
f 525 528 524
f 526 530 529
f 526 529 525
f 523 527 530
f 523 530 526
o CatapultTrack_2
usemtl gold
v 7.740000 22.130000 55.000000
v 7.740000 22.130000 161.000000
v 8.260000 22.130000 161.000000
v 8.260000 22.130000 55.000000
v 7.740000 22.170000 55.000000
v 7.740000 22.170000 161.000000
v 8.260000 22.170000 161.000000
v 8.260000 22.170000 55.000000
f 531 534 533
f 533 532 531
f 537 538 535
f 535 536 537
f 532 536 535
f 532 535 531
f 533 537 536
f 533 536 532
f 534 538 537
f 534 537 533
f 531 535 538
f 531 538 534
o CatapultDeckGuide_2
usemtl edge
v 9.170000 22.140000 55.000000
v 9.170000 22.140000 161.000000
v 9.330000 22.140000 161.000000
v 9.330000 22.140000 55.000000
v 9.170000 22.180000 55.000000
v 9.170000 22.180000 161.000000
v 9.330000 22.180000 161.000000
v 9.330000 22.180000 55.000000
f 539 542 541
f 541 540 539
f 545 546 543
f 543 544 545
f 540 544 543
f 540 543 539
f 541 545 544
f 541 544 540
f 542 546 545
f 542 545 541
f 539 543 546
f 539 546 542
o CatapultTrack_3
usemtl gold
v 4.742504 22.130000 -17.964006
v 17.742504 22.130000 75.035994
v 18.257496 22.130000 74.964006
v 5.257496 22.130000 -18.035994
v 4.742504 22.170000 -17.964006
v 17.742504 22.170000 75.035994
v 18.257496 22.170000 74.964006
v 5.257496 22.170000 -18.035994
f 547 550 549
f 549 548 547
f 553 554 551
f 551 552 553
f 548 552 551
f 548 551 547
f 549 553 552
f 549 552 548
f 550 554 553
f 550 553 549
f 547 551 554
f 547 554 550
o CatapultDeckGuide_3
usemtl edge
v 6.170770 22.140000 -17.988925
v 19.170770 22.140000 75.011075
v 19.329230 22.140000 74.988925
v 6.329230 22.140000 -18.011075
v 6.170770 22.180000 -17.988925
v 19.170770 22.180000 75.011075
v 19.329230 22.180000 74.988925
v 6.329230 22.180000 -18.011075
f 555 558 557
f 557 556 555
f 561 562 559
f 559 560 561
f 556 560 559
f 556 559 555
f 557 561 560
f 557 560 556
f 558 562 561
f 558 561 557
f 555 559 562
f 555 562 558
o CatapultTrack_4
usemtl gold
v 19.741559 22.130000 -37.971571
v 30.741559 22.130000 62.028429
v 31.258441 22.130000 61.971571
v 20.258441 22.130000 -38.028429
v 19.741559 22.170000 -37.971571
v 30.741559 22.170000 62.028429
v 31.258441 22.170000 61.971571
v 20.258441 22.170000 -38.028429
f 563 566 565
f 565 564 563
f 569 570 567
f 567 568 569
f 564 568 567
f 564 567 563
f 565 569 568
f 565 568 564
f 566 570 569
f 566 569 565
f 563 567 570
f 563 570 566
o CatapultDeckGuide_4
usemtl edge
v 21.170480 22.140000 -37.991253
v 32.170480 22.140000 62.008747
v 32.329520 22.140000 61.991253
v 21.329520 22.140000 -38.008747
v 21.170480 22.180000 -37.991253
v 32.170480 22.180000 62.008747
v 32.329520 22.180000 61.991253
v 21.329520 22.180000 -38.008747
f 571 574 573
f 573 572 571
f 577 578 575
f 575 576 577
f 572 576 575
f 572 575 571
f 573 577 576
f 573 576 572
f 574 578 577
f 574 577 573
f 571 575 578
f 571 578 574
o AngledLandingEdge_-1
usemtl white
v -38.469782 22.150000 -154.991394
v -27.469782 22.150000 62.008606
v -27.130218 22.150000 61.991394
v -38.130218 22.150000 -155.008606
v -38.469782 22.190000 -154.991394
v -27.469782 22.190000 62.008606
v -27.130218 22.190000 61.991394
v -38.130218 22.190000 -155.008606
f 579 582 581
f 581 580 579
f 585 586 583
f 583 584 585
f 580 584 583
f 580 583 579
f 581 585 584
f 581 584 580
f 582 586 585
f 582 585 581
f 579 583 586
f 579 586 582
o AngledLandingEdge_1
usemtl white
v -15.869782 22.150000 -154.991394
v -4.869782 22.150000 62.008606
v -4.530218 22.150000 61.991394
v -15.530218 22.150000 -155.008606
v -15.869782 22.190000 -154.991394
v -4.869782 22.190000 62.008606
v -4.530218 22.190000 61.991394
v -15.530218 22.190000 -155.008606
f 587 590 589
f 589 588 587
f 593 594 591
f 591 592 593
f 588 592 591
f 588 591 587
f 589 593 592
f 589 592 588
f 590 594 593
f 590 593 589
f 587 591 594
f 587 594 590
o LandingCentreline_01
usemtl white
v -27.135103 22.160000 -153.319631
v -26.805103 22.160000 -146.809631
v -26.365667 22.160000 -146.831907
v -26.695667 22.160000 -153.341907
v -27.135103 22.200000 -153.319631
v -26.805103 22.200000 -146.809631
v -26.365667 22.200000 -146.831907
v -26.695667 22.200000 -153.341907
f 595 598 597
f 597 596 595
f 601 602 599
f 599 600 601
f 596 600 599
f 596 599 595
f 597 601 600
f 597 600 596
f 598 602 601
f 598 601 597
f 595 599 602
f 595 602 598
o LandingCentreline_02
usemtl white
v -26.288949 22.160000 -136.627324
v -25.958949 22.160000 -130.117324
v -25.519513 22.160000 -130.139599
v -25.849513 22.160000 -136.649599
v -26.288949 22.200000 -136.627324
v -25.958949 22.200000 -130.117324
v -25.519513 22.200000 -130.139599
v -25.849513 22.200000 -136.649599
f 603 606 605
f 605 604 603
f 609 610 607
f 607 608 609
f 604 608 607
f 604 607 603
f 605 609 608
f 605 608 604
f 606 610 609
f 606 609 605
f 603 607 610
f 603 610 606
o LandingCentreline_03
usemtl white
v -25.442795 22.160000 -119.935016
v -25.112795 22.160000 -113.425016
v -24.673359 22.160000 -113.447292
v -25.003359 22.160000 -119.957292
v -25.442795 22.200000 -119.935016
v -25.112795 22.200000 -113.425016
v -24.673359 22.200000 -113.447292
v -25.003359 22.200000 -119.957292
f 611 614 613
f 613 612 611
f 617 618 615
f 615 616 617
f 612 616 615
f 612 615 611
f 613 617 616
f 613 616 612
f 614 618 617
f 614 617 613
f 611 615 618
f 611 618 614
o LandingCentreline_04
usemtl white
v -24.596641 22.160000 -103.242708
v -24.266641 22.160000 -96.732708
v -23.827205 22.160000 -96.754984
v -24.157205 22.160000 -103.264984
v -24.596641 22.200000 -103.242708
v -24.266641 22.200000 -96.732708
v -23.827205 22.200000 -96.754984
v -24.157205 22.200000 -103.264984
f 619 622 621
f 621 620 619
f 625 626 623
f 623 624 625
f 620 624 623
f 620 623 619
f 621 625 624
f 621 624 620
f 622 626 625
f 622 625 621
f 619 623 626
f 619 626 622
o LandingCentreline_05
usemtl white
v -23.750487 22.160000 -86.550401
v -23.420487 22.160000 -80.040401
v -22.981051 22.160000 -80.062676
v -23.311051 22.160000 -86.572676
v -23.750487 22.200000 -86.550401
v -23.420487 22.200000 -80.040401
v -22.981051 22.200000 -80.062676
v -23.311051 22.200000 -86.572676
f 627 630 629
f 629 628 627
f 633 634 631
f 631 632 633
f 628 632 631
f 628 631 627
f 629 633 632
f 629 632 628
f 630 634 633
f 630 633 629
f 627 631 634
f 627 634 630
o LandingCentreline_06
usemtl white
v -22.904333 22.160000 -69.858093
v -22.574333 22.160000 -63.348093
v -22.134897 22.160000 -63.370369
v -22.464897 22.160000 -69.880369
v -22.904333 22.200000 -69.858093
v -22.574333 22.200000 -63.348093
v -22.134897 22.200000 -63.370369
v -22.464897 22.200000 -69.880369
f 635 638 637
f 637 636 635
f 641 642 639
f 639 640 641
f 636 640 639
f 636 639 635
f 637 641 640
f 637 640 636
f 638 642 641
f 638 641 637
f 635 639 642
f 635 642 638
o LandingCentreline_07
usemtl white
v -22.058179 22.160000 -53.165785
v -21.728179 22.160000 -46.655785
v -21.288744 22.160000 -46.678061
v -21.618744 22.160000 -53.188061
v -22.058179 22.200000 -53.165785
v -21.728179 22.200000 -46.655785
v -21.288744 22.200000 -46.678061
v -21.618744 22.200000 -53.188061
f 643 646 645
f 645 644 643
f 649 650 647
f 647 648 649
f 644 648 647
f 644 647 643
f 645 649 648
f 645 648 644
f 646 650 649
f 646 649 645
f 643 647 650
f 643 650 646
o LandingCentreline_08
usemtl white
v -21.212026 22.160000 -36.473478
v -20.882026 22.160000 -29.963478
v -20.442590 22.160000 -29.985753
v -20.772590 22.160000 -36.495753
v -21.212026 22.200000 -36.473478
v -20.882026 22.200000 -29.963478
v -20.442590 22.200000 -29.985753
v -20.772590 22.200000 -36.495753
f 651 654 653
f 653 652 651
f 657 658 655
f 655 656 657
f 652 656 655
f 652 655 651
f 653 657 656
f 653 656 652
f 654 658 657
f 654 657 653
f 651 655 658
f 651 658 654
o LandingCentreline_09
usemtl white
v -20.365872 22.160000 -19.781170
v -20.035872 22.160000 -13.271170
v -19.596436 22.160000 -13.293445
v -19.926436 22.160000 -19.803445
v -20.365872 22.200000 -19.781170
v -20.035872 22.200000 -13.271170
v -19.596436 22.200000 -13.293445
v -19.926436 22.200000 -19.803445
f 659 662 661
f 661 660 659
f 665 666 663
f 663 664 665
f 660 664 663
f 660 663 659
f 661 665 664
f 661 664 660
f 662 666 665
f 662 665 661
f 659 663 666
f 659 666 662
o LandingCentreline_10
usemtl white
v -19.519718 22.160000 -3.088862
v -19.189718 22.160000 3.421138
v -18.750282 22.160000 3.398862
v -19.080282 22.160000 -3.111138
v -19.519718 22.200000 -3.088862
v -19.189718 22.200000 3.421138
v -18.750282 22.200000 3.398862
v -19.080282 22.200000 -3.111138
f 667 670 669
f 669 668 667
f 673 674 671
f 671 672 673
f 668 672 671
f 668 671 667
f 669 673 672
f 669 672 668
f 670 674 673
f 670 673 669
f 667 671 674
f 667 674 670
o LandingCentreline_11
usemtl white
v -18.673564 22.160000 13.603445
v -18.343564 22.160000 20.113445
v -17.904128 22.160000 20.091170
v -18.234128 22.160000 13.581170
v -18.673564 22.200000 13.603445
v -18.343564 22.200000 20.113445
v -17.904128 22.200000 20.091170
v -18.234128 22.200000 13.581170
f 675 678 677
f 677 676 675
f 681 682 679
f 679 680 681
f 676 680 679
f 676 679 675
f 677 681 680
f 677 680 676
f 678 682 681
f 678 681 677
f 675 679 682
f 675 682 678
o LandingCentreline_12
usemtl white
v -17.827410 22.160000 30.295753
v -17.497410 22.160000 36.805753
v -17.057974 22.160000 36.783478
v -17.387974 22.160000 30.273478
v -17.827410 22.200000 30.295753
v -17.497410 22.200000 36.805753
v -17.057974 22.200000 36.783478
v -17.387974 22.200000 30.273478
f 683 686 685
f 685 684 683
f 689 690 687
f 687 688 689
f 684 688 687
f 684 687 683
f 685 689 688
f 685 688 684
f 686 690 689
f 686 689 685
f 683 687 690
f 683 690 686
o LandingCentreline_13
usemtl white
v -16.981256 22.160000 46.988061
v -16.651256 22.160000 53.498061
v -16.211821 22.160000 53.475785
v -16.541821 22.160000 46.965785
v -16.981256 22.200000 46.988061
v -16.651256 22.200000 53.498061
v -16.211821 22.200000 53.475785
v -16.541821 22.200000 46.965785
f 691 694 693
f 693 692 691
f 697 698 695
f 695 696 697
f 692 696 695
f 692 695 691
f 693 697 696
f 693 696 692
f 694 698 697
f 694 697 693
f 691 695 698
f 691 698 694
o ArrestingWire_1
usemtl dark
v -34.590000 22.190000 -87.650000
v -12.590000 22.190000 -87.650000
v -12.590000 22.190000 -87.810000
v -34.590000 22.190000 -87.810000
v -34.590000 22.230000 -87.650000
v -12.590000 22.230000 -87.650000
v -12.590000 22.230000 -87.810000
v -34.590000 22.230000 -87.810000
f 699 702 701
f 701 700 699
f 705 706 703
f 703 704 705
f 700 704 703
f 700 703 699
f 701 705 704
f 701 704 700
f 702 706 705
f 702 705 701
f 699 703 706
f 699 706 702
o ArrestingWire_2
usemtl dark
v -33.710000 22.190000 -70.290000
v -11.710000 22.190000 -70.290000
v -11.710000 22.190000 -70.450000
v -33.710000 22.190000 -70.450000
v -33.710000 22.230000 -70.290000
v -11.710000 22.230000 -70.290000
v -11.710000 22.230000 -70.450000
v -33.710000 22.230000 -70.450000
f 707 710 709
f 709 708 707
f 713 714 711
f 711 712 713
f 708 712 711
f 708 711 707
f 709 713 712
f 709 712 708
f 710 714 713
f 710 713 709
f 707 711 714
f 707 714 710
o ArrestingWire_3
usemtl dark
v -32.830000 22.190000 -52.930000
v -10.830000 22.190000 -52.930000
v -10.830000 22.190000 -53.090000
v -32.830000 22.190000 -53.090000
v -32.830000 22.230000 -52.930000
v -10.830000 22.230000 -52.930000
v -10.830000 22.230000 -53.090000
v -32.830000 22.230000 -53.090000
f 715 718 717
f 717 716 715
f 721 722 719
f 719 720 721
f 716 720 719
f 716 719 715
f 717 721 720
f 717 720 716
f 718 722 721
f 718 721 717
f 715 719 722
f 715 722 718
o ArrestingWire_4
usemtl dark
v -31.950000 22.190000 -35.570000
v -9.950000 22.190000 -35.570000
v -9.950000 22.190000 -35.730000
v -31.950000 22.190000 -35.730000
v -31.950000 22.230000 -35.570000
v -9.950000 22.230000 -35.570000
v -9.950000 22.230000 -35.730000
v -31.950000 22.230000 -35.730000
f 723 726 725
f 725 724 723
f 729 730 727
f 727 728 729
f 724 728 727
f 724 727 723
f 725 729 728
f 725 728 724
f 726 730 729
f 726 729 725
f 723 727 730
f 723 730 726
o OutboardFairing_1
usemtl hull
v -47.000000 17.800000 102.000000
v -54.000000 17.800000 102.000000
v -58.000000 17.800000 106.000000
v -58.000000 17.800000 112.000000
v -54.000000 17.800000 116.000000
v -47.000000 17.800000 116.000000
v -47.000000 21.500000 102.000000
v -54.000000 21.500000 102.000000
v -58.000000 21.500000 106.000000
v -58.000000 21.500000 112.000000
v -54.000000 21.500000 116.000000
v -47.000000 21.500000 116.000000
f 731 736 735
f 731 735 734
f 731 734 733
f 733 732 731
f 741 742 737
f 740 741 737
f 739 740 737
f 737 738 739
f 732 738 737
f 732 737 731
f 733 739 738
f 733 738 732
f 734 740 739
f 734 739 733
f 735 741 740
f 735 740 734
f 736 742 741
f 736 741 735
f 731 737 742
f 731 742 736
o LaserEnclosure_1
usemtl island
v -55.000000 21.500000 105.500000
v -49.000000 21.500000 105.500000
v -48.300000 21.500000 109.000000
v -49.000000 21.500000 112.500000
v -55.000000 21.500000 112.500000
v -55.700000 21.500000 109.000000
v -53.770000 25.600000 106.795000
v -50.230000 25.600000 106.795000
v -49.817000 25.600000 109.000000
v -50.230000 25.600000 111.205000
v -53.770000 25.600000 111.205000
v -54.183000 25.600000 109.000000
f 743 744 745
f 743 745 746
f 743 746 747
f 743 747 748
f 754 753 752
f 754 752 751
f 754 751 750
f 754 750 749
f 749 750 744
f 749 744 743
f 750 751 745
f 750 745 744
f 751 752 746
f 751 746 745
f 752 753 747
f 752 747 746
f 753 754 748
f 753 748 747
f 754 749 743
f 754 743 748
o LaserAperture_1
usemtl laser
v -53.050000 24.075000 111.510000
v -50.950000 24.075000 111.510000
v -50.950000 24.725000 111.510000
v -53.050000 24.725000 111.510000
v -53.050000 24.075000 111.690000
v -50.950000 24.075000 111.690000
v -50.950000 24.725000 111.690000
v -53.050000 24.725000 111.690000
f 755 758 757
f 755 757 756
f 759 760 761
f 759 761 762
f 755 756 760
f 755 760 759
f 758 762 761
f 758 761 757
f 755 759 762
f 755 762 758
f 756 757 761
f 756 761 760
o OutboardFairing_2
usemtl hull
v 48.000000 17.800000 103.000000
v 55.000000 17.800000 103.000000
v 59.000000 17.800000 107.000000
v 59.000000 17.800000 113.000000
v 55.000000 17.800000 117.000000
v 48.000000 17.800000 117.000000
v 48.000000 21.500000 103.000000
v 55.000000 21.500000 103.000000
v 59.000000 21.500000 107.000000
v 59.000000 21.500000 113.000000
v 55.000000 21.500000 117.000000
v 48.000000 21.500000 117.000000
f 768 763 764
f 768 764 765
f 768 765 766
f 766 767 768
f 770 769 774
f 771 770 774
f 772 771 774
f 774 773 772
f 763 769 770
f 763 770 764
f 764 770 771
f 764 771 765
f 765 771 772
f 765 772 766
f 766 772 773
f 766 773 767
f 767 773 774
f 767 774 768
f 768 774 769
f 768 769 763
o LaserEnclosure_2
usemtl island
v 50.000000 21.500000 106.500000
v 56.000000 21.500000 106.500000
v 56.700000 21.500000 110.000000
v 56.000000 21.500000 113.500000
v 50.000000 21.500000 113.500000
v 49.300000 21.500000 110.000000
v 51.230000 25.600000 107.795000
v 54.770000 25.600000 107.795000
v 55.183000 25.600000 110.000000
v 54.770000 25.600000 112.205000
v 51.230000 25.600000 112.205000
v 50.817000 25.600000 110.000000
f 775 776 777
f 775 777 778
f 775 778 779
f 775 779 780
f 786 785 784
f 786 784 783
f 786 783 782
f 786 782 781
f 781 782 776
f 781 776 775
f 782 783 777
f 782 777 776
f 783 784 778
f 783 778 777
f 784 785 779
f 784 779 778
f 785 786 780
f 785 780 779
f 786 781 775
f 786 775 780
o LaserAperture_2
usemtl laser
v 51.950000 24.075000 112.510000
v 54.050000 24.075000 112.510000
v 54.050000 24.725000 112.510000
v 51.950000 24.725000 112.510000
v 51.950000 24.075000 112.690000
v 54.050000 24.075000 112.690000
v 54.050000 24.725000 112.690000
v 51.950000 24.725000 112.690000
f 787 790 789
f 787 789 788
f 791 792 793
f 791 793 794
f 787 788 792
f 787 792 791
f 790 794 793
f 790 793 789
f 787 791 794
f 787 794 790
f 788 789 793
f 788 793 792
o OutboardFairing_3
usemtl hull
v -53.000000 17.800000 -132.000000
v -60.000000 17.800000 -132.000000
v -64.000000 17.800000 -128.000000
v -64.000000 17.800000 -122.000000
v -60.000000 17.800000 -118.000000
v -53.000000 17.800000 -118.000000
v -53.000000 21.500000 -132.000000
v -60.000000 21.500000 -132.000000
v -64.000000 21.500000 -128.000000
v -64.000000 21.500000 -122.000000
v -60.000000 21.500000 -118.000000
v -53.000000 21.500000 -118.000000
f 795 800 799
f 795 799 798
f 795 798 797
f 797 796 795
f 805 806 801
f 804 805 801
f 803 804 801
f 801 802 803
f 796 802 801
f 796 801 795
f 797 803 802
f 797 802 796
f 798 804 803
f 798 803 797
f 799 805 804
f 799 804 798
f 800 806 805
f 800 805 799
f 795 801 806
f 795 806 800
o LaserEnclosure_3
usemtl island
v -61.000000 21.500000 -128.500000
v -55.000000 21.500000 -128.500000
v -54.300000 21.500000 -125.000000
v -55.000000 21.500000 -121.500000
v -61.000000 21.500000 -121.500000
v -61.700000 21.500000 -125.000000
v -59.770000 25.600000 -127.205000
v -56.230000 25.600000 -127.205000
v -55.817000 25.600000 -125.000000
v -56.230000 25.600000 -122.795000
v -59.770000 25.600000 -122.795000
v -60.183000 25.600000 -125.000000
f 807 808 809
f 807 809 810
f 807 810 811
f 807 811 812
f 818 817 816
f 818 816 815
f 818 815 814
f 818 814 813
f 813 814 808
f 813 808 807
f 814 815 809
f 814 809 808
f 815 816 810
f 815 810 809
f 816 817 811
f 816 811 810
f 817 818 812
f 817 812 811
f 818 813 807
f 818 807 812
o LaserAperture_3
usemtl laser
v -59.050000 24.075000 -122.490000
v -56.950000 24.075000 -122.490000
v -56.950000 24.725000 -122.490000
v -59.050000 24.725000 -122.490000
v -59.050000 24.075000 -122.310000
v -56.950000 24.075000 -122.310000
v -56.950000 24.725000 -122.310000
v -59.050000 24.725000 -122.310000
f 819 822 821
f 819 821 820
f 823 824 825
f 823 825 826
f 819 820 824
f 819 824 823
f 822 826 825
f 822 825 821
f 819 823 826
f 819 826 822
f 820 821 825
f 820 825 824
o OutboardFairing_4
usemtl hull
v 50.000000 17.800000 -133.000000
v 57.000000 17.800000 -133.000000
v 61.000000 17.800000 -129.000000
v 61.000000 17.800000 -123.000000
v 57.000000 17.800000 -119.000000
v 50.000000 17.800000 -119.000000
v 50.000000 21.500000 -133.000000
v 57.000000 21.500000 -133.000000
v 61.000000 21.500000 -129.000000
v 61.000000 21.500000 -123.000000
v 57.000000 21.500000 -119.000000
v 50.000000 21.500000 -119.000000
f 832 827 828
f 832 828 829
f 832 829 830
f 830 831 832
f 834 833 838
f 835 834 838
f 836 835 838
f 838 837 836
f 827 833 834
f 827 834 828
f 828 834 835
f 828 835 829
f 829 835 836
f 829 836 830
f 830 836 837
f 830 837 831
f 831 837 838
f 831 838 832
f 832 838 833
f 832 833 827
o LaserEnclosure_4
usemtl island
v 52.000000 21.500000 -129.500000
v 58.000000 21.500000 -129.500000
v 58.700000 21.500000 -126.000000
v 58.000000 21.500000 -122.500000
v 52.000000 21.500000 -122.500000
v 51.300000 21.500000 -126.000000
v 53.230000 25.600000 -128.205000
v 56.770000 25.600000 -128.205000
v 57.183000 25.600000 -126.000000
v 56.770000 25.600000 -123.795000
v 53.230000 25.600000 -123.795000
v 52.817000 25.600000 -126.000000
f 839 840 841
f 839 841 842
f 839 842 843
f 839 843 844
f 850 849 848
f 850 848 847
f 850 847 846
f 850 846 845
f 845 846 840
f 845 840 839
f 846 847 841
f 846 841 840
f 847 848 842
f 847 842 841
f 848 849 843
f 848 843 842
f 849 850 844
f 849 844 843
f 850 845 839
f 850 839 844
o LaserAperture_4
usemtl laser
v 53.950000 24.075000 -123.490000
v 56.050000 24.075000 -123.490000
v 56.050000 24.725000 -123.490000
v 53.950000 24.725000 -123.490000
v 53.950000 24.075000 -123.310000
v 56.050000 24.075000 -123.310000
v 56.050000 24.725000 -123.310000
v 53.950000 24.725000 -123.310000
f 851 854 853
f 851 853 852
f 855 856 857
f 855 857 858
f 851 852 856
f 851 856 855
f 854 858 857
f 854 857 853
f 851 855 858
f 851 858 854
f 852 853 857
f 852 857 856
o DefensiveHatch_1
usemtl hatch
v -50.800000 22.020000 27.500000
v -45.200000 22.020000 27.500000
v -45.200000 22.160000 27.500000
v -50.800000 22.160000 27.500000
v -50.800000 22.020000 34.500000
v -45.200000 22.020000 34.500000
v -45.200000 22.160000 34.500000
v -50.800000 22.160000 34.500000
f 859 862 861
f 859 861 860
f 863 864 865
f 863 865 866
f 859 860 864
f 859 864 863
f 862 866 865
f 862 865 861
f 859 863 866
f 859 866 862
f 860 861 865
f 860 865 864
o DefensiveHatch_2
usemtl hatch
v 46.200000 22.020000 -94.500000
v 51.800000 22.020000 -94.500000
v 51.800000 22.160000 -94.500000
v 46.200000 22.160000 -94.500000
v 46.200000 22.020000 -87.500000
v 51.800000 22.020000 -87.500000
v 51.800000 22.160000 -87.500000
v 46.200000 22.160000 -87.500000
f 867 870 869
f 867 869 868
f 871 872 873
f 871 873 874
f 867 868 872
f 867 872 871
f 870 874 873
f 870 873 869
f 867 871 874
f 867 874 870
f 868 869 873
f 868 873 872
o BowSonarFairingStudy
usemtl dark
v -3.000000 -7.250000 160.000000
v 3.000000 -7.250000 160.000000
v 3.000000 -3.750000 160.000000
v -3.000000 -3.750000 160.000000
v -3.000000 -7.250000 168.000000
v 3.000000 -7.250000 168.000000
v 3.000000 -3.750000 168.000000
v -3.000000 -3.750000 168.000000
f 875 878 877
f 875 877 876
f 879 880 881
f 879 881 882
f 875 876 880
f 875 880 879
f 878 882 881
f 878 881 877
f 875 879 882
f 875 882 878
f 876 877 881
f 876 881 880
