# Original Australis geometry; approximate Sea Power units
mtllib ran_cvn_australis_2030.mtl
o Hull
usemtl hull
v -0.407996 0.295797 -2.695686
v 0.320568 0.295797 -2.695686
v 0.466281 0.295797 -2.477117
v 0.553709 0.295797 -2.010836
v 0.582851 0.295797 -1.107417
v 0.597422 0.295797 -0.480852
v 0.611994 0.295797 1.049132
v 0.582851 0.295797 1.821410
v 0.466281 0.295797 2.375118
v 0.174855 0.295797 2.695686
v -0.174855 0.295797 2.695686
v -0.466281 0.295797 2.345976
v -0.582851 0.295797 1.792267
v -0.568280 0.295797 0.874277
v -0.670279 0.295797 -0.597422
v -0.626565 0.295797 -1.661126
v -0.524566 0.295797 -2.447974
v -0.301917 0.174855 -2.668729
v 0.237220 0.174855 -2.668729
v 0.345048 0.174855 -2.452346
v 0.409744 0.174855 -1.990728
v 0.431310 0.174855 -1.096343
v 0.442093 0.174855 -0.476044
v 0.452875 0.174855 1.038641
v 0.404121 0.174855 1.803195
v 0.217718 0.174855 2.351367
v 0.051757 0.174855 2.668729
v -0.051757 0.174855 2.668729
v -0.224393 0.174855 2.322516
v -0.409057 0.174855 1.774344
v -0.420527 0.174855 0.865534
v -0.496006 0.174855 -0.591448
v -0.463658 0.174855 -1.644514
v -0.388179 0.174855 -2.423495
v -0.236638 0.065571 -2.641772
v 0.185929 0.065571 -2.641772
v 0.270443 0.065571 -2.427575
v 0.321151 0.065571 -1.970619
v 0.338054 0.065571 -1.085269
v 0.346505 0.065571 -0.471235
v 0.354956 0.065571 1.028149
v 0.306799 0.065571 1.784981
v 0.124071 0.065571 2.327616
v 0.012170 0.065571 2.641772
v -0.012170 0.065571 2.641772
v -0.131745 0.065571 2.299056
v -0.312473 0.065571 1.756422
v -0.329602 0.065571 0.856791
v -0.388762 0.065571 -0.585474
v -0.363408 0.065571 -1.627903
v -0.304248 0.065571 -2.399015
v -0.203998 0.000000 -2.641772
v 0.160284 0.000000 -2.641772
v 0.233140 0.000000 -2.427575
v 0.276854 0.000000 -1.970619
v 0.291426 0.000000 -1.085269
v 0.298711 0.000000 -0.471235
v 0.305997 0.000000 1.028149
v 0.261880 0.000000 1.784981
v 0.094769 0.000000 2.327616
v 0.003060 0.000000 2.641772
v -0.003060 0.000000 2.641772
v -0.102024 0.000000 2.299056
v -0.267244 0.000000 1.756422
v -0.284140 0.000000 0.856791
v -0.335139 0.000000 -0.585474
v -0.313282 0.000000 -1.627903
v -0.262283 0.000000 -2.399015
f 17 16 15
f 17 15 14
f 17 14 13
f 17 13 12
f 17 12 11
f 17 11 10
f 17 10 9
f 17 9 8
f 17 8 7
f 17 7 6
f 17 6 5
f 17 5 4
f 17 4 3
f 17 3 2
f 17 2 1
f 52 53 54
f 52 54 55
f 52 55 56
f 52 56 57
f 52 57 58
f 52 58 59
f 52 59 60
f 52 60 61
f 52 61 62
f 52 62 63
f 52 63 64
f 52 64 65
f 52 65 66
f 52 66 67
f 52 67 68
f 1 2 19
f 1 19 18
f 2 3 20
f 2 20 19
f 3 4 21
f 3 21 20
f 4 5 22
f 4 22 21
f 5 6 23
f 5 23 22
f 6 7 24
f 6 24 23
f 7 8 25
f 7 25 24
f 8 9 26
f 8 26 25
f 9 10 27
f 9 27 26
f 10 11 28
f 10 28 27
f 11 12 29
f 11 29 28
f 12 13 30
f 12 30 29
f 13 14 31
f 13 31 30
f 14 15 32
f 14 32 31
f 15 16 33
f 15 33 32
f 16 17 34
f 16 34 33
f 17 1 18
f 17 18 34
f 18 19 36
f 18 36 35
f 19 20 37
f 19 37 36
f 20 21 38
f 20 38 37
f 21 22 39
f 21 39 38
f 22 23 40
f 22 40 39
f 23 24 41
f 23 41 40
f 24 25 42
f 24 42 41
f 25 26 43
f 25 43 42
f 26 27 44
f 26 44 43
f 27 28 45
f 27 45 44
f 28 29 46
f 28 46 45
f 29 30 47
f 29 47 46
f 30 31 48
f 30 48 47
f 31 32 49
f 31 49 48
f 32 33 50
f 32 50 49
f 33 34 51
f 33 51 50
f 34 18 35
f 34 35 51
f 35 36 53
f 35 53 52
f 36 37 54
f 36 54 53
f 37 38 55
f 37 55 54
f 38 39 56
f 38 56 55
f 39 40 57
f 39 57 56
f 40 41 58
f 40 58 57
f 41 42 59
f 41 59 58
f 42 43 60
f 42 60 59
f 43 44 61
f 43 61 60
f 44 45 62
f 44 62 61
f 45 46 63
f 45 63 62
f 46 47 64
f 46 64 63
f 47 48 65
f 47 65 64
f 48 49 66
f 48 66 65
f 49 50 67
f 49 67 66
f 50 51 68
f 50 68 67
f 51 35 52
f 51 52 68
o Deck
usemtl deck
v -0.407996 0.295797 -2.695686
v 0.320568 0.295797 -2.695686
v 0.466281 0.295797 -2.477117
v 0.553709 0.295797 -2.010836
v 0.582851 0.295797 -1.107417
v 0.597422 0.295797 -0.480852
v 0.611994 0.295797 1.049132
v 0.582851 0.295797 1.821410
v 0.466281 0.295797 2.375118
v 0.174855 0.295797 2.695686
v -0.174855 0.295797 2.695686
v -0.466281 0.295797 2.345976
v -0.582851 0.295797 1.792267
v -0.568280 0.295797 0.874277
v -0.670279 0.295797 -0.597422
v -0.626565 0.295797 -1.661126
v -0.524566 0.295797 -2.447974
v -0.407996 0.320568 -2.695686
v 0.320568 0.320568 -2.695686
v 0.466281 0.320568 -2.477117
v 0.553709 0.320568 -2.010836
v 0.582851 0.320568 -1.107417
v 0.597422 0.320568 -0.480852
v 0.611994 0.320568 1.049132
v 0.582851 0.320568 1.821410
v 0.466281 0.320568 2.375118
v 0.174855 0.320568 2.695686
v -0.174855 0.320568 2.695686
v -0.466281 0.320568 2.345976
v -0.582851 0.320568 1.792267
v -0.568280 0.320568 0.874277
v -0.670279 0.320568 -0.597422
v -0.626565 0.320568 -1.661126
v -0.524566 0.320568 -2.447974
f 85 69 70
f 85 70 71
f 85 71 72
f 85 72 73
f 85 73 74
f 85 74 75
f 85 75 76
f 85 76 77
f 85 77 78
f 85 78 79
f 85 79 80
f 80 81 82
f 85 80 82
f 85 82 83
f 83 84 85
f 87 86 102
f 88 87 102
f 89 88 102
f 90 89 102
f 91 90 102
f 92 91 102
f 93 92 102
f 94 93 102
f 95 94 102
f 96 95 102
f 97 96 102
f 99 98 97
f 99 97 102
f 100 99 102
f 102 101 100
f 69 86 87
f 69 87 70
f 70 87 88
f 70 88 71
f 71 88 89
f 71 89 72
f 72 89 90
f 72 90 73
f 73 90 91
f 73 91 74
f 74 91 92
f 74 92 75
f 75 92 93
f 75 93 76
f 76 93 94
f 76 94 77
f 77 94 95
f 77 95 78
f 78 95 96
f 78 96 79
f 79 96 97
f 79 97 80
f 80 97 98
f 80 98 81
f 81 98 99
f 81 99 82
f 82 99 100
f 82 100 83
f 83 100 101
f 83 101 84
f 84 101 102
f 84 102 85
f 85 102 86
f 85 86 69
o Surface_Underwater
usemtl underwater
v -0.203998 0.000000 -2.641772
v 0.160284 0.000000 -2.641772
v 0.233140 0.000000 -2.427575
v 0.276854 0.000000 -1.970619
v 0.291426 0.000000 -1.085269
v 0.298711 0.000000 -0.471235
v 0.305997 0.000000 1.028149
v 0.261880 0.000000 1.784981
v 0.094769 0.000000 2.327616
v 0.003060 0.000000 2.641772
v -0.003060 0.000000 2.641772
v -0.102024 0.000000 2.299056
v -0.267244 0.000000 1.756422
v -0.284140 0.000000 0.856791
v -0.335139 0.000000 -0.585474
v -0.313282 0.000000 -1.627903
v -0.262283 0.000000 -2.399015
v -0.126479 -0.167570 -2.372204
v 0.099376 -0.167570 -2.372204
v 0.144547 -0.167570 -2.179863
v 0.171650 -0.167570 -1.769536
v 0.180684 -0.167570 -0.974527
v 0.185201 -0.167570 -0.423150
v 0.189718 -0.167570 0.923236
v 0.162081 -0.167570 1.602840
v 0.057423 -0.167570 2.090104
v 0.001084 -0.167570 2.372204
v -0.001084 -0.167570 2.372204
v -0.061991 -0.167570 2.064458
v -0.165458 -0.167570 1.577195
v -0.176167 -0.167570 0.769363
v -0.207786 -0.167570 -0.525732
v -0.194235 -0.167570 -1.461790
v -0.162615 -0.167570 -2.154218
f 119 118 117
f 119 117 116
f 119 116 115
f 119 115 114
f 119 114 113
f 119 113 112
f 119 112 111
f 119 111 110
f 119 110 109
f 119 109 108
f 119 108 107
f 119 107 106
f 119 106 105
f 119 105 104
f 119 104 103
f 120 121 122
f 120 122 123
f 120 123 124
f 120 124 125
f 120 125 126
f 120 126 127
f 120 127 128
f 120 128 129
f 120 129 130
f 120 130 131
f 120 131 132
f 120 132 133
f 120 133 134
f 120 134 135
f 120 135 136
f 103 104 121
f 103 121 120
f 104 105 122
f 104 122 121
f 105 106 123
f 105 123 122
f 106 107 124
f 106 124 123
f 107 108 125
f 107 125 124
f 108 109 126
f 108 126 125
f 109 110 127
f 109 127 126
f 110 111 128
f 110 128 127
f 111 112 129
f 111 129 128
f 112 113 130
f 112 130 129
f 113 114 131
f 113 131 130
f 114 115 132
f 114 132 131
f 115 116 133
f 115 133 132
f 116 117 134
f 116 134 133
f 117 118 135
f 117 135 134
f 118 119 136
f 118 136 135
f 119 103 120
f 119 120 136
o Surface_Island
usemtl island
v 0.378853 0.320568 -0.437138
v 0.480852 0.320568 -0.480852
v 0.568280 0.320568 -0.335139
v 0.568280 0.320568 0.407996
v 0.480852 0.320568 0.568280
v 0.378853 0.320568 0.466281
v 0.395902 0.539137 -0.350585
v 0.479541 0.539137 -0.386430
v 0.551231 0.539137 -0.266946
v 0.551231 0.539137 0.342425
v 0.479541 0.539137 0.473858
v 0.395902 0.539137 0.390219
v 0.407996 0.533309 -0.247712
v 0.495423 0.533309 -0.276854
v 0.553709 0.533309 -0.174855
v 0.553709 0.533309 0.378853
v 0.466281 0.533309 0.480852
v 0.407996 0.533309 0.393424
v 0.421110 0.641136 -0.191758
v 0.492801 0.641136 -0.216238
v 0.540594 0.641136 -0.130559
v 0.540594 0.641136 0.334557
v 0.468904 0.641136 0.420236
v 0.421110 0.641136 0.346796
v 0.437138 0.636765 -0.043714
v 0.509995 0.636765 -0.058285
v 0.539137 0.636765 0.014571
v 0.539137 0.636765 0.276854
v 0.480852 0.636765 0.349711
v 0.437138 0.636765 0.262283
v 0.453458 0.801420 0.016903
v 0.503000 0.801420 0.006994
v 0.522817 0.801420 0.056537
v 0.522817 0.801420 0.234889
v 0.483184 0.801420 0.284431
v 0.453458 0.801420 0.224981
v 0.378853 0.320568 -1.602840
v 0.480852 0.320568 -1.631983
v 0.568280 0.320568 -1.515413
v 0.568280 0.320568 -1.078274
v 0.480852 0.320568 -0.961704
v 0.378853 0.320568 -1.005418
v 0.395902 0.488138 -1.541641
v 0.479541 0.488138 -1.564955
v 0.551231 0.488138 -1.471699
v 0.551231 0.488138 -1.121988
v 0.479541 0.488138 -1.028732
v 0.395902 0.488138 -1.063703
v 0.407996 0.485224 -1.515413
v 0.495423 0.485224 -1.529984
v 0.553709 0.485224 -1.427985
v 0.553709 0.485224 -1.136560
v 0.466281 0.485224 -1.049132
v 0.407996 0.485224 -1.107417
v 0.422567 0.568280 -1.473447
v 0.492509 0.568280 -1.485396
v 0.539137 0.568280 -1.401757
v 0.539137 0.568280 -1.162788
v 0.469195 0.568280 -1.091097
v 0.422567 0.568280 -1.138891
v 0.437138 0.565366 -1.384271
v 0.509995 0.565366 -1.398843
v 0.539137 0.565366 -1.325986
v 0.539137 0.565366 -1.209416
v 0.480852 0.565366 -1.165702
v 0.437138 0.565366 -1.223987
v 0.452438 0.641136 -1.353672
v 0.503438 0.641136 -1.363871
v 0.523837 0.641136 -1.312872
v 0.523837 0.641136 -1.231273
v 0.483038 0.641136 -1.200673
v 0.452438 0.641136 -1.241473
f 137 138 139
f 137 139 140
f 137 140 141
f 137 141 142
f 148 147 146
f 148 146 145
f 148 145 144
f 148 144 143
f 143 144 138
f 143 138 137
f 144 145 139
f 144 139 138
f 145 146 140
f 145 140 139
f 146 147 141
f 146 141 140
f 147 148 142
f 147 142 141
f 148 143 137
f 148 137 142
f 149 150 151
f 149 151 152
f 149 152 153
f 149 153 154
f 160 159 158
f 160 158 157
f 160 157 156
f 160 156 155
f 155 156 150
f 155 150 149
f 156 157 151
f 156 151 150
f 157 158 152
f 157 152 151
f 158 159 153
f 158 153 152
f 159 160 154
f 159 154 153
f 160 155 149
f 160 149 154
f 161 162 163
f 161 163 164
f 161 164 165
f 161 165 166
f 172 171 170
f 172 170 169
f 172 169 168
f 172 168 167
f 167 168 162
f 167 162 161
f 168 169 163
f 168 163 162
f 169 170 164
f 169 164 163
f 170 171 165
f 170 165 164
f 171 172 166
f 171 166 165
f 172 167 161
f 172 161 166
f 173 174 175
f 173 175 176
f 173 176 177
f 173 177 178
f 184 183 182
f 184 182 181
f 184 181 180
f 184 180 179
f 179 180 174
f 179 174 173
f 180 181 175
f 180 175 174
f 181 182 176
f 181 176 175
f 182 183 177
f 182 177 176
f 183 184 178
f 183 178 177
f 184 179 173
f 184 173 178
f 185 186 187
f 185 187 188
f 185 188 189
f 185 189 190
f 196 195 194
f 196 194 193
f 196 193 192
f 196 192 191
f 191 192 186
f 191 186 185
f 192 193 187
f 192 187 186
f 193 194 188
f 193 188 187
f 194 195 189
f 194 189 188
f 195 196 190
f 195 190 189
f 196 191 185
f 196 185 190
f 197 198 199
f 197 199 200
f 197 200 201
f 197 201 202
f 208 207 206
f 208 206 205
f 208 205 204
f 208 204 203
f 203 204 198
f 203 198 197
f 204 205 199
f 204 199 198
f 205 206 200
f 205 200 199
f 206 207 201
f 206 201 200
f 207 208 202
f 207 202 201
f 208 203 197
f 208 197 202
o Surface_Glass
usemtl glass
v 0.410036 0.570465 -0.116570
v 0.413241 0.570465 -0.116570
v 0.413241 0.595237 -0.116570
v 0.410036 0.595237 -0.116570
v 0.410036 0.570465 0.320568
v 0.413241 0.570465 0.320568
v 0.413241 0.595237 0.320568
v 0.410036 0.595237 0.320568
v 0.548463 0.570465 -0.116570
v 0.551669 0.570465 -0.116570
v 0.551669 0.595237 -0.116570
v 0.548463 0.595237 -0.116570
v 0.548463 0.570465 0.320568
v 0.551669 0.570465 0.320568
v 0.551669 0.595237 0.320568
v 0.548463 0.595237 0.320568
v 0.422567 0.571194 0.435535
v 0.539137 0.571194 0.435535
v 0.539137 0.594508 0.435535
v 0.422567 0.594508 0.435535
v 0.422567 0.571194 0.438741
v 0.539137 0.571194 0.438741
v 0.539137 0.594508 0.438741
v 0.422567 0.594508 0.438741
v 0.409307 0.524930 -1.471699
v 0.412513 0.524930 -1.471699
v 0.412513 0.547516 -1.471699
v 0.409307 0.547516 -1.471699
v 0.409307 0.524930 -1.121988
v 0.412513 0.524930 -1.121988
v 0.412513 0.547516 -1.121988
v 0.409307 0.547516 -1.121988
v 0.549191 0.524930 -1.427985
v 0.552397 0.524930 -1.427985
v 0.552397 0.547516 -1.427985
v 0.549191 0.547516 -1.427985
v 0.549191 0.524930 -1.136560
v 0.552397 0.524930 -1.136560
v 0.552397 0.547516 -1.136560
v 0.549191 0.547516 -1.136560
v 0.422567 0.524930 -1.073175
v 0.539137 0.524930 -1.073175
v 0.539137 0.547516 -1.073175
v 0.422567 0.547516 -1.073175
v 0.422567 0.524930 -1.070260
v 0.539137 0.524930 -1.070260
v 0.539137 0.547516 -1.070260
v 0.422567 0.547516 -1.070260
f 209 212 211
f 209 211 210
f 213 214 215
f 213 215 216
f 209 210 214
f 209 214 213
f 212 216 215
f 212 215 211
f 209 213 216
f 209 216 212
f 210 211 215
f 210 215 214
f 217 220 219
f 217 219 218
f 221 222 223
f 221 223 224
f 217 218 222
f 217 222 221
f 220 224 223
f 220 223 219
f 217 221 224
f 217 224 220
f 218 219 223
f 218 223 222
f 225 228 227
f 225 227 226
f 229 230 231
f 229 231 232
f 225 226 230
f 225 230 229
f 228 232 231
f 228 231 227
f 225 229 232
f 225 232 228
f 226 227 231
f 226 231 230
f 233 236 235
f 233 235 234
f 237 238 239
f 237 239 240
f 233 234 238
f 233 238 237
f 236 240 239
f 236 239 235
f 233 237 240
f 233 240 236
f 234 235 239
f 234 239 238
f 241 244 243
f 241 243 242
f 245 246 247
f 245 247 248
f 241 242 246
f 241 246 245
f 244 248 247
f 244 247 243
f 241 245 248
f 241 248 244
f 242 243 247
f 242 247 246
f 249 252 251
f 249 251 250
f 253 254 255
f 253 255 256
f 249 250 254
f 249 254 253
f 252 256 255
f 252 255 251
f 249 253 256
f 249 256 252
f 250 251 255
f 250 255 254
o Surface_White
usemtl white
v 0.518737 0.324211 -0.855188
v 0.705250 0.324211 -0.855188
v 0.705250 0.324211 -0.858394
v 0.518737 0.324211 -0.858394
v 0.518737 0.324794 -0.855188
v 0.705250 0.324794 -0.855188
v 0.705250 0.324794 -0.858394
v 0.518737 0.324794 -0.858394
v 0.518737 0.324211 -0.598734
v 0.705250 0.324211 -0.598734
v 0.705250 0.324211 -0.601939
v 0.518737 0.324211 -0.601939
v 0.518737 0.324794 -0.598734
v 0.705250 0.324794 -0.598734
v 0.705250 0.324794 -0.601939
v 0.518737 0.324794 -0.601939
v 0.518737 0.324211 0.878794
v 0.705250 0.324211 0.878794
v 0.705250 0.324211 0.875588
v 0.518737 0.324211 0.875588
v 0.518737 0.324794 0.878794
v 0.705250 0.324794 0.878794
v 0.705250 0.324794 0.875588
v 0.518737 0.324794 0.875588
v 0.518737 0.324211 1.135248
v 0.705250 0.324211 1.135248
v 0.705250 0.324211 1.132042
v 0.518737 0.324211 1.132042
v 0.518737 0.324794 1.135248
v 0.705250 0.324794 1.135248
v 0.705250 0.324794 1.132042
v 0.518737 0.324794 1.132042
v -0.705250 0.324211 1.213933
v -0.518737 0.324211 1.213933
v -0.518737 0.324211 1.210727
v -0.705250 0.324211 1.210727
v -0.705250 0.324794 1.213933
v -0.518737 0.324794 1.213933
v -0.518737 0.324794 1.210727
v -0.705250 0.324794 1.210727
v -0.705250 0.324211 1.470388
v -0.518737 0.324211 1.470388
v -0.518737 0.324211 1.467182
v -0.705250 0.324211 1.467182
v -0.705250 0.324794 1.470388
v -0.518737 0.324794 1.470388
v -0.518737 0.324794 1.467182
v -0.705250 0.324794 1.467182
v 0.504166 0.324211 -2.050033
v 0.690679 0.324211 -2.050033
v 0.690679 0.324211 -2.053239
v 0.504166 0.324211 -2.053239
v 0.504166 0.324794 -2.050033
v 0.690679 0.324794 -2.050033
v 0.690679 0.324794 -2.053239
v 0.504166 0.324794 -2.053239
v 0.504166 0.324211 -1.793578
v 0.690679 0.324211 -1.793578
v 0.690679 0.324211 -1.796784
v 0.504166 0.324211 -1.796784
v 0.504166 0.324794 -1.793578
v 0.690679 0.324794 -1.793578
v 0.690679 0.324794 -1.796784
v 0.504166 0.324794 -1.796784
v -0.502270 0.322754 -2.258457
v -0.385700 0.322754 0.903510
v -0.380749 0.322754 0.903328
v -0.497319 0.322754 -2.258639
v -0.502270 0.323337 -2.258457
v -0.385700 0.323337 0.903510
v -0.380749 0.323337 0.903328
v -0.497319 0.323337 -2.258639
v -0.172959 0.322754 -2.258457
v -0.056389 0.322754 0.903510
v -0.051438 0.322754 0.903328
v -0.168008 0.322754 -2.258639
v -0.172959 0.323337 -2.258457
v -0.056389 0.323337 0.903510
v -0.051438 0.323337 0.903328
v -0.168008 0.323337 -2.258639
v -0.337446 0.322899 -2.234107
v -0.333949 0.322899 -2.139248
v -0.327542 0.322899 -2.139484
v -0.331039 0.322899 -2.234343
v -0.337446 0.323482 -2.234107
v -0.333949 0.323482 -2.139248
v -0.327542 0.323482 -2.139484
v -0.331039 0.323482 -2.234343
v -0.328479 0.322899 -1.990879
v -0.324982 0.322899 -1.896020
v -0.318575 0.322899 -1.896256
v -0.322072 0.322899 -1.991115
v -0.328479 0.323482 -1.990879
v -0.324982 0.323482 -1.896020
v -0.318575 0.323482 -1.896256
v -0.322072 0.323482 -1.991115
v -0.319512 0.322899 -1.747650
v -0.316015 0.322899 -1.652791
v -0.309608 0.322899 -1.653028
v -0.313105 0.322899 -1.747887
v -0.319512 0.323482 -1.747650
v -0.316015 0.323482 -1.652791
v -0.309608 0.323482 -1.653028
v -0.313105 0.323482 -1.747887
v -0.310545 0.322899 -1.504422
v -0.307048 0.322899 -1.409563
v -0.300641 0.322899 -1.409799
v -0.304138 0.322899 -1.504658
v -0.310545 0.323482 -1.504422
v -0.307048 0.323482 -1.409563
v -0.300641 0.323482 -1.409799
v -0.304138 0.323482 -1.504658
v -0.301578 0.322899 -1.261194
v -0.298081 0.322899 -1.166335
v -0.291674 0.322899 -1.166571
v -0.295171 0.322899 -1.261430
v -0.301578 0.323482 -1.261194
v -0.298081 0.323482 -1.166335
v -0.291674 0.323482 -1.166571
v -0.295171 0.323482 -1.261430
v -0.292611 0.322899 -1.017966
v -0.289114 0.322899 -0.923107
v -0.282707 0.322899 -0.923343
v -0.286204 0.322899 -1.018202
v -0.292611 0.323482 -1.017966
v -0.289114 0.323482 -0.923107
v -0.282707 0.323482 -0.923343
v -0.286204 0.323482 -1.018202
v -0.283645 0.322899 -0.774738
v -0.280147 0.322899 -0.679879
v -0.273740 0.322899 -0.680115
v -0.277238 0.322899 -0.774974
v -0.283645 0.323482 -0.774738
v -0.280147 0.323482 -0.679879
v -0.273740 0.323482 -0.680115
v -0.277238 0.323482 -0.774974
v -0.274678 0.322899 -0.531509
v -0.271180 0.322899 -0.436650
v -0.264773 0.322899 -0.436887
v -0.268271 0.322899 -0.531746
v -0.274678 0.323482 -0.531509
v -0.271180 0.323482 -0.436650
v -0.264773 0.323482 -0.436887
v -0.268271 0.323482 -0.531746
v -0.265711 0.322899 -0.288281
v -0.262214 0.322899 -0.193422
v -0.255807 0.322899 -0.193658
v -0.259304 0.322899 -0.288517
v -0.265711 0.323482 -0.288281
v -0.262214 0.323482 -0.193422
v -0.255807 0.323482 -0.193658
v -0.259304 0.323482 -0.288517
v -0.256744 0.322899 -0.045053
v -0.253247 0.322899 0.049806
v -0.246840 0.322899 0.049570
v -0.250337 0.322899 -0.045289
v -0.256744 0.323482 -0.045053
v -0.253247 0.323482 0.049806
v -0.246840 0.323482 0.049570
v -0.250337 0.323482 -0.045289
v -0.247777 0.322899 0.198175
v -0.244280 0.322899 0.293034
v -0.237873 0.322899 0.292798
v -0.241370 0.322899 0.197939
v -0.247777 0.323482 0.198175
v -0.244280 0.323482 0.293034
v -0.237873 0.323482 0.292798
v -0.241370 0.323482 0.197939
v -0.238810 0.322899 0.441404
v -0.235313 0.322899 0.536263
v -0.228906 0.322899 0.536026
v -0.232403 0.322899 0.441167
v -0.238810 0.323482 0.441404
v -0.235313 0.323482 0.536263
v -0.228906 0.323482 0.536026
v -0.232403 0.323482 0.441167
v -0.229843 0.322899 0.684632
v -0.226346 0.322899 0.779491
v -0.219939 0.322899 0.779255
v -0.223436 0.322899 0.684396
v -0.229843 0.323482 0.684632
v -0.226346 0.323482 0.779491
v -0.219939 0.323482 0.779255
v -0.223436 0.323482 0.684396
v -0.480852 0.322899 -2.241208
v -0.160284 0.322899 -2.241208
v -0.160284 0.322899 -2.246745
v -0.480852 0.322899 -2.246745
v -0.480852 0.323482 -2.241208
v -0.160284 0.323482 -2.241208
v -0.160284 0.323482 -2.246745
v -0.480852 0.323482 -2.246745
v 0.013413 0.322317 -2.437092
v 0.141689 0.322317 -2.464358
v 0.140235 0.322317 -2.471199
v 0.011959 0.322317 -2.443933
v 0.013413 0.322899 -2.437092
v 0.141689 0.322899 -2.464358
v 0.140235 0.322899 -2.471199
v 0.011959 0.322899 -2.443933
v 0.034620 0.322317 -2.337322
v 0.162896 0.322317 -2.364588
v 0.161442 0.322317 -2.371429
v 0.033166 0.322317 -2.344163
v 0.034620 0.322899 -2.337322
v 0.162896 0.322899 -2.364588
v 0.161442 0.322899 -2.371429
v 0.033166 0.322899 -2.344163
v 0.073404 0.322462 -2.453419
v 0.094610 0.322462 -2.353649
v 0.101452 0.322462 -2.355103
v 0.080245 0.322462 -2.454873
v 0.073404 0.323045 -2.453419
v 0.094610 0.323045 -2.353649
v 0.101452 0.323045 -2.355103
v 0.080245 0.323045 -2.454873
v 0.013413 0.322317 -2.014525
v 0.141689 0.322317 -2.041791
v 0.140235 0.322317 -2.048632
v 0.011959 0.322317 -2.021366
v 0.013413 0.322899 -2.014525
v 0.141689 0.322899 -2.041791
v 0.140235 0.322899 -2.048632
v 0.011959 0.322899 -2.021366
v 0.034620 0.322317 -1.914755
v 0.162896 0.322317 -1.942021
v 0.161442 0.322317 -1.948862
v 0.033166 0.322317 -1.921596
v 0.034620 0.322899 -1.914755
v 0.162896 0.322899 -1.942021
v 0.161442 0.322899 -1.948862
v 0.033166 0.322899 -1.921596
v 0.073404 0.322462 -2.030852
v 0.094610 0.322462 -1.931082
v 0.101452 0.322462 -1.932536
v 0.080245 0.322462 -2.032306
v 0.073404 0.323045 -2.030852
v 0.094610 0.323045 -1.931082
v 0.101452 0.323045 -1.932536
v 0.080245 0.323045 -2.032306
v 0.013413 0.322317 -1.591958
v 0.141689 0.322317 -1.619224
v 0.140235 0.322317 -1.626065
v 0.011959 0.322317 -1.598799
v 0.013413 0.322899 -1.591958
v 0.141689 0.322899 -1.619224
v 0.140235 0.322899 -1.626065
v 0.011959 0.322899 -1.598799
v 0.034620 0.322317 -1.492188
v 0.162896 0.322317 -1.519454
v 0.161442 0.322317 -1.526295
v 0.033166 0.322317 -1.499029
v 0.034620 0.322899 -1.492188
v 0.162896 0.322899 -1.519454
v 0.161442 0.322899 -1.526295
v 0.033166 0.322899 -1.499029
v 0.073404 0.322462 -1.608285
v 0.094610 0.322462 -1.508514
v 0.101452 0.322462 -1.509969
v 0.080245 0.322462 -1.609739
v 0.073404 0.323045 -1.608285
v 0.094610 0.323045 -1.508514
v 0.101452 0.323045 -1.509969
v 0.080245 0.323045 -1.609739
v 0.013413 0.322317 -1.169391
v 0.141689 0.322317 -1.196657
v 0.140235 0.322317 -1.203498
v 0.011959 0.322317 -1.176232
v 0.013413 0.322899 -1.169391
v 0.141689 0.322899 -1.196657
v 0.140235 0.322899 -1.203498
v 0.011959 0.322899 -1.176232
v 0.034620 0.322317 -1.069621
v 0.162896 0.322317 -1.096887
v 0.161442 0.322317 -1.103728
v 0.033166 0.322317 -1.076462
v 0.034620 0.322899 -1.069621
v 0.162896 0.322899 -1.096887
v 0.161442 0.322899 -1.103728
v 0.033166 0.322899 -1.076462
v 0.073404 0.322462 -1.185717
v 0.094610 0.322462 -1.085947
v 0.101452 0.322462 -1.087402
v 0.080245 0.322462 -1.187172
v 0.073404 0.323045 -1.185717
v 0.094610 0.323045 -1.085947
v 0.101452 0.323045 -1.087402
v 0.080245 0.323045 -1.187172
f 257 260 259
f 259 258 257
f 263 264 261
f 261 262 263
f 258 262 261
f 258 261 257
f 259 263 262
f 259 262 258
f 260 264 263
f 260 263 259
f 257 261 264
f 257 264 260
f 265 268 267
f 267 266 265
f 271 272 269
f 269 270 271
f 266 270 269
f 266 269 265
f 267 271 270
f 267 270 266
f 268 272 271
f 268 271 267
f 265 269 272
f 265 272 268
f 273 276 275
f 275 274 273
f 279 280 277
f 277 278 279
f 274 278 277
f 274 277 273
f 275 279 278
f 275 278 274
f 276 280 279
f 276 279 275
f 273 277 280
f 273 280 276
f 281 284 283
f 283 282 281
f 287 288 285
f 285 286 287
f 282 286 285
f 282 285 281
f 283 287 286
f 283 286 282
f 284 288 287
f 284 287 283
f 281 285 288
f 281 288 284
f 289 292 291
f 291 290 289
f 295 296 293
f 293 294 295
f 290 294 293
f 290 293 289
f 291 295 294
f 291 294 290
f 292 296 295
f 292 295 291
f 289 293 296
f 289 296 292
f 297 300 299
f 299 298 297
f 303 304 301
f 301 302 303
f 298 302 301
f 298 301 297
f 299 303 302
f 299 302 298
f 300 304 303
f 300 303 299
f 297 301 304
f 297 304 300
f 305 308 307
f 307 306 305
f 311 312 309
f 309 310 311
f 306 310 309
f 306 309 305
f 307 311 310
f 307 310 306
f 308 312 311
f 308 311 307
f 305 309 312
f 305 312 308
f 313 316 315
f 315 314 313
f 319 320 317
f 317 318 319
f 314 318 317
f 314 317 313
f 315 319 318
f 315 318 314
f 316 320 319
f 316 319 315
f 313 317 320
f 313 320 316
f 321 324 323
f 323 322 321
f 327 328 325
f 325 326 327
f 322 326 325
f 322 325 321
f 323 327 326
f 323 326 322
f 324 328 327
f 324 327 323
f 321 325 328
f 321 328 324
f 329 332 331
f 331 330 329
f 335 336 333
f 333 334 335
f 330 334 333
f 330 333 329
f 331 335 334
f 331 334 330
f 332 336 335
f 332 335 331
f 329 333 336
f 329 336 332
f 337 340 339
f 339 338 337
f 343 344 341
f 341 342 343
f 338 342 341
f 338 341 337
f 339 343 342
f 339 342 338
f 340 344 343
f 340 343 339
f 337 341 344
f 337 344 340
f 345 348 347
f 347 346 345
f 351 352 349
f 349 350 351
f 346 350 349
f 346 349 345
f 347 351 350
f 347 350 346
f 348 352 351
f 348 351 347
f 345 349 352
f 345 352 348
f 353 356 355
f 355 354 353
f 359 360 357
f 357 358 359
f 354 358 357
f 354 357 353
f 355 359 358
f 355 358 354
f 356 360 359
f 356 359 355
f 353 357 360
f 353 360 356
f 361 364 363
f 363 362 361
f 367 368 365
f 365 366 367
f 362 366 365
f 362 365 361
f 363 367 366
f 363 366 362
f 364 368 367
f 364 367 363
f 361 365 368
f 361 368 364
f 369 372 371
f 371 370 369
f 375 376 373
f 373 374 375
f 370 374 373
f 370 373 369
f 371 375 374
f 371 374 370
f 372 376 375
f 372 375 371
f 369 373 376
f 369 376 372
f 377 380 379
f 379 378 377
f 383 384 381
f 381 382 383
f 378 382 381
f 378 381 377
f 379 383 382
f 379 382 378
f 380 384 383
f 380 383 379
f 377 381 384
f 377 384 380
f 385 388 387
f 387 386 385
f 391 392 389
f 389 390 391
f 386 390 389
f 386 389 385
f 387 391 390
f 387 390 386
f 388 392 391
f 388 391 387
f 385 389 392
f 385 392 388
f 393 396 395
f 395 394 393
f 399 400 397
f 397 398 399
f 394 398 397
f 394 397 393
f 395 399 398
f 395 398 394
f 396 400 399
f 396 399 395
f 393 397 400
f 393 400 396
f 401 404 403
f 403 402 401
f 407 408 405
f 405 406 407
f 402 406 405
f 402 405 401
f 403 407 406
f 403 406 402
f 404 408 407
f 404 407 403
f 401 405 408
f 401 408 404
f 409 412 411
f 411 410 409
f 415 416 413
f 413 414 415
f 410 414 413
f 410 413 409
f 411 415 414
f 411 414 410
f 412 416 415
f 412 415 411
f 409 413 416
f 409 416 412
f 417 420 419
f 419 418 417
f 423 424 421
f 421 422 423
f 418 422 421
f 418 421 417
f 419 423 422
f 419 422 418
f 420 424 423
f 420 423 419
f 417 421 424
f 417 424 420
f 425 428 427
f 427 426 425
f 431 432 429
f 429 430 431
f 426 430 429
f 426 429 425
f 427 431 430
f 427 430 426
f 428 432 431
f 428 431 427
f 425 429 432
f 425 432 428
f 433 436 435
f 435 434 433
f 439 440 437
f 437 438 439
f 434 438 437
f 434 437 433
f 435 439 438
f 435 438 434
f 436 440 439
f 436 439 435
f 433 437 440
f 433 440 436
f 441 444 443
f 443 442 441
f 447 448 445
f 445 446 447
f 442 446 445
f 442 445 441
f 443 447 446
f 443 446 442
f 444 448 447
f 444 447 443
f 441 445 448
f 441 448 444
f 449 452 451
f 451 450 449
f 455 456 453
f 453 454 455
f 450 454 453
f 450 453 449
f 451 455 454
f 451 454 450
f 452 456 455
f 452 455 451
f 449 453 456
f 449 456 452
f 457 460 459
f 459 458 457
f 463 464 461
f 461 462 463
f 458 462 461
f 458 461 457
f 459 463 462
f 459 462 458
f 460 464 463
f 460 463 459
f 457 461 464
f 457 464 460
f 465 468 467
f 467 466 465
f 471 472 469
f 469 470 471
f 466 470 469
f 466 469 465
f 467 471 470
f 467 470 466
f 468 472 471
f 468 471 467
f 465 469 472
f 465 472 468
f 473 476 475
f 475 474 473
f 479 480 477
f 477 478 479
f 474 478 477
f 474 477 473
f 475 479 478
f 475 478 474
f 476 480 479
f 476 479 475
f 473 477 480
f 473 480 476
f 481 484 483
f 483 482 481
f 487 488 485
f 485 486 487
f 482 486 485
f 482 485 481
f 483 487 486
f 483 486 482
f 484 488 487
f 484 487 483
f 481 485 488
f 481 488 484
f 489 492 491
f 491 490 489
f 495 496 493
f 493 494 495
f 490 494 493
f 490 493 489
f 491 495 494
f 491 494 490
f 492 496 495
f 492 495 491
f 489 493 496
f 489 496 492
f 497 500 499
f 499 498 497
f 503 504 501
f 501 502 503
f 498 502 501
f 498 501 497
f 499 503 502
f 499 502 498
f 500 504 503
f 500 503 499
f 497 501 504
f 497 504 500
f 505 508 507
f 507 506 505
f 511 512 509
f 509 510 511
f 506 510 509
f 506 509 505
f 507 511 510
f 507 510 506
f 508 512 511
f 508 511 507
f 505 509 512
f 505 512 508
f 513 516 515
f 515 514 513
f 519 520 517
f 517 518 519
f 514 518 517
f 514 517 513
f 515 519 518
f 515 518 514
f 516 520 519
f 516 519 515
f 513 517 520
f 513 520 516
f 521 524 523
f 523 522 521
f 527 528 525
f 525 526 527
f 522 526 525
f 522 525 521
f 523 527 526
f 523 526 522
f 524 528 527
f 524 527 523
f 521 525 528
f 521 528 524
f 529 532 531
f 531 530 529
f 535 536 533
f 533 534 535
f 530 534 533
f 530 533 529
f 531 535 534
f 531 534 530
f 532 536 535
f 532 535 531
f 529 533 536
f 529 536 532
f 537 540 539
f 539 538 537
f 543 544 541
f 541 542 543
f 538 542 541
f 538 541 537
f 539 543 542
f 539 542 538
f 540 544 543
f 540 543 539
f 537 541 544
f 537 544 540
o Surface_Gold
usemtl gold
v -0.193215 0.322462 0.859705
v -0.193215 0.322462 2.287690
v -0.185638 0.322462 2.287690
v -0.185638 0.322462 0.859705
v -0.193215 0.323045 0.859705
v -0.193215 0.323045 2.287690
v -0.185638 0.323045 2.287690
v -0.185638 0.323045 0.859705
v 0.083639 0.322462 0.801420
v 0.083639 0.322462 2.345976
v 0.091216 0.322462 2.345976
v 0.091216 0.322462 0.801420
v 0.083639 0.323045 0.801420
v 0.083639 0.323045 2.345976
v 0.091216 0.323045 2.345976
v 0.091216 0.323045 0.801420
v 0.229358 0.322462 0.859928
v 0.302215 0.322462 2.098486
v 0.309779 0.322462 2.098041
v 0.236922 0.322462 0.859483
v 0.229358 0.323045 0.859928
v 0.302215 0.323045 2.098486
v 0.309779 0.323045 2.098041
v 0.236922 0.323045 0.859483
v -0.459287 0.323337 -1.276590
v -0.138719 0.323337 -1.276590
v -0.138719 0.323337 -1.280087
v -0.459287 0.323337 -1.280087
v -0.459287 0.323919 -1.276590
v -0.138719 0.323919 -1.276590
v -0.138719 0.323919 -1.280087
v -0.459287 0.323919 -1.280087
v -0.449961 0.323337 -1.023632
v -0.129393 0.323337 -1.023632
v -0.129393 0.323337 -1.027129
v -0.449961 0.323337 -1.027129
v -0.449961 0.323919 -1.023632
v -0.129393 0.323919 -1.023632
v -0.129393 0.323919 -1.027129
v -0.449961 0.323919 -1.027129
v -0.440635 0.323337 -0.770675
v -0.120067 0.323337 -0.770675
v -0.120067 0.323337 -0.774172
v -0.440635 0.323337 -0.774172
v -0.440635 0.323919 -0.770675
v -0.120067 0.323919 -0.770675
v -0.120067 0.323919 -0.774172
v -0.440635 0.323919 -0.774172
v -0.431310 0.323337 -0.517717
v -0.110742 0.323337 -0.517717
v -0.110742 0.323337 -0.521215
v -0.431310 0.323337 -0.521215
v -0.431310 0.323919 -0.517717
v -0.110742 0.323919 -0.517717
v -0.110742 0.323919 -0.521215
v -0.431310 0.323919 -0.521215
f 545 548 547
f 547 546 545
f 551 552 549
f 549 550 551
f 546 550 549
f 546 549 545
f 547 551 550
f 547 550 546
f 548 552 551
f 548 551 547
f 545 549 552
f 545 552 548
f 553 556 555
f 555 554 553
f 559 560 557
f 557 558 559
f 554 558 557
f 554 557 553
f 555 559 558
f 555 558 554
f 556 560 559
f 556 559 555
f 553 557 560
f 553 560 556
f 561 564 563
f 563 562 561
f 567 568 565
f 565 566 567
f 562 566 565
f 562 565 561
f 563 567 566
f 563 566 562
f 564 568 567
f 564 567 563
f 561 565 568
f 561 568 564
f 569 572 571
f 571 570 569
f 575 576 573
f 573 574 575
f 570 574 573
f 570 573 569
f 571 575 574
f 571 574 570
f 572 576 575
f 572 575 571
f 569 573 576
f 569 576 572
f 577 580 579
f 579 578 577
f 583 584 581
f 581 582 583
f 578 582 581
f 578 581 577
f 579 583 582
f 579 582 578
f 580 584 583
f 580 583 579
f 577 581 584
f 577 584 580
f 585 588 587
f 587 586 585
f 591 592 589
f 589 590 591
f 586 590 589
f 586 589 585
f 587 591 590
f 587 590 586
f 588 592 591
f 588 591 587
f 585 589 592
f 585 592 588
f 593 596 595
f 595 594 593
f 599 600 597
f 597 598 599
f 594 598 597
f 594 597 593
f 595 599 598
f 595 598 594
f 596 600 599
f 596 599 595
f 593 597 600
f 593 600 596
o Surface_Dark
usemtl dark
v 0.438304 0.732207 0.109285
v 0.441801 0.732207 0.109285
v 0.441801 0.762806 0.109285
v 0.438304 0.762806 0.109285
v 0.438304 0.732207 0.182141
v 0.441801 0.732207 0.182141
v 0.441801 0.762806 0.182141
v 0.438304 0.762806 0.182141
v 0.534474 0.732207 0.109285
v 0.537972 0.732207 0.109285
v 0.537972 0.762806 0.109285
v 0.534474 0.762806 0.109285
v 0.534474 0.732207 0.182141
v 0.537972 0.732207 0.182141
v 0.537972 0.762806 0.182141
v 0.534474 0.762806 0.182141
v -0.469122 0.321442 -1.288538
v -0.456737 0.321442 -1.288538
v -0.456737 0.324357 -1.288538
v -0.469122 0.324357 -1.288538
v -0.469122 0.321442 -1.268138
v -0.456737 0.321442 -1.268138
v -0.456737 0.324357 -1.268138
v -0.469122 0.324357 -1.268138
v -0.141269 0.321442 -1.288538
v -0.128883 0.321442 -1.288538
v -0.128883 0.324357 -1.288538
v -0.141269 0.324357 -1.288538
v -0.141269 0.321442 -1.268138
v -0.128883 0.321442 -1.268138
v -0.128883 0.324357 -1.268138
v -0.141269 0.324357 -1.268138
v -0.459797 0.321442 -1.035581
v -0.447411 0.321442 -1.035581
v -0.447411 0.324357 -1.035581
v -0.459797 0.324357 -1.035581
v -0.459797 0.321442 -1.015181
v -0.447411 0.321442 -1.015181
v -0.447411 0.324357 -1.015181
v -0.459797 0.324357 -1.015181
v -0.131943 0.321442 -1.035581
v -0.119557 0.321442 -1.035581
v -0.119557 0.324357 -1.035581
v -0.131943 0.324357 -1.035581
v -0.131943 0.321442 -1.015181
v -0.119557 0.321442 -1.015181
v -0.119557 0.324357 -1.015181
v -0.131943 0.324357 -1.015181
v -0.450471 0.321442 -0.782623
v -0.438085 0.321442 -0.782623
v -0.438085 0.324357 -0.782623
v -0.450471 0.324357 -0.782623
v -0.450471 0.321442 -0.762223
v -0.438085 0.321442 -0.762223
v -0.438085 0.324357 -0.762223
v -0.450471 0.324357 -0.762223
v -0.122617 0.321442 -0.782623
v -0.110232 0.321442 -0.782623
v -0.110232 0.324357 -0.782623
v -0.122617 0.324357 -0.782623
v -0.122617 0.321442 -0.762223
v -0.110232 0.321442 -0.762223
v -0.110232 0.324357 -0.762223
v -0.122617 0.324357 -0.762223
v -0.441145 0.321442 -0.529666
v -0.428760 0.321442 -0.529666
v -0.428760 0.324357 -0.529666
v -0.441145 0.324357 -0.529666
v -0.441145 0.321442 -0.509266
v -0.428760 0.321442 -0.509266
v -0.428760 0.324357 -0.509266
v -0.441145 0.324357 -0.509266
v -0.113292 0.321442 -0.529666
v -0.100906 0.321442 -0.529666
v -0.100906 0.324357 -0.529666
v -0.113292 0.324357 -0.529666
v -0.113292 0.321442 -0.509266
v -0.100906 0.321442 -0.509266
v -0.100906 0.324357 -0.509266
v -0.113292 0.324357 -0.509266
v -0.043714 -0.105642 2.331404
v 0.043714 -0.105642 2.331404
v 0.043714 -0.054642 2.331404
v -0.043714 -0.054642 2.331404
v -0.043714 -0.105642 2.447974
v 0.043714 -0.105642 2.447974
v 0.043714 -0.054642 2.447974
v -0.043714 -0.054642 2.447974
f 601 604 603
f 601 603 602
f 605 606 607
f 605 607 608
f 601 602 606
f 601 606 605
f 604 608 607
f 604 607 603
f 601 605 608
f 601 608 604
f 602 603 607
f 602 607 606
f 609 612 611
f 609 611 610
f 613 614 615
f 613 615 616
f 609 610 614
f 609 614 613
f 612 616 615
f 612 615 611
f 609 613 616
f 609 616 612
f 610 611 615
f 610 615 614
f 617 620 619
f 617 619 618
f 621 622 623
f 621 623 624
f 617 618 622
f 617 622 621
f 620 624 623
f 620 623 619
f 617 621 624
f 617 624 620
f 618 619 623
f 618 623 622
f 625 628 627
f 625 627 626
f 629 630 631
f 629 631 632
f 625 626 630
f 625 630 629
f 628 632 631
f 628 631 627
f 625 629 632
f 625 632 628
f 626 627 631
f 626 631 630
f 633 636 635
f 633 635 634
f 637 638 639
f 637 639 640
f 633 634 638
f 633 638 637
f 636 640 639
f 636 639 635
f 633 637 640
f 633 640 636
f 634 635 639
f 634 639 638
f 641 644 643
f 641 643 642
f 645 646 647
f 645 647 648
f 641 642 646
f 641 646 645
f 644 648 647
f 644 647 643
f 641 645 648
f 641 648 644
f 642 643 647
f 642 647 646
f 649 652 651
f 649 651 650
f 653 654 655
f 653 655 656
f 649 650 654
f 649 654 653
f 652 656 655
f 652 655 651
f 649 653 656
f 649 656 652
f 650 651 655
f 650 655 654
f 657 660 659
f 657 659 658
f 661 662 663
f 661 663 664
f 657 658 662
f 657 662 661
f 660 664 663
f 660 663 659
f 657 661 664
f 657 664 660
f 658 659 663
f 658 663 662
f 665 668 667
f 665 667 666
f 669 670 671
f 669 671 672
f 665 666 670
f 665 670 669
f 668 672 671
f 668 671 667
f 665 669 672
f 665 672 668
f 666 667 671
f 666 671 670
f 673 676 675
f 673 675 674
f 677 678 679
f 677 679 680
f 673 674 678
f 673 678 677
f 676 680 679
f 676 679 675
f 673 677 680
f 673 680 676
f 674 675 679
f 674 679 678
f 681 684 683
f 681 683 682
f 685 686 687
f 685 687 688
f 681 682 686
f 681 686 685
f 684 688 687
f 684 687 683
f 681 685 688
f 681 688 684
f 682 683 687
f 682 687 686
o Surface_Edge
usemtl edge
v -0.407996 0.321588 -2.693646
v 0.320568 0.321588 -2.693646
v 0.320568 0.321588 -2.697726
v -0.407996 0.321588 -2.697726
v -0.407996 0.322171 -2.693646
v 0.320568 0.322171 -2.693646
v 0.320568 0.322171 -2.697726
v -0.407996 0.322171 -2.697726
v 0.318871 0.321588 -2.694555
v 0.464583 0.321588 -2.475985
v 0.467978 0.321588 -2.478249
v 0.322265 0.321588 -2.696818
v 0.318871 0.322171 -2.694555
v 0.464583 0.322171 -2.475985
v 0.467978 0.322171 -2.478249
v 0.322265 0.322171 -2.696818
v 0.464276 0.321588 -2.476741
v 0.551703 0.321588 -2.010460
v 0.555714 0.321588 -2.011212
v 0.468286 0.321588 -2.477493
v 0.464276 0.322171 -2.476741
v 0.551703 0.322171 -2.010460
v 0.555714 0.322171 -2.011212
v 0.468286 0.322171 -2.477493
v 0.551670 0.321588 -2.010770
v 0.580812 0.321588 -1.107351
v 0.584890 0.321588 -1.107483
v 0.555747 0.321588 -2.010902
v 0.551670 0.322171 -2.010770
v 0.580812 0.322171 -1.107351
v 0.584890 0.322171 -1.107483
v 0.555747 0.322171 -2.010902
v 0.580812 0.321588 -1.107370
v 0.595383 0.321588 -0.480805
v 0.599462 0.321588 -0.480900
v 0.584890 0.321588 -1.107464
v 0.580812 0.322171 -1.107370
v 0.595383 0.322171 -0.480805
v 0.599462 0.322171 -0.480900
v 0.584890 0.322171 -1.107464
v 0.595382 0.321588 -0.480833
v 0.609954 0.321588 1.049151
v 0.614033 0.321588 1.049112
v 0.599462 0.321588 -0.480872
v 0.595382 0.322171 -0.480833
v 0.609954 0.322171 1.049151
v 0.614033 0.322171 1.049112
v 0.599462 0.322171 -0.480872
v 0.609955 0.321588 1.049055
v 0.580813 0.321588 1.821333
v 0.584890 0.321588 1.821486
v 0.614032 0.321588 1.049209
v 0.609955 0.322171 1.049055
v 0.580813 0.322171 1.821333
v 0.584890 0.322171 1.821486
v 0.614032 0.322171 1.049209
v 0.580855 0.321588 1.820989
v 0.464285 0.321588 2.374698
v 0.468277 0.321588 2.375538
v 0.584847 0.321588 1.821830
v 0.580855 0.322171 1.820989
v 0.464285 0.322171 2.374698
v 0.468277 0.322171 2.375538
v 0.584847 0.322171 1.821830
v 0.464771 0.321588 2.373746
v 0.173346 0.321588 2.694314
v 0.176365 0.321588 2.697058
v 0.467790 0.321588 2.376490
v 0.464771 0.322171 2.373746
v 0.173346 0.322171 2.694314
v 0.176365 0.322171 2.697058
v 0.467790 0.322171 2.376490
v 0.174855 0.321588 2.693646
v -0.174855 0.321588 2.693646
v -0.174855 0.321588 2.697726
v 0.174855 0.321588 2.697726
v 0.174855 0.322171 2.693646
v -0.174855 0.322171 2.693646
v -0.174855 0.322171 2.697726
v 0.174855 0.322171 2.697726
v -0.173288 0.321588 2.694380
v -0.464714 0.321588 2.344670
v -0.467848 0.321588 2.347281
v -0.176422 0.321588 2.696992
v -0.173288 0.322171 2.694380
v -0.464714 0.322171 2.344670
v -0.467848 0.322171 2.347281
v -0.176422 0.322171 2.696992
v -0.464285 0.321588 2.345555
v -0.580855 0.321588 1.791847
v -0.584847 0.321588 1.792687
v -0.468277 0.321588 2.346396
v -0.464285 0.322171 2.345555
v -0.580855 0.322171 1.791847
v -0.584847 0.322171 1.792687
v -0.468277 0.322171 2.346396
v -0.580811 0.321588 1.792299
v -0.566240 0.321588 0.874309
v -0.570320 0.321588 0.874244
v -0.584891 0.321588 1.792235
v -0.580811 0.322171 1.792299
v -0.566240 0.322171 0.874309
v -0.570320 0.322171 0.874244
v -0.584891 0.322171 1.792235
v -0.566245 0.321588 0.874136
v -0.668244 0.321588 -0.597563
v -0.672314 0.321588 -0.597281
v -0.570315 0.321588 0.874418
v -0.566245 0.322171 0.874136
v -0.668244 0.322171 -0.597563
v -0.672314 0.322171 -0.597281
v -0.570315 0.322171 0.874418
v -0.668240 0.321588 -0.597339
v -0.624527 0.321588 -1.661042
v -0.628603 0.321588 -1.661209
v -0.672317 0.321588 -0.597506
v -0.668240 0.322171 -0.597339
v -0.624527 0.322171 -1.661042
v -0.628603 0.322171 -1.661209
v -0.672317 0.322171 -0.597506
v -0.624542 0.321588 -1.660863
v -0.522543 0.321588 -2.447712
v -0.526589 0.321588 -2.448237
v -0.628588 0.321588 -1.661388
v -0.624542 0.322171 -1.660863
v -0.522543 0.322171 -2.447712
v -0.526589 0.322171 -2.448237
v -0.628588 0.322171 -1.661388
v -0.522720 0.321588 -2.447106
v -0.406150 0.321588 -2.694818
v -0.409842 0.321588 -2.696555
v -0.526412 0.321588 -2.448843
v -0.522720 0.322171 -2.447106
v -0.406150 0.322171 -2.694818
v -0.409842 0.322171 -2.696555
v -0.526412 0.322171 -2.448843
v -0.240426 0.323191 0.816939
v -0.138427 0.323191 0.816939
v -0.138427 0.323191 0.815044
v -0.240426 0.323191 0.815044
v -0.240426 0.323774 0.816939
v -0.138427 0.323774 0.816939
v -0.138427 0.323774 0.815044
v -0.240426 0.323774 0.815044
v -0.172378 0.322608 0.859705
v -0.172378 0.322608 2.287690
v -0.170047 0.322608 2.287690
v -0.170047 0.322608 0.859705
v -0.172378 0.323191 0.859705
v -0.172378 0.323191 2.287690
v -0.170047 0.323191 2.287690
v -0.170047 0.323191 0.859705
v 0.036428 0.323191 0.758654
v 0.138427 0.323191 0.758654
v 0.138427 0.323191 0.756759
v 0.036428 0.323191 0.756759
v 0.036428 0.323774 0.758654
v 0.138427 0.323774 0.758654
v 0.138427 0.323774 0.756759
v 0.036428 0.323774 0.756759
v 0.104476 0.322608 0.801420
v 0.104476 0.322608 2.345976
v 0.106807 0.322608 2.345976
v 0.106807 0.322608 0.801420
v 0.104476 0.323191 0.801420
v 0.104476 0.323191 2.345976
v 0.106807 0.323191 2.345976
v 0.106807 0.323191 0.801420
v 0.182141 0.323191 0.816939
v 0.284140 0.323191 0.816939
v 0.284140 0.323191 0.815044
v 0.182141 0.323191 0.815044
v 0.182141 0.323774 0.816939
v 0.284140 0.323774 0.816939
v 0.284140 0.323774 0.815044
v 0.182141 0.323774 0.815044
v 0.250191 0.322608 0.859774
v 0.323047 0.322608 2.098332
v 0.325375 0.322608 2.098195
v 0.252518 0.322608 0.859637
v 0.250191 0.323191 0.859774
v 0.323047 0.323191 2.098332
v 0.325375 0.323191 2.098195
v 0.252518 0.323191 0.859637
v -0.510650 0.323191 1.550384
v -0.510650 0.323191 1.626154
v -0.509339 0.323191 1.626154
v -0.509339 0.323191 1.550384
v -0.510650 0.323774 1.550384
v -0.510650 0.323774 1.626154
v -0.509339 0.323774 1.626154
v -0.509339 0.323774 1.550384
v 0.523910 0.323191 1.696097
v 0.523910 0.323191 1.771867
v 0.525222 0.323191 1.771867
v 0.525222 0.323191 1.696097
v 0.523910 0.323774 1.696097
v 0.523910 0.323774 1.771867
v 0.525222 0.323774 1.771867
v 0.525222 0.323774 1.696097
v -0.583507 0.323191 -0.912162
v -0.583507 0.323191 -0.836391
v -0.582195 0.323191 -0.836391
v -0.582195 0.323191 -0.912162
v -0.583507 0.323774 -0.912162
v -0.583507 0.323774 -0.836391
v -0.582195 0.323774 -0.836391
v -0.582195 0.323774 -0.912162
v 0.451054 0.323191 -2.325576
v 0.451054 0.323191 -2.249805
v 0.452365 0.323191 -2.249805
v 0.452365 0.323191 -2.325576
v 0.451054 0.323774 -2.325576
v 0.451054 0.323774 -2.249805
v 0.452365 0.323774 -2.249805
v 0.452365 0.323774 -2.325576
f 689 692 691
f 691 690 689
f 695 696 693
f 693 694 695
f 690 694 693
f 690 693 689
f 691 695 694
f 691 694 690
f 692 696 695
f 692 695 691
f 689 693 696
f 689 696 692
f 697 700 699
f 699 698 697
f 703 704 701
f 701 702 703
f 698 702 701
f 698 701 697
f 699 703 702
f 699 702 698
f 700 704 703
f 700 703 699
f 697 701 704
f 697 704 700
f 705 708 707
f 707 706 705
f 711 712 709
f 709 710 711
f 706 710 709
f 706 709 705
f 707 711 710
f 707 710 706
f 708 712 711
f 708 711 707
f 705 709 712
f 705 712 708
f 713 716 715
f 715 714 713
f 719 720 717
f 717 718 719
f 714 718 717
f 714 717 713
f 715 719 718
f 715 718 714
f 716 720 719
f 716 719 715
f 713 717 720
f 713 720 716
f 721 724 723
f 723 722 721
f 727 728 725
f 725 726 727
f 722 726 725
f 722 725 721
f 723 727 726
f 723 726 722
f 724 728 727
f 724 727 723
f 721 725 728
f 721 728 724
f 729 732 731
f 731 730 729
f 735 736 733
f 733 734 735
f 730 734 733
f 730 733 729
f 731 735 734
f 731 734 730
f 732 736 735
f 732 735 731
f 729 733 736
f 729 736 732
f 737 740 739
f 739 738 737
f 743 744 741
f 741 742 743
f 738 742 741
f 738 741 737
f 739 743 742
f 739 742 738
f 740 744 743
f 740 743 739
f 737 741 744
f 737 744 740
f 745 748 747
f 747 746 745
f 751 752 749
f 749 750 751
f 746 750 749
f 746 749 745
f 747 751 750
f 747 750 746
f 748 752 751
f 748 751 747
f 745 749 752
f 745 752 748
f 753 756 755
f 755 754 753
f 759 760 757
f 757 758 759
f 754 758 757
f 754 757 753
f 755 759 758
f 755 758 754
f 756 760 759
f 756 759 755
f 753 757 760
f 753 760 756
f 761 764 763
f 763 762 761
f 767 768 765
f 765 766 767
f 762 766 765
f 762 765 761
f 763 767 766
f 763 766 762
f 764 768 767
f 764 767 763
f 761 765 768
f 761 768 764
f 769 772 771
f 771 770 769
f 775 776 773
f 773 774 775
f 770 774 773
f 770 773 769
f 771 775 774
f 771 774 770
f 772 776 775
f 772 775 771
f 769 773 776
f 769 776 772
f 777 780 779
f 779 778 777
f 783 784 781
f 781 782 783
f 778 782 781
f 778 781 777
f 779 783 782
f 779 782 778
f 780 784 783
f 780 783 779
f 777 781 784
f 777 784 780
f 785 788 787
f 787 786 785
f 791 792 789
f 789 790 791
f 786 790 789
f 786 789 785
f 787 791 790
f 787 790 786
f 788 792 791
f 788 791 787
f 785 789 792
f 785 792 788
f 793 796 795
f 795 794 793
f 799 800 797
f 797 798 799
f 794 798 797
f 794 797 793
f 795 799 798
f 795 798 794
f 796 800 799
f 796 799 795
f 793 797 800
f 793 800 796
f 801 804 803
f 803 802 801
f 807 808 805
f 805 806 807
f 802 806 805
f 802 805 801
f 803 807 806
f 803 806 802
f 804 808 807
f 804 807 803
f 801 805 808
f 801 808 804
f 809 812 811
f 811 810 809
f 815 816 813
f 813 814 815
f 810 814 813
f 810 813 809
f 811 815 814
f 811 814 810
f 812 816 815
f 812 815 811
f 809 813 816
f 809 816 812
f 817 820 819
f 819 818 817
f 823 824 821
f 821 822 823
f 818 822 821
f 818 821 817
f 819 823 822
f 819 822 818
f 820 824 823
f 820 823 819
f 817 821 824
f 817 824 820
f 825 828 827
f 827 826 825
f 831 832 829
f 829 830 831
f 826 830 829
f 826 829 825
f 827 831 830
f 827 830 826
f 828 832 831
f 828 831 827
f 825 829 832
f 825 832 828
f 833 836 835
f 835 834 833
f 839 840 837
f 837 838 839
f 834 838 837
f 834 837 833
f 835 839 838
f 835 838 834
f 836 840 839
f 836 839 835
f 833 837 840
f 833 840 836
f 841 844 843
f 843 842 841
f 847 848 845
f 845 846 847
f 842 846 845
f 842 845 841
f 843 847 846
f 843 846 842
f 844 848 847
f 844 847 843
f 841 845 848
f 841 848 844
f 849 852 851
f 851 850 849
f 855 856 853
f 853 854 855
f 850 854 853
f 850 853 849
f 851 855 854
f 851 854 850
f 852 856 855
f 852 855 851
f 849 853 856
f 849 856 852
f 857 860 859
f 859 858 857
f 863 864 861
f 861 862 863
f 858 862 861
f 858 861 857
f 859 863 862
f 859 862 858
f 860 864 863
f 860 863 859
f 857 861 864
f 857 864 860
f 865 868 867
f 867 866 865
f 871 872 869
f 869 870 871
f 866 870 869
f 866 869 865
f 867 871 870
f 867 870 866
f 868 872 871
f 868 871 867
f 865 869 872
f 865 872 868
f 873 876 875
f 875 874 873
f 879 880 877
f 877 878 879
f 874 878 877
f 874 877 873
f 875 879 878
f 875 878 874
f 876 880 879
f 876 879 875
f 873 877 880
f 873 880 876
f 881 884 883
f 883 882 881
f 887 888 885
f 885 886 887
f 882 886 885
f 882 885 881
f 883 887 886
f 883 886 882
f 884 888 887
f 884 887 883
f 881 885 888
f 881 888 884
f 889 892 891
f 891 890 889
f 895 896 893
f 893 894 895
f 890 894 893
f 890 893 889
f 891 895 894
f 891 894 890
f 892 896 895
f 892 895 891
f 889 893 896
f 889 896 892
f 897 900 899
f 899 898 897
f 903 904 901
f 901 902 903
f 898 902 901
f 898 901 897
f 899 903 902
f 899 902 898
f 900 904 903
f 900 903 899
f 897 901 904
f 897 904 900
o Surface_Sensor
usemtl sensor
v 0.409890 0.555166 0.058285
v 0.412513 0.555166 0.058285
v 0.412513 0.610536 0.058285
v 0.409890 0.610536 0.058285
v 0.409890 0.555166 0.174855
v 0.412513 0.555166 0.174855
v 0.412513 0.610536 0.174855
v 0.409890 0.610536 0.174855
v 0.549191 0.555166 0.058285
v 0.551814 0.555166 0.058285
v 0.551814 0.610536 0.058285
v 0.549191 0.610536 0.058285
v 0.549191 0.555166 0.174855
v 0.551814 0.555166 0.174855
v 0.551814 0.610536 0.174855
v 0.549191 0.610536 0.174855
v 0.437138 0.555166 0.436555
v 0.524566 0.555166 0.436555
v 0.524566 0.610536 0.436555
v 0.437138 0.610536 0.436555
v 0.437138 0.555166 0.439178
v 0.524566 0.555166 0.439178
v 0.524566 0.610536 0.439178
v 0.437138 0.610536 0.439178
v 0.437138 0.555166 -0.248295
v 0.524566 0.555166 -0.248295
v 0.524566 0.610536 -0.248295
v 0.437138 0.610536 -0.248295
v 0.437138 0.555166 -0.245672
v 0.524566 0.555166 -0.245672
v 0.524566 0.610536 -0.245672
v 0.437138 0.610536 -0.245672
v 0.409599 0.489595 -1.355129
v 0.412221 0.489595 -1.355129
v 0.412221 0.530394 -1.355129
v 0.409599 0.530394 -1.355129
v 0.409599 0.489595 -1.267701
v 0.412221 0.489595 -1.267701
v 0.412221 0.530394 -1.267701
v 0.409599 0.530394 -1.267701
v 0.549483 0.489595 -1.355129
v 0.552106 0.489595 -1.355129
v 0.552106 0.530394 -1.355129
v 0.549483 0.530394 -1.355129
v 0.549483 0.489595 -1.267701
v 0.552106 0.489595 -1.267701
v 0.552106 0.530394 -1.267701
v 0.549483 0.530394 -1.267701
v 0.441510 0.489595 -1.079586
v 0.520195 0.489595 -1.079586
v 0.520195 0.530394 -1.079586
v 0.441510 0.530394 -1.079586
v 0.441510 0.489595 -1.076963
v 0.520195 0.489595 -1.076963
v 0.520195 0.530394 -1.076963
v 0.441510 0.530394 -1.076963
f 905 908 907
f 905 907 906
f 909 910 911
f 909 911 912
f 905 906 910
f 905 910 909
f 908 912 911
f 908 911 907
f 905 909 912
f 905 912 908
f 906 907 911
f 906 911 910
f 913 916 915
f 913 915 914
f 917 918 919
f 917 919 920
f 913 914 918
f 913 918 917
f 916 920 919
f 916 919 915
f 913 917 920
f 913 920 916
f 914 915 919
f 914 919 918
f 921 924 923
f 921 923 922
f 925 926 927
f 925 927 928
f 921 922 926
f 921 926 925
f 924 928 927
f 924 927 923
f 921 925 928
f 921 928 924
f 922 923 927
f 922 927 926
f 929 932 931
f 929 931 930
f 933 934 935
f 933 935 936
f 929 930 934
f 929 934 933
f 932 936 935
f 932 935 931
f 929 933 936
f 929 936 932
f 930 931 935
f 930 935 934
f 937 940 939
f 937 939 938
f 941 942 943
f 941 943 944
f 937 938 942
f 937 942 941
f 940 944 943
f 940 943 939
f 937 941 944
f 937 944 940
f 938 939 943
f 938 943 942
f 945 948 947
f 945 947 946
f 949 950 951
f 949 951 952
f 945 946 950
f 945 950 949
f 948 952 951
f 948 951 947
f 945 949 952
f 945 952 948
f 946 947 951
f 946 951 950
f 953 956 955
f 953 955 954
f 957 958 959
f 957 959 960
f 953 954 958
f 953 958 957
f 956 960 959
f 956 959 955
f 953 957 960
f 953 960 956
f 954 955 959
f 954 959 958
o Surface_Hatch
usemtl hatch
v 0.517280 0.321078 -0.859705
v 0.706707 0.321078 -0.859705
v 0.706707 0.323555 -0.859705
v 0.517280 0.323555 -0.859705
v 0.517280 0.321078 -0.597422
v 0.706707 0.321078 -0.597422
v 0.706707 0.323555 -0.597422
v 0.517280 0.323555 -0.597422
v 0.517280 0.321078 0.874277
v 0.706707 0.321078 0.874277
v 0.706707 0.323555 0.874277
v 0.517280 0.323555 0.874277
v 0.517280 0.321078 1.136560
v 0.706707 0.321078 1.136560
v 0.706707 0.323555 1.136560
v 0.517280 0.323555 1.136560
v -0.706707 0.321078 1.209416
v -0.517280 0.321078 1.209416
v -0.517280 0.323555 1.209416
v -0.706707 0.323555 1.209416
v -0.706707 0.321078 1.471699
v -0.517280 0.321078 1.471699
v -0.517280 0.323555 1.471699
v -0.706707 0.323555 1.471699
v 0.502709 0.321078 -2.054550
v 0.692136 0.321078 -2.054550
v 0.692136 0.323555 -2.054550
v 0.502709 0.323555 -2.054550
v 0.502709 0.321078 -1.792267
v 0.692136 0.321078 -1.792267
v 0.692136 0.323555 -1.792267
v 0.502709 0.323555 -1.792267
v -0.240426 0.320932 0.757706
v -0.138427 0.320932 0.757706
v -0.138427 0.322972 0.757706
v -0.240426 0.322972 0.757706
v -0.240426 0.320932 0.815991
v -0.138427 0.320932 0.815991
v -0.138427 0.322972 0.815991
v -0.240426 0.322972 0.815991
v 0.036428 0.320932 0.699421
v 0.138427 0.320932 0.699421
v 0.138427 0.322972 0.699421
v 0.036428 0.322972 0.699421
v 0.036428 0.320932 0.757706
v 0.138427 0.320932 0.757706
v 0.138427 0.322972 0.757706
v 0.036428 0.322972 0.757706
v 0.182141 0.320932 0.757706
v 0.284140 0.320932 0.757706
v 0.284140 0.322972 0.757706
v 0.182141 0.322972 0.757706
v 0.182141 0.320932 0.815991
v 0.284140 0.320932 0.815991
v 0.284140 0.322972 0.815991
v 0.182141 0.322972 0.815991
v 0.240426 0.320714 -2.404261
v 0.232938 0.320714 -2.356982
v 0.211206 0.320714 -2.314330
v 0.177358 0.320714 -2.280482
v 0.134707 0.320714 -2.258750
v 0.087428 0.320714 -2.251262
v 0.040149 0.320714 -2.258750
v -0.002503 0.320714 -2.280482
v -0.036351 0.320714 -2.314330
v -0.058082 0.320714 -2.356982
v -0.065571 0.320714 -2.404261
v -0.058082 0.320714 -2.451540
v -0.036351 0.320714 -2.494191
v -0.002503 0.320714 -2.528039
v 0.040149 0.320714 -2.549771
v 0.087428 0.320714 -2.557259
v 0.134707 0.320714 -2.549771
v 0.177358 0.320714 -2.528039
v 0.211206 0.320714 -2.494191
v 0.232938 0.320714 -2.451540
v 0.240426 0.321734 -2.404261
v 0.232938 0.321734 -2.356982
v 0.211206 0.321734 -2.314330
v 0.177358 0.321734 -2.280482
v 0.134707 0.321734 -2.258750
v 0.087428 0.321734 -2.251262
v 0.040149 0.321734 -2.258750
v -0.002503 0.321734 -2.280482
v -0.036351 0.321734 -2.314330
v -0.058082 0.321734 -2.356982
v -0.065571 0.321734 -2.404261
v -0.058082 0.321734 -2.451540
v -0.036351 0.321734 -2.494191
v -0.002503 0.321734 -2.528039
v 0.040149 0.321734 -2.549771
v 0.087428 0.321734 -2.557259
v 0.134707 0.321734 -2.549771
v 0.177358 0.321734 -2.528039
v 0.211206 0.321734 -2.494191
v 0.232938 0.321734 -2.451540
v 0.240426 0.320714 -1.981694
v 0.232938 0.320714 -1.934414
v 0.211206 0.320714 -1.891763
v 0.177358 0.320714 -1.857915
v 0.134707 0.320714 -1.836183
v 0.087428 0.320714 -1.828695
v 0.040149 0.320714 -1.836183
v -0.002503 0.320714 -1.857915
v -0.036351 0.320714 -1.891763
v -0.058082 0.320714 -1.934414
v -0.065571 0.320714 -1.981694
v -0.058082 0.320714 -2.028973
v -0.036351 0.320714 -2.071624
v -0.002503 0.320714 -2.105472
v 0.040149 0.320714 -2.127204
v 0.087428 0.320714 -2.134692
v 0.134707 0.320714 -2.127204
v 0.177358 0.320714 -2.105472
v 0.211206 0.320714 -2.071624
v 0.232938 0.320714 -2.028973
v 0.240426 0.321734 -1.981694
v 0.232938 0.321734 -1.934414
v 0.211206 0.321734 -1.891763
v 0.177358 0.321734 -1.857915
v 0.134707 0.321734 -1.836183
v 0.087428 0.321734 -1.828695
v 0.040149 0.321734 -1.836183
v -0.002503 0.321734 -1.857915
v -0.036351 0.321734 -1.891763
v -0.058082 0.321734 -1.934414
v -0.065571 0.321734 -1.981694
v -0.058082 0.321734 -2.028973
v -0.036351 0.321734 -2.071624
v -0.002503 0.321734 -2.105472
v 0.040149 0.321734 -2.127204
v 0.087428 0.321734 -2.134692
v 0.134707 0.321734 -2.127204
v 0.177358 0.321734 -2.105472
v 0.211206 0.321734 -2.071624
v 0.232938 0.321734 -2.028973
v 0.240426 0.320714 -1.559127
v 0.232938 0.320714 -1.511847
v 0.211206 0.320714 -1.469196
v 0.177358 0.320714 -1.435348
v 0.134707 0.320714 -1.413616
v 0.087428 0.320714 -1.406128
v 0.040149 0.320714 -1.413616
v -0.002503 0.320714 -1.435348
v -0.036351 0.320714 -1.469196
v -0.058082 0.320714 -1.511847
v -0.065571 0.320714 -1.559127
v -0.058082 0.320714 -1.606406
v -0.036351 0.320714 -1.649057
v -0.002503 0.320714 -1.682905
v 0.040149 0.320714 -1.704637
v 0.087428 0.320714 -1.712125
v 0.134707 0.320714 -1.704637
v 0.177358 0.320714 -1.682905
v 0.211206 0.320714 -1.649057
v 0.232938 0.320714 -1.606406
v 0.240426 0.321734 -1.559127
v 0.232938 0.321734 -1.511847
v 0.211206 0.321734 -1.469196
v 0.177358 0.321734 -1.435348
v 0.134707 0.321734 -1.413616
v 0.087428 0.321734 -1.406128
v 0.040149 0.321734 -1.413616
v -0.002503 0.321734 -1.435348
v -0.036351 0.321734 -1.469196
v -0.058082 0.321734 -1.511847
v -0.065571 0.321734 -1.559127
v -0.058082 0.321734 -1.606406
v -0.036351 0.321734 -1.649057
v -0.002503 0.321734 -1.682905
v 0.040149 0.321734 -1.704637
v 0.087428 0.321734 -1.712125
v 0.134707 0.321734 -1.704637
v 0.177358 0.321734 -1.682905
v 0.211206 0.321734 -1.649057
v 0.232938 0.321734 -1.606406
v 0.240426 0.320714 -1.136560
v 0.232938 0.320714 -1.089280
v 0.211206 0.320714 -1.046629
v 0.177358 0.320714 -1.012781
v 0.134707 0.320714 -0.991049
v 0.087428 0.320714 -0.983561
v 0.040149 0.320714 -0.991049
v -0.002503 0.320714 -1.012781
v -0.036351 0.320714 -1.046629
v -0.058082 0.320714 -1.089280
v -0.065571 0.320714 -1.136560
v -0.058082 0.320714 -1.183839
v -0.036351 0.320714 -1.226490
v -0.002503 0.320714 -1.260338
v 0.040149 0.320714 -1.282070
v 0.087428 0.320714 -1.289558
v 0.134707 0.320714 -1.282070
v 0.177358 0.320714 -1.260338
v 0.211206 0.320714 -1.226490
v 0.232938 0.320714 -1.183839
v 0.240426 0.321734 -1.136560
v 0.232938 0.321734 -1.089280
v 0.211206 0.321734 -1.046629
v 0.177358 0.321734 -1.012781
v 0.134707 0.321734 -0.991049
v 0.087428 0.321734 -0.983561
v 0.040149 0.321734 -0.991049
v -0.002503 0.321734 -1.012781
v -0.036351 0.321734 -1.046629
v -0.058082 0.321734 -1.089280
v -0.065571 0.321734 -1.136560
v -0.058082 0.321734 -1.183839
v -0.036351 0.321734 -1.226490
v -0.002503 0.321734 -1.260338
v 0.040149 0.321734 -1.282070
v 0.087428 0.321734 -1.289558
v 0.134707 0.321734 -1.282070
v 0.177358 0.321734 -1.260338
v 0.211206 0.321734 -1.226490
v 0.232938 0.321734 -1.183839
v -0.546423 0.321224 1.546012
v -0.473566 0.321224 1.546012
v -0.473566 0.322972 1.546012
v -0.546423 0.322972 1.546012
v -0.546423 0.321224 1.630526
v -0.473566 0.321224 1.630526
v -0.473566 0.322972 1.630526
v -0.546423 0.322972 1.630526
v 0.488138 0.321224 1.691725
v 0.560994 0.321224 1.691725
v 0.560994 0.322972 1.691725
v 0.488138 0.322972 1.691725
v 0.488138 0.321224 1.776239
v 0.560994 0.321224 1.776239
v 0.560994 0.322972 1.776239
v 0.488138 0.322972 1.776239
v -0.619279 0.321224 -0.916533
v -0.546423 0.321224 -0.916533
v -0.546423 0.322972 -0.916533
v -0.619279 0.322972 -0.916533
v -0.619279 0.321224 -0.832020
v -0.546423 0.321224 -0.832020
v -0.546423 0.322972 -0.832020
v -0.619279 0.322972 -0.832020
v 0.415281 0.321224 -2.329947
v 0.488138 0.321224 -2.329947
v 0.488138 0.322972 -2.329947
v 0.415281 0.322972 -2.329947
v 0.415281 0.321224 -2.245434
v 0.488138 0.321224 -2.245434
v 0.488138 0.322972 -2.245434
v 0.415281 0.322972 -2.245434
f 961 964 963
f 961 963 962
f 965 966 967
f 965 967 968
f 961 962 966
f 961 966 965
f 964 968 967
f 964 967 963
f 961 965 968
f 961 968 964
f 962 963 967
f 962 967 966
f 969 972 971
f 969 971 970
f 973 974 975
f 973 975 976
f 969 970 974
f 969 974 973
f 972 976 975
f 972 975 971
f 969 973 976
f 969 976 972
f 970 971 975
f 970 975 974
f 977 980 979
f 977 979 978
f 981 982 983
f 981 983 984
f 977 978 982
f 977 982 981
f 980 984 983
f 980 983 979
f 977 981 984
f 977 984 980
f 978 979 983
f 978 983 982
f 985 988 987
f 985 987 986
f 989 990 991
f 989 991 992
f 985 986 990
f 985 990 989
f 988 992 991
f 988 991 987
f 985 989 992
f 985 992 988
f 986 987 991
f 986 991 990
f 993 996 995
f 993 995 994
f 997 998 999
f 997 999 1000
f 993 994 998
f 993 998 997
f 996 1000 999
f 996 999 995
f 993 997 1000
f 993 1000 996
f 994 995 999
f 994 999 998
f 1001 1004 1003
f 1001 1003 1002
f 1005 1006 1007
f 1005 1007 1008
f 1001 1002 1006
f 1001 1006 1005
f 1004 1008 1007
f 1004 1007 1003
f 1001 1005 1008
f 1001 1008 1004
f 1002 1003 1007
f 1002 1007 1006
f 1009 1012 1011
f 1009 1011 1010
f 1013 1014 1015
f 1013 1015 1016
f 1009 1010 1014
f 1009 1014 1013
f 1012 1016 1015
f 1012 1015 1011
f 1009 1013 1016
f 1009 1016 1012
f 1010 1011 1015
f 1010 1015 1014
f 1036 1017 1018
f 1036 1018 1019
f 1036 1019 1020
f 1036 1020 1021
f 1036 1021 1022
f 1036 1022 1023
f 1036 1023 1024
f 1036 1024 1025
f 1036 1025 1026
f 1036 1026 1027
f 1036 1027 1028
f 1036 1028 1029
f 1036 1029 1030
f 1036 1030 1031
f 1036 1031 1032
f 1036 1032 1033
f 1036 1033 1034
f 1034 1035 1036
f 1038 1037 1056
f 1039 1038 1056
f 1040 1039 1056
f 1041 1040 1056
f 1042 1041 1056
f 1043 1042 1056
f 1044 1043 1056
f 1045 1044 1056
f 1046 1045 1056
f 1047 1046 1056
f 1048 1047 1056
f 1049 1048 1056
f 1050 1049 1056
f 1051 1050 1056
f 1052 1051 1056
f 1053 1052 1056
f 1054 1053 1056
f 1056 1055 1054
f 1017 1037 1038
f 1017 1038 1018
f 1018 1038 1039
f 1018 1039 1019
f 1019 1039 1040
f 1019 1040 1020
f 1020 1040 1041
f 1020 1041 1021
f 1021 1041 1042
f 1021 1042 1022
f 1022 1042 1043
f 1022 1043 1023
f 1023 1043 1044
f 1023 1044 1024
f 1024 1044 1045
f 1024 1045 1025
f 1025 1045 1046
f 1025 1046 1026
f 1026 1046 1047
f 1026 1047 1027
f 1027 1047 1048
f 1027 1048 1028
f 1028 1048 1049
f 1028 1049 1029
f 1029 1049 1050
f 1029 1050 1030
f 1030 1050 1051
f 1030 1051 1031
f 1031 1051 1052
f 1031 1052 1032
f 1032 1052 1053
f 1032 1053 1033
f 1033 1053 1054
f 1033 1054 1034
f 1034 1054 1055
f 1034 1055 1035
f 1035 1055 1056
f 1035 1056 1036
f 1036 1056 1037
f 1036 1037 1017
f 1076 1057 1058
f 1076 1058 1059
f 1076 1059 1060
f 1076 1060 1061
f 1076 1061 1062
f 1076 1062 1063
f 1076 1063 1064
f 1076 1064 1065
f 1076 1065 1066
f 1076 1066 1067
f 1076 1067 1068
f 1076 1068 1069
f 1076 1069 1070
f 1076 1070 1071
f 1076 1071 1072
f 1076 1072 1073
f 1076 1073 1074
f 1074 1075 1076
f 1078 1077 1096
f 1079 1078 1096
f 1080 1079 1096
f 1081 1080 1096
f 1082 1081 1096
f 1083 1082 1096
f 1084 1083 1096
f 1085 1084 1096
f 1086 1085 1096
f 1087 1086 1096
f 1088 1087 1096
f 1089 1088 1096
f 1090 1089 1096
f 1091 1090 1096
f 1092 1091 1096
f 1093 1092 1096
f 1094 1093 1096
f 1096 1095 1094
f 1057 1077 1078
f 1057 1078 1058
f 1058 1078 1079
f 1058 1079 1059
f 1059 1079 1080
f 1059 1080 1060
f 1060 1080 1081
f 1060 1081 1061
f 1061 1081 1082
f 1061 1082 1062
f 1062 1082 1083
f 1062 1083 1063
f 1063 1083 1084
f 1063 1084 1064
f 1064 1084 1085
f 1064 1085 1065
f 1065 1085 1086
f 1065 1086 1066
f 1066 1086 1087
f 1066 1087 1067
f 1067 1087 1088
f 1067 1088 1068
f 1068 1088 1089
f 1068 1089 1069
f 1069 1089 1090
f 1069 1090 1070
f 1070 1090 1091
f 1070 1091 1071
f 1071 1091 1092
f 1071 1092 1072
f 1072 1092 1093
f 1072 1093 1073
f 1073 1093 1094
f 1073 1094 1074
f 1074 1094 1095
f 1074 1095 1075
f 1075 1095 1096
f 1075 1096 1076
f 1076 1096 1077
f 1076 1077 1057
f 1116 1097 1098
f 1116 1098 1099
f 1116 1099 1100
f 1116 1100 1101
f 1116 1101 1102
f 1116 1102 1103
f 1116 1103 1104
f 1116 1104 1105
f 1116 1105 1106
f 1116 1106 1107
f 1116 1107 1108
f 1116 1108 1109
f 1116 1109 1110
f 1116 1110 1111
f 1116 1111 1112
f 1116 1112 1113
f 1116 1113 1114
f 1114 1115 1116
f 1118 1117 1136
f 1119 1118 1136
f 1120 1119 1136
f 1121 1120 1136
f 1122 1121 1136
f 1123 1122 1136
f 1124 1123 1136
f 1125 1124 1136
f 1126 1125 1136
f 1127 1126 1136
f 1128 1127 1136
f 1129 1128 1136
f 1130 1129 1136
f 1131 1130 1136
f 1132 1131 1136
f 1133 1132 1136
f 1134 1133 1136
f 1136 1135 1134
f 1097 1117 1118
f 1097 1118 1098
f 1098 1118 1119
f 1098 1119 1099
f 1099 1119 1120
f 1099 1120 1100
f 1100 1120 1121
f 1100 1121 1101
f 1101 1121 1122
f 1101 1122 1102
f 1102 1122 1123
f 1102 1123 1103
f 1103 1123 1124
f 1103 1124 1104
f 1104 1124 1125
f 1104 1125 1105
f 1105 1125 1126
f 1105 1126 1106
f 1106 1126 1127
f 1106 1127 1107
f 1107 1127 1128
f 1107 1128 1108
f 1108 1128 1129
f 1108 1129 1109
f 1109 1129 1130
f 1109 1130 1110
f 1110 1130 1131
f 1110 1131 1111
f 1111 1131 1132
f 1111 1132 1112
f 1112 1132 1133
f 1112 1133 1113
f 1113 1133 1134
f 1113 1134 1114
f 1114 1134 1135
f 1114 1135 1115
f 1115 1135 1136
f 1115 1136 1116
f 1116 1136 1117
f 1116 1117 1097
f 1156 1137 1138
f 1156 1138 1139
f 1156 1139 1140
f 1156 1140 1141
f 1156 1141 1142
f 1156 1142 1143
f 1156 1143 1144
f 1156 1144 1145
f 1156 1145 1146
f 1156 1146 1147
f 1156 1147 1148
f 1156 1148 1149
f 1156 1149 1150
f 1156 1150 1151
f 1156 1151 1152
f 1156 1152 1153
f 1156 1153 1154
f 1154 1155 1156
f 1158 1157 1176
f 1159 1158 1176
f 1160 1159 1176
f 1161 1160 1176
f 1162 1161 1176
f 1163 1162 1176
f 1164 1163 1176
f 1165 1164 1176
f 1166 1165 1176
f 1167 1166 1176
f 1168 1167 1176
f 1169 1168 1176
f 1170 1169 1176
f 1171 1170 1176
f 1172 1171 1176
f 1173 1172 1176
f 1174 1173 1176
f 1176 1175 1174
f 1137 1157 1158
f 1137 1158 1138
f 1138 1158 1159
f 1138 1159 1139
f 1139 1159 1160
f 1139 1160 1140
f 1140 1160 1161
f 1140 1161 1141
f 1141 1161 1162
f 1141 1162 1142
f 1142 1162 1163
f 1142 1163 1143
f 1143 1163 1164
f 1143 1164 1144
f 1144 1164 1165
f 1144 1165 1145
f 1145 1165 1166
f 1145 1166 1146
f 1146 1166 1167
f 1146 1167 1147
f 1147 1167 1168
f 1147 1168 1148
f 1148 1168 1169
f 1148 1169 1149
f 1149 1169 1170
f 1149 1170 1150
f 1150 1170 1171
f 1150 1171 1151
f 1151 1171 1172
f 1151 1172 1152
f 1152 1172 1173
f 1152 1173 1153
f 1153 1173 1174
f 1153 1174 1154
f 1154 1174 1175
f 1154 1175 1155
f 1155 1175 1176
f 1155 1176 1156
f 1156 1176 1157
f 1156 1157 1137
f 1177 1180 1179
f 1177 1179 1178
f 1181 1182 1183
f 1181 1183 1184
f 1177 1178 1182
f 1177 1182 1181
f 1180 1184 1183
f 1180 1183 1179
f 1177 1181 1184
f 1177 1184 1180
f 1178 1179 1183
f 1178 1183 1182
f 1185 1188 1187
f 1185 1187 1186
f 1189 1190 1191
f 1189 1191 1192
f 1185 1186 1190
f 1185 1190 1189
f 1188 1192 1191
f 1188 1191 1187
f 1185 1189 1192
f 1185 1192 1188
f 1186 1187 1191
f 1186 1191 1190
f 1193 1196 1195
f 1193 1195 1194
f 1197 1198 1199
f 1197 1199 1200
f 1193 1194 1198
f 1193 1198 1197
f 1196 1200 1199
f 1196 1199 1195
f 1193 1197 1200
f 1193 1200 1196
f 1194 1195 1199
f 1194 1199 1198
f 1201 1204 1203
f 1201 1203 1202
f 1205 1206 1207
f 1205 1207 1208
f 1201 1202 1206
f 1201 1206 1205
f 1204 1208 1207
f 1204 1207 1203
f 1201 1205 1208
f 1201 1208 1204
f 1202 1203 1207
f 1202 1207 1206
o Propeller_1
usemtl dark
v -0.004007 -0.004007 -0.004007
v 0.004007 -0.004007 -0.004007
v 0.004007 0.004007 -0.004007
v -0.004007 0.004007 -0.004007
v -0.004007 -0.004007 0.004007
v 0.004007 -0.004007 0.004007
v 0.004007 0.004007 0.004007
v -0.004007 0.004007 0.004007
f 1209 1212 1211
f 1209 1211 1210
f 1213 1214 1215
f 1213 1215 1216
f 1209 1210 1214
f 1209 1214 1213
f 1212 1216 1215
f 1212 1215 1211
f 1209 1213 1216
f 1209 1216 1212
f 1210 1211 1215
f 1210 1215 1214
o Propeller_2
usemtl dark
v -0.004007 -0.004007 -0.004007
v 0.004007 -0.004007 -0.004007
v 0.004007 0.004007 -0.004007
v -0.004007 0.004007 -0.004007
v -0.004007 -0.004007 0.004007
v 0.004007 -0.004007 0.004007
v 0.004007 0.004007 0.004007
v -0.004007 0.004007 0.004007
f 1217 1220 1219
f 1217 1219 1218
f 1221 1222 1223
f 1221 1223 1224
f 1217 1218 1222
f 1217 1222 1221
f 1220 1224 1223
f 1220 1223 1219
f 1217 1221 1224
f 1217 1224 1220
f 1218 1219 1223
f 1218 1223 1222
o Rudder
usemtl dark
v -0.001821 -0.008014 -0.007650
v 0.001821 -0.008014 -0.007650
v 0.001821 0.008014 -0.007650
v -0.001821 0.008014 -0.007650
v -0.001821 -0.008014 0.007650
v 0.001821 -0.008014 0.007650
v 0.001821 0.008014 0.007650
v -0.001821 0.008014 0.007650
f 1225 1228 1227
f 1225 1227 1226
f 1229 1230 1231
f 1229 1231 1232
f 1225 1226 1230
f 1225 1230 1229
f 1228 1232 1231
f 1228 1231 1227
f 1225 1229 1232
f 1225 1232 1228
f 1226 1227 1231
f 1226 1231 1230
