# Original RAN carrier model study scaled to an observed Sea Power reference mesh.
# Approximate game scale only; engine origin, deck routing and collision need an in-game test.
# RAN Carrier Restart: original model study; coordinates in metres
mtllib ran_cvn_southern_cross_2002.mtl
o Hull
usemtl hull
v -0.22719214 0.00000000 -2.51791658
v -0.23421870 0.04371383 -2.51791658
v -0.23187651 0.27248287 -2.51791658
v 0.23187651 0.27248287 -2.51791658
v 0.23421870 0.04371383 -2.51791658
v 0.22719214 0.00000000 -2.51791658
v -0.23269587 0.00000000 -2.37584663
v -0.23989264 0.04371383 -2.37584663
v -0.23749372 0.27248287 -2.37584663
v 0.23749372 0.27248287 -2.37584663
v 0.23989264 0.04371383 -2.37584663
v 0.23269587 0.00000000 -2.37584663
v -0.23817821 0.00000000 -2.23377669
v -0.24554454 0.04371383 -2.23377669
v -0.24308911 0.27248287 -2.23377669
v 0.24308911 0.27248287 -2.23377669
v 0.24554454 0.04371383 -2.23377669
v 0.23817821 0.00000000 -2.23377669
v -0.24361789 0.00000000 -2.09170674
v -0.25115246 0.04371383 -2.09170674
v -0.24864094 0.27248287 -2.09170674
v 0.24864094 0.27248287 -2.09170674
v 0.25115246 0.04371383 -2.09170674
v 0.24361789 0.00000000 -2.09170674
v -0.24899377 0.00000000 -1.94963680
v -0.25669460 0.04371383 -1.94963680
v -0.25412767 0.27248287 -1.94963680
v 0.25412767 0.27248287 -1.94963680
v 0.25669460 0.04371383 -1.94963680
v 0.24899377 0.00000000 -1.94963680
v -0.25428496 0.00000000 -1.80756685
v -0.26214945 0.04371383 -1.80756685
v -0.25952796 0.27248287 -1.80756685
v 0.25952796 0.27248287 -1.80756685
v 0.26214945 0.04371383 -1.80756685
v 0.25428496 0.00000000 -1.80756685
v -0.25947092 0.00000000 -1.66549690
v -0.26749581 0.04371383 -1.66549690
v -0.26482084 0.27248287 -1.66549690
v 0.26482084 0.27248287 -1.66549690
v 0.26749581 0.04371383 -1.66549690
v 0.25947092 0.00000000 -1.66549690
v -0.26453151 0.00000000 -1.52342696
v -0.27271291 0.04371383 -1.52342696
v -0.26998578 0.27248287 -1.52342696
v 0.26998578 0.27248287 -1.52342696
v 0.27271291 0.04371383 -1.52342696
v 0.26453151 0.00000000 -1.52342696
v -0.26944708 0.00000000 -1.38135701
v -0.27778049 0.04371383 -1.38135701
v -0.27500268 0.27248287 -1.38135701
v 0.27500268 0.27248287 -1.38135701
v 0.27778049 0.04371383 -1.38135701
v 0.26944708 0.00000000 -1.38135701
v -0.27419851 0.00000000 -1.23928707
v -0.28267887 0.04371383 -1.23928707
v -0.27985208 0.27248287 -1.23928707
v 0.27985208 0.27248287 -1.23928707
v 0.28267887 0.04371383 -1.23928707
v 0.27419851 0.00000000 -1.23928707
v -0.27876735 0.00000000 -1.09721712
v -0.28738902 0.04371383 -1.09721712
v -0.28451513 0.27248287 -1.09721712
v 0.28451513 0.27248287 -1.09721712
v 0.28738902 0.04371383 -1.09721712
v 0.27876735 0.00000000 -1.09721712
v -0.28313587 0.00000000 -0.95514717
v -0.29189266 0.04371383 -0.95514717
v -0.28897372 0.27248287 -0.95514717
v 0.28897372 0.27248287 -0.95514717
v 0.29189266 0.04371383 -0.95514717
v 0.28313587 0.00000000 -0.95514717
v -0.28728710 0.00000000 -0.81307723
v -0.29617227 0.04371383 -0.81307723
v -0.29321054 0.27248287 -0.81307723
v 0.29321054 0.27248287 -0.81307723
v 0.29617227 0.04371383 -0.81307723
v 0.28728710 0.00000000 -0.81307723
v -0.29120491 0.00000000 -0.67100728
v -0.30021124 0.04371383 -0.67100728
v -0.29720913 0.27248287 -0.67100728
v 0.29720913 0.27248287 -0.67100728
v 0.30021124 0.04371383 -0.67100728
v 0.29120491 0.00000000 -0.67100728
v -0.29487407 0.00000000 -0.52893734
v -0.30399390 0.04371383 -0.52893734
v -0.30095395 0.27248287 -0.52893734
v 0.30095395 0.27248287 -0.52893734
v 0.30399390 0.04371383 -0.52893734
v 0.29487407 0.00000000 -0.52893734
v -0.29828035 0.00000000 -0.38686739
v -0.30750553 0.04371383 -0.38686739
v -0.30443047 0.27248287 -0.38686739
v 0.30443047 0.27248287 -0.38686739
v 0.30750553 0.04371383 -0.38686739
v 0.29828035 0.00000000 -0.38686739
v -0.30141053 0.00000000 -0.24479745
v -0.31073250 0.04371383 -0.24479745
v -0.30762518 0.27248287 -0.24479745
v 0.30762518 0.27248287 -0.24479745
v 0.31073250 0.04371383 -0.24479745
v 0.30141053 0.00000000 -0.24479745
v -0.30425242 0.00000000 -0.10272750
v -0.31366229 0.04371383 -0.10272750
v -0.31052566 0.27248287 -0.10272750
v 0.31052566 0.27248287 -0.10272750
v 0.31366229 0.04371383 -0.10272750
v 0.30425242 0.00000000 -0.10272750
v -0.30679499 0.00000000 0.03934245
v -0.31628349 0.04371383 0.03934245
v -0.31312066 0.27248287 0.03934245
v 0.31312066 0.27248287 0.03934245
v 0.31628349 0.04371383 0.03934245
v 0.30679499 0.00000000 0.03934245
v -0.30902838 0.00000000 0.18141239
v -0.31858595 0.04371383 0.18141239
v -0.31540009 0.27248287 0.18141239
v 0.31540009 0.27248287 0.18141239
v 0.31858595 0.04371383 0.18141239
v 0.30902838 0.00000000 0.18141239
v -0.31094389 0.00000000 0.32348234
v -0.32056071 0.04371383 0.32348234
v -0.31735510 0.27248287 0.32348234
v 0.31735510 0.27248287 0.32348234
v 0.32056071 0.04371383 0.32348234
v 0.31094389 0.00000000 0.32348234
v -0.31253409 0.00000000 0.46555228
v -0.32220010 0.04371383 0.46555228
v -0.31897809 0.27248287 0.46555228
v 0.31897809 0.27248287 0.46555228
v 0.32220010 0.04371383 0.46555228
v 0.31253409 0.00000000 0.46555228
v -0.31379282 0.00000000 0.60762223
v -0.32349775 0.04371383 0.60762223
v -0.32026279 0.27248287 0.60762223
v 0.32026279 0.27248287 0.60762223
v 0.32349775 0.04371383 0.60762223
v 0.31379282 0.00000000 0.60762223
v -0.31471518 0.00000000 0.74969218
v -0.32444865 0.04371383 0.74969218
v -0.32120415 0.27248287 0.74969218
v 0.32120415 0.27248287 0.74969218
v 0.32444865 0.04371383 0.74969218
v 0.31471518 0.00000000 0.74969218
v -0.31529758 0.00000000 0.89176212
v -0.32504906 0.04371383 0.89176212
v -0.32179857 0.27248287 0.89176212
v 0.32179857 0.27248287 0.89176212
v 0.32504906 0.04371383 0.89176212
v 0.31529758 0.00000000 0.89176212
v -0.31553777 0.00000000 1.03383207
v -0.32529667 0.04371383 1.03383207
v -0.32204370 0.27248287 1.03383207
v 0.32204370 0.27248287 1.03383207
v 0.32529667 0.04371383 1.03383207
v 0.31553777 0.00000000 1.03383207
v -0.31554464 0.00000000 1.17590201
v -0.32530375 0.04371383 1.17590201
v -0.32205071 0.27248287 1.17590201
v 0.32205071 0.27248287 1.17590201
v 0.32530375 0.04371383 1.17590201
v 0.31554464 0.00000000 1.17590201
v -0.31554464 0.00000000 1.31797196
v -0.32530375 0.04371383 1.31797196
v -0.32205071 0.27248287 1.31797196
v 0.32205071 0.27248287 1.31797196
v 0.32530375 0.04371383 1.31797196
v 0.31554464 0.00000000 1.31797196
v -0.30937398 0.00000000 1.46004191
v -0.31894223 0.04371383 1.46004191
v -0.31575282 0.27248287 1.46004191
v 0.31575282 0.27248287 1.46004191
v 0.31894223 0.04371383 1.46004191
v 0.30937398 0.00000000 1.46004191
v -0.29023256 0.00000000 1.60211185
v -0.29920884 0.04371383 1.60211185
v -0.29621674 0.27248287 1.60211185
v 0.29621674 0.27248287 1.60211185
v 0.29920884 0.04371383 1.60211185
v 0.29023256 0.00000000 1.60211185
v -0.26384733 0.00000000 1.74418180
v -0.27200757 0.04371383 1.74418180
v -0.26928749 0.27248287 1.74418180
v 0.26928749 0.27248287 1.74418180
v 0.27200757 0.04371383 1.74418180
v 0.26384733 0.00000000 1.74418180
v -0.23184684 0.00000000 1.88625174
v -0.23901737 0.04371383 1.88625174
v -0.23662718 0.27248287 1.88625174
v 0.23662718 0.27248287 1.88625174
v 0.23901737 0.04371383 1.88625174
v 0.23184684 0.00000000 1.88625174
v -0.19508573 0.00000000 2.02832169
v -0.20111932 0.04371383 2.02832169
v -0.19910811 0.27248287 2.02832169
v 0.19910811 0.27248287 2.02832169
v 0.20111932 0.04371383 2.02832169
v 0.19508573 0.00000000 2.02832169
v -0.15411601 0.00000000 2.17039163
v -0.15888247 0.04371383 2.17039163
v -0.15729365 0.27248287 2.17039163
v 0.15729365 0.27248287 2.17039163
v 0.15888247 0.04371383 2.17039163
v 0.15411601 0.00000000 2.17039163
v -0.10933259 0.00000000 2.31246158
v -0.11271401 0.04371383 2.31246158
v -0.11158686 0.27248287 2.31246158
v 0.11158686 0.27248287 2.31246158
v 0.11271401 0.04371383 2.31246158
v 0.10933259 0.00000000 2.31246158
v -0.06103632 0.00000000 2.45453153
v -0.06292405 0.04371383 2.45453153
v -0.06229482 0.27248287 2.45453153
v 0.06229482 0.27248287 2.45453153
v 0.06292405 0.04371383 2.45453153
v 0.06103632 0.00000000 2.45453153
v -0.00946635 0.00000000 2.59660147
v -0.00975911 0.04371383 2.59660147
v -0.00966153 0.27248287 2.59660147
v 0.00966153 0.27248287 2.59660147
v 0.00975911 0.04371383 2.59660147
v 0.00946635 0.00000000 2.59660147
f 7 8 2
f 7 2 1
f 8 9 3
f 8 3 2
f 9 10 4
f 9 4 3
f 10 11 5
f 10 5 4
f 11 12 6
f 11 6 5
f 12 7 1
f 12 1 6
f 13 14 8
f 13 8 7
f 14 15 9
f 14 9 8
f 15 16 10
f 15 10 9
f 16 17 11
f 16 11 10
f 17 18 12
f 17 12 11
f 18 13 7
f 18 7 12
f 19 20 14
f 19 14 13
f 20 21 15
f 20 15 14
f 21 22 16
f 21 16 15
f 22 23 17
f 22 17 16
f 23 24 18
f 23 18 17
f 24 19 13
f 24 13 18
f 25 26 20
f 25 20 19
f 26 27 21
f 26 21 20
f 27 28 22
f 27 22 21
f 28 29 23
f 28 23 22
f 29 30 24
f 29 24 23
f 30 25 19
f 30 19 24
f 31 32 26
f 31 26 25
f 32 33 27
f 32 27 26
f 33 34 28
f 33 28 27
f 34 35 29
f 34 29 28
f 35 36 30
f 35 30 29
f 36 31 25
f 36 25 30
f 37 38 32
f 37 32 31
f 38 39 33
f 38 33 32
f 39 40 34
f 39 34 33
f 40 41 35
f 40 35 34
f 41 42 36
f 41 36 35
f 42 37 31
f 42 31 36
f 43 44 38
f 43 38 37
f 44 45 39
f 44 39 38
f 45 46 40
f 45 40 39
f 46 47 41
f 46 41 40
f 47 48 42
f 47 42 41
f 48 43 37
f 48 37 42
f 49 50 44
f 49 44 43
f 50 51 45
f 50 45 44
f 51 52 46
f 51 46 45
f 52 53 47
f 52 47 46
f 53 54 48
f 53 48 47
f 54 49 43
f 54 43 48
f 55 56 50
f 55 50 49
f 56 57 51
f 56 51 50
f 57 58 52
f 57 52 51
f 58 59 53
f 58 53 52
f 59 60 54
f 59 54 53
f 60 55 49
f 60 49 54
f 61 62 56
f 61 56 55
f 62 63 57
f 62 57 56
f 63 64 58
f 63 58 57
f 64 65 59
f 64 59 58
f 65 66 60
f 65 60 59
f 66 61 55
f 66 55 60
f 67 68 62
f 67 62 61
f 68 69 63
f 68 63 62
f 69 70 64
f 69 64 63
f 70 71 65
f 70 65 64
f 71 72 66
f 71 66 65
f 72 67 61
f 72 61 66
f 73 74 68
f 73 68 67
f 74 75 69
f 74 69 68
f 75 76 70
f 75 70 69
f 76 77 71
f 76 71 70
f 77 78 72
f 77 72 71
f 78 73 67
f 78 67 72
f 79 80 74
f 79 74 73
f 80 81 75
f 80 75 74
f 81 82 76
f 81 76 75
f 82 83 77
f 82 77 76
f 83 84 78
f 83 78 77
f 84 79 73
f 84 73 78
f 85 86 80
f 85 80 79
f 86 87 81
f 86 81 80
f 87 88 82
f 87 82 81
f 88 89 83
f 88 83 82
f 89 90 84
f 89 84 83
f 90 85 79
f 90 79 84
f 91 92 86
f 91 86 85
f 92 93 87
f 92 87 86
f 93 94 88
f 93 88 87
f 94 95 89
f 94 89 88
f 95 96 90
f 95 90 89
f 96 91 85
f 96 85 90
f 97 98 92
f 97 92 91
f 98 99 93
f 98 93 92
f 99 100 94
f 99 94 93
f 100 101 95
f 100 95 94
f 101 102 96
f 101 96 95
f 102 97 91
f 102 91 96
f 103 104 98
f 103 98 97
f 104 105 99
f 104 99 98
f 105 106 100
f 105 100 99
f 106 107 101
f 106 101 100
f 107 108 102
f 107 102 101
f 108 103 97
f 108 97 102
f 109 110 104
f 109 104 103
f 110 111 105
f 110 105 104
f 111 112 106
f 111 106 105
f 112 113 107
f 112 107 106
f 113 114 108
f 113 108 107
f 114 109 103
f 114 103 108
f 115 116 110
f 115 110 109
f 116 117 111
f 116 111 110
f 117 118 112
f 117 112 111
f 118 119 113
f 118 113 112
f 119 120 114
f 119 114 113
f 120 115 109
f 120 109 114
f 121 122 116
f 121 116 115
f 122 123 117
f 122 117 116
f 123 124 118
f 123 118 117
f 124 125 119
f 124 119 118
f 125 126 120
f 125 120 119
f 126 121 115
f 126 115 120
f 127 128 122
f 127 122 121
f 128 129 123
f 128 123 122
f 129 130 124
f 129 124 123
f 130 131 125
f 130 125 124
f 131 132 126
f 131 126 125
f 132 127 121
f 132 121 126
f 133 134 128
f 133 128 127
f 134 135 129
f 134 129 128
f 135 136 130
f 135 130 129
f 136 137 131
f 136 131 130
f 137 138 132
f 137 132 131
f 138 133 127
f 138 127 132
f 139 140 134
f 139 134 133
f 140 141 135
f 140 135 134
f 141 142 136
f 141 136 135
f 142 143 137
f 142 137 136
f 143 144 138
f 143 138 137
f 144 139 133
f 144 133 138
f 145 146 140
f 145 140 139
f 146 147 141
f 146 141 140
f 147 148 142
f 147 142 141
f 148 149 143
f 148 143 142
f 149 150 144
f 149 144 143
f 150 145 139
f 150 139 144
f 151 152 146
f 151 146 145
f 152 153 147
f 152 147 146
f 153 154 148
f 153 148 147
f 154 155 149
f 154 149 148
f 155 156 150
f 155 150 149
f 156 151 145
f 156 145 150
f 157 158 152
f 157 152 151
f 158 159 153
f 158 153 152
f 159 160 154
f 159 154 153
f 160 161 155
f 160 155 154
f 161 162 156
f 161 156 155
f 162 157 151
f 162 151 156
f 163 164 158
f 163 158 157
f 164 165 159
f 164 159 158
f 165 166 160
f 165 160 159
f 166 167 161
f 166 161 160
f 167 168 162
f 167 162 161
f 168 163 157
f 168 157 162
f 169 170 164
f 169 164 163
f 170 171 165
f 170 165 164
f 171 172 166
f 171 166 165
f 172 173 167
f 172 167 166
f 173 174 168
f 173 168 167
f 174 169 163
f 174 163 168
f 175 176 170
f 175 170 169
f 176 177 171
f 176 171 170
f 177 178 172
f 177 172 171
f 178 179 173
f 178 173 172
f 179 180 174
f 179 174 173
f 180 175 169
f 180 169 174
f 181 182 176
f 181 176 175
f 182 183 177
f 182 177 176
f 183 184 178
f 183 178 177
f 184 185 179
f 184 179 178
f 185 186 180
f 185 180 179
f 186 181 175
f 186 175 180
f 187 188 182
f 187 182 181
f 188 189 183
f 188 183 182
f 189 190 184
f 189 184 183
f 190 191 185
f 190 185 184
f 191 192 186
f 191 186 185
f 192 187 181
f 192 181 186
f 193 194 188
f 193 188 187
f 194 195 189
f 194 189 188
f 195 196 190
f 195 190 189
f 196 197 191
f 196 191 190
f 197 198 192
f 197 192 191
f 198 193 187
f 198 187 192
f 199 200 194
f 199 194 193
f 200 201 195
f 200 195 194
f 201 202 196
f 201 196 195
f 202 203 197
f 202 197 196
f 203 204 198
f 203 198 197
f 204 199 193
f 204 193 198
f 205 206 200
f 205 200 199
f 206 207 201
f 206 201 200
f 207 208 202
f 207 202 201
f 208 209 203
f 208 203 202
f 209 210 204
f 209 204 203
f 210 205 199
f 210 199 204
f 211 212 206
f 211 206 205
f 212 213 207
f 212 207 206
f 213 214 208
f 213 208 207
f 214 215 209
f 214 209 208
f 215 216 210
f 215 210 209
f 216 211 205
f 216 205 210
f 217 218 212
f 217 212 211
f 218 219 213
f 218 213 212
f 219 220 214
f 219 214 213
f 220 221 215
f 220 215 214
f 221 222 216
f 221 216 215
f 222 217 211
f 222 211 216
f 1 2 3
f 1 3 4
f 1 4 5
f 1 5 6
f 222 221 220
f 222 220 219
f 222 219 218
f 222 218 217
o UnderwaterHull
usemtl underwater
v -0.14053122 -0.12385585 -2.51791658
v -0.21782339 -0.04371383 -2.51791658
v -0.22719214 0.00000000 -2.51791658
v 0.22719214 0.00000000 -2.51791658
v 0.21782339 -0.04371383 -2.51791658
v 0.14053122 -0.12385585 -2.51791658
v -0.14393558 -0.12385585 -2.37584663
v -0.22310016 -0.04371383 -2.37584663
v -0.23269587 0.00000000 -2.37584663
v 0.23269587 0.00000000 -2.37584663
v 0.22310016 -0.04371383 -2.37584663
v 0.14393558 -0.12385585 -2.37584663
v -0.14732672 -0.12385585 -2.23377669
v -0.22835643 -0.04371383 -2.23377669
v -0.23817821 0.00000000 -2.23377669
v 0.23817821 0.00000000 -2.23377669
v 0.22835643 -0.04371383 -2.23377669
v 0.14732672 -0.12385585 -2.23377669
v -0.15069148 -0.12385585 -2.09170674
v -0.23357179 -0.04371383 -2.09170674
v -0.24361789 0.00000000 -2.09170674
v 0.24361789 0.00000000 -2.09170674
v 0.23357179 -0.04371383 -2.09170674
v 0.15069148 -0.12385585 -2.09170674
v -0.15401676 -0.12385585 -1.94963680
v -0.23872599 -0.04371383 -1.94963680
v -0.24899377 0.00000000 -1.94963680
v 0.24899377 0.00000000 -1.94963680
v 0.23872599 -0.04371383 -1.94963680
v 0.15401676 -0.12385585 -1.94963680
v -0.15728967 -0.12385585 -1.80756685
v -0.24379899 -0.04371383 -1.80756685
v -0.25428496 0.00000000 -1.80756685
v 0.25428496 0.00000000 -1.80756685
v 0.24379899 -0.04371383 -1.80756685
v 0.15728967 -0.12385585 -1.80756685
v -0.16049748 -0.12385585 -1.66549690
v -0.24877109 -0.04371383 -1.66549690
v -0.25947092 0.00000000 -1.66549690
v 0.25947092 0.00000000 -1.66549690
v 0.24877109 -0.04371383 -1.66549690
v 0.16049748 -0.12385585 -1.66549690
v -0.16362774 -0.12385585 -1.52342696
v -0.25362301 -0.04371383 -1.52342696
v -0.26453151 0.00000000 -1.52342696
v 0.26453151 0.00000000 -1.52342696
v 0.25362301 -0.04371383 -1.52342696
v 0.16362774 -0.12385585 -1.52342696
v -0.16666829 -0.12385585 -1.38135701
v -0.25833585 -0.04371383 -1.38135701
v -0.26944708 0.00000000 -1.38135701
v 0.26944708 0.00000000 -1.38135701
v 0.25833585 -0.04371383 -1.38135701
v 0.16666829 -0.12385585 -1.38135701
v -0.16960733 -0.12385585 -1.23928707
v -0.26289134 -0.04371383 -1.23928707
v -0.27419851 0.00000000 -1.23928707
v 0.27419851 0.00000000 -1.23928707
v 0.26289134 -0.04371383 -1.23928707
v 0.16960733 -0.12385585 -1.23928707
v -0.17243341 -0.12385585 -1.09721712
v -0.26727179 -0.04371383 -1.09721712
v -0.27876735 0.00000000 -1.09721712
v 0.27876735 0.00000000 -1.09721712
v 0.26727179 -0.04371383 -1.09721712
v 0.17243341 -0.12385585 -1.09721712
v -0.17513560 -0.12385585 -0.95514717
v -0.27146017 -0.04371383 -0.95514717
v -0.28313587 0.00000000 -0.95514717
v 0.28313587 0.00000000 -0.95514717
v 0.27146017 -0.04371383 -0.95514717
v 0.17513560 -0.12385585 -0.95514717
v -0.17770336 -0.12385585 -0.81307723
v -0.27544021 -0.04371383 -0.81307723
v -0.28728710 0.00000000 -0.81307723
v 0.28728710 0.00000000 -0.81307723
v 0.27544021 -0.04371383 -0.81307723
v 0.17770336 -0.12385585 -0.81307723
v -0.18012674 -0.12385585 -0.67100728
v -0.27919646 -0.04371383 -0.67100728
v -0.29120491 0.00000000 -0.67100728
v 0.29120491 0.00000000 -0.67100728
v 0.27919646 -0.04371383 -0.67100728
v 0.18012674 -0.12385585 -0.67100728
v -0.18239633 -0.12385585 -0.52893734
v -0.28271433 -0.04371383 -0.52893734
v -0.29487407 0.00000000 -0.52893734
v 0.29487407 0.00000000 -0.52893734
v 0.28271433 -0.04371383 -0.52893734
v 0.18239633 -0.12385585 -0.52893734
v -0.18450331 -0.12385585 -0.38686739
v -0.28598014 -0.04371383 -0.38686739
v -0.29828035 0.00000000 -0.38686739
v 0.29828035 0.00000000 -0.38686739
v 0.28598014 -0.04371383 -0.38686739
v 0.18450331 -0.12385585 -0.38686739
v -0.18643950 -0.12385585 -0.24479745
v -0.28898123 -0.04371383 -0.24479745
v -0.30141053 0.00000000 -0.24479745
v 0.30141053 0.00000000 -0.24479745
v 0.28898123 -0.04371383 -0.24479745
v 0.18643950 -0.12385585 -0.24479745
v -0.18819738 -0.12385585 -0.10272750
v -0.29170593 -0.04371383 -0.10272750
v -0.30425242 0.00000000 -0.10272750
v 0.30425242 0.00000000 -0.10272750
v 0.29170593 -0.04371383 -0.10272750
v 0.18819738 -0.12385585 -0.10272750
v -0.18977010 -0.12385585 0.03934245
v -0.29414364 -0.04371383 0.03934245
v -0.30679499 0.00000000 0.03934245
v 0.30679499 0.00000000 0.03934245
v 0.29414364 -0.04371383 0.03934245
v 0.18977010 -0.12385585 0.03934245
v -0.19115157 -0.12385585 0.18141239
v -0.29628493 -0.04371383 0.18141239
v -0.30902838 0.00000000 0.18141239
v 0.30902838 0.00000000 0.18141239
v 0.29628493 -0.04371383 0.18141239
v 0.19115157 -0.12385585 0.18141239
v -0.19233642 -0.12385585 0.32348234
v -0.29812145 -0.04371383 0.32348234
v -0.31094389 0.00000000 0.32348234
v 0.31094389 0.00000000 0.32348234
v 0.29812145 -0.04371383 0.32348234
v 0.19233642 -0.12385585 0.32348234
v -0.19332005 -0.12385585 0.46555228
v -0.29964609 -0.04371383 0.46555228
v -0.31253409 0.00000000 0.46555228
v 0.31253409 0.00000000 0.46555228
v 0.29964609 -0.04371383 0.46555228
v 0.19332005 -0.12385585 0.46555228
v -0.19409866 -0.12385585 0.60762223
v -0.30085291 -0.04371383 0.60762223
v -0.31379282 0.00000000 0.60762223
v 0.31379282 0.00000000 0.60762223
v 0.30085291 -0.04371383 0.60762223
v 0.19409866 -0.12385585 0.60762223
v -0.19466918 -0.12385585 0.74969218
v -0.30173723 -0.04371383 0.74969218
v -0.31471518 0.00000000 0.74969218
v 0.31471518 0.00000000 0.74969218
v 0.30173723 -0.04371383 0.74969218
v 0.19466918 -0.12385585 0.74969218
v -0.19502944 -0.12385585 0.89176212
v -0.30229561 -0.04371383 0.89176212
v -0.31529758 0.00000000 0.89176212
v 0.31529758 0.00000000 0.89176212
v 0.30229561 -0.04371383 0.89176212
v 0.19502944 -0.12385585 0.89176212
v -0.19517801 -0.12385585 1.03383207
v -0.30252590 -0.04371383 1.03383207
v -0.31553777 0.00000000 1.03383207
v 0.31553777 0.00000000 1.03383207
v 0.30252590 -0.04371383 1.03383207
v 0.19517801 -0.12385585 1.03383207
v -0.19518225 -0.12385585 1.17590201
v -0.30253249 -0.04371383 1.17590201
v -0.31554464 0.00000000 1.17590201
v 0.31554464 0.00000000 1.17590201
v 0.30253249 -0.04371383 1.17590201
v 0.19518225 -0.12385585 1.17590201
v -0.19518225 -0.12385585 1.31797196
v -0.30253249 -0.04371383 1.31797196
v -0.31554464 0.00000000 1.31797196
v 0.31554464 0.00000000 1.31797196
v 0.30253249 -0.04371383 1.31797196
v 0.19518225 -0.12385585 1.31797196
v -0.19136535 -0.12385585 1.46004191
v -0.29661628 -0.04371383 1.46004191
v -0.30937398 0.00000000 1.46004191
v 0.30937398 0.00000000 1.46004191
v 0.29661628 -0.04371383 1.46004191
v 0.19136535 -0.12385585 1.46004191
v -0.17952530 -0.12385585 1.60211185
v -0.27826421 -0.04371383 1.60211185
v -0.29023256 0.00000000 1.60211185
v 0.29023256 0.00000000 1.60211185
v 0.27826421 -0.04371383 1.60211185
v 0.17952530 -0.12385585 1.60211185
v -0.16320455 -0.12385585 1.74418180
v -0.25296704 -0.04371383 1.74418180
v -0.26384733 0.00000000 1.74418180
v 0.26384733 0.00000000 1.74418180
v 0.25296704 -0.04371383 1.74418180
v 0.16320455 -0.12385585 1.74418180
v -0.14341042 -0.12385585 1.88625174
v -0.22228615 -0.04371383 1.88625174
v -0.23184684 0.00000000 1.88625174
v 0.23184684 0.00000000 1.88625174
v 0.22228615 -0.04371383 1.88625174
v 0.14341042 -0.12385585 1.88625174
v -0.12067159 -0.12385585 2.02832169
v -0.18704096 -0.04371383 2.02832169
v -0.19508573 0.00000000 2.02832169
v 0.19508573 0.00000000 2.02832169
v 0.18704096 -0.04371383 2.02832169
v 0.12067159 -0.12385585 2.02832169
v -0.09532949 -0.12385585 2.17039163
v -0.14776070 -0.04371383 2.17039163
v -0.15411601 0.00000000 2.17039163
v 0.15411601 0.00000000 2.17039163
v 0.14776070 -0.04371383 2.17039163
v 0.09532949 -0.12385585 2.17039163
v -0.06762840 -0.12385585 2.31246158
v -0.10482403 -0.04371383 2.31246158
v -0.10933259 0.00000000 2.31246158
v 0.10933259 0.00000000 2.31246158
v 0.10482403 -0.04371383 2.31246158
v 0.06762840 -0.12385585 2.31246158
v -0.03775443 -0.12385585 2.45453153
v -0.05851937 -0.04371383 2.45453153
v -0.06103632 0.00000000 2.45453153
v 0.06103632 0.00000000 2.45453153
v 0.05851937 -0.04371383 2.45453153
v 0.03775443 -0.12385585 2.45453153
v -0.00585547 -0.12385585 2.59660147
v -0.00907598 -0.04371383 2.59660147
v -0.00946635 0.00000000 2.59660147
v 0.00946635 0.00000000 2.59660147
v 0.00907598 -0.04371383 2.59660147
v 0.00585547 -0.12385585 2.59660147
f 229 230 224
f 229 224 223
f 230 231 225
f 230 225 224
f 231 232 226
f 231 226 225
f 232 233 227
f 232 227 226
f 233 234 228
f 233 228 227
f 234 229 223
f 234 223 228
f 235 236 230
f 235 230 229
f 236 237 231
f 236 231 230
f 237 238 232
f 237 232 231
f 238 239 233
f 238 233 232
f 239 240 234
f 239 234 233
f 240 235 229
f 240 229 234
f 241 242 236
f 241 236 235
f 242 243 237
f 242 237 236
f 243 244 238
f 243 238 237
f 244 245 239
f 244 239 238
f 245 246 240
f 245 240 239
f 246 241 235
f 246 235 240
f 247 248 242
f 247 242 241
f 248 249 243
f 248 243 242
f 249 250 244
f 249 244 243
f 250 251 245
f 250 245 244
f 251 252 246
f 251 246 245
f 252 247 241
f 252 241 246
f 253 254 248
f 253 248 247
f 254 255 249
f 254 249 248
f 255 256 250
f 255 250 249
f 256 257 251
f 256 251 250
f 257 258 252
f 257 252 251
f 258 253 247
f 258 247 252
f 259 260 254
f 259 254 253
f 260 261 255
f 260 255 254
f 261 262 256
f 261 256 255
f 262 263 257
f 262 257 256
f 263 264 258
f 263 258 257
f 264 259 253
f 264 253 258
f 265 266 260
f 265 260 259
f 266 267 261
f 266 261 260
f 267 268 262
f 267 262 261
f 268 269 263
f 268 263 262
f 269 270 264
f 269 264 263
f 270 265 259
f 270 259 264
f 271 272 266
f 271 266 265
f 272 273 267
f 272 267 266
f 273 274 268
f 273 268 267
f 274 275 269
f 274 269 268
f 275 276 270
f 275 270 269
f 276 271 265
f 276 265 270
f 277 278 272
f 277 272 271
f 278 279 273
f 278 273 272
f 279 280 274
f 279 274 273
f 280 281 275
f 280 275 274
f 281 282 276
f 281 276 275
f 282 277 271
f 282 271 276
f 283 284 278
f 283 278 277
f 284 285 279
f 284 279 278
f 285 286 280
f 285 280 279
f 286 287 281
f 286 281 280
f 287 288 282
f 287 282 281
f 288 283 277
f 288 277 282
f 289 290 284
f 289 284 283
f 290 291 285
f 290 285 284
f 291 292 286
f 291 286 285
f 292 293 287
f 292 287 286
f 293 294 288
f 293 288 287
f 294 289 283
f 294 283 288
f 295 296 290
f 295 290 289
f 296 297 291
f 296 291 290
f 297 298 292
f 297 292 291
f 298 299 293
f 298 293 292
f 299 300 294
f 299 294 293
f 300 295 289
f 300 289 294
f 301 302 296
f 301 296 295
f 302 303 297
f 302 297 296
f 303 304 298
f 303 298 297
f 304 305 299
f 304 299 298
f 305 306 300
f 305 300 299
f 306 301 295
f 306 295 300
f 307 308 302
f 307 302 301
f 308 309 303
f 308 303 302
f 309 310 304
f 309 304 303
f 310 311 305
f 310 305 304
f 311 312 306
f 311 306 305
f 312 307 301
f 312 301 306
f 313 314 308
f 313 308 307
f 314 315 309
f 314 309 308
f 315 316 310
f 315 310 309
f 316 317 311
f 316 311 310
f 317 318 312
f 317 312 311
f 318 313 307
f 318 307 312
f 319 320 314
f 319 314 313
f 320 321 315
f 320 315 314
f 321 322 316
f 321 316 315
f 322 323 317
f 322 317 316
f 323 324 318
f 323 318 317
f 324 319 313
f 324 313 318
f 325 326 320
f 325 320 319
f 326 327 321
f 326 321 320
f 327 328 322
f 327 322 321
f 328 329 323
f 328 323 322
f 329 330 324
f 329 324 323
f 330 325 319
f 330 319 324
f 331 332 326
f 331 326 325
f 332 333 327
f 332 327 326
f 333 334 328
f 333 328 327
f 334 335 329
f 334 329 328
f 335 336 330
f 335 330 329
f 336 331 325
f 336 325 330
f 337 338 332
f 337 332 331
f 338 339 333
f 338 333 332
f 339 340 334
f 339 334 333
f 340 341 335
f 340 335 334
f 341 342 336
f 341 336 335
f 342 337 331
f 342 331 336
f 343 344 338
f 343 338 337
f 344 345 339
f 344 339 338
f 345 346 340
f 345 340 339
f 346 347 341
f 346 341 340
f 347 348 342
f 347 342 341
f 348 343 337
f 348 337 342
f 349 350 344
f 349 344 343
f 350 351 345
f 350 345 344
f 351 352 346
f 351 346 345
f 352 353 347
f 352 347 346
f 353 354 348
f 353 348 347
f 354 349 343
f 354 343 348
f 355 356 350
f 355 350 349
f 356 357 351
f 356 351 350
f 357 358 352
f 357 352 351
f 358 359 353
f 358 353 352
f 359 360 354
f 359 354 353
f 360 355 349
f 360 349 354
f 361 362 356
f 361 356 355
f 362 363 357
f 362 357 356
f 363 364 358
f 363 358 357
f 364 365 359
f 364 359 358
f 365 366 360
f 365 360 359
f 366 361 355
f 366 355 360
f 367 368 362
f 367 362 361
f 368 369 363
f 368 363 362
f 369 370 364
f 369 364 363
f 370 371 365
f 370 365 364
f 371 372 366
f 371 366 365
f 372 367 361
f 372 361 366
f 373 374 368
f 373 368 367
f 374 375 369
f 374 369 368
f 375 376 370
f 375 370 369
f 376 377 371
f 376 371 370
f 377 378 372
f 377 372 371
f 378 373 367
f 378 367 372
f 379 380 374
f 379 374 373
f 380 381 375
f 380 375 374
f 381 382 376
f 381 376 375
f 382 383 377
f 382 377 376
f 383 384 378
f 383 378 377
f 384 379 373
f 384 373 378
f 385 386 380
f 385 380 379
f 386 387 381
f 386 381 380
f 387 388 382
f 387 382 381
f 388 389 383
f 388 383 382
f 389 390 384
f 389 384 383
f 390 385 379
f 390 379 384
f 391 392 386
f 391 386 385
f 392 393 387
f 392 387 386
f 393 394 388
f 393 388 387
f 394 395 389
f 394 389 388
f 395 396 390
f 395 390 389
f 396 391 385
f 396 385 390
f 397 398 392
f 397 392 391
f 398 399 393
f 398 393 392
f 399 400 394
f 399 394 393
f 400 401 395
f 400 395 394
f 401 402 396
f 401 396 395
f 402 397 391
f 402 391 396
f 403 404 398
f 403 398 397
f 404 405 399
f 404 399 398
f 405 406 400
f 405 400 399
f 406 407 401
f 406 401 400
f 407 408 402
f 407 402 401
f 408 403 397
f 408 397 402
f 409 410 404
f 409 404 403
f 410 411 405
f 410 405 404
f 411 412 406
f 411 406 405
f 412 413 407
f 412 407 406
f 413 414 408
f 413 408 407
f 414 409 403
f 414 403 408
f 415 416 410
f 415 410 409
f 416 417 411
f 416 411 410
f 417 418 412
f 417 412 411
f 418 419 413
f 418 413 412
f 419 420 414
f 419 414 413
f 420 415 409
f 420 409 414
f 421 422 416
f 421 416 415
f 422 423 417
f 422 417 416
f 423 424 418
f 423 418 417
f 424 425 419
f 424 419 418
f 425 426 420
f 425 420 419
f 426 421 415
f 426 415 420
f 427 428 422
f 427 422 421
f 428 429 423
f 428 423 422
f 429 430 424
f 429 424 423
f 430 431 425
f 430 425 424
f 431 432 426
f 431 426 425
f 432 427 421
f 432 421 426
f 433 434 428
f 433 428 427
f 434 435 429
f 434 429 428
f 435 436 430
f 435 430 429
f 436 437 431
f 436 431 430
f 437 438 432
f 437 432 431
f 438 433 427
f 438 427 432
f 439 440 434
f 439 434 433
f 440 441 435
f 440 435 434
f 441 442 436
f 441 436 435
f 442 443 437
f 442 437 436
f 443 444 438
f 443 438 437
f 444 439 433
f 444 433 438
f 223 224 225
f 223 225 226
f 223 226 227
f 223 227 228
f 444 443 442
f 444 442 441
f 444 441 440
f 444 440 439
o FlightDeck
usemtl deck
v -0.49833766 0.27685425 -2.62282977
v 0.48449494 0.27685425 -2.62282977
v 0.67829292 0.27685425 -1.99335062
v 0.67829292 0.27685425 1.57369786
v 0.52602308 0.27685425 2.62282977
v -0.47065223 0.27685425 2.62282977
v -0.66445021 0.27685425 1.62615446
v -0.76134920 0.27685425 -0.62947914
v -0.74750648 0.27685425 -1.67861105
v -0.49833766 0.29142553 -2.62282977
v 0.48449494 0.29142553 -2.62282977
v 0.67829292 0.29142553 -1.99335062
v 0.67829292 0.29142553 1.57369786
v 0.52602308 0.29142553 2.62282977
v -0.47065223 0.29142553 2.62282977
v -0.66445021 0.29142553 1.62615446
v -0.76134920 0.29142553 -0.62947914
v -0.74750648 0.29142553 -1.67861105
f 453 445 446
f 453 446 447
f 453 447 448
f 453 448 449
f 453 449 450
f 453 450 451
f 451 452 453
f 455 454 462
f 456 455 462
f 457 456 462
f 458 457 462
f 459 458 462
f 460 459 462
f 462 461 460
f 445 454 455
f 445 455 446
f 446 455 456
f 446 456 447
f 447 456 457
f 447 457 448
f 448 457 458
f 448 458 449
f 449 458 459
f 449 459 450
f 450 459 460
f 450 460 451
f 451 460 461
f 451 461 452
f 452 461 462
f 452 462 453
f 453 462 454
f 453 454 445
o Island
usemtl island
v 0.41528138 0.29142553 -0.99667531
v 0.59523664 0.29142553 -0.99667531
v 0.56755122 0.29142553 0.15736979
v 0.44296681 0.29142553 0.15736979
v 0.41528138 0.46628085 -0.99667531
v 0.59523664 0.46628085 -0.99667531
v 0.56755122 0.46628085 0.15736979
v 0.44296681 0.46628085 0.15736979
f 466 463 464
f 464 465 466
f 468 467 470
f 470 469 468
f 463 467 468
f 463 468 464
f 464 468 469
f 464 469 465
f 465 469 470
f 465 470 466
f 466 470 467
f 466 467 463
o Bridge
usemtl island
v 0.40836002 0.47356649 -0.34096787
v 0.60215800 0.47356649 -0.34096787
v 0.60215800 0.51728032 -0.34096787
v 0.40836002 0.51728032 -0.34096787
v 0.40836002 0.47356649 0.13114149
v 0.60215800 0.47356649 0.13114149
v 0.60215800 0.51728032 0.13114149
v 0.40836002 0.51728032 0.13114149
f 471 474 473
f 471 473 472
f 475 476 477
f 475 477 478
f 471 472 476
f 471 476 475
f 474 478 477
f 474 477 473
f 471 475 478
f 471 478 474
f 472 473 477
f 472 477 476
o BridgeGlass
usemtl glass
v 0.40566434 0.48376638 -0.32785372
v 0.40828717 0.48376638 -0.32785372
v 0.40828717 0.50708042 -0.32785372
v 0.40566434 0.50708042 -0.32785372
v 0.40566434 0.48376638 0.11802734
v 0.40828717 0.48376638 0.11802734
v 0.40828717 0.50708042 0.11802734
v 0.40566434 0.50708042 0.11802734
f 479 482 481
f 479 481 480
f 483 484 485
f 483 485 486
f 479 480 484
f 479 484 483
f 482 486 485
f 482 485 481
f 479 483 486
f 479 486 482
f 480 481 485
f 480 485 484
o IntegratedMast
usemtl island
v 0.44697391 0.46628085 -0.47793787
v 0.56354412 0.46628085 -0.47793787
v 0.54897284 0.46628085 -0.37593893
v 0.46154518 0.46628085 -0.37593893
v 0.44697391 0.68485000 -0.47793787
v 0.56354412 0.68485000 -0.47793787
v 0.54897284 0.68485000 -0.37593893
v 0.46154518 0.68485000 -0.37593893
f 490 487 488
f 488 489 490
f 492 491 494
f 494 493 492
f 487 491 492
f 487 492 488
f 488 492 493
f 488 493 489
f 489 493 494
f 489 494 490
f 490 494 491
f 490 491 487
o Elevator_1
usemtl hull
v 0.42256702 0.29142553 1.06078893
v 0.68485000 0.29142553 1.06078893
v 0.68485000 0.29375693 1.06078893
v 0.42256702 0.29375693 1.06078893
v 0.42256702 0.29142553 1.35221446
v 0.68485000 0.29142553 1.35221446
v 0.68485000 0.29375693 1.35221446
v 0.42256702 0.29375693 1.35221446
f 495 498 497
f 495 497 496
f 499 500 501
f 499 501 502
f 495 496 500
f 495 500 499
f 498 502 501
f 498 501 497
f 495 499 502
f 495 502 498
f 496 497 501
f 496 501 500
o Elevator_2
usemtl hull
v 0.42256702 0.29142553 -1.08993148
v 0.68485000 0.29142553 -1.08993148
v 0.68485000 0.29375693 -1.08993148
v 0.42256702 0.29375693 -1.08993148
v 0.42256702 0.29142553 -0.79850595
v 0.68485000 0.29142553 -0.79850595
v 0.68485000 0.29375693 -0.79850595
v 0.42256702 0.29375693 -0.79850595
f 503 506 505
f 503 505 504
f 507 508 509
f 507 509 510
f 503 504 508
f 503 508 507
f 506 510 509
f 506 509 505
f 503 507 510
f 503 510 506
f 504 505 509
f 504 509 508
o Elevator_3
usemtl hull
v 0.42256702 0.29142553 -1.92923701
v 0.68485000 0.29142553 -1.92923701
v 0.68485000 0.29375693 -1.92923701
v 0.42256702 0.29375693 -1.92923701
v 0.42256702 0.29142553 -1.63781148
v 0.68485000 0.29142553 -1.63781148
v 0.68485000 0.29375693 -1.63781148
v 0.42256702 0.29375693 -1.63781148
f 511 514 513
f 511 513 512
f 515 516 517
f 515 517 518
f 511 512 516
f 511 516 515
f 514 518 517
f 514 517 513
f 511 515 518
f 511 518 514
f 512 513 517
f 512 517 516
o Elevator_4
usemtl hull
v -0.71253542 0.29142553 -1.29975786
v -0.45025244 0.29142553 -1.29975786
v -0.45025244 0.29375693 -1.29975786
v -0.71253542 0.29375693 -1.29975786
v -0.71253542 0.29142553 -1.00833233
v -0.45025244 0.29142553 -1.00833233
v -0.45025244 0.29375693 -1.00833233
v -0.71253542 0.29375693 -1.00833233
f 519 522 521
f 519 521 520
f 523 524 525
f 523 525 526
f 519 520 524
f 519 524 523
f 522 526 525
f 522 525 521
f 519 523 526
f 519 526 522
f 520 521 525
f 520 525 524
o Catapult_1
usemtl gold
v 0.18869826 0.29302837 1.25900755
v 0.20035528 0.29302837 2.46550925
v 0.21055471 0.29302837 2.46541072
v 0.19889769 0.29302837 1.25890902
v 0.18869826 0.29361122 1.25900755
v 0.20035528 0.29361122 2.46550925
v 0.21055471 0.29361122 2.46541072
v 0.19889769 0.29361122 1.25890902
f 527 530 529
f 529 528 527
f 533 534 531
f 531 532 533
f 528 532 531
f 528 531 527
f 529 533 532
f 529 532 528
f 530 534 533
f 530 533 529
f 527 531 534
f 527 534 530
o Catapult_2
usemtl gold
v -0.21274040 0.29302837 1.25900755
v -0.20108338 0.29302837 2.46550925
v -0.19088396 0.29302837 2.46541072
v -0.20254098 0.29302837 1.25890902
v -0.21274040 0.29361122 1.25900755
v -0.20108338 0.29361122 2.46550925
v -0.19088396 0.29361122 2.46541072
v -0.20254098 0.29361122 1.25890902
f 535 538 537
f 537 536 535
f 541 542 539
f 539 540 541
f 536 540 539
f 536 539 535
f 537 541 540
f 537 540 536
f 538 542 541
f 538 541 537
f 535 539 542
f 535 542 538
o Catapult_3
usemtl gold
v -0.42038109 0.29302837 -0.52451669
v -0.40872407 0.29302837 0.68198501
v -0.39852465 0.29302837 0.68188647
v -0.41018167 0.29302837 -0.52461522
v -0.42038109 0.29361122 -0.52451669
v -0.40872407 0.29361122 0.68198501
v -0.39852465 0.29361122 0.68188647
v -0.41018167 0.29361122 -0.52461522
f 543 546 545
f 545 544 543
f 549 550 547
f 547 548 549
f 544 548 547
f 544 547 543
f 545 549 548
f 545 548 544
f 546 550 549
f 546 549 545
f 543 547 550
f 543 550 546
o Catapult_4
usemtl gold
v -0.54496551 0.29302837 -0.52451669
v -0.53330849 0.29302837 0.68198501
v -0.52310906 0.29302837 0.68188647
v -0.53476608 0.29302837 -0.52461522
v -0.54496551 0.29361122 -0.52451669
v -0.53330849 0.29361122 0.68198501
v -0.52310906 0.29361122 0.68188647
v -0.53476608 0.29361122 -0.52461522
f 551 554 553
f 553 552 551
f 557 558 555
f 555 556 557
f 552 556 555
f 552 555 551
f 553 557 556
f 553 556 552
f 554 558 557
f 554 557 553
f 551 555 558
f 551 558 554
o LandingEdge_-1
usemtl white
v -0.01053747 0.29317408 -2.30840100
v -0.59193140 0.29317408 1.04882110
v -0.58834200 0.29317408 1.04944271
v -0.00694807 0.29317408 -2.30777939
v -0.01053747 0.29375693 -2.30840100
v -0.59193140 0.29375693 1.04882110
v -0.58834200 0.29375693 1.04944271
v -0.00694807 0.29375693 -2.30777939
f 559 562 561
f 561 560 559
f 565 566 563
f 563 564 565
f 560 564 563
f 560 563 559
f 561 565 564
f 561 564 560
f 562 566 565
f 562 565 561
f 559 563 566
f 559 566 562
o LandingEdge_1
usemtl white
v 0.33917317 0.29317408 -2.30840100
v -0.24222076 0.29317408 1.04882110
v -0.23863136 0.29317408 1.04944271
v 0.34276257 0.29317408 -2.30777939
v 0.33917317 0.29375693 -2.30840100
v -0.24222076 0.29375693 1.04882110
v -0.23863136 0.29375693 1.04944271
v 0.34276257 0.29375693 -2.30777939
f 567 570 569
f 569 568 567
f 573 574 571
f 571 572 573
f 568 572 571
f 568 571 567
f 569 573 572
f 569 572 568
f 570 574 573
f 570 573 569
f 567 571 574
f 567 574 570
o Centreline_0
usemtl white
v 0.16359998 0.29331980 -2.30852532
v 0.14491232 0.29331980 -2.20061460
v 0.14993746 0.29331980 -2.19974436
v 0.16862512 0.29331980 -2.30765507
v 0.16359998 0.29390265 -2.30852532
v 0.14491232 0.29390265 -2.20061460
v 0.14993746 0.29390265 -2.19974436
v 0.16862512 0.29390265 -2.30765507
f 575 578 577
f 577 576 575
f 581 582 579
f 579 580 581
f 576 580 579
f 576 579 575
f 577 581 580
f 577 580 576
f 578 582 581
f 578 581 577
f 575 579 582
f 575 582 578
o Centreline_1
usemtl white
v 0.12207185 0.29331980 -2.06872374
v 0.10338418 0.29331980 -1.96081302
v 0.10840932 0.29331980 -1.95994278
v 0.12709698 0.29331980 -2.06785350
v 0.12207185 0.29390265 -2.06872374
v 0.10338418 0.29390265 -1.96081302
v 0.10840932 0.29390265 -1.95994278
v 0.12709698 0.29390265 -2.06785350
f 583 586 585
f 585 584 583
f 589 590 587
f 587 588 589
f 584 588 587
f 584 587 583
f 585 589 588
f 585 588 584
f 586 590 589
f 586 589 585
f 583 587 590
f 583 590 586
o Centreline_2
usemtl white
v 0.08054371 0.29331980 -1.82892216
v 0.06185605 0.29331980 -1.72101146
v 0.06688118 0.29331980 -1.72014120
v 0.08556884 0.29331980 -1.82805192
v 0.08054371 0.29390265 -1.82892216
v 0.06185605 0.29390265 -1.72101146
v 0.06688118 0.29390265 -1.72014120
v 0.08556884 0.29390265 -1.82805192
f 591 594 593
f 593 592 591
f 597 598 595
f 595 596 597
f 592 596 595
f 592 595 591
f 593 597 596
f 593 596 592
f 594 598 597
f 594 597 593
f 591 595 598
f 591 598 594
o Centreline_3
usemtl white
v 0.03901557 0.29331980 -1.58912058
v 0.02032791 0.29331980 -1.48120988
v 0.02535304 0.29331980 -1.48033963
v 0.04404071 0.29331980 -1.58825034
v 0.03901557 0.29390265 -1.58912058
v 0.02032791 0.29390265 -1.48120988
v 0.02535304 0.29390265 -1.48033963
v 0.04404071 0.29390265 -1.58825034
f 599 602 601
f 601 600 599
f 605 606 603
f 603 604 605
f 600 604 603
f 600 603 599
f 601 605 604
f 601 604 600
f 602 606 605
f 602 605 601
f 599 603 606
f 599 606 602
o Centreline_4
usemtl white
v -0.00251257 0.29331980 -1.34931900
v -0.02120023 0.29331980 -1.24140829
v -0.01617509 0.29331980 -1.24053805
v 0.00251257 0.29331980 -1.34844876
v -0.00251257 0.29390265 -1.34931900
v -0.02120023 0.29390265 -1.24140829
v -0.01617509 0.29390265 -1.24053805
v 0.00251257 0.29390265 -1.34844876
f 607 610 609
f 609 608 607
f 613 614 611
f 611 612 613
f 608 612 611
f 608 611 607
f 609 613 612
f 609 612 608
f 610 614 613
f 610 613 609
f 607 611 614
f 607 614 610
o Centreline_5
usemtl white
v -0.04404071 0.29331980 -1.10951742
v -0.06272837 0.29331980 -1.00160671
v -0.05770323 0.29331980 -1.00073647
v -0.03901557 0.29331980 -1.10864718
v -0.04404071 0.29390265 -1.10951742
v -0.06272837 0.29390265 -1.00160671
v -0.05770323 0.29390265 -1.00073647
v -0.03901557 0.29390265 -1.10864718
f 615 618 617
f 617 616 615
f 621 622 619
f 619 620 621
f 616 620 619
f 616 619 615
f 617 621 620
f 617 620 616
f 618 622 621
f 618 621 617
f 615 619 622
f 615 622 618
o Centreline_6
usemtl white
v -0.08556884 0.29331980 -0.86971584
v -0.10425651 0.29331980 -0.76180513
v -0.09923137 0.29331980 -0.76093489
v -0.08054371 0.29331980 -0.86884560
v -0.08556884 0.29390265 -0.86971584
v -0.10425651 0.29390265 -0.76180513
v -0.09923137 0.29390265 -0.76093489
v -0.08054371 0.29390265 -0.86884560
f 623 626 625
f 625 624 623
f 629 630 627
f 627 628 629
f 624 628 627
f 624 627 623
f 625 629 628
f 625 628 624
f 626 630 629
f 626 629 625
f 623 627 630
f 623 630 626
o Centreline_7
usemtl white
v -0.12709698 0.29331980 -0.62991427
v -0.14578465 0.29331980 -0.52200355
v -0.14075951 0.29331980 -0.52113331
v -0.12207185 0.29331980 -0.62904402
v -0.12709698 0.29390265 -0.62991427
v -0.14578465 0.29390265 -0.52200355
v -0.14075951 0.29390265 -0.52113331
v -0.12207185 0.29390265 -0.62904402
f 631 634 633
f 633 632 631
f 637 638 635
f 635 636 637
f 632 636 635
f 632 635 631
f 633 637 636
f 633 636 632
f 634 638 637
f 634 637 633
f 631 635 638
f 631 638 634
o Centreline_8
usemtl white
v -0.16862512 0.29331980 -0.39011269
v -0.18731278 0.29331980 -0.28220197
v -0.18228765 0.29331980 -0.28133173
v -0.16359998 0.29331980 -0.38924245
v -0.16862512 0.29390265 -0.39011269
v -0.18731278 0.29390265 -0.28220197
v -0.18228765 0.29390265 -0.28133173
v -0.16359998 0.29390265 -0.38924245
f 639 642 641
f 641 640 639
f 645 646 643
f 643 644 645
f 640 644 643
f 640 643 639
f 641 645 644
f 641 644 640
f 642 646 645
f 642 645 641
f 639 643 646
f 639 646 642
o Centreline_9
usemtl white
v -0.21015326 0.29331980 -0.15031111
v -0.22884092 0.29331980 -0.04240040
v -0.22381578 0.29331980 -0.04153015
v -0.20512812 0.29331980 -0.14944087
v -0.21015326 0.29390265 -0.15031111
v -0.22884092 0.29390265 -0.04240040
v -0.22381578 0.29390265 -0.04153015
v -0.20512812 0.29390265 -0.14944087
f 647 650 649
f 649 648 647
f 653 654 651
f 651 652 653
f 648 652 651
f 648 651 647
f 649 653 652
f 649 652 648
f 650 654 653
f 650 653 649
f 647 651 654
f 647 654 650
o Centreline_10
usemtl white
v -0.25168140 0.29331980 0.08949047
v -0.27036906 0.29331980 0.19740118
v -0.26534392 0.29331980 0.19827142
v -0.24665626 0.29331980 0.09036071
v -0.25168140 0.29390265 0.08949047
v -0.27036906 0.29390265 0.19740118
v -0.26534392 0.29390265 0.19827142
v -0.24665626 0.29390265 0.09036071
f 655 658 657
f 657 656 655
f 661 662 659
f 659 660 661
f 656 660 659
f 656 659 655
f 657 661 660
f 657 660 656
f 658 662 661
f 658 661 657
f 655 659 662
f 655 662 658
o Centreline_11
usemtl white
v -0.29320954 0.29331980 0.32929205
v -0.31189720 0.29331980 0.43720276
v -0.30687206 0.29331980 0.43807300
v -0.28818440 0.29331980 0.33016229
v -0.29320954 0.29390265 0.32929205
v -0.31189720 0.29390265 0.43720276
v -0.30687206 0.29390265 0.43807300
v -0.28818440 0.29390265 0.33016229
f 663 666 665
f 665 664 663
f 669 670 667
f 667 668 669
f 664 668 667
f 664 667 663
f 665 669 668
f 665 668 664
f 666 670 669
f 666 669 665
f 663 667 670
f 663 670 666
o Centreline_12
usemtl white
v -0.33473767 0.29331980 0.56909363
v -0.35342534 0.29331980 0.67700434
v -0.34840020 0.29331980 0.67787458
v -0.32971254 0.29331980 0.56996387
v -0.33473767 0.29390265 0.56909363
v -0.35342534 0.29390265 0.67700434
v -0.34840020 0.29390265 0.67787458
v -0.32971254 0.29390265 0.56996387
f 671 674 673
f 673 672 671
f 677 678 675
f 675 676 677
f 672 676 675
f 672 675 671
f 673 677 676
f 673 676 672
f 674 678 677
f 674 677 673
f 671 675 678
f 671 678 674
o Centreline_13
usemtl white
v -0.37626581 0.29331980 0.80889521
v -0.39495347 0.29331980 0.91680592
v -0.38992834 0.29331980 0.91767616
v -0.37124067 0.29331980 0.80976545
v -0.37626581 0.29390265 0.80889521
v -0.39495347 0.29390265 0.91680592
v -0.38992834 0.29390265 0.91767616
v -0.37124067 0.29390265 0.80976545
f 679 682 681
f 681 680 679
f 685 686 683
f 683 684 685
f 680 684 683
f 680 683 679
f 681 685 684
f 681 684 680
f 682 686 685
f 682 685 681
f 679 683 686
f 679 686 682
o Sponson_1
usemtl hull
v -0.71544968 0.26374010 1.39592829
v -0.61345074 0.26374010 1.39592829
v -0.61345074 0.28413989 1.39592829
v -0.71544968 0.28413989 1.39592829
v -0.71544968 0.26374010 1.54164105
v -0.61345074 0.26374010 1.54164105
v -0.61345074 0.28413989 1.54164105
v -0.71544968 0.28413989 1.54164105
f 687 690 689
f 687 689 688
f 691 692 693
f 691 693 694
f 687 688 692
f 687 692 691
f 690 694 693
f 690 693 689
f 687 691 694
f 687 694 690
f 688 689 693
f 688 693 692
o AA_Base_1
usemtl island
v -0.63822191 0.28413989 1.46878467
v -0.64021842 0.28413989 1.47882180
v -0.64590400 0.28413989 1.48733088
v -0.65441308 0.28413989 1.49301646
v -0.66445021 0.28413989 1.49501297
v -0.67448734 0.28413989 1.49301646
v -0.68299641 0.28413989 1.48733088
v -0.68868199 0.28413989 1.47882180
v -0.69067851 0.28413989 1.46878467
v -0.68868199 0.28413989 1.45874754
v -0.68299641 0.28413989 1.45023847
v -0.67448734 0.28413989 1.44455289
v -0.66445021 0.28413989 1.44255637
v -0.65441308 0.28413989 1.44455289
v -0.64590400 0.28413989 1.45023847
v -0.64021842 0.28413989 1.45874754
v -0.63822191 0.31328244 1.46878467
v -0.64021842 0.31328244 1.47882180
v -0.64590400 0.31328244 1.48733088
v -0.65441308 0.31328244 1.49301646
v -0.66445021 0.31328244 1.49501297
v -0.67448734 0.31328244 1.49301646
v -0.68299641 0.31328244 1.48733088
v -0.68868199 0.31328244 1.47882180
v -0.69067851 0.31328244 1.46878467
v -0.68868199 0.31328244 1.45874754
v -0.68299641 0.31328244 1.45023847
v -0.67448734 0.31328244 1.44455289
v -0.66445021 0.31328244 1.44255637
v -0.65441308 0.31328244 1.44455289
v -0.64590400 0.31328244 1.45023847
v -0.64021842 0.31328244 1.45874754
f 710 695 696
f 710 696 697
f 710 697 698
f 710 698 699
f 710 699 700
f 710 700 701
f 710 701 702
f 710 702 703
f 710 703 704
f 710 704 705
f 710 705 706
f 710 706 707
f 710 707 708
f 708 709 710
f 712 711 726
f 713 712 726
f 714 713 726
f 715 714 726
f 716 715 726
f 717 716 726
f 718 717 726
f 719 718 726
f 720 719 726
f 721 720 726
f 722 721 726
f 723 722 726
f 724 723 726
f 726 725 724
f 695 711 712
f 695 712 696
f 696 712 713
f 696 713 697
f 697 713 714
f 697 714 698
f 698 714 715
f 698 715 699
f 699 715 716
f 699 716 700
f 700 716 717
f 700 717 701
f 701 717 718
f 701 718 702
f 702 718 719
f 702 719 703
f 703 719 720
f 703 720 704
f 704 720 721
f 704 721 705
f 705 721 722
f 705 722 706
f 706 722 723
f 706 723 707
f 707 723 724
f 707 724 708
f 708 724 725
f 708 725 709
f 709 725 726
f 709 726 710
f 710 726 711
f 710 711 695
o CIWS_Radome_1
usemtl white
v -0.65279319 0.31328244 1.46878467
v -0.65368052 0.31328244 1.47324562
v -0.65620746 0.31328244 1.47702742
v -0.65998926 0.31328244 1.47955436
v -0.66445021 0.31328244 1.48044169
v -0.66891116 0.31328244 1.47955436
v -0.67269296 0.31328244 1.47702742
v -0.67521990 0.31328244 1.47324562
v -0.67610723 0.31328244 1.46878467
v -0.67521990 0.31328244 1.46432372
v -0.67269296 0.31328244 1.46054192
v -0.66891116 0.31328244 1.45801498
v -0.66445021 0.31328244 1.45712765
v -0.65998926 0.31328244 1.45801498
v -0.65620746 0.31328244 1.46054192
v -0.65368052 0.31328244 1.46432372
v -0.65279319 0.34096787 1.46878467
v -0.65368052 0.34096787 1.47324562
v -0.65620746 0.34096787 1.47702742
v -0.65998926 0.34096787 1.47955436
v -0.66445021 0.34096787 1.48044169
v -0.66891116 0.34096787 1.47955436
v -0.67269296 0.34096787 1.47702742
v -0.67521990 0.34096787 1.47324562
v -0.67610723 0.34096787 1.46878467
v -0.67521990 0.34096787 1.46432372
v -0.67269296 0.34096787 1.46054192
v -0.66891116 0.34096787 1.45801498
v -0.66445021 0.34096787 1.45712765
v -0.65998926 0.34096787 1.45801498
v -0.65620746 0.34096787 1.46054192
v -0.65368052 0.34096787 1.46432372
f 742 727 728
f 742 728 729
f 742 729 730
f 742 730 731
f 742 731 732
f 742 732 733
f 742 733 734
f 742 734 735
f 742 735 736
f 742 736 737
f 742 737 738
f 742 738 739
f 742 739 740
f 740 741 742
f 744 743 758
f 745 744 758
f 746 745 758
f 747 746 758
f 748 747 758
f 749 748 758
f 750 749 758
f 751 750 758
f 752 751 758
f 753 752 758
f 754 753 758
f 755 754 758
f 756 755 758
f 758 757 756
f 727 743 744
f 727 744 728
f 728 744 745
f 728 745 729
f 729 745 746
f 729 746 730
f 730 746 747
f 730 747 731
f 731 747 748
f 731 748 732
f 732 748 749
f 732 749 733
f 733 749 750
f 733 750 734
f 734 750 751
f 734 751 735
f 735 751 752
f 735 752 736
f 736 752 753
f 736 753 737
f 737 753 754
f 737 754 738
f 738 754 755
f 738 755 739
f 739 755 756
f 739 756 740
f 740 756 757
f 740 757 741
f 741 757 758
f 741 758 742
f 742 758 743
f 742 743 727
o Sponson_2
usemtl hull
v 0.58576532 0.26374010 1.39592829
v 0.68776425 0.26374010 1.39592829
v 0.68776425 0.28413989 1.39592829
v 0.58576532 0.28413989 1.39592829
v 0.58576532 0.26374010 1.54164105
v 0.68776425 0.26374010 1.54164105
v 0.68776425 0.28413989 1.54164105
v 0.58576532 0.28413989 1.54164105
f 759 762 761
f 759 761 760
f 763 764 765
f 763 765 766
f 759 760 764
f 759 764 763
f 762 766 765
f 762 765 761
f 759 763 766
f 759 766 762
f 760 761 765
f 760 765 764
o AA_Base_2
usemtl island
v 0.66299308 0.28413989 1.46878467
v 0.66099657 0.28413989 1.47882180
v 0.65531099 0.28413989 1.48733088
v 0.64680192 0.28413989 1.49301646
v 0.63676478 0.28413989 1.49501297
v 0.62672765 0.28413989 1.49301646
v 0.61821858 0.28413989 1.48733088
v 0.61253300 0.28413989 1.47882180
v 0.61053649 0.28413989 1.46878467
v 0.61253300 0.28413989 1.45874754
v 0.61821858 0.28413989 1.45023847
v 0.62672765 0.28413989 1.44455289
v 0.63676478 0.28413989 1.44255637
v 0.64680192 0.28413989 1.44455289
v 0.65531099 0.28413989 1.45023847
v 0.66099657 0.28413989 1.45874754
v 0.66299308 0.31328244 1.46878467
v 0.66099657 0.31328244 1.47882180
v 0.65531099 0.31328244 1.48733088
v 0.64680192 0.31328244 1.49301646
v 0.63676478 0.31328244 1.49501297
v 0.62672765 0.31328244 1.49301646
v 0.61821858 0.31328244 1.48733088
v 0.61253300 0.31328244 1.47882180
v 0.61053649 0.31328244 1.46878467
v 0.61253300 0.31328244 1.45874754
v 0.61821858 0.31328244 1.45023847
v 0.62672765 0.31328244 1.44455289
v 0.63676478 0.31328244 1.44255637
v 0.64680192 0.31328244 1.44455289
v 0.65531099 0.31328244 1.45023847
v 0.66099657 0.31328244 1.45874754
f 782 767 768
f 782 768 769
f 782 769 770
f 782 770 771
f 782 771 772
f 782 772 773
f 782 773 774
f 782 774 775
f 782 775 776
f 782 776 777
f 782 777 778
f 782 778 779
f 782 779 780
f 780 781 782
f 784 783 798
f 785 784 798
f 786 785 798
f 787 786 798
f 788 787 798
f 789 788 798
f 790 789 798
f 791 790 798
f 792 791 798
f 793 792 798
f 794 793 798
f 795 794 798
f 796 795 798
f 798 797 796
f 767 783 784
f 767 784 768
f 768 784 785
f 768 785 769
f 769 785 786
f 769 786 770
f 770 786 787
f 770 787 771
f 771 787 788
f 771 788 772
f 772 788 789
f 772 789 773
f 773 789 790
f 773 790 774
f 774 790 791
f 774 791 775
f 775 791 792
f 775 792 776
f 776 792 793
f 776 793 777
f 777 793 794
f 777 794 778
f 778 794 795
f 778 795 779
f 779 795 796
f 779 796 780
f 780 796 797
f 780 797 781
f 781 797 798
f 781 798 782
f 782 798 783
f 782 783 767
o CIWS_Radome_2
usemtl white
v 0.64842180 0.31328244 1.46878467
v 0.64753447 0.31328244 1.47324562
v 0.64500754 0.31328244 1.47702742
v 0.64122574 0.31328244 1.47955436
v 0.63676478 0.31328244 1.48044169
v 0.63230383 0.31328244 1.47955436
v 0.62852203 0.31328244 1.47702742
v 0.62599509 0.31328244 1.47324562
v 0.62510776 0.31328244 1.46878467
v 0.62599509 0.31328244 1.46432372
v 0.62852203 0.31328244 1.46054192
v 0.63230383 0.31328244 1.45801498
v 0.63676478 0.31328244 1.45712765
v 0.64122574 0.31328244 1.45801498
v 0.64500754 0.31328244 1.46054192
v 0.64753447 0.31328244 1.46432372
v 0.64842180 0.34096787 1.46878467
v 0.64753447 0.34096787 1.47324562
v 0.64500754 0.34096787 1.47702742
v 0.64122574 0.34096787 1.47955436
v 0.63676478 0.34096787 1.48044169
v 0.63230383 0.34096787 1.47955436
v 0.62852203 0.34096787 1.47702742
v 0.62599509 0.34096787 1.47324562
v 0.62510776 0.34096787 1.46878467
v 0.62599509 0.34096787 1.46432372
v 0.62852203 0.34096787 1.46054192
v 0.63230383 0.34096787 1.45801498
v 0.63676478 0.34096787 1.45712765
v 0.64122574 0.34096787 1.45801498
v 0.64500754 0.34096787 1.46054192
v 0.64753447 0.34096787 1.46432372
f 814 799 800
f 814 800 801
f 814 801 802
f 814 802 803
f 814 803 804
f 814 804 805
f 814 805 806
f 814 806 807
f 814 807 808
f 814 808 809
f 814 809 810
f 814 810 811
f 814 811 812
f 812 813 814
f 816 815 830
f 817 816 830
f 818 817 830
f 819 818 830
f 820 819 830
f 821 820 830
f 822 821 830
f 823 822 830
f 824 823 830
f 825 824 830
f 826 825 830
f 827 826 830
f 828 827 830
f 830 829 828
f 799 815 816
f 799 816 800
f 800 816 817
f 800 817 801
f 801 817 818
f 801 818 802
f 802 818 819
f 802 819 803
f 803 819 820
f 803 820 804
f 804 820 821
f 804 821 805
f 805 821 822
f 805 822 806
f 806 822 823
f 806 823 807
f 807 823 824
f 807 824 808
f 808 824 825
f 808 825 809
f 809 825 826
f 809 826 810
f 810 826 827
f 810 827 811
f 811 827 828
f 811 828 812
f 812 828 829
f 812 829 813
f 813 829 830
f 813 830 814
f 814 830 815
f 814 815 799
o Sponson_3
usemtl hull
v -0.66007883 0.26374010 -2.17112020
v -0.55807989 0.26374010 -2.17112020
v -0.55807989 0.28413989 -2.17112020
v -0.66007883 0.28413989 -2.17112020
v -0.66007883 0.26374010 -2.02540743
v -0.55807989 0.26374010 -2.02540743
v -0.55807989 0.28413989 -2.02540743
v -0.66007883 0.28413989 -2.02540743
f 831 834 833
f 831 833 832
f 835 836 837
f 835 837 838
f 831 832 836
f 831 836 835
f 834 838 837
f 834 837 833
f 831 835 838
f 831 838 834
f 832 833 837
f 832 837 836
o AA_Base_3
usemtl island
v -0.58285106 0.28413989 -2.09826382
v -0.58484757 0.28413989 -2.08822668
v -0.59053315 0.28413989 -2.07971761
v -0.59904223 0.28413989 -2.07403203
v -0.60907936 0.28413989 -2.07203552
v -0.61911649 0.28413989 -2.07403203
v -0.62762556 0.28413989 -2.07971761
v -0.63331114 0.28413989 -2.08822668
v -0.63530766 0.28413989 -2.09826382
v -0.63331114 0.28413989 -2.10830095
v -0.62762556 0.28413989 -2.11681002
v -0.61911649 0.28413989 -2.12249560
v -0.60907936 0.28413989 -2.12449211
v -0.59904223 0.28413989 -2.12249560
v -0.59053315 0.28413989 -2.11681002
v -0.58484757 0.28413989 -2.10830095
v -0.58285106 0.31328244 -2.09826382
v -0.58484757 0.31328244 -2.08822668
v -0.59053315 0.31328244 -2.07971761
v -0.59904223 0.31328244 -2.07403203
v -0.60907936 0.31328244 -2.07203552
v -0.61911649 0.31328244 -2.07403203
v -0.62762556 0.31328244 -2.07971761
v -0.63331114 0.31328244 -2.08822668
v -0.63530766 0.31328244 -2.09826382
v -0.63331114 0.31328244 -2.10830095
v -0.62762556 0.31328244 -2.11681002
v -0.61911649 0.31328244 -2.12249560
v -0.60907936 0.31328244 -2.12449211
v -0.59904223 0.31328244 -2.12249560
v -0.59053315 0.31328244 -2.11681002
v -0.58484757 0.31328244 -2.10830095
f 854 839 840
f 854 840 841
f 854 841 842
f 854 842 843
f 854 843 844
f 854 844 845
f 854 845 846
f 854 846 847
f 854 847 848
f 854 848 849
f 854 849 850
f 854 850 851
f 854 851 852
f 852 853 854
f 856 855 870
f 857 856 870
f 858 857 870
f 859 858 870
f 860 859 870
f 861 860 870
f 862 861 870
f 863 862 870
f 864 863 870
f 865 864 870
f 866 865 870
f 867 866 870
f 868 867 870
f 870 869 868
f 839 855 856
f 839 856 840
f 840 856 857
f 840 857 841
f 841 857 858
f 841 858 842
f 842 858 859
f 842 859 843
f 843 859 860
f 843 860 844
f 844 860 861
f 844 861 845
f 845 861 862
f 845 862 846
f 846 862 863
f 846 863 847
f 847 863 864
f 847 864 848
f 848 864 865
f 848 865 849
f 849 865 866
f 849 866 850
f 850 866 867
f 850 867 851
f 851 867 868
f 851 868 852
f 852 868 869
f 852 869 853
f 853 869 870
f 853 870 854
f 854 870 855
f 854 855 839
o CIWS_Radome_3
usemtl white
v -0.59742234 0.31328244 -2.09826382
v -0.59830967 0.31328244 -2.09380286
v -0.60083661 0.31328244 -2.09002106
v -0.60461841 0.31328244 -2.08749413
v -0.60907936 0.31328244 -2.08660679
v -0.61354031 0.31328244 -2.08749413
v -0.61732211 0.31328244 -2.09002106
v -0.61984905 0.31328244 -2.09380286
v -0.62073638 0.31328244 -2.09826382
v -0.61984905 0.31328244 -2.10272477
v -0.61732211 0.31328244 -2.10650657
v -0.61354031 0.31328244 -2.10903350
v -0.60907936 0.31328244 -2.10992084
v -0.60461841 0.31328244 -2.10903350
v -0.60083661 0.31328244 -2.10650657
v -0.59830967 0.31328244 -2.10272477
v -0.59742234 0.34096787 -2.09826382
v -0.59830967 0.34096787 -2.09380286
v -0.60083661 0.34096787 -2.09002106
v -0.60461841 0.34096787 -2.08749413
v -0.60907936 0.34096787 -2.08660679
v -0.61354031 0.34096787 -2.08749413
v -0.61732211 0.34096787 -2.09002106
v -0.61984905 0.34096787 -2.09380286
v -0.62073638 0.34096787 -2.09826382
v -0.61984905 0.34096787 -2.10272477
v -0.61732211 0.34096787 -2.10650657
v -0.61354031 0.34096787 -2.10903350
v -0.60907936 0.34096787 -2.10992084
v -0.60461841 0.34096787 -2.10903350
v -0.60083661 0.34096787 -2.10650657
v -0.59830967 0.34096787 -2.10272477
f 886 871 872
f 886 872 873
f 886 873 874
f 886 874 875
f 886 875 876
f 886 876 877
f 886 877 878
f 886 878 879
f 886 879 880
f 886 880 881
f 886 881 882
f 886 882 883
f 886 883 884
f 884 885 886
f 888 887 902
f 889 888 902
f 890 889 902
f 891 890 902
f 892 891 902
f 893 892 902
f 894 893 902
f 895 894 902
f 896 895 902
f 897 896 902
f 898 897 902
f 899 898 902
f 900 899 902
f 902 901 900
f 871 887 888
f 871 888 872
f 872 888 889
f 872 889 873
f 873 889 890
f 873 890 874
f 874 890 891
f 874 891 875
f 875 891 892
f 875 892 876
f 876 892 893
f 876 893 877
f 877 893 894
f 877 894 878
f 878 894 895
f 878 895 879
f 879 895 896
f 879 896 880
f 880 896 897
f 880 897 881
f 881 897 898
f 881 898 882
f 882 898 899
f 882 899 883
f 883 899 900
f 883 900 884
f 884 900 901
f 884 901 885
f 885 901 902
f 885 902 886
f 886 902 887
f 886 887 871
o Sponson_4
usemtl hull
v 0.54423718 0.26374010 -2.17112020
v 0.64623611 0.26374010 -2.17112020
v 0.64623611 0.28413989 -2.17112020
v 0.54423718 0.28413989 -2.17112020
v 0.54423718 0.26374010 -2.02540743
v 0.64623611 0.26374010 -2.02540743
v 0.64623611 0.28413989 -2.02540743
v 0.54423718 0.28413989 -2.02540743
f 903 906 905
f 903 905 904
f 907 908 909
f 907 909 910
f 903 904 908
f 903 908 907
f 906 910 909
f 906 909 905
f 903 907 910
f 903 910 906
f 904 905 909
f 904 909 908
o AA_Base_4
usemtl island
v 0.62146494 0.28413989 -2.09826382
v 0.61946843 0.28413989 -2.08822668
v 0.61378285 0.28413989 -2.07971761
v 0.60527378 0.28413989 -2.07403203
v 0.59523664 0.28413989 -2.07203552
v 0.58519951 0.28413989 -2.07403203
v 0.57669044 0.28413989 -2.07971761
v 0.57100486 0.28413989 -2.08822668
v 0.56900835 0.28413989 -2.09826382
v 0.57100486 0.28413989 -2.10830095
v 0.57669044 0.28413989 -2.11681002
v 0.58519951 0.28413989 -2.12249560
v 0.59523664 0.28413989 -2.12449211
v 0.60527378 0.28413989 -2.12249560
v 0.61378285 0.28413989 -2.11681002
v 0.61946843 0.28413989 -2.10830095
v 0.62146494 0.31328244 -2.09826382
v 0.61946843 0.31328244 -2.08822668
v 0.61378285 0.31328244 -2.07971761
v 0.60527378 0.31328244 -2.07403203
v 0.59523664 0.31328244 -2.07203552
v 0.58519951 0.31328244 -2.07403203
v 0.57669044 0.31328244 -2.07971761
v 0.57100486 0.31328244 -2.08822668
v 0.56900835 0.31328244 -2.09826382
v 0.57100486 0.31328244 -2.10830095
v 0.57669044 0.31328244 -2.11681002
v 0.58519951 0.31328244 -2.12249560
v 0.59523664 0.31328244 -2.12449211
v 0.60527378 0.31328244 -2.12249560
v 0.61378285 0.31328244 -2.11681002
v 0.61946843 0.31328244 -2.10830095
f 926 911 912
f 926 912 913
f 926 913 914
f 926 914 915
f 926 915 916
f 926 916 917
f 926 917 918
f 926 918 919
f 926 919 920
f 926 920 921
f 926 921 922
f 926 922 923
f 926 923 924
f 924 925 926
f 928 927 942
f 929 928 942
f 930 929 942
f 931 930 942
f 932 931 942
f 933 932 942
f 934 933 942
f 935 934 942
f 936 935 942
f 937 936 942
f 938 937 942
f 939 938 942
f 940 939 942
f 942 941 940
f 911 927 928
f 911 928 912
f 912 928 929
f 912 929 913
f 913 929 930
f 913 930 914
f 914 930 931
f 914 931 915
f 915 931 932
f 915 932 916
f 916 932 933
f 916 933 917
f 917 933 934
f 917 934 918
f 918 934 935
f 918 935 919
f 919 935 936
f 919 936 920
f 920 936 937
f 920 937 921
f 921 937 938
f 921 938 922
f 922 938 939
f 922 939 923
f 923 939 940
f 923 940 924
f 924 940 941
f 924 941 925
f 925 941 942
f 925 942 926
f 926 942 927
f 926 927 911
o CIWS_Radome_4
usemtl white
v 0.60689367 0.31328244 -2.09826382
v 0.60600633 0.31328244 -2.09380286
v 0.60347940 0.31328244 -2.09002106
v 0.59969760 0.31328244 -2.08749413
v 0.59523664 0.31328244 -2.08660679
v 0.59077569 0.31328244 -2.08749413
v 0.58699389 0.31328244 -2.09002106
v 0.58446696 0.31328244 -2.09380286
v 0.58357962 0.31328244 -2.09826382
v 0.58446696 0.31328244 -2.10272477
v 0.58699389 0.31328244 -2.10650657
v 0.59077569 0.31328244 -2.10903350
v 0.59523664 0.31328244 -2.10992084
v 0.59969760 0.31328244 -2.10903350
v 0.60347940 0.31328244 -2.10650657
v 0.60600633 0.31328244 -2.10272477
v 0.60689367 0.34096787 -2.09826382
v 0.60600633 0.34096787 -2.09380286
v 0.60347940 0.34096787 -2.09002106
v 0.59969760 0.34096787 -2.08749413
v 0.59523664 0.34096787 -2.08660679
v 0.59077569 0.34096787 -2.08749413
v 0.58699389 0.34096787 -2.09002106
v 0.58446696 0.34096787 -2.09380286
v 0.58357962 0.34096787 -2.09826382
v 0.58446696 0.34096787 -2.10272477
v 0.58699389 0.34096787 -2.10650657
v 0.59077569 0.34096787 -2.10903350
v 0.59523664 0.34096787 -2.10992084
v 0.59969760 0.34096787 -2.10903350
v 0.60347940 0.34096787 -2.10650657
v 0.60600633 0.34096787 -2.10272477
f 958 943 944
f 958 944 945
f 958 945 946
f 958 946 947
f 958 947 948
f 958 948 949
f 958 949 950
f 958 950 951
f 958 951 952
f 958 952 953
f 958 953 954
f 958 954 955
f 958 955 956
f 956 957 958
f 960 959 974
f 961 960 974
f 962 961 974
f 963 962 974
f 964 963 974
f 965 964 974
f 966 965 974
f 967 966 974
f 968 967 974
f 969 968 974
f 970 969 974
f 971 970 974
f 972 971 974
f 974 973 972
f 943 959 960
f 943 960 944
f 944 960 961
f 944 961 945
f 945 961 962
f 945 962 946
f 946 962 963
f 946 963 947
f 947 963 964
f 947 964 948
f 948 964 965
f 948 965 949
f 949 965 966
f 949 966 950
f 950 966 967
f 950 967 951
f 951 967 968
f 951 968 952
f 952 968 969
f 952 969 953
f 953 969 970
f 953 970 954
f 954 970 971
f 954 971 955
f 955 971 972
f 955 972 956
f 956 972 973
f 956 973 957
f 957 973 974
f 957 974 958
f 958 974 959
f 958 959 943
o SonarDome
usemtl dark
v 0.04954234 -0.13114149 1.99335062
v 0.04577115 -0.13114149 2.01230966
v 0.03503172 -0.13114149 2.02838235
v 0.01895904 -0.13114149 2.03912177
v 0.00000000 -0.13114149 2.04289296
v -0.01895904 -0.13114149 2.03912177
v -0.03503172 -0.13114149 2.02838235
v -0.04577115 -0.13114149 2.01230966
v -0.04954234 -0.13114149 1.99335062
v -0.04577115 -0.13114149 1.97439159
v -0.03503172 -0.13114149 1.95831890
v -0.01895904 -0.13114149 1.94757948
v -0.00000000 -0.13114149 1.94380828
v 0.01895904 -0.13114149 1.94757948
v 0.03503172 -0.13114149 1.95831890
v 0.04577115 -0.13114149 1.97439159
v 0.04954234 -0.10199894 1.99335062
v 0.04577115 -0.10199894 2.01230966
v 0.03503172 -0.10199894 2.02838235
v 0.01895904 -0.10199894 2.03912177
v 0.00000000 -0.10199894 2.04289296
v -0.01895904 -0.10199894 2.03912177
v -0.03503172 -0.10199894 2.02838235
v -0.04577115 -0.10199894 2.01230966
v -0.04954234 -0.10199894 1.99335062
v -0.04577115 -0.10199894 1.97439159
v -0.03503172 -0.10199894 1.95831890
v -0.01895904 -0.10199894 1.94757948
v -0.00000000 -0.10199894 1.94380828
v 0.01895904 -0.10199894 1.94757948
v 0.03503172 -0.10199894 1.95831890
v 0.04577115 -0.10199894 1.97439159
f 990 975 976
f 990 976 977
f 990 977 978
f 990 978 979
f 990 979 980
f 990 980 981
f 990 981 982
f 990 982 983
f 990 983 984
f 990 984 985
f 990 985 986
f 990 986 987
f 990 987 988
f 988 989 990
f 992 991 1006
f 993 992 1006
f 994 993 1006
f 995 994 1006
f 996 995 1006
f 997 996 1006
f 998 997 1006
f 999 998 1006
f 1000 999 1006
f 1001 1000 1006
f 1002 1001 1006
f 1003 1002 1006
f 1004 1003 1006
f 1006 1005 1004
f 975 991 992
f 975 992 976
f 976 992 993
f 976 993 977
f 977 993 994
f 977 994 978
f 978 994 995
f 978 995 979
f 979 995 996
f 979 996 980
f 980 996 997
f 980 997 981
f 981 997 998
f 981 998 982
f 982 998 999
f 982 999 983
f 983 999 1000
f 983 1000 984
f 984 1000 1001
f 984 1001 985
f 985 1001 1002
f 985 1002 986
f 986 1002 1003
f 986 1003 987
f 987 1003 1004
f 987 1004 988
f 988 1004 1005
f 988 1005 989
f 989 1005 1006
f 989 1006 990
f 990 1006 991
f 990 991 975
o NoisemakerPort
usemtl dark
v -0.17285177 0.22294053 -2.37511807
v -0.15245198 0.22294053 -2.37511807
v -0.15245198 0.24334032 -2.37511807
v -0.17285177 0.24334032 -2.37511807
v -0.17285177 0.22294053 -2.34597552
v -0.15245198 0.22294053 -2.34597552
v -0.15245198 0.24334032 -2.34597552
v -0.17285177 0.24334032 -2.34597552
f 1007 1010 1009
f 1007 1009 1008
f 1011 1012 1013
f 1011 1013 1014
f 1007 1008 1012
f 1007 1012 1011
f 1010 1014 1013
f 1010 1013 1009
f 1007 1011 1014
f 1007 1014 1010
f 1008 1009 1013
f 1008 1013 1012
o ASW_Sponson_-1
usemtl hull
v -0.61782212 0.23678324 0.57847968
v -0.54496574 0.23678324 0.57847968
v -0.54496574 0.25864016 0.57847968
v -0.61782212 0.25864016 0.57847968
v -0.61782212 0.23678324 0.68047861
v -0.54496574 0.23678324 0.68047861
v -0.54496574 0.25864016 0.68047861
v -0.61782212 0.25864016 0.68047861
f 1015 1018 1017
f 1015 1017 1016
f 1019 1020 1021
f 1019 1021 1022
f 1015 1016 1020
f 1015 1020 1019
f 1018 1022 1021
f 1018 1021 1017
f 1015 1019 1022
f 1015 1022 1018
f 1016 1017 1021
f 1016 1021 1020
o ASW_Tube_-1_0
usemtl dark
v -0.59414380 0.26155441 0.60762223
v -0.58758672 0.26155441 0.60762223
v -0.58758672 0.26884005 0.60762223
v -0.59414380 0.26884005 0.60762223
v -0.59414380 0.26155441 0.65133606
v -0.58758672 0.26155441 0.65133606
v -0.58758672 0.26884005 0.65133606
v -0.59414380 0.26884005 0.65133606
f 1023 1026 1025
f 1023 1025 1024
f 1027 1028 1029
f 1027 1029 1030
f 1023 1024 1028
f 1023 1028 1027
f 1026 1030 1029
f 1026 1029 1025
f 1023 1027 1030
f 1023 1030 1026
f 1024 1025 1029
f 1024 1029 1028
o ASW_Tube_-1_1
usemtl dark
v -0.58467247 0.26155441 0.60762223
v -0.57811540 0.26155441 0.60762223
v -0.57811540 0.26884005 0.60762223
v -0.58467247 0.26884005 0.60762223
v -0.58467247 0.26155441 0.65133606
v -0.57811540 0.26155441 0.65133606
v -0.57811540 0.26884005 0.65133606
v -0.58467247 0.26884005 0.65133606
f 1031 1034 1033
f 1031 1033 1032
f 1035 1036 1037
f 1035 1037 1038
f 1031 1032 1036
f 1031 1036 1035
f 1034 1038 1037
f 1034 1037 1033
f 1031 1035 1038
f 1031 1038 1034
f 1032 1033 1037
f 1032 1037 1036
o ASW_Tube_-1_2
usemtl dark
v -0.57520114 0.26155441 0.60762223
v -0.56864407 0.26155441 0.60762223
v -0.56864407 0.26884005 0.60762223
v -0.57520114 0.26884005 0.60762223
v -0.57520114 0.26155441 0.65133606
v -0.56864407 0.26155441 0.65133606
v -0.56864407 0.26884005 0.65133606
v -0.57520114 0.26884005 0.65133606
f 1039 1042 1041
f 1039 1041 1040
f 1043 1044 1045
f 1043 1045 1046
f 1039 1040 1044
f 1039 1044 1043
f 1042 1046 1045
f 1042 1045 1041
f 1039 1043 1046
f 1039 1046 1042
f 1040 1041 1045
f 1040 1045 1044
o ASW_Launcher_-1
usemtl island
v -0.60325085 0.24698314 0.49833766
v -0.55953702 0.24698314 0.49833766
v -0.55953702 0.27758282 0.49833766
v -0.60325085 0.27758282 0.49833766
v -0.60325085 0.24698314 0.55662276
v -0.55953702 0.24698314 0.55662276
v -0.55953702 0.27758282 0.55662276
v -0.60325085 0.27758282 0.55662276
f 1047 1050 1049
f 1047 1049 1048
f 1051 1052 1053
f 1051 1053 1054
f 1047 1048 1052
f 1047 1052 1051
f 1050 1054 1053
f 1050 1053 1049
f 1047 1051 1054
f 1047 1054 1050
f 1048 1049 1053
f 1048 1053 1052
o SAM_Sponson_-1
usemtl hull
v -0.65279319 0.25718303 1.98752211
v -0.56536553 0.25718303 1.98752211
v -0.56536553 0.27612569 1.98752211
v -0.65279319 0.27612569 1.98752211
v -0.65279319 0.25718303 2.10409233
v -0.56536553 0.25718303 2.10409233
v -0.56536553 0.27612569 2.10409233
v -0.65279319 0.27612569 2.10409233
f 1055 1058 1057
f 1055 1057 1056
f 1059 1060 1061
f 1059 1061 1062
f 1055 1056 1060
f 1055 1060 1059
f 1058 1062 1061
f 1058 1061 1057
f 1055 1059 1062
f 1055 1062 1058
f 1056 1057 1061
f 1056 1061 1060
o SAM_Launcher_-1
usemtl island
v -0.63676478 0.27248287 2.02395031
v -0.58139393 0.27248287 2.02395031
v -0.58139393 0.30745393 2.02395031
v -0.63676478 0.30745393 2.02395031
v -0.63676478 0.27248287 2.06766414
v -0.58139393 0.27248287 2.06766414
v -0.58139393 0.30745393 2.06766414
v -0.63676478 0.30745393 2.06766414
f 1063 1066 1065
f 1063 1065 1064
f 1067 1068 1069
f 1067 1069 1070
f 1063 1064 1068
f 1063 1068 1067
f 1066 1070 1069
f 1066 1069 1065
f 1063 1067 1070
f 1063 1070 1066
f 1064 1065 1069
f 1064 1069 1068
o NoisemakerStarboard
usemtl dark
v 0.15245198 0.22294053 -2.37511807
v 0.17285177 0.22294053 -2.37511807
v 0.17285177 0.24334032 -2.37511807
v 0.15245198 0.24334032 -2.37511807
v 0.15245198 0.22294053 -2.34597552
v 0.17285177 0.22294053 -2.34597552
v 0.17285177 0.24334032 -2.34597552
v 0.15245198 0.24334032 -2.34597552
f 1071 1074 1073
f 1071 1073 1072
f 1075 1076 1077
f 1075 1077 1078
f 1071 1072 1076
f 1071 1076 1075
f 1074 1078 1077
f 1074 1077 1073
f 1071 1075 1078
f 1071 1078 1074
f 1072 1073 1077
f 1072 1077 1076
o ASW_Sponson_1
usemtl hull
v 0.54496574 0.23678324 0.57847968
v 0.61782212 0.23678324 0.57847968
v 0.61782212 0.25864016 0.57847968
v 0.54496574 0.25864016 0.57847968
v 0.54496574 0.23678324 0.68047861
v 0.61782212 0.23678324 0.68047861
v 0.61782212 0.25864016 0.68047861
v 0.54496574 0.25864016 0.68047861
f 1079 1082 1081
f 1079 1081 1080
f 1083 1084 1085
f 1083 1085 1086
f 1079 1080 1084
f 1079 1084 1083
f 1082 1086 1085
f 1082 1085 1081
f 1079 1083 1086
f 1079 1086 1082
f 1080 1081 1085
f 1080 1085 1084
o ASW_Tube_1_0
usemtl dark
v 0.56864407 0.26155441 0.60762223
v 0.57520114 0.26155441 0.60762223
v 0.57520114 0.26884005 0.60762223
v 0.56864407 0.26884005 0.60762223
v 0.56864407 0.26155441 0.65133606
v 0.57520114 0.26155441 0.65133606
v 0.57520114 0.26884005 0.65133606
v 0.56864407 0.26884005 0.65133606
f 1087 1090 1089
f 1087 1089 1088
f 1091 1092 1093
f 1091 1093 1094
f 1087 1088 1092
f 1087 1092 1091
f 1090 1094 1093
f 1090 1093 1089
f 1087 1091 1094
f 1087 1094 1090
f 1088 1089 1093
f 1088 1093 1092
o ASW_Tube_1_1
usemtl dark
v 0.57811540 0.26155441 0.60762223
v 0.58467247 0.26155441 0.60762223
v 0.58467247 0.26884005 0.60762223
v 0.57811540 0.26884005 0.60762223
v 0.57811540 0.26155441 0.65133606
v 0.58467247 0.26155441 0.65133606
v 0.58467247 0.26884005 0.65133606
v 0.57811540 0.26884005 0.65133606
f 1095 1098 1097
f 1095 1097 1096
f 1099 1100 1101
f 1099 1101 1102
f 1095 1096 1100
f 1095 1100 1099
f 1098 1102 1101
f 1098 1101 1097
f 1095 1099 1102
f 1095 1102 1098
f 1096 1097 1101
f 1096 1101 1100
o ASW_Tube_1_2
usemtl dark
v 0.58758672 0.26155441 0.60762223
v 0.59414380 0.26155441 0.60762223
v 0.59414380 0.26884005 0.60762223
v 0.58758672 0.26884005 0.60762223
v 0.58758672 0.26155441 0.65133606
v 0.59414380 0.26155441 0.65133606
v 0.59414380 0.26884005 0.65133606
v 0.58758672 0.26884005 0.65133606
f 1103 1106 1105
f 1103 1105 1104
f 1107 1108 1109
f 1107 1109 1110
f 1103 1104 1108
f 1103 1108 1107
f 1106 1110 1109
f 1106 1109 1105
f 1103 1107 1110
f 1103 1110 1106
f 1104 1105 1109
f 1104 1109 1108
o ASW_Launcher_1
usemtl island
v 0.55953702 0.24698314 0.49833766
v 0.60325085 0.24698314 0.49833766
v 0.60325085 0.27758282 0.49833766
v 0.55953702 0.27758282 0.49833766
v 0.55953702 0.24698314 0.55662276
v 0.60325085 0.24698314 0.55662276
v 0.60325085 0.27758282 0.55662276
v 0.55953702 0.27758282 0.55662276
f 1111 1114 1113
f 1111 1113 1112
f 1115 1116 1117
f 1115 1117 1118
f 1111 1112 1116
f 1111 1116 1115
f 1114 1118 1117
f 1114 1117 1113
f 1111 1115 1118
f 1111 1118 1114
f 1112 1113 1117
f 1112 1117 1116
o SAM_Sponson_1
usemtl hull
v 0.56536553 0.25718303 1.98752211
v 0.65279319 0.25718303 1.98752211
v 0.65279319 0.27612569 1.98752211
v 0.56536553 0.27612569 1.98752211
v 0.56536553 0.25718303 2.10409233
v 0.65279319 0.25718303 2.10409233
v 0.65279319 0.27612569 2.10409233
v 0.56536553 0.27612569 2.10409233
f 1119 1122 1121
f 1119 1121 1120
f 1123 1124 1125
f 1123 1125 1126
f 1119 1120 1124
f 1119 1124 1123
f 1122 1126 1125
f 1122 1125 1121
f 1119 1123 1126
f 1119 1126 1122
f 1120 1121 1125
f 1120 1125 1124
o SAM_Launcher_1
usemtl island
v 0.58139393 0.27248287 2.02395031
v 0.63676478 0.27248287 2.02395031
v 0.63676478 0.30745393 2.02395031
v 0.58139393 0.30745393 2.02395031
v 0.58139393 0.27248287 2.06766414
v 0.63676478 0.27248287 2.06766414
v 0.63676478 0.30745393 2.06766414
v 0.58139393 0.30745393 2.06766414
f 1127 1130 1129
f 1127 1129 1128
f 1131 1132 1133
f 1131 1133 1134
f 1127 1128 1132
f 1127 1132 1131
f 1130 1134 1133
f 1130 1133 1129
f 1127 1131 1134
f 1127 1134 1130
f 1128 1129 1133
f 1128 1133 1132
o OffensiveECM_Module
usemtl island
v 0.46883082 0.68193574 -0.45025244
v 0.54168720 0.68193574 -0.45025244
v 0.54168720 0.71690680 -0.45025244
v 0.46883082 0.71690680 -0.45025244
v 0.46883082 0.68193574 -0.38905308
v 0.54168720 0.68193574 -0.38905308
v 0.54168720 0.71690680 -0.38905308
v 0.46883082 0.71690680 -0.38905308
f 1135 1138 1137
f 1135 1137 1136
f 1139 1140 1141
f 1139 1141 1142
f 1135 1136 1140
f 1135 1140 1139
f 1138 1142 1141
f 1138 1141 1137
f 1135 1139 1142
f 1135 1142 1138
f 1136 1137 1141
f 1136 1141 1140
o OffensiveECM_Array_-1
usemtl dark
v 0.46628085 0.68630712 -0.44515250
v 0.46846654 0.68630712 -0.44515250
v 0.46846654 0.71253542 -0.44515250
v 0.46628085 0.71253542 -0.44515250
v 0.46628085 0.68630712 -0.39415303
v 0.46846654 0.68630712 -0.39415303
v 0.46846654 0.71253542 -0.39415303
v 0.46628085 0.71253542 -0.39415303
f 1143 1146 1145
f 1143 1145 1144
f 1147 1148 1149
f 1147 1149 1150
f 1143 1144 1148
f 1143 1148 1147
f 1146 1150 1149
f 1146 1149 1145
f 1143 1147 1150
f 1143 1150 1146
f 1144 1145 1149
f 1144 1149 1148
o OffensiveECM_Array_1
usemtl dark
v 0.54205149 0.68630712 -0.44515250
v 0.54423718 0.68630712 -0.44515250
v 0.54423718 0.71253542 -0.44515250
v 0.54205149 0.71253542 -0.44515250
v 0.54205149 0.68630712 -0.39415303
v 0.54423718 0.68630712 -0.39415303
v 0.54423718 0.71253542 -0.39415303
v 0.54205149 0.71253542 -0.39415303
f 1151 1154 1153
f 1151 1153 1152
f 1155 1156 1157
f 1155 1157 1158
f 1151 1152 1156
f 1151 1156 1155
f 1154 1158 1157
f 1154 1157 1153
f 1151 1155 1158
f 1151 1158 1154
f 1152 1153 1157
f 1152 1157 1156
