# Original RAN carrier model study scaled to an observed Sea Power reference mesh.
# Approximate game scale only; engine origin, deck routing and collision need an in-game test.
# RAN Carrier Restart: original model study; coordinates in metres
mtllib ran_cvl_melbourne_1959.mtl
o Hull
usemtl hull
v -0.12568076 0.00000000 -1.51774416
v -0.12956779 0.04371383 -1.51774416
v -0.12827211 0.20691213 -1.51774416
v 0.12827211 0.20691213 -1.51774416
v 0.12956779 0.04371383 -1.51774416
v 0.12568076 0.00000000 -1.51774416
v -0.12872537 0.00000000 -1.43210756
v -0.13270657 0.04371383 -1.43210756
v -0.13137951 0.20691213 -1.43210756
v 0.13137951 0.20691213 -1.43210756
v 0.13270657 0.04371383 -1.43210756
v 0.12872537 0.00000000 -1.43210756
v -0.13175816 0.00000000 -1.34647094
v -0.13583316 0.04371383 -1.34647094
v -0.13447483 0.20691213 -1.34647094
v 0.13447483 0.20691213 -1.34647094
v 0.13583316 0.04371383 -1.34647094
v 0.13175816 0.00000000 -1.34647094
v -0.13476735 0.00000000 -1.26083434
v -0.13893540 0.04371383 -1.26083434
v -0.13754606 0.20691213 -1.26083434
v 0.13754606 0.20691213 -1.26083434
v 0.13893540 0.04371383 -1.26083434
v 0.13476735 0.00000000 -1.26083434
v -0.13774123 0.00000000 -1.17519774
v -0.14200127 0.04371383 -1.17519774
v -0.14058126 0.20691213 -1.17519774
v 0.14058126 0.20691213 -1.17519774
v 0.14200127 0.04371383 -1.17519774
v 0.13774123 0.00000000 -1.17519774
v -0.14066828 0.00000000 -1.08956112
v -0.14501885 0.04371383 -1.08956112
v -0.14356866 0.20691213 -1.08956112
v 0.14356866 0.20691213 -1.08956112
v 0.14501885 0.04371383 -1.08956112
v 0.14066828 0.00000000 -1.08956112
v -0.14353711 0.00000000 -1.00392452
v -0.14797640 0.04371383 -1.00392452
v -0.14649664 0.20691213 -1.00392452
v 0.14649664 0.20691213 -1.00392452
v 0.14797640 0.04371383 -1.00392452
v 0.14353711 0.00000000 -1.00392452
v -0.14633659 0.00000000 -0.91828792
v -0.15086246 0.04371383 -0.91828792
v -0.14935384 0.20691213 -0.91828792
v 0.14935384 0.20691213 -0.91828792
v 0.15086246 0.04371383 -0.91828792
v 0.14633659 0.00000000 -0.91828792
v -0.14905582 0.00000000 -0.83265131
v -0.15366580 0.04371383 -0.83265131
v -0.15212914 0.20691213 -0.83265131
v 0.15212914 0.20691213 -0.83265131
v 0.15366580 0.04371383 -0.83265131
v 0.14905582 0.00000000 -0.83265131
v -0.15168428 0.00000000 -0.74701470
v -0.15637554 0.04371383 -0.74701470
v -0.15481178 0.20691213 -0.74701470
v 0.15481178 0.20691213 -0.74701470
v 0.15637554 0.04371383 -0.74701470
v 0.15168428 0.00000000 -0.74701470
v -0.15421172 0.00000000 -0.66137810
v -0.15898117 0.04371383 -0.66137810
v -0.15739135 0.20691213 -0.66137810
v 0.15739135 0.20691213 -0.66137810
v 0.15898117 0.04371383 -0.66137810
v 0.15421172 0.00000000 -0.66137810
v -0.15662836 0.00000000 -0.57574149
v -0.16147253 0.04371383 -0.57574149
v -0.15985780 0.20691213 -0.57574149
v 0.15985780 0.20691213 -0.57574149
v 0.16147253 0.04371383 -0.57574149
v 0.15662836 0.00000000 -0.57574149
v -0.15892477 0.00000000 -0.49010488
v -0.16383997 0.04371383 -0.49010488
v -0.16220158 0.20691213 -0.49010488
v 0.16220158 0.20691213 -0.49010488
v 0.16383997 0.04371383 -0.49010488
v 0.15892477 0.00000000 -0.49010488
v -0.16109208 0.00000000 -0.40446828
v -0.16607430 0.04371383 -0.40446828
v -0.16441356 0.20691213 -0.40446828
v 0.16441356 0.20691213 -0.40446828
v 0.16607430 0.04371383 -0.40446828
v 0.16109208 0.00000000 -0.40446828
v -0.16312183 0.00000000 -0.31883167
v -0.16816684 0.04371383 -0.31883167
v -0.16648517 0.20691213 -0.31883167
v 0.16648517 0.20691213 -0.31883167
v 0.16816684 0.04371383 -0.31883167
v 0.16312183 0.00000000 -0.31883167
v -0.16500616 0.00000000 -0.23319507
v -0.17010944 0.04371383 -0.23319507
v -0.16840834 0.20691213 -0.23319507
v 0.16840834 0.20691213 -0.23319507
v 0.17010944 0.04371383 -0.23319507
v 0.16500616 0.00000000 -0.23319507
v -0.16673773 0.00000000 -0.14755846
v -0.17189458 0.04371383 -0.14755846
v -0.17017564 0.20691213 -0.14755846
v 0.17017564 0.20691213 -0.14755846
v 0.17189458 0.04371383 -0.14755846
v 0.16673773 0.00000000 -0.14755846
v -0.16830984 0.00000000 -0.06192185
v -0.17351530 0.04371383 -0.06192185
v -0.17178015 0.20691213 -0.06192185
v 0.17178015 0.20691213 -0.06192185
v 0.17351530 0.04371383 -0.06192185
v 0.16830984 0.00000000 -0.06192185
v -0.16971638 0.00000000 0.02371475
v -0.17496533 0.04371383 0.02371475
v -0.17321569 0.20691213 0.02371475
v 0.17321569 0.20691213 0.02371475
v 0.17496533 0.04371383 0.02371475
v 0.16971638 0.00000000 0.02371475
v -0.17095186 0.00000000 0.10935135
v -0.17623904 0.04371383 0.10935135
v -0.17447664 0.20691213 0.10935135
v 0.17447664 0.20691213 0.10935135
v 0.17623904 0.04371383 0.10935135
v 0.17095186 0.00000000 0.10935135
v -0.17201151 0.00000000 0.19498797
v -0.17733146 0.04371383 0.19498797
v -0.17555813 0.20691213 0.19498797
v 0.17555813 0.20691213 0.19498797
v 0.17733146 0.04371383 0.19498797
v 0.17201151 0.00000000 0.19498797
v -0.17289120 0.00000000 0.28062457
v -0.17823836 0.04371383 0.28062457
v -0.17645597 0.20691213 0.28062457
v 0.17645597 0.20691213 0.28062457
v 0.17823836 0.04371383 0.28062457
v 0.17289120 0.00000000 0.28062457
v -0.17358751 0.00000000 0.36626117
v -0.17895620 0.04371383 0.36626117
v -0.17716664 0.20691213 0.36626117
v 0.17716664 0.20691213 0.36626117
v 0.17895620 0.04371383 0.36626117
v 0.17358751 0.00000000 0.36626117
v -0.17409776 0.00000000 0.45189779
v -0.17948222 0.04371383 0.45189779
v -0.17768741 0.20691213 0.45189779
v 0.17768741 0.20691213 0.45189779
v 0.17948222 0.04371383 0.45189779
v 0.17409776 0.00000000 0.45189779
v -0.17441994 0.00000000 0.53753439
v -0.17981438 0.04371383 0.53753439
v -0.17801622 0.20691213 0.53753439
v 0.17801622 0.20691213 0.53753439
v 0.17981438 0.04371383 0.53753439
v 0.17441994 0.00000000 0.53753439
v -0.17455280 0.00000000 0.62317099
v -0.17995135 0.04371383 0.62317099
v -0.17815184 0.20691213 0.62317099
v 0.17815184 0.20691213 0.62317099
v 0.17995135 0.04371383 0.62317099
v 0.17455280 0.00000000 0.62317099
v -0.17455661 0.00000000 0.70880761
v -0.17995526 0.04371383 0.70880761
v -0.17815571 0.20691213 0.70880761
v 0.17815571 0.20691213 0.70880761
v 0.17995526 0.04371383 0.70880761
v 0.17455661 0.00000000 0.70880761
v -0.17455661 0.00000000 0.79444421
v -0.17995526 0.04371383 0.79444421
v -0.17815571 0.20691213 0.79444421
v 0.17815571 0.20691213 0.79444421
v 0.17995526 0.04371383 0.79444421
v 0.17455661 0.00000000 0.79444421
v -0.17114305 0.00000000 0.88008081
v -0.17643613 0.04371383 0.88008081
v -0.17467176 0.20691213 0.88008081
v 0.17467176 0.20691213 0.88008081
v 0.17643613 0.04371383 0.88008081
v 0.17114305 0.00000000 0.88008081
v -0.16055418 0.00000000 0.96571743
v -0.16551978 0.04371383 0.96571743
v -0.16386458 0.20691213 0.96571743
v 0.16386458 0.20691213 0.96571743
v 0.16551978 0.04371383 0.96571743
v 0.16055418 0.00000000 0.96571743
v -0.14595810 0.00000000 1.05135403
v -0.15047227 0.04371383 1.05135403
v -0.14896755 0.20691213 1.05135403
v 0.14896755 0.20691213 1.05135403
v 0.15047227 0.04371383 1.05135403
v 0.14595810 0.00000000 1.05135403
v -0.12825571 0.00000000 1.13699063
v -0.13222237 0.04371383 1.13699063
v -0.13090014 0.20691213 1.13699063
v 0.13090014 0.20691213 1.13699063
v 0.13222237 0.04371383 1.13699063
v 0.12825571 0.00000000 1.13699063
v -0.10791977 0.00000000 1.22262724
v -0.11125750 0.04371383 1.22262724
v -0.11014492 0.20691213 1.22262724
v 0.11014492 0.20691213 1.22262724
v 0.11125750 0.04371383 1.22262724
v 0.10791977 0.00000000 1.22262724
v -0.08525566 0.00000000 1.30826385
v -0.08789244 0.04371383 1.30826385
v -0.08701351 0.20691213 1.30826385
v 0.08701351 0.20691213 1.30826385
v 0.08789244 0.04371383 1.30826385
v 0.08525566 0.00000000 1.30826385
v -0.06048186 0.00000000 1.39390045
v -0.06235243 0.04371383 1.39390045
v -0.06172891 0.20691213 1.39390045
v 0.06172891 0.20691213 1.39390045
v 0.06235243 0.04371383 1.39390045
v 0.06048186 0.00000000 1.39390045
v -0.03376478 0.00000000 1.47953706
v -0.03480905 0.04371383 1.47953706
v -0.03446095 0.20691213 1.47953706
v 0.03446095 0.20691213 1.47953706
v 0.03480905 0.04371383 1.47953706
v 0.03376478 0.00000000 1.47953706
v -0.00523670 0.00000000 1.56517367
v -0.00539866 0.04371383 1.56517367
v -0.00534467 0.20691213 1.56517367
v 0.00534467 0.20691213 1.56517367
v 0.00539866 0.04371383 1.56517367
v 0.00523670 0.00000000 1.56517367
f 7 8 2
f 7 2 1
f 8 9 3
f 8 3 2
f 9 10 4
f 9 4 3
f 10 11 5
f 10 5 4
f 11 12 6
f 11 6 5
f 12 7 1
f 12 1 6
f 13 14 8
f 13 8 7
f 14 15 9
f 14 9 8
f 15 16 10
f 15 10 9
f 16 17 11
f 16 11 10
f 17 18 12
f 17 12 11
f 18 13 7
f 18 7 12
f 19 20 14
f 19 14 13
f 20 21 15
f 20 15 14
f 21 22 16
f 21 16 15
f 22 23 17
f 22 17 16
f 23 24 18
f 23 18 17
f 24 19 13
f 24 13 18
f 25 26 20
f 25 20 19
f 26 27 21
f 26 21 20
f 27 28 22
f 27 22 21
f 28 29 23
f 28 23 22
f 29 30 24
f 29 24 23
f 30 25 19
f 30 19 24
f 31 32 26
f 31 26 25
f 32 33 27
f 32 27 26
f 33 34 28
f 33 28 27
f 34 35 29
f 34 29 28
f 35 36 30
f 35 30 29
f 36 31 25
f 36 25 30
f 37 38 32
f 37 32 31
f 38 39 33
f 38 33 32
f 39 40 34
f 39 34 33
f 40 41 35
f 40 35 34
f 41 42 36
f 41 36 35
f 42 37 31
f 42 31 36
f 43 44 38
f 43 38 37
f 44 45 39
f 44 39 38
f 45 46 40
f 45 40 39
f 46 47 41
f 46 41 40
f 47 48 42
f 47 42 41
f 48 43 37
f 48 37 42
f 49 50 44
f 49 44 43
f 50 51 45
f 50 45 44
f 51 52 46
f 51 46 45
f 52 53 47
f 52 47 46
f 53 54 48
f 53 48 47
f 54 49 43
f 54 43 48
f 55 56 50
f 55 50 49
f 56 57 51
f 56 51 50
f 57 58 52
f 57 52 51
f 58 59 53
f 58 53 52
f 59 60 54
f 59 54 53
f 60 55 49
f 60 49 54
f 61 62 56
f 61 56 55
f 62 63 57
f 62 57 56
f 63 64 58
f 63 58 57
f 64 65 59
f 64 59 58
f 65 66 60
f 65 60 59
f 66 61 55
f 66 55 60
f 67 68 62
f 67 62 61
f 68 69 63
f 68 63 62
f 69 70 64
f 69 64 63
f 70 71 65
f 70 65 64
f 71 72 66
f 71 66 65
f 72 67 61
f 72 61 66
f 73 74 68
f 73 68 67
f 74 75 69
f 74 69 68
f 75 76 70
f 75 70 69
f 76 77 71
f 76 71 70
f 77 78 72
f 77 72 71
f 78 73 67
f 78 67 72
f 79 80 74
f 79 74 73
f 80 81 75
f 80 75 74
f 81 82 76
f 81 76 75
f 82 83 77
f 82 77 76
f 83 84 78
f 83 78 77
f 84 79 73
f 84 73 78
f 85 86 80
f 85 80 79
f 86 87 81
f 86 81 80
f 87 88 82
f 87 82 81
f 88 89 83
f 88 83 82
f 89 90 84
f 89 84 83
f 90 85 79
f 90 79 84
f 91 92 86
f 91 86 85
f 92 93 87
f 92 87 86
f 93 94 88
f 93 88 87
f 94 95 89
f 94 89 88
f 95 96 90
f 95 90 89
f 96 91 85
f 96 85 90
f 97 98 92
f 97 92 91
f 98 99 93
f 98 93 92
f 99 100 94
f 99 94 93
f 100 101 95
f 100 95 94
f 101 102 96
f 101 96 95
f 102 97 91
f 102 91 96
f 103 104 98
f 103 98 97
f 104 105 99
f 104 99 98
f 105 106 100
f 105 100 99
f 106 107 101
f 106 101 100
f 107 108 102
f 107 102 101
f 108 103 97
f 108 97 102
f 109 110 104
f 109 104 103
f 110 111 105
f 110 105 104
f 111 112 106
f 111 106 105
f 112 113 107
f 112 107 106
f 113 114 108
f 113 108 107
f 114 109 103
f 114 103 108
f 115 116 110
f 115 110 109
f 116 117 111
f 116 111 110
f 117 118 112
f 117 112 111
f 118 119 113
f 118 113 112
f 119 120 114
f 119 114 113
f 120 115 109
f 120 109 114
f 121 122 116
f 121 116 115
f 122 123 117
f 122 117 116
f 123 124 118
f 123 118 117
f 124 125 119
f 124 119 118
f 125 126 120
f 125 120 119
f 126 121 115
f 126 115 120
f 127 128 122
f 127 122 121
f 128 129 123
f 128 123 122
f 129 130 124
f 129 124 123
f 130 131 125
f 130 125 124
f 131 132 126
f 131 126 125
f 132 127 121
f 132 121 126
f 133 134 128
f 133 128 127
f 134 135 129
f 134 129 128
f 135 136 130
f 135 130 129
f 136 137 131
f 136 131 130
f 137 138 132
f 137 132 131
f 138 133 127
f 138 127 132
f 139 140 134
f 139 134 133
f 140 141 135
f 140 135 134
f 141 142 136
f 141 136 135
f 142 143 137
f 142 137 136
f 143 144 138
f 143 138 137
f 144 139 133
f 144 133 138
f 145 146 140
f 145 140 139
f 146 147 141
f 146 141 140
f 147 148 142
f 147 142 141
f 148 149 143
f 148 143 142
f 149 150 144
f 149 144 143
f 150 145 139
f 150 139 144
f 151 152 146
f 151 146 145
f 152 153 147
f 152 147 146
f 153 154 148
f 153 148 147
f 154 155 149
f 154 149 148
f 155 156 150
f 155 150 149
f 156 151 145
f 156 145 150
f 157 158 152
f 157 152 151
f 158 159 153
f 158 153 152
f 159 160 154
f 159 154 153
f 160 161 155
f 160 155 154
f 161 162 156
f 161 156 155
f 162 157 151
f 162 151 156
f 163 164 158
f 163 158 157
f 164 165 159
f 164 159 158
f 165 166 160
f 165 160 159
f 166 167 161
f 166 161 160
f 167 168 162
f 167 162 161
f 168 163 157
f 168 157 162
f 169 170 164
f 169 164 163
f 170 171 165
f 170 165 164
f 171 172 166
f 171 166 165
f 172 173 167
f 172 167 166
f 173 174 168
f 173 168 167
f 174 169 163
f 174 163 168
f 175 176 170
f 175 170 169
f 176 177 171
f 176 171 170
f 177 178 172
f 177 172 171
f 178 179 173
f 178 173 172
f 179 180 174
f 179 174 173
f 180 175 169
f 180 169 174
f 181 182 176
f 181 176 175
f 182 183 177
f 182 177 176
f 183 184 178
f 183 178 177
f 184 185 179
f 184 179 178
f 185 186 180
f 185 180 179
f 186 181 175
f 186 175 180
f 187 188 182
f 187 182 181
f 188 189 183
f 188 183 182
f 189 190 184
f 189 184 183
f 190 191 185
f 190 185 184
f 191 192 186
f 191 186 185
f 192 187 181
f 192 181 186
f 193 194 188
f 193 188 187
f 194 195 189
f 194 189 188
f 195 196 190
f 195 190 189
f 196 197 191
f 196 191 190
f 197 198 192
f 197 192 191
f 198 193 187
f 198 187 192
f 199 200 194
f 199 194 193
f 200 201 195
f 200 195 194
f 201 202 196
f 201 196 195
f 202 203 197
f 202 197 196
f 203 204 198
f 203 198 197
f 204 199 193
f 204 193 198
f 205 206 200
f 205 200 199
f 206 207 201
f 206 201 200
f 207 208 202
f 207 202 201
f 208 209 203
f 208 203 202
f 209 210 204
f 209 204 203
f 210 205 199
f 210 199 204
f 211 212 206
f 211 206 205
f 212 213 207
f 212 207 206
f 213 214 208
f 213 208 207
f 214 215 209
f 214 209 208
f 215 216 210
f 215 210 209
f 216 211 205
f 216 205 210
f 217 218 212
f 217 212 211
f 218 219 213
f 218 213 212
f 219 220 214
f 219 214 213
f 220 221 215
f 220 215 214
f 221 222 216
f 221 216 215
f 222 217 211
f 222 211 216
f 1 2 3
f 1 3 4
f 1 4 5
f 1 5 6
f 222 221 220
f 222 220 219
f 222 219 218
f 222 218 217
o UnderwaterHull
usemtl underwater
v -0.07774067 -0.12385585 -1.51774416
v -0.12049805 -0.04371383 -1.51774416
v -0.12568076 0.00000000 -1.51774416
v 0.12568076 0.00000000 -1.51774416
v 0.12049805 -0.04371383 -1.51774416
v 0.07774067 -0.12385585 -1.51774416
v -0.07962394 -0.12385585 -1.43210756
v -0.12341711 -0.04371383 -1.43210756
v -0.12872537 0.00000000 -1.43210756
v 0.12872537 0.00000000 -1.43210756
v 0.12341711 -0.04371383 -1.43210756
v 0.07962394 -0.12385585 -1.43210756
v -0.08149989 -0.12385585 -1.34647094
v -0.12632484 -0.04371383 -1.34647094
v -0.13175816 0.00000000 -1.34647094
v 0.13175816 0.00000000 -1.34647094
v 0.12632484 -0.04371383 -1.34647094
v 0.08149989 -0.12385585 -1.34647094
v -0.08336124 -0.12385585 -1.26083434
v -0.12920993 -0.04371383 -1.26083434
v -0.13476735 0.00000000 -1.26083434
v 0.13476735 0.00000000 -1.26083434
v 0.12920993 -0.04371383 -1.26083434
v 0.08336124 -0.12385585 -1.26083434
v -0.08520076 -0.12385585 -1.17519774
v -0.13206118 -0.04371383 -1.17519774
v -0.13774123 0.00000000 -1.17519774
v 0.13774123 0.00000000 -1.17519774
v 0.13206118 -0.04371383 -1.17519774
v 0.08520076 -0.12385585 -1.17519774
v -0.08701131 -0.12385585 -1.08956112
v -0.13486752 -0.04371383 -1.08956112
v -0.14066828 0.00000000 -1.08956112
v 0.14066828 0.00000000 -1.08956112
v 0.13486752 -0.04371383 -1.08956112
v 0.08701131 -0.12385585 -1.08956112
v -0.08878585 -0.12385585 -1.00392452
v -0.13761806 -0.04371383 -1.00392452
v -0.14353711 0.00000000 -1.00392452
v 0.14353711 0.00000000 -1.00392452
v 0.13761806 -0.04371383 -1.00392452
v 0.08878585 -0.12385585 -1.00392452
v -0.09051747 -0.12385585 -0.91828792
v -0.14030209 -0.04371383 -0.91828792
v -0.14633659 0.00000000 -0.91828792
v 0.14633659 0.00000000 -0.91828792
v 0.14030209 -0.04371383 -0.91828792
v 0.09051747 -0.12385585 -0.91828792
v -0.09219948 -0.12385585 -0.83265131
v -0.14290919 -0.04371383 -0.83265131
v -0.14905582 0.00000000 -0.83265131
v 0.14905582 0.00000000 -0.83265131
v 0.14290919 -0.04371383 -0.83265131
v 0.09219948 -0.12385585 -0.83265131
v -0.09382532 -0.12385585 -0.74701470
v -0.14542925 -0.04371383 -0.74701470
v -0.15168428 0.00000000 -0.74701470
v 0.15168428 0.00000000 -0.74701470
v 0.14542925 -0.04371383 -0.74701470
v 0.09382532 -0.12385585 -0.74701470
v -0.09538869 -0.12385585 -0.66137810
v -0.14785248 -0.04371383 -0.66137810
v -0.15421172 0.00000000 -0.66137810
v 0.15421172 0.00000000 -0.66137810
v 0.14785248 -0.04371383 -0.66137810
v 0.09538869 -0.12385585 -0.66137810
v -0.09688351 -0.12385585 -0.57574149
v -0.15016945 -0.04371383 -0.57574149
v -0.15662836 0.00000000 -0.57574149
v 0.15662836 0.00000000 -0.57574149
v 0.15016945 -0.04371383 -0.57574149
v 0.09688351 -0.12385585 -0.57574149
v -0.09830398 -0.12385585 -0.49010488
v -0.15237118 -0.04371383 -0.49010488
v -0.15892477 0.00000000 -0.49010488
v 0.15892477 0.00000000 -0.49010488
v 0.15237118 -0.04371383 -0.49010488
v 0.09830398 -0.12385585 -0.49010488
v -0.09964458 -0.12385585 -0.40446828
v -0.15444910 -0.04371383 -0.40446828
v -0.16109208 0.00000000 -0.40446828
v 0.16109208 0.00000000 -0.40446828
v 0.15444910 -0.04371383 -0.40446828
v 0.09964458 -0.12385585 -0.40446828
v -0.10090010 -0.12385585 -0.31883167
v -0.15639516 -0.04371383 -0.31883167
v -0.16312183 0.00000000 -0.31883167
v 0.16312183 0.00000000 -0.31883167
v 0.15639516 -0.04371383 -0.31883167
v 0.10090010 -0.12385585 -0.31883167
v -0.10206566 -0.12385585 -0.23319507
v -0.15820178 -0.04371383 -0.23319507
v -0.16500616 0.00000000 -0.23319507
v 0.16500616 0.00000000 -0.23319507
v 0.15820178 -0.04371383 -0.23319507
v 0.10206566 -0.12385585 -0.23319507
v -0.10313675 -0.12385585 -0.14755846
v -0.15986196 -0.04371383 -0.14755846
v -0.16673773 0.00000000 -0.14755846
v 0.16673773 0.00000000 -0.14755846
v 0.15986196 -0.04371383 -0.14755846
v 0.10313675 -0.12385585 -0.14755846
v -0.10410918 -0.12385585 -0.06192185
v -0.16136924 -0.04371383 -0.06192185
v -0.16830984 0.00000000 -0.06192185
v 0.16830984 0.00000000 -0.06192185
v 0.16136924 -0.04371383 -0.06192185
v 0.10410918 -0.12385585 -0.06192185
v -0.10497920 -0.12385585 0.02371475
v -0.16271777 -0.04371383 0.02371475
v -0.16971638 0.00000000 0.02371475
v 0.16971638 0.00000000 0.02371475
v 0.16271777 -0.04371383 0.02371475
v 0.10497920 -0.12385585 0.02371475
v -0.10574342 -0.12385585 0.10935135
v -0.16390231 -0.04371383 0.10935135
v -0.17095186 0.00000000 0.10935135
v 0.17095186 0.00000000 0.10935135
v 0.16390231 -0.04371383 0.10935135
v 0.10574342 -0.12385585 0.10935135
v -0.10639888 -0.12385585 0.19498797
v -0.16491825 -0.04371383 0.19498797
v -0.17201151 0.00000000 0.19498797
v 0.17201151 0.00000000 0.19498797
v 0.16491825 -0.04371383 0.19498797
v 0.10639888 -0.12385585 0.19498797
v -0.10694301 -0.12385585 0.28062457
v -0.16576168 -0.04371383 0.28062457
v -0.17289120 0.00000000 0.28062457
v 0.17289120 0.00000000 0.28062457
v 0.16576168 -0.04371383 0.28062457
v 0.10694301 -0.12385585 0.28062457
v -0.10737373 -0.12385585 0.36626117
v -0.16642927 -0.04371383 0.36626117
v -0.17358751 0.00000000 0.36626117
v 0.17358751 0.00000000 0.36626117
v 0.16642927 -0.04371383 0.36626117
v 0.10737373 -0.12385585 0.36626117
v -0.10768934 -0.12385585 0.45189779
v -0.16691847 -0.04371383 0.45189779
v -0.17409776 0.00000000 0.45189779
v 0.17409776 0.00000000 0.45189779
v 0.16691847 -0.04371383 0.45189779
v 0.10768934 -0.12385585 0.45189779
v -0.10788862 -0.12385585 0.53753439
v -0.16722737 -0.04371383 0.53753439
v -0.17441994 0.00000000 0.53753439
v 0.17441994 0.00000000 0.53753439
v 0.16722737 -0.04371383 0.53753439
v 0.10788862 -0.12385585 0.53753439
v -0.10797081 -0.12385585 0.62317099
v -0.16735475 -0.04371383 0.62317099
v -0.17455280 0.00000000 0.62317099
v 0.17455280 0.00000000 0.62317099
v 0.16735475 -0.04371383 0.62317099
v 0.10797081 -0.12385585 0.62317099
v -0.10797316 -0.12385585 0.70880761
v -0.16735840 -0.04371383 0.70880761
v -0.17455661 0.00000000 0.70880761
v 0.17455661 0.00000000 0.70880761
v 0.16735840 -0.04371383 0.70880761
v 0.10797316 -0.12385585 0.70880761
v -0.10797316 -0.12385585 0.79444421
v -0.16735840 -0.04371383 0.79444421
v -0.17455661 0.00000000 0.79444421
v 0.17455661 0.00000000 0.79444421
v 0.16735840 -0.04371383 0.79444421
v 0.10797316 -0.12385585 0.79444421
v -0.10586168 -0.12385585 0.88008081
v -0.16408560 -0.04371383 0.88008081
v -0.17114305 0.00000000 0.88008081
v 0.17114305 0.00000000 0.88008081
v 0.16408560 -0.04371383 0.88008081
v 0.10586168 -0.12385585 0.88008081
v -0.09931186 -0.12385585 0.96571743
v -0.15393340 -0.04371383 0.96571743
v -0.16055418 0.00000000 0.96571743
v 0.16055418 0.00000000 0.96571743
v 0.15393340 -0.04371383 0.96571743
v 0.09931186 -0.12385585 0.96571743
v -0.09028337 -0.12385585 1.05135403
v -0.13993922 -0.04371383 1.05135403
v -0.14595810 0.00000000 1.05135403
v 0.14595810 0.00000000 1.05135403
v 0.13993922 -0.04371383 1.05135403
v 0.09028337 -0.12385585 1.05135403
v -0.07933342 -0.12385585 1.13699063
v -0.12296681 -0.04371383 1.13699063
v -0.12825571 0.00000000 1.13699063
v 0.12825571 0.00000000 1.13699063
v 0.12296681 -0.04371383 1.13699063
v 0.07933342 -0.12385585 1.13699063
v -0.06675450 -0.12385585 1.22262724
v -0.10346947 -0.04371383 1.22262724
v -0.10791977 0.00000000 1.22262724
v 0.10791977 0.00000000 1.22262724
v 0.10346947 -0.04371383 1.22262724
v 0.06675450 -0.12385585 1.22262724
v -0.05273546 -0.12385585 1.30826385
v -0.08173997 -0.04371383 1.30826385
v -0.08525566 0.00000000 1.30826385
v 0.08525566 0.00000000 1.30826385
v 0.08173997 -0.04371383 1.30826385
v 0.05273546 -0.12385585 1.30826385
v -0.03741146 -0.12385585 1.39390045
v -0.05798776 -0.04371383 1.39390045
v -0.06048186 0.00000000 1.39390045
v 0.06048186 0.00000000 1.39390045
v 0.05798776 -0.04371383 1.39390045
v 0.03741146 -0.12385585 1.39390045
v -0.02088543 -0.12385585 1.47953706
v -0.03237242 -0.04371383 1.47953706
v -0.03376478 0.00000000 1.47953706
v 0.03376478 0.00000000 1.47953706
v 0.03237242 -0.04371383 1.47953706
v 0.02088543 -0.12385585 1.47953706
v -0.00323919 -0.12385585 1.56517367
v -0.00502075 -0.04371383 1.56517367
v -0.00523670 0.00000000 1.56517367
v 0.00523670 0.00000000 1.56517367
v 0.00502075 -0.04371383 1.56517367
v 0.00323919 -0.12385585 1.56517367
f 229 230 224
f 229 224 223
f 230 231 225
f 230 225 224
f 231 232 226
f 231 226 225
f 232 233 227
f 232 227 226
f 233 234 228
f 233 228 227
f 234 229 223
f 234 223 228
f 235 236 230
f 235 230 229
f 236 237 231
f 236 231 230
f 237 238 232
f 237 232 231
f 238 239 233
f 238 233 232
f 239 240 234
f 239 234 233
f 240 235 229
f 240 229 234
f 241 242 236
f 241 236 235
f 242 243 237
f 242 237 236
f 243 244 238
f 243 238 237
f 244 245 239
f 244 239 238
f 245 246 240
f 245 240 239
f 246 241 235
f 246 235 240
f 247 248 242
f 247 242 241
f 248 249 243
f 248 243 242
f 249 250 244
f 249 244 243
f 250 251 245
f 250 245 244
f 251 252 246
f 251 246 245
f 252 247 241
f 252 241 246
f 253 254 248
f 253 248 247
f 254 255 249
f 254 249 248
f 255 256 250
f 255 250 249
f 256 257 251
f 256 251 250
f 257 258 252
f 257 252 251
f 258 253 247
f 258 247 252
f 259 260 254
f 259 254 253
f 260 261 255
f 260 255 254
f 261 262 256
f 261 256 255
f 262 263 257
f 262 257 256
f 263 264 258
f 263 258 257
f 264 259 253
f 264 253 258
f 265 266 260
f 265 260 259
f 266 267 261
f 266 261 260
f 267 268 262
f 267 262 261
f 268 269 263
f 268 263 262
f 269 270 264
f 269 264 263
f 270 265 259
f 270 259 264
f 271 272 266
f 271 266 265
f 272 273 267
f 272 267 266
f 273 274 268
f 273 268 267
f 274 275 269
f 274 269 268
f 275 276 270
f 275 270 269
f 276 271 265
f 276 265 270
f 277 278 272
f 277 272 271
f 278 279 273
f 278 273 272
f 279 280 274
f 279 274 273
f 280 281 275
f 280 275 274
f 281 282 276
f 281 276 275
f 282 277 271
f 282 271 276
f 283 284 278
f 283 278 277
f 284 285 279
f 284 279 278
f 285 286 280
f 285 280 279
f 286 287 281
f 286 281 280
f 287 288 282
f 287 282 281
f 288 283 277
f 288 277 282
f 289 290 284
f 289 284 283
f 290 291 285
f 290 285 284
f 291 292 286
f 291 286 285
f 292 293 287
f 292 287 286
f 293 294 288
f 293 288 287
f 294 289 283
f 294 283 288
f 295 296 290
f 295 290 289
f 296 297 291
f 296 291 290
f 297 298 292
f 297 292 291
f 298 299 293
f 298 293 292
f 299 300 294
f 299 294 293
f 300 295 289
f 300 289 294
f 301 302 296
f 301 296 295
f 302 303 297
f 302 297 296
f 303 304 298
f 303 298 297
f 304 305 299
f 304 299 298
f 305 306 300
f 305 300 299
f 306 301 295
f 306 295 300
f 307 308 302
f 307 302 301
f 308 309 303
f 308 303 302
f 309 310 304
f 309 304 303
f 310 311 305
f 310 305 304
f 311 312 306
f 311 306 305
f 312 307 301
f 312 301 306
f 313 314 308
f 313 308 307
f 314 315 309
f 314 309 308
f 315 316 310
f 315 310 309
f 316 317 311
f 316 311 310
f 317 318 312
f 317 312 311
f 318 313 307
f 318 307 312
f 319 320 314
f 319 314 313
f 320 321 315
f 320 315 314
f 321 322 316
f 321 316 315
f 322 323 317
f 322 317 316
f 323 324 318
f 323 318 317
f 324 319 313
f 324 313 318
f 325 326 320
f 325 320 319
f 326 327 321
f 326 321 320
f 327 328 322
f 327 322 321
f 328 329 323
f 328 323 322
f 329 330 324
f 329 324 323
f 330 325 319
f 330 319 324
f 331 332 326
f 331 326 325
f 332 333 327
f 332 327 326
f 333 334 328
f 333 328 327
f 334 335 329
f 334 329 328
f 335 336 330
f 335 330 329
f 336 331 325
f 336 325 330
f 337 338 332
f 337 332 331
f 338 339 333
f 338 333 332
f 339 340 334
f 339 334 333
f 340 341 335
f 340 335 334
f 341 342 336
f 341 336 335
f 342 337 331
f 342 331 336
f 343 344 338
f 343 338 337
f 344 345 339
f 344 339 338
f 345 346 340
f 345 340 339
f 346 347 341
f 346 341 340
f 347 348 342
f 347 342 341
f 348 343 337
f 348 337 342
f 349 350 344
f 349 344 343
f 350 351 345
f 350 345 344
f 351 352 346
f 351 346 345
f 352 353 347
f 352 347 346
f 353 354 348
f 353 348 347
f 354 349 343
f 354 343 348
f 355 356 350
f 355 350 349
f 356 357 351
f 356 351 350
f 357 358 352
f 357 352 351
f 358 359 353
f 358 353 352
f 359 360 354
f 359 354 353
f 360 355 349
f 360 349 354
f 361 362 356
f 361 356 355
f 362 363 357
f 362 357 356
f 363 364 358
f 363 358 357
f 364 365 359
f 364 359 358
f 365 366 360
f 365 360 359
f 366 361 355
f 366 355 360
f 367 368 362
f 367 362 361
f 368 369 363
f 368 363 362
f 369 370 364
f 369 364 363
f 370 371 365
f 370 365 364
f 371 372 366
f 371 366 365
f 372 367 361
f 372 361 366
f 373 374 368
f 373 368 367
f 374 375 369
f 374 369 368
f 375 376 370
f 375 370 369
f 376 377 371
f 376 371 370
f 377 378 372
f 377 372 371
f 378 373 367
f 378 367 372
f 379 380 374
f 379 374 373
f 380 381 375
f 380 375 374
f 381 382 376
f 381 376 375
f 382 383 377
f 382 377 376
f 383 384 378
f 383 378 377
f 384 379 373
f 384 373 378
f 385 386 380
f 385 380 379
f 386 387 381
f 386 381 380
f 387 388 382
f 387 382 381
f 388 389 383
f 388 383 382
f 389 390 384
f 389 384 383
f 390 385 379
f 390 379 384
f 391 392 386
f 391 386 385
f 392 393 387
f 392 387 386
f 393 394 388
f 393 388 387
f 394 395 389
f 394 389 388
f 395 396 390
f 395 390 389
f 396 391 385
f 396 385 390
f 397 398 392
f 397 392 391
f 398 399 393
f 398 393 392
f 399 400 394
f 399 394 393
f 400 401 395
f 400 395 394
f 401 402 396
f 401 396 395
f 402 397 391
f 402 391 396
f 403 404 398
f 403 398 397
f 404 405 399
f 404 399 398
f 405 406 400
f 405 400 399
f 406 407 401
f 406 401 400
f 407 408 402
f 407 402 401
f 408 403 397
f 408 397 402
f 409 410 404
f 409 404 403
f 410 411 405
f 410 405 404
f 411 412 406
f 411 406 405
f 412 413 407
f 412 407 406
f 413 414 408
f 413 408 407
f 414 409 403
f 414 403 408
f 415 416 410
f 415 410 409
f 416 417 411
f 416 411 410
f 417 418 412
f 417 412 411
f 418 419 413
f 418 413 412
f 419 420 414
f 419 414 413
f 420 415 409
f 420 409 414
f 421 422 416
f 421 416 415
f 422 423 417
f 422 417 416
f 423 424 418
f 423 418 417
f 424 425 419
f 424 419 418
f 425 426 420
f 425 420 419
f 426 421 415
f 426 415 420
f 427 428 422
f 427 422 421
f 428 429 423
f 428 423 422
f 429 430 424
f 429 424 423
f 430 431 425
f 430 425 424
f 431 432 426
f 431 426 425
f 432 427 421
f 432 421 426
f 433 434 428
f 433 428 427
f 434 435 429
f 434 429 428
f 435 436 430
f 435 430 429
f 436 437 431
f 436 431 430
f 437 438 432
f 437 432 431
f 438 433 427
f 438 427 432
f 439 440 434
f 439 434 433
f 440 441 435
f 440 435 434
f 441 442 436
f 441 436 435
f 442 443 437
f 442 437 436
f 443 444 438
f 443 438 437
f 444 439 433
f 444 433 438
f 223 224 225
f 223 225 226
f 223 226 227
f 223 227 228
f 444 443 442
f 444 442 441
f 444 441 440
f 444 440 439
o Deck
usemtl deck
v -0.19933506 0.21128351 -1.58098350
v 0.19379798 0.21128351 -1.58098350
v 0.27131717 0.21128351 -1.20154746
v 0.27131717 0.21128351 0.94859010
v 0.21040923 0.21128351 1.58098350
v -0.18826089 0.21128351 1.58098350
v -0.26578008 0.21128351 0.98020977
v -0.30453968 0.21128351 -0.37943604
v -0.29900259 0.21128351 -1.01182944
v -0.19933506 0.22585479 -1.58098350
v 0.19379798 0.22585479 -1.58098350
v 0.27131717 0.22585479 -1.20154746
v 0.27131717 0.22585479 0.94859010
v 0.21040923 0.22585479 1.58098350
v -0.18826089 0.22585479 1.58098350
v -0.26578008 0.22585479 0.98020977
v -0.30453968 0.22585479 -0.37943604
v -0.29900259 0.22585479 -1.01182944
f 453 445 446
f 453 446 447
f 453 447 448
f 453 448 449
f 453 449 450
f 453 450 451
f 451 452 453
f 455 454 462
f 456 455 462
f 457 456 462
f 458 457 462
f 459 458 462
f 460 459 462
f 462 461 460
f 445 454 455
f 445 455 446
f 446 455 456
f 446 456 447
f 447 456 457
f 447 457 448
f 448 457 458
f 448 458 449
f 449 458 459
f 449 459 450
f 450 459 460
f 450 460 451
f 451 460 461
f 451 461 452
f 452 461 462
f 452 462 453
f 453 462 454
f 453 454 445
o Island
usemtl island
v 0.15780692 0.22585479 -0.56915406
v 0.24640029 0.22585479 -0.56915406
v 0.24640029 0.34242500 -0.56915406
v 0.15780692 0.34242500 -0.56915406
v 0.15780692 0.22585479 0.06323934
v 0.24640029 0.22585479 0.06323934
v 0.24640029 0.34242500 0.06323934
v 0.15780692 0.34242500 0.06323934
f 463 466 465
f 463 465 464
f 467 468 469
f 467 469 470
f 463 464 468
f 463 468 467
f 466 470 469
f 466 469 465
f 463 467 470
f 463 470 466
f 464 465 469
f 464 469 468
o Bridge
usemtl island
v 0.14950130 0.34242500 -0.26876720
v 0.23809466 0.34242500 -0.26876720
v 0.23809466 0.40071010 -0.26876720
v 0.14950130 0.40071010 -0.26876720
v 0.14950130 0.34242500 -0.01580984
v 0.23809466 0.34242500 -0.01580984
v 0.23809466 0.40071010 -0.01580984
v 0.14950130 0.40071010 -0.01580984
f 471 474 473
f 471 473 472
f 475 476 477
f 475 477 478
f 471 472 476
f 471 476 475
f 474 478 477
f 474 477 473
f 471 475 478
f 471 478 474
f 472 473 477
f 472 477 476
o BridgeGlass
usemtl glass
v 0.14785474 0.35918197 -0.25295736
v 0.15004043 0.35918197 -0.25295736
v 0.15004043 0.38395314 -0.25295736
v 0.14785474 0.38395314 -0.25295736
v 0.14785474 0.35918197 -0.03161967
v 0.15004043 0.35918197 -0.03161967
v 0.15004043 0.38395314 -0.03161967
v 0.14785474 0.38395314 -0.03161967
f 479 482 481
f 479 481 480
f 483 484 485
f 483 485 486
f 479 480 484
f 479 484 483
f 482 486 485
f 482 485 481
f 479 483 486
f 479 486 482
f 480 481 485
f 480 485 484
o Mast
usemtl island
v 0.21376063 0.40071010 -0.31124247
v 0.21287329 0.40071010 -0.30678151
v 0.21034636 0.40071010 -0.30299971
v 0.20656456 0.40071010 -0.30047278
v 0.20210361 0.40071010 -0.29958544
v 0.19764265 0.40071010 -0.30047278
v 0.19386085 0.40071010 -0.30299971
v 0.19133392 0.40071010 -0.30678151
v 0.19044658 0.40071010 -0.31124247
v 0.19133392 0.40071010 -0.31570342
v 0.19386085 0.40071010 -0.31948522
v 0.19764265 0.40071010 -0.32201215
v 0.20210361 0.40071010 -0.32289949
v 0.20656456 0.40071010 -0.32201215
v 0.21034636 0.40071010 -0.31948522
v 0.21287329 0.40071010 -0.31570342
v 0.21376063 0.60470797 -0.31124247
v 0.21287329 0.60470797 -0.30678151
v 0.21034636 0.60470797 -0.30299971
v 0.20656456 0.60470797 -0.30047278
v 0.20210361 0.60470797 -0.29958544
v 0.19764265 0.60470797 -0.30047278
v 0.19386085 0.60470797 -0.30299971
v 0.19133392 0.60470797 -0.30678151
v 0.19044658 0.60470797 -0.31124247
v 0.19133392 0.60470797 -0.31570342
v 0.19386085 0.60470797 -0.31948522
v 0.19764265 0.60470797 -0.32201215
v 0.20210361 0.60470797 -0.32289949
v 0.20656456 0.60470797 -0.32201215
v 0.21034636 0.60470797 -0.31948522
v 0.21287329 0.60470797 -0.31570342
f 502 487 488
f 502 488 489
f 502 489 490
f 502 490 491
f 502 491 492
f 502 492 493
f 502 493 494
f 502 494 495
f 502 495 496
f 502 496 497
f 502 497 498
f 502 498 499
f 502 499 500
f 500 501 502
f 504 503 518
f 505 504 518
f 506 505 518
f 507 506 518
f 508 507 518
f 509 508 518
f 510 509 518
f 511 510 518
f 512 511 518
f 513 512 518
f 514 513 518
f 515 514 518
f 516 515 518
f 518 517 516
f 487 503 504
f 487 504 488
f 488 504 505
f 488 505 489
f 489 505 506
f 489 506 490
f 490 506 507
f 490 507 491
f 491 507 508
f 491 508 492
f 492 508 509
f 492 509 493
f 493 509 510
f 493 510 494
f 494 510 511
f 494 511 495
f 495 511 512
f 495 512 496
f 496 512 513
f 496 513 497
f 497 513 514
f 497 514 498
f 498 514 515
f 498 515 499
f 499 515 516
f 499 516 500
f 500 516 517
f 500 517 501
f 501 517 518
f 501 518 502
f 502 518 503
f 502 503 487
o Funnel
usemtl dark
v 0.18133954 0.26956862 -0.48219997
v 0.22286767 0.26956862 -0.48219997
v 0.22286767 0.41528138 -0.48219997
v 0.18133954 0.41528138 -0.48219997
v 0.18133954 0.26956862 -0.33991145
v 0.22286767 0.26956862 -0.33991145
v 0.22286767 0.41528138 -0.33991145
v 0.18133954 0.41528138 -0.33991145
f 519 522 521
f 519 521 520
f 523 524 525
f 523 525 526
f 519 520 524
f 519 524 523
f 522 526 525
f 522 525 521
f 519 523 526
f 519 526 522
f 520 521 525
f 520 525 524
o AirRadar
usemtl dark
v 0.16057547 0.59742234 -0.31634241
v 0.24363174 0.59742234 -0.31634241
v 0.24363174 0.64113617 -0.31634241
v 0.16057547 0.64113617 -0.31634241
v 0.16057547 0.59742234 -0.30614252
v 0.24363174 0.59742234 -0.30614252
v 0.24363174 0.64113617 -0.30614252
v 0.16057547 0.64113617 -0.30614252
f 527 530 529
f 527 529 528
f 531 532 533
f 531 533 534
f 527 528 532
f 527 532 531
f 530 534 533
f 530 533 529
f 527 531 534
f 527 534 530
f 528 529 533
f 528 533 532
o SurfaceRadar
usemtl dark
v 0.17441818 0.51072324 -0.13012150
v 0.22978903 0.51072324 -0.13012150
v 0.22978903 0.52383739 -0.13012150
v 0.17441818 0.52383739 -0.13012150
v 0.17441818 0.51072324 -0.12283586
v 0.22978903 0.51072324 -0.12283586
v 0.22978903 0.52383739 -0.12283586
v 0.17441818 0.52383739 -0.12283586
f 535 538 537
f 535 537 536
f 539 540 541
f 539 541 542
f 535 536 540
f 535 540 539
f 538 542 541
f 538 541 537
f 535 539 542
f 535 542 538
f 536 537 541
f 536 541 540
o Elevator_1
usemtl hull
v 0.14862702 0.22585479 0.63982475
v 0.29433979 0.22585479 0.63982475
v 0.29433979 0.22818619 0.63982475
v 0.14862702 0.22818619 0.63982475
v 0.14862702 0.22585479 0.81468007
v 0.29433979 0.22585479 0.81468007
v 0.29433979 0.22818619 0.81468007
v 0.14862702 0.22818619 0.81468007
f 543 546 545
f 543 545 544
f 547 548 549
f 547 549 550
f 543 544 548
f 543 548 547
f 546 550 549
f 546 549 545
f 543 547 550
f 543 550 546
f 544 545 549
f 544 549 548
o Elevator_2
usemtl hull
v 0.14862702 0.22585479 -0.65658172
v 0.29433979 0.22585479 -0.65658172
v 0.29433979 0.22818619 -0.65658172
v 0.14862702 0.22818619 -0.65658172
v 0.14862702 0.22585479 -0.48172640
v 0.29433979 0.22585479 -0.48172640
v 0.29433979 0.22818619 -0.48172640
v 0.14862702 0.22818619 -0.48172640
f 551 554 553
f 551 553 552
f 555 556 557
f 555 557 558
f 551 552 556
f 551 556 555
f 554 558 557
f 554 557 553
f 551 555 558
f 551 558 554
f 552 553 557
f 552 557 556
o Catapult_1
usemtl gold
v 0.07241990 0.22745763 0.75895381
v 0.08407692 0.22745763 1.48620622
v 0.09427550 0.22745763 1.48604276
v 0.08261848 0.22745763 0.75879035
v 0.07241990 0.22804048 0.75895381
v 0.08407692 0.22804048 1.48620622
v 0.09427550 0.22804048 1.48604276
v 0.08261848 0.22804048 0.75879035
f 559 562 561
f 561 560 559
f 565 566 563
f 563 564 565
f 560 564 563
f 560 563 559
f 561 565 564
f 561 564 560
f 562 566 565
f 562 565 561
f 559 563 566
f 559 566 562
o Catapult_2
usemtl gold
v -0.08815557 0.22745763 0.75895381
v -0.07649855 0.22745763 1.48620622
v -0.06629996 0.22745763 1.48604276
v -0.07795698 0.22745763 0.75879035
v -0.08815557 0.22804048 0.75895381
v -0.07649855 0.22804048 1.48620622
v -0.06629996 0.22804048 1.48604276
v -0.07795698 0.22804048 0.75879035
f 567 570 569
f 569 568 567
f 573 574 571
f 571 572 573
f 568 572 571
f 568 571 567
f 569 573 572
f 569 572 568
f 570 574 573
f 570 573 569
f 567 571 574
f 567 574 570
o LandingEdge_-1
usemtl white
v -0.03736342 0.22760334 -1.39147343
v -0.26992099 0.22760334 0.63218545
v -0.26630198 0.22760334 0.63260135
v -0.03374441 0.22760334 -1.39105753
v -0.03736342 0.22818619 -1.39147343
v -0.26992099 0.22818619 0.63218545
v -0.26630198 0.22818619 0.63260135
v -0.03374441 0.22818619 -1.39105753
f 575 578 577
f 577 576 575
f 581 582 579
f 579 580 581
f 576 580 579
f 576 579 575
f 577 581 580
f 577 580 576
f 578 582 581
f 578 581 577
f 575 579 582
f 575 582 578
o LandingEdge_1
usemtl white
v 0.16663445 0.22760334 -1.39147343
v -0.06592312 0.22760334 0.63218545
v -0.06230411 0.22760334 0.63260135
v 0.17025346 0.22760334 -1.39105753
v 0.16663445 0.22818619 -1.39147343
v -0.06592312 0.22818619 0.63218545
v -0.06230411 0.22818619 0.63260135
v 0.17025346 0.22818619 -1.39105753
f 583 586 585
f 585 584 583
f 589 590 587
f 587 588 589
f 584 588 587
f 584 587 583
f 585 589 588
f 585 588 584
f 586 590 589
f 586 589 585
f 583 587 590
f 583 590 586
o Centreline_0
usemtl white
v 0.06391172 0.22774905 -1.39155660
v 0.05643665 0.22774905 -1.32651042
v 0.06150326 0.22774905 -1.32592818
v 0.06897832 0.22774905 -1.39097436
v 0.06391172 0.22833190 -1.39155660
v 0.05643665 0.22833190 -1.32651042
v 0.06150326 0.22833190 -1.32592818
v 0.06897832 0.22833190 -1.39097436
f 591 594 593
f 593 592 591
f 597 598 595
f 595 596 597
f 592 596 595
f 592 595 591
f 593 597 596
f 593 596 592
f 594 598 597
f 594 597 593
f 591 595 598
f 591 598 594
o Centreline_1
usemtl white
v 0.04730046 0.22774905 -1.24700954
v 0.03982540 0.22774905 -1.18196336
v 0.04489200 0.22774905 -1.18138112
v 0.05236707 0.22774905 -1.24642730
v 0.04730046 0.22833190 -1.24700954
v 0.03982540 0.22833190 -1.18196336
v 0.04489200 0.22833190 -1.18138112
v 0.05236707 0.22833190 -1.24642730
f 599 602 601
f 601 600 599
f 605 606 603
f 603 604 605
f 600 604 603
f 600 603 599
f 601 605 604
f 601 604 600
f 602 606 605
f 602 605 601
f 599 603 606
f 599 606 602
o Centreline_2
usemtl white
v 0.03068921 0.22774905 -1.10246247
v 0.02321414 0.22774905 -1.03741630
v 0.02828075 0.22774905 -1.03683406
v 0.03575581 0.22774905 -1.10188023
v 0.03068921 0.22833190 -1.10246247
v 0.02321414 0.22833190 -1.03741630
v 0.02828075 0.22833190 -1.03683406
v 0.03575581 0.22833190 -1.10188023
f 607 610 609
f 609 608 607
f 613 614 611
f 611 612 613
f 608 612 611
f 608 611 607
f 609 613 612
f 609 612 608
f 610 614 613
f 610 613 609
f 607 611 614
f 607 614 610
o Centreline_3
usemtl white
v 0.01407795 0.22774905 -0.95791541
v 0.00660289 0.22774905 -0.89286923
v 0.01166949 0.22774905 -0.89228699
v 0.01914456 0.22774905 -0.95733317
v 0.01407795 0.22833190 -0.95791541
v 0.00660289 0.22833190 -0.89286923
v 0.01166949 0.22833190 -0.89228699
v 0.01914456 0.22833190 -0.95733317
f 615 618 617
f 617 616 615
f 621 622 619
f 619 620 621
f 616 620 619
f 616 619 615
f 617 621 620
f 617 620 616
f 618 622 621
f 618 621 617
f 615 619 622
f 615 622 618
o Centreline_4
usemtl white
v -0.00253330 0.22774905 -0.81336835
v -0.01000837 0.22774905 -0.74832217
v -0.00494176 0.22774905 -0.74773993
v 0.00253330 0.22774905 -0.81278611
v -0.00253330 0.22833190 -0.81336835
v -0.01000837 0.22833190 -0.74832217
v -0.00494176 0.22833190 -0.74773993
v 0.00253330 0.22833190 -0.81278611
f 623 626 625
f 625 624 623
f 629 630 627
f 627 628 629
f 624 628 627
f 624 627 623
f 625 629 628
f 625 628 624
f 626 630 629
f 626 629 625
f 623 627 630
f 623 630 626
o Centreline_5
usemtl white
v -0.01914456 0.22774905 -0.66882129
v -0.02661962 0.22774905 -0.60377511
v -0.02155302 0.22774905 -0.60319287
v -0.01407795 0.22774905 -0.66823905
v -0.01914456 0.22833190 -0.66882129
v -0.02661962 0.22833190 -0.60377511
v -0.02155302 0.22833190 -0.60319287
v -0.01407795 0.22833190 -0.66823905
f 631 634 633
f 633 632 631
f 637 638 635
f 635 636 637
f 632 636 635
f 632 635 631
f 633 637 636
f 633 636 632
f 634 638 637
f 634 637 633
f 631 635 638
f 631 638 634
o Centreline_6
usemtl white
v -0.03575581 0.22774905 -0.52427422
v -0.04323088 0.22774905 -0.45922804
v -0.03816427 0.22774905 -0.45864581
v -0.03068921 0.22774905 -0.52369198
v -0.03575581 0.22833190 -0.52427422
v -0.04323088 0.22833190 -0.45922804
v -0.03816427 0.22833190 -0.45864581
v -0.03068921 0.22833190 -0.52369198
f 639 642 641
f 641 640 639
f 645 646 643
f 643 644 645
f 640 644 643
f 640 643 639
f 641 645 644
f 641 644 640
f 642 646 645
f 642 645 641
f 639 643 646
f 639 646 642
o Centreline_7
usemtl white
v -0.05236707 0.22774905 -0.37972716
v -0.05984213 0.22774905 -0.31468098
v -0.05477553 0.22774905 -0.31409874
v -0.04730046 0.22774905 -0.37914492
v -0.05236707 0.22833190 -0.37972716
v -0.05984213 0.22833190 -0.31468098
v -0.05477553 0.22833190 -0.31409874
v -0.04730046 0.22833190 -0.37914492
f 647 650 649
f 649 648 647
f 653 654 651
f 651 652 653
f 648 652 651
f 648 651 647
f 649 653 652
f 649 652 648
f 650 654 653
f 650 653 649
f 647 651 654
f 647 654 650
o Centreline_8
usemtl white
v -0.06897832 0.22774905 -0.23518010
v -0.07645339 0.22774905 -0.17013392
v -0.07138678 0.22774905 -0.16955168
v -0.06391172 0.22774905 -0.23459786
v -0.06897832 0.22833190 -0.23518010
v -0.07645339 0.22833190 -0.17013392
v -0.07138678 0.22833190 -0.16955168
v -0.06391172 0.22833190 -0.23459786
f 655 658 657
f 657 656 655
f 661 662 659
f 659 660 661
f 656 660 659
f 656 659 655
f 657 661 660
f 657 660 656
f 658 662 661
f 658 661 657
f 655 659 662
f 655 662 658
o Centreline_9
usemtl white
v -0.08558958 0.22774905 -0.09063303
v -0.09306464 0.22774905 -0.02558686
v -0.08799804 0.22774905 -0.02500462
v -0.08052297 0.22774905 -0.09005079
v -0.08558958 0.22833190 -0.09063303
v -0.09306464 0.22833190 -0.02558686
v -0.08799804 0.22833190 -0.02500462
v -0.08052297 0.22833190 -0.09005079
f 663 666 665
f 665 664 663
f 669 670 667
f 667 668 669
f 664 668 667
f 664 667 663
f 665 669 668
f 665 668 664
f 666 670 669
f 666 669 665
f 663 667 670
f 663 670 666
o Centreline_10
usemtl white
v -0.10220084 0.22774905 0.05391403
v -0.10967590 0.22774905 0.11896021
v -0.10460929 0.22774905 0.11954245
v -0.09713423 0.22774905 0.05449627
v -0.10220084 0.22833190 0.05391403
v -0.10967590 0.22833190 0.11896021
v -0.10460929 0.22833190 0.11954245
v -0.09713423 0.22833190 0.05449627
f 671 674 673
f 673 672 671
f 677 678 675
f 675 676 677
f 672 676 675
f 672 675 671
f 673 677 676
f 673 676 672
f 674 678 677
f 674 677 673
f 671 675 678
f 671 678 674
o Centreline_11
usemtl white
v -0.11881209 0.22774905 0.19846109
v -0.12628716 0.22774905 0.26350727
v -0.12122055 0.22774905 0.26408951
v -0.11374548 0.22774905 0.19904333
v -0.11881209 0.22833190 0.19846109
v -0.12628716 0.22833190 0.26350727
v -0.12122055 0.22833190 0.26408951
v -0.11374548 0.22833190 0.19904333
f 679 682 681
f 681 680 679
f 685 686 683
f 683 684 685
f 680 684 683
f 680 683 679
f 681 685 684
f 681 684 680
f 682 686 685
f 682 685 681
f 679 683 686
f 679 686 682
o Centreline_12
usemtl white
v -0.13542335 0.22774905 0.34300815
v -0.14289841 0.22774905 0.40805433
v -0.13783180 0.22774905 0.40863657
v -0.13035674 0.22774905 0.34359039
v -0.13542335 0.22833190 0.34300815
v -0.14289841 0.22833190 0.40805433
v -0.13783180 0.22833190 0.40863657
v -0.13035674 0.22833190 0.34359039
f 687 690 689
f 689 688 687
f 693 694 691
f 691 692 693
f 688 692 691
f 688 691 687
f 689 693 692
f 689 692 688
f 690 694 693
f 690 693 689
f 687 691 694
f 687 694 690
o Centreline_13
usemtl white
v -0.15203460 0.22774905 0.48755522
v -0.15950967 0.22774905 0.55260140
v -0.15444306 0.22774905 0.55318363
v -0.14696799 0.22774905 0.48813746
v -0.15203460 0.22833190 0.48755522
v -0.15950967 0.22833190 0.55260140
v -0.15444306 0.22833190 0.55318363
v -0.14696799 0.22833190 0.48813746
f 695 698 697
f 697 696 695
f 701 702 699
f 699 700 701
f 696 700 699
f 696 699 695
f 697 701 700
f 697 700 696
f 698 702 701
f 698 701 697
f 695 699 702
f 695 702 698
o Sponson_1
usemtl hull
v -0.30220827 0.19816936 0.83435129
v -0.22935189 0.19816936 0.83435129
v -0.22935189 0.21856915 0.83435129
v -0.30220827 0.21856915 0.83435129
v -0.30220827 0.19816936 0.93635023
v -0.22935189 0.19816936 0.93635023
v -0.22935189 0.21856915 0.93635023
v -0.30220827 0.21856915 0.93635023
f 703 706 705
f 703 705 704
f 707 708 709
f 707 709 710
f 703 704 708
f 703 708 707
f 706 710 709
f 706 709 705
f 703 707 710
f 703 710 706
f 704 705 709
f 704 709 708
o AA_Base_1
usemtl island
v -0.24829455 0.21856915 0.88535076
v -0.24962556 0.21856915 0.89204218
v -0.25341595 0.21856915 0.89771490
v -0.25908866 0.21856915 0.90150528
v -0.26578008 0.21856915 0.90283629
v -0.27247150 0.21856915 0.90150528
v -0.27814422 0.21856915 0.89771490
v -0.28193460 0.21856915 0.89204218
v -0.28326562 0.21856915 0.88535076
v -0.28193460 0.21856915 0.87865934
v -0.27814422 0.21856915 0.87298662
v -0.27247150 0.21856915 0.86919624
v -0.26578008 0.21856915 0.86786523
v -0.25908866 0.21856915 0.86919624
v -0.25341595 0.21856915 0.87298662
v -0.24962556 0.21856915 0.87865934
v -0.24829455 0.24771170 0.88535076
v -0.24962556 0.24771170 0.89204218
v -0.25341595 0.24771170 0.89771490
v -0.25908866 0.24771170 0.90150528
v -0.26578008 0.24771170 0.90283629
v -0.27247150 0.24771170 0.90150528
v -0.27814422 0.24771170 0.89771490
v -0.28193460 0.24771170 0.89204218
v -0.28326562 0.24771170 0.88535076
v -0.28193460 0.24771170 0.87865934
v -0.27814422 0.24771170 0.87298662
v -0.27247150 0.24771170 0.86919624
v -0.26578008 0.24771170 0.86786523
v -0.25908866 0.24771170 0.86919624
v -0.25341595 0.24771170 0.87298662
v -0.24962556 0.24771170 0.87865934
f 726 711 712
f 726 712 713
f 726 713 714
f 726 714 715
f 726 715 716
f 726 716 717
f 726 717 718
f 726 718 719
f 726 719 720
f 726 720 721
f 726 721 722
f 726 722 723
f 726 723 724
f 724 725 726
f 728 727 742
f 729 728 742
f 730 729 742
f 731 730 742
f 732 731 742
f 733 732 742
f 734 733 742
f 735 734 742
f 736 735 742
f 737 736 742
f 738 737 742
f 739 738 742
f 740 739 742
f 742 741 740
f 711 727 728
f 711 728 712
f 712 728 729
f 712 729 713
f 713 729 730
f 713 730 714
f 714 730 731
f 714 731 715
f 715 731 732
f 715 732 716
f 716 732 733
f 716 733 717
f 717 733 734
f 717 734 718
f 718 734 735
f 718 735 719
f 719 735 736
f 719 736 720
f 720 736 737
f 720 737 721
f 721 737 738
f 721 738 722
f 722 738 739
f 722 739 723
f 723 739 740
f 723 740 724
f 724 740 741
f 724 741 725
f 725 741 742
f 725 742 726
f 726 742 727
f 726 727 711
o AA_Gun_1_-1
usemtl dark
v -0.27197288 0.24151891 0.86349385
v -0.26833006 0.24151891 0.86349385
v -0.26833006 0.24516173 0.86349385
v -0.27197288 0.24516173 0.86349385
v -0.27197288 0.24151891 0.90720767
v -0.26833006 0.24151891 0.90720767
v -0.26833006 0.24516173 0.90720767
v -0.27197288 0.24516173 0.90720767
f 743 746 745
f 743 745 744
f 747 748 749
f 747 749 750
f 743 744 748
f 743 748 747
f 746 750 749
f 746 749 745
f 743 747 750
f 743 750 746
f 744 745 749
f 744 749 748
o AA_Gun_1_1
usemtl dark
v -0.26323011 0.24151891 0.86349385
v -0.25958729 0.24151891 0.86349385
v -0.25958729 0.24516173 0.86349385
v -0.26323011 0.24516173 0.86349385
v -0.26323011 0.24151891 0.90720767
v -0.25958729 0.24151891 0.90720767
v -0.25958729 0.24516173 0.90720767
v -0.26323011 0.24516173 0.90720767
f 751 754 753
f 751 753 752
f 755 756 757
f 755 757 758
f 751 752 756
f 751 756 755
f 754 758 757
f 754 757 753
f 751 755 758
f 751 758 754
f 752 753 757
f 752 757 756
o Sponson_2
usemtl hull
v 0.21827772 0.19816936 0.83435129
v 0.29113410 0.19816936 0.83435129
v 0.29113410 0.21856915 0.83435129
v 0.21827772 0.21856915 0.83435129
v 0.21827772 0.19816936 0.93635023
v 0.29113410 0.19816936 0.93635023
v 0.29113410 0.21856915 0.93635023
v 0.21827772 0.21856915 0.93635023
f 759 762 761
f 759 761 760
f 763 764 765
f 763 765 766
f 759 760 764
f 759 764 763
f 762 766 765
f 762 765 761
f 759 763 766
f 759 766 762
f 760 761 765
f 760 765 764
o AA_Base_2
usemtl island
v 0.27219144 0.21856915 0.88535076
v 0.27086043 0.21856915 0.89204218
v 0.26707005 0.21856915 0.89771490
v 0.26139733 0.21856915 0.90150528
v 0.25470591 0.21856915 0.90283629
v 0.24801449 0.21856915 0.90150528
v 0.24234178 0.21856915 0.89771490
v 0.23855139 0.21856915 0.89204218
v 0.23722038 0.21856915 0.88535076
v 0.23855139 0.21856915 0.87865934
v 0.24234178 0.21856915 0.87298662
v 0.24801449 0.21856915 0.86919624
v 0.25470591 0.21856915 0.86786523
v 0.26139733 0.21856915 0.86919624
v 0.26707005 0.21856915 0.87298662
v 0.27086043 0.21856915 0.87865934
v 0.27219144 0.24771170 0.88535076
v 0.27086043 0.24771170 0.89204218
v 0.26707005 0.24771170 0.89771490
v 0.26139733 0.24771170 0.90150528
v 0.25470591 0.24771170 0.90283629
v 0.24801449 0.24771170 0.90150528
v 0.24234178 0.24771170 0.89771490
v 0.23855139 0.24771170 0.89204218
v 0.23722038 0.24771170 0.88535076
v 0.23855139 0.24771170 0.87865934
v 0.24234178 0.24771170 0.87298662
v 0.24801449 0.24771170 0.86919624
v 0.25470591 0.24771170 0.86786523
v 0.26139733 0.24771170 0.86919624
v 0.26707005 0.24771170 0.87298662
v 0.27086043 0.24771170 0.87865934
f 782 767 768
f 782 768 769
f 782 769 770
f 782 770 771
f 782 771 772
f 782 772 773
f 782 773 774
f 782 774 775
f 782 775 776
f 782 776 777
f 782 777 778
f 782 778 779
f 782 779 780
f 780 781 782
f 784 783 798
f 785 784 798
f 786 785 798
f 787 786 798
f 788 787 798
f 789 788 798
f 790 789 798
f 791 790 798
f 792 791 798
f 793 792 798
f 794 793 798
f 795 794 798
f 796 795 798
f 798 797 796
f 767 783 784
f 767 784 768
f 768 784 785
f 768 785 769
f 769 785 786
f 769 786 770
f 770 786 787
f 770 787 771
f 771 787 788
f 771 788 772
f 772 788 789
f 772 789 773
f 773 789 790
f 773 790 774
f 774 790 791
f 774 791 775
f 775 791 792
f 775 792 776
f 776 792 793
f 776 793 777
f 777 793 794
f 777 794 778
f 778 794 795
f 778 795 779
f 779 795 796
f 779 796 780
f 780 796 797
f 780 797 781
f 781 797 798
f 781 798 782
f 782 798 783
f 782 783 767
o AA_Gun_2_-1
usemtl dark
v 0.24851312 0.24151891 0.86349385
v 0.25215594 0.24151891 0.86349385
v 0.25215594 0.24516173 0.86349385
v 0.24851312 0.24516173 0.86349385
v 0.24851312 0.24151891 0.90720767
v 0.25215594 0.24151891 0.90720767
v 0.25215594 0.24516173 0.90720767
v 0.24851312 0.24516173 0.90720767
f 799 802 801
f 799 801 800
f 803 804 805
f 803 805 806
f 799 800 804
f 799 804 803
f 802 806 805
f 802 805 801
f 799 803 806
f 799 806 802
f 800 801 805
f 800 805 804
o AA_Gun_2_1
usemtl dark
v 0.25725589 0.24151891 0.86349385
v 0.26089871 0.24151891 0.86349385
v 0.26089871 0.24516173 0.86349385
v 0.25725589 0.24516173 0.86349385
v 0.25725589 0.24151891 0.90720767
v 0.26089871 0.24151891 0.90720767
v 0.26089871 0.24516173 0.90720767
v 0.25725589 0.24516173 0.90720767
f 807 810 809
f 807 809 808
f 811 812 813
f 811 813 814
f 807 808 812
f 807 812 811
f 810 814 813
f 810 813 809
f 807 811 814
f 807 814 810
f 808 809 813
f 808 813 812
o Sponson_3
usemtl hull
v -0.28005993 0.19816936 -1.31578627
v -0.20720355 0.19816936 -1.31578627
v -0.20720355 0.21856915 -1.31578627
v -0.28005993 0.21856915 -1.31578627
v -0.28005993 0.19816936 -1.21378733
v -0.20720355 0.19816936 -1.21378733
v -0.20720355 0.21856915 -1.21378733
v -0.28005993 0.21856915 -1.21378733
f 815 818 817
f 815 817 816
f 819 820 821
f 819 821 822
f 815 816 820
f 815 820 819
f 818 822 821
f 818 821 817
f 815 819 822
f 815 822 818
f 816 817 821
f 816 821 820
o AA_Base_3
usemtl island
v -0.22614621 0.21856915 -1.26478680
v -0.22747722 0.21856915 -1.25809538
v -0.23126761 0.21856915 -1.25242266
v -0.23694032 0.21856915 -1.24863228
v -0.24363174 0.21856915 -1.24730127
v -0.25032316 0.21856915 -1.24863228
v -0.25599588 0.21856915 -1.25242266
v -0.25978626 0.21856915 -1.25809538
v -0.26111727 0.21856915 -1.26478680
v -0.25978626 0.21856915 -1.27147822
v -0.25599588 0.21856915 -1.27715094
v -0.25032316 0.21856915 -1.28094132
v -0.24363174 0.21856915 -1.28227233
v -0.23694032 0.21856915 -1.28094132
v -0.23126761 0.21856915 -1.27715094
v -0.22747722 0.21856915 -1.27147822
v -0.22614621 0.24771170 -1.26478680
v -0.22747722 0.24771170 -1.25809538
v -0.23126761 0.24771170 -1.25242266
v -0.23694032 0.24771170 -1.24863228
v -0.24363174 0.24771170 -1.24730127
v -0.25032316 0.24771170 -1.24863228
v -0.25599588 0.24771170 -1.25242266
v -0.25978626 0.24771170 -1.25809538
v -0.26111727 0.24771170 -1.26478680
v -0.25978626 0.24771170 -1.27147822
v -0.25599588 0.24771170 -1.27715094
v -0.25032316 0.24771170 -1.28094132
v -0.24363174 0.24771170 -1.28227233
v -0.23694032 0.24771170 -1.28094132
v -0.23126761 0.24771170 -1.27715094
v -0.22747722 0.24771170 -1.27147822
f 838 823 824
f 838 824 825
f 838 825 826
f 838 826 827
f 838 827 828
f 838 828 829
f 838 829 830
f 838 830 831
f 838 831 832
f 838 832 833
f 838 833 834
f 838 834 835
f 838 835 836
f 836 837 838
f 840 839 854
f 841 840 854
f 842 841 854
f 843 842 854
f 844 843 854
f 845 844 854
f 846 845 854
f 847 846 854
f 848 847 854
f 849 848 854
f 850 849 854
f 851 850 854
f 852 851 854
f 854 853 852
f 823 839 840
f 823 840 824
f 824 840 841
f 824 841 825
f 825 841 842
f 825 842 826
f 826 842 843
f 826 843 827
f 827 843 844
f 827 844 828
f 828 844 845
f 828 845 829
f 829 845 846
f 829 846 830
f 830 846 847
f 830 847 831
f 831 847 848
f 831 848 832
f 832 848 849
f 832 849 833
f 833 849 850
f 833 850 834
f 834 850 851
f 834 851 835
f 835 851 852
f 835 852 836
f 836 852 853
f 836 853 837
f 837 853 854
f 837 854 838
f 838 854 839
f 838 839 823
o AA_Gun_3_-1
usemtl dark
v -0.24982454 0.24151891 -1.28664371
v -0.24618172 0.24151891 -1.28664371
v -0.24618172 0.24516173 -1.28664371
v -0.24982454 0.24516173 -1.28664371
v -0.24982454 0.24151891 -1.24292989
v -0.24618172 0.24151891 -1.24292989
v -0.24618172 0.24516173 -1.24292989
v -0.24982454 0.24516173 -1.24292989
f 855 858 857
f 855 857 856
f 859 860 861
f 859 861 862
f 855 856 860
f 855 860 859
f 858 862 861
f 858 861 857
f 855 859 862
f 855 862 858
f 856 857 861
f 856 861 860
o AA_Gun_3_1
usemtl dark
v -0.24108177 0.24151891 -1.28664371
v -0.23743895 0.24151891 -1.28664371
v -0.23743895 0.24516173 -1.28664371
v -0.24108177 0.24516173 -1.28664371
v -0.24108177 0.24151891 -1.24292989
v -0.23743895 0.24151891 -1.24292989
v -0.23743895 0.24516173 -1.24292989
v -0.24108177 0.24516173 -1.24292989
f 863 866 865
f 863 865 864
f 867 868 869
f 867 869 870
f 863 864 868
f 863 868 867
f 866 870 869
f 866 869 865
f 863 867 870
f 863 870 866
f 864 865 869
f 864 869 868
o Sponson_4
usemtl hull
v 0.20166647 0.19816936 -1.31578627
v 0.27452285 0.19816936 -1.31578627
v 0.27452285 0.21856915 -1.31578627
v 0.20166647 0.21856915 -1.31578627
v 0.20166647 0.19816936 -1.21378733
v 0.27452285 0.19816936 -1.21378733
v 0.27452285 0.21856915 -1.21378733
v 0.20166647 0.21856915 -1.21378733
f 871 874 873
f 871 873 872
f 875 876 877
f 875 877 878
f 871 872 876
f 871 876 875
f 874 878 877
f 874 877 873
f 871 875 878
f 871 878 874
f 872 873 877
f 872 877 876
o AA_Base_4
usemtl island
v 0.25558019 0.21856915 -1.26478680
v 0.25424918 0.21856915 -1.25809538
v 0.25045879 0.21856915 -1.25242266
v 0.24478608 0.21856915 -1.24863228
v 0.23809466 0.21856915 -1.24730127
v 0.23140324 0.21856915 -1.24863228
v 0.22573052 0.21856915 -1.25242266
v 0.22194014 0.21856915 -1.25809538
v 0.22060913 0.21856915 -1.26478680
v 0.22194014 0.21856915 -1.27147822
v 0.22573052 0.21856915 -1.27715094
v 0.23140324 0.21856915 -1.28094132
v 0.23809466 0.21856915 -1.28227233
v 0.24478608 0.21856915 -1.28094132
v 0.25045879 0.21856915 -1.27715094
v 0.25424918 0.21856915 -1.27147822
v 0.25558019 0.24771170 -1.26478680
v 0.25424918 0.24771170 -1.25809538
v 0.25045879 0.24771170 -1.25242266
v 0.24478608 0.24771170 -1.24863228
v 0.23809466 0.24771170 -1.24730127
v 0.23140324 0.24771170 -1.24863228
v 0.22573052 0.24771170 -1.25242266
v 0.22194014 0.24771170 -1.25809538
v 0.22060913 0.24771170 -1.26478680
v 0.22194014 0.24771170 -1.27147822
v 0.22573052 0.24771170 -1.27715094
v 0.23140324 0.24771170 -1.28094132
v 0.23809466 0.24771170 -1.28227233
v 0.24478608 0.24771170 -1.28094132
v 0.25045879 0.24771170 -1.27715094
v 0.25424918 0.24771170 -1.27147822
f 894 879 880
f 894 880 881
f 894 881 882
f 894 882 883
f 894 883 884
f 894 884 885
f 894 885 886
f 894 886 887
f 894 887 888
f 894 888 889
f 894 889 890
f 894 890 891
f 894 891 892
f 892 893 894
f 896 895 910
f 897 896 910
f 898 897 910
f 899 898 910
f 900 899 910
f 901 900 910
f 902 901 910
f 903 902 910
f 904 903 910
f 905 904 910
f 906 905 910
f 907 906 910
f 908 907 910
f 910 909 908
f 879 895 896
f 879 896 880
f 880 896 897
f 880 897 881
f 881 897 898
f 881 898 882
f 882 898 899
f 882 899 883
f 883 899 900
f 883 900 884
f 884 900 901
f 884 901 885
f 885 901 902
f 885 902 886
f 886 902 903
f 886 903 887
f 887 903 904
f 887 904 888
f 888 904 905
f 888 905 889
f 889 905 906
f 889 906 890
f 890 906 907
f 890 907 891
f 891 907 908
f 891 908 892
f 892 908 909
f 892 909 893
f 893 909 910
f 893 910 894
f 894 910 895
f 894 895 879
o AA_Gun_4_-1
usemtl dark
v 0.23190187 0.24151891 -1.28664371
v 0.23554468 0.24151891 -1.28664371
v 0.23554468 0.24516173 -1.28664371
v 0.23190187 0.24516173 -1.28664371
v 0.23190187 0.24151891 -1.24292989
v 0.23554468 0.24151891 -1.24292989
v 0.23554468 0.24516173 -1.24292989
v 0.23190187 0.24516173 -1.24292989
f 911 914 913
f 911 913 912
f 915 916 917
f 915 917 918
f 911 912 916
f 911 916 915
f 914 918 917
f 914 917 913
f 911 915 918
f 911 918 914
f 912 913 917
f 912 917 916
o AA_Gun_4_1
usemtl dark
v 0.24064463 0.24151891 -1.28664371
v 0.24428745 0.24151891 -1.28664371
v 0.24428745 0.24516173 -1.28664371
v 0.24064463 0.24516173 -1.28664371
v 0.24064463 0.24151891 -1.24292989
v 0.24428745 0.24151891 -1.24292989
v 0.24428745 0.24516173 -1.24292989
v 0.24064463 0.24516173 -1.24292989
f 919 922 921
f 919 921 920
f 923 924 925
f 923 925 926
f 919 920 924
f 919 924 923
f 922 926 925
f 922 925 921
f 919 923 926
f 919 926 922
f 920 921 925
f 920 925 924
o SonarDome
usemtl dark
v 0.02185691 -0.13114149 1.20154746
v 0.02019315 -0.13114149 1.20991174
v 0.01545517 -0.13114149 1.21700263
v 0.00836428 -0.13114149 1.22174061
v 0.00000000 -0.13114149 1.22340437
v -0.00836428 -0.13114149 1.22174061
v -0.01545517 -0.13114149 1.21700263
v -0.02019315 -0.13114149 1.20991174
v -0.02185691 -0.13114149 1.20154746
v -0.02019315 -0.13114149 1.19318318
v -0.01545517 -0.13114149 1.18609229
v -0.00836428 -0.13114149 1.18135431
v -0.00000000 -0.13114149 1.17969055
v 0.00836428 -0.13114149 1.18135431
v 0.01545517 -0.13114149 1.18609229
v 0.02019315 -0.13114149 1.19318318
v 0.02185691 -0.10199894 1.20154746
v 0.02019315 -0.10199894 1.20991174
v 0.01545517 -0.10199894 1.21700263
v 0.00836428 -0.10199894 1.22174061
v 0.00000000 -0.10199894 1.22340437
v -0.00836428 -0.10199894 1.22174061
v -0.01545517 -0.10199894 1.21700263
v -0.02019315 -0.10199894 1.20991174
v -0.02185691 -0.10199894 1.20154746
v -0.02019315 -0.10199894 1.19318318
v -0.01545517 -0.10199894 1.18609229
v -0.00836428 -0.10199894 1.18135431
v -0.00000000 -0.10199894 1.17969055
v 0.00836428 -0.10199894 1.18135431
v 0.01545517 -0.10199894 1.18609229
v 0.02019315 -0.10199894 1.19318318
f 942 927 928
f 942 928 929
f 942 929 930
f 942 930 931
f 942 931 932
f 942 932 933
f 942 933 934
f 942 934 935
f 942 935 936
f 942 936 937
f 942 937 938
f 942 938 939
f 942 939 940
f 940 941 942
f 944 943 958
f 945 944 958
f 946 945 958
f 947 946 958
f 948 947 958
f 949 948 958
f 950 949 958
f 951 950 958
f 952 951 958
f 953 952 958
f 954 953 958
f 955 954 958
f 956 955 958
f 958 957 956
f 927 943 944
f 927 944 928
f 928 944 945
f 928 945 929
f 929 945 946
f 929 946 930
f 930 946 947
f 930 947 931
f 931 947 948
f 931 948 932
f 932 948 949
f 932 949 933
f 933 949 950
f 933 950 934
f 934 950 951
f 934 951 935
f 935 951 952
f 935 952 936
f 936 952 953
f 936 953 937
f 937 953 954
f 937 954 938
f 938 954 955
f 938 955 939
f 939 955 956
f 939 956 940
f 940 956 957
f 940 957 941
f 941 957 958
f 941 958 942
f 942 958 943
f 942 943 927
o NoisemakerPort
usemtl dark
v -0.10017753 0.15736979 -1.43745643
v -0.07977774 0.15736979 -1.43745643
v -0.07977774 0.17776957 -1.43745643
v -0.10017753 0.17776957 -1.43745643
v -0.10017753 0.15736979 -1.40831387
v -0.07977774 0.15736979 -1.40831387
v -0.07977774 0.17776957 -1.40831387
v -0.10017753 0.17776957 -1.40831387
f 959 962 961
f 959 961 960
f 963 964 965
f 963 965 966
f 959 960 964
f 959 964 963
f 962 966 965
f 962 965 961
f 959 963 966
f 959 966 962
f 960 961 965
f 960 965 964
o NoisemakerStarboard
usemtl dark
v 0.07977774 0.15736979 -1.43745643
v 0.10017753 0.15736979 -1.43745643
v 0.10017753 0.17776957 -1.43745643
v 0.07977774 0.17776957 -1.43745643
v 0.07977774 0.15736979 -1.40831387
v 0.10017753 0.15736979 -1.40831387
v 0.10017753 0.17776957 -1.40831387
v 0.07977774 0.17776957 -1.40831387
f 967 970 969
f 967 969 968
f 971 972 973
f 971 973 974
f 967 968 972
f 967 972 971
f 970 974 973
f 970 973 969
f 967 971 974
f 967 974 970
f 968 969 973
f 968 973 972
o Propeller_1
usemtl dark
v -0.092500 -0.112500 -1.370000
v -0.057500 -0.112500 -1.370000
v -0.057500 -0.077500 -1.370000
v -0.092500 -0.077500 -1.370000
v -0.092500 -0.112500 -1.330000
v -0.057500 -0.112500 -1.330000
v -0.057500 -0.077500 -1.330000
v -0.092500 -0.077500 -1.330000
f 975 978 977
f 975 977 976
f 979 980 981
f 979 981 982
f 975 976 980
f 975 980 979
f 978 982 981
f 978 981 977
f 975 979 982
f 975 982 978
f 976 977 981
f 976 981 980
o Propeller_2
usemtl dark
v 0.057500 -0.112500 -1.370000
v 0.092500 -0.112500 -1.370000
v 0.092500 -0.077500 -1.370000
v 0.057500 -0.077500 -1.370000
v 0.057500 -0.112500 -1.330000
v 0.092500 -0.112500 -1.330000
v 0.092500 -0.077500 -1.330000
v 0.057500 -0.077500 -1.330000
f 983 986 985
f 983 985 984
f 987 988 989
f 987 989 990
f 983 984 988
f 983 988 987
f 986 990 989
f 986 989 985
f 983 987 990
f 983 990 986
f 984 985 989
f 984 989 988
o Rudder
usemtl dark
v -0.009000 -0.140000 -1.440000
v 0.009000 -0.140000 -1.440000
v 0.009000 -0.040000 -1.440000
v -0.009000 -0.040000 -1.440000
v -0.009000 -0.140000 -1.360000
v 0.009000 -0.140000 -1.360000
v 0.009000 -0.040000 -1.360000
v -0.009000 -0.040000 -1.360000
f 991 994 993
f 991 993 992
f 995 996 997
f 995 997 998
f 991 992 996
f 991 996 995
f 994 998 997
f 994 997 993
f 991 995 998
f 991 998 994
f 992 993 997
f 992 997 996
