# RAN Carrier Restart: original model study; coordinates in metres
mtllib ran_cvn_australis_2030.mtl
o HardChineHull
usemtl hull
v -32.000000 20.300000 -185.000000
v 27.000000 20.300000 -185.000000
v 41.000000 20.300000 -169.000000
v 49.000000 20.300000 -138.000000
v 50.000000 20.300000 -76.000000
v 52.000000 20.300000 -33.000000
v 52.000000 20.300000 72.000000
v 49.000000 20.300000 125.000000
v 40.000000 20.300000 163.000000
v 15.000000 20.300000 185.000000
v -15.000000 20.300000 185.000000
v -39.000000 20.300000 161.000000
v -48.000000 20.300000 123.000000
v -48.000000 20.300000 60.000000
v -52.000000 20.300000 -41.000000
v -52.000000 20.300000 -114.000000
v -43.000000 20.300000 -168.000000
v -30.720000 12.000000 -183.150000
v 25.920000 12.000000 -183.150000
v 39.360000 12.000000 -167.310000
v 47.040000 12.000000 -136.620000
v 48.000000 12.000000 -75.240000
v 49.920000 12.000000 -32.670000
v 49.920000 12.000000 71.280000
v 47.040000 12.000000 123.750000
v 38.400000 12.000000 161.370000
v 14.400000 12.000000 183.150000
v -14.400000 12.000000 183.150000
v -37.440000 12.000000 159.390000
v -46.080000 12.000000 121.770000
v -46.080000 12.000000 59.400000
v -49.920000 12.000000 -40.590000
v -49.920000 12.000000 -112.860000
v -41.280000 12.000000 -166.320000
v -28.800000 4.500000 -177.600000
v 24.300000 4.500000 -177.600000
v 36.900000 4.500000 -162.240000
v 44.100000 4.500000 -132.480000
v 45.000000 4.500000 -72.960000
v 46.800000 4.500000 -31.680000
v 46.800000 4.500000 69.120000
v 44.100000 4.500000 120.000000
v 36.000000 4.500000 156.480000
v 13.500000 4.500000 177.600000
v -13.500000 4.500000 177.600000
v -35.100000 4.500000 154.560000
v -43.200000 4.500000 118.080000
v -43.200000 4.500000 57.600000
v -46.800000 4.500000 -39.360000
v -46.800000 4.500000 -109.440000
v -38.700000 4.500000 -161.280000
v -26.240000 0.000000 -172.050000
v 22.140000 0.000000 -172.050000
v 33.620000 0.000000 -157.170000
v 40.180000 0.000000 -128.340000
v 41.000000 0.000000 -70.680000
v 42.640000 0.000000 -30.690000
v 42.640000 0.000000 66.960000
v 40.180000 0.000000 116.250000
v 32.800000 0.000000 151.590000
v 12.300000 0.000000 172.050000
v -12.300000 0.000000 172.050000
v -31.980000 0.000000 149.730000
v -39.360000 0.000000 114.390000
v -39.360000 0.000000 55.800000
v -42.640000 0.000000 -38.130000
v -42.640000 0.000000 -106.020000
v -35.260000 0.000000 -156.240000
f 17 16 15
f 17 15 14
f 17 14 13
f 17 13 12
f 17 12 11
f 17 11 10
f 17 10 9
f 17 9 8
f 17 8 7
f 17 7 6
f 17 6 5
f 17 5 4
f 17 4 3
f 17 3 2
f 17 2 1
f 52 53 54
f 52 54 55
f 52 55 56
f 52 56 57
f 52 57 58
f 52 58 59
f 52 59 60
f 52 60 61
f 52 61 62
f 52 62 63
f 52 63 64
f 52 64 65
f 52 65 66
f 52 66 67
f 52 67 68
f 1 2 19
f 1 19 18
f 2 3 20
f 2 20 19
f 3 4 21
f 3 21 20
f 4 5 22
f 4 22 21
f 5 6 23
f 5 23 22
f 6 7 24
f 6 24 23
f 7 8 25
f 7 25 24
f 8 9 26
f 8 26 25
f 9 10 27
f 9 27 26
f 10 11 28
f 10 28 27
f 11 12 29
f 11 29 28
f 12 13 30
f 12 30 29
f 13 14 31
f 13 31 30
f 14 15 32
f 14 32 31
f 15 16 33
f 15 33 32
f 16 17 34
f 16 34 33
f 17 1 18
f 17 18 34
f 18 19 36
f 18 36 35
f 19 20 37
f 19 37 36
f 20 21 38
f 20 38 37
f 21 22 39
f 21 39 38
f 22 23 40
f 22 40 39
f 23 24 41
f 23 41 40
f 24 25 42
f 24 42 41
f 25 26 43
f 25 43 42
f 26 27 44
f 26 44 43
f 27 28 45
f 27 45 44
f 28 29 46
f 28 46 45
f 29 30 47
f 29 47 46
f 30 31 48
f 30 48 47
f 31 32 49
f 31 49 48
f 32 33 50
f 32 50 49
f 33 34 51
f 33 51 50
f 34 18 35
f 34 35 51
f 35 36 53
f 35 53 52
f 36 37 54
f 36 54 53
f 37 38 55
f 37 55 54
f 38 39 56
f 38 56 55
f 39 40 57
f 39 57 56
f 40 41 58
f 40 58 57
f 41 42 59
f 41 59 58
f 42 43 60
f 42 60 59
f 43 44 61
f 43 61 60
f 44 45 62
f 44 62 61
f 45 46 63
f 45 63 62
f 46 47 64
f 46 64 63
f 47 48 65
f 47 65 64
f 48 49 66
f 48 66 65
f 49 50 67
f 49 67 66
f 50 51 68
f 50 68 67
f 51 35 52
f 51 52 68
o UnderwaterBody
usemtl underwater
v -26.240000 0.000000 -172.050000
v 22.140000 0.000000 -172.050000
v 33.620000 0.000000 -157.170000
v 40.180000 0.000000 -128.340000
v 41.000000 0.000000 -70.680000
v 42.640000 0.000000 -30.690000
v 42.640000 0.000000 66.960000
v 40.180000 0.000000 116.250000
v 32.800000 0.000000 151.590000
v 12.300000 0.000000 172.050000
v -12.300000 0.000000 172.050000
v -31.980000 0.000000 149.730000
v -39.360000 0.000000 114.390000
v -39.360000 0.000000 55.800000
v -42.640000 0.000000 -38.130000
v -42.640000 0.000000 -106.020000
v -35.260000 0.000000 -156.240000
v -16.640000 -8.000000 -142.450000
v 14.040000 -8.000000 -142.450000
v 21.320000 -8.000000 -130.130000
v 25.480000 -8.000000 -106.260000
v 26.000000 -8.000000 -58.520000
v 27.040000 -8.000000 -25.410000
v 27.040000 -8.000000 55.440000
v 25.480000 -8.000000 96.250000
v 20.800000 -8.000000 125.510000
v 7.800000 -8.000000 142.450000
v -7.800000 -8.000000 142.450000
v -20.280000 -8.000000 123.970000
v -24.960000 -8.000000 94.710000
v -24.960000 -8.000000 46.200000
v -27.040000 -8.000000 -31.570000
v -27.040000 -8.000000 -87.780000
v -22.360000 -8.000000 -129.360000
f 85 84 83
f 85 83 82
f 85 82 81
f 85 81 80
f 85 80 79
f 85 79 78
f 85 78 77
f 85 77 76
f 85 76 75
f 85 75 74
f 85 74 73
f 85 73 72
f 85 72 71
f 85 71 70
f 85 70 69
f 86 87 88
f 86 88 89
f 86 89 90
f 86 90 91
f 86 91 92
f 86 92 93
f 86 93 94
f 86 94 95
f 86 95 96
f 86 96 97
f 86 97 98
f 86 98 99
f 86 99 100
f 86 100 101
f 86 101 102
f 69 70 87
f 69 87 86
f 70 71 88
f 70 88 87
f 71 72 89
f 71 89 88
f 72 73 90
f 72 90 89
f 73 74 91
f 73 91 90
f 74 75 92
f 74 92 91
f 75 76 93
f 75 93 92
f 76 77 94
f 76 94 93
f 77 78 95
f 77 95 94
f 78 79 96
f 78 96 95
f 79 80 97
f 79 97 96
f 80 81 98
f 80 98 97
f 81 82 99
f 81 99 98
f 82 83 100
f 82 100 99
f 83 84 101
f 83 101 100
f 84 85 102
f 84 102 101
f 85 69 86
f 85 86 102
o FacetedFlightDeck
usemtl deck
v -32.000000 20.300000 -185.000000
v 27.000000 20.300000 -185.000000
v 41.000000 20.300000 -169.000000
v 49.000000 20.300000 -138.000000
v 50.000000 20.300000 -76.000000
v 52.000000 20.300000 -33.000000
v 52.000000 20.300000 72.000000
v 49.000000 20.300000 125.000000
v 40.000000 20.300000 163.000000
v 15.000000 20.300000 185.000000
v -15.000000 20.300000 185.000000
v -39.000000 20.300000 161.000000
v -48.000000 20.300000 123.000000
v -48.000000 20.300000 60.000000
v -52.000000 20.300000 -41.000000
v -52.000000 20.300000 -114.000000
v -43.000000 20.300000 -168.000000
v -32.000000 22.000000 -185.000000
v 27.000000 22.000000 -185.000000
v 41.000000 22.000000 -169.000000
v 49.000000 22.000000 -138.000000
v 50.000000 22.000000 -76.000000
v 52.000000 22.000000 -33.000000
v 52.000000 22.000000 72.000000
v 49.000000 22.000000 125.000000
v 40.000000 22.000000 163.000000
v 15.000000 22.000000 185.000000
v -15.000000 22.000000 185.000000
v -39.000000 22.000000 161.000000
v -48.000000 22.000000 123.000000
v -48.000000 22.000000 60.000000
v -52.000000 22.000000 -41.000000
v -52.000000 22.000000 -114.000000
v -43.000000 22.000000 -168.000000
f 119 103 104
f 119 104 105
f 119 105 106
f 119 106 107
f 119 107 108
f 119 108 109
f 119 109 110
f 119 110 111
f 119 111 112
f 119 112 113
f 119 113 114
f 119 114 115
f 119 115 116
f 119 116 117
f 117 118 119
f 121 120 136
f 122 121 136
f 123 122 136
f 124 123 136
f 125 124 136
f 126 125 136
f 127 126 136
f 128 127 136
f 129 128 136
f 130 129 136
f 131 130 136
f 132 131 136
f 133 132 136
f 134 133 136
f 136 135 134
f 103 120 121
f 103 121 104
f 104 121 122
f 104 122 105
f 105 122 123
f 105 123 106
f 106 123 124
f 106 124 107
f 107 124 125
f 107 125 108
f 108 125 126
f 108 126 109
f 109 126 127
f 109 127 110
f 110 127 128
f 110 128 111
f 111 128 129
f 111 129 112
f 112 129 130
f 112 130 113
f 113 130 131
f 113 131 114
f 114 131 132
f 114 132 115
f 115 132 133
f 115 133 116
f 116 133 134
f 116 134 117
f 117 134 135
f 117 135 118
f 118 135 136
f 118 136 119
f 119 136 120
f 119 120 103
o DeckEdge_01
usemtl edge
v -32.000000 22.070000 -184.860000
v 27.000000 22.070000 -184.860000
v 27.000000 22.070000 -185.140000
v -32.000000 22.070000 -185.140000
v -32.000000 22.110000 -184.860000
v 27.000000 22.110000 -184.860000
v 27.000000 22.110000 -185.140000
v -32.000000 22.110000 -185.140000
f 137 140 139
f 139 138 137
f 143 144 141
f 141 142 143
f 138 142 141
f 138 141 137
f 139 143 142
f 139 142 138
f 140 144 143
f 140 143 139
f 137 141 144
f 137 144 140
o DeckEdge_02
usemtl edge
v 26.894639 22.070000 -184.907809
v 40.894639 22.070000 -168.907809
v 41.105361 22.070000 -169.092191
v 27.105361 22.070000 -185.092191
v 26.894639 22.110000 -184.907809
v 40.894639 22.110000 -168.907809
v 41.105361 22.110000 -169.092191
v 27.105361 22.110000 -185.092191
f 145 148 147
f 147 146 145
f 151 152 149
f 149 150 151
f 146 150 149
f 146 149 145
f 147 151 150
f 147 150 146
f 148 152 151
f 148 151 147
f 145 149 152
f 145 152 148
o DeckEdge_03
usemtl edge
v 40.864441 22.070000 -168.965017
v 48.864441 22.070000 -137.965017
v 49.135559 22.070000 -138.034983
v 41.135559 22.070000 -169.034983
v 40.864441 22.110000 -168.965017
v 48.864441 22.110000 -137.965017
v 49.135559 22.110000 -138.034983
v 41.135559 22.110000 -169.034983
f 153 156 155
f 155 154 153
f 159 160 157
f 157 158 159
f 154 158 157
f 154 157 153
f 155 159 158
f 155 158 154
f 156 160 159
f 156 159 155
f 153 157 160
f 153 160 156
o DeckEdge_04
usemtl edge
v 48.860018 22.070000 -137.997742
v 49.860018 22.070000 -75.997742
v 50.139982 22.070000 -76.002258
v 49.139982 22.070000 -138.002258
v 48.860018 22.110000 -137.997742
v 49.860018 22.110000 -75.997742
v 50.139982 22.110000 -76.002258
v 49.139982 22.110000 -138.002258
f 161 164 163
f 163 162 161
f 167 168 165
f 165 166 167
f 162 166 165
f 162 165 161
f 163 167 166
f 163 166 162
f 164 168 167
f 164 167 163
f 161 165 168
f 161 168 164
o DeckEdge_05
usemtl edge
v 49.860151 22.070000 -75.993495
v 51.860151 22.070000 -32.993495
v 52.139849 22.070000 -33.006505
v 50.139849 22.070000 -76.006505
v 49.860151 22.110000 -75.993495
v 51.860151 22.110000 -32.993495
v 52.139849 22.110000 -33.006505
v 50.139849 22.110000 -76.006505
f 169 172 171
f 171 170 169
f 175 176 173
f 173 174 175
f 170 174 173
f 170 173 169
f 171 175 174
f 171 174 170
f 172 176 175
f 172 175 171
f 169 173 176
f 169 176 172
o DeckEdge_06
usemtl edge
v 51.860000 22.070000 -33.000000
v 51.860000 22.070000 72.000000
v 52.140000 22.070000 72.000000
v 52.140000 22.070000 -33.000000
v 51.860000 22.110000 -33.000000
v 51.860000 22.110000 72.000000
v 52.140000 22.110000 72.000000
v 52.140000 22.110000 -33.000000
f 177 180 179
f 179 178 177
f 183 184 181
f 181 182 183
f 178 182 181
f 178 181 177
f 179 183 182
f 179 182 178
f 180 184 183
f 180 183 179
f 177 181 184
f 177 184 180
o DeckEdge_07
usemtl edge
v 51.860224 22.070000 71.992088
v 48.860224 22.070000 124.992088
v 49.139776 22.070000 125.007912
v 52.139776 22.070000 72.007912
v 51.860224 22.110000 71.992088
v 48.860224 22.110000 124.992088
v 49.139776 22.110000 125.007912
v 52.139776 22.110000 72.007912
f 185 188 187
f 187 186 185
f 191 192 189
f 189 190 191
f 186 190 189
f 186 189 185
f 187 191 190
f 187 190 186
f 188 192 191
f 188 191 187
f 185 189 192
f 185 192 188
o DeckEdge_08
usemtl edge
v 48.863769 22.070000 124.967735
v 39.863769 22.070000 162.967735
v 40.136231 22.070000 163.032265
v 49.136231 22.070000 125.032265
v 48.863769 22.110000 124.967735
v 39.863769 22.110000 162.967735
v 40.136231 22.110000 163.032265
v 49.136231 22.110000 125.032265
f 193 196 195
f 195 194 193
f 199 200 197
f 197 198 199
f 194 198 197
f 194 197 193
f 195 199 198
f 195 198 194
f 196 200 199
f 196 199 195
f 193 197 200
f 193 200 196
o DeckEdge_09
usemtl edge
v 39.907512 22.070000 162.894900
v 14.907512 22.070000 184.894900
v 15.092488 22.070000 185.105100
v 40.092488 22.070000 163.105100
v 39.907512 22.110000 162.894900
v 14.907512 22.110000 184.894900
v 15.092488 22.110000 185.105100
v 40.092488 22.110000 163.105100
f 201 204 203
f 203 202 201
f 207 208 205
f 205 206 207
f 202 206 205
f 202 205 201
f 203 207 206
f 203 206 202
f 204 208 207
f 204 207 203
f 201 205 208
f 201 208 204
o DeckEdge_10
usemtl edge
v 15.000000 22.070000 184.860000
v -15.000000 22.070000 184.860000
v -15.000000 22.070000 185.140000
v 15.000000 22.070000 185.140000
v 15.000000 22.110000 184.860000
v -15.000000 22.110000 184.860000
v -15.000000 22.110000 185.140000
v 15.000000 22.110000 185.140000
f 209 212 211
f 211 210 209
f 215 216 213
f 213 214 215
f 210 214 213
f 210 213 209
f 211 215 214
f 211 214 210
f 212 216 215
f 212 215 211
f 209 213 216
f 209 216 212
o DeckEdge_11
usemtl edge
v -14.901005 22.070000 184.901005
v -38.901005 22.070000 160.901005
v -39.098995 22.070000 161.098995
v -15.098995 22.070000 185.098995
v -14.901005 22.110000 184.901005
v -38.901005 22.110000 160.901005
v -39.098995 22.110000 161.098995
v -15.098995 22.110000 185.098995
f 217 220 219
f 219 218 217
f 223 224 221
f 221 222 223
f 218 222 221
f 218 221 217
f 219 223 222
f 219 222 218
f 220 224 223
f 220 223 219
f 217 221 224
f 217 224 220
o DeckEdge_12
usemtl edge
v -38.863769 22.070000 160.967735
v -47.863769 22.070000 122.967735
v -48.136231 22.070000 123.032265
v -39.136231 22.070000 161.032265
v -38.863769 22.110000 160.967735
v -47.863769 22.110000 122.967735
v -48.136231 22.110000 123.032265
v -39.136231 22.110000 161.032265
f 225 228 227
f 227 226 225
f 231 232 229
f 229 230 231
f 226 230 229
f 226 229 225
f 227 231 230
f 227 230 226
f 228 232 231
f 228 231 227
f 225 229 232
f 225 232 228
o DeckEdge_13
usemtl edge
v -47.860000 22.070000 123.000000
v -47.860000 22.070000 60.000000
v -48.140000 22.070000 60.000000
v -48.140000 22.070000 123.000000
v -47.860000 22.110000 123.000000
v -47.860000 22.110000 60.000000
v -48.140000 22.110000 60.000000
v -48.140000 22.110000 123.000000
f 233 236 235
f 235 234 233
f 239 240 237
f 237 238 239
f 234 238 237
f 234 237 233
f 235 239 238
f 235 238 234
f 236 240 239
f 236 239 235
f 233 237 240
f 233 240 236
o DeckEdge_14
usemtl edge
v -47.860110 22.070000 59.994460
v -51.860110 22.070000 -41.005540
v -52.139890 22.070000 -40.994460
v -48.139890 22.070000 60.005540
v -47.860110 22.110000 59.994460
v -51.860110 22.110000 -41.005540
v -52.139890 22.110000 -40.994460
v -48.139890 22.110000 60.005540
f 241 244 243
f 243 242 241
f 247 248 245
f 245 246 247
f 242 246 245
f 242 245 241
f 243 247 246
f 243 246 242
f 244 248 247
f 244 247 243
f 241 245 248
f 241 248 244
o DeckEdge_15
usemtl edge
v -51.860000 22.070000 -41.000000
v -51.860000 22.070000 -114.000000
v -52.140000 22.070000 -114.000000
v -52.140000 22.070000 -41.000000
v -51.860000 22.110000 -41.000000
v -51.860000 22.110000 -114.000000
v -52.140000 22.110000 -114.000000
v -52.140000 22.110000 -41.000000
f 249 252 251
f 251 250 249
f 255 256 253
f 253 254 255
f 250 254 253
f 250 253 249
f 251 255 254
f 251 254 250
f 252 256 255
f 252 255 251
f 249 253 256
f 249 256 252
o DeckEdge_16
usemtl edge
v -51.861905 22.070000 -113.976984
v -42.861905 22.070000 -167.976984
v -43.138095 22.070000 -168.023016
v -52.138095 22.070000 -114.023016
v -51.861905 22.110000 -113.976984
v -42.861905 22.110000 -167.976984
v -43.138095 22.110000 -168.023016
v -52.138095 22.110000 -114.023016
f 257 260 259
f 259 258 257
f 263 264 261
f 261 262 263
f 258 262 261
f 258 261 257
f 259 263 262
f 259 262 258
f 260 264 263
f 260 263 259
f 257 261 264
f 257 264 260
o DeckEdge_17
usemtl edge
v -42.882460 22.070000 -167.923945
v -31.882460 22.070000 -184.923945
v -32.117540 22.070000 -185.076055
v -43.117540 22.070000 -168.076055
v -42.882460 22.110000 -167.923945
v -31.882460 22.110000 -184.923945
v -32.117540 22.110000 -185.076055
v -43.117540 22.110000 -168.076055
f 265 268 267
f 267 266 265
f 271 272 269
f 269 270 271
f 266 270 269
f 266 269 265
f 267 271 270
f 267 270 266
f 268 272 271
f 268 271 267
f 265 269 272
f 265 272 268
o MainRakedIsland
usemtl island
v 31.000000 22.000000 -30.000000
v 40.000000 22.000000 -33.000000
v 47.000000 22.000000 -23.000000
v 48.000000 22.000000 28.000000
v 39.000000 22.000000 39.000000
v 31.000000 22.000000 32.000000
v 32.440000 37.000000 -24.060000
v 39.820000 37.000000 -26.520000
v 45.560000 37.000000 -18.320000
v 46.380000 37.000000 23.500000
v 39.000000 37.000000 32.520000
v 32.440000 37.000000 26.780000
f 273 274 275
f 273 275 276
f 273 276 277
f 273 277 278
f 284 283 282
f 284 282 281
f 284 281 280
f 284 280 279
f 279 280 274
f 279 274 273
f 280 281 275
f 280 275 274
f 281 282 276
f 281 276 275
f 282 283 277
f 282 277 276
f 283 284 278
f 283 278 277
f 284 279 273
f 284 273 278
o IntegratedBridge
usemtl island
v 33.000000 36.600000 -17.000000
v 41.000000 36.600000 -19.000000
v 46.000000 36.600000 -12.000000
v 46.000000 36.600000 26.000000
v 38.000000 36.600000 33.000000
v 33.000000 36.600000 27.000000
v 34.080000 44.000000 -13.160000
v 40.640000 44.000000 -14.840000
v 44.740000 44.000000 -8.960000
v 44.740000 44.000000 22.960000
v 38.180000 44.000000 28.840000
v 34.080000 44.000000 23.800000
f 285 286 287
f 285 287 288
f 285 288 289
f 285 289 290
f 296 295 294
f 296 294 293
f 296 293 292
f 296 292 291
f 291 292 286
f 291 286 285
f 292 293 287
f 292 287 286
f 293 294 288
f 293 288 287
f 294 295 289
f 294 289 288
f 295 296 290
f 295 290 289
f 296 291 285
f 296 285 290
o BridgeWindowPort
usemtl glass
v 32.740000 39.150000 -8.000000
v 32.960000 39.150000 -8.000000
v 32.960000 40.850000 -8.000000
v 32.740000 40.850000 -8.000000
v 32.740000 39.150000 22.000000
v 32.960000 39.150000 22.000000
v 32.960000 40.850000 22.000000
v 32.740000 40.850000 22.000000
f 297 300 299
f 297 299 298
f 301 302 303
f 301 303 304
f 297 298 302
f 297 302 301
f 300 304 303
f 300 303 299
f 297 301 304
f 297 304 300
f 298 299 303
f 298 303 302
o BridgeWindowStarboard
usemtl glass
v 45.440000 39.150000 -8.000000
v 45.660000 39.150000 -8.000000
v 45.660000 40.850000 -8.000000
v 45.440000 40.850000 -8.000000
v 45.440000 39.150000 22.000000
v 45.660000 39.150000 22.000000
v 45.660000 40.850000 22.000000
v 45.440000 40.850000 22.000000
f 305 308 307
f 305 307 306
f 309 310 311
f 309 311 312
f 305 306 310
f 305 310 309
f 308 312 311
f 308 311 307
f 305 309 312
f 305 312 308
f 306 307 311
f 306 311 310
o BridgeWindowForward
usemtl glass
v 34.500000 39.200000 32.090000
v 43.500000 39.200000 32.090000
v 43.500000 40.800000 32.090000
v 34.500000 40.800000 32.090000
v 34.500000 39.200000 32.310000
v 43.500000 39.200000 32.310000
v 43.500000 40.800000 32.310000
v 34.500000 40.800000 32.310000
f 313 316 315
f 313 315 314
f 317 318 319
f 317 319 320
f 313 314 318
f 313 318 317
f 316 320 319
f 316 319 315
f 313 317 320
f 313 320 316
f 314 315 319
f 314 319 318
o EnclosedSensorMast
usemtl island
v 35.000000 43.700000 -3.000000
v 41.000000 43.700000 -4.000000
v 44.000000 43.700000 1.000000
v 44.000000 43.700000 19.000000
v 38.000000 43.700000 24.000000
v 35.000000 43.700000 18.000000
v 36.440000 55.000000 1.160000
v 40.520000 55.000000 0.480000
v 42.560000 55.000000 3.880000
v 42.560000 55.000000 16.120000
v 38.480000 55.000000 19.520000
v 36.440000 55.000000 15.440000
f 321 322 323
f 321 323 324
f 321 324 325
f 321 325 326
f 332 331 330
f 332 330 329
f 332 329 328
f 332 328 327
f 327 328 322
f 327 322 321
f 328 329 323
f 328 323 322
f 329 330 324
f 329 324 323
f 330 331 325
f 330 325 324
f 331 332 326
f 331 326 325
f 332 327 321
f 332 321 326
o IntegratedRadar_Port
usemtl sensor
v 34.700000 46.250000 5.500000
v 34.900000 46.250000 5.500000
v 34.900000 51.750000 5.500000
v 34.700000 51.750000 5.500000
v 34.700000 46.250000 14.500000
v 34.900000 46.250000 14.500000
v 34.900000 51.750000 14.500000
v 34.700000 51.750000 14.500000
f 333 336 335
f 333 335 334
f 337 338 339
f 337 339 340
f 333 334 338
f 333 338 337
f 336 340 339
f 336 339 335
f 333 337 340
f 333 340 336
f 334 335 339
f 334 339 338
o IntegratedRadar_Starboard
usemtl sensor
v 44.100000 46.250000 5.500000
v 44.300000 46.250000 5.500000
v 44.300000 51.750000 5.500000
v 44.100000 51.750000 5.500000
v 44.100000 46.250000 14.500000
v 44.300000 46.250000 14.500000
v 44.300000 51.750000 14.500000
v 44.100000 51.750000 14.500000
f 341 344 343
f 341 343 342
f 345 346 347
f 345 347 348
f 341 342 346
f 341 346 345
f 344 348 347
f 344 347 343
f 341 345 348
f 341 348 344
f 342 343 347
f 342 347 346
o IntegratedRadar_Fore
usemtl sensor
v 36.500000 46.250000 22.100000
v 42.500000 46.250000 22.100000
v 42.500000 51.750000 22.100000
v 36.500000 51.750000 22.100000
v 36.500000 46.250000 22.300000
v 42.500000 46.250000 22.300000
v 42.500000 51.750000 22.300000
v 36.500000 51.750000 22.300000
f 349 352 351
f 349 351 350
f 353 354 355
f 353 355 356
f 349 350 354
f 349 354 353
f 352 356 355
f 352 355 351
f 349 353 356
f 349 356 352
f 350 351 355
f 350 355 354
o IntegratedRadar_Aft
usemtl sensor
v 36.500000 46.250000 -3.100000
v 42.500000 46.250000 -3.100000
v 42.500000 51.750000 -3.100000
v 36.500000 51.750000 -3.100000
v 36.500000 46.250000 -2.900000
v 42.500000 46.250000 -2.900000
v 42.500000 51.750000 -2.900000
v 36.500000 51.750000 -2.900000
f 357 360 359
f 357 359 358
f 361 362 363
f 361 363 364
f 357 358 362
f 357 362 361
f 360 364 363
f 360 363 359
f 357 361 364
f 357 364 360
f 358 359 363
f 358 363 362
o ShipboardECM_Module_PortPanel
usemtl dark
v 35.080000 52.250000 7.500000
v 35.320000 52.250000 7.500000
v 35.320000 54.350000 7.500000
v 35.080000 54.350000 7.500000
v 35.080000 52.250000 12.500000
v 35.320000 52.250000 12.500000
v 35.320000 54.350000 12.500000
v 35.080000 54.350000 12.500000
f 365 368 367
f 365 367 366
f 369 370 371
f 369 371 372
f 365 366 370
f 365 370 369
f 368 372 371
f 368 371 367
f 365 369 372
f 365 372 368
f 366 367 371
f 366 371 370
o ShipboardECM_Module_StarboardPanel
usemtl dark
v 43.580000 52.250000 7.500000
v 43.820000 52.250000 7.500000
v 43.820000 54.350000 7.500000
v 43.580000 54.350000 7.500000
v 43.580000 52.250000 12.500000
v 43.820000 52.250000 12.500000
v 43.820000 54.350000 12.500000
v 43.580000 54.350000 12.500000
f 373 376 375
f 373 375 374
f 377 378 379
f 377 379 380
f 373 374 378
f 373 378 377
f 376 380 379
f 376 379 375
f 373 377 380
f 373 380 376
f 374 375 379
f 374 379 378
o AftAviationIsland
usemtl island
v 33.000000 22.000000 -110.000000
v 41.000000 22.000000 -112.000000
v 48.000000 22.000000 -104.000000
v 48.000000 22.000000 -74.000000
v 41.000000 22.000000 -66.000000
v 33.000000 22.000000 -69.000000
v 34.350000 33.500000 -105.800000
v 40.910000 33.500000 -107.400000
v 46.650000 33.500000 -101.000000
v 46.650000 33.500000 -77.000000
v 40.910000 33.500000 -70.600000
v 34.350000 33.500000 -73.000000
f 381 382 383
f 381 383 384
f 381 384 385
f 381 385 386
f 392 391 390
f 392 390 389
f 392 389 388
f 392 388 387
f 387 388 382
f 387 382 381
f 388 389 383
f 388 383 382
f 389 390 384
f 389 384 383
f 390 391 385
f 390 385 384
f 391 392 386
f 391 386 385
f 392 387 381
f 392 381 386
o AftAviationBridge
usemtl island
v 35.000000 33.300000 -104.000000
v 41.000000 33.300000 -105.000000
v 46.000000 33.300000 -98.000000
v 46.000000 33.300000 -78.000000
v 40.000000 33.300000 -72.000000
v 35.000000 33.300000 -76.000000
v 36.000000 39.000000 -101.120000
v 40.800000 39.000000 -101.940000
v 44.800000 39.000000 -96.200000
v 44.800000 39.000000 -79.800000
v 40.000000 39.000000 -74.880000
v 36.000000 39.000000 -78.160000
f 393 394 395
f 393 395 396
f 393 396 397
f 393 397 398
f 404 403 402
f 404 402 401
f 404 401 400
f 404 400 399
f 399 400 394
f 399 394 393
f 400 401 395
f 400 395 394
f 401 402 396
f 401 396 395
f 402 403 397
f 402 397 396
f 403 404 398
f 403 398 397
f 404 399 393
f 404 393 398
o AftAviationWindowPort
usemtl glass
v 34.740000 36.025000 -101.000000
v 34.960000 36.025000 -101.000000
v 34.960000 37.575000 -101.000000
v 34.740000 37.575000 -101.000000
v 34.740000 36.025000 -77.000000
v 34.960000 36.025000 -77.000000
v 34.960000 37.575000 -77.000000
v 34.740000 37.575000 -77.000000
f 405 408 407
f 405 407 406
f 409 410 411
f 409 411 412
f 405 406 410
f 405 410 409
f 408 412 411
f 408 411 407
f 405 409 412
f 405 412 408
f 406 407 411
f 406 411 410
o AftAviationWindowStarboard
usemtl glass
v 45.640000 36.025000 -98.000000
v 45.860000 36.025000 -98.000000
v 45.860000 37.575000 -98.000000
v 45.640000 37.575000 -98.000000
v 45.640000 36.025000 -78.000000
v 45.860000 36.025000 -78.000000
v 45.860000 37.575000 -78.000000
v 45.640000 37.575000 -78.000000
f 413 416 415
f 413 415 414
f 417 418 419
f 417 419 420
f 413 414 418
f 413 418 417
f 416 420 419
f 416 419 415
f 413 417 420
f 413 420 416
f 414 415 419
f 414 419 418
o AftAviationWindowForward
usemtl glass
v 36.000000 36.025000 -72.300000
v 44.000000 36.025000 -72.300000
v 44.000000 37.575000 -72.300000
v 36.000000 37.575000 -72.300000
v 36.000000 36.025000 -72.100000
v 44.000000 36.025000 -72.100000
v 44.000000 37.575000 -72.100000
v 36.000000 37.575000 -72.100000
f 421 424 423
f 421 423 422
f 425 426 427
f 425 427 428
f 421 422 426
f 421 426 425
f 424 428 427
f 424 427 423
f 421 425 428
f 421 428 424
f 422 423 427
f 422 427 426
o AftEnclosedMast
usemtl island
v 37.000000 38.800000 -95.000000
v 42.000000 38.800000 -96.000000
v 44.000000 38.800000 -91.000000
v 44.000000 38.800000 -83.000000
v 39.000000 38.800000 -80.000000
v 37.000000 38.800000 -84.000000
v 38.050000 44.000000 -92.900000
v 41.550000 44.000000 -93.600000
v 42.950000 44.000000 -90.100000
v 42.950000 44.000000 -84.500000
v 39.450000 44.000000 -82.400000
v 38.050000 44.000000 -85.200000
f 429 430 431
f 429 431 432
f 429 432 433
f 429 433 434
f 440 439 438
f 440 438 437
f 440 437 436
f 440 436 435
f 435 436 430
f 435 430 429
f 436 437 431
f 436 431 430
f 437 438 432
f 437 432 431
f 438 439 433
f 438 433 432
f 439 440 434
f 439 434 433
f 440 435 429
f 440 429 434
o DeckEdgeLift_1
usemtl hatch
v 43.500000 22.035000 -59.000000
v 56.500000 22.035000 -59.000000
v 56.500000 22.205000 -59.000000
v 43.500000 22.205000 -59.000000
v 43.500000 22.035000 -41.000000
v 56.500000 22.035000 -41.000000
v 56.500000 22.205000 -41.000000
v 43.500000 22.205000 -41.000000
f 441 444 443
f 441 443 442
f 445 446 447
f 445 447 448
f 441 442 446
f 441 446 445
f 444 448 447
f 444 447 443
f 441 445 448
f 441 448 444
f 442 443 447
f 442 447 446
o LiftEdge_1_-1
usemtl white
v 43.600000 22.250000 -58.690000
v 56.400000 22.250000 -58.690000
v 56.400000 22.250000 -58.910000
v 43.600000 22.250000 -58.910000
v 43.600000 22.290000 -58.690000
v 56.400000 22.290000 -58.690000
v 56.400000 22.290000 -58.910000
v 43.600000 22.290000 -58.910000
f 449 452 451
f 451 450 449
f 455 456 453
f 453 454 455
f 450 454 453
f 450 453 449
f 451 455 454
f 451 454 450
f 452 456 455
f 452 455 451
f 449 453 456
f 449 456 452
o LiftEdge_1_1
usemtl white
v 43.600000 22.250000 -41.090000
v 56.400000 22.250000 -41.090000
v 56.400000 22.250000 -41.310000
v 43.600000 22.250000 -41.310000
v 43.600000 22.290000 -41.090000
v 56.400000 22.290000 -41.090000
v 56.400000 22.290000 -41.310000
v 43.600000 22.290000 -41.310000
f 457 460 459
f 459 458 457
f 463 464 461
f 461 462 463
f 458 462 461
f 458 461 457
f 459 463 462
f 459 462 458
f 460 464 463
f 460 463 459
f 457 461 464
f 457 464 460
o DeckEdgeLift_2
usemtl hatch
v 44.500000 22.035000 60.000000
v 57.500000 22.035000 60.000000
v 57.500000 22.205000 60.000000
v 44.500000 22.205000 60.000000
v 44.500000 22.035000 78.000000
v 57.500000 22.035000 78.000000
v 57.500000 22.205000 78.000000
v 44.500000 22.205000 78.000000
f 465 468 467
f 465 467 466
f 469 470 471
f 469 471 472
f 465 466 470
f 465 470 469
f 468 472 471
f 468 471 467
f 465 469 472
f 465 472 468
f 466 467 471
f 466 471 470
o LiftEdge_2_-1
usemtl white
v 44.600000 22.250000 60.310000
v 57.400000 22.250000 60.310000
v 57.400000 22.250000 60.090000
v 44.600000 22.250000 60.090000
v 44.600000 22.290000 60.310000
v 57.400000 22.290000 60.310000
v 57.400000 22.290000 60.090000
v 44.600000 22.290000 60.090000
f 473 476 475
f 475 474 473
f 479 480 477
f 477 478 479
f 474 478 477
f 474 477 473
f 475 479 478
f 475 478 474
f 476 480 479
f 476 479 475
f 473 477 480
f 473 480 476
o LiftEdge_2_1
usemtl white
v 44.600000 22.250000 77.910000
v 57.400000 22.250000 77.910000
v 57.400000 22.250000 77.690000
v 44.600000 22.250000 77.690000
v 44.600000 22.290000 77.910000
v 57.400000 22.290000 77.910000
v 57.400000 22.290000 77.690000
v 44.600000 22.290000 77.690000
f 481 484 483
f 483 482 481
f 487 488 485
f 485 486 487
f 482 486 485
f 482 485 481
f 483 487 486
f 483 486 482
f 484 488 487
f 484 487 483
f 481 485 488
f 481 488 484
o DeckEdgeLift_3
usemtl hatch
v -54.500000 22.035000 83.000000
v -41.500000 22.035000 83.000000
v -41.500000 22.205000 83.000000
v -54.500000 22.205000 83.000000
v -54.500000 22.035000 101.000000
v -41.500000 22.035000 101.000000
v -41.500000 22.205000 101.000000
v -54.500000 22.205000 101.000000
f 489 492 491
f 489 491 490
f 493 494 495
f 493 495 496
f 489 490 494
f 489 494 493
f 492 496 495
f 492 495 491
f 489 493 496
f 489 496 492
f 490 491 495
f 490 495 494
o LiftEdge_3_-1
usemtl white
v -54.400000 22.250000 83.310000
v -41.600000 22.250000 83.310000
v -41.600000 22.250000 83.090000
v -54.400000 22.250000 83.090000
v -54.400000 22.290000 83.310000
v -41.600000 22.290000 83.310000
v -41.600000 22.290000 83.090000
v -54.400000 22.290000 83.090000
f 497 500 499
f 499 498 497
f 503 504 501
f 501 502 503
f 498 502 501
f 498 501 497
f 499 503 502
f 499 502 498
f 500 504 503
f 500 503 499
f 497 501 504
f 497 504 500
o LiftEdge_3_1
usemtl white
v -54.400000 22.250000 100.910000
v -41.600000 22.250000 100.910000
v -41.600000 22.250000 100.690000
v -54.400000 22.250000 100.690000
v -54.400000 22.290000 100.910000
v -41.600000 22.290000 100.910000
v -41.600000 22.290000 100.690000
v -54.400000 22.290000 100.690000
f 505 508 507
f 507 506 505
f 511 512 509
f 509 510 511
f 506 510 509
f 506 509 505
f 507 511 510
f 507 510 506
f 508 512 511
f 508 511 507
f 505 509 512
f 505 512 508
o DeckEdgeLift_4
usemtl hatch
v 46.500000 22.035000 -141.000000
v 59.500000 22.035000 -141.000000
v 59.500000 22.205000 -141.000000
v 46.500000 22.205000 -141.000000
v 46.500000 22.035000 -123.000000
v 59.500000 22.035000 -123.000000
v 59.500000 22.205000 -123.000000
v 46.500000 22.205000 -123.000000
f 513 516 515
f 513 515 514
f 517 518 519
f 517 519 520
f 513 514 518
f 513 518 517
f 516 520 519
f 516 519 515
f 513 517 520
f 513 520 516
f 514 515 519
f 514 519 518
o LiftEdge_4_-1
usemtl white
v 46.600000 22.250000 -140.690000
v 59.400000 22.250000 -140.690000
v 59.400000 22.250000 -140.910000
v 46.600000 22.250000 -140.910000
v 46.600000 22.290000 -140.690000
v 59.400000 22.290000 -140.690000
v 59.400000 22.290000 -140.910000
v 46.600000 22.290000 -140.910000
f 521 524 523
f 523 522 521
f 527 528 525
f 525 526 527
f 522 526 525
f 522 525 521
f 523 527 526
f 523 526 522
f 524 528 527
f 524 527 523
f 521 525 528
f 521 528 524
o LiftEdge_4_1
usemtl white
v 46.600000 22.250000 -123.090000
v 59.400000 22.250000 -123.090000
v 59.400000 22.250000 -123.310000
v 46.600000 22.250000 -123.310000
v 46.600000 22.290000 -123.090000
v 59.400000 22.290000 -123.090000
v 59.400000 22.290000 -123.310000
v 46.600000 22.290000 -123.310000
f 529 532 531
f 531 530 529
f 535 536 533
f 533 534 535
f 530 534 533
f 530 533 529
f 531 535 534
f 531 534 530
f 532 536 535
f 532 535 531
f 529 533 536
f 529 536 532
o CatapultTrack_1
usemtl gold
v -15.260000 22.130000 59.000000
v -15.260000 22.130000 157.000000
v -14.740000 22.130000 157.000000
v -14.740000 22.130000 59.000000
v -15.260000 22.170000 59.000000
v -15.260000 22.170000 157.000000
v -14.740000 22.170000 157.000000
v -14.740000 22.170000 59.000000
f 537 540 539
f 539 538 537
f 543 544 541
f 541 542 543
f 538 542 541
f 538 541 537
f 539 543 542
f 539 542 538
f 540 544 543
f 540 543 539
f 537 541 544
f 537 544 540
o CatapultDeckGuide_1
usemtl edge
v -13.830000 22.140000 59.000000
v -13.830000 22.140000 157.000000
v -13.670000 22.140000 157.000000
v -13.670000 22.140000 59.000000
v -13.830000 22.180000 59.000000
v -13.830000 22.180000 157.000000
v -13.670000 22.180000 157.000000
v -13.670000 22.180000 59.000000
f 545 548 547
f 547 546 545
f 551 552 549
f 549 550 551
f 546 550 549
f 546 549 545
f 547 551 550
f 547 550 546
f 548 552 551
f 548 551 547
f 545 549 552
f 545 552 548
o CatapultTrack_2
usemtl gold
v 7.740000 22.130000 55.000000
v 7.740000 22.130000 161.000000
v 8.260000 22.130000 161.000000
v 8.260000 22.130000 55.000000
v 7.740000 22.170000 55.000000
v 7.740000 22.170000 161.000000
v 8.260000 22.170000 161.000000
v 8.260000 22.170000 55.000000
f 553 556 555
f 555 554 553
f 559 560 557
f 557 558 559
f 554 558 557
f 554 557 553
f 555 559 558
f 555 558 554
f 556 560 559
f 556 559 555
f 553 557 560
f 553 560 556
o CatapultDeckGuide_2
usemtl edge
v 9.170000 22.140000 55.000000
v 9.170000 22.140000 161.000000
v 9.330000 22.140000 161.000000
v 9.330000 22.140000 55.000000
v 9.170000 22.180000 55.000000
v 9.170000 22.180000 161.000000
v 9.330000 22.180000 161.000000
v 9.330000 22.180000 55.000000
f 561 564 563
f 563 562 561
f 567 568 565
f 565 566 567
f 562 566 565
f 562 565 561
f 563 567 566
f 563 566 562
f 564 568 567
f 564 567 563
f 561 565 568
f 561 568 564
o CatapultTrack_3
usemtl gold
v 22.740383 22.130000 52.014110
v 27.740383 22.130000 144.014110
v 28.259617 22.130000 143.985890
v 23.259617 22.130000 51.985890
v 22.740383 22.170000 52.014110
v 27.740383 22.170000 144.014110
v 28.259617 22.170000 143.985890
v 23.259617 22.170000 51.985890
f 569 572 571
f 571 570 569
f 575 576 573
f 573 574 575
f 570 574 573
f 570 573 569
f 571 575 574
f 571 574 570
f 572 576 575
f 572 575 571
f 569 573 576
f 569 576 572
o CatapultDeckGuide_3
usemtl edge
v 24.170118 22.140000 52.004341
v 29.170118 22.140000 144.004341
v 29.329882 22.140000 143.995659
v 24.329882 22.140000 51.995659
v 24.170118 22.180000 52.004341
v 29.170118 22.180000 144.004341
v 29.329882 22.180000 143.995659
v 24.329882 22.180000 51.995659
f 577 580 579
f 579 578 577
f 583 584 581
f 581 582 583
f 578 582 581
f 578 581 577
f 579 583 582
f 579 582 578
f 580 584 583
f 580 583 579
f 577 581 584
f 577 584 580
o AngledLandingEdge_-1
usemtl white
v -38.469782 22.150000 -154.991394
v -27.469782 22.150000 62.008606
v -27.130218 22.150000 61.991394
v -38.130218 22.150000 -155.008606
v -38.469782 22.190000 -154.991394
v -27.469782 22.190000 62.008606
v -27.130218 22.190000 61.991394
v -38.130218 22.190000 -155.008606
f 585 588 587
f 587 586 585
f 591 592 589
f 589 590 591
f 586 590 589
f 586 589 585
f 587 591 590
f 587 590 586
f 588 592 591
f 588 591 587
f 585 589 592
f 585 592 588
o AngledLandingEdge_1
usemtl white
v -15.869782 22.150000 -154.991394
v -4.869782 22.150000 62.008606
v -4.530218 22.150000 61.991394
v -15.530218 22.150000 -155.008606
v -15.869782 22.190000 -154.991394
v -4.869782 22.190000 62.008606
v -4.530218 22.190000 61.991394
v -15.530218 22.190000 -155.008606
f 593 596 595
f 595 594 593
f 599 600 597
f 597 598 599
f 594 598 597
f 594 597 593
f 595 599 598
f 595 598 594
f 596 600 599
f 596 599 595
f 593 597 600
f 593 600 596
o LandingCentreline_01
usemtl white
v -27.135103 22.160000 -153.319631
v -26.805103 22.160000 -146.809631
v -26.365667 22.160000 -146.831907
v -26.695667 22.160000 -153.341907
v -27.135103 22.200000 -153.319631
v -26.805103 22.200000 -146.809631
v -26.365667 22.200000 -146.831907
v -26.695667 22.200000 -153.341907
f 601 604 603
f 603 602 601
f 607 608 605
f 605 606 607
f 602 606 605
f 602 605 601
f 603 607 606
f 603 606 602
f 604 608 607
f 604 607 603
f 601 605 608
f 601 608 604
o LandingCentreline_02
usemtl white
v -26.288949 22.160000 -136.627324
v -25.958949 22.160000 -130.117324
v -25.519513 22.160000 -130.139599
v -25.849513 22.160000 -136.649599
v -26.288949 22.200000 -136.627324
v -25.958949 22.200000 -130.117324
v -25.519513 22.200000 -130.139599
v -25.849513 22.200000 -136.649599
f 609 612 611
f 611 610 609
f 615 616 613
f 613 614 615
f 610 614 613
f 610 613 609
f 611 615 614
f 611 614 610
f 612 616 615
f 612 615 611
f 609 613 616
f 609 616 612
o LandingCentreline_03
usemtl white
v -25.442795 22.160000 -119.935016
v -25.112795 22.160000 -113.425016
v -24.673359 22.160000 -113.447292
v -25.003359 22.160000 -119.957292
v -25.442795 22.200000 -119.935016
v -25.112795 22.200000 -113.425016
v -24.673359 22.200000 -113.447292
v -25.003359 22.200000 -119.957292
f 617 620 619
f 619 618 617
f 623 624 621
f 621 622 623
f 618 622 621
f 618 621 617
f 619 623 622
f 619 622 618
f 620 624 623
f 620 623 619
f 617 621 624
f 617 624 620
o LandingCentreline_04
usemtl white
v -24.596641 22.160000 -103.242708
v -24.266641 22.160000 -96.732708
v -23.827205 22.160000 -96.754984
v -24.157205 22.160000 -103.264984
v -24.596641 22.200000 -103.242708
v -24.266641 22.200000 -96.732708
v -23.827205 22.200000 -96.754984
v -24.157205 22.200000 -103.264984
f 625 628 627
f 627 626 625
f 631 632 629
f 629 630 631
f 626 630 629
f 626 629 625
f 627 631 630
f 627 630 626
f 628 632 631
f 628 631 627
f 625 629 632
f 625 632 628
o LandingCentreline_05
usemtl white
v -23.750487 22.160000 -86.550401
v -23.420487 22.160000 -80.040401
v -22.981051 22.160000 -80.062676
v -23.311051 22.160000 -86.572676
v -23.750487 22.200000 -86.550401
v -23.420487 22.200000 -80.040401
v -22.981051 22.200000 -80.062676
v -23.311051 22.200000 -86.572676
f 633 636 635
f 635 634 633
f 639 640 637
f 637 638 639
f 634 638 637
f 634 637 633
f 635 639 638
f 635 638 634
f 636 640 639
f 636 639 635
f 633 637 640
f 633 640 636
o LandingCentreline_06
usemtl white
v -22.904333 22.160000 -69.858093
v -22.574333 22.160000 -63.348093
v -22.134897 22.160000 -63.370369
v -22.464897 22.160000 -69.880369
v -22.904333 22.200000 -69.858093
v -22.574333 22.200000 -63.348093
v -22.134897 22.200000 -63.370369
v -22.464897 22.200000 -69.880369
f 641 644 643
f 643 642 641
f 647 648 645
f 645 646 647
f 642 646 645
f 642 645 641
f 643 647 646
f 643 646 642
f 644 648 647
f 644 647 643
f 641 645 648
f 641 648 644
o LandingCentreline_07
usemtl white
v -22.058179 22.160000 -53.165785
v -21.728179 22.160000 -46.655785
v -21.288744 22.160000 -46.678061
v -21.618744 22.160000 -53.188061
v -22.058179 22.200000 -53.165785
v -21.728179 22.200000 -46.655785
v -21.288744 22.200000 -46.678061
v -21.618744 22.200000 -53.188061
f 649 652 651
f 651 650 649
f 655 656 653
f 653 654 655
f 650 654 653
f 650 653 649
f 651 655 654
f 651 654 650
f 652 656 655
f 652 655 651
f 649 653 656
f 649 656 652
o LandingCentreline_08
usemtl white
v -21.212026 22.160000 -36.473478
v -20.882026 22.160000 -29.963478
v -20.442590 22.160000 -29.985753
v -20.772590 22.160000 -36.495753
v -21.212026 22.200000 -36.473478
v -20.882026 22.200000 -29.963478
v -20.442590 22.200000 -29.985753
v -20.772590 22.200000 -36.495753
f 657 660 659
f 659 658 657
f 663 664 661
f 661 662 663
f 658 662 661
f 658 661 657
f 659 663 662
f 659 662 658
f 660 664 663
f 660 663 659
f 657 661 664
f 657 664 660
o LandingCentreline_09
usemtl white
v -20.365872 22.160000 -19.781170
v -20.035872 22.160000 -13.271170
v -19.596436 22.160000 -13.293445
v -19.926436 22.160000 -19.803445
v -20.365872 22.200000 -19.781170
v -20.035872 22.200000 -13.271170
v -19.596436 22.200000 -13.293445
v -19.926436 22.200000 -19.803445
f 665 668 667
f 667 666 665
f 671 672 669
f 669 670 671
f 666 670 669
f 666 669 665
f 667 671 670
f 667 670 666
f 668 672 671
f 668 671 667
f 665 669 672
f 665 672 668
o LandingCentreline_10
usemtl white
v -19.519718 22.160000 -3.088862
v -19.189718 22.160000 3.421138
v -18.750282 22.160000 3.398862
v -19.080282 22.160000 -3.111138
v -19.519718 22.200000 -3.088862
v -19.189718 22.200000 3.421138
v -18.750282 22.200000 3.398862
v -19.080282 22.200000 -3.111138
f 673 676 675
f 675 674 673
f 679 680 677
f 677 678 679
f 674 678 677
f 674 677 673
f 675 679 678
f 675 678 674
f 676 680 679
f 676 679 675
f 673 677 680
f 673 680 676
o LandingCentreline_11
usemtl white
v -18.673564 22.160000 13.603445
v -18.343564 22.160000 20.113445
v -17.904128 22.160000 20.091170
v -18.234128 22.160000 13.581170
v -18.673564 22.200000 13.603445
v -18.343564 22.200000 20.113445
v -17.904128 22.200000 20.091170
v -18.234128 22.200000 13.581170
f 681 684 683
f 683 682 681
f 687 688 685
f 685 686 687
f 682 686 685
f 682 685 681
f 683 687 686
f 683 686 682
f 684 688 687
f 684 687 683
f 681 685 688
f 681 688 684
o LandingCentreline_12
usemtl white
v -17.827410 22.160000 30.295753
v -17.497410 22.160000 36.805753
v -17.057974 22.160000 36.783478
v -17.387974 22.160000 30.273478
v -17.827410 22.200000 30.295753
v -17.497410 22.200000 36.805753
v -17.057974 22.200000 36.783478
v -17.387974 22.200000 30.273478
f 689 692 691
f 691 690 689
f 695 696 693
f 693 694 695
f 690 694 693
f 690 693 689
f 691 695 694
f 691 694 690
f 692 696 695
f 692 695 691
f 689 693 696
f 689 696 692
o LandingCentreline_13
usemtl white
v -16.981256 22.160000 46.988061
v -16.651256 22.160000 53.498061
v -16.211821 22.160000 53.475785
v -16.541821 22.160000 46.965785
v -16.981256 22.200000 46.988061
v -16.651256 22.200000 53.498061
v -16.211821 22.200000 53.475785
v -16.541821 22.200000 46.965785
f 697 700 699
f 699 698 697
f 703 704 701
f 701 702 703
f 698 702 701
f 698 701 697
f 699 703 702
f 699 702 698
f 700 704 703
f 700 703 699
f 697 701 704
f 697 704 700
o ArrestingWire_1
usemtl dark
v -34.590000 22.190000 -87.650000
v -12.590000 22.190000 -87.650000
v -12.590000 22.190000 -87.810000
v -34.590000 22.190000 -87.810000
v -34.590000 22.230000 -87.650000
v -12.590000 22.230000 -87.650000
v -12.590000 22.230000 -87.810000
v -34.590000 22.230000 -87.810000
f 705 708 707
f 707 706 705
f 711 712 709
f 709 710 711
f 706 710 709
f 706 709 705
f 707 711 710
f 707 710 706
f 708 712 711
f 708 711 707
f 705 709 712
f 705 712 708
o ArrestingWire_2
usemtl dark
v -33.710000 22.190000 -70.290000
v -11.710000 22.190000 -70.290000
v -11.710000 22.190000 -70.450000
v -33.710000 22.190000 -70.450000
v -33.710000 22.230000 -70.290000
v -11.710000 22.230000 -70.290000
v -11.710000 22.230000 -70.450000
v -33.710000 22.230000 -70.450000
f 713 716 715
f 715 714 713
f 719 720 717
f 717 718 719
f 714 718 717
f 714 717 713
f 715 719 718
f 715 718 714
f 716 720 719
f 716 719 715
f 713 717 720
f 713 720 716
o ArrestingWire_3
usemtl dark
v -32.830000 22.190000 -52.930000
v -10.830000 22.190000 -52.930000
v -10.830000 22.190000 -53.090000
v -32.830000 22.190000 -53.090000
v -32.830000 22.230000 -52.930000
v -10.830000 22.230000 -52.930000
v -10.830000 22.230000 -53.090000
v -32.830000 22.230000 -53.090000
f 721 724 723
f 723 722 721
f 727 728 725
f 725 726 727
f 722 726 725
f 722 725 721
f 723 727 726
f 723 726 722
f 724 728 727
f 724 727 723
f 721 725 728
f 721 728 724
o ArrestingWire_4
usemtl dark
v -31.950000 22.190000 -35.570000
v -9.950000 22.190000 -35.570000
v -9.950000 22.190000 -35.730000
v -31.950000 22.190000 -35.730000
v -31.950000 22.230000 -35.570000
v -9.950000 22.230000 -35.570000
v -9.950000 22.230000 -35.730000
v -31.950000 22.230000 -35.730000
f 729 732 731
f 731 730 729
f 735 736 733
f 733 734 735
f 730 734 733
f 730 733 729
f 731 735 734
f 731 734 730
f 732 736 735
f 732 735 731
f 729 733 736
f 729 736 732
o AftVTOL_HeloSpot_1
usemtl hatch
v 10.500000 22.010000 -168.000000
v 9.986093 22.010000 -164.755322
v 8.494678 22.010000 -161.828255
v 6.171745 22.010000 -159.505322
v 3.244678 22.010000 -158.013907
v 0.000000 22.010000 -157.500000
v -3.244678 22.010000 -158.013907
v -6.171745 22.010000 -159.505322
v -8.494678 22.010000 -161.828255
v -9.986093 22.010000 -164.755322
v -10.500000 22.010000 -168.000000
v -9.986093 22.010000 -171.244678
v -8.494678 22.010000 -174.171745
v -6.171745 22.010000 -176.494678
v -3.244678 22.010000 -177.986093
v -0.000000 22.010000 -178.500000
v 3.244678 22.010000 -177.986093
v 6.171745 22.010000 -176.494678
v 8.494678 22.010000 -174.171745
v 9.986093 22.010000 -171.244678
v 10.500000 22.080000 -168.000000
v 9.986093 22.080000 -164.755322
v 8.494678 22.080000 -161.828255
v 6.171745 22.080000 -159.505322
v 3.244678 22.080000 -158.013907
v 0.000000 22.080000 -157.500000
v -3.244678 22.080000 -158.013907
v -6.171745 22.080000 -159.505322
v -8.494678 22.080000 -161.828255
v -9.986093 22.080000 -164.755322
v -10.500000 22.080000 -168.000000
v -9.986093 22.080000 -171.244678
v -8.494678 22.080000 -174.171745
v -6.171745 22.080000 -176.494678
v -3.244678 22.080000 -177.986093
v -0.000000 22.080000 -178.500000
v 3.244678 22.080000 -177.986093
v 6.171745 22.080000 -176.494678
v 8.494678 22.080000 -174.171745
v 9.986093 22.080000 -171.244678
f 756 737 738
f 756 738 739
f 756 739 740
f 756 740 741
f 756 741 742
f 756 742 743
f 756 743 744
f 756 744 745
f 756 745 746
f 756 746 747
f 756 747 748
f 756 748 749
f 756 749 750
f 756 750 751
f 756 751 752
f 756 752 753
f 756 753 754
f 754 755 756
f 758 757 776
f 759 758 776
f 760 759 776
f 761 760 776
f 762 761 776
f 763 762 776
f 764 763 776
f 765 764 776
f 766 765 776
f 767 766 776
f 768 767 776
f 769 768 776
f 770 769 776
f 771 770 776
f 772 771 776
f 773 772 776
f 774 773 776
f 776 775 774
f 737 757 758
f 737 758 738
f 738 758 759
f 738 759 739
f 739 759 760
f 739 760 740
f 740 760 761
f 740 761 741
f 741 761 762
f 741 762 742
f 742 762 763
f 742 763 743
f 743 763 764
f 743 764 744
f 744 764 765
f 744 765 745
f 745 765 766
f 745 766 746
f 746 766 767
f 746 767 747
f 747 767 768
f 747 768 748
f 748 768 769
f 748 769 749
f 749 769 770
f 749 770 750
f 750 770 771
f 750 771 751
f 751 771 772
f 751 772 752
f 752 772 773
f 752 773 753
f 753 773 774
f 753 774 754
f 754 774 775
f 754 775 755
f 755 775 776
f 755 776 756
f 756 776 757
f 756 757 737
o AftSpot_1_HStem_-1
usemtl white
v -5.079456 22.120000 -170.253159
v 3.723872 22.120000 -172.124364
v 3.624074 22.120000 -172.593875
v -5.179254 22.120000 -170.722669
v -5.079456 22.160000 -170.253159
v 3.723872 22.160000 -172.124364
v 3.624074 22.160000 -172.593875
v -5.179254 22.160000 -170.722669
f 777 780 779
f 779 778 777
f 783 784 781
f 781 782 783
f 778 782 781
f 778 781 777
f 779 783 782
f 779 782 778
f 780 784 783
f 780 783 779
f 777 781 784
f 777 784 780
o AftSpot_1_HStem_1
usemtl white
v -3.624074 22.120000 -163.406125
v 5.179254 22.120000 -165.277331
v 5.079456 22.120000 -165.746841
v -3.723872 22.120000 -163.875636
v -3.624074 22.160000 -163.406125
v 5.179254 22.160000 -165.277331
v 5.079456 22.160000 -165.746841
v -3.723872 22.160000 -163.875636
f 785 788 787
f 787 786 785
f 791 792 789
f 789 790 791
f 786 790 789
f 786 789 785
f 787 791 790
f 787 790 786
f 788 792 791
f 788 791 787
f 785 789 792
f 785 792 788
o AftSpot_1_HBar
usemtl white
v -0.962446 22.130000 -171.373618
v 0.492935 22.130000 -164.526585
v 0.962446 22.130000 -164.626382
v -0.492935 22.130000 -171.473415
v -0.962446 22.170000 -171.373618
v 0.492935 22.170000 -164.526585
v 0.962446 22.170000 -164.626382
v -0.492935 22.170000 -171.473415
f 793 796 795
f 795 794 793
f 799 800 797
f 797 798 799
f 794 798 797
f 794 797 793
f 795 799 798
f 795 798 794
f 796 800 799
f 796 799 795
f 793 797 800
f 793 800 796
o AftVTOL_HeloSpot_2
usemtl hatch
v 26.500000 22.010000 -143.000000
v 25.986093 22.010000 -139.755322
v 24.494678 22.010000 -136.828255
v 22.171745 22.010000 -134.505322
v 19.244678 22.010000 -133.013907
v 16.000000 22.010000 -132.500000
v 12.755322 22.010000 -133.013907
v 9.828255 22.010000 -134.505322
v 7.505322 22.010000 -136.828255
v 6.013907 22.010000 -139.755322
v 5.500000 22.010000 -143.000000
v 6.013907 22.010000 -146.244678
v 7.505322 22.010000 -149.171745
v 9.828255 22.010000 -151.494678
v 12.755322 22.010000 -152.986093
v 16.000000 22.010000 -153.500000
v 19.244678 22.010000 -152.986093
v 22.171745 22.010000 -151.494678
v 24.494678 22.010000 -149.171745
v 25.986093 22.010000 -146.244678
v 26.500000 22.080000 -143.000000
v 25.986093 22.080000 -139.755322
v 24.494678 22.080000 -136.828255
v 22.171745 22.080000 -134.505322
v 19.244678 22.080000 -133.013907
v 16.000000 22.080000 -132.500000
v 12.755322 22.080000 -133.013907
v 9.828255 22.080000 -134.505322
v 7.505322 22.080000 -136.828255
v 6.013907 22.080000 -139.755322
v 5.500000 22.080000 -143.000000
v 6.013907 22.080000 -146.244678
v 7.505322 22.080000 -149.171745
v 9.828255 22.080000 -151.494678
v 12.755322 22.080000 -152.986093
v 16.000000 22.080000 -153.500000
v 19.244678 22.080000 -152.986093
v 22.171745 22.080000 -151.494678
v 24.494678 22.080000 -149.171745
v 25.986093 22.080000 -146.244678
f 820 801 802
f 820 802 803
f 820 803 804
f 820 804 805
f 820 805 806
f 820 806 807
f 820 807 808
f 820 808 809
f 820 809 810
f 820 810 811
f 820 811 812
f 820 812 813
f 820 813 814
f 820 814 815
f 820 815 816
f 820 816 817
f 820 817 818
f 818 819 820
f 822 821 840
f 823 822 840
f 824 823 840
f 825 824 840
f 826 825 840
f 827 826 840
f 828 827 840
f 829 828 840
f 830 829 840
f 831 830 840
f 832 831 840
f 833 832 840
f 834 833 840
f 835 834 840
f 836 835 840
f 837 836 840
f 838 837 840
f 840 839 838
f 801 821 822
f 801 822 802
f 802 822 823
f 802 823 803
f 803 823 824
f 803 824 804
f 804 824 825
f 804 825 805
f 805 825 826
f 805 826 806
f 806 826 827
f 806 827 807
f 807 827 828
f 807 828 808
f 808 828 829
f 808 829 809
f 809 829 830
f 809 830 810
f 810 830 831
f 810 831 811
f 811 831 832
f 811 832 812
f 812 832 833
f 812 833 813
f 813 833 834
f 813 834 814
f 814 834 835
f 814 835 815
f 815 835 836
f 815 836 816
f 816 836 837
f 816 837 817
f 817 837 838
f 817 838 818
f 818 838 839
f 818 839 819
f 819 839 840
f 819 840 820
f 820 840 821
f 820 821 801
o AftSpot_2_HStem_-1
usemtl white
v 10.920544 22.120000 -145.253159
v 19.723872 22.120000 -147.124364
v 19.624074 22.120000 -147.593875
v 10.820746 22.120000 -145.722669
v 10.920544 22.160000 -145.253159
v 19.723872 22.160000 -147.124364
v 19.624074 22.160000 -147.593875
v 10.820746 22.160000 -145.722669
f 841 844 843
f 843 842 841
f 847 848 845
f 845 846 847
f 842 846 845
f 842 845 841
f 843 847 846
f 843 846 842
f 844 848 847
f 844 847 843
f 841 845 848
f 841 848 844
o AftSpot_2_HStem_1
usemtl white
v 12.375926 22.120000 -138.406125
v 21.179254 22.120000 -140.277331
v 21.079456 22.120000 -140.746841
v 12.276128 22.120000 -138.875636
v 12.375926 22.160000 -138.406125
v 21.179254 22.160000 -140.277331
v 21.079456 22.160000 -140.746841
v 12.276128 22.160000 -138.875636
f 849 852 851
f 851 850 849
f 855 856 853
f 853 854 855
f 850 854 853
f 850 853 849
f 851 855 854
f 851 854 850
f 852 856 855
f 852 855 851
f 849 853 856
f 849 856 852
o AftSpot_2_HBar
usemtl white
v 15.037554 22.130000 -146.373618
v 16.492935 22.130000 -139.526585
v 16.962446 22.130000 -139.626382
v 15.507065 22.130000 -146.473415
v 15.037554 22.170000 -146.373618
v 16.492935 22.170000 -139.526585
v 16.962446 22.170000 -139.626382
v 15.507065 22.170000 -146.473415
f 857 860 859
f 859 858 857
f 863 864 861
f 861 862 863
f 858 862 861
f 858 861 857
f 859 863 862
f 859 862 858
f 860 864 863
f 860 863 859
f 857 861 864
f 857 864 860
o AftVTOL_HeloSpot_3
usemtl hatch
v 10.500000 22.010000 -118.000000
v 9.986093 22.010000 -114.755322
v 8.494678 22.010000 -111.828255
v 6.171745 22.010000 -109.505322
v 3.244678 22.010000 -108.013907
v 0.000000 22.010000 -107.500000
v -3.244678 22.010000 -108.013907
v -6.171745 22.010000 -109.505322
v -8.494678 22.010000 -111.828255
v -9.986093 22.010000 -114.755322
v -10.500000 22.010000 -118.000000
v -9.986093 22.010000 -121.244678
v -8.494678 22.010000 -124.171745
v -6.171745 22.010000 -126.494678
v -3.244678 22.010000 -127.986093
v -0.000000 22.010000 -128.500000
v 3.244678 22.010000 -127.986093
v 6.171745 22.010000 -126.494678
v 8.494678 22.010000 -124.171745
v 9.986093 22.010000 -121.244678
v 10.500000 22.080000 -118.000000
v 9.986093 22.080000 -114.755322
v 8.494678 22.080000 -111.828255
v 6.171745 22.080000 -109.505322
v 3.244678 22.080000 -108.013907
v 0.000000 22.080000 -107.500000
v -3.244678 22.080000 -108.013907
v -6.171745 22.080000 -109.505322
v -8.494678 22.080000 -111.828255
v -9.986093 22.080000 -114.755322
v -10.500000 22.080000 -118.000000
v -9.986093 22.080000 -121.244678
v -8.494678 22.080000 -124.171745
v -6.171745 22.080000 -126.494678
v -3.244678 22.080000 -127.986093
v -0.000000 22.080000 -128.500000
v 3.244678 22.080000 -127.986093
v 6.171745 22.080000 -126.494678
v 8.494678 22.080000 -124.171745
v 9.986093 22.080000 -121.244678
f 884 865 866
f 884 866 867
f 884 867 868
f 884 868 869
f 884 869 870
f 884 870 871
f 884 871 872
f 884 872 873
f 884 873 874
f 884 874 875
f 884 875 876
f 884 876 877
f 884 877 878
f 884 878 879
f 884 879 880
f 884 880 881
f 884 881 882
f 882 883 884
f 886 885 904
f 887 886 904
f 888 887 904
f 889 888 904
f 890 889 904
f 891 890 904
f 892 891 904
f 893 892 904
f 894 893 904
f 895 894 904
f 896 895 904
f 897 896 904
f 898 897 904
f 899 898 904
f 900 899 904
f 901 900 904
f 902 901 904
f 904 903 902
f 865 885 886
f 865 886 866
f 866 886 887
f 866 887 867
f 867 887 888
f 867 888 868
f 868 888 889
f 868 889 869
f 869 889 890
f 869 890 870
f 870 890 891
f 870 891 871
f 871 891 892
f 871 892 872
f 872 892 893
f 872 893 873
f 873 893 894
f 873 894 874
f 874 894 895
f 874 895 875
f 875 895 896
f 875 896 876
f 876 896 897
f 876 897 877
f 877 897 898
f 877 898 878
f 878 898 899
f 878 899 879
f 879 899 900
f 879 900 880
f 880 900 901
f 880 901 881
f 881 901 902
f 881 902 882
f 882 902 903
f 882 903 883
f 883 903 904
f 883 904 884
f 884 904 885
f 884 885 865
o AftSpot_3_HStem_-1
usemtl white
v -5.079456 22.120000 -120.253159
v 3.723872 22.120000 -122.124364
v 3.624074 22.120000 -122.593875
v -5.179254 22.120000 -120.722669
v -5.079456 22.160000 -120.253159
v 3.723872 22.160000 -122.124364
v 3.624074 22.160000 -122.593875
v -5.179254 22.160000 -120.722669
f 905 908 907
f 907 906 905
f 911 912 909
f 909 910 911
f 906 910 909
f 906 909 905
f 907 911 910
f 907 910 906
f 908 912 911
f 908 911 907
f 905 909 912
f 905 912 908
o AftSpot_3_HStem_1
usemtl white
v -3.624074 22.120000 -113.406125
v 5.179254 22.120000 -115.277331
v 5.079456 22.120000 -115.746841
v -3.723872 22.120000 -113.875636
v -3.624074 22.160000 -113.406125
v 5.179254 22.160000 -115.277331
v 5.079456 22.160000 -115.746841
v -3.723872 22.160000 -113.875636
f 913 916 915
f 915 914 913
f 919 920 917
f 917 918 919
f 914 918 917
f 914 917 913
f 915 919 918
f 915 918 914
f 916 920 919
f 916 919 915
f 913 917 920
f 913 920 916
o AftSpot_3_HBar
usemtl white
v -0.962446 22.130000 -121.373618
v 0.492935 22.130000 -114.526585
v 0.962446 22.130000 -114.626382
v -0.492935 22.130000 -121.473415
v -0.962446 22.170000 -121.373618
v 0.492935 22.170000 -114.526585
v 0.962446 22.170000 -114.626382
v -0.492935 22.170000 -121.473415
f 921 924 923
f 923 922 921
f 927 928 925
f 925 926 927
f 922 926 925
f 922 925 921
f 923 927 926
f 923 926 922
f 924 928 927
f 924 927 923
f 921 925 928
f 921 928 924
o AftVTOL_HeloSpot_4
usemtl hatch
v 26.500000 22.010000 -93.000000
v 25.986093 22.010000 -89.755322
v 24.494678 22.010000 -86.828255
v 22.171745 22.010000 -84.505322
v 19.244678 22.010000 -83.013907
v 16.000000 22.010000 -82.500000
v 12.755322 22.010000 -83.013907
v 9.828255 22.010000 -84.505322
v 7.505322 22.010000 -86.828255
v 6.013907 22.010000 -89.755322
v 5.500000 22.010000 -93.000000
v 6.013907 22.010000 -96.244678
v 7.505322 22.010000 -99.171745
v 9.828255 22.010000 -101.494678
v 12.755322 22.010000 -102.986093
v 16.000000 22.010000 -103.500000
v 19.244678 22.010000 -102.986093
v 22.171745 22.010000 -101.494678
v 24.494678 22.010000 -99.171745
v 25.986093 22.010000 -96.244678
v 26.500000 22.080000 -93.000000
v 25.986093 22.080000 -89.755322
v 24.494678 22.080000 -86.828255
v 22.171745 22.080000 -84.505322
v 19.244678 22.080000 -83.013907
v 16.000000 22.080000 -82.500000
v 12.755322 22.080000 -83.013907
v 9.828255 22.080000 -84.505322
v 7.505322 22.080000 -86.828255
v 6.013907 22.080000 -89.755322
v 5.500000 22.080000 -93.000000
v 6.013907 22.080000 -96.244678
v 7.505322 22.080000 -99.171745
v 9.828255 22.080000 -101.494678
v 12.755322 22.080000 -102.986093
v 16.000000 22.080000 -103.500000
v 19.244678 22.080000 -102.986093
v 22.171745 22.080000 -101.494678
v 24.494678 22.080000 -99.171745
v 25.986093 22.080000 -96.244678
f 948 929 930
f 948 930 931
f 948 931 932
f 948 932 933
f 948 933 934
f 948 934 935
f 948 935 936
f 948 936 937
f 948 937 938
f 948 938 939
f 948 939 940
f 948 940 941
f 948 941 942
f 948 942 943
f 948 943 944
f 948 944 945
f 948 945 946
f 946 947 948
f 950 949 968
f 951 950 968
f 952 951 968
f 953 952 968
f 954 953 968
f 955 954 968
f 956 955 968
f 957 956 968
f 958 957 968
f 959 958 968
f 960 959 968
f 961 960 968
f 962 961 968
f 963 962 968
f 964 963 968
f 965 964 968
f 966 965 968
f 968 967 966
f 929 949 950
f 929 950 930
f 930 950 951
f 930 951 931
f 931 951 952
f 931 952 932
f 932 952 953
f 932 953 933
f 933 953 954
f 933 954 934
f 934 954 955
f 934 955 935
f 935 955 956
f 935 956 936
f 936 956 957
f 936 957 937
f 937 957 958
f 937 958 938
f 938 958 959
f 938 959 939
f 939 959 960
f 939 960 940
f 940 960 961
f 940 961 941
f 941 961 962
f 941 962 942
f 942 962 963
f 942 963 943
f 943 963 964
f 943 964 944
f 944 964 965
f 944 965 945
f 945 965 966
f 945 966 946
f 946 966 967
f 946 967 947
f 947 967 968
f 947 968 948
f 948 968 949
f 948 949 929
o AftSpot_4_HStem_-1
usemtl white
v 10.920544 22.120000 -95.253159
v 19.723872 22.120000 -97.124364
v 19.624074 22.120000 -97.593875
v 10.820746 22.120000 -95.722669
v 10.920544 22.160000 -95.253159
v 19.723872 22.160000 -97.124364
v 19.624074 22.160000 -97.593875
v 10.820746 22.160000 -95.722669
f 969 972 971
f 971 970 969
f 975 976 973
f 973 974 975
f 970 974 973
f 970 973 969
f 971 975 974
f 971 974 970
f 972 976 975
f 972 975 971
f 969 973 976
f 969 976 972
o AftSpot_4_HStem_1
usemtl white
v 12.375926 22.120000 -88.406125
v 21.179254 22.120000 -90.277331
v 21.079456 22.120000 -90.746841
v 12.276128 22.120000 -88.875636
v 12.375926 22.160000 -88.406125
v 21.179254 22.160000 -90.277331
v 21.079456 22.160000 -90.746841
v 12.276128 22.160000 -88.875636
f 977 980 979
f 979 978 977
f 983 984 981
f 981 982 983
f 978 982 981
f 978 981 977
f 979 983 982
f 979 982 978
f 980 984 983
f 980 983 979
f 977 981 984
f 977 984 980
o AftSpot_4_HBar
usemtl white
v 15.037554 22.130000 -96.373618
v 16.492935 22.130000 -89.526585
v 16.962446 22.130000 -89.626382
v 15.507065 22.130000 -96.473415
v 15.037554 22.170000 -96.373618
v 16.492935 22.170000 -89.526585
v 16.962446 22.170000 -89.626382
v 15.507065 22.170000 -96.473415
f 985 988 987
f 987 986 985
f 991 992 989
f 989 990 991
f 986 990 989
f 986 989 985
f 987 991 990
f 987 990 986
f 988 992 991
f 988 991 987
f 985 989 992
f 985 992 988
o OutboardFairing_1
usemtl hull
v -47.000000 17.800000 102.000000
v -54.000000 17.800000 102.000000
v -58.000000 17.800000 106.000000
v -58.000000 17.800000 112.000000
v -54.000000 17.800000 116.000000
v -47.000000 17.800000 116.000000
v -47.000000 21.500000 102.000000
v -54.000000 21.500000 102.000000
v -58.000000 21.500000 106.000000
v -58.000000 21.500000 112.000000
v -54.000000 21.500000 116.000000
v -47.000000 21.500000 116.000000
f 993 998 997
f 993 997 996
f 993 996 995
f 995 994 993
f 1003 1004 999
f 1002 1003 999
f 1001 1002 999
f 999 1000 1001
f 994 1000 999
f 994 999 993
f 995 1001 1000
f 995 1000 994
f 996 1002 1001
f 996 1001 995
f 997 1003 1002
f 997 1002 996
f 998 1004 1003
f 998 1003 997
f 993 999 1004
f 993 1004 998
o LaserEnclosure_1
usemtl island
v -55.000000 21.500000 105.500000
v -49.000000 21.500000 105.500000
v -48.300000 21.500000 109.000000
v -49.000000 21.500000 112.500000
v -55.000000 21.500000 112.500000
v -55.700000 21.500000 109.000000
v -53.770000 25.600000 106.795000
v -50.230000 25.600000 106.795000
v -49.817000 25.600000 109.000000
v -50.230000 25.600000 111.205000
v -53.770000 25.600000 111.205000
v -54.183000 25.600000 109.000000
f 1005 1006 1007
f 1005 1007 1008
f 1005 1008 1009
f 1005 1009 1010
f 1016 1015 1014
f 1016 1014 1013
f 1016 1013 1012
f 1016 1012 1011
f 1011 1012 1006
f 1011 1006 1005
f 1012 1013 1007
f 1012 1007 1006
f 1013 1014 1008
f 1013 1008 1007
f 1014 1015 1009
f 1014 1009 1008
f 1015 1016 1010
f 1015 1010 1009
f 1016 1011 1005
f 1016 1005 1010
o LaserAperture_1
usemtl laser
v -53.050000 24.075000 111.510000
v -50.950000 24.075000 111.510000
v -50.950000 24.725000 111.510000
v -53.050000 24.725000 111.510000
v -53.050000 24.075000 111.690000
v -50.950000 24.075000 111.690000
v -50.950000 24.725000 111.690000
v -53.050000 24.725000 111.690000
f 1017 1020 1019
f 1017 1019 1018
f 1021 1022 1023
f 1021 1023 1024
f 1017 1018 1022
f 1017 1022 1021
f 1020 1024 1023
f 1020 1023 1019
f 1017 1021 1024
f 1017 1024 1020
f 1018 1019 1023
f 1018 1023 1022
o OutboardFairing_2
usemtl hull
v 48.000000 17.800000 103.000000
v 55.000000 17.800000 103.000000
v 59.000000 17.800000 107.000000
v 59.000000 17.800000 113.000000
v 55.000000 17.800000 117.000000
v 48.000000 17.800000 117.000000
v 48.000000 21.500000 103.000000
v 55.000000 21.500000 103.000000
v 59.000000 21.500000 107.000000
v 59.000000 21.500000 113.000000
v 55.000000 21.500000 117.000000
v 48.000000 21.500000 117.000000
f 1030 1025 1026
f 1030 1026 1027
f 1030 1027 1028
f 1028 1029 1030
f 1032 1031 1036
f 1033 1032 1036
f 1034 1033 1036
f 1036 1035 1034
f 1025 1031 1032
f 1025 1032 1026
f 1026 1032 1033
f 1026 1033 1027
f 1027 1033 1034
f 1027 1034 1028
f 1028 1034 1035
f 1028 1035 1029
f 1029 1035 1036
f 1029 1036 1030
f 1030 1036 1031
f 1030 1031 1025
o LaserEnclosure_2
usemtl island
v 50.000000 21.500000 106.500000
v 56.000000 21.500000 106.500000
v 56.700000 21.500000 110.000000
v 56.000000 21.500000 113.500000
v 50.000000 21.500000 113.500000
v 49.300000 21.500000 110.000000
v 51.230000 25.600000 107.795000
v 54.770000 25.600000 107.795000
v 55.183000 25.600000 110.000000
v 54.770000 25.600000 112.205000
v 51.230000 25.600000 112.205000
v 50.817000 25.600000 110.000000
f 1037 1038 1039
f 1037 1039 1040
f 1037 1040 1041
f 1037 1041 1042
f 1048 1047 1046
f 1048 1046 1045
f 1048 1045 1044
f 1048 1044 1043
f 1043 1044 1038
f 1043 1038 1037
f 1044 1045 1039
f 1044 1039 1038
f 1045 1046 1040
f 1045 1040 1039
f 1046 1047 1041
f 1046 1041 1040
f 1047 1048 1042
f 1047 1042 1041
f 1048 1043 1037
f 1048 1037 1042
o LaserAperture_2
usemtl laser
v 51.950000 24.075000 112.510000
v 54.050000 24.075000 112.510000
v 54.050000 24.725000 112.510000
v 51.950000 24.725000 112.510000
v 51.950000 24.075000 112.690000
v 54.050000 24.075000 112.690000
v 54.050000 24.725000 112.690000
v 51.950000 24.725000 112.690000
f 1049 1052 1051
f 1049 1051 1050
f 1053 1054 1055
f 1053 1055 1056
f 1049 1050 1054
f 1049 1054 1053
f 1052 1056 1055
f 1052 1055 1051
f 1049 1053 1056
f 1049 1056 1052
f 1050 1051 1055
f 1050 1055 1054
o OutboardFairing_3
usemtl hull
v -53.000000 17.800000 -132.000000
v -60.000000 17.800000 -132.000000
v -64.000000 17.800000 -128.000000
v -64.000000 17.800000 -122.000000
v -60.000000 17.800000 -118.000000
v -53.000000 17.800000 -118.000000
v -53.000000 21.500000 -132.000000
v -60.000000 21.500000 -132.000000
v -64.000000 21.500000 -128.000000
v -64.000000 21.500000 -122.000000
v -60.000000 21.500000 -118.000000
v -53.000000 21.500000 -118.000000
f 1057 1062 1061
f 1057 1061 1060
f 1057 1060 1059
f 1059 1058 1057
f 1067 1068 1063
f 1066 1067 1063
f 1065 1066 1063
f 1063 1064 1065
f 1058 1064 1063
f 1058 1063 1057
f 1059 1065 1064
f 1059 1064 1058
f 1060 1066 1065
f 1060 1065 1059
f 1061 1067 1066
f 1061 1066 1060
f 1062 1068 1067
f 1062 1067 1061
f 1057 1063 1068
f 1057 1068 1062
o LaserEnclosure_3
usemtl island
v -61.000000 21.500000 -128.500000
v -55.000000 21.500000 -128.500000
v -54.300000 21.500000 -125.000000
v -55.000000 21.500000 -121.500000
v -61.000000 21.500000 -121.500000
v -61.700000 21.500000 -125.000000
v -59.770000 25.600000 -127.205000
v -56.230000 25.600000 -127.205000
v -55.817000 25.600000 -125.000000
v -56.230000 25.600000 -122.795000
v -59.770000 25.600000 -122.795000
v -60.183000 25.600000 -125.000000
f 1069 1070 1071
f 1069 1071 1072
f 1069 1072 1073
f 1069 1073 1074
f 1080 1079 1078
f 1080 1078 1077
f 1080 1077 1076
f 1080 1076 1075
f 1075 1076 1070
f 1075 1070 1069
f 1076 1077 1071
f 1076 1071 1070
f 1077 1078 1072
f 1077 1072 1071
f 1078 1079 1073
f 1078 1073 1072
f 1079 1080 1074
f 1079 1074 1073
f 1080 1075 1069
f 1080 1069 1074
o LaserAperture_3
usemtl laser
v -59.050000 24.075000 -122.490000
v -56.950000 24.075000 -122.490000
v -56.950000 24.725000 -122.490000
v -59.050000 24.725000 -122.490000
v -59.050000 24.075000 -122.310000
v -56.950000 24.075000 -122.310000
v -56.950000 24.725000 -122.310000
v -59.050000 24.725000 -122.310000
f 1081 1084 1083
f 1081 1083 1082
f 1085 1086 1087
f 1085 1087 1088
f 1081 1082 1086
f 1081 1086 1085
f 1084 1088 1087
f 1084 1087 1083
f 1081 1085 1088
f 1081 1088 1084
f 1082 1083 1087
f 1082 1087 1086
o OutboardFairing_4
usemtl hull
v 50.000000 17.800000 -167.000000
v 57.000000 17.800000 -167.000000
v 61.000000 17.800000 -163.000000
v 61.000000 17.800000 -157.000000
v 57.000000 17.800000 -153.000000
v 50.000000 17.800000 -153.000000
v 50.000000 21.500000 -167.000000
v 57.000000 21.500000 -167.000000
v 61.000000 21.500000 -163.000000
v 61.000000 21.500000 -157.000000
v 57.000000 21.500000 -153.000000
v 50.000000 21.500000 -153.000000
f 1094 1089 1090
f 1094 1090 1091
f 1094 1091 1092
f 1092 1093 1094
f 1096 1095 1100
f 1097 1096 1100
f 1098 1097 1100
f 1100 1099 1098
f 1089 1095 1096
f 1089 1096 1090
f 1090 1096 1097
f 1090 1097 1091
f 1091 1097 1098
f 1091 1098 1092
f 1092 1098 1099
f 1092 1099 1093
f 1093 1099 1100
f 1093 1100 1094
f 1094 1100 1095
f 1094 1095 1089
o LaserEnclosure_4
usemtl island
v 52.000000 21.500000 -163.500000
v 58.000000 21.500000 -163.500000
v 58.700000 21.500000 -160.000000
v 58.000000 21.500000 -156.500000
v 52.000000 21.500000 -156.500000
v 51.300000 21.500000 -160.000000
v 53.230000 25.600000 -162.205000
v 56.770000 25.600000 -162.205000
v 57.183000 25.600000 -160.000000
v 56.770000 25.600000 -157.795000
v 53.230000 25.600000 -157.795000
v 52.817000 25.600000 -160.000000
f 1101 1102 1103
f 1101 1103 1104
f 1101 1104 1105
f 1101 1105 1106
f 1112 1111 1110
f 1112 1110 1109
f 1112 1109 1108
f 1112 1108 1107
f 1107 1108 1102
f 1107 1102 1101
f 1108 1109 1103
f 1108 1103 1102
f 1109 1110 1104
f 1109 1104 1103
f 1110 1111 1105
f 1110 1105 1104
f 1111 1112 1106
f 1111 1106 1105
f 1112 1107 1101
f 1112 1101 1106
o LaserAperture_4
usemtl laser
v 53.950000 24.075000 -157.490000
v 56.050000 24.075000 -157.490000
v 56.050000 24.725000 -157.490000
v 53.950000 24.725000 -157.490000
v 53.950000 24.075000 -157.310000
v 56.050000 24.075000 -157.310000
v 56.050000 24.725000 -157.310000
v 53.950000 24.725000 -157.310000
f 1113 1116 1115
f 1113 1115 1114
f 1117 1118 1119
f 1117 1119 1120
f 1113 1114 1118
f 1113 1118 1117
f 1116 1120 1119
f 1116 1119 1115
f 1113 1117 1120
f 1113 1120 1116
f 1114 1115 1119
f 1114 1119 1118
o DefensiveHatch_1
usemtl hatch
v -50.800000 22.020000 27.500000
v -45.200000 22.020000 27.500000
v -45.200000 22.160000 27.500000
v -50.800000 22.160000 27.500000
v -50.800000 22.020000 34.500000
v -45.200000 22.020000 34.500000
v -45.200000 22.160000 34.500000
v -50.800000 22.160000 34.500000
f 1121 1124 1123
f 1121 1123 1122
f 1125 1126 1127
f 1125 1127 1128
f 1121 1122 1126
f 1121 1126 1125
f 1124 1128 1127
f 1124 1127 1123
f 1121 1125 1128
f 1121 1128 1124
f 1122 1123 1127
f 1122 1127 1126
o DefensiveHatch_2
usemtl hatch
v 46.200000 22.020000 -94.500000
v 51.800000 22.020000 -94.500000
v 51.800000 22.160000 -94.500000
v 46.200000 22.160000 -94.500000
v 46.200000 22.020000 -87.500000
v 51.800000 22.020000 -87.500000
v 51.800000 22.160000 -87.500000
v 46.200000 22.160000 -87.500000
f 1129 1132 1131
f 1129 1131 1130
f 1133 1134 1135
f 1133 1135 1136
f 1129 1130 1134
f 1129 1134 1133
f 1132 1136 1135
f 1132 1135 1131
f 1129 1133 1136
f 1129 1136 1132
f 1130 1131 1135
f 1130 1135 1134
o BowSonarFairingStudy
usemtl dark
v -3.000000 -7.250000 160.000000
v 3.000000 -7.250000 160.000000
v 3.000000 -3.750000 160.000000
v -3.000000 -3.750000 160.000000
v -3.000000 -7.250000 168.000000
v 3.000000 -7.250000 168.000000
v 3.000000 -3.750000 168.000000
v -3.000000 -3.750000 168.000000
f 1137 1140 1139
f 1137 1139 1138
f 1141 1142 1143
f 1141 1143 1144
f 1137 1138 1142
f 1137 1142 1141
f 1140 1144 1143
f 1140 1143 1139
f 1137 1141 1144
f 1137 1144 1140
f 1138 1139 1143
f 1138 1143 1142
