# RAN Carrier Restart: original model study; coordinates in metres
mtllib ran_cvn_australis_2030_deployed_lasers.mtl
o LaserHatchOpen_1_-1
usemtl dark
v -37.770000 22.070000 106.100000
v -37.530000 22.070000 106.100000
v -37.530000 22.310000 106.100000
v -37.770000 22.310000 106.100000
v -37.770000 22.070000 111.900000
v -37.530000 22.070000 111.900000
v -37.530000 22.310000 111.900000
v -37.770000 22.310000 111.900000
f 1 4 3
f 1 3 2
f 5 6 7
f 5 7 8
f 1 2 6
f 1 6 5
f 4 8 7
f 4 7 3
f 1 5 8
f 1 8 4
f 2 3 7
f 2 7 6
o LaserHatchOpen_1_1
usemtl dark
v -32.470000 22.070000 106.100000
v -32.230000 22.070000 106.100000
v -32.230000 22.310000 106.100000
v -32.470000 22.310000 106.100000
v -32.470000 22.070000 111.900000
v -32.230000 22.070000 111.900000
v -32.230000 22.310000 111.900000
v -32.470000 22.310000 111.900000
f 9 12 11
f 9 11 10
f 13 14 15
f 13 15 16
f 9 10 14
f 9 14 13
f 12 16 15
f 12 15 11
f 9 13 16
f 9 16 12
f 10 11 15
f 10 15 14
o LaserHatchOpen_1_fore
usemtl dark
v -37.775000 22.070000 111.850000
v -32.225000 22.070000 111.850000
v -32.225000 22.310000 111.850000
v -37.775000 22.310000 111.850000
v -37.775000 22.070000 112.070000
v -32.225000 22.070000 112.070000
v -32.225000 22.310000 112.070000
v -37.775000 22.310000 112.070000
f 17 20 19
f 17 19 18
f 21 22 23
f 21 23 24
f 17 18 22
f 17 22 21
f 20 24 23
f 20 23 19
f 17 21 24
f 17 24 20
f 18 19 23
f 18 23 22
o LaserHatchOpen_1_aft
usemtl dark
v -37.775000 22.070000 105.930000
v -32.225000 22.070000 105.930000
v -32.225000 22.310000 105.930000
v -37.775000 22.310000 105.930000
v -37.775000 22.070000 106.150000
v -32.225000 22.070000 106.150000
v -32.225000 22.310000 106.150000
v -37.775000 22.310000 106.150000
f 25 28 27
f 25 27 26
f 29 30 31
f 29 31 32
f 25 26 30
f 25 30 29
f 28 32 31
f 28 31 27
f 25 29 32
f 25 32 28
f 26 27 31
f 26 31 30
o LaserTurretPedestal_1
usemtl hull
v -36.800000 21.925000 107.100000
v -33.200000 21.925000 107.100000
v -33.200000 23.375000 107.100000
v -36.800000 23.375000 107.100000
v -36.800000 21.925000 110.900000
v -33.200000 21.925000 110.900000
v -33.200000 23.375000 110.900000
v -36.800000 23.375000 110.900000
f 33 36 35
f 33 35 34
f 37 38 39
f 37 39 40
f 33 34 38
f 33 38 37
f 36 40 39
f 36 39 35
f 33 37 40
f 33 40 36
f 34 35 39
f 34 39 38
o LaserTurretFaceted_1
usemtl island
v -36.900000 22.700000 107.000000
v -33.100000 22.700000 107.000000
v -32.750000 22.700000 109.000000
v -33.100000 22.700000 111.000000
v -36.900000 22.700000 111.000000
v -37.250000 22.700000 109.000000
v -36.368000 25.400000 107.560000
v -33.632000 25.400000 107.560000
v -33.380000 25.400000 109.000000
v -33.632000 25.400000 110.440000
v -36.368000 25.400000 110.440000
v -36.620000 25.400000 109.000000
f 41 42 43
f 41 43 44
f 41 44 45
f 41 45 46
f 52 51 50
f 52 50 49
f 52 49 48
f 52 48 47
f 47 48 42
f 47 42 41
f 48 49 43
f 48 43 42
f 49 50 44
f 49 44 43
f 50 51 45
f 50 45 44
f 51 52 46
f 51 46 45
f 52 47 41
f 52 41 46
o LaserEmitter_1
usemtl laser
v -35.750000 23.925000 110.475000
v -34.250000 23.925000 110.475000
v -34.250000 24.575000 110.475000
v -35.750000 24.575000 110.475000
v -35.750000 23.925000 110.625000
v -34.250000 23.925000 110.625000
v -34.250000 24.575000 110.625000
v -35.750000 24.575000 110.625000
f 53 56 55
f 53 55 54
f 57 58 59
f 57 59 60
f 53 54 58
f 53 58 57
f 56 60 59
f 56 59 55
f 53 57 60
f 53 60 56
f 54 55 59
f 54 59 58
o LaserHatchOpen_2_-1
usemtl dark
v 33.230000 22.070000 116.100000
v 33.470000 22.070000 116.100000
v 33.470000 22.310000 116.100000
v 33.230000 22.310000 116.100000
v 33.230000 22.070000 121.900000
v 33.470000 22.070000 121.900000
v 33.470000 22.310000 121.900000
v 33.230000 22.310000 121.900000
f 61 64 63
f 61 63 62
f 65 66 67
f 65 67 68
f 61 62 66
f 61 66 65
f 64 68 67
f 64 67 63
f 61 65 68
f 61 68 64
f 62 63 67
f 62 67 66
o LaserHatchOpen_2_1
usemtl dark
v 38.530000 22.070000 116.100000
v 38.770000 22.070000 116.100000
v 38.770000 22.310000 116.100000
v 38.530000 22.310000 116.100000
v 38.530000 22.070000 121.900000
v 38.770000 22.070000 121.900000
v 38.770000 22.310000 121.900000
v 38.530000 22.310000 121.900000
f 69 72 71
f 69 71 70
f 73 74 75
f 73 75 76
f 69 70 74
f 69 74 73
f 72 76 75
f 72 75 71
f 69 73 76
f 69 76 72
f 70 71 75
f 70 75 74
o LaserHatchOpen_2_fore
usemtl dark
v 33.225000 22.070000 121.850000
v 38.775000 22.070000 121.850000
v 38.775000 22.310000 121.850000
v 33.225000 22.310000 121.850000
v 33.225000 22.070000 122.070000
v 38.775000 22.070000 122.070000
v 38.775000 22.310000 122.070000
v 33.225000 22.310000 122.070000
f 77 80 79
f 77 79 78
f 81 82 83
f 81 83 84
f 77 78 82
f 77 82 81
f 80 84 83
f 80 83 79
f 77 81 84
f 77 84 80
f 78 79 83
f 78 83 82
o LaserHatchOpen_2_aft
usemtl dark
v 33.225000 22.070000 115.930000
v 38.775000 22.070000 115.930000
v 38.775000 22.310000 115.930000
v 33.225000 22.310000 115.930000
v 33.225000 22.070000 116.150000
v 38.775000 22.070000 116.150000
v 38.775000 22.310000 116.150000
v 33.225000 22.310000 116.150000
f 85 88 87
f 85 87 86
f 89 90 91
f 89 91 92
f 85 86 90
f 85 90 89
f 88 92 91
f 88 91 87
f 85 89 92
f 85 92 88
f 86 87 91
f 86 91 90
o LaserTurretPedestal_2
usemtl hull
v 34.200000 21.925000 117.100000
v 37.800000 21.925000 117.100000
v 37.800000 23.375000 117.100000
v 34.200000 23.375000 117.100000
v 34.200000 21.925000 120.900000
v 37.800000 21.925000 120.900000
v 37.800000 23.375000 120.900000
v 34.200000 23.375000 120.900000
f 93 96 95
f 93 95 94
f 97 98 99
f 97 99 100
f 93 94 98
f 93 98 97
f 96 100 99
f 96 99 95
f 93 97 100
f 93 100 96
f 94 95 99
f 94 99 98
o LaserTurretFaceted_2
usemtl island
v 34.100000 22.700000 117.000000
v 37.900000 22.700000 117.000000
v 38.250000 22.700000 119.000000
v 37.900000 22.700000 121.000000
v 34.100000 22.700000 121.000000
v 33.750000 22.700000 119.000000
v 34.632000 25.400000 117.560000
v 37.368000 25.400000 117.560000
v 37.620000 25.400000 119.000000
v 37.368000 25.400000 120.440000
v 34.632000 25.400000 120.440000
v 34.380000 25.400000 119.000000
f 101 102 103
f 101 103 104
f 101 104 105
f 101 105 106
f 112 111 110
f 112 110 109
f 112 109 108
f 112 108 107
f 107 108 102
f 107 102 101
f 108 109 103
f 108 103 102
f 109 110 104
f 109 104 103
f 110 111 105
f 110 105 104
f 111 112 106
f 111 106 105
f 112 107 101
f 112 101 106
o LaserEmitter_2
usemtl laser
v 35.250000 23.925000 120.475000
v 36.750000 23.925000 120.475000
v 36.750000 24.575000 120.475000
v 35.250000 24.575000 120.475000
v 35.250000 23.925000 120.625000
v 36.750000 23.925000 120.625000
v 36.750000 24.575000 120.625000
v 35.250000 24.575000 120.625000
f 113 116 115
f 113 115 114
f 117 118 119
f 117 119 120
f 113 114 118
f 113 118 117
f 116 120 119
f 116 119 115
f 113 117 120
f 113 120 116
f 114 115 119
f 114 119 118
o LaserHatchOpen_3_-1
usemtl dark
v -42.770000 22.070000 -62.900000
v -42.530000 22.070000 -62.900000
v -42.530000 22.310000 -62.900000
v -42.770000 22.310000 -62.900000
v -42.770000 22.070000 -57.100000
v -42.530000 22.070000 -57.100000
v -42.530000 22.310000 -57.100000
v -42.770000 22.310000 -57.100000
f 121 124 123
f 121 123 122
f 125 126 127
f 125 127 128
f 121 122 126
f 121 126 125
f 124 128 127
f 124 127 123
f 121 125 128
f 121 128 124
f 122 123 127
f 122 127 126
o LaserHatchOpen_3_1
usemtl dark
v -37.470000 22.070000 -62.900000
v -37.230000 22.070000 -62.900000
v -37.230000 22.310000 -62.900000
v -37.470000 22.310000 -62.900000
v -37.470000 22.070000 -57.100000
v -37.230000 22.070000 -57.100000
v -37.230000 22.310000 -57.100000
v -37.470000 22.310000 -57.100000
f 129 132 131
f 129 131 130
f 133 134 135
f 133 135 136
f 129 130 134
f 129 134 133
f 132 136 135
f 132 135 131
f 129 133 136
f 129 136 132
f 130 131 135
f 130 135 134
o LaserHatchOpen_3_fore
usemtl dark
v -42.775000 22.070000 -57.150000
v -37.225000 22.070000 -57.150000
v -37.225000 22.310000 -57.150000
v -42.775000 22.310000 -57.150000
v -42.775000 22.070000 -56.930000
v -37.225000 22.070000 -56.930000
v -37.225000 22.310000 -56.930000
v -42.775000 22.310000 -56.930000
f 137 140 139
f 137 139 138
f 141 142 143
f 141 143 144
f 137 138 142
f 137 142 141
f 140 144 143
f 140 143 139
f 137 141 144
f 137 144 140
f 138 139 143
f 138 143 142
o LaserHatchOpen_3_aft
usemtl dark
v -42.775000 22.070000 -63.070000
v -37.225000 22.070000 -63.070000
v -37.225000 22.310000 -63.070000
v -42.775000 22.310000 -63.070000
v -42.775000 22.070000 -62.850000
v -37.225000 22.070000 -62.850000
v -37.225000 22.310000 -62.850000
v -42.775000 22.310000 -62.850000
f 145 148 147
f 145 147 146
f 149 150 151
f 149 151 152
f 145 146 150
f 145 150 149
f 148 152 151
f 148 151 147
f 145 149 152
f 145 152 148
f 146 147 151
f 146 151 150
o LaserTurretPedestal_3
usemtl hull
v -41.800000 21.925000 -61.900000
v -38.200000 21.925000 -61.900000
v -38.200000 23.375000 -61.900000
v -41.800000 23.375000 -61.900000
v -41.800000 21.925000 -58.100000
v -38.200000 21.925000 -58.100000
v -38.200000 23.375000 -58.100000
v -41.800000 23.375000 -58.100000
f 153 156 155
f 153 155 154
f 157 158 159
f 157 159 160
f 153 154 158
f 153 158 157
f 156 160 159
f 156 159 155
f 153 157 160
f 153 160 156
f 154 155 159
f 154 159 158
o LaserTurretFaceted_3
usemtl island
v -41.900000 22.700000 -62.000000
v -38.100000 22.700000 -62.000000
v -37.750000 22.700000 -60.000000
v -38.100000 22.700000 -58.000000
v -41.900000 22.700000 -58.000000
v -42.250000 22.700000 -60.000000
v -41.368000 25.400000 -61.440000
v -38.632000 25.400000 -61.440000
v -38.380000 25.400000 -60.000000
v -38.632000 25.400000 -58.560000
v -41.368000 25.400000 -58.560000
v -41.620000 25.400000 -60.000000
f 161 162 163
f 161 163 164
f 161 164 165
f 161 165 166
f 172 171 170
f 172 170 169
f 172 169 168
f 172 168 167
f 167 168 162
f 167 162 161
f 168 169 163
f 168 163 162
f 169 170 164
f 169 164 163
f 170 171 165
f 170 165 164
f 171 172 166
f 171 166 165
f 172 167 161
f 172 161 166
o LaserEmitter_3
usemtl laser
v -40.750000 23.925000 -58.525000
v -39.250000 23.925000 -58.525000
v -39.250000 24.575000 -58.525000
v -40.750000 24.575000 -58.525000
v -40.750000 23.925000 -58.375000
v -39.250000 23.925000 -58.375000
v -39.250000 24.575000 -58.375000
v -40.750000 24.575000 -58.375000
f 173 176 175
f 173 175 174
f 177 178 179
f 177 179 180
f 173 174 178
f 173 178 177
f 176 180 179
f 176 179 175
f 173 177 180
f 173 180 176
f 174 175 179
f 174 179 178
o LaserHatchOpen_4_-1
usemtl dark
v 28.230000 22.070000 -159.900000
v 28.470000 22.070000 -159.900000
v 28.470000 22.310000 -159.900000
v 28.230000 22.310000 -159.900000
v 28.230000 22.070000 -154.100000
v 28.470000 22.070000 -154.100000
v 28.470000 22.310000 -154.100000
v 28.230000 22.310000 -154.100000
f 181 184 183
f 181 183 182
f 185 186 187
f 185 187 188
f 181 182 186
f 181 186 185
f 184 188 187
f 184 187 183
f 181 185 188
f 181 188 184
f 182 183 187
f 182 187 186
o LaserHatchOpen_4_1
usemtl dark
v 33.530000 22.070000 -159.900000
v 33.770000 22.070000 -159.900000
v 33.770000 22.310000 -159.900000
v 33.530000 22.310000 -159.900000
v 33.530000 22.070000 -154.100000
v 33.770000 22.070000 -154.100000
v 33.770000 22.310000 -154.100000
v 33.530000 22.310000 -154.100000
f 189 192 191
f 189 191 190
f 193 194 195
f 193 195 196
f 189 190 194
f 189 194 193
f 192 196 195
f 192 195 191
f 189 193 196
f 189 196 192
f 190 191 195
f 190 195 194
o LaserHatchOpen_4_fore
usemtl dark
v 28.225000 22.070000 -154.150000
v 33.775000 22.070000 -154.150000
v 33.775000 22.310000 -154.150000
v 28.225000 22.310000 -154.150000
v 28.225000 22.070000 -153.930000
v 33.775000 22.070000 -153.930000
v 33.775000 22.310000 -153.930000
v 28.225000 22.310000 -153.930000
f 197 200 199
f 197 199 198
f 201 202 203
f 201 203 204
f 197 198 202
f 197 202 201
f 200 204 203
f 200 203 199
f 197 201 204
f 197 204 200
f 198 199 203
f 198 203 202
o LaserHatchOpen_4_aft
usemtl dark
v 28.225000 22.070000 -160.070000
v 33.775000 22.070000 -160.070000
v 33.775000 22.310000 -160.070000
v 28.225000 22.310000 -160.070000
v 28.225000 22.070000 -159.850000
v 33.775000 22.070000 -159.850000
v 33.775000 22.310000 -159.850000
v 28.225000 22.310000 -159.850000
f 205 208 207
f 205 207 206
f 209 210 211
f 209 211 212
f 205 206 210
f 205 210 209
f 208 212 211
f 208 211 207
f 205 209 212
f 205 212 208
f 206 207 211
f 206 211 210
o LaserTurretPedestal_4
usemtl hull
v 29.200000 21.925000 -158.900000
v 32.800000 21.925000 -158.900000
v 32.800000 23.375000 -158.900000
v 29.200000 23.375000 -158.900000
v 29.200000 21.925000 -155.100000
v 32.800000 21.925000 -155.100000
v 32.800000 23.375000 -155.100000
v 29.200000 23.375000 -155.100000
f 213 216 215
f 213 215 214
f 217 218 219
f 217 219 220
f 213 214 218
f 213 218 217
f 216 220 219
f 216 219 215
f 213 217 220
f 213 220 216
f 214 215 219
f 214 219 218
o LaserTurretFaceted_4
usemtl island
v 29.100000 22.700000 -159.000000
v 32.900000 22.700000 -159.000000
v 33.250000 22.700000 -157.000000
v 32.900000 22.700000 -155.000000
v 29.100000 22.700000 -155.000000
v 28.750000 22.700000 -157.000000
v 29.632000 25.400000 -158.440000
v 32.368000 25.400000 -158.440000
v 32.620000 25.400000 -157.000000
v 32.368000 25.400000 -155.560000
v 29.632000 25.400000 -155.560000
v 29.380000 25.400000 -157.000000
f 221 222 223
f 221 223 224
f 221 224 225
f 221 225 226
f 232 231 230
f 232 230 229
f 232 229 228
f 232 228 227
f 227 228 222
f 227 222 221
f 228 229 223
f 228 223 222
f 229 230 224
f 229 224 223
f 230 231 225
f 230 225 224
f 231 232 226
f 231 226 225
f 232 227 221
f 232 221 226
o LaserEmitter_4
usemtl laser
v 30.250000 23.925000 -155.525000
v 31.750000 23.925000 -155.525000
v 31.750000 24.575000 -155.525000
v 30.250000 24.575000 -155.525000
v 30.250000 23.925000 -155.375000
v 31.750000 23.925000 -155.375000
v 31.750000 24.575000 -155.375000
v 30.250000 24.575000 -155.375000
f 233 236 235
f 233 235 234
f 237 238 239
f 237 239 240
f 233 234 238
f 233 238 237
f 236 240 239
f 236 239 235
f 233 237 240
f 233 240 236
f 234 235 239
f 234 239 238
