# Approximate Sea Power scale; origin, deck routing and collision untested
mtllib ran_cvn_australis_2050.mtl
o HardChineHull
usemtl hull
v -0.148627 0.000000 -2.681115
v -0.218569 0.043714 -2.681115
v -0.214198 0.174855 -2.681115
v -0.166113 0.295797 -2.681115
v 0.166113 0.295797 -2.681115
v 0.214198 0.174855 -2.681115
v 0.218569 0.043714 -2.681115
v 0.148627 0.000000 -2.681115
v -0.227895 0.000000 -2.535402
v -0.335139 0.043714 -2.535402
v -0.328437 0.174855 -2.535402
v -0.254706 0.295797 -2.535402
v 0.254706 0.295797 -2.535402
v 0.328437 0.174855 -2.535402
v 0.335139 0.043714 -2.535402
v 0.227895 0.000000 -2.535402
v -0.267529 0.000000 -2.156549
v -0.393424 0.043714 -2.156549
v -0.385556 0.174855 -2.156549
v -0.299003 0.295797 -2.156549
v 0.299003 0.295797 -2.156549
v 0.385556 0.174855 -2.156549
v 0.393424 0.043714 -2.156549
v 0.267529 0.000000 -2.156549
v -0.277437 0.000000 -1.515413
v -0.407996 0.043714 -1.515413
v -0.399836 0.174855 -1.515413
v -0.310077 0.295797 -1.515413
v 0.310077 0.295797 -1.515413
v 0.399836 0.174855 -1.515413
v 0.407996 0.043714 -1.515413
v 0.277437 0.000000 -1.515413
v -0.287346 0.000000 -0.524566
v -0.422567 0.043714 -0.524566
v -0.414116 0.174855 -0.524566
v -0.321151 0.295797 -0.524566
v 0.321151 0.295797 -0.524566
v 0.414116 0.174855 -0.524566
v 0.422567 0.043714 -0.524566
v 0.287346 0.000000 -0.524566
v -0.287346 0.000000 0.655707
v -0.422567 0.043714 0.655707
v -0.414116 0.174855 0.655707
v -0.321151 0.295797 0.655707
v 0.321151 0.295797 0.655707
v 0.414116 0.174855 0.655707
v 0.422567 0.043714 0.655707
v 0.287346 0.000000 0.655707
v -0.277437 0.000000 1.646554
v -0.407996 0.043714 1.646554
v -0.399836 0.174855 1.646554
v -0.310077 0.295797 1.646554
v 0.310077 0.295797 1.646554
v 0.399836 0.174855 1.646554
v 0.407996 0.043714 1.646554
v 0.277437 0.000000 1.646554
v -0.227895 0.000000 2.229405
v -0.335139 0.043714 2.229405
v -0.328437 0.174855 2.229405
v -0.254706 0.295797 2.229405
v 0.254706 0.295797 2.229405
v 0.328437 0.174855 2.229405
v 0.335139 0.043714 2.229405
v 0.227895 0.000000 2.229405
v -0.118902 0.000000 2.535402
v -0.174855 0.043714 2.535402
v -0.171358 0.174855 2.535402
v -0.132890 0.295797 2.535402
v 0.132890 0.295797 2.535402
v 0.171358 0.174855 2.535402
v 0.174855 0.043714 2.535402
v 0.118902 0.000000 2.535402
v -0.012881 0.000000 2.681115
v -0.018943 0.043714 2.681115
v -0.018564 0.174855 2.681115
v -0.014396 0.295797 2.681115
v 0.014396 0.295797 2.681115
v 0.018564 0.174855 2.681115
v 0.018943 0.043714 2.681115
v 0.012881 0.000000 2.681115
f 1 2 3
f 1 3 4
f 1 4 5
f 1 5 6
f 1 6 7
f 1 7 8
f 80 79 78
f 80 78 77
f 80 77 76
f 80 76 75
f 80 75 74
f 80 74 73
f 9 10 2
f 9 2 1
f 10 11 3
f 10 3 2
f 11 12 4
f 11 4 3
f 12 13 5
f 12 5 4
f 13 14 6
f 13 6 5
f 14 15 7
f 14 7 6
f 15 16 8
f 15 8 7
f 16 9 1
f 16 1 8
f 17 18 10
f 17 10 9
f 18 19 11
f 18 11 10
f 19 20 12
f 19 12 11
f 20 21 13
f 20 13 12
f 21 22 14
f 21 14 13
f 22 23 15
f 22 15 14
f 23 24 16
f 23 16 15
f 24 17 9
f 24 9 16
f 25 26 18
f 25 18 17
f 26 27 19
f 26 19 18
f 27 28 20
f 27 20 19
f 28 29 21
f 28 21 20
f 29 30 22
f 29 22 21
f 30 31 23
f 30 23 22
f 31 32 24
f 31 24 23
f 32 25 17
f 32 17 24
f 33 34 26
f 33 26 25
f 34 35 27
f 34 27 26
f 35 36 28
f 35 28 27
f 36 37 29
f 36 29 28
f 37 38 30
f 37 30 29
f 38 39 31
f 38 31 30
f 39 40 32
f 39 32 31
f 40 33 25
f 40 25 32
f 41 42 34
f 41 34 33
f 42 43 35
f 42 35 34
f 43 44 36
f 43 36 35
f 44 45 37
f 44 37 36
f 45 46 38
f 45 38 37
f 46 47 39
f 46 39 38
f 47 48 40
f 47 40 39
f 48 41 33
f 48 33 40
f 49 50 42
f 49 42 41
f 50 51 43
f 50 43 42
f 51 52 44
f 51 44 43
f 52 53 45
f 52 45 44
f 53 54 46
f 53 46 45
f 54 55 47
f 54 47 46
f 55 56 48
f 55 48 47
f 56 49 41
f 56 41 48
f 57 58 50
f 57 50 49
f 58 59 51
f 58 51 50
f 59 60 52
f 59 52 51
f 60 61 53
f 60 53 52
f 61 62 54
f 61 54 53
f 62 63 55
f 62 55 54
f 63 64 56
f 63 56 55
f 64 57 49
f 64 49 56
f 65 66 58
f 65 58 57
f 66 67 59
f 66 59 58
f 67 68 60
f 67 60 59
f 68 69 61
f 68 61 60
f 69 70 62
f 69 62 61
f 70 71 63
f 70 63 62
f 71 72 64
f 71 64 63
f 72 65 57
f 72 57 64
f 73 74 66
f 73 66 65
f 74 75 67
f 74 67 66
f 75 76 68
f 75 68 67
f 76 77 69
f 76 69 68
f 77 78 70
f 77 70 69
f 78 79 71
f 78 71 70
f 79 80 72
f 79 72 71
f 80 73 65
f 80 65 72
o UnderwaterBody
usemtl underwater
v -0.148627 0.000000 -2.681115
v -0.209826 -0.036428 -2.681115
v -0.139884 -0.116570 -2.681115
v 0.139884 -0.116570 -2.681115
v 0.209826 -0.036428 -2.681115
v 0.148627 0.000000 -2.681115
v -0.227895 0.000000 -2.535402
v -0.321734 -0.036428 -2.535402
v -0.214489 -0.116570 -2.535402
v 0.214489 -0.116570 -2.535402
v 0.321734 -0.036428 -2.535402
v 0.227895 0.000000 -2.535402
v -0.267529 0.000000 -2.156549
v -0.377687 -0.036428 -2.156549
v -0.251792 -0.116570 -2.156549
v 0.251792 -0.116570 -2.156549
v 0.377687 -0.036428 -2.156549
v 0.267529 0.000000 -2.156549
v -0.277437 0.000000 -1.515413
v -0.391676 -0.036428 -1.515413
v -0.261117 -0.116570 -1.515413
v 0.261117 -0.116570 -1.515413
v 0.391676 -0.036428 -1.515413
v 0.277437 0.000000 -1.515413
v -0.287346 0.000000 -0.524566
v -0.405664 -0.036428 -0.524566
v -0.270443 -0.116570 -0.524566
v 0.270443 -0.116570 -0.524566
v 0.405664 -0.036428 -0.524566
v 0.287346 0.000000 -0.524566
v -0.287346 0.000000 0.655707
v -0.405664 -0.036428 0.655707
v -0.270443 -0.116570 0.655707
v 0.270443 -0.116570 0.655707
v 0.405664 -0.036428 0.655707
v 0.287346 0.000000 0.655707
v -0.277437 0.000000 1.646554
v -0.391676 -0.036428 1.646554
v -0.261117 -0.116570 1.646554
v 0.261117 -0.116570 1.646554
v 0.391676 -0.036428 1.646554
v 0.277437 0.000000 1.646554
v -0.227895 0.000000 2.229405
v -0.321734 -0.036428 2.229405
v -0.214489 -0.116570 2.229405
v 0.214489 -0.116570 2.229405
v 0.321734 -0.036428 2.229405
v 0.227895 0.000000 2.229405
v -0.118902 0.000000 2.535402
v -0.167861 -0.036428 2.535402
v -0.111907 -0.116570 2.535402
v 0.111907 -0.116570 2.535402
v 0.167861 -0.036428 2.535402
v 0.118902 0.000000 2.535402
v -0.012881 0.000000 2.681115
v -0.018185 -0.036428 2.681115
v -0.012123 -0.116570 2.681115
v 0.012123 -0.116570 2.681115
v 0.018185 -0.036428 2.681115
v 0.012881 0.000000 2.681115
f 86 85 84
f 86 84 83
f 86 83 82
f 86 82 81
f 135 136 137
f 135 137 138
f 135 138 139
f 135 139 140
f 81 82 88
f 81 88 87
f 82 83 89
f 82 89 88
f 83 84 90
f 83 90 89
f 84 85 91
f 84 91 90
f 85 86 92
f 85 92 91
f 86 81 87
f 86 87 92
f 87 88 94
f 87 94 93
f 88 89 95
f 88 95 94
f 89 90 96
f 89 96 95
f 90 91 97
f 90 97 96
f 91 92 98
f 91 98 97
f 92 87 93
f 92 93 98
f 93 94 100
f 93 100 99
f 94 95 101
f 94 101 100
f 95 96 102
f 95 102 101
f 96 97 103
f 96 103 102
f 97 98 104
f 97 104 103
f 98 93 99
f 98 99 104
f 99 100 106
f 99 106 105
f 100 101 107
f 100 107 106
f 101 102 108
f 101 108 107
f 102 103 109
f 102 109 108
f 103 104 110
f 103 110 109
f 104 99 105
f 104 105 110
f 105 106 112
f 105 112 111
f 106 107 113
f 106 113 112
f 107 108 114
f 107 114 113
f 108 109 115
f 108 115 114
f 109 110 116
f 109 116 115
f 110 105 111
f 110 111 116
f 111 112 118
f 111 118 117
f 112 113 119
f 112 119 118
f 113 114 120
f 113 120 119
f 114 115 121
f 114 121 120
f 115 116 122
f 115 122 121
f 116 111 117
f 116 117 122
f 117 118 124
f 117 124 123
f 118 119 125
f 118 125 124
f 119 120 126
f 119 126 125
f 120 121 127
f 120 127 126
f 121 122 128
f 121 128 127
f 122 117 123
f 122 123 128
f 123 124 130
f 123 130 129
f 124 125 131
f 124 131 130
f 125 126 132
f 125 132 131
f 126 127 133
f 126 133 132
f 127 128 134
f 127 134 133
f 128 123 129
f 128 129 134
f 129 130 136
f 129 136 135
f 130 131 137
f 130 137 136
f 131 132 138
f 131 138 137
f 132 133 139
f 132 139 138
f 133 134 140
f 133 140 139
f 134 129 135
f 134 135 140
o FacetedFlightDeck
usemtl deck
v -0.466281 0.295797 -2.681115
v 0.393424 0.295797 -2.681115
v 0.597422 0.295797 -2.462546
v 0.713993 0.295797 -2.010836
v 0.728564 0.295797 -1.107417
v 0.757706 0.295797 -0.480852
v 0.757706 0.295797 1.049132
v 0.713993 0.295797 1.821410
v 0.582851 0.295797 2.375118
v 0.218569 0.295797 2.681115
v -0.218569 0.295797 2.681115
v -0.568280 0.295797 2.345976
v -0.699421 0.295797 1.792267
v -0.699421 0.295797 0.874277
v -0.786849 0.295797 -0.597422
v -0.757706 0.295797 -1.661126
v -0.626565 0.295797 -2.447974
v -0.466281 0.320568 -2.681115
v 0.393424 0.320568 -2.681115
v 0.597422 0.320568 -2.462546
v 0.713993 0.320568 -2.010836
v 0.728564 0.320568 -1.107417
v 0.757706 0.320568 -0.480852
v 0.757706 0.320568 1.049132
v 0.713993 0.320568 1.821410
v 0.582851 0.320568 2.375118
v 0.218569 0.320568 2.681115
v -0.218569 0.320568 2.681115
v -0.568280 0.320568 2.345976
v -0.699421 0.320568 1.792267
v -0.699421 0.320568 0.874277
v -0.786849 0.320568 -0.597422
v -0.757706 0.320568 -1.661126
v -0.626565 0.320568 -2.447974
f 157 141 142
f 157 142 143
f 157 143 144
f 157 144 145
f 157 145 146
f 157 146 147
f 157 147 148
f 157 148 149
f 157 149 150
f 157 150 151
f 157 151 152
f 157 152 153
f 157 153 154
f 157 154 155
f 155 156 157
f 159 158 174
f 160 159 174
f 161 160 174
f 162 161 174
f 163 162 174
f 164 163 174
f 165 164 174
f 166 165 174
f 167 166 174
f 168 167 174
f 169 168 174
f 170 169 174
f 171 170 174
f 172 171 174
f 174 173 172
f 141 158 159
f 141 159 142
f 142 159 160
f 142 160 143
f 143 160 161
f 143 161 144
f 144 161 162
f 144 162 145
f 145 162 163
f 145 163 146
f 146 163 164
f 146 164 147
f 147 164 165
f 147 165 148
f 148 165 166
f 148 166 149
f 149 166 167
f 149 167 150
f 150 167 168
f 150 168 151
f 151 168 169
f 151 169 152
f 152 169 170
f 152 170 153
f 153 170 171
f 153 171 154
f 154 171 172
f 154 172 155
f 155 172 173
f 155 173 156
f 156 173 174
f 156 174 157
f 157 174 158
f 157 158 141
o DeckEdge_01
usemtl edge
v -0.466281 0.321588 -2.679075
v 0.393424 0.321588 -2.679075
v 0.393424 0.321588 -2.683155
v -0.466281 0.321588 -2.683155
v -0.466281 0.322171 -2.679075
v 0.393424 0.322171 -2.679075
v 0.393424 0.322171 -2.683155
v -0.466281 0.322171 -2.683155
f 175 178 177
f 177 176 175
f 181 182 179
f 179 180 181
f 176 180 179
f 176 179 175
f 177 181 180
f 177 180 176
f 178 182 181
f 178 181 177
f 175 179 182
f 175 182 178
o DeckEdge_02
usemtl edge
v 0.391933 0.321588 -2.679723
v 0.595931 0.321588 -2.461154
v 0.598914 0.321588 -2.463938
v 0.394916 0.321588 -2.682507
v 0.391933 0.322171 -2.679723
v 0.595931 0.322171 -2.461154
v 0.598914 0.322171 -2.463938
v 0.394916 0.322171 -2.682507
f 183 186 185
f 185 184 183
f 189 190 187
f 187 188 189
f 184 188 187
f 184 187 183
f 185 189 188
f 185 188 184
f 186 190 189
f 186 189 185
f 183 187 190
f 183 190 186
o DeckEdge_03
usemtl edge
v 0.595447 0.321588 -2.462036
v 0.712017 0.321588 -2.010326
v 0.715968 0.321588 -2.011346
v 0.599398 0.321588 -2.463055
v 0.595447 0.322171 -2.462036
v 0.712017 0.322171 -2.010326
v 0.715968 0.322171 -2.011346
v 0.599398 0.322171 -2.463055
f 191 194 193
f 193 192 191
f 197 198 195
f 195 196 197
f 192 196 195
f 192 195 191
f 193 197 196
f 193 196 192
f 194 198 197
f 194 197 193
f 191 195 198
f 191 198 194
o DeckEdge_04
usemtl edge
v 0.711953 0.321588 -2.010803
v 0.726524 0.321588 -1.107384
v 0.730604 0.321588 -1.107450
v 0.716032 0.321588 -2.010869
v 0.711953 0.322171 -2.010803
v 0.726524 0.322171 -1.107384
v 0.730604 0.322171 -1.107450
v 0.716032 0.322171 -2.010869
f 199 202 201
f 201 200 199
f 205 206 203
f 203 204 205
f 200 204 203
f 200 203 199
f 201 205 204
f 201 204 200
f 202 206 205
f 202 205 201
f 199 203 206
f 199 206 202
o DeckEdge_05
usemtl edge
v 0.726526 0.321588 -1.107322
v 0.755669 0.321588 -0.480757
v 0.759744 0.321588 -0.480947
v 0.730602 0.321588 -1.107512
v 0.726526 0.322171 -1.107322
v 0.755669 0.322171 -0.480757
v 0.759744 0.322171 -0.480947
v 0.730602 0.322171 -1.107512
f 207 210 209
f 209 208 207
f 213 214 211
f 211 212 213
f 208 212 211
f 208 211 207
f 209 213 212
f 209 212 208
f 210 214 213
f 210 213 209
f 207 211 214
f 207 214 210
o DeckEdge_06
usemtl edge
v 0.755666 0.321588 -0.480852
v 0.755666 0.321588 1.049132
v 0.759746 0.321588 1.049132
v 0.759746 0.321588 -0.480852
v 0.755666 0.322171 -0.480852
v 0.755666 0.322171 1.049132
v 0.759746 0.322171 1.049132
v 0.759746 0.322171 -0.480852
f 215 218 217
f 217 216 215
f 221 222 219
f 219 220 221
f 216 220 219
f 216 219 215
f 217 221 220
f 217 220 216
f 218 222 221
f 218 221 217
f 215 219 222
f 215 222 218
o DeckEdge_07
usemtl edge
v 0.755670 0.321588 1.049017
v 0.711956 0.321588 1.821294
v 0.716029 0.321588 1.821525
v 0.759743 0.321588 1.049247
v 0.755670 0.322171 1.049017
v 0.711956 0.322171 1.821294
v 0.716029 0.322171 1.821525
v 0.759743 0.322171 1.049247
f 223 226 225
f 225 224 223
f 229 230 227
f 227 228 229
f 224 228 227
f 224 227 223
f 225 229 228
f 225 228 224
f 226 230 229
f 226 229 225
f 223 227 230
f 223 230 226
o DeckEdge_08
usemtl edge
v 0.712007 0.321588 1.820939
v 0.580866 0.321588 2.374648
v 0.584836 0.321588 2.375588
v 0.715978 0.321588 1.821880
v 0.712007 0.322171 1.820939
v 0.580866 0.322171 2.374648
v 0.584836 0.322171 2.375588
v 0.715978 0.322171 1.821880
f 231 234 233
f 233 232 231
f 237 238 235
f 235 236 237
f 232 236 235
f 232 235 231
f 233 237 236
f 233 236 232
f 234 238 237
f 234 237 233
f 231 235 238
f 231 238 234
o DeckEdge_09
usemtl edge
v 0.581539 0.321588 2.373556
v 0.217257 0.321588 2.679553
v 0.219881 0.321588 2.682677
v 0.584163 0.321588 2.376680
v 0.581539 0.322171 2.373556
v 0.217257 0.322171 2.679553
v 0.219881 0.322171 2.682677
v 0.584163 0.322171 2.376680
f 239 242 241
f 241 240 239
f 245 246 243
f 243 244 245
f 240 244 243
f 240 243 239
f 241 245 244
f 241 244 240
f 242 246 245
f 242 245 241
f 239 243 246
f 239 246 242
o DeckEdge_10
usemtl edge
v 0.218569 0.321588 2.679075
v -0.218569 0.321588 2.679075
v -0.218569 0.321588 2.683155
v 0.218569 0.321588 2.683155
v 0.218569 0.322171 2.679075
v -0.218569 0.322171 2.679075
v -0.218569 0.322171 2.683155
v 0.218569 0.322171 2.683155
f 247 250 249
f 249 248 247
f 253 254 251
f 251 252 253
f 248 252 251
f 248 251 247
f 249 253 252
f 249 252 248
f 250 254 253
f 250 253 249
f 247 251 254
f 247 254 250
o DeckEdge_11
usemtl edge
v -0.217158 0.321588 2.679642
v -0.566868 0.321588 2.344503
v -0.569691 0.321588 2.347448
v -0.219981 0.321588 2.682588
v -0.217158 0.322171 2.679642
v -0.566868 0.322171 2.344503
v -0.569691 0.322171 2.347448
v -0.219981 0.322171 2.682588
f 255 258 257
f 257 256 255
f 261 262 259
f 259 260 261
f 256 260 259
f 256 259 255
f 257 261 260
f 257 260 256
f 258 262 261
f 258 261 257
f 255 259 262
f 255 262 258
o DeckEdge_12
usemtl edge
v -0.566295 0.321588 2.345505
v -0.697436 0.321588 1.791797
v -0.701406 0.321588 1.792737
v -0.570265 0.321588 2.346446
v -0.566295 0.322171 2.345505
v -0.697436 0.322171 1.791797
v -0.701406 0.322171 1.792737
v -0.570265 0.322171 2.346446
f 263 266 265
f 265 264 263
f 269 270 267
f 267 268 269
f 264 268 267
f 264 267 263
f 265 269 268
f 265 268 264
f 266 270 269
f 266 269 265
f 263 267 270
f 263 270 266
o DeckEdge_13
usemtl edge
v -0.697381 0.321588 1.792267
v -0.697381 0.321588 0.874277
v -0.701461 0.321588 0.874277
v -0.701461 0.321588 1.792267
v -0.697381 0.322171 1.792267
v -0.697381 0.322171 0.874277
v -0.701461 0.322171 0.874277
v -0.701461 0.322171 1.792267
f 271 274 273
f 273 272 271
f 277 278 275
f 275 276 277
f 272 276 275
f 272 275 271
f 273 277 276
f 273 276 272
f 274 278 277
f 274 277 273
f 271 275 278
f 271 278 274
o DeckEdge_14
usemtl edge
v -0.697385 0.321588 0.874156
v -0.784813 0.321588 -0.597543
v -0.788885 0.321588 -0.597301
v -0.701458 0.321588 0.874398
v -0.697385 0.322171 0.874156
v -0.784813 0.322171 -0.597543
v -0.788885 0.322171 -0.597301
v -0.701458 0.322171 0.874398
f 279 282 281
f 281 280 279
f 285 286 283
f 283 284 285
f 280 284 283
f 280 283 279
f 281 285 284
f 281 284 280
f 282 286 285
f 282 285 281
f 279 283 286
f 279 286 282
o DeckEdge_15
usemtl edge
v -0.784810 0.321588 -0.597366
v -0.755667 0.321588 -1.661070
v -0.759746 0.321588 -1.661181
v -0.788888 0.321588 -0.597478
v -0.784810 0.322171 -0.597366
v -0.755667 0.322171 -1.661070
v -0.759746 0.322171 -1.661181
v -0.788888 0.322171 -0.597478
f 287 290 289
f 289 288 287
f 293 294 291
f 291 292 293
f 288 292 291
f 288 291 287
f 289 293 292
f 289 292 288
f 290 294 293
f 290 293 289
f 287 291 294
f 287 294 290
o DeckEdge_16
usemtl edge
v -0.755694 0.321588 -1.660790
v -0.624553 0.321588 -2.447639
v -0.628577 0.321588 -2.448310
v -0.759719 0.321588 -1.661461
v -0.755694 0.322171 -1.660790
v -0.624553 0.322171 -2.447639
v -0.628577 0.322171 -2.448310
v -0.759719 0.322171 -1.661461
f 295 298 297
f 297 296 295
f 301 302 299
f 299 300 301
f 296 300 299
f 296 299 295
f 297 301 300
f 297 300 296
f 298 302 301
f 298 301 297
f 295 299 302
f 295 302 298
o DeckEdge_17
usemtl edge
v -0.624884 0.321588 -2.446819
v -0.464600 0.321588 -2.679959
v -0.467962 0.321588 -2.682271
v -0.628246 0.321588 -2.449130
v -0.624884 0.322171 -2.446819
v -0.464600 0.322171 -2.679959
v -0.467962 0.322171 -2.682271
v -0.628246 0.322171 -2.449130
f 303 306 305
f 305 304 303
f 309 310 307
f 307 308 309
f 304 308 307
f 304 307 303
f 305 309 308
f 305 308 304
f 306 310 309
f 306 309 305
f 303 307 310
f 303 310 306
o RakedIsland
usemtl island
v 0.451710 0.320568 -0.437138
v 0.582851 0.320568 -0.480852
v 0.684850 0.320568 -0.335139
v 0.699421 0.320568 0.407996
v 0.568280 0.320568 0.568280
v 0.451710 0.320568 0.466281
v 0.472692 0.539137 -0.350585
v 0.580228 0.539137 -0.386430
v 0.663867 0.539137 -0.266946
v 0.675816 0.539137 0.342425
v 0.568280 0.539137 0.473858
v 0.472692 0.539137 0.390219
f 311 312 313
f 311 313 314
f 311 314 315
f 311 315 316
f 322 321 320
f 322 320 319
f 322 319 318
f 322 318 317
f 317 318 312
f 317 312 311
f 318 319 313
f 318 313 312
f 319 320 314
f 319 314 313
f 320 321 315
f 320 315 314
f 321 322 316
f 321 316 315
f 322 317 311
f 322 311 316
o IntegratedBridge
usemtl island
v 0.480852 0.533309 -0.247712
v 0.597422 0.533309 -0.276854
v 0.670279 0.533309 -0.174855
v 0.670279 0.533309 0.378853
v 0.553709 0.533309 0.480852
v 0.480852 0.533309 0.393424
v 0.496589 0.641136 -0.191758
v 0.592177 0.641136 -0.216238
v 0.651919 0.641136 -0.130559
v 0.651919 0.641136 0.334557
v 0.556331 0.641136 0.420236
v 0.496589 0.641136 0.346796
f 323 324 325
f 323 325 326
f 323 326 327
f 323 327 328
f 334 333 332
f 334 332 331
f 334 331 330
f 334 330 329
f 329 330 324
f 329 324 323
f 330 331 325
f 330 325 324
f 331 332 326
f 331 326 325
f 332 333 327
f 332 327 326
f 333 334 328
f 333 328 327
f 334 329 323
f 334 323 328
o BridgeWindowPort
usemtl glass
v 0.477064 0.570465 -0.116570
v 0.480269 0.570465 -0.116570
v 0.480269 0.595237 -0.116570
v 0.477064 0.595237 -0.116570
v 0.477064 0.570465 0.320568
v 0.480269 0.570465 0.320568
v 0.480269 0.595237 0.320568
v 0.477064 0.595237 0.320568
f 335 338 337
f 335 337 336
f 339 340 341
f 339 341 342
f 335 336 340
f 335 340 339
f 338 342 341
f 338 341 337
f 335 339 342
f 335 342 338
f 336 337 341
f 336 341 340
o BridgeWindowStarboard
usemtl glass
v 0.662119 0.570465 -0.116570
v 0.665324 0.570465 -0.116570
v 0.665324 0.595237 -0.116570
v 0.662119 0.595237 -0.116570
v 0.662119 0.570465 0.320568
v 0.665324 0.570465 0.320568
v 0.665324 0.595237 0.320568
v 0.662119 0.595237 0.320568
f 343 346 345
f 343 345 344
f 347 348 349
f 347 349 350
f 343 344 348
f 343 348 347
f 346 350 349
f 346 349 345
f 343 347 350
f 343 350 346
f 344 345 349
f 344 349 348
o BridgeWindowForward
usemtl glass
v 0.502709 0.571194 0.467592
v 0.633851 0.571194 0.467592
v 0.633851 0.594508 0.467592
v 0.502709 0.594508 0.467592
v 0.502709 0.571194 0.470798
v 0.633851 0.571194 0.470798
v 0.633851 0.594508 0.470798
v 0.502709 0.594508 0.470798
f 351 354 353
f 351 353 352
f 355 356 357
f 355 357 358
f 351 352 356
f 351 356 355
f 354 358 357
f 354 357 353
f 351 355 358
f 351 358 354
f 352 353 357
f 352 357 356
o EnclosedSensorMast
usemtl island
v 0.509995 0.636765 -0.043714
v 0.597422 0.636765 -0.058285
v 0.641136 0.636765 0.014571
v 0.641136 0.636765 0.276854
v 0.553709 0.636765 0.349711
v 0.509995 0.636765 0.262283
v 0.530977 0.801420 0.016903
v 0.590428 0.801420 0.006994
v 0.620154 0.801420 0.056537
v 0.620154 0.801420 0.234889
v 0.560703 0.801420 0.284431
v 0.530977 0.801420 0.224981
f 359 360 361
f 359 361 362
f 359 362 363
f 359 363 364
f 370 369 368
f 370 368 367
f 370 367 366
f 370 366 365
f 365 366 360
f 365 360 359
f 366 367 361
f 366 361 360
f 367 368 362
f 367 362 361
f 368 369 363
f 368 363 362
f 369 370 364
f 369 364 363
f 370 365 359
f 370 359 364
o IntegratedRadar_Port
usemtl sensor
v 0.505623 0.673922 0.080142
v 0.508538 0.673922 0.080142
v 0.508538 0.754064 0.080142
v 0.505623 0.754064 0.080142
v 0.505623 0.673922 0.211284
v 0.508538 0.673922 0.211284
v 0.508538 0.754064 0.211284
v 0.505623 0.754064 0.211284
f 371 374 373
f 371 373 372
f 375 376 377
f 375 377 378
f 371 372 376
f 371 376 375
f 374 378 377
f 374 377 373
f 371 375 378
f 371 378 374
f 372 373 377
f 372 377 376
o IntegratedRadar_Starboard
usemtl sensor
v 0.642593 0.673922 0.080142
v 0.645508 0.673922 0.080142
v 0.645508 0.754064 0.080142
v 0.642593 0.754064 0.080142
v 0.642593 0.673922 0.211284
v 0.645508 0.673922 0.211284
v 0.645508 0.754064 0.211284
v 0.642593 0.754064 0.211284
f 379 382 381
f 379 381 380
f 383 384 385
f 383 385 386
f 379 380 384
f 379 384 383
f 382 386 385
f 382 385 381
f 379 383 386
f 379 386 382
f 380 381 385
f 380 385 384
o IntegratedRadar_Fore
usemtl sensor
v 0.531852 0.673922 0.322025
v 0.619279 0.673922 0.322025
v 0.619279 0.754064 0.322025
v 0.531852 0.754064 0.322025
v 0.531852 0.673922 0.324939
v 0.619279 0.673922 0.324939
v 0.619279 0.754064 0.324939
v 0.531852 0.754064 0.324939
f 387 390 389
f 387 389 388
f 391 392 393
f 391 393 394
f 387 388 392
f 387 392 391
f 390 394 393
f 390 393 389
f 387 391 394
f 387 394 390
f 388 389 393
f 388 393 392
o IntegratedRadar_Aft
usemtl sensor
v 0.531852 0.673922 -0.045171
v 0.619279 0.673922 -0.045171
v 0.619279 0.754064 -0.045171
v 0.531852 0.754064 -0.045171
v 0.531852 0.673922 -0.042257
v 0.619279 0.673922 -0.042257
v 0.619279 0.754064 -0.042257
v 0.531852 0.754064 -0.042257
f 395 398 397
f 395 397 396
f 399 400 401
f 399 401 402
f 395 396 400
f 395 400 399
f 398 402 401
f 398 401 397
f 395 399 402
f 395 402 398
f 396 397 401
f 396 401 400
o ShipboardECM_Module_PortPanel
usemtl dark
v 0.511160 0.761349 0.109285
v 0.514657 0.761349 0.109285
v 0.514657 0.791949 0.109285
v 0.511160 0.791949 0.109285
v 0.511160 0.761349 0.182141
v 0.514657 0.761349 0.182141
v 0.514657 0.791949 0.182141
v 0.511160 0.791949 0.182141
f 403 406 405
f 403 405 404
f 407 408 409
f 407 409 410
f 403 404 408
f 403 408 407
f 406 410 409
f 406 409 405
f 403 407 410
f 403 410 406
f 404 405 409
f 404 409 408
o ShipboardECM_Module_StarboardPanel
usemtl dark
v 0.635016 0.761349 0.109285
v 0.638513 0.761349 0.109285
v 0.638513 0.791949 0.109285
v 0.635016 0.791949 0.109285
v 0.635016 0.761349 0.182141
v 0.638513 0.761349 0.182141
v 0.638513 0.791949 0.182141
v 0.635016 0.791949 0.182141
f 411 414 413
f 411 413 412
f 415 416 417
f 415 417 418
f 411 412 416
f 411 416 415
f 414 418 417
f 414 417 413
f 411 415 418
f 411 418 414
f 412 413 417
f 412 417 416
o DeckEdgeLift_1
usemtl hatch
v 0.502709 0.321078 1.588269
v 0.692136 0.321078 1.588269
v 0.692136 0.323555 1.588269
v 0.502709 0.323555 1.588269
v 0.502709 0.321078 1.850552
v 0.692136 0.321078 1.850552
v 0.692136 0.323555 1.850552
v 0.502709 0.323555 1.850552
f 419 422 421
f 419 421 420
f 423 424 425
f 423 425 426
f 419 420 424
f 419 424 423
f 422 426 425
f 422 425 421
f 419 423 426
f 419 426 422
f 420 421 425
f 420 425 424
o LiftEdge_1_-1
usemtl white
v 0.504166 0.324211 1.592786
v 0.690679 0.324211 1.592786
v 0.690679 0.324211 1.589581
v 0.504166 0.324211 1.589581
v 0.504166 0.324794 1.592786
v 0.690679 0.324794 1.592786
v 0.690679 0.324794 1.589581
v 0.504166 0.324794 1.589581
f 427 430 429
f 429 428 427
f 433 434 431
f 431 432 433
f 428 432 431
f 428 431 427
f 429 433 432
f 429 432 428
f 430 434 433
f 430 433 429
f 427 431 434
f 427 434 430
o LiftEdge_1_1
usemtl white
v 0.504166 0.324211 1.849241
v 0.690679 0.324211 1.849241
v 0.690679 0.324211 1.846035
v 0.504166 0.324211 1.846035
v 0.504166 0.324794 1.849241
v 0.690679 0.324794 1.849241
v 0.690679 0.324794 1.846035
v 0.504166 0.324794 1.846035
f 435 438 437
f 437 436 435
f 441 442 439
f 439 440 441
f 436 440 439
f 436 439 435
f 437 441 440
f 437 440 436
f 438 442 441
f 438 441 437
f 435 439 442
f 435 442 438
o DeckEdgeLift_2
usemtl hatch
v 0.517280 0.321078 0.874277
v 0.706707 0.321078 0.874277
v 0.706707 0.323555 0.874277
v 0.517280 0.323555 0.874277
v 0.517280 0.321078 1.136560
v 0.706707 0.321078 1.136560
v 0.706707 0.323555 1.136560
v 0.517280 0.323555 1.136560
f 443 446 445
f 443 445 444
f 447 448 449
f 447 449 450
f 443 444 448
f 443 448 447
f 446 450 449
f 446 449 445
f 443 447 450
f 443 450 446
f 444 445 449
f 444 449 448
o LiftEdge_2_-1
usemtl white
v 0.518737 0.324211 0.878794
v 0.705250 0.324211 0.878794
v 0.705250 0.324211 0.875588
v 0.518737 0.324211 0.875588
v 0.518737 0.324794 0.878794
v 0.705250 0.324794 0.878794
v 0.705250 0.324794 0.875588
v 0.518737 0.324794 0.875588
f 451 454 453
f 453 452 451
f 457 458 455
f 455 456 457
f 452 456 455
f 452 455 451
f 453 457 456
f 453 456 452
f 454 458 457
f 454 457 453
f 451 455 458
f 451 458 454
o LiftEdge_2_1
usemtl white
v 0.518737 0.324211 1.135248
v 0.705250 0.324211 1.135248
v 0.705250 0.324211 1.132042
v 0.518737 0.324211 1.132042
v 0.518737 0.324794 1.135248
v 0.705250 0.324794 1.135248
v 0.705250 0.324794 1.132042
v 0.518737 0.324794 1.132042
f 459 462 461
f 461 460 459
f 465 466 463
f 463 464 465
f 460 464 463
f 460 463 459
f 461 465 464
f 461 464 460
f 462 466 465
f 462 465 461
f 459 463 466
f 459 466 462
o DeckEdgeLift_3
usemtl hatch
v 0.531852 0.321078 -0.961704
v 0.721278 0.321078 -0.961704
v 0.721278 0.323555 -0.961704
v 0.531852 0.323555 -0.961704
v 0.531852 0.321078 -0.699421
v 0.721278 0.321078 -0.699421
v 0.721278 0.323555 -0.699421
v 0.531852 0.323555 -0.699421
f 467 470 469
f 467 469 468
f 471 472 473
f 471 473 474
f 467 468 472
f 467 472 471
f 470 474 473
f 470 473 469
f 467 471 474
f 467 474 470
f 468 469 473
f 468 473 472
o LiftEdge_3_-1
usemtl white
v 0.533309 0.324211 -0.957187
v 0.719821 0.324211 -0.957187
v 0.719821 0.324211 -0.960393
v 0.533309 0.324211 -0.960393
v 0.533309 0.324794 -0.957187
v 0.719821 0.324794 -0.957187
v 0.719821 0.324794 -0.960393
v 0.533309 0.324794 -0.960393
f 475 478 477
f 477 476 475
f 481 482 479
f 479 480 481
f 476 480 479
f 476 479 475
f 477 481 480
f 477 480 476
f 478 482 481
f 478 481 477
f 475 479 482
f 475 482 478
o LiftEdge_3_1
usemtl white
v 0.533309 0.324211 -0.700733
v 0.719821 0.324211 -0.700733
v 0.719821 0.324211 -0.703938
v 0.533309 0.324211 -0.703938
v 0.533309 0.324794 -0.700733
v 0.719821 0.324794 -0.700733
v 0.719821 0.324794 -0.703938
v 0.533309 0.324794 -0.703938
f 483 486 485
f 485 484 483
f 489 490 487
f 487 488 489
f 484 488 487
f 484 487 483
f 485 489 488
f 485 488 484
f 486 490 489
f 486 489 485
f 483 487 490
f 483 490 486
o DeckEdgeLift_4
usemtl hatch
v 0.502709 0.321078 -2.171120
v 0.692136 0.321078 -2.171120
v 0.692136 0.323555 -2.171120
v 0.502709 0.323555 -2.171120
v 0.502709 0.321078 -1.908837
v 0.692136 0.321078 -1.908837
v 0.692136 0.323555 -1.908837
v 0.502709 0.323555 -1.908837
f 491 494 493
f 491 493 492
f 495 496 497
f 495 497 498
f 491 492 496
f 491 496 495
f 494 498 497
f 494 497 493
f 491 495 498
f 491 498 494
f 492 493 497
f 492 497 496
o LiftEdge_4_-1
usemtl white
v 0.504166 0.324211 -2.166603
v 0.690679 0.324211 -2.166603
v 0.690679 0.324211 -2.169809
v 0.504166 0.324211 -2.169809
v 0.504166 0.324794 -2.166603
v 0.690679 0.324794 -2.166603
v 0.690679 0.324794 -2.169809
v 0.504166 0.324794 -2.169809
f 499 502 501
f 501 500 499
f 505 506 503
f 503 504 505
f 500 504 503
f 500 503 499
f 501 505 504
f 501 504 500
f 502 506 505
f 502 505 501
f 499 503 506
f 499 506 502
o LiftEdge_4_1
usemtl white
v 0.504166 0.324211 -1.910149
v 0.690679 0.324211 -1.910149
v 0.690679 0.324211 -1.913354
v 0.504166 0.324211 -1.913354
v 0.504166 0.324794 -1.910149
v 0.690679 0.324794 -1.910149
v 0.690679 0.324794 -1.913354
v 0.504166 0.324794 -1.913354
f 507 510 509
f 509 508 507
f 513 514 511
f 511 512 513
f 508 512 511
f 508 511 507
f 509 513 512
f 509 512 508
f 510 514 513
f 510 513 509
f 507 511 514
f 507 514 510
o CatapultTrack_1
usemtl gold
v -0.222358 0.322462 0.859705
v -0.222358 0.322462 2.287690
v -0.214781 0.322462 2.287690
v -0.214781 0.322462 0.859705
v -0.222358 0.323045 0.859705
v -0.222358 0.323045 2.287690
v -0.214781 0.323045 2.287690
v -0.214781 0.323045 0.859705
f 515 518 517
f 517 516 515
f 521 522 519
f 519 520 521
f 516 520 519
f 516 519 515
f 517 521 520
f 517 520 516
f 518 522 521
f 518 521 517
f 515 519 522
f 515 522 518
o CatapultDeckGuide_1
usemtl edge
v -0.201521 0.322608 0.859705
v -0.201521 0.322608 2.287690
v -0.199189 0.322608 2.287690
v -0.199189 0.322608 0.859705
v -0.201521 0.323191 0.859705
v -0.201521 0.323191 2.287690
v -0.199189 0.323191 2.287690
v -0.199189 0.323191 0.859705
f 523 526 525
f 525 524 523
f 529 530 527
f 527 528 529
f 524 528 527
f 524 527 523
f 525 529 528
f 525 528 524
f 526 530 529
f 526 529 525
f 523 527 530
f 523 530 526
o CatapultTrack_2
usemtl gold
v 0.112782 0.322462 0.801420
v 0.112782 0.322462 2.345976
v 0.120359 0.322462 2.345976
v 0.120359 0.322462 0.801420
v 0.112782 0.323045 0.801420
v 0.112782 0.323045 2.345976
v 0.120359 0.323045 2.345976
v 0.120359 0.323045 0.801420
f 531 534 533
f 533 532 531
f 537 538 535
f 535 536 537
f 532 536 535
f 532 535 531
f 533 537 536
f 533 536 532
f 534 538 537
f 534 537 533
f 531 535 538
f 531 538 534
o CatapultDeckGuide_2
usemtl edge
v 0.133619 0.322608 0.801420
v 0.133619 0.322608 2.345976
v 0.135950 0.322608 2.345976
v 0.135950 0.322608 0.801420
v 0.133619 0.323191 0.801420
v 0.133619 0.323191 2.345976
v 0.135950 0.323191 2.345976
v 0.135950 0.323191 0.801420
f 539 542 541
f 541 540 539
f 545 546 543
f 543 544 545
f 540 544 543
f 540 543 539
f 541 545 544
f 541 544 540
f 542 546 545
f 542 545 541
f 539 543 546
f 539 546 542
o CatapultTrack_3
usemtl gold
v 0.069104 0.322462 -0.261758
v 0.258531 0.322462 1.093370
v 0.266035 0.322462 1.092321
v 0.076608 0.322462 -0.262807
v 0.069104 0.323045 -0.261758
v 0.258531 0.323045 1.093370
v 0.266035 0.323045 1.092321
v 0.076608 0.323045 -0.262807
f 547 550 549
f 549 548 547
f 553 554 551
f 551 552 553
f 548 552 551
f 548 551 547
f 549 553 552
f 549 552 548
f 550 554 553
f 550 553 549
f 547 551 554
f 547 554 550
o CatapultDeckGuide_3
usemtl edge
v 0.089916 0.322608 -0.262122
v 0.279343 0.322608 1.093007
v 0.281652 0.322608 1.092684
v 0.092225 0.322608 -0.262444
v 0.089916 0.323191 -0.262122
v 0.279343 0.323191 1.093007
v 0.281652 0.323191 1.092684
v 0.092225 0.323191 -0.262444
f 555 558 557
f 557 556 555
f 561 562 559
f 559 560 561
f 556 560 559
f 556 559 555
f 557 561 560
f 557 560 556
f 558 562 561
f 558 561 557
f 555 559 562
f 555 562 558
o CatapultTrack_4
usemtl gold
v 0.287660 0.322462 -0.553294
v 0.447944 0.322462 0.903833
v 0.455475 0.322462 0.903005
v 0.295191 0.322462 -0.554123
v 0.287660 0.323045 -0.553294
v 0.447944 0.323045 0.903833
v 0.455475 0.323045 0.903005
v 0.295191 0.323045 -0.554123
f 563 566 565
f 565 564 563
f 569 570 567
f 567 568 569
f 564 568 567
f 564 567 563
f 565 569 568
f 565 568 564
f 566 570 569
f 566 569 565
f 563 567 570
f 563 570 566
o CatapultDeckGuide_4
usemtl edge
v 0.308481 0.322608 -0.553581
v 0.468765 0.322608 0.903547
v 0.471082 0.322608 0.903292
v 0.310798 0.322608 -0.553836
v 0.308481 0.323191 -0.553581
v 0.468765 0.323191 0.903547
v 0.471082 0.323191 0.903292
v 0.310798 0.323191 -0.553836
f 571 574 573
f 573 572 571
f 577 578 575
f 575 576 577
f 572 576 575
f 572 575 571
f 573 577 576
f 573 576 572
f 574 578 577
f 574 577 573
f 571 575 578
f 571 578 574
o AngledLandingEdge_-1
usemtl white
v -0.560554 0.322754 -2.258422
v -0.400270 0.322754 0.903545
v -0.395322 0.322754 0.903294
v -0.555606 0.322754 -2.258673
v -0.560554 0.323337 -2.258422
v -0.400270 0.323337 0.903545
v -0.395322 0.323337 0.903294
v -0.555606 0.323337 -2.258673
f 579 582 581
f 581 580 579
f 585 586 583
f 583 584 585
f 580 584 583
f 580 583 579
f 581 585 584
f 581 584 580
f 582 586 585
f 582 585 581
f 579 583 586
f 579 586 582
o AngledLandingEdge_1
usemtl white
v -0.231243 0.322754 -2.258422
v -0.070959 0.322754 0.903545
v -0.066011 0.322754 0.903294
v -0.226295 0.322754 -2.258673
v -0.231243 0.323337 -2.258422
v -0.070959 0.323337 0.903545
v -0.066011 0.323337 0.903294
v -0.226295 0.323337 -2.258673
f 587 590 589
f 589 588 587
f 593 594 591
f 591 592 593
f 588 592 591
f 588 591 587
f 589 593 592
f 589 592 588
f 590 594 593
f 590 593 589
f 587 591 594
f 587 594 590
o LandingCentreline_01
usemtl white
v -0.395393 0.322899 -2.234063
v -0.390585 0.322899 -2.139204
v -0.384181 0.322899 -2.139528
v -0.388990 0.322899 -2.234387
v -0.395393 0.323482 -2.234063
v -0.390585 0.323482 -2.139204
v -0.384181 0.323482 -2.139528
v -0.388990 0.323482 -2.234387
f 595 598 597
f 597 596 595
f 601 602 599
f 599 600 601
f 596 600 599
f 596 599 595
f 597 601 600
f 597 600 596
f 598 602 601
f 598 601 597
f 595 599 602
f 595 602 598
o LandingCentreline_02
usemtl white
v -0.383064 0.322899 -1.990835
v -0.378255 0.322899 -1.895976
v -0.371852 0.322899 -1.896300
v -0.376660 0.322899 -1.991159
v -0.383064 0.323482 -1.990835
v -0.378255 0.323482 -1.895976
v -0.371852 0.323482 -1.896300
v -0.376660 0.323482 -1.991159
f 603 606 605
f 605 604 603
f 609 610 607
f 607 608 609
f 604 608 607
f 604 607 603
f 605 609 608
f 605 608 604
f 606 610 609
f 606 609 605
f 603 607 610
f 603 610 606
o LandingCentreline_03
usemtl white
v -0.370734 0.322899 -1.747606
v -0.365925 0.322899 -1.652747
v -0.359522 0.322899 -1.653072
v -0.364331 0.322899 -1.747931
v -0.370734 0.323482 -1.747606
v -0.365925 0.323482 -1.652747
v -0.359522 0.323482 -1.653072
v -0.364331 0.323482 -1.747931
f 611 614 613
f 613 612 611
f 617 618 615
f 615 616 617
f 612 616 615
f 612 615 611
f 613 617 616
f 613 616 612
f 614 618 617
f 614 617 613
f 611 615 618
f 611 618 614
o LandingCentreline_04
usemtl white
v -0.358404 0.322899 -1.504378
v -0.353596 0.322899 -1.409519
v -0.347193 0.322899 -1.409844
v -0.352001 0.322899 -1.504703
v -0.358404 0.323482 -1.504378
v -0.353596 0.323482 -1.409519
v -0.347193 0.323482 -1.409844
v -0.352001 0.323482 -1.504703
f 619 622 621
f 621 620 619
f 625 626 623
f 623 624 625
f 620 624 623
f 620 623 619
f 621 625 624
f 621 624 620
f 622 626 625
f 622 625 621
f 619 623 626
f 619 626 622
o LandingCentreline_05
usemtl white
v -0.346075 0.322899 -1.261150
v -0.341266 0.322899 -1.166291
v -0.334863 0.322899 -1.166615
v -0.339672 0.322899 -1.261474
v -0.346075 0.323482 -1.261150
v -0.341266 0.323482 -1.166291
v -0.334863 0.323482 -1.166615
v -0.339672 0.323482 -1.261474
f 627 630 629
f 629 628 627
f 633 634 631
f 631 632 633
f 628 632 631
f 628 631 627
f 629 633 632
f 629 632 628
f 630 634 633
f 630 633 629
f 627 631 634
f 627 634 630
o LandingCentreline_06
usemtl white
v -0.333745 0.322899 -1.017922
v -0.328937 0.322899 -0.923063
v -0.322534 0.322899 -0.923387
v -0.327342 0.322899 -1.018246
v -0.333745 0.323482 -1.017922
v -0.328937 0.323482 -0.923063
v -0.322534 0.323482 -0.923387
v -0.327342 0.323482 -1.018246
f 635 638 637
f 637 636 635
f 641 642 639
f 639 640 641
f 636 640 639
f 636 639 635
f 637 641 640
f 637 640 636
f 638 642 641
f 638 641 637
f 635 639 642
f 635 642 638
o LandingCentreline_07
usemtl white
v -0.321416 0.322899 -0.774693
v -0.316607 0.322899 -0.679834
v -0.310204 0.322899 -0.680159
v -0.315013 0.322899 -0.775018
v -0.321416 0.323482 -0.774693
v -0.316607 0.323482 -0.679834
v -0.310204 0.323482 -0.680159
v -0.315013 0.323482 -0.775018
f 643 646 645
f 645 644 643
f 649 650 647
f 647 648 649
f 644 648 647
f 644 647 643
f 645 649 648
f 645 648 644
f 646 650 649
f 646 649 645
f 643 647 650
f 643 650 646
o LandingCentreline_08
usemtl white
v -0.309086 0.322899 -0.531465
v -0.304278 0.322899 -0.436606
v -0.297875 0.322899 -0.436931
v -0.302683 0.322899 -0.531790
v -0.309086 0.323482 -0.531465
v -0.304278 0.323482 -0.436606
v -0.297875 0.323482 -0.436931
v -0.302683 0.323482 -0.531790
f 651 654 653
f 653 652 651
f 657 658 655
f 655 656 657
f 652 656 655
f 652 655 651
f 653 657 656
f 653 656 652
f 654 658 657
f 654 657 653
f 651 655 658
f 651 658 654
o LandingCentreline_09
usemtl white
v -0.296757 0.322899 -0.288237
v -0.291948 0.322899 -0.193378
v -0.285545 0.322899 -0.193702
v -0.290354 0.322899 -0.288561
v -0.296757 0.323482 -0.288237
v -0.291948 0.323482 -0.193378
v -0.285545 0.323482 -0.193702
v -0.290354 0.323482 -0.288561
f 659 662 661
f 661 660 659
f 665 666 663
f 663 664 665
f 660 664 663
f 660 663 659
f 661 665 664
f 661 664 660
f 662 666 665
f 662 665 661
f 659 663 666
f 659 666 662
o LandingCentreline_10
usemtl white
v -0.284427 0.322899 -0.045009
v -0.279619 0.322899 0.049850
v -0.273216 0.322899 0.049526
v -0.278024 0.322899 -0.045333
v -0.284427 0.323482 -0.045009
v -0.279619 0.323482 0.049850
v -0.273216 0.323482 0.049526
v -0.278024 0.323482 -0.045333
f 667 670 669
f 669 668 667
f 673 674 671
f 671 672 673
f 668 672 671
f 668 671 667
f 669 673 672
f 669 672 668
f 670 674 673
f 670 673 669
f 667 671 674
f 667 674 670
o LandingCentreline_11
usemtl white
v -0.272098 0.322899 0.198220
v -0.267289 0.322899 0.293079
v -0.260886 0.322899 0.292754
v -0.265695 0.322899 0.197895
v -0.272098 0.323482 0.198220
v -0.267289 0.323482 0.293079
v -0.260886 0.323482 0.292754
v -0.265695 0.323482 0.197895
f 675 678 677
f 677 676 675
f 681 682 679
f 679 680 681
f 676 680 679
f 676 679 675
f 677 681 680
f 677 680 676
f 678 682 681
f 678 681 677
f 675 679 682
f 675 682 678
o LandingCentreline_12
usemtl white
v -0.259768 0.322899 0.441448
v -0.254960 0.322899 0.536307
v -0.248556 0.322899 0.535982
v -0.253365 0.322899 0.441123
v -0.259768 0.323482 0.441448
v -0.254960 0.323482 0.536307
v -0.248556 0.323482 0.535982
v -0.253365 0.323482 0.441123
f 683 686 685
f 685 684 683
f 689 690 687
f 687 688 689
f 684 688 687
f 684 687 683
f 685 689 688
f 685 688 684
f 686 690 689
f 686 689 685
f 683 687 690
f 683 690 686
o LandingCentreline_13
usemtl white
v -0.247439 0.322899 0.684676
v -0.242630 0.322899 0.779535
v -0.236227 0.322899 0.779210
v -0.241035 0.322899 0.684351
v -0.247439 0.323482 0.684676
v -0.242630 0.323482 0.779535
v -0.236227 0.323482 0.779210
v -0.241035 0.323482 0.684351
f 691 694 693
f 693 692 691
f 697 698 695
f 695 696 697
f 692 696 695
f 692 695 691
f 693 697 696
f 693 696 692
f 694 698 697
f 694 697 693
f 691 695 698
f 691 698 694
o ArrestingWire_1
usemtl dark
v -0.504020 0.323337 -1.277172
v -0.183452 0.323337 -1.277172
v -0.183452 0.323337 -1.279504
v -0.504020 0.323337 -1.279504
v -0.504020 0.323919 -1.277172
v -0.183452 0.323919 -1.277172
v -0.183452 0.323919 -1.279504
v -0.504020 0.323919 -1.279504
f 699 702 701
f 701 700 699
f 705 706 703
f 703 704 705
f 700 704 703
f 700 703 699
f 701 705 704
f 701 704 700
f 702 706 705
f 702 705 701
f 699 703 706
f 699 706 702
o ArrestingWire_2
usemtl dark
v -0.491198 0.323337 -1.024215
v -0.170630 0.323337 -1.024215
v -0.170630 0.323337 -1.026546
v -0.491198 0.323337 -1.026546
v -0.491198 0.323919 -1.024215
v -0.170630 0.323919 -1.024215
v -0.170630 0.323919 -1.026546
v -0.491198 0.323919 -1.026546
f 707 710 709
f 709 708 707
f 713 714 711
f 711 712 713
f 708 712 711
f 708 711 707
f 709 713 712
f 709 712 708
f 710 714 713
f 710 713 709
f 707 711 714
f 707 714 710
o ArrestingWire_3
usemtl dark
v -0.478375 0.323337 -0.771258
v -0.157807 0.323337 -0.771258
v -0.157807 0.323337 -0.773589
v -0.478375 0.323337 -0.773589
v -0.478375 0.323919 -0.771258
v -0.157807 0.323919 -0.771258
v -0.157807 0.323919 -0.773589
v -0.478375 0.323919 -0.773589
f 715 718 717
f 717 716 715
f 721 722 719
f 719 720 721
f 716 720 719
f 716 719 715
f 717 721 720
f 717 720 716
f 718 722 721
f 718 721 717
f 715 719 722
f 715 722 718
o ArrestingWire_4
usemtl dark
v -0.465552 0.323337 -0.518300
v -0.144984 0.323337 -0.518300
v -0.144984 0.323337 -0.520632
v -0.465552 0.323337 -0.520632
v -0.465552 0.323919 -0.518300
v -0.144984 0.323919 -0.518300
v -0.144984 0.323919 -0.520632
v -0.465552 0.323919 -0.520632
f 723 726 725
f 725 724 723
f 729 730 727
f 727 728 729
f 724 728 727
f 724 727 723
f 725 729 728
f 725 728 724
f 726 730 729
f 726 729 725
f 723 727 730
f 723 730 726
o OutboardFairing_1
usemtl hull
v -0.684850 0.259369 1.486270
v -0.786849 0.259369 1.486270
v -0.845134 0.259369 1.544555
v -0.845134 0.259369 1.631983
v -0.786849 0.259369 1.690268
v -0.684850 0.259369 1.690268
v -0.684850 0.313282 1.486270
v -0.786849 0.313282 1.486270
v -0.845134 0.313282 1.544555
v -0.845134 0.313282 1.631983
v -0.786849 0.313282 1.690268
v -0.684850 0.313282 1.690268
f 731 736 735
f 731 735 734
f 731 734 733
f 733 732 731
f 741 742 737
f 740 741 737
f 739 740 737
f 737 738 739
f 732 738 737
f 732 737 731
f 733 739 738
f 733 738 732
f 734 740 739
f 734 739 733
f 735 741 740
f 735 740 734
f 736 742 741
f 736 741 735
f 731 737 742
f 731 742 736
o LaserEnclosure_1
usemtl island
v -0.801420 0.313282 1.537270
v -0.713993 0.313282 1.537270
v -0.703793 0.313282 1.588269
v -0.713993 0.313282 1.639269
v -0.801420 0.313282 1.639269
v -0.811620 0.313282 1.588269
v -0.783498 0.373025 1.556139
v -0.731915 0.373025 1.556139
v -0.725897 0.373025 1.588269
v -0.731915 0.373025 1.620399
v -0.783498 0.373025 1.620399
v -0.789515 0.373025 1.588269
f 743 744 745
f 743 745 746
f 743 746 747
f 743 747 748
f 754 753 752
f 754 752 751
f 754 751 750
f 754 750 749
f 749 750 744
f 749 744 743
f 750 751 745
f 750 745 744
f 751 752 746
f 751 746 745
f 752 753 747
f 752 747 746
f 753 754 748
f 753 748 747
f 754 749 743
f 754 743 748
o LaserAperture_1
usemtl laser
v -0.773006 0.350803 1.624843
v -0.742407 0.350803 1.624843
v -0.742407 0.360275 1.624843
v -0.773006 0.360275 1.624843
v -0.773006 0.350803 1.627466
v -0.742407 0.350803 1.627466
v -0.742407 0.360275 1.627466
v -0.773006 0.360275 1.627466
f 755 758 757
f 755 757 756
f 759 760 761
f 759 761 762
f 755 756 760
f 755 760 759
f 758 762 761
f 758 761 757
f 755 759 762
f 755 762 758
f 756 757 761
f 756 761 760
o OutboardFairing_2
usemtl hull
v 0.699421 0.259369 1.500841
v 0.801420 0.259369 1.500841
v 0.859705 0.259369 1.559127
v 0.859705 0.259369 1.646554
v 0.801420 0.259369 1.704839
v 0.699421 0.259369 1.704839
v 0.699421 0.313282 1.500841
v 0.801420 0.313282 1.500841
v 0.859705 0.313282 1.559127
v 0.859705 0.313282 1.646554
v 0.801420 0.313282 1.704839
v 0.699421 0.313282 1.704839
f 768 763 764
f 768 764 765
f 768 765 766
f 766 767 768
f 770 769 774
f 771 770 774
f 772 771 774
f 774 773 772
f 763 769 770
f 763 770 764
f 764 770 771
f 764 771 765
f 765 771 772
f 765 772 766
f 766 772 773
f 766 773 767
f 767 773 774
f 767 774 768
f 768 774 769
f 768 769 763
o LaserEnclosure_2
usemtl island
v 0.728564 0.313282 1.551841
v 0.815991 0.313282 1.551841
v 0.826191 0.313282 1.602840
v 0.815991 0.313282 1.653840
v 0.728564 0.313282 1.653840
v 0.718364 0.313282 1.602840
v 0.746486 0.373025 1.570711
v 0.798069 0.373025 1.570711
v 0.804087 0.373025 1.602840
v 0.798069 0.373025 1.634970
v 0.746486 0.373025 1.634970
v 0.740469 0.373025 1.602840
f 775 776 777
f 775 777 778
f 775 778 779
f 775 779 780
f 786 785 784
f 786 784 783
f 786 783 782
f 786 782 781
f 781 782 776
f 781 776 775
f 782 783 777
f 782 777 776
f 783 784 778
f 783 778 777
f 784 785 779
f 784 779 778
f 785 786 780
f 785 780 779
f 786 781 775
f 786 775 780
o LaserAperture_2
usemtl laser
v 0.756978 0.350803 1.639414
v 0.787577 0.350803 1.639414
v 0.787577 0.360275 1.639414
v 0.756978 0.360275 1.639414
v 0.756978 0.350803 1.642037
v 0.787577 0.350803 1.642037
v 0.787577 0.360275 1.642037
v 0.756978 0.360275 1.642037
f 787 790 789
f 787 789 788
f 791 792 793
f 791 793 794
f 787 788 792
f 787 792 791
f 790 794 793
f 790 793 789
f 787 791 794
f 787 794 790
f 788 789 793
f 788 793 792
o OutboardFairing_3
usemtl hull
v -0.772278 0.259369 -1.923408
v -0.874277 0.259369 -1.923408
v -0.932562 0.259369 -1.865123
v -0.932562 0.259369 -1.777696
v -0.874277 0.259369 -1.719411
v -0.772278 0.259369 -1.719411
v -0.772278 0.313282 -1.923408
v -0.874277 0.313282 -1.923408
v -0.932562 0.313282 -1.865123
v -0.932562 0.313282 -1.777696
v -0.874277 0.313282 -1.719411
v -0.772278 0.313282 -1.719411
f 795 800 799
f 795 799 798
f 795 798 797
f 797 796 795
f 805 806 801
f 804 805 801
f 803 804 801
f 801 802 803
f 796 802 801
f 796 801 795
f 797 803 802
f 797 802 796
f 798 804 803
f 798 803 797
f 799 805 804
f 799 804 798
f 800 806 805
f 800 805 799
f 795 801 806
f 795 806 800
o LaserEnclosure_3
usemtl island
v -0.888848 0.313282 -1.872409
v -0.801420 0.313282 -1.872409
v -0.791220 0.313282 -1.821410
v -0.801420 0.313282 -1.770410
v -0.888848 0.313282 -1.770410
v -0.899048 0.313282 -1.821410
v -0.870925 0.373025 -1.853539
v -0.819343 0.373025 -1.853539
v -0.813325 0.373025 -1.821410
v -0.819343 0.373025 -1.789280
v -0.870925 0.373025 -1.789280
v -0.876943 0.373025 -1.821410
f 807 808 809
f 807 809 810
f 807 810 811
f 807 811 812
f 818 817 816
f 818 816 815
f 818 815 814
f 818 814 813
f 813 814 808
f 813 808 807
f 814 815 809
f 814 809 808
f 815 816 810
f 815 810 809
f 816 817 811
f 816 811 810
f 817 818 812
f 817 812 811
f 818 813 807
f 818 807 812
o LaserAperture_3
usemtl laser
v -0.860434 0.350803 -1.784836
v -0.829834 0.350803 -1.784836
v -0.829834 0.360275 -1.784836
v -0.860434 0.360275 -1.784836
v -0.860434 0.350803 -1.782213
v -0.829834 0.350803 -1.782213
v -0.829834 0.360275 -1.782213
v -0.860434 0.360275 -1.782213
f 819 822 821
f 819 821 820
f 823 824 825
f 823 825 826
f 819 820 824
f 819 824 823
f 822 826 825
f 822 825 821
f 819 823 826
f 819 826 822
f 820 821 825
f 820 825 824
o OutboardFairing_4
usemtl hull
v 0.728564 0.259369 -1.937980
v 0.830563 0.259369 -1.937980
v 0.888848 0.259369 -1.879695
v 0.888848 0.259369 -1.792267
v 0.830563 0.259369 -1.733982
v 0.728564 0.259369 -1.733982
v 0.728564 0.313282 -1.937980
v 0.830563 0.313282 -1.937980
v 0.888848 0.313282 -1.879695
v 0.888848 0.313282 -1.792267
v 0.830563 0.313282 -1.733982
v 0.728564 0.313282 -1.733982
f 832 827 828
f 832 828 829
f 832 829 830
f 830 831 832
f 834 833 838
f 835 834 838
f 836 835 838
f 838 837 836
f 827 833 834
f 827 834 828
f 828 834 835
f 828 835 829
f 829 835 836
f 829 836 830
f 830 836 837
f 830 837 831
f 831 837 838
f 831 838 832
f 832 838 833
f 832 833 827
o LaserEnclosure_4
usemtl island
v 0.757706 0.313282 -1.886980
v 0.845134 0.313282 -1.886980
v 0.855334 0.313282 -1.835981
v 0.845134 0.313282 -1.784981
v 0.757706 0.313282 -1.784981
v 0.747506 0.313282 -1.835981
v 0.775629 0.373025 -1.868111
v 0.827211 0.373025 -1.868111
v 0.833229 0.373025 -1.835981
v 0.827211 0.373025 -1.803851
v 0.775629 0.373025 -1.803851
v 0.769611 0.373025 -1.835981
f 839 840 841
f 839 841 842
f 839 842 843
f 839 843 844
f 850 849 848
f 850 848 847
f 850 847 846
f 850 846 845
f 845 846 840
f 845 840 839
f 846 847 841
f 846 841 840
f 847 848 842
f 847 842 841
f 848 849 843
f 848 843 842
f 849 850 844
f 849 844 843
f 850 845 839
f 850 839 844
o LaserAperture_4
usemtl laser
v 0.786120 0.350803 -1.799407
v 0.816720 0.350803 -1.799407
v 0.816720 0.360275 -1.799407
v 0.786120 0.360275 -1.799407
v 0.786120 0.350803 -1.796784
v 0.816720 0.350803 -1.796784
v 0.816720 0.360275 -1.796784
v 0.786120 0.360275 -1.796784
f 851 854 853
f 851 853 852
f 855 856 857
f 855 857 858
f 851 852 856
f 851 856 855
f 854 858 857
f 854 857 853
f 851 855 858
f 851 858 854
f 852 853 857
f 852 857 856
o DefensiveHatch_1
usemtl hatch
v -0.740221 0.320860 0.400710
v -0.658622 0.320860 0.400710
v -0.658622 0.322899 0.400710
v -0.740221 0.322899 0.400710
v -0.740221 0.320860 0.502709
v -0.658622 0.320860 0.502709
v -0.658622 0.322899 0.502709
v -0.740221 0.322899 0.502709
f 859 862 861
f 859 861 860
f 863 864 865
f 863 865 866
f 859 860 864
f 859 864 863
f 862 866 865
f 862 865 861
f 859 863 866
f 859 866 862
f 860 861 865
f 860 865 864
o DefensiveHatch_2
usemtl hatch
v 0.673193 0.320860 -1.376986
v 0.754792 0.320860 -1.376986
v 0.754792 0.322899 -1.376986
v 0.673193 0.322899 -1.376986
v 0.673193 0.320860 -1.274987
v 0.754792 0.320860 -1.274987
v 0.754792 0.322899 -1.274987
v 0.673193 0.322899 -1.274987
f 867 870 869
f 867 869 868
f 871 872 873
f 871 873 874
f 867 868 872
f 867 872 871
f 870 874 873
f 870 873 869
f 867 871 874
f 867 874 870
f 868 869 873
f 868 873 872
o BowSonarFairingStudy
usemtl dark
v -0.043714 -0.105642 2.331404
v 0.043714 -0.105642 2.331404
v 0.043714 -0.054642 2.331404
v -0.043714 -0.054642 2.331404
v -0.043714 -0.105642 2.447974
v 0.043714 -0.105642 2.447974
v 0.043714 -0.054642 2.447974
v -0.043714 -0.054642 2.447974
f 875 878 877
f 875 877 876
f 879 880 881
f 879 881 882
f 875 876 880
f 875 880 879
f 878 882 881
f 878 881 877
f 875 879 882
f 875 882 878
f 876 877 881
f 876 881 880
