# Original RAN carrier model study scaled to an observed Sea Power reference mesh.
# Approximate game scale only; engine origin, deck routing and collision need an in-game test.
# RAN Carrier Restart: original model study; coordinates in metres
mtllib ran_cvn_southern_cross_2009.mtl
o Hull
usemtl hull
v -0.23436663 0.00000000 -2.53889922
v -0.24161508 0.04371383 -2.53889922
v -0.23919893 0.27248287 -2.53889922
v 0.23919893 0.27248287 -2.53889922
v 0.24161508 0.04371383 -2.53889922
v 0.23436663 0.00000000 -2.53889922
v -0.24004415 0.00000000 -2.39564535
v -0.24746820 0.04371383 -2.39564535
v -0.24499352 0.27248287 -2.39564535
v 0.24499352 0.27248287 -2.39564535
v 0.24746820 0.04371383 -2.39564535
v 0.24004415 0.00000000 -2.39564535
v -0.24569963 0.00000000 -2.25239149
v -0.25329859 0.04371383 -2.25239149
v -0.25076561 0.27248287 -2.25239149
v 0.25076561 0.27248287 -2.25239149
v 0.25329859 0.04371383 -2.25239149
v 0.24569963 0.00000000 -2.25239149
v -0.25131108 0.00000000 -2.10913763
v -0.25908359 0.04371383 -2.10913763
v -0.25649276 0.27248287 -2.10913763
v 0.25649276 0.27248287 -2.10913763
v 0.25908359 0.04371383 -2.10913763
v 0.25131108 0.00000000 -2.10913763
v -0.25685674 0.00000000 -1.96588377
v -0.26480075 0.04371383 -1.96588377
v -0.26215274 0.27248287 -1.96588377
v 0.26215274 0.27248287 -1.96588377
v 0.26480075 0.04371383 -1.96588377
v 0.25685674 0.00000000 -1.96588377
v -0.26231502 0.00000000 -1.82262991
v -0.27042785 0.04371383 -1.82262991
v -0.26772357 0.27248287 -1.82262991
v 0.26772357 0.27248287 -1.82262991
v 0.27042785 0.04371383 -1.82262991
v 0.26231502 0.00000000 -1.82262991
v -0.26766475 0.00000000 -1.67937604
v -0.27594304 0.04371383 -1.67937604
v -0.27318360 0.27248287 -1.67937604
v 0.27318360 0.27248287 -1.67937604
v 0.27594304 0.04371383 -1.67937604
v 0.26766475 0.00000000 -1.67937604
v -0.27288514 0.00000000 -1.53612218
v -0.28132490 0.04371383 -1.53612218
v -0.27851163 0.27248287 -1.53612218
v 0.27851163 0.27248287 -1.53612218
v 0.28132490 0.04371383 -1.53612218
v 0.27288514 0.00000000 -1.53612218
v -0.27795593 0.00000000 -1.39286832
v -0.28655250 0.04371383 -1.39286832
v -0.28368697 0.27248287 -1.39286832
v 0.28368697 0.27248287 -1.39286832
v 0.28655250 0.04371383 -1.39286832
v 0.27795593 0.00000000 -1.39286832
v -0.28285740 0.00000000 -1.24961446
v -0.29160557 0.04371383 -1.24961446
v -0.28868951 0.27248287 -1.24961446
v 0.28868951 0.27248287 -1.24961446
v 0.29160557 0.04371383 -1.24961446
v 0.28285740 0.00000000 -1.24961446
v -0.28757052 0.00000000 -1.10636060
v -0.29646447 0.04371383 -1.10636060
v -0.29349982 0.27248287 -1.10636060
v 0.29349982 0.27248287 -1.10636060
v 0.29646447 0.04371383 -1.10636060
v 0.28757052 0.00000000 -1.10636060
v -0.29207700 0.00000000 -0.96310673
v -0.30111031 0.04371383 -0.96310673
v -0.29809920 0.27248287 -0.96310673
v 0.29809920 0.27248287 -0.96310673
v 0.30111031 0.04371383 -0.96310673
v 0.29207700 0.00000000 -0.96310673
v -0.29635932 0.00000000 -0.81985287
v -0.30552508 0.04371383 -0.81985287
v -0.30246983 0.27248287 -0.81985287
v 0.30246983 0.27248287 -0.81985287
v 0.30552508 0.04371383 -0.81985287
v 0.29635932 0.00000000 -0.81985287
v -0.30040085 0.00000000 -0.67659901
v -0.30969160 0.04371383 -0.67659901
v -0.30659468 0.27248287 -0.67659901
v 0.30659468 0.27248287 -0.67659901
v 0.30969160 0.04371383 -0.67659901
v 0.30040085 0.00000000 -0.67659901
v -0.30418589 0.00000000 -0.53334515
v -0.31359370 0.04371383 -0.53334515
v -0.31045776 0.27248287 -0.53334515
v 0.31045776 0.27248287 -0.53334515
v 0.31359370 0.04371383 -0.53334515
v 0.30418589 0.00000000 -0.53334515
v -0.30769974 0.00000000 -0.39009129
v -0.31721622 0.04371383 -0.39009129
v -0.31404407 0.27248287 -0.39009129
v 0.31404407 0.27248287 -0.39009129
v 0.31721622 0.04371383 -0.39009129
v 0.30769974 0.00000000 -0.39009129
v -0.31092875 0.00000000 -0.24683742
v -0.32054510 0.04371383 -0.24683742
v -0.31733966 0.27248287 -0.24683742
v 0.31733966 0.27248287 -0.24683742
v 0.32054510 0.04371383 -0.24683742
v 0.31092875 0.00000000 -0.24683742
v -0.31386039 0.00000000 -0.10358356
v -0.32356741 0.04371383 -0.10358356
v -0.32033174 0.27248287 -0.10358356
v 0.32033174 0.27248287 -0.10358356
v 0.32356741 0.04371383 -0.10358356
v 0.31386039 0.00000000 -0.10358356
v -0.31648324 0.00000000 0.03967030
v -0.32627140 0.04371383 0.03967030
v -0.32300868 0.27248287 0.03967030
v 0.32300868 0.27248287 0.03967030
v 0.32627140 0.04371383 0.03967030
v 0.31648324 0.00000000 0.03967030
v -0.31878717 0.00000000 0.18292416
v -0.32864656 0.04371383 0.18292416
v -0.32536009 0.27248287 0.18292416
v 0.32536009 0.27248287 0.18292416
v 0.32864656 0.04371383 0.18292416
v 0.31878717 0.00000000 0.18292416
v -0.32076316 0.00000000 0.32617802
v -0.33068368 0.04371383 0.32617802
v -0.32737685 0.27248287 0.32617802
v 0.32737685 0.27248287 0.32617802
v 0.33068368 0.04371383 0.32617802
v 0.32076316 0.00000000 0.32617802
v -0.32240360 0.00000000 0.46943189
v -0.33237484 0.04371383 0.46943189
v -0.32905109 0.27248287 0.46943189
v 0.32905109 0.27248287 0.46943189
v 0.33237484 0.04371383 0.46943189
v 0.32240360 0.00000000 0.46943189
v -0.32370207 0.00000000 0.61268575
v -0.33371347 0.04371383 0.61268575
v -0.33037634 0.27248287 0.61268575
v 0.33037634 0.27248287 0.61268575
v 0.33371347 0.04371383 0.61268575
v 0.32370207 0.00000000 0.61268575
v -0.32465356 0.00000000 0.75593961
v -0.33469438 0.04371383 0.75593961
v -0.33134745 0.27248287 0.75593961
v 0.33134745 0.27248287 0.75593961
v 0.33469438 0.04371383 0.75593961
v 0.32465356 0.00000000 0.75593961
v -0.32525435 0.00000000 0.89919347
v -0.33531376 0.04371383 0.89919347
v -0.33196062 0.27248287 0.89919347
v 0.33196062 0.27248287 0.89919347
v 0.33531376 0.04371383 0.89919347
v 0.32525435 0.00000000 0.89919347
v -0.32550212 0.00000000 1.04244733
v -0.33556920 0.04371383 1.04244733
v -0.33221351 0.27248287 1.04244733
v 0.33221351 0.27248287 1.04244733
v 0.33556920 0.04371383 1.04244733
v 0.32550212 0.00000000 1.04244733
v -0.32550920 0.00000000 1.18570120
v -0.33557650 0.04371383 1.18570120
v -0.33222073 0.27248287 1.18570120
v 0.33222073 0.27248287 1.18570120
v 0.33557650 0.04371383 1.18570120
v 0.32550920 0.00000000 1.18570120
v -0.32550920 0.00000000 1.32895506
v -0.33557650 0.04371383 1.32895506
v -0.33222073 0.27248287 1.32895506
v 0.33222073 0.27248287 1.32895506
v 0.33557650 0.04371383 1.32895506
v 0.32550920 0.00000000 1.32895506
v -0.31914368 0.00000000 1.47220892
v -0.32901410 0.04371383 1.47220892
v -0.32572395 0.27248287 1.47220892
v 0.32572395 0.27248287 1.47220892
v 0.32901410 0.04371383 1.47220892
v 0.31914368 0.00000000 1.47220892
v -0.29939780 0.00000000 1.61546278
v -0.30865752 0.04371383 1.61546278
v -0.30557095 0.27248287 1.61546278
v 0.30557095 0.27248287 1.61546278
v 0.30865752 0.04371383 1.61546278
v 0.29939780 0.00000000 1.61546278
v -0.27217937 0.00000000 1.75871665
v -0.28059728 0.04371383 1.75871665
v -0.27779130 0.27248287 1.75871665
v 0.27779130 0.27248287 1.75871665
v 0.28059728 0.04371383 1.75871665
v 0.27217937 0.00000000 1.75871665
v -0.23916833 0.00000000 1.90197051
v -0.24656528 0.04371383 1.90197051
v -0.24409963 0.27248287 1.90197051
v 0.24409963 0.27248287 1.90197051
v 0.24656528 0.04371383 1.90197051
v 0.23916833 0.00000000 1.90197051
v -0.20124633 0.00000000 2.04522437
v -0.20747045 0.04371383 2.04522437
v -0.20539575 0.27248287 2.04522437
v 0.20539575 0.27248287 2.04522437
v 0.20747045 0.04371383 2.04522437
v 0.20124633 0.00000000 2.04522437
v -0.15898283 0.00000000 2.18847823
v -0.16389982 0.04371383 2.18847823
v -0.16226081 0.27248287 2.18847823
v 0.16226081 0.27248287 2.18847823
v 0.16389982 0.04371383 2.18847823
v 0.15898283 0.00000000 2.18847823
v -0.11278519 0.00000000 2.33173209
v -0.11627340 0.04371383 2.33173209
v -0.11511067 0.27248287 2.33173209
v 0.11511067 0.27248287 2.33173209
v 0.11627340 0.04371383 2.33173209
v 0.11278519 0.00000000 2.33173209
v -0.06296380 0.00000000 2.47498596
v -0.06491113 0.04371383 2.47498596
v -0.06426201 0.27248287 2.47498596
v 0.06426201 0.27248287 2.47498596
v 0.06491113 0.04371383 2.47498596
v 0.06296380 0.00000000 2.47498596
v -0.00976528 0.00000000 2.61823982
v -0.01006729 0.04371383 2.61823982
v -0.00996662 0.27248287 2.61823982
v 0.00996662 0.27248287 2.61823982
v 0.01006729 0.04371383 2.61823982
v 0.00976528 0.00000000 2.61823982
f 7 8 2
f 7 2 1
f 8 9 3
f 8 3 2
f 9 10 4
f 9 4 3
f 10 11 5
f 10 5 4
f 11 12 6
f 11 6 5
f 12 7 1
f 12 1 6
f 13 14 8
f 13 8 7
f 14 15 9
f 14 9 8
f 15 16 10
f 15 10 9
f 16 17 11
f 16 11 10
f 17 18 12
f 17 12 11
f 18 13 7
f 18 7 12
f 19 20 14
f 19 14 13
f 20 21 15
f 20 15 14
f 21 22 16
f 21 16 15
f 22 23 17
f 22 17 16
f 23 24 18
f 23 18 17
f 24 19 13
f 24 13 18
f 25 26 20
f 25 20 19
f 26 27 21
f 26 21 20
f 27 28 22
f 27 22 21
f 28 29 23
f 28 23 22
f 29 30 24
f 29 24 23
f 30 25 19
f 30 19 24
f 31 32 26
f 31 26 25
f 32 33 27
f 32 27 26
f 33 34 28
f 33 28 27
f 34 35 29
f 34 29 28
f 35 36 30
f 35 30 29
f 36 31 25
f 36 25 30
f 37 38 32
f 37 32 31
f 38 39 33
f 38 33 32
f 39 40 34
f 39 34 33
f 40 41 35
f 40 35 34
f 41 42 36
f 41 36 35
f 42 37 31
f 42 31 36
f 43 44 38
f 43 38 37
f 44 45 39
f 44 39 38
f 45 46 40
f 45 40 39
f 46 47 41
f 46 41 40
f 47 48 42
f 47 42 41
f 48 43 37
f 48 37 42
f 49 50 44
f 49 44 43
f 50 51 45
f 50 45 44
f 51 52 46
f 51 46 45
f 52 53 47
f 52 47 46
f 53 54 48
f 53 48 47
f 54 49 43
f 54 43 48
f 55 56 50
f 55 50 49
f 56 57 51
f 56 51 50
f 57 58 52
f 57 52 51
f 58 59 53
f 58 53 52
f 59 60 54
f 59 54 53
f 60 55 49
f 60 49 54
f 61 62 56
f 61 56 55
f 62 63 57
f 62 57 56
f 63 64 58
f 63 58 57
f 64 65 59
f 64 59 58
f 65 66 60
f 65 60 59
f 66 61 55
f 66 55 60
f 67 68 62
f 67 62 61
f 68 69 63
f 68 63 62
f 69 70 64
f 69 64 63
f 70 71 65
f 70 65 64
f 71 72 66
f 71 66 65
f 72 67 61
f 72 61 66
f 73 74 68
f 73 68 67
f 74 75 69
f 74 69 68
f 75 76 70
f 75 70 69
f 76 77 71
f 76 71 70
f 77 78 72
f 77 72 71
f 78 73 67
f 78 67 72
f 79 80 74
f 79 74 73
f 80 81 75
f 80 75 74
f 81 82 76
f 81 76 75
f 82 83 77
f 82 77 76
f 83 84 78
f 83 78 77
f 84 79 73
f 84 73 78
f 85 86 80
f 85 80 79
f 86 87 81
f 86 81 80
f 87 88 82
f 87 82 81
f 88 89 83
f 88 83 82
f 89 90 84
f 89 84 83
f 90 85 79
f 90 79 84
f 91 92 86
f 91 86 85
f 92 93 87
f 92 87 86
f 93 94 88
f 93 88 87
f 94 95 89
f 94 89 88
f 95 96 90
f 95 90 89
f 96 91 85
f 96 85 90
f 97 98 92
f 97 92 91
f 98 99 93
f 98 93 92
f 99 100 94
f 99 94 93
f 100 101 95
f 100 95 94
f 101 102 96
f 101 96 95
f 102 97 91
f 102 91 96
f 103 104 98
f 103 98 97
f 104 105 99
f 104 99 98
f 105 106 100
f 105 100 99
f 106 107 101
f 106 101 100
f 107 108 102
f 107 102 101
f 108 103 97
f 108 97 102
f 109 110 104
f 109 104 103
f 110 111 105
f 110 105 104
f 111 112 106
f 111 106 105
f 112 113 107
f 112 107 106
f 113 114 108
f 113 108 107
f 114 109 103
f 114 103 108
f 115 116 110
f 115 110 109
f 116 117 111
f 116 111 110
f 117 118 112
f 117 112 111
f 118 119 113
f 118 113 112
f 119 120 114
f 119 114 113
f 120 115 109
f 120 109 114
f 121 122 116
f 121 116 115
f 122 123 117
f 122 117 116
f 123 124 118
f 123 118 117
f 124 125 119
f 124 119 118
f 125 126 120
f 125 120 119
f 126 121 115
f 126 115 120
f 127 128 122
f 127 122 121
f 128 129 123
f 128 123 122
f 129 130 124
f 129 124 123
f 130 131 125
f 130 125 124
f 131 132 126
f 131 126 125
f 132 127 121
f 132 121 126
f 133 134 128
f 133 128 127
f 134 135 129
f 134 129 128
f 135 136 130
f 135 130 129
f 136 137 131
f 136 131 130
f 137 138 132
f 137 132 131
f 138 133 127
f 138 127 132
f 139 140 134
f 139 134 133
f 140 141 135
f 140 135 134
f 141 142 136
f 141 136 135
f 142 143 137
f 142 137 136
f 143 144 138
f 143 138 137
f 144 139 133
f 144 133 138
f 145 146 140
f 145 140 139
f 146 147 141
f 146 141 140
f 147 148 142
f 147 142 141
f 148 149 143
f 148 143 142
f 149 150 144
f 149 144 143
f 150 145 139
f 150 139 144
f 151 152 146
f 151 146 145
f 152 153 147
f 152 147 146
f 153 154 148
f 153 148 147
f 154 155 149
f 154 149 148
f 155 156 150
f 155 150 149
f 156 151 145
f 156 145 150
f 157 158 152
f 157 152 151
f 158 159 153
f 158 153 152
f 159 160 154
f 159 154 153
f 160 161 155
f 160 155 154
f 161 162 156
f 161 156 155
f 162 157 151
f 162 151 156
f 163 164 158
f 163 158 157
f 164 165 159
f 164 159 158
f 165 166 160
f 165 160 159
f 166 167 161
f 166 161 160
f 167 168 162
f 167 162 161
f 168 163 157
f 168 157 162
f 169 170 164
f 169 164 163
f 170 171 165
f 170 165 164
f 171 172 166
f 171 166 165
f 172 173 167
f 172 167 166
f 173 174 168
f 173 168 167
f 174 169 163
f 174 163 168
f 175 176 170
f 175 170 169
f 176 177 171
f 176 171 170
f 177 178 172
f 177 172 171
f 178 179 173
f 178 173 172
f 179 180 174
f 179 174 173
f 180 175 169
f 180 169 174
f 181 182 176
f 181 176 175
f 182 183 177
f 182 177 176
f 183 184 178
f 183 178 177
f 184 185 179
f 184 179 178
f 185 186 180
f 185 180 179
f 186 181 175
f 186 175 180
f 187 188 182
f 187 182 181
f 188 189 183
f 188 183 182
f 189 190 184
f 189 184 183
f 190 191 185
f 190 185 184
f 191 192 186
f 191 186 185
f 192 187 181
f 192 181 186
f 193 194 188
f 193 188 187
f 194 195 189
f 194 189 188
f 195 196 190
f 195 190 189
f 196 197 191
f 196 191 190
f 197 198 192
f 197 192 191
f 198 193 187
f 198 187 192
f 199 200 194
f 199 194 193
f 200 201 195
f 200 195 194
f 201 202 196
f 201 196 195
f 202 203 197
f 202 197 196
f 203 204 198
f 203 198 197
f 204 199 193
f 204 193 198
f 205 206 200
f 205 200 199
f 206 207 201
f 206 201 200
f 207 208 202
f 207 202 201
f 208 209 203
f 208 203 202
f 209 210 204
f 209 204 203
f 210 205 199
f 210 199 204
f 211 212 206
f 211 206 205
f 212 213 207
f 212 207 206
f 213 214 208
f 213 208 207
f 214 215 209
f 214 209 208
f 215 216 210
f 215 210 209
f 216 211 205
f 216 205 210
f 217 218 212
f 217 212 211
f 218 219 213
f 218 213 212
f 219 220 214
f 219 214 213
f 220 221 215
f 220 215 214
f 221 222 216
f 221 216 215
f 222 217 211
f 222 211 216
f 1 2 3
f 1 3 4
f 1 4 5
f 1 5 6
f 222 221 220
f 222 220 219
f 222 219 218
f 222 218 217
o UnderwaterHull
usemtl underwater
v -0.14496905 -0.12385585 -2.53889922
v -0.22470202 -0.04371383 -2.53889922
v -0.23436663 0.00000000 -2.53889922
v 0.23436663 0.00000000 -2.53889922
v 0.22470202 -0.04371383 -2.53889922
v 0.14496905 -0.12385585 -2.53889922
v -0.14848091 -0.12385585 -2.39564535
v -0.23014543 -0.04371383 -2.39564535
v -0.24004415 0.00000000 -2.39564535
v 0.24004415 0.00000000 -2.39564535
v 0.23014543 -0.04371383 -2.39564535
v 0.14848091 -0.12385585 -2.39564535
v -0.15197916 -0.12385585 -2.25239149
v -0.23556769 -0.04371383 -2.25239149
v -0.24569963 0.00000000 -2.25239149
v 0.24569963 0.00000000 -2.25239149
v 0.23556769 -0.04371383 -2.25239149
v 0.15197916 -0.12385585 -2.25239149
v -0.15545015 -0.12385585 -2.10913763
v -0.24094774 -0.04371383 -2.10913763
v -0.25131108 0.00000000 -2.10913763
v 0.25131108 0.00000000 -2.10913763
v 0.24094774 -0.04371383 -2.10913763
v 0.15545015 -0.12385585 -2.10913763
v -0.15888045 -0.12385585 -1.96588377
v -0.24626470 -0.04371383 -1.96588377
v -0.25685674 0.00000000 -1.96588377
v 0.25685674 0.00000000 -1.96588377
v 0.24626470 -0.04371383 -1.96588377
v 0.15888045 -0.12385585 -1.96588377
v -0.16225672 -0.12385585 -1.82262991
v -0.25149790 -0.04371383 -1.82262991
v -0.26231502 0.00000000 -1.82262991
v 0.26231502 0.00000000 -1.82262991
v 0.25149790 -0.04371383 -1.82262991
v 0.16225672 -0.12385585 -1.82262991
v -0.16556582 -0.12385585 -1.67937604
v -0.25662703 -0.04371383 -1.67937604
v -0.26766475 0.00000000 -1.67937604
v 0.26766475 0.00000000 -1.67937604
v 0.25662703 -0.04371383 -1.67937604
v 0.16556582 -0.12385585 -1.67937604
v -0.16879493 -0.12385585 -1.53612218
v -0.26163215 -0.04371383 -1.53612218
v -0.27288514 0.00000000 -1.53612218
v 0.27288514 0.00000000 -1.53612218
v 0.26163215 -0.04371383 -1.53612218
v 0.16879493 -0.12385585 -1.53612218
v -0.17193150 -0.12385585 -1.39286832
v -0.26649383 -0.04371383 -1.39286832
v -0.27795593 0.00000000 -1.39286832
v 0.27795593 0.00000000 -1.39286832
v 0.26649383 -0.04371383 -1.39286832
v 0.17193150 -0.12385585 -1.39286832
v -0.17496333 -0.12385585 -1.24961446
v -0.27119318 -0.04371383 -1.24961446
v -0.28285740 0.00000000 -1.24961446
v 0.28285740 0.00000000 -1.24961446
v 0.27119318 -0.04371383 -1.24961446
v 0.17496333 -0.12385585 -1.24961446
v -0.17787868 -0.12385585 -1.10636060
v -0.27571195 -0.04371383 -1.10636060
v -0.28757052 0.00000000 -1.10636060
v 0.28757052 0.00000000 -1.10636060
v 0.27571195 -0.04371383 -1.10636060
v 0.17787868 -0.12385585 -1.10636060
v -0.18066618 -0.12385585 -0.96310673
v -0.28003258 -0.04371383 -0.96310673
v -0.29207700 0.00000000 -0.96310673
v 0.29207700 0.00000000 -0.96310673
v 0.28003258 -0.04371383 -0.96310673
v 0.18066618 -0.12385585 -0.96310673
v -0.18331505 -0.12385585 -0.81985287
v -0.28413832 -0.04371383 -0.81985287
v -0.29635932 0.00000000 -0.81985287
v 0.29635932 0.00000000 -0.81985287
v 0.28413832 -0.04371383 -0.81985287
v 0.18331505 -0.12385585 -0.81985287
v -0.18581496 -0.12385585 -0.67659901
v -0.28801318 -0.04371383 -0.67659901
v -0.30040085 0.00000000 -0.67659901
v 0.30040085 0.00000000 -0.67659901
v 0.28801318 -0.04371383 -0.67659901
v 0.18581496 -0.12385585 -0.67659901
v -0.18815623 -0.12385585 -0.53334515
v -0.29164215 -0.04371383 -0.53334515
v -0.30418589 0.00000000 -0.53334515
v 0.30418589 0.00000000 -0.53334515
v 0.29164215 -0.04371383 -0.53334515
v 0.18815623 -0.12385585 -0.53334515
v -0.19032974 -0.12385585 -0.39009129
v -0.29501110 -0.04371383 -0.39009129
v -0.30769974 0.00000000 -0.39009129
v 0.30769974 0.00000000 -0.39009129
v 0.29501110 -0.04371383 -0.39009129
v 0.19032974 -0.12385585 -0.39009129
v -0.19232707 -0.12385585 -0.24683742
v -0.29810696 -0.04371383 -0.24683742
v -0.31092875 0.00000000 -0.24683742
v 0.31092875 0.00000000 -0.24683742
v 0.29810696 -0.04371383 -0.24683742
v 0.19232707 -0.12385585 -0.24683742
v -0.19414045 -0.12385585 -0.10358356
v -0.30091768 -0.04371383 -0.10358356
v -0.31386039 0.00000000 -0.10358356
v 0.31386039 0.00000000 -0.10358356
v 0.30091768 -0.04371383 -0.10358356
v 0.19414045 -0.12385585 -0.10358356
v -0.19576284 -0.12385585 0.03967030
v -0.30343239 -0.04371383 0.03967030
v -0.31648324 0.00000000 0.03967030
v 0.31648324 0.00000000 0.03967030
v 0.30343239 -0.04371383 0.03967030
v 0.19576284 -0.12385585 0.03967030
v -0.19718794 -0.12385585 0.18292416
v -0.30564130 -0.04371383 0.18292416
v -0.31878717 0.00000000 0.18292416
v 0.31878717 0.00000000 0.18292416
v 0.30564130 -0.04371383 0.18292416
v 0.19718794 -0.12385585 0.18292416
v -0.19841021 -0.12385585 0.32617802
v -0.30753582 -0.04371383 0.32617802
v -0.32076316 0.00000000 0.32617802
v 0.32076316 0.00000000 0.32617802
v 0.30753582 -0.04371383 0.32617802
v 0.19841021 -0.12385585 0.32617802
v -0.19942491 -0.12385585 0.46943189
v -0.30910860 -0.04371383 0.46943189
v -0.32240360 0.00000000 0.46943189
v 0.32240360 0.00000000 0.46943189
v 0.30910860 -0.04371383 0.46943189
v 0.19942491 -0.12385585 0.46943189
v -0.20022809 -0.12385585 0.61268575
v -0.31035353 -0.04371383 0.61268575
v -0.32370207 0.00000000 0.61268575
v 0.32370207 0.00000000 0.61268575
v 0.31035353 -0.04371383 0.61268575
v 0.20022809 -0.12385585 0.61268575
v -0.20081663 -0.12385585 0.75593961
v -0.31126578 -0.04371383 0.75593961
v -0.32465356 0.00000000 0.75593961
v 0.32465356 0.00000000 0.75593961
v 0.31126578 -0.04371383 0.75593961
v 0.20081663 -0.12385585 0.75593961
v -0.20118825 -0.12385585 0.89919347
v -0.31184180 -0.04371383 0.89919347
v -0.32525435 0.00000000 0.89919347
v 0.32525435 0.00000000 0.89919347
v 0.31184180 -0.04371383 0.89919347
v 0.20118825 -0.12385585 0.89919347
v -0.20134151 -0.12385585 1.04244733
v -0.31207935 -0.04371383 1.04244733
v -0.32550212 0.00000000 1.04244733
v 0.32550212 0.00000000 1.04244733
v 0.31207935 -0.04371383 1.04244733
v 0.20134151 -0.12385585 1.04244733
v -0.20134590 -0.12385585 1.18570120
v -0.31208614 -0.04371383 1.18570120
v -0.32550920 0.00000000 1.18570120
v 0.32550920 0.00000000 1.18570120
v 0.31208614 -0.04371383 1.18570120
v 0.20134590 -0.12385585 1.18570120
v -0.20134590 -0.12385585 1.32895506
v -0.31208614 -0.04371383 1.32895506
v -0.32550920 0.00000000 1.32895506
v 0.32550920 0.00000000 1.32895506
v 0.31208614 -0.04371383 1.32895506
v 0.20134590 -0.12385585 1.32895506
v -0.19740846 -0.12385585 1.47220892
v -0.30598311 -0.04371383 1.47220892
v -0.31914368 0.00000000 1.47220892
v 0.31914368 0.00000000 1.47220892
v 0.30598311 -0.04371383 1.47220892
v 0.19740846 -0.12385585 1.47220892
v -0.18519451 -0.12385585 1.61546278
v -0.28705150 -0.04371383 1.61546278
v -0.29939780 0.00000000 1.61546278
v 0.29939780 0.00000000 1.61546278
v 0.28705150 -0.04371383 1.61546278
v 0.18519451 -0.12385585 1.61546278
v -0.16835836 -0.12385585 1.75871665
v -0.26095548 -0.04371383 1.75871665
v -0.27217937 0.00000000 1.75871665
v 0.27217937 0.00000000 1.75871665
v 0.26095548 -0.04371383 1.75871665
v 0.16835836 -0.12385585 1.75871665
v -0.14793917 -0.12385585 1.90197051
v -0.22930572 -0.04371383 1.90197051
v -0.23916833 0.00000000 1.90197051
v 0.23916833 0.00000000 1.90197051
v 0.22930572 -0.04371383 1.90197051
v 0.14793917 -0.12385585 1.90197051
v -0.12448227 -0.12385585 2.04522437
v -0.19294752 -0.04371383 2.04522437
v -0.20124633 0.00000000 2.04522437
v 0.20124633 0.00000000 2.04522437
v 0.19294752 -0.04371383 2.04522437
v 0.12448227 -0.12385585 2.04522437
v -0.09833988 -0.12385585 2.18847823
v -0.15242683 -0.04371383 2.18847823
v -0.15898283 0.00000000 2.18847823
v 0.15898283 0.00000000 2.18847823
v 0.15242683 -0.04371383 2.18847823
v 0.09833988 -0.12385585 2.18847823
v -0.06976404 -0.12385585 2.33173209
v -0.10813426 -0.04371383 2.33173209
v -0.11278519 0.00000000 2.33173209
v 0.11278519 0.00000000 2.33173209
v 0.10813426 -0.04371383 2.33173209
v 0.06976404 -0.12385585 2.33173209
v -0.03894668 -0.12385585 2.47498596
v -0.06036734 -0.04371383 2.47498596
v -0.06296380 0.00000000 2.47498596
v 0.06296380 0.00000000 2.47498596
v 0.06036734 -0.04371383 2.47498596
v 0.03894668 -0.12385585 2.47498596
v -0.00604038 -0.12385585 2.61823982
v -0.00936258 -0.04371383 2.61823982
v -0.00976528 0.00000000 2.61823982
v 0.00976528 0.00000000 2.61823982
v 0.00936258 -0.04371383 2.61823982
v 0.00604038 -0.12385585 2.61823982
f 229 230 224
f 229 224 223
f 230 231 225
f 230 225 224
f 231 232 226
f 231 226 225
f 232 233 227
f 232 227 226
f 233 234 228
f 233 228 227
f 234 229 223
f 234 223 228
f 235 236 230
f 235 230 229
f 236 237 231
f 236 231 230
f 237 238 232
f 237 232 231
f 238 239 233
f 238 233 232
f 239 240 234
f 239 234 233
f 240 235 229
f 240 229 234
f 241 242 236
f 241 236 235
f 242 243 237
f 242 237 236
f 243 244 238
f 243 238 237
f 244 245 239
f 244 239 238
f 245 246 240
f 245 240 239
f 246 241 235
f 246 235 240
f 247 248 242
f 247 242 241
f 248 249 243
f 248 243 242
f 249 250 244
f 249 244 243
f 250 251 245
f 250 245 244
f 251 252 246
f 251 246 245
f 252 247 241
f 252 241 246
f 253 254 248
f 253 248 247
f 254 255 249
f 254 249 248
f 255 256 250
f 255 250 249
f 256 257 251
f 256 251 250
f 257 258 252
f 257 252 251
f 258 253 247
f 258 247 252
f 259 260 254
f 259 254 253
f 260 261 255
f 260 255 254
f 261 262 256
f 261 256 255
f 262 263 257
f 262 257 256
f 263 264 258
f 263 258 257
f 264 259 253
f 264 253 258
f 265 266 260
f 265 260 259
f 266 267 261
f 266 261 260
f 267 268 262
f 267 262 261
f 268 269 263
f 268 263 262
f 269 270 264
f 269 264 263
f 270 265 259
f 270 259 264
f 271 272 266
f 271 266 265
f 272 273 267
f 272 267 266
f 273 274 268
f 273 268 267
f 274 275 269
f 274 269 268
f 275 276 270
f 275 270 269
f 276 271 265
f 276 265 270
f 277 278 272
f 277 272 271
f 278 279 273
f 278 273 272
f 279 280 274
f 279 274 273
f 280 281 275
f 280 275 274
f 281 282 276
f 281 276 275
f 282 277 271
f 282 271 276
f 283 284 278
f 283 278 277
f 284 285 279
f 284 279 278
f 285 286 280
f 285 280 279
f 286 287 281
f 286 281 280
f 287 288 282
f 287 282 281
f 288 283 277
f 288 277 282
f 289 290 284
f 289 284 283
f 290 291 285
f 290 285 284
f 291 292 286
f 291 286 285
f 292 293 287
f 292 287 286
f 293 294 288
f 293 288 287
f 294 289 283
f 294 283 288
f 295 296 290
f 295 290 289
f 296 297 291
f 296 291 290
f 297 298 292
f 297 292 291
f 298 299 293
f 298 293 292
f 299 300 294
f 299 294 293
f 300 295 289
f 300 289 294
f 301 302 296
f 301 296 295
f 302 303 297
f 302 297 296
f 303 304 298
f 303 298 297
f 304 305 299
f 304 299 298
f 305 306 300
f 305 300 299
f 306 301 295
f 306 295 300
f 307 308 302
f 307 302 301
f 308 309 303
f 308 303 302
f 309 310 304
f 309 304 303
f 310 311 305
f 310 305 304
f 311 312 306
f 311 306 305
f 312 307 301
f 312 301 306
f 313 314 308
f 313 308 307
f 314 315 309
f 314 309 308
f 315 316 310
f 315 310 309
f 316 317 311
f 316 311 310
f 317 318 312
f 317 312 311
f 318 313 307
f 318 307 312
f 319 320 314
f 319 314 313
f 320 321 315
f 320 315 314
f 321 322 316
f 321 316 315
f 322 323 317
f 322 317 316
f 323 324 318
f 323 318 317
f 324 319 313
f 324 313 318
f 325 326 320
f 325 320 319
f 326 327 321
f 326 321 320
f 327 328 322
f 327 322 321
f 328 329 323
f 328 323 322
f 329 330 324
f 329 324 323
f 330 325 319
f 330 319 324
f 331 332 326
f 331 326 325
f 332 333 327
f 332 327 326
f 333 334 328
f 333 328 327
f 334 335 329
f 334 329 328
f 335 336 330
f 335 330 329
f 336 331 325
f 336 325 330
f 337 338 332
f 337 332 331
f 338 339 333
f 338 333 332
f 339 340 334
f 339 334 333
f 340 341 335
f 340 335 334
f 341 342 336
f 341 336 335
f 342 337 331
f 342 331 336
f 343 344 338
f 343 338 337
f 344 345 339
f 344 339 338
f 345 346 340
f 345 340 339
f 346 347 341
f 346 341 340
f 347 348 342
f 347 342 341
f 348 343 337
f 348 337 342
f 349 350 344
f 349 344 343
f 350 351 345
f 350 345 344
f 351 352 346
f 351 346 345
f 352 353 347
f 352 347 346
f 353 354 348
f 353 348 347
f 354 349 343
f 354 343 348
f 355 356 350
f 355 350 349
f 356 357 351
f 356 351 350
f 357 358 352
f 357 352 351
f 358 359 353
f 358 353 352
f 359 360 354
f 359 354 353
f 360 355 349
f 360 349 354
f 361 362 356
f 361 356 355
f 362 363 357
f 362 357 356
f 363 364 358
f 363 358 357
f 364 365 359
f 364 359 358
f 365 366 360
f 365 360 359
f 366 361 355
f 366 355 360
f 367 368 362
f 367 362 361
f 368 369 363
f 368 363 362
f 369 370 364
f 369 364 363
f 370 371 365
f 370 365 364
f 371 372 366
f 371 366 365
f 372 367 361
f 372 361 366
f 373 374 368
f 373 368 367
f 374 375 369
f 374 369 368
f 375 376 370
f 375 370 369
f 376 377 371
f 376 371 370
f 377 378 372
f 377 372 371
f 378 373 367
f 378 367 372
f 379 380 374
f 379 374 373
f 380 381 375
f 380 375 374
f 381 382 376
f 381 376 375
f 382 383 377
f 382 377 376
f 383 384 378
f 383 378 377
f 384 379 373
f 384 373 378
f 385 386 380
f 385 380 379
f 386 387 381
f 386 381 380
f 387 388 382
f 387 382 381
f 388 389 383
f 388 383 382
f 389 390 384
f 389 384 383
f 390 385 379
f 390 379 384
f 391 392 386
f 391 386 385
f 392 393 387
f 392 387 386
f 393 394 388
f 393 388 387
f 394 395 389
f 394 389 388
f 395 396 390
f 395 390 389
f 396 391 385
f 396 385 390
f 397 398 392
f 397 392 391
f 398 399 393
f 398 393 392
f 399 400 394
f 399 394 393
f 400 401 395
f 400 395 394
f 401 402 396
f 401 396 395
f 402 397 391
f 402 391 396
f 403 404 398
f 403 398 397
f 404 405 399
f 404 399 398
f 405 406 400
f 405 400 399
f 406 407 401
f 406 401 400
f 407 408 402
f 407 402 401
f 408 403 397
f 408 397 402
f 409 410 404
f 409 404 403
f 410 411 405
f 410 405 404
f 411 412 406
f 411 406 405
f 412 413 407
f 412 407 406
f 413 414 408
f 413 408 407
f 414 409 403
f 414 403 408
f 415 416 410
f 415 410 409
f 416 417 411
f 416 411 410
f 417 418 412
f 417 412 411
f 418 419 413
f 418 413 412
f 419 420 414
f 419 414 413
f 420 415 409
f 420 409 414
f 421 422 416
f 421 416 415
f 422 423 417
f 422 417 416
f 423 424 418
f 423 418 417
f 424 425 419
f 424 419 418
f 425 426 420
f 425 420 419
f 426 421 415
f 426 415 420
f 427 428 422
f 427 422 421
f 428 429 423
f 428 423 422
f 429 430 424
f 429 424 423
f 430 431 425
f 430 425 424
f 431 432 426
f 431 426 425
f 432 427 421
f 432 421 426
f 433 434 428
f 433 428 427
f 434 435 429
f 434 429 428
f 435 436 430
f 435 430 429
f 436 437 431
f 436 431 430
f 437 438 432
f 437 432 431
f 438 433 427
f 438 427 432
f 439 440 434
f 439 434 433
f 440 441 435
f 440 435 434
f 441 442 436
f 441 436 435
f 442 443 437
f 442 437 436
f 443 444 438
f 443 438 437
f 444 439 433
f 444 433 438
f 223 224 225
f 223 225 226
f 223 226 227
f 223 227 228
f 444 443 442
f 444 442 441
f 444 441 440
f 444 440 439
o FlightDeck
usemtl deck
v -0.51407463 0.27685425 -2.64468668
v 0.49979478 0.27685425 -2.64468668
v 0.69971270 0.27685425 -2.00996188
v 0.69971270 0.27685425 1.58681201
v 0.54263434 0.27685425 2.64468668
v -0.48551493 0.27685425 2.64468668
v -0.68543285 0.27685425 1.63970574
v -0.78539180 0.27685425 -0.63472480
v -0.77111195 0.27685425 -1.69259948
v -0.51407463 0.29142553 -2.64468668
v 0.49979478 0.29142553 -2.64468668
v 0.69971270 0.29142553 -2.00996188
v 0.69971270 0.29142553 1.58681201
v 0.54263434 0.29142553 2.64468668
v -0.48551493 0.29142553 2.64468668
v -0.68543285 0.29142553 1.63970574
v -0.78539180 0.29142553 -0.63472480
v -0.77111195 0.29142553 -1.69259948
f 453 445 446
f 453 446 447
f 453 447 448
f 453 448 449
f 453 449 450
f 453 450 451
f 451 452 453
f 455 454 462
f 456 455 462
f 457 456 462
f 458 457 462
f 459 458 462
f 460 459 462
f 462 461 460
f 445 454 455
f 445 455 446
f 446 455 456
f 446 456 447
f 447 456 457
f 447 457 448
f 448 457 458
f 448 458 449
f 449 458 459
f 449 459 450
f 450 459 460
f 450 460 451
f 451 460 461
f 451 461 452
f 452 461 462
f 452 462 453
f 453 462 454
f 453 454 445
o Island
usemtl island
v 0.42839553 0.29142553 -1.00498094
v 0.61403359 0.29142553 -1.00498094
v 0.58547389 0.29142553 0.15868120
v 0.45695523 0.29142553 0.15868120
v 0.42839553 0.46628085 -1.00498094
v 0.61403359 0.46628085 -1.00498094
v 0.58547389 0.46628085 0.15868120
v 0.45695523 0.46628085 0.15868120
f 466 463 464
f 464 465 466
f 468 467 470
f 470 469 468
f 463 467 468
f 463 468 464
f 464 468 469
f 464 469 465
f 465 469 470
f 465 470 466
f 466 470 467
f 466 467 463
o Bridge
usemtl island
v 0.42125560 0.47356649 -0.34380927
v 0.62117352 0.47356649 -0.34380927
v 0.62117352 0.51728032 -0.34380927
v 0.42125560 0.51728032 -0.34380927
v 0.42125560 0.47356649 0.13223433
v 0.62117352 0.47356649 0.13223433
v 0.62117352 0.51728032 0.13223433
v 0.42125560 0.51728032 0.13223433
f 471 474 473
f 471 473 472
f 475 476 477
f 475 477 478
f 471 472 476
f 471 476 475
f 474 478 477
f 474 477 473
f 471 475 478
f 471 478 474
f 472 473 477
f 472 477 476
o BridgeGlass
usemtl glass
v 0.41851620 0.48376638 -0.33058584
v 0.42113903 0.48376638 -0.33058584
v 0.42113903 0.50708042 -0.33058584
v 0.41851620 0.50708042 -0.33058584
v 0.41851620 0.48376638 0.11901090
v 0.42113903 0.48376638 0.11901090
v 0.42113903 0.50708042 0.11901090
v 0.41851620 0.50708042 0.11901090
f 479 482 481
f 479 481 480
f 483 484 485
f 483 485 486
f 479 480 484
f 479 484 483
f 482 486 485
f 482 485 481
f 479 483 486
f 479 486 482
f 480 481 485
f 480 485 484
o IntegratedMast
usemtl island
v 0.46292945 0.46628085 -0.48143498
v 0.57949967 0.46628085 -0.48143498
v 0.56492839 0.46628085 -0.37943604
v 0.47750073 0.46628085 -0.37943604
v 0.46292945 0.68485000 -0.48143498
v 0.57949967 0.68485000 -0.48143498
v 0.56492839 0.68485000 -0.37943604
v 0.47750073 0.68485000 -0.37943604
f 490 487 488
f 488 489 490
f 492 491 494
f 494 493 492
f 487 491 492
f 487 492 488
f 488 492 493
f 488 493 489
f 489 493 494
f 489 494 490
f 490 494 491
f 490 491 487
o AviationIsland
usemtl island
v 0.44981531 0.29142553 -1.67937604
v 0.59261382 0.29142553 -1.67937604
v 0.59261382 0.46628085 -1.67937604
v 0.44981531 0.46628085 -1.67937604
v 0.44981531 0.29142553 -1.28267304
v 0.59261382 0.29142553 -1.28267304
v 0.59261382 0.46628085 -1.28267304
v 0.44981531 0.46628085 -1.28267304
f 495 498 497
f 495 497 496
f 499 500 501
f 499 501 502
f 495 496 500
f 495 500 499
f 498 502 501
f 498 501 497
f 495 499 502
f 495 502 498
f 496 497 501
f 496 501 500
o AviationGlass
usemtl glass
v 0.44707591 0.42256702 -1.65292918
v 0.44969874 0.42256702 -1.65292918
v 0.44969874 0.45170957 -1.65292918
v 0.44707591 0.45170957 -1.65292918
v 0.44707591 0.42256702 -1.30911991
v 0.44969874 0.42256702 -1.30911991
v 0.44969874 0.45170957 -1.30911991
v 0.44707591 0.45170957 -1.30911991
f 503 506 505
f 503 505 504
f 507 508 509
f 507 509 510
f 503 504 508
f 503 508 507
f 506 510 509
f 506 509 505
f 503 507 510
f 503 510 506
f 504 505 509
f 504 509 508
o Elevator_1
usemtl hull
v 0.44005255 0.29142553 1.07084311
v 0.70233553 0.29142553 1.07084311
v 0.70233553 0.29375693 1.07084311
v 0.44005255 0.29375693 1.07084311
v 0.44005255 0.29142553 1.36226864
v 0.70233553 0.29142553 1.36226864
v 0.70233553 0.29375693 1.36226864
v 0.44005255 0.29375693 1.36226864
f 511 514 513
f 511 513 512
f 515 516 517
f 515 517 518
f 511 512 516
f 511 516 515
f 514 518 517
f 514 517 513
f 511 515 518
f 511 518 514
f 512 513 517
f 512 517 516
o Elevator_2
usemtl hull
v 0.44005255 0.29142553 -1.09779997
v 0.70233553 0.29142553 -1.09779997
v 0.70233553 0.29375693 -1.09779997
v 0.44005255 0.29375693 -1.09779997
v 0.44005255 0.29142553 -0.80637444
v 0.70233553 0.29142553 -0.80637444
v 0.70233553 0.29375693 -0.80637444
v 0.44005255 0.29375693 -0.80637444
f 519 522 521
f 519 521 520
f 523 524 525
f 523 525 526
f 519 520 524
f 519 524 523
f 522 526 525
f 522 525 521
f 519 523 526
f 519 526 522
f 520 521 525
f 520 525 524
o Elevator_3
usemtl hull
v 0.44005255 0.29142553 -1.94409971
v 0.70233553 0.29142553 -1.94409971
v 0.70233553 0.29375693 -1.94409971
v 0.44005255 0.29375693 -1.94409971
v 0.44005255 0.29142553 -1.65267418
v 0.70233553 0.29142553 -1.65267418
v 0.70233553 0.29375693 -1.65267418
v 0.44005255 0.29375693 -1.65267418
f 527 530 529
f 527 529 528
f 531 532 533
f 531 533 534
f 527 528 532
f 527 532 531
f 530 534 533
f 530 533 529
f 527 531 534
f 527 534 530
f 528 529 533
f 528 533 532
o Elevator_4
usemtl hull
v -0.73089523 0.29142553 -1.30937491
v -0.46861225 0.29142553 -1.30937491
v -0.46861225 0.29375693 -1.30937491
v -0.73089523 0.29375693 -1.30937491
v -0.73089523 0.29142553 -1.01794938
v -0.46861225 0.29142553 -1.01794938
v -0.46861225 0.29375693 -1.01794938
v -0.73089523 0.29375693 -1.01794938
f 535 538 537
f 535 537 536
f 539 540 541
f 539 541 542
f 535 536 540
f 535 540 539
f 538 542 541
f 538 541 537
f 535 539 542
f 535 542 538
f 536 537 541
f 536 541 540
o Catapult_1
usemtl gold
v 0.19481820 0.29302837 1.26949848
v 0.20647522 0.29302837 2.48605436
v 0.21667465 0.29302837 2.48595661
v 0.20501763 0.29302837 1.26940074
v 0.19481820 0.29361122 1.26949848
v 0.20647522 0.29361122 2.48605436
v 0.21667465 0.29361122 2.48595661
v 0.20501763 0.29361122 1.26940074
f 543 546 545
f 545 544 543
f 549 550 547
f 547 548 549
f 544 548 547
f 544 547 543
f 545 549 548
f 545 548 544
f 546 550 549
f 546 549 545
f 543 547 550
f 543 550 546
o Catapult_2
usemtl gold
v -0.21929748 0.29302837 1.26949848
v -0.20764046 0.29302837 2.48605436
v -0.19744103 0.29302837 2.48595661
v -0.20909805 0.29302837 1.26940074
v -0.21929748 0.29361122 1.26949848
v -0.20764046 0.29361122 2.48605436
v -0.19744103 0.29361122 2.48595661
v -0.20909805 0.29361122 1.26940074
f 551 554 553
f 553 552 551
f 557 558 555
f 555 556 557
f 552 556 555
f 552 555 551
f 553 557 556
f 553 556 552
f 554 558 557
f 554 557 553
f 551 555 558
f 551 558 554
o Catapult_3
usemtl gold
v -0.43349524 0.29302837 -0.52888846
v -0.42183822 0.29302837 0.68766741
v -0.41163879 0.29302837 0.68756967
v -0.42329582 0.29302837 -0.52898621
v -0.43349524 0.29361122 -0.52888846
v -0.42183822 0.29361122 0.68766741
v -0.41163879 0.29361122 0.68756967
v -0.42329582 0.29361122 -0.52898621
f 559 562 561
f 561 560 559
f 565 566 563
f 563 564 565
f 560 564 563
f 560 563 559
f 561 565 564
f 561 564 560
f 562 566 565
f 562 565 561
f 559 563 566
f 559 566 562
o Catapult_4
usemtl gold
v -0.56201390 0.29302837 -0.52888846
v -0.55035688 0.29302837 0.68766741
v -0.54015745 0.29302837 0.68756967
v -0.55181447 0.29302837 -0.52898621
v -0.56201390 0.29361122 -0.52888846
v -0.55035688 0.29361122 0.68766741
v -0.54015745 0.29361122 0.68756967
v -0.55181447 0.29361122 -0.52898621
f 567 570 569
f 569 568 567
f 573 574 571
f 571 572 573
f 568 572 571
f 568 571 567
f 569 573 572
f 569 572 568
f 570 574 573
f 570 573 569
f 567 571 574
f 567 574 570
o LandingEdge_-1
usemtl white
v -0.00529058 0.29317408 -2.32764204
v -0.60504432 0.29317408 1.05755692
v -0.60145737 0.29317408 1.05819243
v -0.00170363 0.29317408 -2.32700653
v -0.00529058 0.29375693 -2.32764204
v -0.60504432 0.29375693 1.05755692
v -0.60145737 0.29375693 1.05819243
v -0.00170363 0.29375693 -2.32700653
f 575 578 577
f 577 576 575
f 581 582 579
f 579 580 581
f 576 580 579
f 576 579 575
f 577 581 580
f 577 580 576
f 578 582 581
f 578 581 577
f 575 579 582
f 575 582 578
o LandingEdge_1
usemtl white
v 0.34442005 0.29317408 -2.32764204
v -0.25533369 0.29317408 1.05755692
v -0.25174673 0.29317408 1.05819243
v 0.34800701 0.29317408 -2.32700653
v 0.34442005 0.29375693 -2.32764204
v -0.25533369 0.29375693 1.05755692
v -0.25174673 0.29375693 1.05819243
v 0.34800701 0.29375693 -2.32700653
f 583 586 585
f 585 584 583
f 589 590 587
f 587 588 589
f 584 588 587
f 584 587 583
f 585 589 588
f 585 588 584
f 586 590 589
f 586 589 585
f 583 587 590
f 583 590 586
o Centreline_0
usemtl white
v 0.16884735 0.29331980 -2.32776913
v 0.14956955 0.29331980 -2.21895917
v 0.15459128 0.29331980 -2.21806946
v 0.17386908 0.29331980 -2.32687944
v 0.16884735 0.29390265 -2.32776913
v 0.14956955 0.29390265 -2.21895917
v 0.15459128 0.29390265 -2.21806946
v 0.17386908 0.29390265 -2.32687944
f 591 594 593
f 593 592 591
f 597 598 595
f 595 596 597
f 592 596 595
f 592 595 591
f 593 597 596
f 593 596 592
f 594 598 597
f 594 597 593
f 591 595 598
f 591 598 594
o Centreline_1
usemtl white
v 0.12600779 0.29331980 -2.08596920
v 0.10673000 0.29331980 -1.97715924
v 0.11175172 0.29331980 -1.97626955
v 0.13102952 0.29331980 -2.08507951
v 0.12600779 0.29390265 -2.08596920
v 0.10673000 0.29390265 -1.97715924
v 0.11175172 0.29390265 -1.97626955
v 0.13102952 0.29390265 -2.08507951
f 599 602 601
f 601 600 599
f 605 606 603
f 603 604 605
f 600 604 603
f 600 603 599
f 601 605 604
f 601 604 600
f 602 606 605
f 602 605 601
f 599 603 606
f 599 606 602
o Centreline_2
usemtl white
v 0.08316824 0.29331980 -1.84416928
v 0.06389044 0.29331980 -1.73535931
v 0.06891217 0.29331980 -1.73446962
v 0.08818997 0.29331980 -1.84327958
v 0.08316824 0.29390265 -1.84416928
v 0.06389044 0.29390265 -1.73535931
v 0.06891217 0.29390265 -1.73446962
v 0.08818997 0.29390265 -1.84327958
f 607 610 609
f 609 608 607
f 613 614 611
f 611 612 613
f 608 612 611
f 608 611 607
f 609 613 612
f 609 612 608
f 610 614 613
f 610 613 609
f 607 611 614
f 607 614 610
o Centreline_3
usemtl white
v 0.04032869 0.29331980 -1.60236935
v 0.02105089 0.29331980 -1.49355938
v 0.02607262 0.29331980 -1.49266969
v 0.04535042 0.29331980 -1.60147966
v 0.04032869 0.29390265 -1.60236935
v 0.02105089 0.29390265 -1.49355938
v 0.02607262 0.29390265 -1.49266969
v 0.04535042 0.29390265 -1.60147966
f 615 618 617
f 617 616 615
f 621 622 619
f 619 620 621
f 616 620 619
f 616 619 615
f 617 621 620
f 617 620 616
f 618 622 621
f 618 621 617
f 615 619 622
f 615 622 618
o Centreline_4
usemtl white
v -0.00251086 0.29331980 -1.36056942
v -0.02178866 0.29331980 -1.25175947
v -0.01676693 0.29331980 -1.25086976
v 0.00251086 0.29331980 -1.35967973
v -0.00251086 0.29390265 -1.36056942
v -0.02178866 0.29390265 -1.25175947
v -0.01676693 0.29390265 -1.25086976
v 0.00251086 0.29390265 -1.35967973
f 623 626 625
f 625 624 623
f 629 630 627
f 627 628 629
f 624 628 627
f 624 627 623
f 625 629 628
f 625 628 624
f 626 630 629
f 626 629 625
f 623 627 630
f 623 630 626
o Centreline_5
usemtl white
v -0.04535042 0.29331980 -1.11876951
v -0.06462822 0.29331980 -1.00995954
v -0.05960649 0.29331980 -1.00906984
v -0.04032869 0.29331980 -1.11787980
v -0.04535042 0.29390265 -1.11876951
v -0.06462822 0.29390265 -1.00995954
v -0.05960649 0.29390265 -1.00906984
v -0.04032869 0.29390265 -1.11787980
f 631 634 633
f 633 632 631
f 637 638 635
f 635 636 637
f 632 636 635
f 632 635 631
f 633 637 636
f 633 636 632
f 634 638 637
f 634 637 633
f 631 635 638
f 631 638 634
o Centreline_6
usemtl white
v -0.08818997 0.29331980 -0.87696958
v -0.10746777 0.29331980 -0.76815961
v -0.10244604 0.29331980 -0.76726991
v -0.08316824 0.29331980 -0.87607989
v -0.08818997 0.29390265 -0.87696958
v -0.10746777 0.29390265 -0.76815961
v -0.10244604 0.29390265 -0.76726991
v -0.08316824 0.29390265 -0.87607989
f 639 642 641
f 641 640 639
f 645 646 643
f 643 644 645
f 640 644 643
f 640 643 639
f 641 645 644
f 641 644 640
f 642 646 645
f 642 645 641
f 639 643 646
f 639 646 642
o Centreline_7
usemtl white
v -0.13102952 0.29331980 -0.63516965
v -0.15030732 0.29331980 -0.52635969
v -0.14528559 0.29331980 -0.52546999
v -0.12600779 0.29331980 -0.63427996
v -0.13102952 0.29390265 -0.63516965
v -0.15030732 0.29390265 -0.52635969
v -0.14528559 0.29390265 -0.52546999
v -0.12600779 0.29390265 -0.63427996
f 647 650 649
f 649 648 647
f 653 654 651
f 651 652 653
f 648 652 651
f 648 651 647
f 649 653 652
f 649 652 648
f 650 654 653
f 650 653 649
f 647 651 654
f 647 654 650
o Centreline_8
usemtl white
v -0.17386908 0.29331980 -0.39336972
v -0.19314687 0.29331980 -0.28455976
v -0.18812515 0.29331980 -0.28367007
v -0.16884735 0.29331980 -0.39248003
v -0.17386908 0.29390265 -0.39336972
v -0.19314687 0.29390265 -0.28455976
v -0.18812515 0.29390265 -0.28367007
v -0.16884735 0.29390265 -0.39248003
f 655 658 657
f 657 656 655
f 661 662 659
f 659 660 661
f 656 660 659
f 656 659 655
f 657 661 660
f 657 660 656
f 658 662 661
f 658 661 657
f 655 659 662
f 655 662 658
o Centreline_9
usemtl white
v -0.21670863 0.29331980 -0.15156981
v -0.23598643 0.29331980 -0.04275983
v -0.23096470 0.29331980 -0.04187014
v -0.21168690 0.29331980 -0.15068010
v -0.21670863 0.29390265 -0.15156981
v -0.23598643 0.29390265 -0.04275983
v -0.23096470 0.29390265 -0.04187014
v -0.21168690 0.29390265 -0.15068010
f 663 666 665
f 665 664 663
f 669 670 667
f 667 668 669
f 664 668 667
f 664 667 663
f 665 669 668
f 665 668 664
f 666 670 669
f 666 669 665
f 663 667 670
f 663 670 666
o Centreline_10
usemtl white
v -0.25954818 0.29331980 0.09023012
v -0.27882598 0.29331980 0.19904010
v -0.27380425 0.29331980 0.19992979
v -0.25452645 0.29331980 0.09111982
v -0.25954818 0.29390265 0.09023012
v -0.27882598 0.29390265 0.19904010
v -0.27380425 0.29390265 0.19992979
v -0.25452645 0.29390265 0.09111982
f 671 674 673
f 673 672 671
f 677 678 675
f 675 676 677
f 672 676 675
f 672 675 671
f 673 677 676
f 673 676 672
f 674 678 677
f 674 677 673
f 671 675 678
f 671 678 674
o Centreline_11
usemtl white
v -0.30238773 0.29331980 0.33203005
v -0.32166553 0.29331980 0.44084001
v -0.31664381 0.29331980 0.44172972
v -0.29736601 0.29331980 0.33291975
v -0.30238773 0.29390265 0.33203005
v -0.32166553 0.29390265 0.44084001
v -0.31664381 0.29390265 0.44172972
v -0.29736601 0.29390265 0.33291975
f 679 682 681
f 681 680 679
f 685 686 683
f 683 684 685
f 680 684 683
f 680 683 679
f 681 685 684
f 681 684 680
f 682 686 685
f 682 685 681
f 679 683 686
f 679 686 682
o Centreline_12
usemtl white
v -0.34522729 0.29331980 0.57382997
v -0.36450509 0.29331980 0.68263994
v -0.35948336 0.29331980 0.68352963
v -0.34020556 0.29331980 0.57471968
v -0.34522729 0.29390265 0.57382997
v -0.36450509 0.29390265 0.68263994
v -0.35948336 0.29390265 0.68352963
v -0.34020556 0.29390265 0.57471968
f 687 690 689
f 689 688 687
f 693 694 691
f 691 692 693
f 688 692 691
f 688 691 687
f 689 693 692
f 689 692 688
f 690 694 693
f 690 693 689
f 687 691 694
f 687 694 690
o Centreline_13
usemtl white
v -0.38806684 0.29331980 0.81562990
v -0.40734464 0.29331980 0.92443987
v -0.40232291 0.29331980 0.92532956
v -0.38304511 0.29331980 0.81651959
v -0.38806684 0.29390265 0.81562990
v -0.40734464 0.29390265 0.92443987
v -0.40232291 0.29390265 0.92532956
v -0.38304511 0.29390265 0.81651959
f 695 698 697
f 697 696 695
f 701 702 699
f 699 700 701
f 696 700 699
f 696 699 695
f 697 701 700
f 697 700 696
f 698 702 701
f 698 701 697
f 695 699 702
f 695 702 698
o Sponson_1
usemtl hull
v -0.73643231 0.26374010 1.40816816
v -0.63443338 0.26374010 1.40816816
v -0.63443338 0.28413989 1.40816816
v -0.73643231 0.28413989 1.40816816
v -0.73643231 0.26374010 1.55388093
v -0.63443338 0.26374010 1.55388093
v -0.63443338 0.28413989 1.55388093
v -0.73643231 0.28413989 1.55388093
f 703 706 705
f 703 705 704
f 707 708 709
f 707 709 710
f 703 704 708
f 703 708 707
f 706 710 709
f 706 709 705
f 703 707 710
f 703 710 706
f 704 705 709
f 704 709 708
o AA_Base_1
usemtl island
v -0.65920455 0.28413989 1.48102454
v -0.66120106 0.28413989 1.49106168
v -0.66688664 0.28413989 1.49957075
v -0.67539571 0.28413989 1.50525633
v -0.68543285 0.28413989 1.50725284
v -0.69546998 0.28413989 1.50525633
v -0.70397905 0.28413989 1.49957075
v -0.70966463 0.28413989 1.49106168
v -0.71166114 0.28413989 1.48102454
v -0.70966463 0.28413989 1.47098741
v -0.70397905 0.28413989 1.46247834
v -0.69546998 0.28413989 1.45679276
v -0.68543285 0.28413989 1.45479625
v -0.67539571 0.28413989 1.45679276
v -0.66688664 0.28413989 1.46247834
v -0.66120106 0.28413989 1.47098741
v -0.65920455 0.31328244 1.48102454
v -0.66120106 0.31328244 1.49106168
v -0.66688664 0.31328244 1.49957075
v -0.67539571 0.31328244 1.50525633
v -0.68543285 0.31328244 1.50725284
v -0.69546998 0.31328244 1.50525633
v -0.70397905 0.31328244 1.49957075
v -0.70966463 0.31328244 1.49106168
v -0.71166114 0.31328244 1.48102454
v -0.70966463 0.31328244 1.47098741
v -0.70397905 0.31328244 1.46247834
v -0.69546998 0.31328244 1.45679276
v -0.68543285 0.31328244 1.45479625
v -0.67539571 0.31328244 1.45679276
v -0.66688664 0.31328244 1.46247834
v -0.66120106 0.31328244 1.47098741
f 726 711 712
f 726 712 713
f 726 713 714
f 726 714 715
f 726 715 716
f 726 716 717
f 726 717 718
f 726 718 719
f 726 719 720
f 726 720 721
f 726 721 722
f 726 722 723
f 726 723 724
f 724 725 726
f 728 727 742
f 729 728 742
f 730 729 742
f 731 730 742
f 732 731 742
f 733 732 742
f 734 733 742
f 735 734 742
f 736 735 742
f 737 736 742
f 738 737 742
f 739 738 742
f 740 739 742
f 742 741 740
f 711 727 728
f 711 728 712
f 712 728 729
f 712 729 713
f 713 729 730
f 713 730 714
f 714 730 731
f 714 731 715
f 715 731 732
f 715 732 716
f 716 732 733
f 716 733 717
f 717 733 734
f 717 734 718
f 718 734 735
f 718 735 719
f 719 735 736
f 719 736 720
f 720 736 737
f 720 737 721
f 721 737 738
f 721 738 722
f 722 738 739
f 722 739 723
f 723 739 740
f 723 740 724
f 724 740 741
f 724 741 725
f 725 741 742
f 725 742 726
f 726 742 727
f 726 727 711
o CIWS_Radome_1
usemtl white
v -0.67377583 0.31328244 1.48102454
v -0.67466316 0.31328244 1.48548550
v -0.67719009 0.31328244 1.48926730
v -0.68097189 0.31328244 1.49179423
v -0.68543285 0.31328244 1.49268156
v -0.68989380 0.31328244 1.49179423
v -0.69367560 0.31328244 1.48926730
v -0.69620254 0.31328244 1.48548550
v -0.69708987 0.31328244 1.48102454
v -0.69620254 0.31328244 1.47656359
v -0.69367560 0.31328244 1.47278179
v -0.68989380 0.31328244 1.47025485
v -0.68543285 0.31328244 1.46936752
v -0.68097189 0.31328244 1.47025485
v -0.67719009 0.31328244 1.47278179
v -0.67466316 0.31328244 1.47656359
v -0.67377583 0.34096787 1.48102454
v -0.67466316 0.34096787 1.48548550
v -0.67719009 0.34096787 1.48926730
v -0.68097189 0.34096787 1.49179423
v -0.68543285 0.34096787 1.49268156
v -0.68989380 0.34096787 1.49179423
v -0.69367560 0.34096787 1.48926730
v -0.69620254 0.34096787 1.48548550
v -0.69708987 0.34096787 1.48102454
v -0.69620254 0.34096787 1.47656359
v -0.69367560 0.34096787 1.47278179
v -0.68989380 0.34096787 1.47025485
v -0.68543285 0.34096787 1.46936752
v -0.68097189 0.34096787 1.47025485
v -0.67719009 0.34096787 1.47278179
v -0.67466316 0.34096787 1.47656359
f 758 743 744
f 758 744 745
f 758 745 746
f 758 746 747
f 758 747 748
f 758 748 749
f 758 749 750
f 758 750 751
f 758 751 752
f 758 752 753
f 758 753 754
f 758 754 755
f 758 755 756
f 756 757 758
f 760 759 774
f 761 760 774
f 762 761 774
f 763 762 774
f 764 763 774
f 765 764 774
f 766 765 774
f 767 766 774
f 768 767 774
f 769 768 774
f 770 769 774
f 771 770 774
f 772 771 774
f 774 773 772
f 743 759 760
f 743 760 744
f 744 760 761
f 744 761 745
f 745 761 762
f 745 762 746
f 746 762 763
f 746 763 747
f 747 763 764
f 747 764 748
f 748 764 765
f 748 765 749
f 749 765 766
f 749 766 750
f 750 766 767
f 750 767 751
f 751 767 768
f 751 768 752
f 752 768 769
f 752 769 753
f 753 769 770
f 753 770 754
f 754 770 771
f 754 771 755
f 755 771 772
f 755 772 756
f 756 772 773
f 756 773 757
f 757 773 774
f 757 774 758
f 758 774 759
f 758 759 743
o Sponson_2
usemtl hull
v 0.60587368 0.26374010 1.40816816
v 0.70787261 0.26374010 1.40816816
v 0.70787261 0.28413989 1.40816816
v 0.60587368 0.28413989 1.40816816
v 0.60587368 0.26374010 1.55388093
v 0.70787261 0.26374010 1.55388093
v 0.70787261 0.28413989 1.55388093
v 0.60587368 0.28413989 1.55388093
f 775 778 777
f 775 777 776
f 779 780 781
f 779 781 782
f 775 776 780
f 775 780 779
f 778 782 781
f 778 781 777
f 775 779 782
f 775 782 778
f 776 777 781
f 776 781 780
o AA_Base_2
usemtl island
v 0.68310144 0.28413989 1.48102454
v 0.68110493 0.28413989 1.49106168
v 0.67541935 0.28413989 1.49957075
v 0.66691028 0.28413989 1.50525633
v 0.65687314 0.28413989 1.50725284
v 0.64683601 0.28413989 1.50525633
v 0.63832694 0.28413989 1.49957075
v 0.63264136 0.28413989 1.49106168
v 0.63064485 0.28413989 1.48102454
v 0.63264136 0.28413989 1.47098741
v 0.63832694 0.28413989 1.46247834
v 0.64683601 0.28413989 1.45679276
v 0.65687314 0.28413989 1.45479625
v 0.66691028 0.28413989 1.45679276
v 0.67541935 0.28413989 1.46247834
v 0.68110493 0.28413989 1.47098741
v 0.68310144 0.31328244 1.48102454
v 0.68110493 0.31328244 1.49106168
v 0.67541935 0.31328244 1.49957075
v 0.66691028 0.31328244 1.50525633
v 0.65687314 0.31328244 1.50725284
v 0.64683601 0.31328244 1.50525633
v 0.63832694 0.31328244 1.49957075
v 0.63264136 0.31328244 1.49106168
v 0.63064485 0.31328244 1.48102454
v 0.63264136 0.31328244 1.47098741
v 0.63832694 0.31328244 1.46247834
v 0.64683601 0.31328244 1.45679276
v 0.65687314 0.31328244 1.45479625
v 0.66691028 0.31328244 1.45679276
v 0.67541935 0.31328244 1.46247834
v 0.68110493 0.31328244 1.47098741
f 798 783 784
f 798 784 785
f 798 785 786
f 798 786 787
f 798 787 788
f 798 788 789
f 798 789 790
f 798 790 791
f 798 791 792
f 798 792 793
f 798 793 794
f 798 794 795
f 798 795 796
f 796 797 798
f 800 799 814
f 801 800 814
f 802 801 814
f 803 802 814
f 804 803 814
f 805 804 814
f 806 805 814
f 807 806 814
f 808 807 814
f 809 808 814
f 810 809 814
f 811 810 814
f 812 811 814
f 814 813 812
f 783 799 800
f 783 800 784
f 784 800 801
f 784 801 785
f 785 801 802
f 785 802 786
f 786 802 803
f 786 803 787
f 787 803 804
f 787 804 788
f 788 804 805
f 788 805 789
f 789 805 806
f 789 806 790
f 790 806 807
f 790 807 791
f 791 807 808
f 791 808 792
f 792 808 809
f 792 809 793
f 793 809 810
f 793 810 794
f 794 810 811
f 794 811 795
f 795 811 812
f 795 812 796
f 796 812 813
f 796 813 797
f 797 813 814
f 797 814 798
f 798 814 799
f 798 799 783
o CIWS_Radome_2
usemtl white
v 0.66853017 0.31328244 1.48102454
v 0.66764283 0.31328244 1.48548550
v 0.66511590 0.31328244 1.48926730
v 0.66133410 0.31328244 1.49179423
v 0.65687314 0.31328244 1.49268156
v 0.65241219 0.31328244 1.49179423
v 0.64863039 0.31328244 1.48926730
v 0.64610346 0.31328244 1.48548550
v 0.64521612 0.31328244 1.48102454
v 0.64610346 0.31328244 1.47656359
v 0.64863039 0.31328244 1.47278179
v 0.65241219 0.31328244 1.47025485
v 0.65687314 0.31328244 1.46936752
v 0.66133410 0.31328244 1.47025485
v 0.66511590 0.31328244 1.47278179
v 0.66764283 0.31328244 1.47656359
v 0.66853017 0.34096787 1.48102454
v 0.66764283 0.34096787 1.48548550
v 0.66511590 0.34096787 1.48926730
v 0.66133410 0.34096787 1.49179423
v 0.65687314 0.34096787 1.49268156
v 0.65241219 0.34096787 1.49179423
v 0.64863039 0.34096787 1.48926730
v 0.64610346 0.34096787 1.48548550
v 0.64521612 0.34096787 1.48102454
v 0.64610346 0.34096787 1.47656359
v 0.64863039 0.34096787 1.47278179
v 0.65241219 0.34096787 1.47025485
v 0.65687314 0.34096787 1.46936752
v 0.66133410 0.34096787 1.47025485
v 0.66511590 0.34096787 1.47278179
v 0.66764283 0.34096787 1.47656359
f 830 815 816
f 830 816 817
f 830 817 818
f 830 818 819
f 830 819 820
f 830 820 821
f 830 821 822
f 830 822 823
f 830 823 824
f 830 824 825
f 830 825 826
f 830 826 827
f 830 827 828
f 828 829 830
f 832 831 846
f 833 832 846
f 834 833 846
f 835 834 846
f 836 835 846
f 837 836 846
f 838 837 846
f 839 838 846
f 840 839 846
f 841 840 846
f 842 841 846
f 843 842 846
f 844 843 846
f 846 845 844
f 815 831 832
f 815 832 816
f 816 832 833
f 816 833 817
f 817 833 834
f 817 834 818
f 818 834 835
f 818 835 819
f 819 835 836
f 819 836 820
f 820 836 837
f 820 837 821
f 821 837 838
f 821 838 822
f 822 838 839
f 822 839 823
f 823 839 840
f 823 840 824
f 824 840 841
f 824 841 825
f 825 841 842
f 825 842 826
f 826 842 843
f 826 843 827
f 827 843 844
f 827 844 828
f 828 844 845
f 828 845 829
f 829 845 846
f 829 846 830
f 830 846 831
f 830 831 815
o Sponson_3
usemtl hull
v -0.67931291 0.26374010 -2.18860573
v -0.57731397 0.26374010 -2.18860573
v -0.57731397 0.28413989 -2.18860573
v -0.67931291 0.28413989 -2.18860573
v -0.67931291 0.26374010 -2.04289296
v -0.57731397 0.26374010 -2.04289296
v -0.57731397 0.28413989 -2.04289296
v -0.67931291 0.28413989 -2.04289296
f 847 850 849
f 847 849 848
f 851 852 853
f 851 853 854
f 847 848 852
f 847 852 851
f 850 854 853
f 850 853 849
f 847 851 854
f 847 854 850
f 848 849 853
f 848 853 852
o AA_Base_3
usemtl island
v -0.60208514 0.28413989 -2.11574935
v -0.60408166 0.28413989 -2.10571222
v -0.60976724 0.28413989 -2.09720314
v -0.61827631 0.28413989 -2.09151756
v -0.62831344 0.28413989 -2.08952105
v -0.63835057 0.28413989 -2.09151756
v -0.64685965 0.28413989 -2.09720314
v -0.65254523 0.28413989 -2.10571222
v -0.65454174 0.28413989 -2.11574935
v -0.65254523 0.28413989 -2.12578648
v -0.64685965 0.28413989 -2.13429555
v -0.63835057 0.28413989 -2.13998113
v -0.62831344 0.28413989 -2.14197765
v -0.61827631 0.28413989 -2.13998113
v -0.60976724 0.28413989 -2.13429555
v -0.60408166 0.28413989 -2.12578648
v -0.60208514 0.31328244 -2.11574935
v -0.60408166 0.31328244 -2.10571222
v -0.60976724 0.31328244 -2.09720314
v -0.61827631 0.31328244 -2.09151756
v -0.62831344 0.31328244 -2.08952105
v -0.63835057 0.31328244 -2.09151756
v -0.64685965 0.31328244 -2.09720314
v -0.65254523 0.31328244 -2.10571222
v -0.65454174 0.31328244 -2.11574935
v -0.65254523 0.31328244 -2.12578648
v -0.64685965 0.31328244 -2.13429555
v -0.63835057 0.31328244 -2.13998113
v -0.62831344 0.31328244 -2.14197765
v -0.61827631 0.31328244 -2.13998113
v -0.60976724 0.31328244 -2.13429555
v -0.60408166 0.31328244 -2.12578648
f 870 855 856
f 870 856 857
f 870 857 858
f 870 858 859
f 870 859 860
f 870 860 861
f 870 861 862
f 870 862 863
f 870 863 864
f 870 864 865
f 870 865 866
f 870 866 867
f 870 867 868
f 868 869 870
f 872 871 886
f 873 872 886
f 874 873 886
f 875 874 886
f 876 875 886
f 877 876 886
f 878 877 886
f 879 878 886
f 880 879 886
f 881 880 886
f 882 881 886
f 883 882 886
f 884 883 886
f 886 885 884
f 855 871 872
f 855 872 856
f 856 872 873
f 856 873 857
f 857 873 874
f 857 874 858
f 858 874 875
f 858 875 859
f 859 875 876
f 859 876 860
f 860 876 877
f 860 877 861
f 861 877 878
f 861 878 862
f 862 878 879
f 862 879 863
f 863 879 880
f 863 880 864
f 864 880 881
f 864 881 865
f 865 881 882
f 865 882 866
f 866 882 883
f 866 883 867
f 867 883 884
f 867 884 868
f 868 884 885
f 868 885 869
f 869 885 886
f 869 886 870
f 870 886 871
f 870 871 855
o CIWS_Radome_3
usemtl white
v -0.61665642 0.31328244 -2.11574935
v -0.61754375 0.31328244 -2.11128839
v -0.62007069 0.31328244 -2.10750659
v -0.62385249 0.31328244 -2.10497966
v -0.62831344 0.31328244 -2.10409233
v -0.63277440 0.31328244 -2.10497966
v -0.63655620 0.31328244 -2.10750659
v -0.63908313 0.31328244 -2.11128839
v -0.63997046 0.31328244 -2.11574935
v -0.63908313 0.31328244 -2.12021030
v -0.63655620 0.31328244 -2.12399210
v -0.63277440 0.31328244 -2.12651904
v -0.62831344 0.31328244 -2.12740637
v -0.62385249 0.31328244 -2.12651904
v -0.62007069 0.31328244 -2.12399210
v -0.61754375 0.31328244 -2.12021030
v -0.61665642 0.34096787 -2.11574935
v -0.61754375 0.34096787 -2.11128839
v -0.62007069 0.34096787 -2.10750659
v -0.62385249 0.34096787 -2.10497966
v -0.62831344 0.34096787 -2.10409233
v -0.63277440 0.34096787 -2.10497966
v -0.63655620 0.34096787 -2.10750659
v -0.63908313 0.34096787 -2.11128839
v -0.63997046 0.34096787 -2.11574935
v -0.63908313 0.34096787 -2.12021030
v -0.63655620 0.34096787 -2.12399210
v -0.63277440 0.34096787 -2.12651904
v -0.62831344 0.34096787 -2.12740637
v -0.62385249 0.34096787 -2.12651904
v -0.62007069 0.34096787 -2.12399210
v -0.61754375 0.34096787 -2.12021030
f 902 887 888
f 902 888 889
f 902 889 890
f 902 890 891
f 902 891 892
f 902 892 893
f 902 893 894
f 902 894 895
f 902 895 896
f 902 896 897
f 902 897 898
f 902 898 899
f 902 899 900
f 900 901 902
f 904 903 918
f 905 904 918
f 906 905 918
f 907 906 918
f 908 907 918
f 909 908 918
f 910 909 918
f 911 910 918
f 912 911 918
f 913 912 918
f 914 913 918
f 915 914 918
f 916 915 918
f 918 917 916
f 887 903 904
f 887 904 888
f 888 904 905
f 888 905 889
f 889 905 906
f 889 906 890
f 890 906 907
f 890 907 891
f 891 907 908
f 891 908 892
f 892 908 909
f 892 909 893
f 893 909 910
f 893 910 894
f 894 910 911
f 894 911 895
f 895 911 912
f 895 912 896
f 896 912 913
f 896 913 897
f 897 913 914
f 897 914 898
f 898 914 915
f 898 915 899
f 899 915 916
f 899 916 900
f 900 916 917
f 900 917 901
f 901 917 918
f 901 918 902
f 902 918 903
f 902 903 887
o Sponson_4
usemtl hull
v 0.56303412 0.26374010 -2.18860573
v 0.66503306 0.26374010 -2.18860573
v 0.66503306 0.28413989 -2.18860573
v 0.56303412 0.28413989 -2.18860573
v 0.56303412 0.26374010 -2.04289296
v 0.66503306 0.26374010 -2.04289296
v 0.66503306 0.28413989 -2.04289296
v 0.56303412 0.28413989 -2.04289296
f 919 922 921
f 919 921 920
f 923 924 925
f 923 925 926
f 919 920 924
f 919 924 923
f 922 926 925
f 922 925 921
f 919 923 926
f 919 926 922
f 920 921 925
f 920 925 924
o AA_Base_4
usemtl island
v 0.64026189 0.28413989 -2.11574935
v 0.63826538 0.28413989 -2.10571222
v 0.63257980 0.28413989 -2.09720314
v 0.62407072 0.28413989 -2.09151756
v 0.61403359 0.28413989 -2.08952105
v 0.60399646 0.28413989 -2.09151756
v 0.59548739 0.28413989 -2.09720314
v 0.58980181 0.28413989 -2.10571222
v 0.58780529 0.28413989 -2.11574935
v 0.58980181 0.28413989 -2.12578648
v 0.59548739 0.28413989 -2.13429555
v 0.60399646 0.28413989 -2.13998113
v 0.61403359 0.28413989 -2.14197765
v 0.62407072 0.28413989 -2.13998113
v 0.63257980 0.28413989 -2.13429555
v 0.63826538 0.28413989 -2.12578648
v 0.64026189 0.31328244 -2.11574935
v 0.63826538 0.31328244 -2.10571222
v 0.63257980 0.31328244 -2.09720314
v 0.62407072 0.31328244 -2.09151756
v 0.61403359 0.31328244 -2.08952105
v 0.60399646 0.31328244 -2.09151756
v 0.59548739 0.31328244 -2.09720314
v 0.58980181 0.31328244 -2.10571222
v 0.58780529 0.31328244 -2.11574935
v 0.58980181 0.31328244 -2.12578648
v 0.59548739 0.31328244 -2.13429555
v 0.60399646 0.31328244 -2.13998113
v 0.61403359 0.31328244 -2.14197765
v 0.62407072 0.31328244 -2.13998113
v 0.63257980 0.31328244 -2.13429555
v 0.63826538 0.31328244 -2.12578648
f 942 927 928
f 942 928 929
f 942 929 930
f 942 930 931
f 942 931 932
f 942 932 933
f 942 933 934
f 942 934 935
f 942 935 936
f 942 936 937
f 942 937 938
f 942 938 939
f 942 939 940
f 940 941 942
f 944 943 958
f 945 944 958
f 946 945 958
f 947 946 958
f 948 947 958
f 949 948 958
f 950 949 958
f 951 950 958
f 952 951 958
f 953 952 958
f 954 953 958
f 955 954 958
f 956 955 958
f 958 957 956
f 927 943 944
f 927 944 928
f 928 944 945
f 928 945 929
f 929 945 946
f 929 946 930
f 930 946 947
f 930 947 931
f 931 947 948
f 931 948 932
f 932 948 949
f 932 949 933
f 933 949 950
f 933 950 934
f 934 950 951
f 934 951 935
f 935 951 952
f 935 952 936
f 936 952 953
f 936 953 937
f 937 953 954
f 937 954 938
f 938 954 955
f 938 955 939
f 939 955 956
f 939 956 940
f 940 956 957
f 940 957 941
f 941 957 958
f 941 958 942
f 942 958 943
f 942 943 927
o CIWS_Radome_4
usemtl white
v 0.62569061 0.31328244 -2.11574935
v 0.62480328 0.31328244 -2.11128839
v 0.62227634 0.31328244 -2.10750659
v 0.61849454 0.31328244 -2.10497966
v 0.61403359 0.31328244 -2.10409233
v 0.60957264 0.31328244 -2.10497966
v 0.60579084 0.31328244 -2.10750659
v 0.60326390 0.31328244 -2.11128839
v 0.60237657 0.31328244 -2.11574935
v 0.60326390 0.31328244 -2.12021030
v 0.60579084 0.31328244 -2.12399210
v 0.60957264 0.31328244 -2.12651904
v 0.61403359 0.31328244 -2.12740637
v 0.61849454 0.31328244 -2.12651904
v 0.62227634 0.31328244 -2.12399210
v 0.62480328 0.31328244 -2.12021030
v 0.62569061 0.34096787 -2.11574935
v 0.62480328 0.34096787 -2.11128839
v 0.62227634 0.34096787 -2.10750659
v 0.61849454 0.34096787 -2.10497966
v 0.61403359 0.34096787 -2.10409233
v 0.60957264 0.34096787 -2.10497966
v 0.60579084 0.34096787 -2.10750659
v 0.60326390 0.34096787 -2.11128839
v 0.60237657 0.34096787 -2.11574935
v 0.60326390 0.34096787 -2.12021030
v 0.60579084 0.34096787 -2.12399210
v 0.60957264 0.34096787 -2.12651904
v 0.61403359 0.34096787 -2.12740637
v 0.61849454 0.34096787 -2.12651904
v 0.62227634 0.34096787 -2.12399210
v 0.62480328 0.34096787 -2.12021030
f 974 959 960
f 974 960 961
f 974 961 962
f 974 962 963
f 974 963 964
f 974 964 965
f 974 965 966
f 974 966 967
f 974 967 968
f 974 968 969
f 974 969 970
f 974 970 971
f 974 971 972
f 972 973 974
f 976 975 990
f 977 976 990
f 978 977 990
f 979 978 990
f 980 979 990
f 981 980 990
f 982 981 990
f 983 982 990
f 984 983 990
f 985 984 990
f 986 985 990
f 987 986 990
f 988 987 990
f 990 989 988
f 959 975 976
f 959 976 960
f 960 976 977
f 960 977 961
f 961 977 978
f 961 978 962
f 962 978 979
f 962 979 963
f 963 979 980
f 963 980 964
f 964 980 981
f 964 981 965
f 965 981 982
f 965 982 966
f 966 982 983
f 966 983 967
f 967 983 984
f 967 984 968
f 968 984 985
f 968 985 969
f 969 985 986
f 969 986 970
f 970 986 987
f 970 987 971
f 971 987 988
f 971 988 972
f 972 988 989
f 972 989 973
f 973 989 990
f 973 990 974
f 974 990 975
f 974 975 959
o SonarDome
usemtl dark
v 0.04954234 -0.13114149 2.00996188
v 0.04577115 -0.13114149 2.02892092
v 0.03503172 -0.13114149 2.04499360
v 0.01895904 -0.13114149 2.05573303
v 0.00000000 -0.13114149 2.05950422
v -0.01895904 -0.13114149 2.05573303
v -0.03503172 -0.13114149 2.04499360
v -0.04577115 -0.13114149 2.02892092
v -0.04954234 -0.13114149 2.00996188
v -0.04577115 -0.13114149 1.99100284
v -0.03503172 -0.13114149 1.97493016
v -0.01895904 -0.13114149 1.96419073
v -0.00000000 -0.13114149 1.96041954
v 0.01895904 -0.13114149 1.96419073
v 0.03503172 -0.13114149 1.97493016
v 0.04577115 -0.13114149 1.99100284
v 0.04954234 -0.10199894 2.00996188
v 0.04577115 -0.10199894 2.02892092
v 0.03503172 -0.10199894 2.04499360
v 0.01895904 -0.10199894 2.05573303
v 0.00000000 -0.10199894 2.05950422
v -0.01895904 -0.10199894 2.05573303
v -0.03503172 -0.10199894 2.04499360
v -0.04577115 -0.10199894 2.02892092
v -0.04954234 -0.10199894 2.00996188
v -0.04577115 -0.10199894 1.99100284
v -0.03503172 -0.10199894 1.97493016
v -0.01895904 -0.10199894 1.96419073
v -0.00000000 -0.10199894 1.96041954
v 0.01895904 -0.10199894 1.96419073
v 0.03503172 -0.10199894 1.97493016
v 0.04577115 -0.10199894 1.99100284
f 1006 991 992
f 1006 992 993
f 1006 993 994
f 1006 994 995
f 1006 995 996
f 1006 996 997
f 1006 997 998
f 1006 998 999
f 1006 999 1000
f 1006 1000 1001
f 1006 1001 1002
f 1006 1002 1003
f 1006 1003 1004
f 1004 1005 1006
f 1008 1007 1022
f 1009 1008 1022
f 1010 1009 1022
f 1011 1010 1022
f 1012 1011 1022
f 1013 1012 1022
f 1014 1013 1022
f 1015 1014 1022
f 1016 1015 1022
f 1017 1016 1022
f 1018 1017 1022
f 1019 1018 1022
f 1020 1019 1022
f 1022 1021 1020
f 991 1007 1008
f 991 1008 992
f 992 1008 1009
f 992 1009 993
f 993 1009 1010
f 993 1010 994
f 994 1010 1011
f 994 1011 995
f 995 1011 1012
f 995 1012 996
f 996 1012 1013
f 996 1013 997
f 997 1013 1014
f 997 1014 998
f 998 1014 1015
f 998 1015 999
f 999 1015 1016
f 999 1016 1000
f 1000 1016 1017
f 1000 1017 1001
f 1001 1017 1018
f 1001 1018 1002
f 1002 1018 1019
f 1002 1019 1003
f 1003 1019 1020
f 1003 1020 1004
f 1004 1020 1021
f 1004 1021 1005
f 1005 1021 1022
f 1005 1022 1006
f 1006 1022 1007
f 1006 1007 991
o NoisemakerPort
usemtl dark
v -0.17798814 0.22294053 -2.39478929
v -0.15758836 0.22294053 -2.39478929
v -0.15758836 0.24334032 -2.39478929
v -0.17798814 0.24334032 -2.39478929
v -0.17798814 0.22294053 -2.36564674
v -0.15758836 0.22294053 -2.36564674
v -0.15758836 0.24334032 -2.36564674
v -0.17798814 0.24334032 -2.36564674
f 1023 1026 1025
f 1023 1025 1024
f 1027 1028 1029
f 1027 1029 1030
f 1023 1024 1028
f 1023 1028 1027
f 1026 1030 1029
f 1026 1029 1025
f 1023 1027 1030
f 1023 1030 1026
f 1024 1025 1029
f 1024 1029 1028
o ASW_Sponson_-1
usemtl hull
v -0.63618193 0.23678324 0.58372534
v -0.56332555 0.23678324 0.58372534
v -0.56332555 0.25864016 0.58372534
v -0.63618193 0.25864016 0.58372534
v -0.63618193 0.23678324 0.68572427
v -0.56332555 0.23678324 0.68572427
v -0.56332555 0.25864016 0.68572427
v -0.63618193 0.25864016 0.68572427
f 1031 1034 1033
f 1031 1033 1032
f 1035 1036 1037
f 1035 1037 1038
f 1031 1032 1036
f 1031 1036 1035
f 1034 1038 1037
f 1034 1037 1033
f 1031 1035 1038
f 1031 1038 1034
f 1032 1033 1037
f 1032 1037 1036
o ASW_Tube_-1_0
usemtl dark
v -0.61250361 0.26155441 0.61286789
v -0.60594653 0.26155441 0.61286789
v -0.60594653 0.26884005 0.61286789
v -0.61250361 0.26884005 0.61286789
v -0.61250361 0.26155441 0.65658172
v -0.60594653 0.26155441 0.65658172
v -0.60594653 0.26884005 0.65658172
v -0.61250361 0.26884005 0.65658172
f 1039 1042 1041
f 1039 1041 1040
f 1043 1044 1045
f 1043 1045 1046
f 1039 1040 1044
f 1039 1044 1043
f 1042 1046 1045
f 1042 1045 1041
f 1039 1043 1046
f 1039 1046 1042
f 1040 1041 1045
f 1040 1045 1044
o ASW_Tube_-1_1
usemtl dark
v -0.60303228 0.26155441 0.61286789
v -0.59647520 0.26155441 0.61286789
v -0.59647520 0.26884005 0.61286789
v -0.60303228 0.26884005 0.61286789
v -0.60303228 0.26155441 0.65658172
v -0.59647520 0.26155441 0.65658172
v -0.59647520 0.26884005 0.65658172
v -0.60303228 0.26884005 0.65658172
f 1047 1050 1049
f 1047 1049 1048
f 1051 1052 1053
f 1051 1053 1054
f 1047 1048 1052
f 1047 1052 1051
f 1050 1054 1053
f 1050 1053 1049
f 1047 1051 1054
f 1047 1054 1050
f 1048 1049 1053
f 1048 1053 1052
o ASW_Tube_-1_2
usemtl dark
v -0.59356095 0.26155441 0.61286789
v -0.58700387 0.26155441 0.61286789
v -0.58700387 0.26884005 0.61286789
v -0.59356095 0.26884005 0.61286789
v -0.59356095 0.26155441 0.65658172
v -0.58700387 0.26155441 0.65658172
v -0.58700387 0.26884005 0.65658172
v -0.59356095 0.26884005 0.65658172
f 1055 1058 1057
f 1055 1057 1056
f 1059 1060 1061
f 1059 1061 1062
f 1055 1056 1060
f 1055 1060 1059
f 1058 1062 1061
f 1058 1061 1057
f 1055 1059 1062
f 1055 1062 1058
f 1056 1057 1061
f 1056 1061 1060
o ASW_Launcher_-1
usemtl island
v -0.62161066 0.24698314 0.50358332
v -0.57789683 0.24698314 0.50358332
v -0.57789683 0.27758282 0.50358332
v -0.62161066 0.27758282 0.50358332
v -0.62161066 0.24698314 0.56186842
v -0.57789683 0.24698314 0.56186842
v -0.57789683 0.27758282 0.56186842
v -0.62161066 0.27758282 0.56186842
f 1063 1066 1065
f 1063 1065 1064
f 1067 1068 1069
f 1067 1069 1070
f 1063 1064 1068
f 1063 1068 1067
f 1066 1070 1069
f 1066 1069 1065
f 1063 1067 1070
f 1063 1070 1066
f 1064 1065 1069
f 1064 1069 1068
o SAM_Sponson_-1
usemtl hull
v -0.67202727 0.25718303 2.00457051
v -0.58459961 0.25718303 2.00457051
v -0.58459961 0.27612569 2.00457051
v -0.67202727 0.27612569 2.00457051
v -0.67202727 0.25718303 2.12114072
v -0.58459961 0.25718303 2.12114072
v -0.58459961 0.27612569 2.12114072
v -0.67202727 0.27612569 2.12114072
f 1071 1074 1073
f 1071 1073 1072
f 1075 1076 1077
f 1075 1077 1078
f 1071 1072 1076
f 1071 1076 1075
f 1074 1078 1077
f 1074 1077 1073
f 1071 1075 1078
f 1071 1078 1074
f 1072 1073 1077
f 1072 1077 1076
o SAM_Launcher_-1
usemtl island
v -0.65599887 0.27248287 2.04099870
v -0.60062802 0.27248287 2.04099870
v -0.60062802 0.30745393 2.04099870
v -0.65599887 0.30745393 2.04099870
v -0.65599887 0.27248287 2.08471253
v -0.60062802 0.27248287 2.08471253
v -0.60062802 0.30745393 2.08471253
v -0.65599887 0.30745393 2.08471253
f 1079 1082 1081
f 1079 1081 1080
f 1083 1084 1085
f 1083 1085 1086
f 1079 1080 1084
f 1079 1084 1083
f 1082 1086 1085
f 1082 1085 1081
f 1079 1083 1086
f 1079 1086 1082
f 1080 1081 1085
f 1080 1085 1084
o NoisemakerStarboard
usemtl dark
v 0.15758836 0.22294053 -2.39478929
v 0.17798814 0.22294053 -2.39478929
v 0.17798814 0.24334032 -2.39478929
v 0.15758836 0.24334032 -2.39478929
v 0.15758836 0.22294053 -2.36564674
v 0.17798814 0.22294053 -2.36564674
v 0.17798814 0.24334032 -2.36564674
v 0.15758836 0.24334032 -2.36564674
f 1087 1090 1089
f 1087 1089 1088
f 1091 1092 1093
f 1091 1093 1094
f 1087 1088 1092
f 1087 1092 1091
f 1090 1094 1093
f 1090 1093 1089
f 1087 1091 1094
f 1087 1094 1090
f 1088 1089 1093
f 1088 1093 1092
o ASW_Sponson_1
usemtl hull
v 0.56332555 0.23678324 0.58372534
v 0.63618193 0.23678324 0.58372534
v 0.63618193 0.25864016 0.58372534
v 0.56332555 0.25864016 0.58372534
v 0.56332555 0.23678324 0.68572427
v 0.63618193 0.23678324 0.68572427
v 0.63618193 0.25864016 0.68572427
v 0.56332555 0.25864016 0.68572427
f 1095 1098 1097
f 1095 1097 1096
f 1099 1100 1101
f 1099 1101 1102
f 1095 1096 1100
f 1095 1100 1099
f 1098 1102 1101
f 1098 1101 1097
f 1095 1099 1102
f 1095 1102 1098
f 1096 1097 1101
f 1096 1101 1100
o ASW_Tube_1_0
usemtl dark
v 0.58700387 0.26155441 0.61286789
v 0.59356095 0.26155441 0.61286789
v 0.59356095 0.26884005 0.61286789
v 0.58700387 0.26884005 0.61286789
v 0.58700387 0.26155441 0.65658172
v 0.59356095 0.26155441 0.65658172
v 0.59356095 0.26884005 0.65658172
v 0.58700387 0.26884005 0.65658172
f 1103 1106 1105
f 1103 1105 1104
f 1107 1108 1109
f 1107 1109 1110
f 1103 1104 1108
f 1103 1108 1107
f 1106 1110 1109
f 1106 1109 1105
f 1103 1107 1110
f 1103 1110 1106
f 1104 1105 1109
f 1104 1109 1108
o ASW_Tube_1_1
usemtl dark
v 0.59647520 0.26155441 0.61286789
v 0.60303228 0.26155441 0.61286789
v 0.60303228 0.26884005 0.61286789
v 0.59647520 0.26884005 0.61286789
v 0.59647520 0.26155441 0.65658172
v 0.60303228 0.26155441 0.65658172
v 0.60303228 0.26884005 0.65658172
v 0.59647520 0.26884005 0.65658172
f 1111 1114 1113
f 1111 1113 1112
f 1115 1116 1117
f 1115 1117 1118
f 1111 1112 1116
f 1111 1116 1115
f 1114 1118 1117
f 1114 1117 1113
f 1111 1115 1118
f 1111 1118 1114
f 1112 1113 1117
f 1112 1117 1116
o ASW_Tube_1_2
usemtl dark
v 0.60594653 0.26155441 0.61286789
v 0.61250361 0.26155441 0.61286789
v 0.61250361 0.26884005 0.61286789
v 0.60594653 0.26884005 0.61286789
v 0.60594653 0.26155441 0.65658172
v 0.61250361 0.26155441 0.65658172
v 0.61250361 0.26884005 0.65658172
v 0.60594653 0.26884005 0.65658172
f 1119 1122 1121
f 1119 1121 1120
f 1123 1124 1125
f 1123 1125 1126
f 1119 1120 1124
f 1119 1124 1123
f 1122 1126 1125
f 1122 1125 1121
f 1119 1123 1126
f 1119 1126 1122
f 1120 1121 1125
f 1120 1125 1124
o ASW_Launcher_1
usemtl island
v 0.57789683 0.24698314 0.50358332
v 0.62161066 0.24698314 0.50358332
v 0.62161066 0.27758282 0.50358332
v 0.57789683 0.27758282 0.50358332
v 0.57789683 0.24698314 0.56186842
v 0.62161066 0.24698314 0.56186842
v 0.62161066 0.27758282 0.56186842
v 0.57789683 0.27758282 0.56186842
f 1127 1130 1129
f 1127 1129 1128
f 1131 1132 1133
f 1131 1133 1134
f 1127 1128 1132
f 1127 1132 1131
f 1130 1134 1133
f 1130 1133 1129
f 1127 1131 1134
f 1127 1134 1130
f 1128 1129 1133
f 1128 1133 1132
o SAM_Sponson_1
usemtl hull
v 0.58459961 0.25718303 2.00457051
v 0.67202727 0.25718303 2.00457051
v 0.67202727 0.27612569 2.00457051
v 0.58459961 0.27612569 2.00457051
v 0.58459961 0.25718303 2.12114072
v 0.67202727 0.25718303 2.12114072
v 0.67202727 0.27612569 2.12114072
v 0.58459961 0.27612569 2.12114072
f 1135 1138 1137
f 1135 1137 1136
f 1139 1140 1141
f 1139 1141 1142
f 1135 1136 1140
f 1135 1140 1139
f 1138 1142 1141
f 1138 1141 1137
f 1135 1139 1142
f 1135 1142 1138
f 1136 1137 1141
f 1136 1141 1140
o SAM_Launcher_1
usemtl island
v 0.60062802 0.27248287 2.04099870
v 0.65599887 0.27248287 2.04099870
v 0.65599887 0.30745393 2.04099870
v 0.60062802 0.30745393 2.04099870
v 0.60062802 0.27248287 2.08471253
v 0.65599887 0.27248287 2.08471253
v 0.65599887 0.30745393 2.08471253
v 0.60062802 0.30745393 2.08471253
f 1143 1146 1145
f 1143 1145 1144
f 1147 1148 1149
f 1147 1149 1150
f 1143 1144 1148
f 1143 1148 1147
f 1146 1150 1149
f 1146 1149 1145
f 1143 1147 1150
f 1143 1150 1146
f 1144 1145 1149
f 1144 1149 1148
o OffensiveECM_Module
usemtl island
v 0.48478637 0.68193574 -0.45374955
v 0.55764275 0.68193574 -0.45374955
v 0.55764275 0.71690680 -0.45374955
v 0.48478637 0.71690680 -0.45374955
v 0.48478637 0.68193574 -0.39255019
v 0.55764275 0.68193574 -0.39255019
v 0.55764275 0.71690680 -0.39255019
v 0.48478637 0.71690680 -0.39255019
f 1151 1154 1153
f 1151 1153 1152
f 1155 1156 1157
f 1155 1157 1158
f 1151 1152 1156
f 1151 1156 1155
f 1154 1158 1157
f 1154 1157 1153
f 1151 1155 1158
f 1151 1158 1154
f 1152 1153 1157
f 1152 1157 1156
o OffensiveECM_Array_-1
usemtl dark
v 0.48223640 0.68630712 -0.44864960
v 0.48442209 0.68630712 -0.44864960
v 0.48442209 0.71253542 -0.44864960
v 0.48223640 0.71253542 -0.44864960
v 0.48223640 0.68630712 -0.39765014
v 0.48442209 0.68630712 -0.39765014
v 0.48442209 0.71253542 -0.39765014
v 0.48223640 0.71253542 -0.39765014
f 1159 1162 1161
f 1159 1161 1160
f 1163 1164 1165
f 1163 1165 1166
f 1159 1160 1164
f 1159 1164 1163
f 1162 1166 1165
f 1162 1165 1161
f 1159 1163 1166
f 1159 1166 1162
f 1160 1161 1165
f 1160 1165 1164
o OffensiveECM_Array_1
usemtl dark
v 0.55800703 0.68630712 -0.44864960
v 0.56019272 0.68630712 -0.44864960
v 0.56019272 0.71253542 -0.44864960
v 0.55800703 0.71253542 -0.44864960
v 0.55800703 0.68630712 -0.39765014
v 0.56019272 0.68630712 -0.39765014
v 0.56019272 0.71253542 -0.39765014
v 0.55800703 0.71253542 -0.39765014
f 1167 1170 1169
f 1167 1169 1168
f 1171 1172 1173
f 1171 1173 1174
f 1167 1168 1172
f 1167 1172 1171
f 1170 1174 1173
f 1170 1173 1169
f 1167 1171 1174
f 1167 1174 1170
f 1168 1169 1173
f 1168 1173 1172
