# Original RAN carrier model study scaled to an observed Sea Power reference mesh.
# Approximate game scale only; engine origin, deck routing and collision need an in-game test.
# RAN Carrier Restart: original model study; coordinates in metres
mtllib ran_cvl_melbourne_1952.mtl
o Hull
usemtl hull
v -0.11245120 0.00000000 -1.47577888
v -0.11592908 0.04371383 -1.47577888
v -0.11476979 0.20691213 -1.47577888
v 0.11476979 0.20691213 -1.47577888
v 0.11592908 0.04371383 -1.47577888
v 0.11245120 0.00000000 -1.47577888
v -0.11517533 0.00000000 -1.39251011
v -0.11873746 0.04371383 -1.39251011
v -0.11755009 0.20691213 -1.39251011
v 0.11755009 0.20691213 -1.39251011
v 0.11873746 0.04371383 -1.39251011
v 0.11517533 0.00000000 -1.39251011
v -0.11788888 0.00000000 -1.30924133
v -0.12153492 0.04371383 -1.30924133
v -0.12031958 0.20691213 -1.30924133
v 0.12031958 0.20691213 -1.30924133
v 0.12153492 0.04371383 -1.30924133
v 0.11788888 0.00000000 -1.30924133
v -0.12058131 0.00000000 -1.22597256
v -0.12431063 0.04371383 -1.22597256
v -0.12306752 0.20691213 -1.22597256
v 0.12306752 0.20691213 -1.22597256
v 0.12431063 0.04371383 -1.22597256
v 0.12058131 0.00000000 -1.22597256
v -0.12324215 0.00000000 -1.14270379
v -0.12705376 0.04371383 -1.14270379
v -0.12578324 0.20691213 -1.14270379
v 0.12578324 0.20691213 -1.14270379
v 0.12705376 0.04371383 -1.14270379
v 0.12324215 0.00000000 -1.14270379
v -0.12586109 0.00000000 -1.05943501
v -0.12975371 0.04371383 -1.05943501
v -0.12845616 0.20691213 -1.05943501
v 0.12845616 0.20691213 -1.05943501
v 0.12975371 0.04371383 -1.05943501
v 0.12586109 0.00000000 -1.05943501
v -0.12842794 0.00000000 -0.97616624
v -0.13239994 0.04371383 -0.97616624
v -0.13107593 0.20691213 -0.97616624
v 0.13107593 0.20691213 -0.97616624
v 0.13239994 0.04371383 -0.97616624
v 0.12842794 0.00000000 -0.97616624
v -0.13093273 0.00000000 -0.89289747
v -0.13498220 0.04371383 -0.89289747
v -0.13363238 0.20691213 -0.89289747
v 0.13363238 0.20691213 -0.89289747
v 0.13498220 0.04371383 -0.89289747
v 0.13093273 0.00000000 -0.89289747
v -0.13336574 0.00000000 -0.80962869
v -0.13749046 0.04371383 -0.80962869
v -0.13611555 0.20691213 -0.80962869
v 0.13611555 0.20691213 -0.80962869
v 0.13749046 0.04371383 -0.80962869
v 0.13336574 0.00000000 -0.80962869
v -0.13571751 0.00000000 -0.72635992
v -0.13991496 0.04371383 -0.72635992
v -0.13851581 0.20691213 -0.72635992
v 0.13851581 0.20691213 -0.72635992
v 0.13991496 0.04371383 -0.72635992
v 0.13571751 0.00000000 -0.72635992
v -0.13797891 0.00000000 -0.64309115
v -0.14224630 0.04371383 -0.64309115
v -0.14082384 0.20691213 -0.64309115
v 0.14082384 0.20691213 -0.64309115
v 0.14224630 0.04371383 -0.64309115
v 0.13797891 0.00000000 -0.64309115
v -0.14014116 0.00000000 -0.55982237
v -0.14447542 0.04371383 -0.55982237
v -0.14303067 0.20691213 -0.55982237
v 0.14303067 0.20691213 -0.55982237
v 0.14447542 0.04371383 -0.55982237
v 0.14014116 0.00000000 -0.55982237
v -0.14219586 0.00000000 -0.47655360
v -0.14659366 0.04371383 -0.47655360
v -0.14512773 0.20691213 -0.47655360
v 0.14512773 0.20691213 -0.47655360
v 0.14659366 0.04371383 -0.47655360
v 0.14219586 0.00000000 -0.47655360
v -0.14413502 0.00000000 -0.39328483
v -0.14859279 0.04371383 -0.39328483
v -0.14710687 0.20691213 -0.39328483
v 0.14710687 0.20691213 -0.39328483
v 0.14859279 0.04371383 -0.39328483
v 0.14413502 0.00000000 -0.39328483
v -0.14595111 0.00000000 -0.31001605
v -0.15046507 0.04371383 -0.31001605
v -0.14896041 0.20691213 -0.31001605
v 0.14896041 0.20691213 -0.31001605
v 0.15046507 0.04371383 -0.31001605
v 0.14595111 0.00000000 -0.31001605
v -0.14763709 0.00000000 -0.22674728
v -0.15220319 0.04371383 -0.22674728
v -0.15068115 0.20691213 -0.22674728
v 0.15068115 0.20691213 -0.22674728
v 0.15220319 0.04371383 -0.22674728
v 0.14763709 0.00000000 -0.22674728
v -0.14918640 0.00000000 -0.14347851
v -0.15380041 0.04371383 -0.14347851
v -0.15226241 0.20691213 -0.14347851
v 0.15226241 0.20691213 -0.14347851
v 0.15380041 0.04371383 -0.14347851
v 0.14918640 0.00000000 -0.14347851
v -0.15059302 0.00000000 -0.06020972
v -0.15525054 0.04371383 -0.06020972
v -0.15369803 0.20691213 -0.06020972
v 0.15369803 0.20691213 -0.06020972
v 0.15525054 0.04371383 -0.06020972
v 0.15059302 0.00000000 -0.06020972
v -0.15185150 0.00000000 0.02305905
v -0.15654794 0.04371383 0.02305905
v -0.15498246 0.20691213 0.02305905
v 0.15498246 0.20691213 0.02305905
v 0.15654794 0.04371383 0.02305905
v 0.15185150 0.00000000 0.02305905
v -0.15295693 0.00000000 0.10632781
v -0.15768756 0.04371383 0.10632781
v -0.15611068 0.20691213 0.10632781
v 0.15611068 0.20691213 0.10632781
v 0.15768756 0.04371383 0.10632781
v 0.15295693 0.00000000 0.10632781
v -0.15390504 0.00000000 0.18959660
v -0.15866498 0.04371383 0.18959660
v -0.15707833 0.20691213 0.18959660
v 0.15707833 0.20691213 0.18959660
v 0.15866498 0.04371383 0.18959660
v 0.15390504 0.00000000 0.18959660
v -0.15469212 0.00000000 0.27286537
v -0.15947643 0.04371383 0.27286537
v -0.15788166 0.20691213 0.27286537
v 0.15788166 0.20691213 0.27286537
v 0.15947643 0.04371383 0.27286537
v 0.15469212 0.00000000 0.27286537
v -0.15531515 0.00000000 0.35613414
v -0.16011872 0.04371383 0.35613414
v -0.15851752 0.20691213 0.35613414
v 0.15851752 0.20691213 0.35613414
v 0.16011872 0.04371383 0.35613414
v 0.15531515 0.00000000 0.35613414
v -0.15577168 0.00000000 0.43940292
v -0.16058937 0.04371383 0.43940292
v -0.15898347 0.20691213 0.43940292
v 0.15898347 0.20691213 0.43940292
v 0.16058937 0.04371383 0.43940292
v 0.15577168 0.00000000 0.43940292
v -0.15605994 0.00000000 0.52267169
v -0.16088655 0.04371383 0.52267169
v -0.15927768 0.20691213 0.52267169
v 0.15927768 0.20691213 0.52267169
v 0.16088655 0.04371383 0.52267169
v 0.15605994 0.00000000 0.52267169
v -0.15617883 0.00000000 0.60594046
v -0.16100911 0.04371383 0.60594046
v -0.15939901 0.20691213 0.60594046
v 0.15939901 0.20691213 0.60594046
v 0.16100911 0.04371383 0.60594046
v 0.15617883 0.00000000 0.60594046
v -0.15618223 0.00000000 0.68920924
v -0.16101261 0.04371383 0.68920924
v -0.15940248 0.20691213 0.68920924
v 0.15940248 0.20691213 0.68920924
v 0.16101261 0.04371383 0.68920924
v 0.15618223 0.00000000 0.68920924
v -0.15618223 0.00000000 0.77247801
v -0.16101261 0.04371383 0.77247801
v -0.15940248 0.20691213 0.77247801
v 0.15940248 0.20691213 0.77247801
v 0.16101261 0.04371383 0.77247801
v 0.15618223 0.00000000 0.77247801
v -0.15312799 0.00000000 0.85574678
v -0.15786391 0.04371383 0.85574678
v -0.15628528 0.20691213 0.85574678
v 0.15628528 0.20691213 0.85574678
v 0.15786391 0.04371383 0.85574678
v 0.15312799 0.00000000 0.85574678
v -0.14365374 0.00000000 0.93901556
v -0.14809664 0.04371383 0.93901556
v -0.14661567 0.20691213 0.93901556
v 0.14661567 0.20691213 0.93901556
v 0.14809664 0.04371383 0.93901556
v 0.14365374 0.00000000 0.93901556
v -0.13059409 0.00000000 1.02228433
v -0.13463309 0.04371383 1.02228433
v -0.13328676 0.20691213 1.02228433
v 0.13328676 0.20691213 1.02228433
v 0.13463309 0.04371383 1.02228433
v 0.13059409 0.00000000 1.02228433
v -0.11475510 0.00000000 1.10555310
v -0.11830422 0.04371383 1.10555310
v -0.11712118 0.20691213 1.10555310
v 0.11712118 0.20691213 1.10555310
v 0.11830422 0.04371383 1.10555310
v 0.11475510 0.00000000 1.10555310
v -0.09655980 0.00000000 1.18882188
v -0.09954618 0.04371383 1.18882188
v -0.09855072 0.20691213 1.18882188
v 0.09855072 0.20691213 1.18882188
v 0.09954618 0.04371383 1.18882188
v 0.09655980 0.00000000 1.18882188
v -0.07628138 0.00000000 1.27209065
v -0.07864060 0.04371383 1.27209065
v -0.07785418 0.20691213 1.27209065
v 0.07785418 0.20691213 1.27209065
v 0.07864060 0.04371383 1.27209065
v 0.07628138 0.00000000 1.27209065
v -0.05411535 0.00000000 1.35535942
v -0.05578902 0.04371383 1.35535942
v -0.05523113 0.20691213 1.35535942
v 0.05523113 0.20691213 1.35535942
v 0.05578902 0.04371383 1.35535942
v 0.05411535 0.00000000 1.35535942
v -0.03021058 0.00000000 1.43862820
v -0.03114494 0.04371383 1.43862820
v -0.03083349 0.20691213 1.43862820
v 0.03083349 0.20691213 1.43862820
v 0.03114494 0.04371383 1.43862820
v 0.03021058 0.00000000 1.43862820
v -0.00468547 0.00000000 1.52189697
v -0.00483038 0.04371383 1.52189697
v -0.00478207 0.20691213 1.52189697
v 0.00478207 0.20691213 1.52189697
v 0.00483038 0.04371383 1.52189697
v 0.00468547 0.00000000 1.52189697
f 7 8 2
f 7 2 1
f 8 9 3
f 8 3 2
f 9 10 4
f 9 4 3
f 10 11 5
f 10 5 4
f 11 12 6
f 11 6 5
f 12 7 1
f 12 1 6
f 13 14 8
f 13 8 7
f 14 15 9
f 14 9 8
f 15 16 10
f 15 10 9
f 16 17 11
f 16 11 10
f 17 18 12
f 17 12 11
f 18 13 7
f 18 7 12
f 19 20 14
f 19 14 13
f 20 21 15
f 20 15 14
f 21 22 16
f 21 16 15
f 22 23 17
f 22 17 16
f 23 24 18
f 23 18 17
f 24 19 13
f 24 13 18
f 25 26 20
f 25 20 19
f 26 27 21
f 26 21 20
f 27 28 22
f 27 22 21
f 28 29 23
f 28 23 22
f 29 30 24
f 29 24 23
f 30 25 19
f 30 19 24
f 31 32 26
f 31 26 25
f 32 33 27
f 32 27 26
f 33 34 28
f 33 28 27
f 34 35 29
f 34 29 28
f 35 36 30
f 35 30 29
f 36 31 25
f 36 25 30
f 37 38 32
f 37 32 31
f 38 39 33
f 38 33 32
f 39 40 34
f 39 34 33
f 40 41 35
f 40 35 34
f 41 42 36
f 41 36 35
f 42 37 31
f 42 31 36
f 43 44 38
f 43 38 37
f 44 45 39
f 44 39 38
f 45 46 40
f 45 40 39
f 46 47 41
f 46 41 40
f 47 48 42
f 47 42 41
f 48 43 37
f 48 37 42
f 49 50 44
f 49 44 43
f 50 51 45
f 50 45 44
f 51 52 46
f 51 46 45
f 52 53 47
f 52 47 46
f 53 54 48
f 53 48 47
f 54 49 43
f 54 43 48
f 55 56 50
f 55 50 49
f 56 57 51
f 56 51 50
f 57 58 52
f 57 52 51
f 58 59 53
f 58 53 52
f 59 60 54
f 59 54 53
f 60 55 49
f 60 49 54
f 61 62 56
f 61 56 55
f 62 63 57
f 62 57 56
f 63 64 58
f 63 58 57
f 64 65 59
f 64 59 58
f 65 66 60
f 65 60 59
f 66 61 55
f 66 55 60
f 67 68 62
f 67 62 61
f 68 69 63
f 68 63 62
f 69 70 64
f 69 64 63
f 70 71 65
f 70 65 64
f 71 72 66
f 71 66 65
f 72 67 61
f 72 61 66
f 73 74 68
f 73 68 67
f 74 75 69
f 74 69 68
f 75 76 70
f 75 70 69
f 76 77 71
f 76 71 70
f 77 78 72
f 77 72 71
f 78 73 67
f 78 67 72
f 79 80 74
f 79 74 73
f 80 81 75
f 80 75 74
f 81 82 76
f 81 76 75
f 82 83 77
f 82 77 76
f 83 84 78
f 83 78 77
f 84 79 73
f 84 73 78
f 85 86 80
f 85 80 79
f 86 87 81
f 86 81 80
f 87 88 82
f 87 82 81
f 88 89 83
f 88 83 82
f 89 90 84
f 89 84 83
f 90 85 79
f 90 79 84
f 91 92 86
f 91 86 85
f 92 93 87
f 92 87 86
f 93 94 88
f 93 88 87
f 94 95 89
f 94 89 88
f 95 96 90
f 95 90 89
f 96 91 85
f 96 85 90
f 97 98 92
f 97 92 91
f 98 99 93
f 98 93 92
f 99 100 94
f 99 94 93
f 100 101 95
f 100 95 94
f 101 102 96
f 101 96 95
f 102 97 91
f 102 91 96
f 103 104 98
f 103 98 97
f 104 105 99
f 104 99 98
f 105 106 100
f 105 100 99
f 106 107 101
f 106 101 100
f 107 108 102
f 107 102 101
f 108 103 97
f 108 97 102
f 109 110 104
f 109 104 103
f 110 111 105
f 110 105 104
f 111 112 106
f 111 106 105
f 112 113 107
f 112 107 106
f 113 114 108
f 113 108 107
f 114 109 103
f 114 103 108
f 115 116 110
f 115 110 109
f 116 117 111
f 116 111 110
f 117 118 112
f 117 112 111
f 118 119 113
f 118 113 112
f 119 120 114
f 119 114 113
f 120 115 109
f 120 109 114
f 121 122 116
f 121 116 115
f 122 123 117
f 122 117 116
f 123 124 118
f 123 118 117
f 124 125 119
f 124 119 118
f 125 126 120
f 125 120 119
f 126 121 115
f 126 115 120
f 127 128 122
f 127 122 121
f 128 129 123
f 128 123 122
f 129 130 124
f 129 124 123
f 130 131 125
f 130 125 124
f 131 132 126
f 131 126 125
f 132 127 121
f 132 121 126
f 133 134 128
f 133 128 127
f 134 135 129
f 134 129 128
f 135 136 130
f 135 130 129
f 136 137 131
f 136 131 130
f 137 138 132
f 137 132 131
f 138 133 127
f 138 127 132
f 139 140 134
f 139 134 133
f 140 141 135
f 140 135 134
f 141 142 136
f 141 136 135
f 142 143 137
f 142 137 136
f 143 144 138
f 143 138 137
f 144 139 133
f 144 133 138
f 145 146 140
f 145 140 139
f 146 147 141
f 146 141 140
f 147 148 142
f 147 142 141
f 148 149 143
f 148 143 142
f 149 150 144
f 149 144 143
f 150 145 139
f 150 139 144
f 151 152 146
f 151 146 145
f 152 153 147
f 152 147 146
f 153 154 148
f 153 148 147
f 154 155 149
f 154 149 148
f 155 156 150
f 155 150 149
f 156 151 145
f 156 145 150
f 157 158 152
f 157 152 151
f 158 159 153
f 158 153 152
f 159 160 154
f 159 154 153
f 160 161 155
f 160 155 154
f 161 162 156
f 161 156 155
f 162 157 151
f 162 151 156
f 163 164 158
f 163 158 157
f 164 165 159
f 164 159 158
f 165 166 160
f 165 160 159
f 166 167 161
f 166 161 160
f 167 168 162
f 167 162 161
f 168 163 157
f 168 157 162
f 169 170 164
f 169 164 163
f 170 171 165
f 170 165 164
f 171 172 166
f 171 166 165
f 172 173 167
f 172 167 166
f 173 174 168
f 173 168 167
f 174 169 163
f 174 163 168
f 175 176 170
f 175 170 169
f 176 177 171
f 176 171 170
f 177 178 172
f 177 172 171
f 178 179 173
f 178 173 172
f 179 180 174
f 179 174 173
f 180 175 169
f 180 169 174
f 181 182 176
f 181 176 175
f 182 183 177
f 182 177 176
f 183 184 178
f 183 178 177
f 184 185 179
f 184 179 178
f 185 186 180
f 185 180 179
f 186 181 175
f 186 175 180
f 187 188 182
f 187 182 181
f 188 189 183
f 188 183 182
f 189 190 184
f 189 184 183
f 190 191 185
f 190 185 184
f 191 192 186
f 191 186 185
f 192 187 181
f 192 181 186
f 193 194 188
f 193 188 187
f 194 195 189
f 194 189 188
f 195 196 190
f 195 190 189
f 196 197 191
f 196 191 190
f 197 198 192
f 197 192 191
f 198 193 187
f 198 187 192
f 199 200 194
f 199 194 193
f 200 201 195
f 200 195 194
f 201 202 196
f 201 196 195
f 202 203 197
f 202 197 196
f 203 204 198
f 203 198 197
f 204 199 193
f 204 193 198
f 205 206 200
f 205 200 199
f 206 207 201
f 206 201 200
f 207 208 202
f 207 202 201
f 208 209 203
f 208 203 202
f 209 210 204
f 209 204 203
f 210 205 199
f 210 199 204
f 211 212 206
f 211 206 205
f 212 213 207
f 212 207 206
f 213 214 208
f 213 208 207
f 214 215 209
f 214 209 208
f 215 216 210
f 215 210 209
f 216 211 205
f 216 205 210
f 217 218 212
f 217 212 211
f 218 219 213
f 218 213 212
f 219 220 214
f 219 214 213
f 220 221 215
f 220 215 214
f 221 222 216
f 221 216 215
f 222 217 211
f 222 211 216
f 1 2 3
f 1 3 4
f 1 4 5
f 1 5 6
f 222 221 220
f 222 220 219
f 222 219 218
f 222 218 217
o UnderwaterHull
usemtl underwater
v -0.06955745 -0.12385585 -1.47577888
v -0.10781404 -0.04371383 -1.47577888
v -0.11245120 0.00000000 -1.47577888
v 0.11245120 0.00000000 -1.47577888
v 0.10781404 -0.04371383 -1.47577888
v 0.06955745 -0.12385585 -1.47577888
v -0.07124247 -0.12385585 -1.39251011
v -0.11042584 -0.04371383 -1.39251011
v -0.11517533 0.00000000 -1.39251011
v 0.11517533 0.00000000 -1.39251011
v 0.11042584 -0.04371383 -1.39251011
v 0.07124247 -0.12385585 -1.39251011
v -0.07292096 -0.12385585 -1.30924133
v -0.11302748 -0.04371383 -1.30924133
v -0.11788888 0.00000000 -1.30924133
v 0.11788888 0.00000000 -1.30924133
v 0.11302748 -0.04371383 -1.30924133
v 0.07292096 -0.12385585 -1.30924133
v -0.07458637 -0.12385585 -1.22597256
v -0.11560889 -0.04371383 -1.22597256
v -0.12058131 0.00000000 -1.22597256
v 0.12058131 0.00000000 -1.22597256
v 0.11560889 -0.04371383 -1.22597256
v 0.07458637 -0.12385585 -1.22597256
v -0.07623226 -0.12385585 -1.14270379
v -0.11816001 -0.04371383 -1.14270379
v -0.12324215 0.00000000 -1.14270379
v 0.12324215 0.00000000 -1.14270379
v 0.11816001 -0.04371383 -1.14270379
v 0.07623226 -0.12385585 -1.14270379
v -0.07785222 -0.12385585 -1.05943501
v -0.12067095 -0.04371383 -1.05943501
v -0.12586109 0.00000000 -1.05943501
v 0.12586109 0.00000000 -1.05943501
v 0.12067095 -0.04371383 -1.05943501
v 0.07785222 -0.12385585 -1.05943501
v -0.07943996 -0.12385585 -0.97616624
v -0.12313195 -0.04371383 -0.97616624
v -0.12842794 0.00000000 -0.97616624
v 0.12842794 0.00000000 -0.97616624
v 0.12313195 -0.04371383 -0.97616624
v 0.07943996 -0.12385585 -0.97616624
v -0.08098933 -0.12385585 -0.89289747
v -0.12553344 -0.04371383 -0.89289747
v -0.13093273 0.00000000 -0.89289747
v 0.13093273 0.00000000 -0.89289747
v 0.12553344 -0.04371383 -0.89289747
v 0.08098933 -0.12385585 -0.89289747
v -0.08249428 -0.12385585 -0.80962869
v -0.12786613 -0.04371383 -0.80962869
v -0.13336574 0.00000000 -0.80962869
v 0.13336574 0.00000000 -0.80962869
v 0.12786613 -0.04371383 -0.80962869
v 0.08249428 -0.12385585 -0.80962869
v -0.08394897 -0.12385585 -0.72635992
v -0.13012092 -0.04371383 -0.72635992
v -0.13571751 0.00000000 -0.72635992
v 0.13571751 0.00000000 -0.72635992
v 0.13012092 -0.04371383 -0.72635992
v 0.08394897 -0.12385585 -0.72635992
v -0.08534778 -0.12385585 -0.64309115
v -0.13228906 -0.04371383 -0.64309115
v -0.13797891 0.00000000 -0.64309115
v 0.13797891 0.00000000 -0.64309115
v 0.13228906 -0.04371383 -0.64309115
v 0.08534778 -0.12385585 -0.64309115
v -0.08668525 -0.12385585 -0.55982237
v -0.13436215 -0.04371383 -0.55982237
v -0.14014116 0.00000000 -0.55982237
v 0.14014116 0.00000000 -0.55982237
v 0.13436215 -0.04371383 -0.55982237
v 0.08668525 -0.12385585 -0.55982237
v -0.08795620 -0.12385585 -0.47655360
v -0.13633211 -0.04371383 -0.47655360
v -0.14219586 0.00000000 -0.47655360
v 0.14219586 0.00000000 -0.47655360
v 0.13633211 -0.04371383 -0.47655360
v 0.08795620 -0.12385585 -0.47655360
v -0.08915568 -0.12385585 -0.39328483
v -0.13819131 -0.04371383 -0.39328483
v -0.14413502 0.00000000 -0.39328483
v 0.14413502 0.00000000 -0.39328483
v 0.13819131 -0.04371383 -0.39328483
v 0.08915568 -0.12385585 -0.39328483
v -0.09027904 -0.12385585 -0.31001605
v -0.13993251 -0.04371383 -0.31001605
v -0.14595111 0.00000000 -0.31001605
v 0.14595111 0.00000000 -0.31001605
v 0.13993251 -0.04371383 -0.31001605
v 0.09027904 -0.12385585 -0.31001605
v -0.09132191 -0.12385585 -0.22674728
v -0.14154896 -0.04371383 -0.22674728
v -0.14763709 0.00000000 -0.22674728
v 0.14763709 0.00000000 -0.22674728
v 0.14154896 -0.04371383 -0.22674728
v 0.09132191 -0.12385585 -0.22674728
v -0.09228024 -0.12385585 -0.14347851
v -0.14303437 -0.04371383 -0.14347851
v -0.14918640 0.00000000 -0.14347851
v 0.14918640 0.00000000 -0.14347851
v 0.14303437 -0.04371383 -0.14347851
v 0.09228024 -0.12385585 -0.14347851
v -0.09315032 -0.12385585 -0.06020972
v -0.14438300 -0.04371383 -0.06020972
v -0.15059302 0.00000000 -0.06020972
v 0.15059302 0.00000000 -0.06020972
v 0.14438300 -0.04371383 -0.06020972
v 0.09315032 -0.12385585 -0.06020972
v -0.09392877 -0.12385585 0.02305905
v -0.14558958 -0.04371383 0.02305905
v -0.15185150 0.00000000 0.02305905
v 0.15185150 0.00000000 0.02305905
v 0.14558958 -0.04371383 0.02305905
v 0.09392877 -0.12385585 0.02305905
v -0.09461254 -0.12385585 0.10632781
v -0.14664944 -0.04371383 0.10632781
v -0.15295693 0.00000000 0.10632781
v 0.15295693 0.00000000 0.10632781
v 0.14664944 -0.04371383 0.10632781
v 0.09461254 -0.12385585 0.10632781
v -0.09519899 -0.12385585 0.18959660
v -0.14755844 -0.04371383 0.18959660
v -0.15390504 0.00000000 0.18959660
v 0.15390504 0.00000000 0.18959660
v 0.14755844 -0.04371383 0.18959660
v 0.09519899 -0.12385585 0.18959660
v -0.09568586 -0.12385585 0.27286537
v -0.14831307 -0.04371383 0.27286537
v -0.15469212 0.00000000 0.27286537
v 0.15469212 0.00000000 0.27286537
v 0.14831307 -0.04371383 0.27286537
v 0.09568586 -0.12385585 0.27286537
v -0.09607122 -0.12385585 0.35613414
v -0.14891040 -0.04371383 0.35613414
v -0.15531515 0.00000000 0.35613414
v 0.15531515 0.00000000 0.35613414
v 0.14891040 -0.04371383 0.35613414
v 0.09607122 -0.12385585 0.35613414
v -0.09635361 -0.12385585 0.43940292
v -0.14934811 -0.04371383 0.43940292
v -0.15577168 0.00000000 0.43940292
v 0.15577168 0.00000000 0.43940292
v 0.14934811 -0.04371383 0.43940292
v 0.09635361 -0.12385585 0.43940292
v -0.09653192 -0.12385585 0.52267169
v -0.14962448 -0.04371383 0.52267169
v -0.15605994 0.00000000 0.52267169
v 0.15605994 0.00000000 0.52267169
v 0.14962448 -0.04371383 0.52267169
v 0.09653192 -0.12385585 0.52267169
v -0.09660546 -0.12385585 0.60594046
v -0.14973846 -0.04371383 0.60594046
v -0.15617883 0.00000000 0.60594046
v 0.15617883 0.00000000 0.60594046
v 0.14973846 -0.04371383 0.60594046
v 0.09660546 -0.12385585 0.60594046
v -0.09660756 -0.12385585 0.68920924
v -0.14974172 -0.04371383 0.68920924
v -0.15618223 0.00000000 0.68920924
v 0.15618223 0.00000000 0.68920924
v 0.14974172 -0.04371383 0.68920924
v 0.09660756 -0.12385585 0.68920924
v -0.09660756 -0.12385585 0.77247801
v -0.14974172 -0.04371383 0.77247801
v -0.15618223 0.00000000 0.77247801
v 0.15618223 0.00000000 0.77247801
v 0.14974172 -0.04371383 0.77247801
v 0.09660756 -0.12385585 0.77247801
v -0.09471834 -0.12385585 0.85574678
v -0.14681344 -0.04371383 0.85574678
v -0.15312799 0.00000000 0.85574678
v 0.15312799 0.00000000 0.85574678
v 0.14681344 -0.04371383 0.85574678
v 0.09471834 -0.12385585 0.85574678
v -0.08885799 -0.12385585 0.93901556
v -0.13772988 -0.04371383 0.93901556
v -0.14365374 0.00000000 0.93901556
v 0.14365374 0.00000000 0.93901556
v 0.13772988 -0.04371383 0.93901556
v 0.08885799 -0.12385585 0.93901556
v -0.08077985 -0.12385585 1.02228433
v -0.12520876 -0.04371383 1.02228433
v -0.13059409 0.00000000 1.02228433
v 0.13059409 0.00000000 1.02228433
v 0.12520876 -0.04371383 1.02228433
v 0.08077985 -0.12385585 1.02228433
v -0.07098253 -0.12385585 1.10555310
v -0.11002293 -0.04371383 1.10555310
v -0.11475510 0.00000000 1.10555310
v 0.11475510 0.00000000 1.10555310
v 0.11002293 -0.04371383 1.10555310
v 0.07098253 -0.12385585 1.10555310
v -0.05972771 -0.12385585 1.18882188
v -0.09257795 -0.04371383 1.18882188
v -0.09655980 0.00000000 1.18882188
v 0.09655980 0.00000000 1.18882188
v 0.09257795 -0.04371383 1.18882188
v 0.05972771 -0.12385585 1.18882188
v -0.04718436 -0.12385585 1.27209065
v -0.07313576 -0.04371383 1.27209065
v -0.07628138 0.00000000 1.27209065
v 0.07628138 0.00000000 1.27209065
v 0.07313576 -0.04371383 1.27209065
v 0.04718436 -0.12385585 1.27209065
v -0.03347341 -0.12385585 1.35535942
v -0.05188378 -0.04371383 1.35535942
v -0.05411535 0.00000000 1.35535942
v 0.05411535 0.00000000 1.35535942
v 0.05188378 -0.04371383 1.35535942
v 0.03347341 -0.12385585 1.35535942
v -0.01868696 -0.12385585 1.43862820
v -0.02896480 -0.04371383 1.43862820
v -0.03021058 0.00000000 1.43862820
v 0.03021058 0.00000000 1.43862820
v 0.02896480 -0.04371383 1.43862820
v 0.01868696 -0.12385585 1.43862820
v -0.00289823 -0.12385585 1.52189697
v -0.00449225 -0.04371383 1.52189697
v -0.00468547 0.00000000 1.52189697
v 0.00468547 0.00000000 1.52189697
v 0.00449225 -0.04371383 1.52189697
v 0.00289823 -0.12385585 1.52189697
f 229 230 224
f 229 224 223
f 230 231 225
f 230 225 224
f 231 232 226
f 231 226 225
f 232 233 227
f 232 227 226
f 233 234 228
f 233 228 227
f 234 229 223
f 234 223 228
f 235 236 230
f 235 230 229
f 236 237 231
f 236 231 230
f 237 238 232
f 237 232 231
f 238 239 233
f 238 233 232
f 239 240 234
f 239 234 233
f 240 235 229
f 240 229 234
f 241 242 236
f 241 236 235
f 242 243 237
f 242 237 236
f 243 244 238
f 243 238 237
f 244 245 239
f 244 239 238
f 245 246 240
f 245 240 239
f 246 241 235
f 246 235 240
f 247 248 242
f 247 242 241
f 248 249 243
f 248 243 242
f 249 250 244
f 249 244 243
f 250 251 245
f 250 245 244
f 251 252 246
f 251 246 245
f 252 247 241
f 252 241 246
f 253 254 248
f 253 248 247
f 254 255 249
f 254 249 248
f 255 256 250
f 255 250 249
f 256 257 251
f 256 251 250
f 257 258 252
f 257 252 251
f 258 253 247
f 258 247 252
f 259 260 254
f 259 254 253
f 260 261 255
f 260 255 254
f 261 262 256
f 261 256 255
f 262 263 257
f 262 257 256
f 263 264 258
f 263 258 257
f 264 259 253
f 264 253 258
f 265 266 260
f 265 260 259
f 266 267 261
f 266 261 260
f 267 268 262
f 267 262 261
f 268 269 263
f 268 263 262
f 269 270 264
f 269 264 263
f 270 265 259
f 270 259 264
f 271 272 266
f 271 266 265
f 272 273 267
f 272 267 266
f 273 274 268
f 273 268 267
f 274 275 269
f 274 269 268
f 275 276 270
f 275 270 269
f 276 271 265
f 276 265 270
f 277 278 272
f 277 272 271
f 278 279 273
f 278 273 272
f 279 280 274
f 279 274 273
f 280 281 275
f 280 275 274
f 281 282 276
f 281 276 275
f 282 277 271
f 282 271 276
f 283 284 278
f 283 278 277
f 284 285 279
f 284 279 278
f 285 286 280
f 285 280 279
f 286 287 281
f 286 281 280
f 287 288 282
f 287 282 281
f 288 283 277
f 288 277 282
f 289 290 284
f 289 284 283
f 290 291 285
f 290 285 284
f 291 292 286
f 291 286 285
f 292 293 287
f 292 287 286
f 293 294 288
f 293 288 287
f 294 289 283
f 294 283 288
f 295 296 290
f 295 290 289
f 296 297 291
f 296 291 290
f 297 298 292
f 297 292 291
f 298 299 293
f 298 293 292
f 299 300 294
f 299 294 293
f 300 295 289
f 300 289 294
f 301 302 296
f 301 296 295
f 302 303 297
f 302 297 296
f 303 304 298
f 303 298 297
f 304 305 299
f 304 299 298
f 305 306 300
f 305 300 299
f 306 301 295
f 306 295 300
f 307 308 302
f 307 302 301
f 308 309 303
f 308 303 302
f 309 310 304
f 309 304 303
f 310 311 305
f 310 305 304
f 311 312 306
f 311 306 305
f 312 307 301
f 312 301 306
f 313 314 308
f 313 308 307
f 314 315 309
f 314 309 308
f 315 316 310
f 315 310 309
f 316 317 311
f 316 311 310
f 317 318 312
f 317 312 311
f 318 313 307
f 318 307 312
f 319 320 314
f 319 314 313
f 320 321 315
f 320 315 314
f 321 322 316
f 321 316 315
f 322 323 317
f 322 317 316
f 323 324 318
f 323 318 317
f 324 319 313
f 324 313 318
f 325 326 320
f 325 320 319
f 326 327 321
f 326 321 320
f 327 328 322
f 327 322 321
f 328 329 323
f 328 323 322
f 329 330 324
f 329 324 323
f 330 325 319
f 330 319 324
f 331 332 326
f 331 326 325
f 332 333 327
f 332 327 326
f 333 334 328
f 333 328 327
f 334 335 329
f 334 329 328
f 335 336 330
f 335 330 329
f 336 331 325
f 336 325 330
f 337 338 332
f 337 332 331
f 338 339 333
f 338 333 332
f 339 340 334
f 339 334 333
f 340 341 335
f 340 335 334
f 341 342 336
f 341 336 335
f 342 337 331
f 342 331 336
f 343 344 338
f 343 338 337
f 344 345 339
f 344 339 338
f 345 346 340
f 345 340 339
f 346 347 341
f 346 341 340
f 347 348 342
f 347 342 341
f 348 343 337
f 348 337 342
f 349 350 344
f 349 344 343
f 350 351 345
f 350 345 344
f 351 352 346
f 351 346 345
f 352 353 347
f 352 347 346
f 353 354 348
f 353 348 347
f 354 349 343
f 354 343 348
f 355 356 350
f 355 350 349
f 356 357 351
f 356 351 350
f 357 358 352
f 357 352 351
f 358 359 353
f 358 353 352
f 359 360 354
f 359 354 353
f 360 355 349
f 360 349 354
f 361 362 356
f 361 356 355
f 362 363 357
f 362 357 356
f 363 364 358
f 363 358 357
f 364 365 359
f 364 359 358
f 365 366 360
f 365 360 359
f 366 361 355
f 366 355 360
f 367 368 362
f 367 362 361
f 368 369 363
f 368 363 362
f 369 370 364
f 369 364 363
f 370 371 365
f 370 365 364
f 371 372 366
f 371 366 365
f 372 367 361
f 372 361 366
f 373 374 368
f 373 368 367
f 374 375 369
f 374 369 368
f 375 376 370
f 375 370 369
f 376 377 371
f 376 371 370
f 377 378 372
f 377 372 371
f 378 373 367
f 378 367 372
f 379 380 374
f 379 374 373
f 380 381 375
f 380 375 374
f 381 382 376
f 381 376 375
f 382 383 377
f 382 377 376
f 383 384 378
f 383 378 377
f 384 379 373
f 384 373 378
f 385 386 380
f 385 380 379
f 386 387 381
f 386 381 380
f 387 388 382
f 387 382 381
f 388 389 383
f 388 383 382
f 389 390 384
f 389 384 383
f 390 385 379
f 390 379 384
f 391 392 386
f 391 386 385
f 392 393 387
f 392 387 386
f 393 394 388
f 393 388 387
f 394 395 389
f 394 389 388
f 395 396 390
f 395 390 389
f 396 391 385
f 396 385 390
f 397 398 392
f 397 392 391
f 398 399 393
f 398 393 392
f 399 400 394
f 399 394 393
f 400 401 395
f 400 395 394
f 401 402 396
f 401 396 395
f 402 397 391
f 402 391 396
f 403 404 398
f 403 398 397
f 404 405 399
f 404 399 398
f 405 406 400
f 405 400 399
f 406 407 401
f 406 401 400
f 407 408 402
f 407 402 401
f 408 403 397
f 408 397 402
f 409 410 404
f 409 404 403
f 410 411 405
f 410 405 404
f 411 412 406
f 411 406 405
f 412 413 407
f 412 407 406
f 413 414 408
f 413 408 407
f 414 409 403
f 414 403 408
f 415 416 410
f 415 410 409
f 416 417 411
f 416 411 410
f 417 418 412
f 417 412 411
f 418 419 413
f 418 413 412
f 419 420 414
f 419 414 413
f 420 415 409
f 420 409 414
f 421 422 416
f 421 416 415
f 422 423 417
f 422 417 416
f 423 424 418
f 423 418 417
f 424 425 419
f 424 419 418
f 425 426 420
f 425 420 419
f 426 421 415
f 426 415 420
f 427 428 422
f 427 422 421
f 428 429 423
f 428 423 422
f 429 430 424
f 429 424 423
f 430 431 425
f 430 425 424
f 431 432 426
f 431 426 425
f 432 427 421
f 432 421 426
f 433 434 428
f 433 428 427
f 434 435 429
f 434 429 428
f 435 436 430
f 435 430 429
f 436 437 431
f 436 431 430
f 437 438 432
f 437 432 431
f 438 433 427
f 438 427 432
f 439 440 434
f 439 434 433
f 440 441 435
f 440 435 434
f 441 442 436
f 441 436 435
f 442 443 437
f 442 437 436
f 443 444 438
f 443 438 437
f 444 439 433
f 444 433 438
f 223 224 225
f 223 225 226
f 223 226 227
f 223 227 228
f 444 443 442
f 444 442 441
f 444 441 440
f 444 440 439
o FlightDeck
usemtl deck
v -0.21303206 0.21128351 -1.50652428
v 0.21303206 0.21128351 -1.50652428
v 0.24771170 0.21128351 -0.92236180
v 0.24771170 0.21128351 1.16832495
v 0.19816936 0.21128351 1.53726967
v -0.19816936 0.21128351 1.53726967
v -0.24771170 0.21128351 1.16832495
v -0.24771170 0.21128351 -0.92236180
v -0.21303206 0.22585479 -1.50652428
v 0.21303206 0.22585479 -1.50652428
v 0.24771170 0.22585479 -0.92236180
v 0.24771170 0.22585479 1.16832495
v 0.19816936 0.22585479 1.53726967
v -0.19816936 0.22585479 1.53726967
v -0.24771170 0.22585479 1.16832495
v -0.24771170 0.22585479 -0.92236180
f 452 445 446
f 452 446 447
f 452 447 448
f 452 448 449
f 452 449 450
f 450 451 452
f 454 453 460
f 455 454 460
f 456 455 460
f 457 456 460
f 458 457 460
f 460 459 458
f 445 453 454
f 445 454 446
f 446 454 455
f 446 455 447
f 447 455 456
f 447 456 448
f 448 456 457
f 448 457 449
f 449 457 458
f 449 458 450
f 450 458 459
f 450 459 451
f 451 459 460
f 451 460 452
f 452 460 453
f 452 453 445
o Island
usemtl island
v 0.14119567 0.22585479 -0.55341708
v 0.22046341 0.22585479 -0.55341708
v 0.22046341 0.34242500 -0.55341708
v 0.14119567 0.34242500 -0.55341708
v 0.14119567 0.22585479 0.06149079
v 0.22046341 0.22585479 0.06149079
v 0.22046341 0.34242500 0.06149079
v 0.14119567 0.34242500 0.06149079
f 461 464 463
f 461 463 462
f 465 466 467
f 465 467 468
f 461 462 466
f 461 466 465
f 464 468 467
f 464 467 463
f 461 465 468
f 461 468 464
f 462 463 467
f 462 467 466
o Bridge
usemtl island
v 0.13376432 0.34242500 -0.26133584
v 0.21303206 0.34242500 -0.26133584
v 0.21303206 0.40071010 -0.26133584
v 0.13376432 0.40071010 -0.26133584
v 0.13376432 0.34242500 -0.01537270
v 0.21303206 0.34242500 -0.01537270
v 0.21303206 0.40071010 -0.01537270
v 0.13376432 0.40071010 -0.01537270
f 469 472 471
f 469 471 470
f 473 474 475
f 473 475 476
f 469 470 474
f 469 474 473
f 472 476 475
f 472 475 471
f 469 473 476
f 469 476 472
f 470 471 475
f 470 475 474
o BridgeGlass
usemtl glass
v 0.13217605 0.35918197 -0.24596315
v 0.13436174 0.35918197 -0.24596315
v 0.13436174 0.38395314 -0.24596315
v 0.13217605 0.38395314 -0.24596315
v 0.13217605 0.35918197 -0.03074539
v 0.13436174 0.35918197 -0.03074539
v 0.13436174 0.38395314 -0.03074539
v 0.13217605 0.38395314 -0.03074539
f 477 480 479
f 477 479 478
f 481 482 483
f 481 483 484
f 477 478 482
f 477 482 481
f 480 484 483
f 480 483 479
f 477 481 484
f 477 484 480
f 478 479 483
f 478 483 482
o Mast
usemtl island
v 0.19248656 0.40071010 -0.30424825
v 0.19159923 0.40071010 -0.29978730
v 0.18907229 0.40071010 -0.29600550
v 0.18529049 0.40071010 -0.29347856
v 0.18082954 0.40071010 -0.29259123
v 0.17636859 0.40071010 -0.29347856
v 0.17258679 0.40071010 -0.29600550
v 0.17005985 0.40071010 -0.29978730
v 0.16917252 0.40071010 -0.30424825
v 0.17005985 0.40071010 -0.30870921
v 0.17258679 0.40071010 -0.31249101
v 0.17636859 0.40071010 -0.31501794
v 0.18082954 0.40071010 -0.31590527
v 0.18529049 0.40071010 -0.31501794
v 0.18907229 0.40071010 -0.31249101
v 0.19159923 0.40071010 -0.30870921
v 0.19248656 0.60470797 -0.30424825
v 0.19159923 0.60470797 -0.29978730
v 0.18907229 0.60470797 -0.29600550
v 0.18529049 0.60470797 -0.29347856
v 0.18082954 0.60470797 -0.29259123
v 0.17636859 0.60470797 -0.29347856
v 0.17258679 0.60470797 -0.29600550
v 0.17005985 0.60470797 -0.29978730
v 0.16917252 0.60470797 -0.30424825
v 0.17005985 0.60470797 -0.30870921
v 0.17258679 0.60470797 -0.31249101
v 0.17636859 0.60470797 -0.31501794
v 0.18082954 0.60470797 -0.31590527
v 0.18529049 0.60470797 -0.31501794
v 0.18907229 0.60470797 -0.31249101
v 0.19159923 0.60470797 -0.30870921
f 500 485 486
f 500 486 487
f 500 487 488
f 500 488 489
f 500 489 490
f 500 490 491
f 500 491 492
f 500 492 493
f 500 493 494
f 500 494 495
f 500 495 496
f 500 496 497
f 500 497 498
f 498 499 500
f 502 501 516
f 503 502 516
f 504 503 516
f 505 504 516
f 506 505 516
f 507 506 516
f 508 507 516
f 509 508 516
f 510 509 516
f 511 510 516
f 512 511 516
f 513 512 516
f 514 513 516
f 516 515 514
f 485 501 502
f 485 502 486
f 486 502 503
f 486 503 487
f 487 503 504
f 487 504 488
f 488 504 505
f 488 505 489
f 489 505 506
f 489 506 490
f 490 506 507
f 490 507 491
f 491 507 508
f 491 508 492
f 492 508 509
f 492 509 493
f 493 509 510
f 493 510 494
f 494 510 511
f 494 511 495
f 495 511 512
f 495 512 496
f 496 512 513
f 496 513 497
f 497 513 514
f 497 514 498
f 498 514 515
f 498 515 499
f 499 515 516
f 499 516 500
f 500 516 501
f 500 501 485
o Funnel
usemtl dark
v 0.16225116 0.26956862 -0.46886725
v 0.19940792 0.26956862 -0.46886725
v 0.19940792 0.41528138 -0.46886725
v 0.16225116 0.41528138 -0.46886725
v 0.16225116 0.26956862 -0.33051298
v 0.19940792 0.26956862 -0.33051298
v 0.19940792 0.41528138 -0.33051298
v 0.16225116 0.41528138 -0.33051298
f 517 520 519
f 517 519 518
f 521 522 523
f 521 523 524
f 517 518 522
f 517 522 521
f 520 524 523
f 520 523 519
f 517 521 524
f 517 524 520
f 518 519 523
f 518 523 522
o AirRadar
usemtl dark
v 0.14367279 0.59742234 -0.30934820
v 0.21798630 0.59742234 -0.30934820
v 0.21798630 0.64113617 -0.30934820
v 0.14367279 0.64113617 -0.30934820
v 0.14367279 0.59742234 -0.29914831
v 0.21798630 0.59742234 -0.29914831
v 0.21798630 0.64113617 -0.29914831
v 0.14367279 0.64113617 -0.29914831
f 525 528 527
f 525 527 526
f 529 530 531
f 529 531 532
f 525 526 530
f 525 530 529
f 528 532 531
f 528 531 527
f 525 529 532
f 525 532 528
f 526 527 531
f 526 531 530
o SurfaceRadar
usemtl dark
v 0.15605837 0.51072324 -0.12662439
v 0.20560071 0.51072324 -0.12662439
v 0.20560071 0.52383739 -0.12662439
v 0.15605837 0.52383739 -0.12662439
v 0.15605837 0.51072324 -0.11933875
v 0.20560071 0.51072324 -0.11933875
v 0.20560071 0.52383739 -0.11933875
v 0.15605837 0.52383739 -0.11933875
f 533 536 535
f 533 535 534
f 537 538 539
f 537 539 540
f 533 534 538
f 533 538 537
f 536 540 539
f 536 539 535
f 533 537 540
f 533 540 536
f 534 535 539
f 534 539 538
o Elevator_1
usemtl hull
v 0.12531298 0.22585479 0.61971639
v 0.27102574 0.22585479 0.61971639
v 0.27102574 0.22818619 0.61971639
v 0.12531298 0.22818619 0.61971639
v 0.12531298 0.22585479 0.79457171
v 0.27102574 0.22585479 0.79457171
v 0.27102574 0.22818619 0.79457171
v 0.12531298 0.22818619 0.79457171
f 541 544 543
f 541 543 542
f 545 546 547
f 545 547 548
f 541 542 546
f 541 546 545
f 544 548 547
f 544 547 543
f 541 545 548
f 541 548 544
f 542 543 547
f 542 547 546
o Elevator_2
usemtl hull
v 0.12531298 0.22585479 -0.64084474
v 0.27102574 0.22585479 -0.64084474
v 0.27102574 0.22818619 -0.64084474
v 0.12531298 0.22818619 -0.64084474
v 0.12531298 0.22585479 -0.46598942
v 0.27102574 0.22585479 -0.46598942
v 0.27102574 0.22818619 -0.46598942
v 0.12531298 0.22818619 -0.46598942
f 549 552 551
f 549 551 550
f 553 554 555
f 553 555 556
f 549 550 554
f 549 554 553
f 552 556 555
f 552 555 551
f 549 553 556
f 549 556 552
f 550 551 555
f 550 555 554
o Catapult_1
usemtl gold
v 0.06426003 0.22745763 0.73797350
v 0.07591705 0.22745763 1.44511755
v 0.08611554 0.22745763 1.44494943
v 0.07445852 0.22745763 0.73780538
v 0.06426003 0.22804048 0.73797350
v 0.07591705 0.22804048 1.44511755
v 0.08611554 0.22804048 1.44494943
v 0.07445852 0.22804048 0.73780538
f 557 560 559
f 559 558 557
f 563 564 561
f 561 562 563
f 558 562 561
f 558 561 557
f 559 563 562
f 559 562 558
f 560 564 563
f 560 563 559
f 557 561 564
f 557 564 560
o LandingEdge_-1
usemtl white
v -0.10382035 0.22760334 -1.38354270
v -0.10382035 0.22760334 1.35279731
v -0.10017753 0.22760334 1.35279731
v -0.10017753 0.22760334 -1.38354270
v -0.10382035 0.22818619 -1.38354270
v -0.10382035 0.22818619 1.35279731
v -0.10017753 0.22818619 1.35279731
v -0.10017753 0.22818619 -1.38354270
f 565 568 567
f 567 566 565
f 571 572 569
f 569 570 571
f 566 570 569
f 566 569 565
f 567 571 570
f 567 570 566
f 568 572 571
f 568 571 567
f 565 569 572
f 565 572 568
o LandingEdge_1
usemtl white
v 0.10017753 0.22760334 -1.38354270
v 0.10017753 0.22760334 1.35279731
v 0.10382035 0.22760334 1.35279731
v 0.10382035 0.22760334 -1.38354270
v 0.10017753 0.22818619 -1.38354270
v 0.10017753 0.22818619 1.35279731
v 0.10382035 0.22818619 1.35279731
v 0.10382035 0.22818619 -1.38354270
f 573 576 575
f 575 574 573
f 579 580 577
f 577 578 579
f 574 578 577
f 574 577 573
f 575 579 578
f 575 578 574
f 576 580 579
f 576 579 575
f 573 577 580
f 573 580 576
o Centreline_0
usemtl white
v -0.00254997 0.22774905 -1.38354270
v -0.00254997 0.22774905 -1.29558892
v 0.00254997 0.22774905 -1.29558892
v 0.00254997 0.22774905 -1.38354270
v -0.00254997 0.22833190 -1.38354270
v -0.00254997 0.22833190 -1.29558892
v 0.00254997 0.22833190 -1.29558892
v 0.00254997 0.22833190 -1.38354270
f 581 584 583
f 583 582 581
f 587 588 585
f 585 586 587
f 582 586 585
f 582 585 581
f 583 587 586
f 583 586 582
f 584 588 587
f 584 587 583
f 581 585 588
f 581 588 584
o Centreline_1
usemtl white
v -0.00254997 0.22774905 -1.18808985
v -0.00254997 0.22774905 -1.10013605
v 0.00254997 0.22774905 -1.10013605
v 0.00254997 0.22774905 -1.18808985
v -0.00254997 0.22833190 -1.18808985
v -0.00254997 0.22833190 -1.10013605
v 0.00254997 0.22833190 -1.10013605
v 0.00254997 0.22833190 -1.18808985
f 589 592 591
f 591 590 589
f 595 596 593
f 593 594 595
f 590 594 593
f 590 593 589
f 591 595 594
f 591 594 590
f 592 596 595
f 592 595 591
f 589 593 596
f 589 596 592
o Centreline_2
usemtl white
v -0.00254997 0.22774905 -0.99263699
v -0.00254997 0.22774905 -0.90468320
v 0.00254997 0.22774905 -0.90468320
v 0.00254997 0.22774905 -0.99263699
v -0.00254997 0.22833190 -0.99263699
v -0.00254997 0.22833190 -0.90468320
v 0.00254997 0.22833190 -0.90468320
v 0.00254997 0.22833190 -0.99263699
f 597 600 599
f 599 598 597
f 603 604 601
f 601 602 603
f 598 602 601
f 598 601 597
f 599 603 602
f 599 602 598
f 600 604 603
f 600 603 599
f 597 601 604
f 597 604 600
o Centreline_3
usemtl white
v -0.00254997 0.22774905 -0.79718413
v -0.00254997 0.22774905 -0.70923035
v 0.00254997 0.22774905 -0.70923035
v 0.00254997 0.22774905 -0.79718413
v -0.00254997 0.22833190 -0.79718413
v -0.00254997 0.22833190 -0.70923035
v 0.00254997 0.22833190 -0.70923035
v 0.00254997 0.22833190 -0.79718413
f 605 608 607
f 607 606 605
f 611 612 609
f 609 610 611
f 606 610 609
f 606 609 605
f 607 611 610
f 607 610 606
f 608 612 611
f 608 611 607
f 605 609 612
f 605 612 608
o Centreline_4
usemtl white
v -0.00254997 0.22774905 -0.60173127
v -0.00254997 0.22774905 -0.51377748
v 0.00254997 0.22774905 -0.51377748
v 0.00254997 0.22774905 -0.60173127
v -0.00254997 0.22833190 -0.60173127
v -0.00254997 0.22833190 -0.51377748
v 0.00254997 0.22833190 -0.51377748
v 0.00254997 0.22833190 -0.60173127
f 613 616 615
f 615 614 613
f 619 620 617
f 617 618 619
f 614 618 617
f 614 617 613
f 615 619 618
f 615 618 614
f 616 620 619
f 616 619 615
f 613 617 620
f 613 620 616
o Centreline_5
usemtl white
v -0.00254997 0.22774905 -0.40627842
v -0.00254997 0.22774905 -0.31832463
v 0.00254997 0.22774905 -0.31832463
v 0.00254997 0.22774905 -0.40627842
v -0.00254997 0.22833190 -0.40627842
v -0.00254997 0.22833190 -0.31832463
v 0.00254997 0.22833190 -0.31832463
v 0.00254997 0.22833190 -0.40627842
f 621 624 623
f 623 622 621
f 627 628 625
f 625 626 627
f 622 626 625
f 622 625 621
f 623 627 626
f 623 626 622
f 624 628 627
f 624 627 623
f 621 625 628
f 621 628 624
o Centreline_6
usemtl white
v -0.00254997 0.22774905 -0.21082555
v -0.00254997 0.22774905 -0.12287176
v 0.00254997 0.22774905 -0.12287176
v 0.00254997 0.22774905 -0.21082555
v -0.00254997 0.22833190 -0.21082555
v -0.00254997 0.22833190 -0.12287176
v 0.00254997 0.22833190 -0.12287176
v 0.00254997 0.22833190 -0.21082555
f 629 632 631
f 631 630 629
f 635 636 633
f 633 634 635
f 630 634 633
f 630 633 629
f 631 635 634
f 631 634 630
f 632 636 635
f 632 635 631
f 629 633 636
f 629 636 632
o Centreline_7
usemtl white
v -0.00254997 0.22774905 -0.01537270
v -0.00254997 0.22774905 0.07258109
v 0.00254997 0.22774905 0.07258109
v 0.00254997 0.22774905 -0.01537270
v -0.00254997 0.22833190 -0.01537270
v -0.00254997 0.22833190 0.07258109
v 0.00254997 0.22833190 0.07258109
v 0.00254997 0.22833190 -0.01537270
f 637 640 639
f 639 638 637
f 643 644 641
f 641 642 643
f 638 642 641
f 638 641 637
f 639 643 642
f 639 642 638
f 640 644 643
f 640 643 639
f 637 641 644
f 637 644 640
o Centreline_8
usemtl white
v -0.00254997 0.22774905 0.18008016
v -0.00254997 0.22774905 0.26803395
v 0.00254997 0.22774905 0.26803395
v 0.00254997 0.22774905 0.18008016
v -0.00254997 0.22833190 0.18008016
v -0.00254997 0.22833190 0.26803395
v 0.00254997 0.22833190 0.26803395
v 0.00254997 0.22833190 0.18008016
f 645 648 647
f 647 646 645
f 651 652 649
f 649 650 651
f 646 650 649
f 646 649 645
f 647 651 650
f 647 650 646
f 648 652 651
f 648 651 647
f 645 649 652
f 645 652 648
o Centreline_9
usemtl white
v -0.00254997 0.22774905 0.37553302
v -0.00254997 0.22774905 0.46348681
v 0.00254997 0.22774905 0.46348681
v 0.00254997 0.22774905 0.37553302
v -0.00254997 0.22833190 0.37553302
v -0.00254997 0.22833190 0.46348681
v 0.00254997 0.22833190 0.46348681
v 0.00254997 0.22833190 0.37553302
f 653 656 655
f 655 654 653
f 659 660 657
f 657 658 659
f 654 658 657
f 654 657 653
f 655 659 658
f 655 658 654
f 656 660 659
f 656 659 655
f 653 657 660
f 653 660 656
o Centreline_10
usemtl white
v -0.00254997 0.22774905 0.57098587
v -0.00254997 0.22774905 0.65893966
v 0.00254997 0.22774905 0.65893966
v 0.00254997 0.22774905 0.57098587
v -0.00254997 0.22833190 0.57098587
v -0.00254997 0.22833190 0.65893966
v 0.00254997 0.22833190 0.65893966
v 0.00254997 0.22833190 0.57098587
f 661 664 663
f 663 662 661
f 667 668 665
f 665 666 667
f 662 666 665
f 662 665 661
f 663 667 666
f 663 666 662
f 664 668 667
f 664 667 663
f 661 665 668
f 661 668 664
o Centreline_11
usemtl white
v -0.00254997 0.22774905 0.76643874
v -0.00254997 0.22774905 0.85439252
v 0.00254997 0.22774905 0.85439252
v 0.00254997 0.22774905 0.76643874
v -0.00254997 0.22833190 0.76643874
v -0.00254997 0.22833190 0.85439252
v 0.00254997 0.22833190 0.85439252
v 0.00254997 0.22833190 0.76643874
f 669 672 671
f 671 670 669
f 675 676 673
f 673 674 675
f 670 674 673
f 670 673 669
f 671 675 674
f 671 674 670
f 672 676 675
f 672 675 671
f 669 673 676
f 669 676 672
o Centreline_12
usemtl white
v -0.00254997 0.22774905 0.96189159
v -0.00254997 0.22774905 1.04984538
v 0.00254997 0.22774905 1.04984538
v 0.00254997 0.22774905 0.96189159
v -0.00254997 0.22833190 0.96189159
v -0.00254997 0.22833190 1.04984538
v 0.00254997 0.22833190 1.04984538
v 0.00254997 0.22833190 0.96189159
f 677 680 679
f 679 678 677
f 683 684 681
f 681 682 683
f 678 682 681
f 678 681 677
f 679 683 682
f 679 682 678
f 680 684 683
f 680 683 679
f 677 681 684
f 677 684 680
o Centreline_13
usemtl white
v -0.00254997 0.22774905 1.15734446
v -0.00254997 0.22774905 1.24529824
v 0.00254997 0.22774905 1.24529824
v 0.00254997 0.22774905 1.15734446
v -0.00254997 0.22833190 1.15734446
v -0.00254997 0.22833190 1.24529824
v 0.00254997 0.22833190 1.24529824
v 0.00254997 0.22833190 1.15734446
f 685 688 687
f 687 686 685
f 691 692 689
f 689 690 691
f 686 690 689
f 686 689 685
f 687 691 690
f 687 690 686
f 688 692 691
f 688 691 687
f 685 689 692
f 685 692 688
o Sponson_1
usemtl hull
v -0.27423142 0.19816936 0.80987155
v -0.20137504 0.19816936 0.80987155
v -0.20137504 0.21856915 0.80987155
v -0.27423142 0.21856915 0.80987155
v -0.27423142 0.19816936 0.91187048
v -0.20137504 0.19816936 0.91187048
v -0.20137504 0.21856915 0.91187048
v -0.27423142 0.21856915 0.91187048
f 693 696 695
f 693 695 694
f 697 698 699
f 697 699 700
f 693 694 698
f 693 698 697
f 696 700 699
f 696 699 695
f 693 697 700
f 693 700 696
f 694 695 699
f 694 699 698
o AA_Base_1
usemtl island
v -0.22031770 0.21856915 0.86087102
v -0.22164871 0.21856915 0.86756244
v -0.22543910 0.21856915 0.87323515
v -0.23111181 0.21856915 0.87702553
v -0.23780323 0.21856915 0.87835655
v -0.24449465 0.21856915 0.87702553
v -0.25016737 0.21856915 0.87323515
v -0.25395775 0.21856915 0.86756244
v -0.25528876 0.21856915 0.86087102
v -0.25395775 0.21856915 0.85417959
v -0.25016737 0.21856915 0.84850688
v -0.24449465 0.21856915 0.84471650
v -0.23780323 0.21856915 0.84338548
v -0.23111181 0.21856915 0.84471650
v -0.22543910 0.21856915 0.84850688
v -0.22164871 0.21856915 0.85417959
v -0.22031770 0.24771170 0.86087102
v -0.22164871 0.24771170 0.86756244
v -0.22543910 0.24771170 0.87323515
v -0.23111181 0.24771170 0.87702553
v -0.23780323 0.24771170 0.87835655
v -0.24449465 0.24771170 0.87702553
v -0.25016737 0.24771170 0.87323515
v -0.25395775 0.24771170 0.86756244
v -0.25528876 0.24771170 0.86087102
v -0.25395775 0.24771170 0.85417959
v -0.25016737 0.24771170 0.84850688
v -0.24449465 0.24771170 0.84471650
v -0.23780323 0.24771170 0.84338548
v -0.23111181 0.24771170 0.84471650
v -0.22543910 0.24771170 0.84850688
v -0.22164871 0.24771170 0.85417959
f 716 701 702
f 716 702 703
f 716 703 704
f 716 704 705
f 716 705 706
f 716 706 707
f 716 707 708
f 716 708 709
f 716 709 710
f 716 710 711
f 716 711 712
f 716 712 713
f 716 713 714
f 714 715 716
f 718 717 732
f 719 718 732
f 720 719 732
f 721 720 732
f 722 721 732
f 723 722 732
f 724 723 732
f 725 724 732
f 726 725 732
f 727 726 732
f 728 727 732
f 729 728 732
f 730 729 732
f 732 731 730
f 701 717 718
f 701 718 702
f 702 718 719
f 702 719 703
f 703 719 720
f 703 720 704
f 704 720 721
f 704 721 705
f 705 721 722
f 705 722 706
f 706 722 723
f 706 723 707
f 707 723 724
f 707 724 708
f 708 724 725
f 708 725 709
f 709 725 726
f 709 726 710
f 710 726 727
f 710 727 711
f 711 727 728
f 711 728 712
f 712 728 729
f 712 729 713
f 713 729 730
f 713 730 714
f 714 730 731
f 714 731 715
f 715 731 732
f 715 732 716
f 716 732 717
f 716 717 701
o AA_Gun_1_-1
usemtl dark
v -0.24399602 0.24151891 0.83901410
v -0.24035321 0.24151891 0.83901410
v -0.24035321 0.24516173 0.83901410
v -0.24399602 0.24516173 0.83901410
v -0.24399602 0.24151891 0.88272793
v -0.24035321 0.24151891 0.88272793
v -0.24035321 0.24516173 0.88272793
v -0.24399602 0.24516173 0.88272793
f 733 736 735
f 733 735 734
f 737 738 739
f 737 739 740
f 733 734 738
f 733 738 737
f 736 740 739
f 736 739 735
f 733 737 740
f 733 740 736
f 734 735 739
f 734 739 738
o AA_Gun_1_1
usemtl dark
v -0.23525326 0.24151891 0.83901410
v -0.23161044 0.24151891 0.83901410
v -0.23161044 0.24516173 0.83901410
v -0.23525326 0.24516173 0.83901410
v -0.23525326 0.24151891 0.88272793
v -0.23161044 0.24151891 0.88272793
v -0.23161044 0.24516173 0.88272793
v -0.23525326 0.24516173 0.88272793
f 741 744 743
f 741 743 742
f 745 746 747
f 745 747 748
f 741 742 746
f 741 746 745
f 744 748 747
f 744 747 743
f 741 745 748
f 741 748 744
f 742 743 747
f 742 747 746
o Sponson_2
usemtl hull
v 0.19146657 0.19816936 0.80987155
v 0.26432296 0.19816936 0.80987155
v 0.26432296 0.21856915 0.80987155
v 0.19146657 0.21856915 0.80987155
v 0.19146657 0.19816936 0.91187048
v 0.26432296 0.19816936 0.91187048
v 0.26432296 0.21856915 0.91187048
v 0.19146657 0.21856915 0.91187048
f 749 752 751
f 749 751 750
f 753 754 755
f 753 755 756
f 749 750 754
f 749 754 753
f 752 756 755
f 752 755 751
f 749 753 756
f 749 756 752
f 750 751 755
f 750 755 754
o AA_Base_2
usemtl island
v 0.24538030 0.21856915 0.86087102
v 0.24404928 0.21856915 0.86756244
v 0.24025890 0.21856915 0.87323515
v 0.23458619 0.21856915 0.87702553
v 0.22789476 0.21856915 0.87835655
v 0.22120334 0.21856915 0.87702553
v 0.21553063 0.21856915 0.87323515
v 0.21174025 0.21856915 0.86756244
v 0.21040923 0.21856915 0.86087102
v 0.21174025 0.21856915 0.85417959
v 0.21553063 0.21856915 0.84850688
v 0.22120334 0.21856915 0.84471650
v 0.22789476 0.21856915 0.84338548
v 0.23458619 0.21856915 0.84471650
v 0.24025890 0.21856915 0.84850688
v 0.24404928 0.21856915 0.85417959
v 0.24538030 0.24771170 0.86087102
v 0.24404928 0.24771170 0.86756244
v 0.24025890 0.24771170 0.87323515
v 0.23458619 0.24771170 0.87702553
v 0.22789476 0.24771170 0.87835655
v 0.22120334 0.24771170 0.87702553
v 0.21553063 0.24771170 0.87323515
v 0.21174025 0.24771170 0.86756244
v 0.21040923 0.24771170 0.86087102
v 0.21174025 0.24771170 0.85417959
v 0.21553063 0.24771170 0.84850688
v 0.22120334 0.24771170 0.84471650
v 0.22789476 0.24771170 0.84338548
v 0.23458619 0.24771170 0.84471650
v 0.24025890 0.24771170 0.84850688
v 0.24404928 0.24771170 0.85417959
f 772 757 758
f 772 758 759
f 772 759 760
f 772 760 761
f 772 761 762
f 772 762 763
f 772 763 764
f 772 764 765
f 772 765 766
f 772 766 767
f 772 767 768
f 772 768 769
f 772 769 770
f 770 771 772
f 774 773 788
f 775 774 788
f 776 775 788
f 777 776 788
f 778 777 788
f 779 778 788
f 780 779 788
f 781 780 788
f 782 781 788
f 783 782 788
f 784 783 788
f 785 784 788
f 786 785 788
f 788 787 786
f 757 773 774
f 757 774 758
f 758 774 775
f 758 775 759
f 759 775 776
f 759 776 760
f 760 776 777
f 760 777 761
f 761 777 778
f 761 778 762
f 762 778 779
f 762 779 763
f 763 779 780
f 763 780 764
f 764 780 781
f 764 781 765
f 765 781 782
f 765 782 766
f 766 782 783
f 766 783 767
f 767 783 784
f 767 784 768
f 768 784 785
f 768 785 769
f 769 785 786
f 769 786 770
f 770 786 787
f 770 787 771
f 771 787 788
f 771 788 772
f 772 788 773
f 772 773 757
o AA_Gun_2_-1
usemtl dark
v 0.22170197 0.24151891 0.83901410
v 0.22534479 0.24151891 0.83901410
v 0.22534479 0.24516173 0.83901410
v 0.22170197 0.24516173 0.83901410
v 0.22170197 0.24151891 0.88272793
v 0.22534479 0.24151891 0.88272793
v 0.22534479 0.24516173 0.88272793
v 0.22170197 0.24516173 0.88272793
f 789 792 791
f 789 791 790
f 793 794 795
f 793 795 796
f 789 790 794
f 789 794 793
f 792 796 795
f 792 795 791
f 789 793 796
f 789 796 792
f 790 791 795
f 790 795 794
o AA_Gun_2_1
usemtl dark
v 0.23044474 0.24151891 0.83901410
v 0.23408756 0.24151891 0.83901410
v 0.23408756 0.24516173 0.83901410
v 0.23044474 0.24516173 0.83901410
v 0.23044474 0.24151891 0.88272793
v 0.23408756 0.24151891 0.88272793
v 0.23408756 0.24516173 0.88272793
v 0.23044474 0.24516173 0.88272793
f 797 800 799
f 797 799 798
f 801 802 803
f 801 803 804
f 797 798 802
f 797 802 801
f 800 804 803
f 800 803 799
f 797 801 804
f 797 804 800
f 798 799 803
f 798 803 802
o Sponson_3
usemtl hull
v -0.25441449 0.19816936 -1.28081520
v -0.18155811 0.19816936 -1.28081520
v -0.18155811 0.21856915 -1.28081520
v -0.25441449 0.21856915 -1.28081520
v -0.25441449 0.19816936 -1.17881627
v -0.18155811 0.19816936 -1.17881627
v -0.18155811 0.21856915 -1.17881627
v -0.25441449 0.21856915 -1.17881627
f 805 808 807
f 805 807 806
f 809 810 811
f 809 811 812
f 805 806 810
f 805 810 809
f 808 812 811
f 808 811 807
f 805 809 812
f 805 812 808
f 806 807 811
f 806 811 810
o AA_Base_3
usemtl island
v -0.20050076 0.21856915 -1.22981574
v -0.20183178 0.21856915 -1.22312431
v -0.20562216 0.21856915 -1.21745160
v -0.21129487 0.21856915 -1.21366122
v -0.21798630 0.21856915 -1.21233020
v -0.22467772 0.21856915 -1.21366122
v -0.23035043 0.21856915 -1.21745160
v -0.23414081 0.21856915 -1.22312431
v -0.23547183 0.21856915 -1.22981574
v -0.23414081 0.21856915 -1.23650716
v -0.23035043 0.21856915 -1.24217987
v -0.22467772 0.21856915 -1.24597025
v -0.21798630 0.21856915 -1.24730127
v -0.21129487 0.21856915 -1.24597025
v -0.20562216 0.21856915 -1.24217987
v -0.20183178 0.21856915 -1.23650716
v -0.20050076 0.24771170 -1.22981574
v -0.20183178 0.24771170 -1.22312431
v -0.20562216 0.24771170 -1.21745160
v -0.21129487 0.24771170 -1.21366122
v -0.21798630 0.24771170 -1.21233020
v -0.22467772 0.24771170 -1.21366122
v -0.23035043 0.24771170 -1.21745160
v -0.23414081 0.24771170 -1.22312431
v -0.23547183 0.24771170 -1.22981574
v -0.23414081 0.24771170 -1.23650716
v -0.23035043 0.24771170 -1.24217987
v -0.22467772 0.24771170 -1.24597025
v -0.21798630 0.24771170 -1.24730127
v -0.21129487 0.24771170 -1.24597025
v -0.20562216 0.24771170 -1.24217987
v -0.20183178 0.24771170 -1.23650716
f 828 813 814
f 828 814 815
f 828 815 816
f 828 816 817
f 828 817 818
f 828 818 819
f 828 819 820
f 828 820 821
f 828 821 822
f 828 822 823
f 828 823 824
f 828 824 825
f 828 825 826
f 826 827 828
f 830 829 844
f 831 830 844
f 832 831 844
f 833 832 844
f 834 833 844
f 835 834 844
f 836 835 844
f 837 836 844
f 838 837 844
f 839 838 844
f 840 839 844
f 841 840 844
f 842 841 844
f 844 843 842
f 813 829 830
f 813 830 814
f 814 830 831
f 814 831 815
f 815 831 832
f 815 832 816
f 816 832 833
f 816 833 817
f 817 833 834
f 817 834 818
f 818 834 835
f 818 835 819
f 819 835 836
f 819 836 820
f 820 836 837
f 820 837 821
f 821 837 838
f 821 838 822
f 822 838 839
f 822 839 823
f 823 839 840
f 823 840 824
f 824 840 841
f 824 841 825
f 825 841 842
f 825 842 826
f 826 842 843
f 826 843 827
f 827 843 844
f 827 844 828
f 828 844 829
f 828 829 813
o AA_Gun_3_-1
usemtl dark
v -0.22417909 0.24151891 -1.25167265
v -0.22053627 0.24151891 -1.25167265
v -0.22053627 0.24516173 -1.25167265
v -0.22417909 0.24516173 -1.25167265
v -0.22417909 0.24151891 -1.20795882
v -0.22053627 0.24151891 -1.20795882
v -0.22053627 0.24516173 -1.20795882
v -0.22417909 0.24516173 -1.20795882
f 845 848 847
f 845 847 846
f 849 850 851
f 849 851 852
f 845 846 850
f 845 850 849
f 848 852 851
f 848 851 847
f 845 849 852
f 845 852 848
f 846 847 851
f 846 851 850
o AA_Gun_3_1
usemtl dark
v -0.21543632 0.24151891 -1.25167265
v -0.21179350 0.24151891 -1.25167265
v -0.21179350 0.24516173 -1.25167265
v -0.21543632 0.24516173 -1.25167265
v -0.21543632 0.24151891 -1.20795882
v -0.21179350 0.24151891 -1.20795882
v -0.21179350 0.24516173 -1.20795882
v -0.21543632 0.24516173 -1.20795882
f 853 856 855
f 853 855 854
f 857 858 859
f 857 859 860
f 853 854 858
f 853 858 857
f 856 860 859
f 856 859 855
f 853 857 860
f 853 860 856
f 854 855 859
f 854 859 858
o Sponson_4
usemtl hull
v 0.17660387 0.19816936 -1.28081520
v 0.24946025 0.19816936 -1.28081520
v 0.24946025 0.21856915 -1.28081520
v 0.17660387 0.21856915 -1.28081520
v 0.17660387 0.19816936 -1.17881627
v 0.24946025 0.19816936 -1.17881627
v 0.24946025 0.21856915 -1.17881627
v 0.17660387 0.21856915 -1.17881627
f 861 864 863
f 861 863 862
f 865 866 867
f 865 867 868
f 861 862 866
f 861 866 865
f 864 868 867
f 864 867 863
f 861 865 868
f 861 868 864
f 862 863 867
f 862 867 866
o AA_Base_4
usemtl island
v 0.23051759 0.21856915 -1.22981574
v 0.22918658 0.21856915 -1.22312431
v 0.22539620 0.21856915 -1.21745160
v 0.21972348 0.21856915 -1.21366122
v 0.21303206 0.21856915 -1.21233020
v 0.20634064 0.21856915 -1.21366122
v 0.20066793 0.21856915 -1.21745160
v 0.19687754 0.21856915 -1.22312431
v 0.19554653 0.21856915 -1.22981574
v 0.19687754 0.21856915 -1.23650716
v 0.20066793 0.21856915 -1.24217987
v 0.20634064 0.21856915 -1.24597025
v 0.21303206 0.21856915 -1.24730127
v 0.21972348 0.21856915 -1.24597025
v 0.22539620 0.21856915 -1.24217987
v 0.22918658 0.21856915 -1.23650716
v 0.23051759 0.24771170 -1.22981574
v 0.22918658 0.24771170 -1.22312431
v 0.22539620 0.24771170 -1.21745160
v 0.21972348 0.24771170 -1.21366122
v 0.21303206 0.24771170 -1.21233020
v 0.20634064 0.24771170 -1.21366122
v 0.20066793 0.24771170 -1.21745160
v 0.19687754 0.24771170 -1.22312431
v 0.19554653 0.24771170 -1.22981574
v 0.19687754 0.24771170 -1.23650716
v 0.20066793 0.24771170 -1.24217987
v 0.20634064 0.24771170 -1.24597025
v 0.21303206 0.24771170 -1.24730127
v 0.21972348 0.24771170 -1.24597025
v 0.22539620 0.24771170 -1.24217987
v 0.22918658 0.24771170 -1.23650716
f 884 869 870
f 884 870 871
f 884 871 872
f 884 872 873
f 884 873 874
f 884 874 875
f 884 875 876
f 884 876 877
f 884 877 878
f 884 878 879
f 884 879 880
f 884 880 881
f 884 881 882
f 882 883 884
f 886 885 900
f 887 886 900
f 888 887 900
f 889 888 900
f 890 889 900
f 891 890 900
f 892 891 900
f 893 892 900
f 894 893 900
f 895 894 900
f 896 895 900
f 897 896 900
f 898 897 900
f 900 899 898
f 869 885 886
f 869 886 870
f 870 886 887
f 870 887 871
f 871 887 888
f 871 888 872
f 872 888 889
f 872 889 873
f 873 889 890
f 873 890 874
f 874 890 891
f 874 891 875
f 875 891 892
f 875 892 876
f 876 892 893
f 876 893 877
f 877 893 894
f 877 894 878
f 878 894 895
f 878 895 879
f 879 895 896
f 879 896 880
f 880 896 897
f 880 897 881
f 881 897 898
f 881 898 882
f 882 898 899
f 882 899 883
f 883 899 900
f 883 900 884
f 884 900 885
f 884 885 869
o AA_Gun_4_-1
usemtl dark
v 0.20683927 0.24151891 -1.25167265
v 0.21048209 0.24151891 -1.25167265
v 0.21048209 0.24516173 -1.25167265
v 0.20683927 0.24516173 -1.25167265
v 0.20683927 0.24151891 -1.20795882
v 0.21048209 0.24151891 -1.20795882
v 0.21048209 0.24516173 -1.20795882
v 0.20683927 0.24516173 -1.20795882
f 901 904 903
f 901 903 902
f 905 906 907
f 905 907 908
f 901 902 906
f 901 906 905
f 904 908 907
f 904 907 903
f 901 905 908
f 901 908 904
f 902 903 907
f 902 907 906
o AA_Gun_4_1
usemtl dark
v 0.21558204 0.24151891 -1.25167265
v 0.21922485 0.24151891 -1.25167265
v 0.21922485 0.24516173 -1.25167265
v 0.21558204 0.24516173 -1.25167265
v 0.21558204 0.24151891 -1.20795882
v 0.21922485 0.24151891 -1.20795882
v 0.21922485 0.24516173 -1.20795882
v 0.21558204 0.24516173 -1.20795882
f 909 912 911
f 909 911 910
f 913 914 915
f 913 915 916
f 909 910 914
f 909 914 913
f 912 916 915
f 912 915 911
f 909 913 916
f 909 916 912
f 910 911 915
f 910 915 914
o SonarDome
usemtl dark
v 0.02185691 -0.13114149 1.16832495
v 0.02019315 -0.13114149 1.17668923
v 0.01545517 -0.13114149 1.18378012
v 0.00836428 -0.13114149 1.18851810
v 0.00000000 -0.13114149 1.19018186
v -0.00836428 -0.13114149 1.18851810
v -0.01545517 -0.13114149 1.18378012
v -0.02019315 -0.13114149 1.17668923
v -0.02185691 -0.13114149 1.16832495
v -0.02019315 -0.13114149 1.15996067
v -0.01545517 -0.13114149 1.15286978
v -0.00836428 -0.13114149 1.14813180
v -0.00000000 -0.13114149 1.14646803
v 0.00836428 -0.13114149 1.14813180
v 0.01545517 -0.13114149 1.15286978
v 0.02019315 -0.13114149 1.15996067
v 0.02185691 -0.10199894 1.16832495
v 0.02019315 -0.10199894 1.17668923
v 0.01545517 -0.10199894 1.18378012
v 0.00836428 -0.10199894 1.18851810
v 0.00000000 -0.10199894 1.19018186
v -0.00836428 -0.10199894 1.18851810
v -0.01545517 -0.10199894 1.18378012
v -0.02019315 -0.10199894 1.17668923
v -0.02185691 -0.10199894 1.16832495
v -0.02019315 -0.10199894 1.15996067
v -0.01545517 -0.10199894 1.15286978
v -0.00836428 -0.10199894 1.14813180
v -0.00000000 -0.10199894 1.14646803
v 0.00836428 -0.10199894 1.14813180
v 0.01545517 -0.10199894 1.15286978
v 0.02019315 -0.10199894 1.15996067
f 932 917 918
f 932 918 919
f 932 919 920
f 932 920 921
f 932 921 922
f 932 922 923
f 932 923 924
f 932 924 925
f 932 925 926
f 932 926 927
f 932 927 928
f 932 928 929
f 932 929 930
f 930 931 932
f 934 933 948
f 935 934 948
f 936 935 948
f 937 936 948
f 938 937 948
f 939 938 948
f 940 939 948
f 941 940 948
f 942 941 948
f 943 942 948
f 944 943 948
f 945 944 948
f 946 945 948
f 948 947 946
f 917 933 934
f 917 934 918
f 918 934 935
f 918 935 919
f 919 935 936
f 919 936 920
f 920 936 937
f 920 937 921
f 921 937 938
f 921 938 922
f 922 938 939
f 922 939 923
f 923 939 940
f 923 940 924
f 924 940 941
f 924 941 925
f 925 941 942
f 925 942 926
f 926 942 943
f 926 943 927
f 927 943 944
f 927 944 928
f 928 944 945
f 928 945 929
f 929 945 946
f 929 946 930
f 930 946 947
f 930 947 931
f 931 947 948
f 931 948 932
f 932 948 933
f 932 933 917
o NoisemakerPort
usemtl dark
v -0.09070620 0.15736979 -1.39811398
v -0.07030641 0.15736979 -1.39811398
v -0.07030641 0.17776957 -1.39811398
v -0.09070620 0.17776957 -1.39811398
v -0.09070620 0.15736979 -1.36897143
v -0.07030641 0.15736979 -1.36897143
v -0.07030641 0.17776957 -1.36897143
v -0.09070620 0.17776957 -1.36897143
f 949 952 951
f 949 951 950
f 953 954 955
f 953 955 956
f 949 950 954
f 949 954 953
f 952 956 955
f 952 955 951
f 949 953 956
f 949 956 952
f 950 951 955
f 950 955 954
o NoisemakerStarboard
usemtl dark
v 0.07030641 0.15736979 -1.39811398
v 0.09070620 0.15736979 -1.39811398
v 0.09070620 0.17776957 -1.39811398
v 0.07030641 0.17776957 -1.39811398
v 0.07030641 0.15736979 -1.36897143
v 0.09070620 0.15736979 -1.36897143
v 0.09070620 0.17776957 -1.36897143
v 0.07030641 0.17776957 -1.36897143
f 957 960 959
f 957 959 958
f 961 962 963
f 961 963 964
f 957 958 962
f 957 962 961
f 960 964 963
f 960 963 959
f 957 961 964
f 957 964 960
f 958 959 963
f 958 963 962
