# RAN Carrier Restart: original model study; coordinates in metres
mtllib ran_cvn_southern_cross_2002.mtl
o Hull
usemtl hull
v -15.591780 0.000000 -172.800000
v -16.074000 3.000000 -172.800000
v -15.913260 18.700000 -172.800000
v 15.913260 18.700000 -172.800000
v 16.074000 3.000000 -172.800000
v 15.591780 0.000000 -172.800000
v -15.969491 0.000000 -163.050000
v -16.463392 3.000000 -163.050000
v -16.298759 18.700000 -163.050000
v 16.298759 18.700000 -163.050000
v 16.463392 3.000000 -163.050000
v 15.969491 0.000000 -163.050000
v -16.345734 0.000000 -153.300000
v -16.851272 3.000000 -153.300000
v -16.682760 18.700000 -153.300000
v 16.682760 18.700000 -153.300000
v 16.851272 3.000000 -153.300000
v 16.345734 0.000000 -153.300000
v -16.719049 0.000000 -143.550000
v -17.236133 3.000000 -143.550000
v -17.063772 18.700000 -143.550000
v 17.063772 18.700000 -143.550000
v 17.236133 3.000000 -143.550000
v 16.719049 0.000000 -143.550000
v -17.087986 0.000000 -133.800000
v -17.616480 3.000000 -133.800000
v -17.440316 18.700000 -133.800000
v 17.440316 18.700000 -133.800000
v 17.616480 3.000000 -133.800000
v 17.087986 0.000000 -133.800000
v -17.451111 0.000000 -124.050000
v -17.990836 3.000000 -124.050000
v -17.810928 18.700000 -124.050000
v 17.810928 18.700000 -124.050000
v 17.990836 3.000000 -124.050000
v 17.451111 0.000000 -124.050000
v -17.807014 0.000000 -114.300000
v -18.357747 3.000000 -114.300000
v -18.174169 18.700000 -114.300000
v 18.174169 18.700000 -114.300000
v 18.357747 3.000000 -114.300000
v 17.807014 0.000000 -114.300000
v -18.154313 0.000000 -104.550000
v -18.715787 3.000000 -104.550000
v -18.528629 18.700000 -104.550000
v 18.528629 18.700000 -104.550000
v 18.715787 3.000000 -104.550000
v 18.154313 0.000000 -104.550000
v -18.491659 0.000000 -94.800000
v -19.063566 3.000000 -94.800000
v -18.872930 18.700000 -94.800000
v 18.872930 18.700000 -94.800000
v 19.063566 3.000000 -94.800000
v 18.491659 0.000000 -94.800000
v -18.817741 0.000000 -85.050000
v -19.399733 3.000000 -85.050000
v -19.205735 18.700000 -85.050000
v 19.205735 18.700000 -85.050000
v 19.399733 3.000000 -85.050000
v 18.817741 0.000000 -85.050000
v -19.131292 0.000000 -75.300000
v -19.722982 3.000000 -75.300000
v -19.525752 18.700000 -75.300000
v 19.525752 18.700000 -75.300000
v 19.722982 3.000000 -75.300000
v 19.131292 0.000000 -75.300000
v -19.431096 0.000000 -65.550000
v -20.032058 3.000000 -65.550000
v -19.831737 18.700000 -65.550000
v 19.831737 18.700000 -65.550000
v 20.032058 3.000000 -65.550000
v 19.431096 0.000000 -65.550000
v -19.715987 0.000000 -55.800000
v -20.325760 3.000000 -55.800000
v -20.122502 18.700000 -55.800000
v 20.122502 18.700000 -55.800000
v 20.325760 3.000000 -55.800000
v 19.715987 0.000000 -55.800000
v -19.984859 0.000000 -46.050000
v -20.602947 3.000000 -46.050000
v -20.396918 18.700000 -46.050000
v 20.396918 18.700000 -46.050000
v 20.602947 3.000000 -46.050000
v 19.984859 0.000000 -46.050000
v -20.236667 0.000000 -36.300000
v -20.862544 3.000000 -36.300000
v -20.653918 18.700000 -36.300000
v 20.653918 18.700000 -36.300000
v 20.862544 3.000000 -36.300000
v 20.236667 0.000000 -36.300000
v -20.470434 0.000000 -26.550000
v -21.103541 3.000000 -26.550000
v -20.892505 18.700000 -26.550000
v 20.892505 18.700000 -26.550000
v 21.103541 3.000000 -26.550000
v 20.470434 0.000000 -26.550000
v -20.685252 0.000000 -16.800000
v -21.325002 3.000000 -16.800000
v -21.111752 18.700000 -16.800000
v 21.111752 18.700000 -16.800000
v 21.325002 3.000000 -16.800000
v 20.685252 0.000000 -16.800000
v -20.880286 0.000000 -7.050000
v -21.526068 3.000000 -7.050000
v -21.310807 18.700000 -7.050000
v 21.310807 18.700000 -7.050000
v 21.526068 3.000000 -7.050000
v 20.880286 0.000000 -7.050000
v -21.054778 0.000000 2.700000
v -21.705956 3.000000 2.700000
v -21.488897 18.700000 2.700000
v 21.488897 18.700000 2.700000
v 21.705956 3.000000 2.700000
v 21.054778 0.000000 2.700000
v -21.208051 0.000000 12.450000
v -21.863970 3.000000 12.450000
v -21.645330 18.700000 12.450000
v 21.645330 18.700000 12.450000
v 21.863970 3.000000 12.450000
v 21.208051 0.000000 12.450000
v -21.339509 0.000000 22.200000
v -21.999494 3.000000 22.200000
v -21.779499 18.700000 22.200000
v 21.779499 18.700000 22.200000
v 21.999494 3.000000 22.200000
v 21.339509 0.000000 22.200000
v -21.448642 0.000000 31.950000
v -22.112002 3.000000 31.950000
v -21.890882 18.700000 31.950000
v 21.890882 18.700000 31.950000
v 22.112002 3.000000 31.950000
v 21.448642 0.000000 31.950000
v -21.535026 0.000000 41.700000
v -22.201058 3.000000 41.700000
v -21.979048 18.700000 41.700000
v 21.979048 18.700000 41.700000
v 22.201058 3.000000 41.700000
v 21.535026 0.000000 41.700000
v -21.598326 0.000000 51.450000
v -22.266316 3.000000 51.450000
v -22.043652 18.700000 51.450000
v 22.043652 18.700000 51.450000
v 22.266316 3.000000 51.450000
v 21.598326 0.000000 51.450000
v -21.638295 0.000000 61.200000
v -22.307521 3.000000 61.200000
v -22.084446 18.700000 61.200000
v 22.084446 18.700000 61.200000
v 22.307521 3.000000 61.200000
v 21.638295 0.000000 61.200000
v -21.654779 0.000000 70.950000
v -22.324514 3.000000 70.950000
v -22.101269 18.700000 70.950000
v 22.101269 18.700000 70.950000
v 22.324514 3.000000 70.950000
v 21.654779 0.000000 70.950000
v -21.655250 0.000000 80.700000
v -22.325000 3.000000 80.700000
v -22.101750 18.700000 80.700000
v 22.101750 18.700000 80.700000
v 22.325000 3.000000 80.700000
v 21.655250 0.000000 80.700000
v -21.655250 0.000000 90.450000
v -22.325000 3.000000 90.450000
v -22.101750 18.700000 90.450000
v 22.101750 18.700000 90.450000
v 22.325000 3.000000 90.450000
v 21.655250 0.000000 90.450000
v -21.231769 0.000000 100.200000
v -21.888421 3.000000 100.200000
v -21.669537 18.700000 100.200000
v 21.669537 18.700000 100.200000
v 21.888421 3.000000 100.200000
v 21.231769 0.000000 100.200000
v -19.918129 0.000000 109.950000
v -20.534154 3.000000 109.950000
v -20.328812 18.700000 109.950000
v 20.328812 18.700000 109.950000
v 20.534154 3.000000 109.950000
v 19.918129 0.000000 109.950000
v -18.107359 0.000000 119.700000
v -18.667381 3.000000 119.700000
v -18.480707 18.700000 119.700000
v 18.480707 18.700000 119.700000
v 18.667381 3.000000 119.700000
v 18.107359 0.000000 119.700000
v -15.911224 0.000000 129.450000
v -16.403324 3.000000 129.450000
v -16.239290 18.700000 129.450000
v 16.239290 18.700000 129.450000
v 16.403324 3.000000 129.450000
v 15.911224 0.000000 129.450000
v -13.388376 0.000000 139.200000
v -13.802450 3.000000 139.200000
v -13.664425 18.700000 139.200000
v 13.664425 18.700000 139.200000
v 13.802450 3.000000 139.200000
v 13.388376 0.000000 139.200000
v -10.576699 0.000000 148.950000
v -10.903813 3.000000 148.950000
v -10.794775 18.700000 148.950000
v 10.794775 18.700000 148.950000
v 10.903813 3.000000 148.950000
v 10.576699 0.000000 148.950000
v -7.503295 0.000000 158.700000
v -7.735356 3.000000 158.700000
v -7.658002 18.700000 158.700000
v 7.658002 18.700000 158.700000
v 7.735356 3.000000 158.700000
v 7.503295 0.000000 158.700000
v -4.188811 0.000000 168.450000
v -4.318362 3.000000 168.450000
v -4.275179 18.700000 168.450000
v 4.275179 18.700000 168.450000
v 4.318362 3.000000 168.450000
v 4.188811 0.000000 168.450000
v -0.649658 0.000000 178.200000
v -0.669750 3.000000 178.200000
v -0.663053 18.700000 178.200000
v 0.663053 18.700000 178.200000
v 0.669750 3.000000 178.200000
v 0.649658 0.000000 178.200000
f 7 8 2
f 7 2 1
f 8 9 3
f 8 3 2
f 9 10 4
f 9 4 3
f 10 11 5
f 10 5 4
f 11 12 6
f 11 6 5
f 12 7 1
f 12 1 6
f 13 14 8
f 13 8 7
f 14 15 9
f 14 9 8
f 15 16 10
f 15 10 9
f 16 17 11
f 16 11 10
f 17 18 12
f 17 12 11
f 18 13 7
f 18 7 12
f 19 20 14
f 19 14 13
f 20 21 15
f 20 15 14
f 21 22 16
f 21 16 15
f 22 23 17
f 22 17 16
f 23 24 18
f 23 18 17
f 24 19 13
f 24 13 18
f 25 26 20
f 25 20 19
f 26 27 21
f 26 21 20
f 27 28 22
f 27 22 21
f 28 29 23
f 28 23 22
f 29 30 24
f 29 24 23
f 30 25 19
f 30 19 24
f 31 32 26
f 31 26 25
f 32 33 27
f 32 27 26
f 33 34 28
f 33 28 27
f 34 35 29
f 34 29 28
f 35 36 30
f 35 30 29
f 36 31 25
f 36 25 30
f 37 38 32
f 37 32 31
f 38 39 33
f 38 33 32
f 39 40 34
f 39 34 33
f 40 41 35
f 40 35 34
f 41 42 36
f 41 36 35
f 42 37 31
f 42 31 36
f 43 44 38
f 43 38 37
f 44 45 39
f 44 39 38
f 45 46 40
f 45 40 39
f 46 47 41
f 46 41 40
f 47 48 42
f 47 42 41
f 48 43 37
f 48 37 42
f 49 50 44
f 49 44 43
f 50 51 45
f 50 45 44
f 51 52 46
f 51 46 45
f 52 53 47
f 52 47 46
f 53 54 48
f 53 48 47
f 54 49 43
f 54 43 48
f 55 56 50
f 55 50 49
f 56 57 51
f 56 51 50
f 57 58 52
f 57 52 51
f 58 59 53
f 58 53 52
f 59 60 54
f 59 54 53
f 60 55 49
f 60 49 54
f 61 62 56
f 61 56 55
f 62 63 57
f 62 57 56
f 63 64 58
f 63 58 57
f 64 65 59
f 64 59 58
f 65 66 60
f 65 60 59
f 66 61 55
f 66 55 60
f 67 68 62
f 67 62 61
f 68 69 63
f 68 63 62
f 69 70 64
f 69 64 63
f 70 71 65
f 70 65 64
f 71 72 66
f 71 66 65
f 72 67 61
f 72 61 66
f 73 74 68
f 73 68 67
f 74 75 69
f 74 69 68
f 75 76 70
f 75 70 69
f 76 77 71
f 76 71 70
f 77 78 72
f 77 72 71
f 78 73 67
f 78 67 72
f 79 80 74
f 79 74 73
f 80 81 75
f 80 75 74
f 81 82 76
f 81 76 75
f 82 83 77
f 82 77 76
f 83 84 78
f 83 78 77
f 84 79 73
f 84 73 78
f 85 86 80
f 85 80 79
f 86 87 81
f 86 81 80
f 87 88 82
f 87 82 81
f 88 89 83
f 88 83 82
f 89 90 84
f 89 84 83
f 90 85 79
f 90 79 84
f 91 92 86
f 91 86 85
f 92 93 87
f 92 87 86
f 93 94 88
f 93 88 87
f 94 95 89
f 94 89 88
f 95 96 90
f 95 90 89
f 96 91 85
f 96 85 90
f 97 98 92
f 97 92 91
f 98 99 93
f 98 93 92
f 99 100 94
f 99 94 93
f 100 101 95
f 100 95 94
f 101 102 96
f 101 96 95
f 102 97 91
f 102 91 96
f 103 104 98
f 103 98 97
f 104 105 99
f 104 99 98
f 105 106 100
f 105 100 99
f 106 107 101
f 106 101 100
f 107 108 102
f 107 102 101
f 108 103 97
f 108 97 102
f 109 110 104
f 109 104 103
f 110 111 105
f 110 105 104
f 111 112 106
f 111 106 105
f 112 113 107
f 112 107 106
f 113 114 108
f 113 108 107
f 114 109 103
f 114 103 108
f 115 116 110
f 115 110 109
f 116 117 111
f 116 111 110
f 117 118 112
f 117 112 111
f 118 119 113
f 118 113 112
f 119 120 114
f 119 114 113
f 120 115 109
f 120 109 114
f 121 122 116
f 121 116 115
f 122 123 117
f 122 117 116
f 123 124 118
f 123 118 117
f 124 125 119
f 124 119 118
f 125 126 120
f 125 120 119
f 126 121 115
f 126 115 120
f 127 128 122
f 127 122 121
f 128 129 123
f 128 123 122
f 129 130 124
f 129 124 123
f 130 131 125
f 130 125 124
f 131 132 126
f 131 126 125
f 132 127 121
f 132 121 126
f 133 134 128
f 133 128 127
f 134 135 129
f 134 129 128
f 135 136 130
f 135 130 129
f 136 137 131
f 136 131 130
f 137 138 132
f 137 132 131
f 138 133 127
f 138 127 132
f 139 140 134
f 139 134 133
f 140 141 135
f 140 135 134
f 141 142 136
f 141 136 135
f 142 143 137
f 142 137 136
f 143 144 138
f 143 138 137
f 144 139 133
f 144 133 138
f 145 146 140
f 145 140 139
f 146 147 141
f 146 141 140
f 147 148 142
f 147 142 141
f 148 149 143
f 148 143 142
f 149 150 144
f 149 144 143
f 150 145 139
f 150 139 144
f 151 152 146
f 151 146 145
f 152 153 147
f 152 147 146
f 153 154 148
f 153 148 147
f 154 155 149
f 154 149 148
f 155 156 150
f 155 150 149
f 156 151 145
f 156 145 150
f 157 158 152
f 157 152 151
f 158 159 153
f 158 153 152
f 159 160 154
f 159 154 153
f 160 161 155
f 160 155 154
f 161 162 156
f 161 156 155
f 162 157 151
f 162 151 156
f 163 164 158
f 163 158 157
f 164 165 159
f 164 159 158
f 165 166 160
f 165 160 159
f 166 167 161
f 166 161 160
f 167 168 162
f 167 162 161
f 168 163 157
f 168 157 162
f 169 170 164
f 169 164 163
f 170 171 165
f 170 165 164
f 171 172 166
f 171 166 165
f 172 173 167
f 172 167 166
f 173 174 168
f 173 168 167
f 174 169 163
f 174 163 168
f 175 176 170
f 175 170 169
f 176 177 171
f 176 171 170
f 177 178 172
f 177 172 171
f 178 179 173
f 178 173 172
f 179 180 174
f 179 174 173
f 180 175 169
f 180 169 174
f 181 182 176
f 181 176 175
f 182 183 177
f 182 177 176
f 183 184 178
f 183 178 177
f 184 185 179
f 184 179 178
f 185 186 180
f 185 180 179
f 186 181 175
f 186 175 180
f 187 188 182
f 187 182 181
f 188 189 183
f 188 183 182
f 189 190 184
f 189 184 183
f 190 191 185
f 190 185 184
f 191 192 186
f 191 186 185
f 192 187 181
f 192 181 186
f 193 194 188
f 193 188 187
f 194 195 189
f 194 189 188
f 195 196 190
f 195 190 189
f 196 197 191
f 196 191 190
f 197 198 192
f 197 192 191
f 198 193 187
f 198 187 192
f 199 200 194
f 199 194 193
f 200 201 195
f 200 195 194
f 201 202 196
f 201 196 195
f 202 203 197
f 202 197 196
f 203 204 198
f 203 198 197
f 204 199 193
f 204 193 198
f 205 206 200
f 205 200 199
f 206 207 201
f 206 201 200
f 207 208 202
f 207 202 201
f 208 209 203
f 208 203 202
f 209 210 204
f 209 204 203
f 210 205 199
f 210 199 204
f 211 212 206
f 211 206 205
f 212 213 207
f 212 207 206
f 213 214 208
f 213 208 207
f 214 215 209
f 214 209 208
f 215 216 210
f 215 210 209
f 216 211 205
f 216 205 210
f 217 218 212
f 217 212 211
f 218 219 213
f 218 213 212
f 219 220 214
f 219 214 213
f 220 221 215
f 220 215 214
f 221 222 216
f 221 216 215
f 222 217 211
f 222 211 216
f 1 2 3
f 1 3 4
f 1 4 5
f 1 5 6
f 222 221 220
f 222 220 219
f 222 219 218
f 222 218 217
o UnderwaterHull
usemtl underwater
v -9.644400 -8.500000 -172.800000
v -14.948820 -3.000000 -172.800000
v -15.591780 0.000000 -172.800000
v 15.591780 0.000000 -172.800000
v 14.948820 -3.000000 -172.800000
v 9.644400 -8.500000 -172.800000
v -9.878035 -8.500000 -163.050000
v -15.310955 -3.000000 -163.050000
v -15.969491 0.000000 -163.050000
v 15.969491 0.000000 -163.050000
v 15.310955 -3.000000 -163.050000
v 9.878035 -8.500000 -163.050000
v -10.110763 -8.500000 -153.300000
v -15.671683 -3.000000 -153.300000
v -16.345734 0.000000 -153.300000
v 16.345734 0.000000 -153.300000
v 15.671683 -3.000000 -153.300000
v 10.110763 -8.500000 -153.300000
v -10.341680 -8.500000 -143.550000
v -16.029604 -3.000000 -143.550000
v -16.719049 0.000000 -143.550000
v 16.719049 0.000000 -143.550000
v 16.029604 -3.000000 -143.550000
v 10.341680 -8.500000 -143.550000
v -10.569888 -8.500000 -133.800000
v -16.383327 -3.000000 -133.800000
v -17.087986 0.000000 -133.800000
v 17.087986 0.000000 -133.800000
v 16.383327 -3.000000 -133.800000
v 10.569888 -8.500000 -133.800000
v -10.794502 -8.500000 -124.050000
v -16.731478 -3.000000 -124.050000
v -17.451111 0.000000 -124.050000
v 17.451111 0.000000 -124.050000
v 16.731478 -3.000000 -124.050000
v 10.794502 -8.500000 -124.050000
v -11.014648 -8.500000 -114.300000
v -17.072704 -3.000000 -114.300000
v -17.807014 0.000000 -114.300000
v 17.807014 0.000000 -114.300000
v 17.072704 -3.000000 -114.300000
v 11.014648 -8.500000 -114.300000
v -11.229472 -8.500000 -104.550000
v -17.405682 -3.000000 -104.550000
v -18.154313 0.000000 -104.550000
v 18.154313 0.000000 -104.550000
v 17.405682 -3.000000 -104.550000
v 11.229472 -8.500000 -104.550000
v -11.438139 -8.500000 -94.800000
v -17.729116 -3.000000 -94.800000
v -18.491659 0.000000 -94.800000
v 18.491659 0.000000 -94.800000
v 17.729116 -3.000000 -94.800000
v 11.438139 -8.500000 -94.800000
v -11.639840 -8.500000 -85.050000
v -18.041751 -3.000000 -85.050000
v -18.817741 0.000000 -85.050000
v 18.817741 0.000000 -85.050000
v 18.041751 -3.000000 -85.050000
v 11.639840 -8.500000 -85.050000
v -11.833789 -8.500000 -75.300000
v -18.342373 -3.000000 -75.300000
v -19.131292 0.000000 -75.300000
v 19.131292 0.000000 -75.300000
v 18.342373 -3.000000 -75.300000
v 11.833789 -8.500000 -75.300000
v -12.019235 -8.500000 -65.550000
v -18.629814 -3.000000 -65.550000
v -19.431096 0.000000 -65.550000
v 19.431096 0.000000 -65.550000
v 18.629814 -3.000000 -65.550000
v 12.019235 -8.500000 -65.550000
v -12.195456 -8.500000 -55.800000
v -18.902957 -3.000000 -55.800000
v -19.715987 0.000000 -55.800000
v 19.715987 0.000000 -55.800000
v 18.902957 -3.000000 -55.800000
v 12.195456 -8.500000 -55.800000
v -12.361768 -8.500000 -46.050000
v -19.160741 -3.000000 -46.050000
v -19.984859 0.000000 -46.050000
v 19.984859 0.000000 -46.050000
v 19.160741 -3.000000 -46.050000
v 12.361768 -8.500000 -46.050000
v -12.517526 -8.500000 -36.300000
v -19.402166 -3.000000 -36.300000
v -20.236667 0.000000 -36.300000
v 20.236667 0.000000 -36.300000
v 19.402166 -3.000000 -36.300000
v 12.517526 -8.500000 -36.300000
v -12.662124 -8.500000 -26.550000
v -19.626293 -3.000000 -26.550000
v -20.470434 0.000000 -26.550000
v 20.470434 0.000000 -26.550000
v 19.626293 -3.000000 -26.550000
v 12.662124 -8.500000 -26.550000
v -12.795001 -8.500000 -16.800000
v -19.832252 -3.000000 -16.800000
v -20.685252 0.000000 -16.800000
v 20.685252 0.000000 -16.800000
v 19.832252 -3.000000 -16.800000
v 12.795001 -8.500000 -16.800000
v -12.915641 -8.500000 -7.050000
v -20.019243 -3.000000 -7.050000
v -20.880286 0.000000 -7.050000
v 20.880286 0.000000 -7.050000
v 20.019243 -3.000000 -7.050000
v 12.915641 -8.500000 -7.050000
v -13.023574 -8.500000 2.700000
v -20.186539 -3.000000 2.700000
v -21.054778 0.000000 2.700000
v 21.054778 0.000000 2.700000
v 20.186539 -3.000000 2.700000
v 13.023574 -8.500000 2.700000
v -13.118382 -8.500000 12.450000
v -20.333492 -3.000000 12.450000
v -21.208051 0.000000 12.450000
v 21.208051 0.000000 12.450000
v 20.333492 -3.000000 12.450000
v 13.118382 -8.500000 12.450000
v -13.199696 -8.500000 22.200000
v -20.459529 -3.000000 22.200000
v -21.339509 0.000000 22.200000
v 21.339509 0.000000 22.200000
v 20.459529 -3.000000 22.200000
v 13.199696 -8.500000 22.200000
v -13.267201 -8.500000 31.950000
v -20.564162 -3.000000 31.950000
v -21.448642 0.000000 31.950000
v 21.448642 0.000000 31.950000
v 20.564162 -3.000000 31.950000
v 13.267201 -8.500000 31.950000
v -13.320635 -8.500000 41.700000
v -20.646984 -3.000000 41.700000
v -21.535026 0.000000 41.700000
v 21.535026 0.000000 41.700000
v 20.646984 -3.000000 41.700000
v 13.320635 -8.500000 41.700000
v -13.359789 -8.500000 51.450000
v -20.707673 -3.000000 51.450000
v -21.598326 0.000000 51.450000
v 21.598326 0.000000 51.450000
v 20.707673 -3.000000 51.450000
v 13.359789 -8.500000 51.450000
v -13.384513 -8.500000 61.200000
v -20.745994 -3.000000 61.200000
v -21.638295 0.000000 61.200000
v 21.638295 0.000000 61.200000
v 20.745994 -3.000000 61.200000
v 13.384513 -8.500000 61.200000
v -13.394709 -8.500000 70.950000
v -20.761798 -3.000000 70.950000
v -21.654779 0.000000 70.950000
v 21.654779 0.000000 70.950000
v 20.761798 -3.000000 70.950000
v 13.394709 -8.500000 70.950000
v -13.395000 -8.500000 80.700000
v -20.762250 -3.000000 80.700000
v -21.655250 0.000000 80.700000
v 21.655250 0.000000 80.700000
v 20.762250 -3.000000 80.700000
v 13.395000 -8.500000 80.700000
v -13.395000 -8.500000 90.450000
v -20.762250 -3.000000 90.450000
v -21.655250 0.000000 90.450000
v 21.655250 0.000000 90.450000
v 20.762250 -3.000000 90.450000
v 13.395000 -8.500000 90.450000
v -13.133053 -8.500000 100.200000
v -20.356232 -3.000000 100.200000
v -21.231769 0.000000 100.200000
v 21.231769 0.000000 100.200000
v 20.356232 -3.000000 100.200000
v 13.133053 -8.500000 100.200000
v -12.320492 -8.500000 109.950000
v -19.096763 -3.000000 109.950000
v -19.918129 0.000000 109.950000
v 19.918129 0.000000 109.950000
v 19.096763 -3.000000 109.950000
v 12.320492 -8.500000 109.950000
v -11.200429 -8.500000 119.700000
v -17.360664 -3.000000 119.700000
v -18.107359 0.000000 119.700000
v 18.107359 0.000000 119.700000
v 17.360664 -3.000000 119.700000
v 11.200429 -8.500000 119.700000
v -9.841994 -8.500000 129.450000
v -15.255091 -3.000000 129.450000
v -15.911224 0.000000 129.450000
v 15.911224 0.000000 129.450000
v 15.255091 -3.000000 129.450000
v 9.841994 -8.500000 129.450000
v -8.281470 -8.500000 139.200000
v -12.836278 -3.000000 139.200000
v -13.388376 0.000000 139.200000
v 13.388376 0.000000 139.200000
v 12.836278 -3.000000 139.200000
v 8.281470 -8.500000 139.200000
v -6.542288 -8.500000 148.950000
v -10.140546 -3.000000 148.950000
v -10.576699 0.000000 148.950000
v 10.576699 0.000000 148.950000
v 10.140546 -3.000000 148.950000
v 6.542288 -8.500000 148.950000
v -4.641213 -8.500000 158.700000
v -7.193881 -3.000000 158.700000
v -7.503295 0.000000 158.700000
v 7.503295 0.000000 158.700000
v 7.193881 -3.000000 158.700000
v 4.641213 -8.500000 158.700000
v -2.591017 -8.500000 168.450000
v -4.016077 -3.000000 168.450000
v -4.188811 0.000000 168.450000
v 4.188811 0.000000 168.450000
v 4.016077 -3.000000 168.450000
v 2.591017 -8.500000 168.450000
v -0.401850 -8.500000 178.200000
v -0.622868 -3.000000 178.200000
v -0.649658 0.000000 178.200000
v 0.649658 0.000000 178.200000
v 0.622868 -3.000000 178.200000
v 0.401850 -8.500000 178.200000
f 229 230 224
f 229 224 223
f 230 231 225
f 230 225 224
f 231 232 226
f 231 226 225
f 232 233 227
f 232 227 226
f 233 234 228
f 233 228 227
f 234 229 223
f 234 223 228
f 235 236 230
f 235 230 229
f 236 237 231
f 236 231 230
f 237 238 232
f 237 232 231
f 238 239 233
f 238 233 232
f 239 240 234
f 239 234 233
f 240 235 229
f 240 229 234
f 241 242 236
f 241 236 235
f 242 243 237
f 242 237 236
f 243 244 238
f 243 238 237
f 244 245 239
f 244 239 238
f 245 246 240
f 245 240 239
f 246 241 235
f 246 235 240
f 247 248 242
f 247 242 241
f 248 249 243
f 248 243 242
f 249 250 244
f 249 244 243
f 250 251 245
f 250 245 244
f 251 252 246
f 251 246 245
f 252 247 241
f 252 241 246
f 253 254 248
f 253 248 247
f 254 255 249
f 254 249 248
f 255 256 250
f 255 250 249
f 256 257 251
f 256 251 250
f 257 258 252
f 257 252 251
f 258 253 247
f 258 247 252
f 259 260 254
f 259 254 253
f 260 261 255
f 260 255 254
f 261 262 256
f 261 256 255
f 262 263 257
f 262 257 256
f 263 264 258
f 263 258 257
f 264 259 253
f 264 253 258
f 265 266 260
f 265 260 259
f 266 267 261
f 266 261 260
f 267 268 262
f 267 262 261
f 268 269 263
f 268 263 262
f 269 270 264
f 269 264 263
f 270 265 259
f 270 259 264
f 271 272 266
f 271 266 265
f 272 273 267
f 272 267 266
f 273 274 268
f 273 268 267
f 274 275 269
f 274 269 268
f 275 276 270
f 275 270 269
f 276 271 265
f 276 265 270
f 277 278 272
f 277 272 271
f 278 279 273
f 278 273 272
f 279 280 274
f 279 274 273
f 280 281 275
f 280 275 274
f 281 282 276
f 281 276 275
f 282 277 271
f 282 271 276
f 283 284 278
f 283 278 277
f 284 285 279
f 284 279 278
f 285 286 280
f 285 280 279
f 286 287 281
f 286 281 280
f 287 288 282
f 287 282 281
f 288 283 277
f 288 277 282
f 289 290 284
f 289 284 283
f 290 291 285
f 290 285 284
f 291 292 286
f 291 286 285
f 292 293 287
f 292 287 286
f 293 294 288
f 293 288 287
f 294 289 283
f 294 283 288
f 295 296 290
f 295 290 289
f 296 297 291
f 296 291 290
f 297 298 292
f 297 292 291
f 298 299 293
f 298 293 292
f 299 300 294
f 299 294 293
f 300 295 289
f 300 289 294
f 301 302 296
f 301 296 295
f 302 303 297
f 302 297 296
f 303 304 298
f 303 298 297
f 304 305 299
f 304 299 298
f 305 306 300
f 305 300 299
f 306 301 295
f 306 295 300
f 307 308 302
f 307 302 301
f 308 309 303
f 308 303 302
f 309 310 304
f 309 304 303
f 310 311 305
f 310 305 304
f 311 312 306
f 311 306 305
f 312 307 301
f 312 301 306
f 313 314 308
f 313 308 307
f 314 315 309
f 314 309 308
f 315 316 310
f 315 310 309
f 316 317 311
f 316 311 310
f 317 318 312
f 317 312 311
f 318 313 307
f 318 307 312
f 319 320 314
f 319 314 313
f 320 321 315
f 320 315 314
f 321 322 316
f 321 316 315
f 322 323 317
f 322 317 316
f 323 324 318
f 323 318 317
f 324 319 313
f 324 313 318
f 325 326 320
f 325 320 319
f 326 327 321
f 326 321 320
f 327 328 322
f 327 322 321
f 328 329 323
f 328 323 322
f 329 330 324
f 329 324 323
f 330 325 319
f 330 319 324
f 331 332 326
f 331 326 325
f 332 333 327
f 332 327 326
f 333 334 328
f 333 328 327
f 334 335 329
f 334 329 328
f 335 336 330
f 335 330 329
f 336 331 325
f 336 325 330
f 337 338 332
f 337 332 331
f 338 339 333
f 338 333 332
f 339 340 334
f 339 334 333
f 340 341 335
f 340 335 334
f 341 342 336
f 341 336 335
f 342 337 331
f 342 331 336
f 343 344 338
f 343 338 337
f 344 345 339
f 344 339 338
f 345 346 340
f 345 340 339
f 346 347 341
f 346 341 340
f 347 348 342
f 347 342 341
f 348 343 337
f 348 337 342
f 349 350 344
f 349 344 343
f 350 351 345
f 350 345 344
f 351 352 346
f 351 346 345
f 352 353 347
f 352 347 346
f 353 354 348
f 353 348 347
f 354 349 343
f 354 343 348
f 355 356 350
f 355 350 349
f 356 357 351
f 356 351 350
f 357 358 352
f 357 352 351
f 358 359 353
f 358 353 352
f 359 360 354
f 359 354 353
f 360 355 349
f 360 349 354
f 361 362 356
f 361 356 355
f 362 363 357
f 362 357 356
f 363 364 358
f 363 358 357
f 364 365 359
f 364 359 358
f 365 366 360
f 365 360 359
f 366 361 355
f 366 355 360
f 367 368 362
f 367 362 361
f 368 369 363
f 368 363 362
f 369 370 364
f 369 364 363
f 370 371 365
f 370 365 364
f 371 372 366
f 371 366 365
f 372 367 361
f 372 361 366
f 373 374 368
f 373 368 367
f 374 375 369
f 374 369 368
f 375 376 370
f 375 370 369
f 376 377 371
f 376 371 370
f 377 378 372
f 377 372 371
f 378 373 367
f 378 367 372
f 379 380 374
f 379 374 373
f 380 381 375
f 380 375 374
f 381 382 376
f 381 376 375
f 382 383 377
f 382 377 376
f 383 384 378
f 383 378 377
f 384 379 373
f 384 373 378
f 385 386 380
f 385 380 379
f 386 387 381
f 386 381 380
f 387 388 382
f 387 382 381
f 388 389 383
f 388 383 382
f 389 390 384
f 389 384 383
f 390 385 379
f 390 379 384
f 391 392 386
f 391 386 385
f 392 393 387
f 392 387 386
f 393 394 388
f 393 388 387
f 394 395 389
f 394 389 388
f 395 396 390
f 395 390 389
f 396 391 385
f 396 385 390
f 397 398 392
f 397 392 391
f 398 399 393
f 398 393 392
f 399 400 394
f 399 394 393
f 400 401 395
f 400 395 394
f 401 402 396
f 401 396 395
f 402 397 391
f 402 391 396
f 403 404 398
f 403 398 397
f 404 405 399
f 404 399 398
f 405 406 400
f 405 400 399
f 406 407 401
f 406 401 400
f 407 408 402
f 407 402 401
f 408 403 397
f 408 397 402
f 409 410 404
f 409 404 403
f 410 411 405
f 410 405 404
f 411 412 406
f 411 406 405
f 412 413 407
f 412 407 406
f 413 414 408
f 413 408 407
f 414 409 403
f 414 403 408
f 415 416 410
f 415 410 409
f 416 417 411
f 416 411 410
f 417 418 412
f 417 412 411
f 418 419 413
f 418 413 412
f 419 420 414
f 419 414 413
f 420 415 409
f 420 409 414
f 421 422 416
f 421 416 415
f 422 423 417
f 422 417 416
f 423 424 418
f 423 418 417
f 424 425 419
f 424 419 418
f 425 426 420
f 425 420 419
f 426 421 415
f 426 415 420
f 427 428 422
f 427 422 421
f 428 429 423
f 428 423 422
f 429 430 424
f 429 424 423
f 430 431 425
f 430 425 424
f 431 432 426
f 431 426 425
f 432 427 421
f 432 421 426
f 433 434 428
f 433 428 427
f 434 435 429
f 434 429 428
f 435 436 430
f 435 430 429
f 436 437 431
f 436 431 430
f 437 438 432
f 437 432 431
f 438 433 427
f 438 427 432
f 439 440 434
f 439 434 433
f 440 441 435
f 440 435 434
f 441 442 436
f 441 436 435
f 442 443 437
f 442 437 436
f 443 444 438
f 443 438 437
f 444 439 433
f 444 433 438
f 223 224 225
f 223 225 226
f 223 226 227
f 223 227 228
f 444 443 442
f 444 442 441
f 444 441 440
f 444 440 439
o FlightDeck
usemtl deck
v -34.200000 19.000000 -180.000000
v 33.250000 19.000000 -180.000000
v 46.550000 19.000000 -136.800000
v 46.550000 19.000000 108.000000
v 36.100000 19.000000 180.000000
v -32.300000 19.000000 180.000000
v -45.600000 19.000000 111.600000
v -52.250000 19.000000 -43.200000
v -51.300000 19.000000 -115.200000
v -34.200000 20.000000 -180.000000
v 33.250000 20.000000 -180.000000
v 46.550000 20.000000 -136.800000
v 46.550000 20.000000 108.000000
v 36.100000 20.000000 180.000000
v -32.300000 20.000000 180.000000
v -45.600000 20.000000 111.600000
v -52.250000 20.000000 -43.200000
v -51.300000 20.000000 -115.200000
f 453 445 446
f 453 446 447
f 453 447 448
f 453 448 449
f 453 449 450
f 453 450 451
f 451 452 453
f 455 454 462
f 456 455 462
f 457 456 462
f 458 457 462
f 459 458 462
f 460 459 462
f 462 461 460
f 445 454 455
f 445 455 446
f 446 455 456
f 446 456 447
f 447 456 457
f 447 457 448
f 448 457 458
f 448 458 449
f 449 458 459
f 449 459 450
f 450 459 460
f 450 460 451
f 451 460 461
f 451 461 452
f 452 461 462
f 452 462 453
f 453 462 454
f 453 454 445
o Island
usemtl island
v 28.500000 20.000000 -68.400000
v 40.850000 20.000000 -68.400000
v 38.950000 20.000000 10.800000
v 30.400000 20.000000 10.800000
v 28.500000 32.000000 -68.400000
v 40.850000 32.000000 -68.400000
v 38.950000 32.000000 10.800000
v 30.400000 32.000000 10.800000
f 466 463 464
f 464 465 466
f 468 467 470
f 470 469 468
f 463 467 468
f 463 468 464
f 464 468 469
f 464 469 465
f 465 469 470
f 465 470 466
f 466 470 467
f 466 467 463
o Bridge
usemtl island
v 28.025000 32.500000 -23.400000
v 41.325000 32.500000 -23.400000
v 41.325000 35.500000 -23.400000
v 28.025000 35.500000 -23.400000
v 28.025000 32.500000 9.000000
v 41.325000 32.500000 9.000000
v 41.325000 35.500000 9.000000
v 28.025000 35.500000 9.000000
f 471 474 473
f 471 473 472
f 475 476 477
f 475 477 478
f 471 472 476
f 471 476 475
f 474 478 477
f 474 477 473
f 471 475 478
f 471 478 474
f 472 473 477
f 472 477 476
o BridgeGlass
usemtl glass
v 27.840000 33.200000 -22.500000
v 28.020000 33.200000 -22.500000
v 28.020000 34.800000 -22.500000
v 27.840000 34.800000 -22.500000
v 27.840000 33.200000 8.100000
v 28.020000 33.200000 8.100000
v 28.020000 34.800000 8.100000
v 27.840000 34.800000 8.100000
f 479 482 481
f 479 481 480
f 483 484 485
f 483 485 486
f 479 480 484
f 479 484 483
f 482 486 485
f 482 485 481
f 479 483 486
f 479 486 482
f 480 481 485
f 480 485 484
o IntegratedMast
usemtl island
v 30.675000 32.000000 -32.800000
v 38.675000 32.000000 -32.800000
v 37.675000 32.000000 -25.800000
v 31.675000 32.000000 -25.800000
v 30.675000 47.000000 -32.800000
v 38.675000 47.000000 -32.800000
v 37.675000 47.000000 -25.800000
v 31.675000 47.000000 -25.800000
f 490 487 488
f 488 489 490
f 492 491 494
f 494 493 492
f 487 491 492
f 487 492 488
f 488 492 493
f 488 493 489
f 489 493 494
f 489 494 490
f 490 494 491
f 490 491 487
o Elevator_1
usemtl hull
v 29.000000 20.000000 72.800000
v 47.000000 20.000000 72.800000
v 47.000000 20.160000 72.800000
v 29.000000 20.160000 72.800000
v 29.000000 20.000000 92.800000
v 47.000000 20.000000 92.800000
v 47.000000 20.160000 92.800000
v 29.000000 20.160000 92.800000
f 495 498 497
f 495 497 496
f 499 500 501
f 499 501 502
f 495 496 500
f 495 500 499
f 498 502 501
f 498 501 497
f 495 499 502
f 495 502 498
f 496 497 501
f 496 501 500
o Elevator_2
usemtl hull
v 29.000000 20.000000 -74.800000
v 47.000000 20.000000 -74.800000
v 47.000000 20.160000 -74.800000
v 29.000000 20.160000 -74.800000
v 29.000000 20.000000 -54.800000
v 47.000000 20.000000 -54.800000
v 47.000000 20.160000 -54.800000
v 29.000000 20.160000 -54.800000
f 503 506 505
f 503 505 504
f 507 508 509
f 507 509 510
f 503 504 508
f 503 508 507
f 506 510 509
f 506 509 505
f 503 507 510
f 503 510 506
f 504 505 509
f 504 509 508
o Elevator_3
usemtl hull
v 29.000000 20.000000 -132.400000
v 47.000000 20.000000 -132.400000
v 47.000000 20.160000 -132.400000
v 29.000000 20.160000 -132.400000
v 29.000000 20.000000 -112.400000
v 47.000000 20.000000 -112.400000
v 47.000000 20.160000 -112.400000
v 29.000000 20.160000 -112.400000
f 511 514 513
f 511 513 512
f 515 516 517
f 515 517 518
f 511 512 516
f 511 516 515
f 514 518 517
f 514 517 513
f 511 515 518
f 511 518 514
f 512 513 517
f 512 517 516
o Elevator_4
usemtl hull
v -48.900000 20.000000 -89.200000
v -30.900000 20.000000 -89.200000
v -30.900000 20.160000 -89.200000
v -48.900000 20.160000 -89.200000
v -48.900000 20.000000 -69.200000
v -30.900000 20.000000 -69.200000
v -30.900000 20.160000 -69.200000
v -48.900000 20.160000 -69.200000
f 519 522 521
f 519 521 520
f 523 524 525
f 523 525 526
f 519 520 524
f 519 524 523
f 522 526 525
f 522 525 521
f 519 523 526
f 519 526 522
f 520 521 525
f 520 525 524
o Catapult_1
usemtl gold
v 12.950016 20.110000 86.403381
v 13.750016 20.110000 169.203381
v 14.449984 20.110000 169.196619
v 13.649984 20.110000 86.396619
v 12.950016 20.150000 86.403381
v 13.750016 20.150000 169.203381
v 14.449984 20.150000 169.196619
v 13.649984 20.150000 86.396619
f 527 530 529
f 529 528 527
f 533 534 531
f 531 532 533
f 528 532 531
f 528 531 527
f 529 533 532
f 529 532 528
f 530 534 533
f 530 533 529
f 527 531 534
f 527 534 530
o Catapult_2
usemtl gold
v -14.599984 20.110000 86.403381
v -13.799984 20.110000 169.203381
v -13.100016 20.110000 169.196619
v -13.900016 20.110000 86.396619
v -14.599984 20.150000 86.403381
v -13.799984 20.150000 169.203381
v -13.100016 20.150000 169.196619
v -13.900016 20.150000 86.396619
f 535 538 537
f 537 536 535
f 541 542 539
f 539 540 541
f 536 540 539
f 536 539 535
f 537 541 540
f 537 540 536
f 538 542 541
f 538 541 537
f 535 539 542
f 535 542 538
o Catapult_3
usemtl gold
v -28.849984 20.110000 -35.996619
v -28.049984 20.110000 46.803381
v -27.350016 20.110000 46.796619
v -28.150016 20.110000 -36.003381
v -28.849984 20.150000 -35.996619
v -28.049984 20.150000 46.803381
v -27.350016 20.150000 46.796619
v -28.150016 20.150000 -36.003381
f 543 546 545
f 545 544 543
f 549 550 547
f 547 548 549
f 544 548 547
f 544 547 543
f 545 549 548
f 545 548 544
f 546 550 549
f 546 549 545
f 543 547 550
f 543 550 546
o Catapult_4
usemtl gold
v -37.399984 20.110000 -35.996619
v -36.599984 20.110000 46.803381
v -35.900016 20.110000 46.796619
v -36.700016 20.110000 -36.003381
v -37.399984 20.150000 -35.996619
v -36.599984 20.150000 46.803381
v -35.900016 20.150000 46.796619
v -36.700016 20.150000 -36.003381
f 551 554 553
f 553 552 551
f 557 558 555
f 555 556 557
f 552 556 555
f 552 555 551
f 553 557 556
f 553 556 552
f 554 558 557
f 554 557 553
f 551 555 558
f 551 558 554
o LandingEdge_-1
usemtl white
v -0.723167 20.120000 -158.421330
v -40.623167 20.120000 71.978670
v -40.376833 20.120000 72.021330
v -0.476833 20.120000 -158.378670
v -0.723167 20.160000 -158.421330
v -40.623167 20.160000 71.978670
v -40.376833 20.160000 72.021330
v -0.476833 20.160000 -158.378670
f 559 562 561
f 561 560 559
f 565 566 563
f 563 564 565
f 560 564 563
f 560 563 559
f 561 565 564
f 561 564 560
f 562 566 565
f 562 565 561
f 559 563 566
f 559 566 562
o LandingEdge_1
usemtl white
v 23.276833 20.120000 -158.421330
v -16.623167 20.120000 71.978670
v -16.376833 20.120000 72.021330
v 23.523167 20.120000 -158.378670
v 23.276833 20.160000 -158.421330
v -16.623167 20.160000 71.978670
v -16.376833 20.160000 72.021330
v 23.523167 20.160000 -158.378670
f 567 570 569
f 569 568 567
f 573 574 571
f 571 572 573
f 568 572 571
f 568 571 567
f 569 573 572
f 569 572 568
f 570 574 573
f 570 573 569
f 567 571 574
f 567 574 570
o Centreline_0
usemtl white
v 11.227567 20.130000 -158.429862
v 9.945067 20.130000 -151.024147
v 10.289933 20.130000 -150.964424
v 11.572433 20.130000 -158.370138
v 11.227567 20.170000 -158.429862
v 9.945067 20.170000 -151.024147
v 10.289933 20.170000 -150.964424
v 11.572433 20.170000 -158.370138
f 575 578 577
f 577 576 575
f 581 582 579
f 579 580 581
f 576 580 579
f 576 579 575
f 577 581 580
f 577 580 576
f 578 582 581
f 578 581 577
f 575 579 582
f 575 582 578
o Centreline_1
usemtl white
v 8.377567 20.130000 -141.972719
v 7.095067 20.130000 -134.567004
v 7.439933 20.130000 -134.507281
v 8.722433 20.130000 -141.912996
v 8.377567 20.170000 -141.972719
v 7.095067 20.170000 -134.567004
v 7.439933 20.170000 -134.507281
v 8.722433 20.170000 -141.912996
f 583 586 585
f 585 584 583
f 589 590 587
f 587 588 589
f 584 588 587
f 584 587 583
f 585 589 588
f 585 588 584
f 586 590 589
f 586 589 585
f 583 587 590
f 583 590 586
o Centreline_2
usemtl white
v 5.527567 20.130000 -125.515576
v 4.245067 20.130000 -118.109862
v 4.589933 20.130000 -118.050138
v 5.872433 20.130000 -125.455853
v 5.527567 20.170000 -125.515576
v 4.245067 20.170000 -118.109862
v 4.589933 20.170000 -118.050138
v 5.872433 20.170000 -125.455853
f 591 594 593
f 593 592 591
f 597 598 595
f 595 596 597
f 592 596 595
f 592 595 591
f 593 597 596
f 593 596 592
f 594 598 597
f 594 597 593
f 591 595 598
f 591 598 594
o Centreline_3
usemtl white
v 2.677567 20.130000 -109.058433
v 1.395067 20.130000 -101.652719
v 1.739933 20.130000 -101.592996
v 3.022433 20.130000 -108.998710
v 2.677567 20.170000 -109.058433
v 1.395067 20.170000 -101.652719
v 1.739933 20.170000 -101.592996
v 3.022433 20.170000 -108.998710
f 599 602 601
f 601 600 599
f 605 606 603
f 603 604 605
f 600 604 603
f 600 603 599
f 601 605 604
f 601 604 600
f 602 606 605
f 602 605 601
f 599 603 606
f 599 606 602
o Centreline_4
usemtl white
v -0.172433 20.130000 -92.601290
v -1.454933 20.130000 -85.195576
v -1.110067 20.130000 -85.135853
v 0.172433 20.130000 -92.541567
v -0.172433 20.170000 -92.601290
v -1.454933 20.170000 -85.195576
v -1.110067 20.170000 -85.135853
v 0.172433 20.170000 -92.541567
f 607 610 609
f 609 608 607
f 613 614 611
f 611 612 613
f 608 612 611
f 608 611 607
f 609 613 612
f 609 612 608
f 610 614 613
f 610 613 609
f 607 611 614
f 607 614 610
o Centreline_5
usemtl white
v -3.022433 20.130000 -76.144147
v -4.304933 20.130000 -68.738433
v -3.960067 20.130000 -68.678710
v -2.677567 20.130000 -76.084424
v -3.022433 20.170000 -76.144147
v -4.304933 20.170000 -68.738433
v -3.960067 20.170000 -68.678710
v -2.677567 20.170000 -76.084424
f 615 618 617
f 617 616 615
f 621 622 619
f 619 620 621
f 616 620 619
f 616 619 615
f 617 621 620
f 617 620 616
f 618 622 621
f 618 621 617
f 615 619 622
f 615 622 618
o Centreline_6
usemtl white
v -5.872433 20.130000 -59.687004
v -7.154933 20.130000 -52.281290
v -6.810067 20.130000 -52.221567
v -5.527567 20.130000 -59.627281
v -5.872433 20.170000 -59.687004
v -7.154933 20.170000 -52.281290
v -6.810067 20.170000 -52.221567
v -5.527567 20.170000 -59.627281
f 623 626 625
f 625 624 623
f 629 630 627
f 627 628 629
f 624 628 627
f 624 627 623
f 625 629 628
f 625 628 624
f 626 630 629
f 626 629 625
f 623 627 630
f 623 630 626
o Centreline_7
usemtl white
v -8.722433 20.130000 -43.229862
v -10.004933 20.130000 -35.824147
v -9.660067 20.130000 -35.764424
v -8.377567 20.130000 -43.170138
v -8.722433 20.170000 -43.229862
v -10.004933 20.170000 -35.824147
v -9.660067 20.170000 -35.764424
v -8.377567 20.170000 -43.170138
f 631 634 633
f 633 632 631
f 637 638 635
f 635 636 637
f 632 636 635
f 632 635 631
f 633 637 636
f 633 636 632
f 634 638 637
f 634 637 633
f 631 635 638
f 631 638 634
o Centreline_8
usemtl white
v -11.572433 20.130000 -26.772719
v -12.854933 20.130000 -19.367004
v -12.510067 20.130000 -19.307281
v -11.227567 20.130000 -26.712996
v -11.572433 20.170000 -26.772719
v -12.854933 20.170000 -19.367004
v -12.510067 20.170000 -19.307281
v -11.227567 20.170000 -26.712996
f 639 642 641
f 641 640 639
f 645 646 643
f 643 644 645
f 640 644 643
f 640 643 639
f 641 645 644
f 641 644 640
f 642 646 645
f 642 645 641
f 639 643 646
f 639 646 642
o Centreline_9
usemtl white
v -14.422433 20.130000 -10.315576
v -15.704933 20.130000 -2.909862
v -15.360067 20.130000 -2.850138
v -14.077567 20.130000 -10.255853
v -14.422433 20.170000 -10.315576
v -15.704933 20.170000 -2.909862
v -15.360067 20.170000 -2.850138
v -14.077567 20.170000 -10.255853
f 647 650 649
f 649 648 647
f 653 654 651
f 651 652 653
f 648 652 651
f 648 651 647
f 649 653 652
f 649 652 648
f 650 654 653
f 650 653 649
f 647 651 654
f 647 654 650
o Centreline_10
usemtl white
v -17.272433 20.130000 6.141567
v -18.554933 20.130000 13.547281
v -18.210067 20.130000 13.607004
v -16.927567 20.130000 6.201290
v -17.272433 20.170000 6.141567
v -18.554933 20.170000 13.547281
v -18.210067 20.170000 13.607004
v -16.927567 20.170000 6.201290
f 655 658 657
f 657 656 655
f 661 662 659
f 659 660 661
f 656 660 659
f 656 659 655
f 657 661 660
f 657 660 656
f 658 662 661
f 658 661 657
f 655 659 662
f 655 662 658
o Centreline_11
usemtl white
v -20.122433 20.130000 22.598710
v -21.404933 20.130000 30.004424
v -21.060067 20.130000 30.064147
v -19.777567 20.130000 22.658433
v -20.122433 20.170000 22.598710
v -21.404933 20.170000 30.004424
v -21.060067 20.170000 30.064147
v -19.777567 20.170000 22.658433
f 663 666 665
f 665 664 663
f 669 670 667
f 667 668 669
f 664 668 667
f 664 667 663
f 665 669 668
f 665 668 664
f 666 670 669
f 666 669 665
f 663 667 670
f 663 670 666
o Centreline_12
usemtl white
v -22.972433 20.130000 39.055853
v -24.254933 20.130000 46.461567
v -23.910067 20.130000 46.521290
v -22.627567 20.130000 39.115576
v -22.972433 20.170000 39.055853
v -24.254933 20.170000 46.461567
v -23.910067 20.170000 46.521290
v -22.627567 20.170000 39.115576
f 671 674 673
f 673 672 671
f 677 678 675
f 675 676 677
f 672 676 675
f 672 675 671
f 673 677 676
f 673 676 672
f 674 678 677
f 674 677 673
f 671 675 678
f 671 678 674
o Centreline_13
usemtl white
v -25.822433 20.130000 55.512996
v -27.104933 20.130000 62.918710
v -26.760067 20.130000 62.978433
v -25.477567 20.130000 55.572719
v -25.822433 20.170000 55.512996
v -27.104933 20.170000 62.918710
v -26.760067 20.170000 62.978433
v -25.477567 20.170000 55.572719
f 679 682 681
f 681 680 679
f 685 686 683
f 683 684 685
f 680 684 683
f 680 683 679
f 681 685 684
f 681 684 680
f 682 686 685
f 682 685 681
f 679 683 686
f 679 686 682
o Sponson_1
usemtl hull
v -49.100000 18.100000 95.800000
v -42.100000 18.100000 95.800000
v -42.100000 19.500000 95.800000
v -49.100000 19.500000 95.800000
v -49.100000 18.100000 105.800000
v -42.100000 18.100000 105.800000
v -42.100000 19.500000 105.800000
v -49.100000 19.500000 105.800000
f 687 690 689
f 687 689 688
f 691 692 693
f 691 693 694
f 687 688 692
f 687 692 691
f 690 694 693
f 690 693 689
f 687 691 694
f 687 694 690
f 688 689 693
f 688 693 692
o AA_Base_1
usemtl island
v -43.800000 19.500000 100.800000
v -43.937017 19.500000 101.488830
v -44.327208 19.500000 102.072792
v -44.911170 19.500000 102.462983
v -45.600000 19.500000 102.600000
v -46.288830 19.500000 102.462983
v -46.872792 19.500000 102.072792
v -47.262983 19.500000 101.488830
v -47.400000 19.500000 100.800000
v -47.262983 19.500000 100.111170
v -46.872792 19.500000 99.527208
v -46.288830 19.500000 99.137017
v -45.600000 19.500000 99.000000
v -44.911170 19.500000 99.137017
v -44.327208 19.500000 99.527208
v -43.937017 19.500000 100.111170
v -43.800000 21.500000 100.800000
v -43.937017 21.500000 101.488830
v -44.327208 21.500000 102.072792
v -44.911170 21.500000 102.462983
v -45.600000 21.500000 102.600000
v -46.288830 21.500000 102.462983
v -46.872792 21.500000 102.072792
v -47.262983 21.500000 101.488830
v -47.400000 21.500000 100.800000
v -47.262983 21.500000 100.111170
v -46.872792 21.500000 99.527208
v -46.288830 21.500000 99.137017
v -45.600000 21.500000 99.000000
v -44.911170 21.500000 99.137017
v -44.327208 21.500000 99.527208
v -43.937017 21.500000 100.111170
f 710 695 696
f 710 696 697
f 710 697 698
f 710 698 699
f 710 699 700
f 710 700 701
f 710 701 702
f 710 702 703
f 710 703 704
f 710 704 705
f 710 705 706
f 710 706 707
f 710 707 708
f 708 709 710
f 712 711 726
f 713 712 726
f 714 713 726
f 715 714 726
f 716 715 726
f 717 716 726
f 718 717 726
f 719 718 726
f 720 719 726
f 721 720 726
f 722 721 726
f 723 722 726
f 724 723 726
f 726 725 724
f 695 711 712
f 695 712 696
f 696 712 713
f 696 713 697
f 697 713 714
f 697 714 698
f 698 714 715
f 698 715 699
f 699 715 716
f 699 716 700
f 700 716 717
f 700 717 701
f 701 717 718
f 701 718 702
f 702 718 719
f 702 719 703
f 703 719 720
f 703 720 704
f 704 720 721
f 704 721 705
f 705 721 722
f 705 722 706
f 706 722 723
f 706 723 707
f 707 723 724
f 707 724 708
f 708 724 725
f 708 725 709
f 709 725 726
f 709 726 710
f 710 726 711
f 710 711 695
o CIWS_Radome_1
usemtl white
v -44.800000 21.500000 100.800000
v -44.860896 21.500000 101.106147
v -45.034315 21.500000 101.365685
v -45.293853 21.500000 101.539104
v -45.600000 21.500000 101.600000
v -45.906147 21.500000 101.539104
v -46.165685 21.500000 101.365685
v -46.339104 21.500000 101.106147
v -46.400000 21.500000 100.800000
v -46.339104 21.500000 100.493853
v -46.165685 21.500000 100.234315
v -45.906147 21.500000 100.060896
v -45.600000 21.500000 100.000000
v -45.293853 21.500000 100.060896
v -45.034315 21.500000 100.234315
v -44.860896 21.500000 100.493853
v -44.800000 23.400000 100.800000
v -44.860896 23.400000 101.106147
v -45.034315 23.400000 101.365685
v -45.293853 23.400000 101.539104
v -45.600000 23.400000 101.600000
v -45.906147 23.400000 101.539104
v -46.165685 23.400000 101.365685
v -46.339104 23.400000 101.106147
v -46.400000 23.400000 100.800000
v -46.339104 23.400000 100.493853
v -46.165685 23.400000 100.234315
v -45.906147 23.400000 100.060896
v -45.600000 23.400000 100.000000
v -45.293853 23.400000 100.060896
v -45.034315 23.400000 100.234315
v -44.860896 23.400000 100.493853
f 742 727 728
f 742 728 729
f 742 729 730
f 742 730 731
f 742 731 732
f 742 732 733
f 742 733 734
f 742 734 735
f 742 735 736
f 742 736 737
f 742 737 738
f 742 738 739
f 742 739 740
f 740 741 742
f 744 743 758
f 745 744 758
f 746 745 758
f 747 746 758
f 748 747 758
f 749 748 758
f 750 749 758
f 751 750 758
f 752 751 758
f 753 752 758
f 754 753 758
f 755 754 758
f 756 755 758
f 758 757 756
f 727 743 744
f 727 744 728
f 728 744 745
f 728 745 729
f 729 745 746
f 729 746 730
f 730 746 747
f 730 747 731
f 731 747 748
f 731 748 732
f 732 748 749
f 732 749 733
f 733 749 750
f 733 750 734
f 734 750 751
f 734 751 735
f 735 751 752
f 735 752 736
f 736 752 753
f 736 753 737
f 737 753 754
f 737 754 738
f 738 754 755
f 738 755 739
f 739 755 756
f 739 756 740
f 740 756 757
f 740 757 741
f 741 757 758
f 741 758 742
f 742 758 743
f 742 743 727
o Sponson_2
usemtl hull
v 40.200000 18.100000 95.800000
v 47.200000 18.100000 95.800000
v 47.200000 19.500000 95.800000
v 40.200000 19.500000 95.800000
v 40.200000 18.100000 105.800000
v 47.200000 18.100000 105.800000
v 47.200000 19.500000 105.800000
v 40.200000 19.500000 105.800000
f 759 762 761
f 759 761 760
f 763 764 765
f 763 765 766
f 759 760 764
f 759 764 763
f 762 766 765
f 762 765 761
f 759 763 766
f 759 766 762
f 760 761 765
f 760 765 764
o AA_Base_2
usemtl island
v 45.500000 19.500000 100.800000
v 45.362983 19.500000 101.488830
v 44.972792 19.500000 102.072792
v 44.388830 19.500000 102.462983
v 43.700000 19.500000 102.600000
v 43.011170 19.500000 102.462983
v 42.427208 19.500000 102.072792
v 42.037017 19.500000 101.488830
v 41.900000 19.500000 100.800000
v 42.037017 19.500000 100.111170
v 42.427208 19.500000 99.527208
v 43.011170 19.500000 99.137017
v 43.700000 19.500000 99.000000
v 44.388830 19.500000 99.137017
v 44.972792 19.500000 99.527208
v 45.362983 19.500000 100.111170
v 45.500000 21.500000 100.800000
v 45.362983 21.500000 101.488830
v 44.972792 21.500000 102.072792
v 44.388830 21.500000 102.462983
v 43.700000 21.500000 102.600000
v 43.011170 21.500000 102.462983
v 42.427208 21.500000 102.072792
v 42.037017 21.500000 101.488830
v 41.900000 21.500000 100.800000
v 42.037017 21.500000 100.111170
v 42.427208 21.500000 99.527208
v 43.011170 21.500000 99.137017
v 43.700000 21.500000 99.000000
v 44.388830 21.500000 99.137017
v 44.972792 21.500000 99.527208
v 45.362983 21.500000 100.111170
f 782 767 768
f 782 768 769
f 782 769 770
f 782 770 771
f 782 771 772
f 782 772 773
f 782 773 774
f 782 774 775
f 782 775 776
f 782 776 777
f 782 777 778
f 782 778 779
f 782 779 780
f 780 781 782
f 784 783 798
f 785 784 798
f 786 785 798
f 787 786 798
f 788 787 798
f 789 788 798
f 790 789 798
f 791 790 798
f 792 791 798
f 793 792 798
f 794 793 798
f 795 794 798
f 796 795 798
f 798 797 796
f 767 783 784
f 767 784 768
f 768 784 785
f 768 785 769
f 769 785 786
f 769 786 770
f 770 786 787
f 770 787 771
f 771 787 788
f 771 788 772
f 772 788 789
f 772 789 773
f 773 789 790
f 773 790 774
f 774 790 791
f 774 791 775
f 775 791 792
f 775 792 776
f 776 792 793
f 776 793 777
f 777 793 794
f 777 794 778
f 778 794 795
f 778 795 779
f 779 795 796
f 779 796 780
f 780 796 797
f 780 797 781
f 781 797 798
f 781 798 782
f 782 798 783
f 782 783 767
o CIWS_Radome_2
usemtl white
v 44.500000 21.500000 100.800000
v 44.439104 21.500000 101.106147
v 44.265685 21.500000 101.365685
v 44.006147 21.500000 101.539104
v 43.700000 21.500000 101.600000
v 43.393853 21.500000 101.539104
v 43.134315 21.500000 101.365685
v 42.960896 21.500000 101.106147
v 42.900000 21.500000 100.800000
v 42.960896 21.500000 100.493853
v 43.134315 21.500000 100.234315
v 43.393853 21.500000 100.060896
v 43.700000 21.500000 100.000000
v 44.006147 21.500000 100.060896
v 44.265685 21.500000 100.234315
v 44.439104 21.500000 100.493853
v 44.500000 23.400000 100.800000
v 44.439104 23.400000 101.106147
v 44.265685 23.400000 101.365685
v 44.006147 23.400000 101.539104
v 43.700000 23.400000 101.600000
v 43.393853 23.400000 101.539104
v 43.134315 23.400000 101.365685
v 42.960896 23.400000 101.106147
v 42.900000 23.400000 100.800000
v 42.960896 23.400000 100.493853
v 43.134315 23.400000 100.234315
v 43.393853 23.400000 100.060896
v 43.700000 23.400000 100.000000
v 44.006147 23.400000 100.060896
v 44.265685 23.400000 100.234315
v 44.439104 23.400000 100.493853
f 814 799 800
f 814 800 801
f 814 801 802
f 814 802 803
f 814 803 804
f 814 804 805
f 814 805 806
f 814 806 807
f 814 807 808
f 814 808 809
f 814 809 810
f 814 810 811
f 814 811 812
f 812 813 814
f 816 815 830
f 817 816 830
f 818 817 830
f 819 818 830
f 820 819 830
f 821 820 830
f 822 821 830
f 823 822 830
f 824 823 830
f 825 824 830
f 826 825 830
f 827 826 830
f 828 827 830
f 830 829 828
f 799 815 816
f 799 816 800
f 800 816 817
f 800 817 801
f 801 817 818
f 801 818 802
f 802 818 819
f 802 819 803
f 803 819 820
f 803 820 804
f 804 820 821
f 804 821 805
f 805 821 822
f 805 822 806
f 806 822 823
f 806 823 807
f 807 823 824
f 807 824 808
f 808 824 825
f 808 825 809
f 809 825 826
f 809 826 810
f 810 826 827
f 810 827 811
f 811 827 828
f 811 828 812
f 812 828 829
f 812 829 813
f 813 829 830
f 813 830 814
f 814 830 815
f 814 815 799
o Sponson_3
usemtl hull
v -45.300000 18.100000 -149.000000
v -38.300000 18.100000 -149.000000
v -38.300000 19.500000 -149.000000
v -45.300000 19.500000 -149.000000
v -45.300000 18.100000 -139.000000
v -38.300000 18.100000 -139.000000
v -38.300000 19.500000 -139.000000
v -45.300000 19.500000 -139.000000
f 831 834 833
f 831 833 832
f 835 836 837
f 835 837 838
f 831 832 836
f 831 836 835
f 834 838 837
f 834 837 833
f 831 835 838
f 831 838 834
f 832 833 837
f 832 837 836
o AA_Base_3
usemtl island
v -40.000000 19.500000 -144.000000
v -40.137017 19.500000 -143.311170
v -40.527208 19.500000 -142.727208
v -41.111170 19.500000 -142.337017
v -41.800000 19.500000 -142.200000
v -42.488830 19.500000 -142.337017
v -43.072792 19.500000 -142.727208
v -43.462983 19.500000 -143.311170
v -43.600000 19.500000 -144.000000
v -43.462983 19.500000 -144.688830
v -43.072792 19.500000 -145.272792
v -42.488830 19.500000 -145.662983
v -41.800000 19.500000 -145.800000
v -41.111170 19.500000 -145.662983
v -40.527208 19.500000 -145.272792
v -40.137017 19.500000 -144.688830
v -40.000000 21.500000 -144.000000
v -40.137017 21.500000 -143.311170
v -40.527208 21.500000 -142.727208
v -41.111170 21.500000 -142.337017
v -41.800000 21.500000 -142.200000
v -42.488830 21.500000 -142.337017
v -43.072792 21.500000 -142.727208
v -43.462983 21.500000 -143.311170
v -43.600000 21.500000 -144.000000
v -43.462983 21.500000 -144.688830
v -43.072792 21.500000 -145.272792
v -42.488830 21.500000 -145.662983
v -41.800000 21.500000 -145.800000
v -41.111170 21.500000 -145.662983
v -40.527208 21.500000 -145.272792
v -40.137017 21.500000 -144.688830
f 854 839 840
f 854 840 841
f 854 841 842
f 854 842 843
f 854 843 844
f 854 844 845
f 854 845 846
f 854 846 847
f 854 847 848
f 854 848 849
f 854 849 850
f 854 850 851
f 854 851 852
f 852 853 854
f 856 855 870
f 857 856 870
f 858 857 870
f 859 858 870
f 860 859 870
f 861 860 870
f 862 861 870
f 863 862 870
f 864 863 870
f 865 864 870
f 866 865 870
f 867 866 870
f 868 867 870
f 870 869 868
f 839 855 856
f 839 856 840
f 840 856 857
f 840 857 841
f 841 857 858
f 841 858 842
f 842 858 859
f 842 859 843
f 843 859 860
f 843 860 844
f 844 860 861
f 844 861 845
f 845 861 862
f 845 862 846
f 846 862 863
f 846 863 847
f 847 863 864
f 847 864 848
f 848 864 865
f 848 865 849
f 849 865 866
f 849 866 850
f 850 866 867
f 850 867 851
f 851 867 868
f 851 868 852
f 852 868 869
f 852 869 853
f 853 869 870
f 853 870 854
f 854 870 855
f 854 855 839
o CIWS_Radome_3
usemtl white
v -41.000000 21.500000 -144.000000
v -41.060896 21.500000 -143.693853
v -41.234315 21.500000 -143.434315
v -41.493853 21.500000 -143.260896
v -41.800000 21.500000 -143.200000
v -42.106147 21.500000 -143.260896
v -42.365685 21.500000 -143.434315
v -42.539104 21.500000 -143.693853
v -42.600000 21.500000 -144.000000
v -42.539104 21.500000 -144.306147
v -42.365685 21.500000 -144.565685
v -42.106147 21.500000 -144.739104
v -41.800000 21.500000 -144.800000
v -41.493853 21.500000 -144.739104
v -41.234315 21.500000 -144.565685
v -41.060896 21.500000 -144.306147
v -41.000000 23.400000 -144.000000
v -41.060896 23.400000 -143.693853
v -41.234315 23.400000 -143.434315
v -41.493853 23.400000 -143.260896
v -41.800000 23.400000 -143.200000
v -42.106147 23.400000 -143.260896
v -42.365685 23.400000 -143.434315
v -42.539104 23.400000 -143.693853
v -42.600000 23.400000 -144.000000
v -42.539104 23.400000 -144.306147
v -42.365685 23.400000 -144.565685
v -42.106147 23.400000 -144.739104
v -41.800000 23.400000 -144.800000
v -41.493853 23.400000 -144.739104
v -41.234315 23.400000 -144.565685
v -41.060896 23.400000 -144.306147
f 886 871 872
f 886 872 873
f 886 873 874
f 886 874 875
f 886 875 876
f 886 876 877
f 886 877 878
f 886 878 879
f 886 879 880
f 886 880 881
f 886 881 882
f 886 882 883
f 886 883 884
f 884 885 886
f 888 887 902
f 889 888 902
f 890 889 902
f 891 890 902
f 892 891 902
f 893 892 902
f 894 893 902
f 895 894 902
f 896 895 902
f 897 896 902
f 898 897 902
f 899 898 902
f 900 899 902
f 902 901 900
f 871 887 888
f 871 888 872
f 872 888 889
f 872 889 873
f 873 889 890
f 873 890 874
f 874 890 891
f 874 891 875
f 875 891 892
f 875 892 876
f 876 892 893
f 876 893 877
f 877 893 894
f 877 894 878
f 878 894 895
f 878 895 879
f 879 895 896
f 879 896 880
f 880 896 897
f 880 897 881
f 881 897 898
f 881 898 882
f 882 898 899
f 882 899 883
f 883 899 900
f 883 900 884
f 884 900 901
f 884 901 885
f 885 901 902
f 885 902 886
f 886 902 887
f 886 887 871
o Sponson_4
usemtl hull
v 37.350000 18.100000 -149.000000
v 44.350000 18.100000 -149.000000
v 44.350000 19.500000 -149.000000
v 37.350000 19.500000 -149.000000
v 37.350000 18.100000 -139.000000
v 44.350000 18.100000 -139.000000
v 44.350000 19.500000 -139.000000
v 37.350000 19.500000 -139.000000
f 903 906 905
f 903 905 904
f 907 908 909
f 907 909 910
f 903 904 908
f 903 908 907
f 906 910 909
f 906 909 905
f 903 907 910
f 903 910 906
f 904 905 909
f 904 909 908
o AA_Base_4
usemtl island
v 42.650000 19.500000 -144.000000
v 42.512983 19.500000 -143.311170
v 42.122792 19.500000 -142.727208
v 41.538830 19.500000 -142.337017
v 40.850000 19.500000 -142.200000
v 40.161170 19.500000 -142.337017
v 39.577208 19.500000 -142.727208
v 39.187017 19.500000 -143.311170
v 39.050000 19.500000 -144.000000
v 39.187017 19.500000 -144.688830
v 39.577208 19.500000 -145.272792
v 40.161170 19.500000 -145.662983
v 40.850000 19.500000 -145.800000
v 41.538830 19.500000 -145.662983
v 42.122792 19.500000 -145.272792
v 42.512983 19.500000 -144.688830
v 42.650000 21.500000 -144.000000
v 42.512983 21.500000 -143.311170
v 42.122792 21.500000 -142.727208
v 41.538830 21.500000 -142.337017
v 40.850000 21.500000 -142.200000
v 40.161170 21.500000 -142.337017
v 39.577208 21.500000 -142.727208
v 39.187017 21.500000 -143.311170
v 39.050000 21.500000 -144.000000
v 39.187017 21.500000 -144.688830
v 39.577208 21.500000 -145.272792
v 40.161170 21.500000 -145.662983
v 40.850000 21.500000 -145.800000
v 41.538830 21.500000 -145.662983
v 42.122792 21.500000 -145.272792
v 42.512983 21.500000 -144.688830
f 926 911 912
f 926 912 913
f 926 913 914
f 926 914 915
f 926 915 916
f 926 916 917
f 926 917 918
f 926 918 919
f 926 919 920
f 926 920 921
f 926 921 922
f 926 922 923
f 926 923 924
f 924 925 926
f 928 927 942
f 929 928 942
f 930 929 942
f 931 930 942
f 932 931 942
f 933 932 942
f 934 933 942
f 935 934 942
f 936 935 942
f 937 936 942
f 938 937 942
f 939 938 942
f 940 939 942
f 942 941 940
f 911 927 928
f 911 928 912
f 912 928 929
f 912 929 913
f 913 929 930
f 913 930 914
f 914 930 931
f 914 931 915
f 915 931 932
f 915 932 916
f 916 932 933
f 916 933 917
f 917 933 934
f 917 934 918
f 918 934 935
f 918 935 919
f 919 935 936
f 919 936 920
f 920 936 937
f 920 937 921
f 921 937 938
f 921 938 922
f 922 938 939
f 922 939 923
f 923 939 940
f 923 940 924
f 924 940 941
f 924 941 925
f 925 941 942
f 925 942 926
f 926 942 927
f 926 927 911
o CIWS_Radome_4
usemtl white
v 41.650000 21.500000 -144.000000
v 41.589104 21.500000 -143.693853
v 41.415685 21.500000 -143.434315
v 41.156147 21.500000 -143.260896
v 40.850000 21.500000 -143.200000
v 40.543853 21.500000 -143.260896
v 40.284315 21.500000 -143.434315
v 40.110896 21.500000 -143.693853
v 40.050000 21.500000 -144.000000
v 40.110896 21.500000 -144.306147
v 40.284315 21.500000 -144.565685
v 40.543853 21.500000 -144.739104
v 40.850000 21.500000 -144.800000
v 41.156147 21.500000 -144.739104
v 41.415685 21.500000 -144.565685
v 41.589104 21.500000 -144.306147
v 41.650000 23.400000 -144.000000
v 41.589104 23.400000 -143.693853
v 41.415685 23.400000 -143.434315
v 41.156147 23.400000 -143.260896
v 40.850000 23.400000 -143.200000
v 40.543853 23.400000 -143.260896
v 40.284315 23.400000 -143.434315
v 40.110896 23.400000 -143.693853
v 40.050000 23.400000 -144.000000
v 40.110896 23.400000 -144.306147
v 40.284315 23.400000 -144.565685
v 40.543853 23.400000 -144.739104
v 40.850000 23.400000 -144.800000
v 41.156147 23.400000 -144.739104
v 41.415685 23.400000 -144.565685
v 41.589104 23.400000 -144.306147
f 958 943 944
f 958 944 945
f 958 945 946
f 958 946 947
f 958 947 948
f 958 948 949
f 958 949 950
f 958 950 951
f 958 951 952
f 958 952 953
f 958 953 954
f 958 954 955
f 958 955 956
f 956 957 958
f 960 959 974
f 961 960 974
f 962 961 974
f 963 962 974
f 964 963 974
f 965 964 974
f 966 965 974
f 967 966 974
f 968 967 974
f 969 968 974
f 970 969 974
f 971 970 974
f 972 971 974
f 974 973 972
f 943 959 960
f 943 960 944
f 944 960 961
f 944 961 945
f 945 961 962
f 945 962 946
f 946 962 963
f 946 963 947
f 947 963 964
f 947 964 948
f 948 964 965
f 948 965 949
f 949 965 966
f 949 966 950
f 950 966 967
f 950 967 951
f 951 967 968
f 951 968 952
f 952 968 969
f 952 969 953
f 953 969 970
f 953 970 954
f 954 970 971
f 954 971 955
f 955 971 972
f 955 972 956
f 956 972 973
f 956 973 957
f 957 973 974
f 957 974 958
f 958 974 959
f 958 959 943
o SonarDome
usemtl dark
v 3.400000 -9.000000 136.800000
v 3.141190 -9.000000 138.101124
v 2.404163 -9.000000 139.204163
v 1.301124 -9.000000 139.941190
v 0.000000 -9.000000 140.200000
v -1.301124 -9.000000 139.941190
v -2.404163 -9.000000 139.204163
v -3.141190 -9.000000 138.101124
v -3.400000 -9.000000 136.800000
v -3.141190 -9.000000 135.498876
v -2.404163 -9.000000 134.395837
v -1.301124 -9.000000 133.658810
v -0.000000 -9.000000 133.400000
v 1.301124 -9.000000 133.658810
v 2.404163 -9.000000 134.395837
v 3.141190 -9.000000 135.498876
v 3.400000 -7.000000 136.800000
v 3.141190 -7.000000 138.101124
v 2.404163 -7.000000 139.204163
v 1.301124 -7.000000 139.941190
v 0.000000 -7.000000 140.200000
v -1.301124 -7.000000 139.941190
v -2.404163 -7.000000 139.204163
v -3.141190 -7.000000 138.101124
v -3.400000 -7.000000 136.800000
v -3.141190 -7.000000 135.498876
v -2.404163 -7.000000 134.395837
v -1.301124 -7.000000 133.658810
v -0.000000 -7.000000 133.400000
v 1.301124 -7.000000 133.658810
v 2.404163 -7.000000 134.395837
v 3.141190 -7.000000 135.498876
f 990 975 976
f 990 976 977
f 990 977 978
f 990 978 979
f 990 979 980
f 990 980 981
f 990 981 982
f 990 982 983
f 990 983 984
f 990 984 985
f 990 985 986
f 990 986 987
f 990 987 988
f 988 989 990
f 992 991 1006
f 993 992 1006
f 994 993 1006
f 995 994 1006
f 996 995 1006
f 997 996 1006
f 998 997 1006
f 999 998 1006
f 1000 999 1006
f 1001 1000 1006
f 1002 1001 1006
f 1003 1002 1006
f 1004 1003 1006
f 1006 1005 1004
f 975 991 992
f 975 992 976
f 976 992 993
f 976 993 977
f 977 993 994
f 977 994 978
f 978 994 995
f 978 995 979
f 979 995 996
f 979 996 980
f 980 996 997
f 980 997 981
f 981 997 998
f 981 998 982
f 982 998 999
f 982 999 983
f 983 999 1000
f 983 1000 984
f 984 1000 1001
f 984 1001 985
f 985 1001 1002
f 985 1002 986
f 986 1002 1003
f 986 1003 987
f 987 1003 1004
f 987 1004 988
f 988 1004 1005
f 988 1005 989
f 989 1005 1006
f 989 1006 990
f 990 1006 991
f 990 991 975
o NoisemakerPort
usemtl dark
v -11.862500 15.300000 -163.000000
v -10.462500 15.300000 -163.000000
v -10.462500 16.700000 -163.000000
v -11.862500 16.700000 -163.000000
v -11.862500 15.300000 -161.000000
v -10.462500 15.300000 -161.000000
v -10.462500 16.700000 -161.000000
v -11.862500 16.700000 -161.000000
f 1007 1010 1009
f 1007 1009 1008
f 1011 1012 1013
f 1011 1013 1014
f 1007 1008 1012
f 1007 1012 1011
f 1010 1014 1013
f 1010 1013 1009
f 1007 1011 1014
f 1007 1014 1010
f 1008 1009 1013
f 1008 1013 1012
o ASW_Sponson_-1
usemtl hull
v -42.400000 16.250000 39.700000
v -37.400000 16.250000 39.700000
v -37.400000 17.750000 39.700000
v -42.400000 17.750000 39.700000
v -42.400000 16.250000 46.700000
v -37.400000 16.250000 46.700000
v -37.400000 17.750000 46.700000
v -42.400000 17.750000 46.700000
f 1015 1018 1017
f 1015 1017 1016
f 1019 1020 1021
f 1019 1021 1022
f 1015 1016 1020
f 1015 1020 1019
f 1018 1022 1021
f 1018 1021 1017
f 1015 1019 1022
f 1015 1022 1018
f 1016 1017 1021
f 1016 1021 1020
o ASW_Tube_-1_0
usemtl dark
v -40.775000 17.950000 41.700000
v -40.325000 17.950000 41.700000
v -40.325000 18.450000 41.700000
v -40.775000 18.450000 41.700000
v -40.775000 17.950000 44.700000
v -40.325000 17.950000 44.700000
v -40.325000 18.450000 44.700000
v -40.775000 18.450000 44.700000
f 1023 1026 1025
f 1023 1025 1024
f 1027 1028 1029
f 1027 1029 1030
f 1023 1024 1028
f 1023 1028 1027
f 1026 1030 1029
f 1026 1029 1025
f 1023 1027 1030
f 1023 1030 1026
f 1024 1025 1029
f 1024 1029 1028
o ASW_Tube_-1_1
usemtl dark
v -40.125000 17.950000 41.700000
v -39.675000 17.950000 41.700000
v -39.675000 18.450000 41.700000
v -40.125000 18.450000 41.700000
v -40.125000 17.950000 44.700000
v -39.675000 17.950000 44.700000
v -39.675000 18.450000 44.700000
v -40.125000 18.450000 44.700000
f 1031 1034 1033
f 1031 1033 1032
f 1035 1036 1037
f 1035 1037 1038
f 1031 1032 1036
f 1031 1036 1035
f 1034 1038 1037
f 1034 1037 1033
f 1031 1035 1038
f 1031 1038 1034
f 1032 1033 1037
f 1032 1037 1036
o ASW_Tube_-1_2
usemtl dark
v -39.475000 17.950000 41.700000
v -39.025000 17.950000 41.700000
v -39.025000 18.450000 41.700000
v -39.475000 18.450000 41.700000
v -39.475000 17.950000 44.700000
v -39.025000 17.950000 44.700000
v -39.025000 18.450000 44.700000
v -39.475000 18.450000 44.700000
f 1039 1042 1041
f 1039 1041 1040
f 1043 1044 1045
f 1043 1045 1046
f 1039 1040 1044
f 1039 1044 1043
f 1042 1046 1045
f 1042 1045 1041
f 1039 1043 1046
f 1039 1046 1042
f 1040 1041 1045
f 1040 1045 1044
o ASW_Launcher_-1
usemtl island
v -41.400000 16.950000 34.200000
v -38.400000 16.950000 34.200000
v -38.400000 19.050000 34.200000
v -41.400000 19.050000 34.200000
v -41.400000 16.950000 38.200000
v -38.400000 16.950000 38.200000
v -38.400000 19.050000 38.200000
v -41.400000 19.050000 38.200000
f 1047 1050 1049
f 1047 1049 1048
f 1051 1052 1053
f 1051 1053 1054
f 1047 1048 1052
f 1047 1052 1051
f 1050 1054 1053
f 1050 1053 1049
f 1047 1051 1054
f 1047 1054 1050
f 1048 1049 1053
f 1048 1053 1052
o SAM_Sponson_-1
usemtl hull
v -44.800000 17.650000 136.400000
v -38.800000 17.650000 136.400000
v -38.800000 18.950000 136.400000
v -44.800000 18.950000 136.400000
v -44.800000 17.650000 144.400000
v -38.800000 17.650000 144.400000
v -38.800000 18.950000 144.400000
v -44.800000 18.950000 144.400000
f 1055 1058 1057
f 1055 1057 1056
f 1059 1060 1061
f 1059 1061 1062
f 1055 1056 1060
f 1055 1060 1059
f 1058 1062 1061
f 1058 1061 1057
f 1055 1059 1062
f 1055 1062 1058
f 1056 1057 1061
f 1056 1061 1060
o SAM_Launcher_-1
usemtl island
v -43.700000 18.700000 138.900000
v -39.900000 18.700000 138.900000
v -39.900000 21.100000 138.900000
v -43.700000 21.100000 138.900000
v -43.700000 18.700000 141.900000
v -39.900000 18.700000 141.900000
v -39.900000 21.100000 141.900000
v -43.700000 21.100000 141.900000
f 1063 1066 1065
f 1063 1065 1064
f 1067 1068 1069
f 1067 1069 1070
f 1063 1064 1068
f 1063 1068 1067
f 1066 1070 1069
f 1066 1069 1065
f 1063 1067 1070
f 1063 1070 1066
f 1064 1065 1069
f 1064 1069 1068
o NoisemakerStarboard
usemtl dark
v 10.462500 15.300000 -163.000000
v 11.862500 15.300000 -163.000000
v 11.862500 16.700000 -163.000000
v 10.462500 16.700000 -163.000000
v 10.462500 15.300000 -161.000000
v 11.862500 15.300000 -161.000000
v 11.862500 16.700000 -161.000000
v 10.462500 16.700000 -161.000000
f 1071 1074 1073
f 1071 1073 1072
f 1075 1076 1077
f 1075 1077 1078
f 1071 1072 1076
f 1071 1076 1075
f 1074 1078 1077
f 1074 1077 1073
f 1071 1075 1078
f 1071 1078 1074
f 1072 1073 1077
f 1072 1077 1076
o ASW_Sponson_1
usemtl hull
v 37.400000 16.250000 39.700000
v 42.400000 16.250000 39.700000
v 42.400000 17.750000 39.700000
v 37.400000 17.750000 39.700000
v 37.400000 16.250000 46.700000
v 42.400000 16.250000 46.700000
v 42.400000 17.750000 46.700000
v 37.400000 17.750000 46.700000
f 1079 1082 1081
f 1079 1081 1080
f 1083 1084 1085
f 1083 1085 1086
f 1079 1080 1084
f 1079 1084 1083
f 1082 1086 1085
f 1082 1085 1081
f 1079 1083 1086
f 1079 1086 1082
f 1080 1081 1085
f 1080 1085 1084
o ASW_Tube_1_0
usemtl dark
v 39.025000 17.950000 41.700000
v 39.475000 17.950000 41.700000
v 39.475000 18.450000 41.700000
v 39.025000 18.450000 41.700000
v 39.025000 17.950000 44.700000
v 39.475000 17.950000 44.700000
v 39.475000 18.450000 44.700000
v 39.025000 18.450000 44.700000
f 1087 1090 1089
f 1087 1089 1088
f 1091 1092 1093
f 1091 1093 1094
f 1087 1088 1092
f 1087 1092 1091
f 1090 1094 1093
f 1090 1093 1089
f 1087 1091 1094
f 1087 1094 1090
f 1088 1089 1093
f 1088 1093 1092
o ASW_Tube_1_1
usemtl dark
v 39.675000 17.950000 41.700000
v 40.125000 17.950000 41.700000
v 40.125000 18.450000 41.700000
v 39.675000 18.450000 41.700000
v 39.675000 17.950000 44.700000
v 40.125000 17.950000 44.700000
v 40.125000 18.450000 44.700000
v 39.675000 18.450000 44.700000
f 1095 1098 1097
f 1095 1097 1096
f 1099 1100 1101
f 1099 1101 1102
f 1095 1096 1100
f 1095 1100 1099
f 1098 1102 1101
f 1098 1101 1097
f 1095 1099 1102
f 1095 1102 1098
f 1096 1097 1101
f 1096 1101 1100
o ASW_Tube_1_2
usemtl dark
v 40.325000 17.950000 41.700000
v 40.775000 17.950000 41.700000
v 40.775000 18.450000 41.700000
v 40.325000 18.450000 41.700000
v 40.325000 17.950000 44.700000
v 40.775000 17.950000 44.700000
v 40.775000 18.450000 44.700000
v 40.325000 18.450000 44.700000
f 1103 1106 1105
f 1103 1105 1104
f 1107 1108 1109
f 1107 1109 1110
f 1103 1104 1108
f 1103 1108 1107
f 1106 1110 1109
f 1106 1109 1105
f 1103 1107 1110
f 1103 1110 1106
f 1104 1105 1109
f 1104 1109 1108
o ASW_Launcher_1
usemtl island
v 38.400000 16.950000 34.200000
v 41.400000 16.950000 34.200000
v 41.400000 19.050000 34.200000
v 38.400000 19.050000 34.200000
v 38.400000 16.950000 38.200000
v 41.400000 16.950000 38.200000
v 41.400000 19.050000 38.200000
v 38.400000 19.050000 38.200000
f 1111 1114 1113
f 1111 1113 1112
f 1115 1116 1117
f 1115 1117 1118
f 1111 1112 1116
f 1111 1116 1115
f 1114 1118 1117
f 1114 1117 1113
f 1111 1115 1118
f 1111 1118 1114
f 1112 1113 1117
f 1112 1117 1116
o SAM_Sponson_1
usemtl hull
v 38.800000 17.650000 136.400000
v 44.800000 17.650000 136.400000
v 44.800000 18.950000 136.400000
v 38.800000 18.950000 136.400000
v 38.800000 17.650000 144.400000
v 44.800000 17.650000 144.400000
v 44.800000 18.950000 144.400000
v 38.800000 18.950000 144.400000
f 1119 1122 1121
f 1119 1121 1120
f 1123 1124 1125
f 1123 1125 1126
f 1119 1120 1124
f 1119 1124 1123
f 1122 1126 1125
f 1122 1125 1121
f 1119 1123 1126
f 1119 1126 1122
f 1120 1121 1125
f 1120 1125 1124
o SAM_Launcher_1
usemtl island
v 39.900000 18.700000 138.900000
v 43.700000 18.700000 138.900000
v 43.700000 21.100000 138.900000
v 39.900000 21.100000 138.900000
v 39.900000 18.700000 141.900000
v 43.700000 18.700000 141.900000
v 43.700000 21.100000 141.900000
v 39.900000 21.100000 141.900000
f 1127 1130 1129
f 1127 1129 1128
f 1131 1132 1133
f 1131 1133 1134
f 1127 1128 1132
f 1127 1132 1131
f 1130 1134 1133
f 1130 1133 1129
f 1127 1131 1134
f 1127 1134 1130
f 1128 1129 1133
f 1128 1133 1132
o OffensiveECM_Module
usemtl island
v 32.175000 46.800000 -30.900000
v 37.175000 46.800000 -30.900000
v 37.175000 49.200000 -30.900000
v 32.175000 49.200000 -30.900000
v 32.175000 46.800000 -26.700000
v 37.175000 46.800000 -26.700000
v 37.175000 49.200000 -26.700000
v 32.175000 49.200000 -26.700000
f 1135 1138 1137
f 1135 1137 1136
f 1139 1140 1141
f 1139 1141 1142
f 1135 1136 1140
f 1135 1140 1139
f 1138 1142 1141
f 1138 1141 1137
f 1135 1139 1142
f 1135 1142 1138
f 1136 1137 1141
f 1136 1141 1140
o OffensiveECM_Array_-1
usemtl dark
v 32.000000 47.100000 -30.550000
v 32.150000 47.100000 -30.550000
v 32.150000 48.900000 -30.550000
v 32.000000 48.900000 -30.550000
v 32.000000 47.100000 -27.050000
v 32.150000 47.100000 -27.050000
v 32.150000 48.900000 -27.050000
v 32.000000 48.900000 -27.050000
f 1143 1146 1145
f 1143 1145 1144
f 1147 1148 1149
f 1147 1149 1150
f 1143 1144 1148
f 1143 1148 1147
f 1146 1150 1149
f 1146 1149 1145
f 1143 1147 1150
f 1143 1150 1146
f 1144 1145 1149
f 1144 1149 1148
o OffensiveECM_Array_1
usemtl dark
v 37.200000 47.100000 -30.550000
v 37.350000 47.100000 -30.550000
v 37.350000 48.900000 -30.550000
v 37.200000 48.900000 -30.550000
v 37.200000 47.100000 -27.050000
v 37.350000 47.100000 -27.050000
v 37.350000 48.900000 -27.050000
v 37.200000 48.900000 -27.050000
f 1151 1154 1153
f 1151 1153 1152
f 1155 1156 1157
f 1155 1157 1158
f 1151 1152 1156
f 1151 1156 1155
f 1154 1158 1157
f 1154 1157 1153
f 1151 1155 1158
f 1151 1158 1154
f 1152 1153 1157
f 1152 1157 1156
