# RAN Carrier Restart: original model study; coordinates in metres
mtllib ran_cvn_commonwealth_1993.mtl
o Hull
usemtl hull
v -15.263532 0.000000 -170.880000
v -15.735600 3.000000 -170.880000
v -15.578244 18.700000 -170.880000
v 15.578244 18.700000 -170.880000
v 15.735600 3.000000 -170.880000
v 15.263532 0.000000 -170.880000
v -15.633291 0.000000 -161.238333
v -16.116795 3.000000 -161.238333
v -15.955627 18.700000 -161.238333
v 15.955627 18.700000 -161.238333
v 16.116795 3.000000 -161.238333
v 15.633291 0.000000 -161.238333
v -16.001614 0.000000 -151.596667
v -16.496509 3.000000 -151.596667
v -16.331544 18.700000 -151.596667
v 16.331544 18.700000 -151.596667
v 16.496509 3.000000 -151.596667
v 16.001614 0.000000 -151.596667
v -16.367069 0.000000 -141.955000
v -16.873267 3.000000 -141.955000
v -16.704535 18.700000 -141.955000
v 16.704535 18.700000 -141.955000
v 16.873267 3.000000 -141.955000
v 16.367069 0.000000 -141.955000
v -16.728239 0.000000 -132.313333
v -17.245607 3.000000 -132.313333
v -17.073151 18.700000 -132.313333
v 17.073151 18.700000 -132.313333
v 17.245607 3.000000 -132.313333
v 16.728239 0.000000 -132.313333
v -17.083719 0.000000 -122.671667
v -17.612082 3.000000 -122.671667
v -17.435961 18.700000 -122.671667
v 17.435961 18.700000 -122.671667
v 17.612082 3.000000 -122.671667
v 17.083719 0.000000 -122.671667
v -17.432130 0.000000 -113.030000
v -17.971268 3.000000 -113.030000
v -17.791555 18.700000 -113.030000
v 17.791555 18.700000 -113.030000
v 17.971268 3.000000 -113.030000
v 17.432130 0.000000 -113.030000
v -17.772117 0.000000 -103.388333
v -18.321770 3.000000 -103.388333
v -18.138552 18.700000 -103.388333
v 18.138552 18.700000 -103.388333
v 18.321770 3.000000 -103.388333
v 17.772117 0.000000 -103.388333
v -18.102361 0.000000 -93.746667
v -18.662227 3.000000 -93.746667
v -18.475605 18.700000 -93.746667
v 18.475605 18.700000 -93.746667
v 18.662227 3.000000 -93.746667
v 18.102361 0.000000 -93.746667
v -18.421578 0.000000 -84.105000
v -18.991317 3.000000 -84.105000
v -18.801404 18.700000 -84.105000
v 18.801404 18.700000 -84.105000
v 18.991317 3.000000 -84.105000
v 18.421578 0.000000 -84.105000
v -18.728528 0.000000 -74.463333
v -19.307761 3.000000 -74.463333
v -19.114683 18.700000 -74.463333
v 19.114683 18.700000 -74.463333
v 19.307761 3.000000 -74.463333
v 18.728528 0.000000 -74.463333
v -19.022020 0.000000 -64.821667
v -19.610330 3.000000 -64.821667
v -19.414227 18.700000 -64.821667
v 19.414227 18.700000 -64.821667
v 19.610330 3.000000 -64.821667
v 19.022020 0.000000 -64.821667
v -19.300914 0.000000 -55.180000
v -19.897849 3.000000 -55.180000
v -19.698871 18.700000 -55.180000
v 19.698871 18.700000 -55.180000
v 19.897849 3.000000 -55.180000
v 19.300914 0.000000 -55.180000
v -19.564125 0.000000 -45.538333
v -20.169201 3.000000 -45.538333
v -19.967509 18.700000 -45.538333
v 19.967509 18.700000 -45.538333
v 20.169201 3.000000 -45.538333
v 19.564125 0.000000 -45.538333
v -19.810632 0.000000 -35.896667
v -20.423332 3.000000 -35.896667
v -20.219099 18.700000 -35.896667
v 20.219099 18.700000 -35.896667
v 20.423332 3.000000 -35.896667
v 19.810632 0.000000 -35.896667
v -20.039478 0.000000 -26.255000
v -20.659256 3.000000 -26.255000
v -20.452663 18.700000 -26.255000
v 20.452663 18.700000 -26.255000
v 20.659256 3.000000 -26.255000
v 20.039478 0.000000 -26.255000
v -20.249773 0.000000 -16.613333
v -20.876055 3.000000 -16.613333
v -20.667294 18.700000 -16.613333
v 20.667294 18.700000 -16.613333
v 20.876055 3.000000 -16.613333
v 20.249773 0.000000 -16.613333
v -20.440701 0.000000 -6.971667
v -21.072887 3.000000 -6.971667
v -20.862158 18.700000 -6.971667
v 20.862158 18.700000 -6.971667
v 21.072887 3.000000 -6.971667
v 20.440701 0.000000 -6.971667
v -20.611519 0.000000 2.670000
v -21.248989 3.000000 2.670000
v -21.036499 18.700000 2.670000
v 21.036499 18.700000 2.670000
v 21.248989 3.000000 2.670000
v 20.611519 0.000000 2.670000
v -20.761565 0.000000 12.311667
v -21.403676 3.000000 12.311667
v -21.189639 18.700000 12.311667
v 21.189639 18.700000 12.311667
v 21.403676 3.000000 12.311667
v 20.761565 0.000000 12.311667
v -20.890256 0.000000 21.953333
v -21.536347 3.000000 21.953333
v -21.320983 18.700000 21.953333
v 21.320983 18.700000 21.953333
v 21.536347 3.000000 21.953333
v 20.890256 0.000000 21.953333
v -20.997092 0.000000 31.595000
v -21.646487 3.000000 31.595000
v -21.430022 18.700000 31.595000
v 21.430022 18.700000 31.595000
v 21.646487 3.000000 31.595000
v 20.997092 0.000000 31.595000
v -21.081657 0.000000 41.236667
v -21.733668 3.000000 41.236667
v -21.516331 18.700000 41.236667
v 21.516331 18.700000 41.236667
v 21.733668 3.000000 41.236667
v 21.081657 0.000000 41.236667
v -21.143625 0.000000 50.878333
v -21.797551 3.000000 50.878333
v -21.579576 18.700000 50.878333
v 21.579576 18.700000 50.878333
v 21.797551 3.000000 50.878333
v 21.143625 0.000000 50.878333
v -21.182752 0.000000 60.520000
v -21.837889 3.000000 60.520000
v -21.619510 18.700000 60.520000
v 21.619510 18.700000 60.520000
v 21.837889 3.000000 60.520000
v 21.182752 0.000000 60.520000
v -21.198889 0.000000 70.161667
v -21.854524 3.000000 70.161667
v -21.635979 18.700000 70.161667
v 21.635979 18.700000 70.161667
v 21.854524 3.000000 70.161667
v 21.198889 0.000000 70.161667
v -21.199350 0.000000 79.803333
v -21.855000 3.000000 79.803333
v -21.636450 18.700000 79.803333
v 21.636450 18.700000 79.803333
v 21.855000 3.000000 79.803333
v 21.199350 0.000000 79.803333
v -21.199350 0.000000 89.445000
v -21.855000 3.000000 89.445000
v -21.636450 18.700000 89.445000
v 21.636450 18.700000 89.445000
v 21.855000 3.000000 89.445000
v 21.199350 0.000000 89.445000
v -20.784784 0.000000 99.086667
v -21.427612 3.000000 99.086667
v -21.213336 18.700000 99.086667
v 21.213336 18.700000 99.086667
v 21.427612 3.000000 99.086667
v 20.784784 0.000000 99.086667
v -19.498800 0.000000 108.728333
v -20.101856 3.000000 108.728333
v -19.900837 18.700000 108.728333
v 19.900837 18.700000 108.728333
v 20.101856 3.000000 108.728333
v 19.498800 0.000000 108.728333
v -17.726152 0.000000 118.370000
v -18.274383 3.000000 118.370000
v -18.091640 18.700000 118.370000
v 18.091640 18.700000 118.370000
v 18.274383 3.000000 118.370000
v 17.726152 0.000000 118.370000
v -15.576251 0.000000 128.011667
v -16.057991 3.000000 128.011667
v -15.897411 18.700000 128.011667
v 15.897411 18.700000 128.011667
v 16.057991 3.000000 128.011667
v 15.576251 0.000000 128.011667
v -13.106516 0.000000 137.653333
v -13.511872 3.000000 137.653333
v -13.376753 18.700000 137.653333
v 13.376753 18.700000 137.653333
v 13.511872 3.000000 137.653333
v 13.106516 0.000000 137.653333
v -10.354031 0.000000 147.295000
v -10.674259 3.000000 147.295000
v -10.567516 18.700000 147.295000
v 10.567516 18.700000 147.295000
v 10.674259 3.000000 147.295000
v 10.354031 0.000000 147.295000
v -7.345331 0.000000 156.936667
v -7.572506 3.000000 156.936667
v -7.496781 18.700000 156.936667
v 7.496781 18.700000 156.936667
v 7.572506 3.000000 156.936667
v 7.345331 0.000000 156.936667
v -4.100626 0.000000 166.578333
v -4.227449 3.000000 166.578333
v -4.185175 18.700000 166.578333
v 4.185175 18.700000 166.578333
v 4.227449 3.000000 166.578333
v 4.100626 0.000000 166.578333
v -0.635980 0.000000 176.220000
v -0.655650 3.000000 176.220000
v -0.649093 18.700000 176.220000
v 0.649093 18.700000 176.220000
v 0.655650 3.000000 176.220000
v 0.635980 0.000000 176.220000
f 7 8 2
f 7 2 1
f 8 9 3
f 8 3 2
f 9 10 4
f 9 4 3
f 10 11 5
f 10 5 4
f 11 12 6
f 11 6 5
f 12 7 1
f 12 1 6
f 13 14 8
f 13 8 7
f 14 15 9
f 14 9 8
f 15 16 10
f 15 10 9
f 16 17 11
f 16 11 10
f 17 18 12
f 17 12 11
f 18 13 7
f 18 7 12
f 19 20 14
f 19 14 13
f 20 21 15
f 20 15 14
f 21 22 16
f 21 16 15
f 22 23 17
f 22 17 16
f 23 24 18
f 23 18 17
f 24 19 13
f 24 13 18
f 25 26 20
f 25 20 19
f 26 27 21
f 26 21 20
f 27 28 22
f 27 22 21
f 28 29 23
f 28 23 22
f 29 30 24
f 29 24 23
f 30 25 19
f 30 19 24
f 31 32 26
f 31 26 25
f 32 33 27
f 32 27 26
f 33 34 28
f 33 28 27
f 34 35 29
f 34 29 28
f 35 36 30
f 35 30 29
f 36 31 25
f 36 25 30
f 37 38 32
f 37 32 31
f 38 39 33
f 38 33 32
f 39 40 34
f 39 34 33
f 40 41 35
f 40 35 34
f 41 42 36
f 41 36 35
f 42 37 31
f 42 31 36
f 43 44 38
f 43 38 37
f 44 45 39
f 44 39 38
f 45 46 40
f 45 40 39
f 46 47 41
f 46 41 40
f 47 48 42
f 47 42 41
f 48 43 37
f 48 37 42
f 49 50 44
f 49 44 43
f 50 51 45
f 50 45 44
f 51 52 46
f 51 46 45
f 52 53 47
f 52 47 46
f 53 54 48
f 53 48 47
f 54 49 43
f 54 43 48
f 55 56 50
f 55 50 49
f 56 57 51
f 56 51 50
f 57 58 52
f 57 52 51
f 58 59 53
f 58 53 52
f 59 60 54
f 59 54 53
f 60 55 49
f 60 49 54
f 61 62 56
f 61 56 55
f 62 63 57
f 62 57 56
f 63 64 58
f 63 58 57
f 64 65 59
f 64 59 58
f 65 66 60
f 65 60 59
f 66 61 55
f 66 55 60
f 67 68 62
f 67 62 61
f 68 69 63
f 68 63 62
f 69 70 64
f 69 64 63
f 70 71 65
f 70 65 64
f 71 72 66
f 71 66 65
f 72 67 61
f 72 61 66
f 73 74 68
f 73 68 67
f 74 75 69
f 74 69 68
f 75 76 70
f 75 70 69
f 76 77 71
f 76 71 70
f 77 78 72
f 77 72 71
f 78 73 67
f 78 67 72
f 79 80 74
f 79 74 73
f 80 81 75
f 80 75 74
f 81 82 76
f 81 76 75
f 82 83 77
f 82 77 76
f 83 84 78
f 83 78 77
f 84 79 73
f 84 73 78
f 85 86 80
f 85 80 79
f 86 87 81
f 86 81 80
f 87 88 82
f 87 82 81
f 88 89 83
f 88 83 82
f 89 90 84
f 89 84 83
f 90 85 79
f 90 79 84
f 91 92 86
f 91 86 85
f 92 93 87
f 92 87 86
f 93 94 88
f 93 88 87
f 94 95 89
f 94 89 88
f 95 96 90
f 95 90 89
f 96 91 85
f 96 85 90
f 97 98 92
f 97 92 91
f 98 99 93
f 98 93 92
f 99 100 94
f 99 94 93
f 100 101 95
f 100 95 94
f 101 102 96
f 101 96 95
f 102 97 91
f 102 91 96
f 103 104 98
f 103 98 97
f 104 105 99
f 104 99 98
f 105 106 100
f 105 100 99
f 106 107 101
f 106 101 100
f 107 108 102
f 107 102 101
f 108 103 97
f 108 97 102
f 109 110 104
f 109 104 103
f 110 111 105
f 110 105 104
f 111 112 106
f 111 106 105
f 112 113 107
f 112 107 106
f 113 114 108
f 113 108 107
f 114 109 103
f 114 103 108
f 115 116 110
f 115 110 109
f 116 117 111
f 116 111 110
f 117 118 112
f 117 112 111
f 118 119 113
f 118 113 112
f 119 120 114
f 119 114 113
f 120 115 109
f 120 109 114
f 121 122 116
f 121 116 115
f 122 123 117
f 122 117 116
f 123 124 118
f 123 118 117
f 124 125 119
f 124 119 118
f 125 126 120
f 125 120 119
f 126 121 115
f 126 115 120
f 127 128 122
f 127 122 121
f 128 129 123
f 128 123 122
f 129 130 124
f 129 124 123
f 130 131 125
f 130 125 124
f 131 132 126
f 131 126 125
f 132 127 121
f 132 121 126
f 133 134 128
f 133 128 127
f 134 135 129
f 134 129 128
f 135 136 130
f 135 130 129
f 136 137 131
f 136 131 130
f 137 138 132
f 137 132 131
f 138 133 127
f 138 127 132
f 139 140 134
f 139 134 133
f 140 141 135
f 140 135 134
f 141 142 136
f 141 136 135
f 142 143 137
f 142 137 136
f 143 144 138
f 143 138 137
f 144 139 133
f 144 133 138
f 145 146 140
f 145 140 139
f 146 147 141
f 146 141 140
f 147 148 142
f 147 142 141
f 148 149 143
f 148 143 142
f 149 150 144
f 149 144 143
f 150 145 139
f 150 139 144
f 151 152 146
f 151 146 145
f 152 153 147
f 152 147 146
f 153 154 148
f 153 148 147
f 154 155 149
f 154 149 148
f 155 156 150
f 155 150 149
f 156 151 145
f 156 145 150
f 157 158 152
f 157 152 151
f 158 159 153
f 158 153 152
f 159 160 154
f 159 154 153
f 160 161 155
f 160 155 154
f 161 162 156
f 161 156 155
f 162 157 151
f 162 151 156
f 163 164 158
f 163 158 157
f 164 165 159
f 164 159 158
f 165 166 160
f 165 160 159
f 166 167 161
f 166 161 160
f 167 168 162
f 167 162 161
f 168 163 157
f 168 157 162
f 169 170 164
f 169 164 163
f 170 171 165
f 170 165 164
f 171 172 166
f 171 166 165
f 172 173 167
f 172 167 166
f 173 174 168
f 173 168 167
f 174 169 163
f 174 163 168
f 175 176 170
f 175 170 169
f 176 177 171
f 176 171 170
f 177 178 172
f 177 172 171
f 178 179 173
f 178 173 172
f 179 180 174
f 179 174 173
f 180 175 169
f 180 169 174
f 181 182 176
f 181 176 175
f 182 183 177
f 182 177 176
f 183 184 178
f 183 178 177
f 184 185 179
f 184 179 178
f 185 186 180
f 185 180 179
f 186 181 175
f 186 175 180
f 187 188 182
f 187 182 181
f 188 189 183
f 188 183 182
f 189 190 184
f 189 184 183
f 190 191 185
f 190 185 184
f 191 192 186
f 191 186 185
f 192 187 181
f 192 181 186
f 193 194 188
f 193 188 187
f 194 195 189
f 194 189 188
f 195 196 190
f 195 190 189
f 196 197 191
f 196 191 190
f 197 198 192
f 197 192 191
f 198 193 187
f 198 187 192
f 199 200 194
f 199 194 193
f 200 201 195
f 200 195 194
f 201 202 196
f 201 196 195
f 202 203 197
f 202 197 196
f 203 204 198
f 203 198 197
f 204 199 193
f 204 193 198
f 205 206 200
f 205 200 199
f 206 207 201
f 206 201 200
f 207 208 202
f 207 202 201
f 208 209 203
f 208 203 202
f 209 210 204
f 209 204 203
f 210 205 199
f 210 199 204
f 211 212 206
f 211 206 205
f 212 213 207
f 212 207 206
f 213 214 208
f 213 208 207
f 214 215 209
f 214 209 208
f 215 216 210
f 215 210 209
f 216 211 205
f 216 205 210
f 217 218 212
f 217 212 211
f 218 219 213
f 218 213 212
f 219 220 214
f 219 214 213
f 220 221 215
f 220 215 214
f 221 222 216
f 221 216 215
f 222 217 211
f 222 211 216
f 1 2 3
f 1 3 4
f 1 4 5
f 1 5 6
f 222 221 220
f 222 220 219
f 222 219 218
f 222 218 217
o UnderwaterHull
usemtl underwater
v -9.441360 -8.500000 -170.880000
v -14.634108 -3.000000 -170.880000
v -15.263532 0.000000 -170.880000
v 15.263532 0.000000 -170.880000
v 14.634108 -3.000000 -170.880000
v 9.441360 -8.500000 -170.880000
v -9.670077 -8.500000 -161.238333
v -14.988619 -3.000000 -161.238333
v -15.633291 0.000000 -161.238333
v 15.633291 0.000000 -161.238333
v 14.988619 -3.000000 -161.238333
v 9.670077 -8.500000 -161.238333
v -9.897905 -8.500000 -151.596667
v -15.341753 -3.000000 -151.596667
v -16.001614 0.000000 -151.596667
v 16.001614 0.000000 -151.596667
v 15.341753 -3.000000 -151.596667
v 9.897905 -8.500000 -151.596667
v -10.123960 -8.500000 -141.955000
v -15.692139 -3.000000 -141.955000
v -16.367069 0.000000 -141.955000
v 16.367069 0.000000 -141.955000
v 15.692139 -3.000000 -141.955000
v 10.123960 -8.500000 -141.955000
v -10.347364 -8.500000 -132.313333
v -16.038415 -3.000000 -132.313333
v -16.728239 0.000000 -132.313333
v 16.728239 0.000000 -132.313333
v 16.038415 -3.000000 -132.313333
v 10.347364 -8.500000 -132.313333
v -10.567249 -8.500000 -122.671667
v -16.379236 -3.000000 -122.671667
v -17.083719 0.000000 -122.671667
v 17.083719 0.000000 -122.671667
v 16.379236 -3.000000 -122.671667
v 10.567249 -8.500000 -122.671667
v -10.782761 -8.500000 -113.030000
v -16.713279 -3.000000 -113.030000
v -17.432130 0.000000 -113.030000
v 17.432130 0.000000 -113.030000
v 16.713279 -3.000000 -113.030000
v 10.782761 -8.500000 -113.030000
v -10.993062 -8.500000 -103.388333
v -17.039246 -3.000000 -103.388333
v -17.772117 0.000000 -103.388333
v 17.772117 0.000000 -103.388333
v 17.039246 -3.000000 -103.388333
v 10.993062 -8.500000 -103.388333
v -11.197336 -8.500000 -93.746667
v -17.355871 -3.000000 -93.746667
v -18.102361 0.000000 -93.746667
v 18.102361 0.000000 -93.746667
v 17.355871 -3.000000 -93.746667
v 11.197336 -8.500000 -93.746667
v -11.394790 -8.500000 -84.105000
v -17.661925 -3.000000 -84.105000
v -18.421578 0.000000 -84.105000
v 18.421578 0.000000 -84.105000
v 17.661925 -3.000000 -84.105000
v 11.394790 -8.500000 -84.105000
v -11.584657 -8.500000 -74.463333
v -17.956218 -3.000000 -74.463333
v -18.728528 0.000000 -74.463333
v 18.728528 0.000000 -74.463333
v 17.956218 -3.000000 -74.463333
v 11.584657 -8.500000 -74.463333
v -11.766198 -8.500000 -64.821667
v -18.237607 -3.000000 -64.821667
v -19.022020 0.000000 -64.821667
v 19.022020 0.000000 -64.821667
v 18.237607 -3.000000 -64.821667
v 11.766198 -8.500000 -64.821667
v -11.938709 -8.500000 -55.180000
v -18.505000 -3.000000 -55.180000
v -19.300914 0.000000 -55.180000
v 19.300914 0.000000 -55.180000
v 18.505000 -3.000000 -55.180000
v 11.938709 -8.500000 -55.180000
v -12.101521 -8.500000 -45.538333
v -18.757357 -3.000000 -45.538333
v -19.564125 0.000000 -45.538333
v 19.564125 0.000000 -45.538333
v 18.757357 -3.000000 -45.538333
v 12.101521 -8.500000 -45.538333
v -12.253999 -8.500000 -35.896667
v -18.993699 -3.000000 -35.896667
v -19.810632 0.000000 -35.896667
v 19.810632 0.000000 -35.896667
v 18.993699 -3.000000 -35.896667
v 12.253999 -8.500000 -35.896667
v -12.395553 -8.500000 -26.255000
v -19.213108 -3.000000 -26.255000
v -20.039478 0.000000 -26.255000
v 20.039478 0.000000 -26.255000
v 19.213108 -3.000000 -26.255000
v 12.395553 -8.500000 -26.255000
v -12.525633 -8.500000 -16.613333
v -19.414731 -3.000000 -16.613333
v -20.249773 0.000000 -16.613333
v 20.249773 0.000000 -16.613333
v 19.414731 -3.000000 -16.613333
v 12.525633 -8.500000 -16.613333
v -12.643732 -8.500000 -6.971667
v -19.597785 -3.000000 -6.971667
v -20.440701 0.000000 -6.971667
v 20.440701 0.000000 -6.971667
v 19.597785 -3.000000 -6.971667
v 12.643732 -8.500000 -6.971667
v -12.749393 -8.500000 2.670000
v -19.761560 -3.000000 2.670000
v -20.611519 0.000000 2.670000
v 20.611519 0.000000 2.670000
v 19.761560 -3.000000 2.670000
v 12.749393 -8.500000 2.670000
v -12.842205 -8.500000 12.311667
v -19.905418 -3.000000 12.311667
v -20.761565 0.000000 12.311667
v 20.761565 0.000000 12.311667
v 19.905418 -3.000000 12.311667
v 12.842205 -8.500000 12.311667
v -12.921808 -8.500000 21.953333
v -20.028802 -3.000000 21.953333
v -20.890256 0.000000 21.953333
v 20.890256 0.000000 21.953333
v 20.028802 -3.000000 21.953333
v 12.921808 -8.500000 21.953333
v -12.987892 -8.500000 31.595000
v -20.131232 -3.000000 31.595000
v -20.997092 0.000000 31.595000
v 20.997092 0.000000 31.595000
v 20.131232 -3.000000 31.595000
v 12.987892 -8.500000 31.595000
v -13.040201 -8.500000 41.236667
v -20.212311 -3.000000 41.236667
v -21.081657 0.000000 41.236667
v 21.081657 0.000000 41.236667
v 20.212311 -3.000000 41.236667
v 13.040201 -8.500000 41.236667
v -13.078531 -8.500000 50.878333
v -20.271722 -3.000000 50.878333
v -21.143625 0.000000 50.878333
v 21.143625 0.000000 50.878333
v 20.271722 -3.000000 50.878333
v 13.078531 -8.500000 50.878333
v -13.102733 -8.500000 60.520000
v -20.309237 -3.000000 60.520000
v -21.182752 0.000000 60.520000
v 21.182752 0.000000 60.520000
v 20.309237 -3.000000 60.520000
v 13.102733 -8.500000 60.520000
v -13.112715 -8.500000 70.161667
v -20.324708 -3.000000 70.161667
v -21.198889 0.000000 70.161667
v 21.198889 0.000000 70.161667
v 20.324708 -3.000000 70.161667
v 13.112715 -8.500000 70.161667
v -13.113000 -8.500000 79.803333
v -20.325150 -3.000000 79.803333
v -21.199350 0.000000 79.803333
v 21.199350 0.000000 79.803333
v 20.325150 -3.000000 79.803333
v 13.113000 -8.500000 79.803333
v -13.113000 -8.500000 89.445000
v -20.325150 -3.000000 89.445000
v -21.199350 0.000000 89.445000
v 21.199350 0.000000 89.445000
v 20.325150 -3.000000 89.445000
v 13.113000 -8.500000 89.445000
v -12.856567 -8.500000 99.086667
v -19.927680 -3.000000 99.086667
v -20.784784 0.000000 99.086667
v 20.784784 0.000000 99.086667
v 19.927680 -3.000000 99.086667
v 12.856567 -8.500000 99.086667
v -12.061113 -8.500000 108.728333
v -18.694726 -3.000000 108.728333
v -19.498800 0.000000 108.728333
v 19.498800 0.000000 108.728333
v 18.694726 -3.000000 108.728333
v 12.061113 -8.500000 108.728333
v -10.964630 -8.500000 118.370000
v -16.995177 -3.000000 118.370000
v -17.726152 0.000000 118.370000
v 17.726152 0.000000 118.370000
v 16.995177 -3.000000 118.370000
v 10.964630 -8.500000 118.370000
v -9.634794 -8.500000 128.011667
v -14.933931 -3.000000 128.011667
v -15.576251 0.000000 128.011667
v 15.576251 0.000000 128.011667
v 14.933931 -3.000000 128.011667
v 9.634794 -8.500000 128.011667
v -8.107123 -8.500000 137.653333
v -12.566041 -3.000000 137.653333
v -13.106516 0.000000 137.653333
v 13.106516 0.000000 137.653333
v 12.566041 -3.000000 137.653333
v 8.107123 -8.500000 137.653333
v -6.404555 -8.500000 147.295000
v -9.927061 -3.000000 147.295000
v -10.354031 0.000000 147.295000
v 10.354031 0.000000 147.295000
v 9.927061 -3.000000 147.295000
v 6.404555 -8.500000 147.295000
v -4.543504 -8.500000 156.936667
v -7.042431 -3.000000 156.936667
v -7.345331 0.000000 156.936667
v 7.345331 0.000000 156.936667
v 7.042431 -3.000000 156.936667
v 4.543504 -8.500000 156.936667
v -2.536470 -8.500000 166.578333
v -3.931528 -3.000000 166.578333
v -4.100626 0.000000 166.578333
v 4.100626 0.000000 166.578333
v 3.931528 -3.000000 166.578333
v 2.536470 -8.500000 166.578333
v -0.393390 -8.500000 176.220000
v -0.609754 -3.000000 176.220000
v -0.635980 0.000000 176.220000
v 0.635980 0.000000 176.220000
v 0.609754 -3.000000 176.220000
v 0.393390 -8.500000 176.220000
f 229 230 224
f 229 224 223
f 230 231 225
f 230 225 224
f 231 232 226
f 231 226 225
f 232 233 227
f 232 227 226
f 233 234 228
f 233 228 227
f 234 229 223
f 234 223 228
f 235 236 230
f 235 230 229
f 236 237 231
f 236 231 230
f 237 238 232
f 237 232 231
f 238 239 233
f 238 233 232
f 239 240 234
f 239 234 233
f 240 235 229
f 240 229 234
f 241 242 236
f 241 236 235
f 242 243 237
f 242 237 236
f 243 244 238
f 243 238 237
f 244 245 239
f 244 239 238
f 245 246 240
f 245 240 239
f 246 241 235
f 246 235 240
f 247 248 242
f 247 242 241
f 248 249 243
f 248 243 242
f 249 250 244
f 249 244 243
f 250 251 245
f 250 245 244
f 251 252 246
f 251 246 245
f 252 247 241
f 252 241 246
f 253 254 248
f 253 248 247
f 254 255 249
f 254 249 248
f 255 256 250
f 255 250 249
f 256 257 251
f 256 251 250
f 257 258 252
f 257 252 251
f 258 253 247
f 258 247 252
f 259 260 254
f 259 254 253
f 260 261 255
f 260 255 254
f 261 262 256
f 261 256 255
f 262 263 257
f 262 257 256
f 263 264 258
f 263 258 257
f 264 259 253
f 264 253 258
f 265 266 260
f 265 260 259
f 266 267 261
f 266 261 260
f 267 268 262
f 267 262 261
f 268 269 263
f 268 263 262
f 269 270 264
f 269 264 263
f 270 265 259
f 270 259 264
f 271 272 266
f 271 266 265
f 272 273 267
f 272 267 266
f 273 274 268
f 273 268 267
f 274 275 269
f 274 269 268
f 275 276 270
f 275 270 269
f 276 271 265
f 276 265 270
f 277 278 272
f 277 272 271
f 278 279 273
f 278 273 272
f 279 280 274
f 279 274 273
f 280 281 275
f 280 275 274
f 281 282 276
f 281 276 275
f 282 277 271
f 282 271 276
f 283 284 278
f 283 278 277
f 284 285 279
f 284 279 278
f 285 286 280
f 285 280 279
f 286 287 281
f 286 281 280
f 287 288 282
f 287 282 281
f 288 283 277
f 288 277 282
f 289 290 284
f 289 284 283
f 290 291 285
f 290 285 284
f 291 292 286
f 291 286 285
f 292 293 287
f 292 287 286
f 293 294 288
f 293 288 287
f 294 289 283
f 294 283 288
f 295 296 290
f 295 290 289
f 296 297 291
f 296 291 290
f 297 298 292
f 297 292 291
f 298 299 293
f 298 293 292
f 299 300 294
f 299 294 293
f 300 295 289
f 300 289 294
f 301 302 296
f 301 296 295
f 302 303 297
f 302 297 296
f 303 304 298
f 303 298 297
f 304 305 299
f 304 299 298
f 305 306 300
f 305 300 299
f 306 301 295
f 306 295 300
f 307 308 302
f 307 302 301
f 308 309 303
f 308 303 302
f 309 310 304
f 309 304 303
f 310 311 305
f 310 305 304
f 311 312 306
f 311 306 305
f 312 307 301
f 312 301 306
f 313 314 308
f 313 308 307
f 314 315 309
f 314 309 308
f 315 316 310
f 315 310 309
f 316 317 311
f 316 311 310
f 317 318 312
f 317 312 311
f 318 313 307
f 318 307 312
f 319 320 314
f 319 314 313
f 320 321 315
f 320 315 314
f 321 322 316
f 321 316 315
f 322 323 317
f 322 317 316
f 323 324 318
f 323 318 317
f 324 319 313
f 324 313 318
f 325 326 320
f 325 320 319
f 326 327 321
f 326 321 320
f 327 328 322
f 327 322 321
f 328 329 323
f 328 323 322
f 329 330 324
f 329 324 323
f 330 325 319
f 330 319 324
f 331 332 326
f 331 326 325
f 332 333 327
f 332 327 326
f 333 334 328
f 333 328 327
f 334 335 329
f 334 329 328
f 335 336 330
f 335 330 329
f 336 331 325
f 336 325 330
f 337 338 332
f 337 332 331
f 338 339 333
f 338 333 332
f 339 340 334
f 339 334 333
f 340 341 335
f 340 335 334
f 341 342 336
f 341 336 335
f 342 337 331
f 342 331 336
f 343 344 338
f 343 338 337
f 344 345 339
f 344 339 338
f 345 346 340
f 345 340 339
f 346 347 341
f 346 341 340
f 347 348 342
f 347 342 341
f 348 343 337
f 348 337 342
f 349 350 344
f 349 344 343
f 350 351 345
f 350 345 344
f 351 352 346
f 351 346 345
f 352 353 347
f 352 347 346
f 353 354 348
f 353 348 347
f 354 349 343
f 354 343 348
f 355 356 350
f 355 350 349
f 356 357 351
f 356 351 350
f 357 358 352
f 357 352 351
f 358 359 353
f 358 353 352
f 359 360 354
f 359 354 353
f 360 355 349
f 360 349 354
f 361 362 356
f 361 356 355
f 362 363 357
f 362 357 356
f 363 364 358
f 363 358 357
f 364 365 359
f 364 359 358
f 365 366 360
f 365 360 359
f 366 361 355
f 366 355 360
f 367 368 362
f 367 362 361
f 368 369 363
f 368 363 362
f 369 370 364
f 369 364 363
f 370 371 365
f 370 365 364
f 371 372 366
f 371 366 365
f 372 367 361
f 372 361 366
f 373 374 368
f 373 368 367
f 374 375 369
f 374 369 368
f 375 376 370
f 375 370 369
f 376 377 371
f 376 371 370
f 377 378 372
f 377 372 371
f 378 373 367
f 378 367 372
f 379 380 374
f 379 374 373
f 380 381 375
f 380 375 374
f 381 382 376
f 381 376 375
f 382 383 377
f 382 377 376
f 383 384 378
f 383 378 377
f 384 379 373
f 384 373 378
f 385 386 380
f 385 380 379
f 386 387 381
f 386 381 380
f 387 388 382
f 387 382 381
f 388 389 383
f 388 383 382
f 389 390 384
f 389 384 383
f 390 385 379
f 390 379 384
f 391 392 386
f 391 386 385
f 392 393 387
f 392 387 386
f 393 394 388
f 393 388 387
f 394 395 389
f 394 389 388
f 395 396 390
f 395 390 389
f 396 391 385
f 396 385 390
f 397 398 392
f 397 392 391
f 398 399 393
f 398 393 392
f 399 400 394
f 399 394 393
f 400 401 395
f 400 395 394
f 401 402 396
f 401 396 395
f 402 397 391
f 402 391 396
f 403 404 398
f 403 398 397
f 404 405 399
f 404 399 398
f 405 406 400
f 405 400 399
f 406 407 401
f 406 401 400
f 407 408 402
f 407 402 401
f 408 403 397
f 408 397 402
f 409 410 404
f 409 404 403
f 410 411 405
f 410 405 404
f 411 412 406
f 411 406 405
f 412 413 407
f 412 407 406
f 413 414 408
f 413 408 407
f 414 409 403
f 414 403 408
f 415 416 410
f 415 410 409
f 416 417 411
f 416 411 410
f 417 418 412
f 417 412 411
f 418 419 413
f 418 413 412
f 419 420 414
f 419 414 413
f 420 415 409
f 420 409 414
f 421 422 416
f 421 416 415
f 422 423 417
f 422 417 416
f 423 424 418
f 423 418 417
f 424 425 419
f 424 419 418
f 425 426 420
f 425 420 419
f 426 421 415
f 426 415 420
f 427 428 422
f 427 422 421
f 428 429 423
f 428 423 422
f 429 430 424
f 429 424 423
f 430 431 425
f 430 425 424
f 431 432 426
f 431 426 425
f 432 427 421
f 432 421 426
f 433 434 428
f 433 428 427
f 434 435 429
f 434 429 428
f 435 436 430
f 435 430 429
f 436 437 431
f 436 431 430
f 437 438 432
f 437 432 431
f 438 433 427
f 438 427 432
f 439 440 434
f 439 434 433
f 440 441 435
f 440 435 434
f 441 442 436
f 441 436 435
f 442 443 437
f 442 437 436
f 443 444 438
f 443 438 437
f 444 439 433
f 444 433 438
f 223 224 225
f 223 225 226
f 223 226 227
f 223 227 228
f 444 443 442
f 444 442 441
f 444 441 440
f 444 440 439
o FlightDeck
usemtl deck
v -33.480000 19.000000 -178.000000
v 32.550000 19.000000 -178.000000
v 45.570000 19.000000 -135.280000
v 45.570000 19.000000 106.800000
v 35.340000 19.000000 178.000000
v -31.620000 19.000000 178.000000
v -44.640000 19.000000 110.360000
v -51.150000 19.000000 -42.720000
v -50.220000 19.000000 -113.920000
v -33.480000 20.000000 -178.000000
v 32.550000 20.000000 -178.000000
v 45.570000 20.000000 -135.280000
v 45.570000 20.000000 106.800000
v 35.340000 20.000000 178.000000
v -31.620000 20.000000 178.000000
v -44.640000 20.000000 110.360000
v -51.150000 20.000000 -42.720000
v -50.220000 20.000000 -113.920000
f 453 445 446
f 453 446 447
f 453 447 448
f 453 448 449
f 453 449 450
f 453 450 451
f 451 452 453
f 455 454 462
f 456 455 462
f 457 456 462
f 458 457 462
f 459 458 462
f 460 459 462
f 462 461 460
f 445 454 455
f 445 455 446
f 446 455 456
f 446 456 447
f 447 456 457
f 447 457 448
f 448 457 458
f 448 458 449
f 449 458 459
f 449 459 450
f 450 459 460
f 450 460 451
f 451 460 461
f 451 461 452
f 452 461 462
f 452 462 453
f 453 462 454
f 453 454 445
o Island
usemtl island
v 28.365000 20.000000 -64.080000
v 39.525000 20.000000 -64.080000
v 39.525000 28.000000 -64.080000
v 28.365000 28.000000 -64.080000
v 28.365000 20.000000 7.120000
v 39.525000 20.000000 7.120000
v 39.525000 28.000000 7.120000
v 28.365000 28.000000 7.120000
f 463 466 465
f 463 465 464
f 467 468 469
f 467 469 470
f 463 464 468
f 463 468 467
f 466 470 469
f 466 469 465
f 463 467 470
f 463 470 466
f 464 465 469
f 464 469 468
o Bridge
usemtl island
v 25.110000 28.000000 -30.260000
v 39.990000 28.000000 -30.260000
v 39.990000 32.000000 -30.260000
v 25.110000 32.000000 -30.260000
v 25.110000 28.000000 -1.780000
v 39.990000 28.000000 -1.780000
v 39.990000 32.000000 -1.780000
v 25.110000 32.000000 -1.780000
f 471 474 473
f 471 473 472
f 475 476 477
f 475 477 478
f 471 472 476
f 471 476 475
f 474 478 477
f 474 477 473
f 471 475 478
f 471 478 474
f 472 473 477
f 472 477 476
o BridgeGlass
usemtl glass
v 24.942000 29.150000 -28.480000
v 25.092000 29.150000 -28.480000
v 25.092000 30.850000 -28.480000
v 24.942000 30.850000 -28.480000
v 24.942000 29.150000 -3.560000
v 25.092000 29.150000 -3.560000
v 25.092000 30.850000 -3.560000
v 24.942000 30.850000 -3.560000
f 479 482 481
f 479 481 480
f 483 484 485
f 483 485 486
f 479 480 484
f 479 484 483
f 482 486 485
f 482 485 481
f 479 483 486
f 479 486 482
f 480 481 485
f 480 485 484
o Mast
usemtl island
v 35.145000 32.000000 -32.480000
v 35.053655 32.000000 -32.020780
v 34.793528 32.000000 -31.631472
v 34.404220 32.000000 -31.371345
v 33.945000 32.000000 -31.280000
v 33.485780 32.000000 -31.371345
v 33.096472 32.000000 -31.631472
v 32.836345 32.000000 -32.020780
v 32.745000 32.000000 -32.480000
v 32.836345 32.000000 -32.939220
v 33.096472 32.000000 -33.328528
v 33.485780 32.000000 -33.588655
v 33.945000 32.000000 -33.680000
v 34.404220 32.000000 -33.588655
v 34.793528 32.000000 -33.328528
v 35.053655 32.000000 -32.939220
v 35.145000 46.000000 -32.480000
v 35.053655 46.000000 -32.020780
v 34.793528 46.000000 -31.631472
v 34.404220 46.000000 -31.371345
v 33.945000 46.000000 -31.280000
v 33.485780 46.000000 -31.371345
v 33.096472 46.000000 -31.631472
v 32.836345 46.000000 -32.020780
v 32.745000 46.000000 -32.480000
v 32.836345 46.000000 -32.939220
v 33.096472 46.000000 -33.328528
v 33.485780 46.000000 -33.588655
v 33.945000 46.000000 -33.680000
v 34.404220 46.000000 -33.588655
v 34.793528 46.000000 -33.328528
v 35.053655 46.000000 -32.939220
f 502 487 488
f 502 488 489
f 502 489 490
f 502 490 491
f 502 491 492
f 502 492 493
f 502 493 494
f 502 494 495
f 502 495 496
f 502 496 497
f 502 497 498
f 502 498 499
f 502 499 500
f 500 501 502
f 504 503 518
f 505 504 518
f 506 505 518
f 507 506 518
f 508 507 518
f 509 508 518
f 510 509 518
f 511 510 518
f 512 511 518
f 513 512 518
f 514 513 518
f 515 514 518
f 516 515 518
f 518 517 516
f 487 503 504
f 487 504 488
f 488 504 505
f 488 505 489
f 489 505 506
f 489 506 490
f 490 506 507
f 490 507 491
f 491 507 508
f 491 508 492
f 492 508 509
f 492 509 493
f 493 509 510
f 493 510 494
f 494 510 511
f 494 511 495
f 495 511 512
f 495 512 496
f 496 512 513
f 496 513 497
f 497 513 514
f 497 514 498
f 498 514 515
f 498 515 499
f 499 515 516
f 499 516 500
f 500 516 517
f 500 517 501
f 501 517 518
f 501 518 502
f 502 518 503
f 502 503 487
o AirRadar
usemtl dark
v 26.970000 45.500000 -32.830000
v 40.920000 45.500000 -32.830000
v 40.920000 48.500000 -32.830000
v 26.970000 48.500000 -32.830000
v 26.970000 45.500000 -32.130000
v 40.920000 45.500000 -32.130000
v 40.920000 48.500000 -32.130000
v 26.970000 48.500000 -32.130000
f 519 522 521
f 519 521 520
f 523 524 525
f 523 525 526
f 519 520 524
f 519 524 523
f 522 526 525
f 522 525 521
f 519 523 526
f 519 526 522
f 520 521 525
f 520 525 524
o SurfaceRadar
usemtl dark
v 29.295000 39.550000 -14.490000
v 38.595000 39.550000 -14.490000
v 38.595000 40.450000 -14.490000
v 29.295000 40.450000 -14.490000
v 29.295000 39.550000 -13.990000
v 38.595000 39.550000 -13.990000
v 38.595000 40.450000 -13.990000
v 29.295000 40.450000 -13.990000
f 527 530 529
f 527 529 528
f 531 532 533
f 531 533 534
f 527 528 532
f 527 532 531
f 530 534 533
f 530 533 529
f 527 531 534
f 527 534 530
f 528 529 533
f 528 533 532
o Elevator_1
usemtl hull
v 28.200000 20.000000 71.880000
v 46.200000 20.000000 71.880000
v 46.200000 20.160000 71.880000
v 28.200000 20.160000 71.880000
v 28.200000 20.000000 91.880000
v 46.200000 20.000000 91.880000
v 46.200000 20.160000 91.880000
v 28.200000 20.160000 91.880000
f 535 538 537
f 535 537 536
f 539 540 541
f 539 541 542
f 535 536 540
f 535 540 539
f 538 542 541
f 538 541 537
f 535 539 542
f 535 542 538
f 536 537 541
f 536 541 540
o Elevator_2
usemtl hull
v 28.200000 20.000000 -74.080000
v 46.200000 20.000000 -74.080000
v 46.200000 20.160000 -74.080000
v 28.200000 20.160000 -74.080000
v 28.200000 20.000000 -54.080000
v 46.200000 20.000000 -54.080000
v 46.200000 20.160000 -54.080000
v 28.200000 20.160000 -54.080000
f 543 546 545
f 543 545 544
f 547 548 549
f 547 549 550
f 543 544 548
f 543 548 547
f 546 550 549
f 546 549 545
f 543 547 550
f 543 550 546
f 544 545 549
f 544 549 548
o Elevator_3
usemtl hull
v 28.200000 20.000000 -131.040000
v 46.200000 20.000000 -131.040000
v 46.200000 20.160000 -131.040000
v 28.200000 20.160000 -131.040000
v 28.200000 20.000000 -111.040000
v 46.200000 20.000000 -111.040000
v 46.200000 20.160000 -111.040000
v 28.200000 20.160000 -111.040000
f 551 554 553
f 551 553 552
f 555 556 557
f 555 557 558
f 551 552 556
f 551 556 555
f 554 558 557
f 554 557 553
f 551 555 558
f 551 558 554
f 552 553 557
f 552 557 556
o Elevator_4
usemtl hull
v -48.060000 20.000000 -88.320000
v -30.060000 20.000000 -88.320000
v -30.060000 20.160000 -88.320000
v -48.060000 20.160000 -88.320000
v -48.060000 20.000000 -68.320000
v -30.060000 20.000000 -68.320000
v -30.060000 20.160000 -68.320000
v -48.060000 20.160000 -68.320000
f 559 562 561
f 559 561 560
f 563 564 565
f 563 565 566
f 559 560 564
f 559 564 563
f 562 566 565
f 562 565 561
f 559 563 566
f 559 566 562
f 560 561 565
f 560 565 564
o Catapult_1
usemtl gold
v 12.670017 20.110000 85.443419
v 13.470017 20.110000 167.323419
v 14.169983 20.110000 167.316581
v 13.369983 20.110000 85.436581
v 12.670017 20.150000 85.443419
v 13.470017 20.150000 167.323419
v 14.169983 20.150000 167.316581
v 13.369983 20.150000 85.436581
f 567 570 569
f 569 568 567
f 573 574 571
f 571 572 573
f 568 572 571
f 568 571 567
f 569 573 572
f 569 572 568
f 570 574 573
f 570 573 569
f 567 571 574
f 567 574 570
o Catapult_2
usemtl gold
v -14.299983 20.110000 85.443419
v -13.499983 20.110000 167.323419
v -12.800017 20.110000 167.316581
v -13.600017 20.110000 85.436581
v -14.299983 20.150000 85.443419
v -13.499983 20.150000 167.323419
v -12.800017 20.150000 167.316581
v -13.600017 20.150000 85.436581
f 575 578 577
f 577 576 575
f 581 582 579
f 579 580 581
f 576 580 579
f 576 579 575
f 577 581 580
f 577 580 576
f 578 582 581
f 578 581 577
f 575 579 582
f 575 582 578
o Catapult_3
usemtl gold
v -28.249983 20.110000 -35.596581
v -27.449983 20.110000 46.283419
v -26.750017 20.110000 46.276581
v -27.550017 20.110000 -35.603419
v -28.249983 20.150000 -35.596581
v -27.449983 20.150000 46.283419
v -26.750017 20.150000 46.276581
v -27.550017 20.150000 -35.603419
f 583 586 585
f 585 584 583
f 589 590 587
f 587 588 589
f 584 588 587
f 584 587 583
f 585 589 588
f 585 588 584
f 586 590 589
f 586 589 585
f 583 587 590
f 583 590 586
o Catapult_4
usemtl gold
v -36.619983 20.110000 -35.596581
v -35.819983 20.110000 46.283419
v -35.120017 20.110000 46.276581
v -35.920017 20.110000 -35.603419
v -36.619983 20.150000 -35.596581
v -35.819983 20.150000 46.283419
v -35.120017 20.150000 46.276581
v -35.920017 20.150000 -35.603419
f 591 594 593
f 593 592 591
f 597 598 595
f 595 596 597
f 592 596 595
f 592 595 591
f 593 597 596
f 593 596 592
f 594 598 597
f 594 597 593
f 591 595 598
f 591 598 594
o LandingEdge_-1
usemtl white
v -0.963203 20.120000 -156.661121
v -40.023203 20.120000 71.178879
v -39.776797 20.120000 71.221121
v -0.716797 20.120000 -156.618879
v -0.963203 20.160000 -156.661121
v -40.023203 20.160000 71.178879
v -39.776797 20.160000 71.221121
v -0.716797 20.160000 -156.618879
f 599 602 601
f 601 600 599
f 605 606 603
f 603 604 605
f 600 604 603
f 600 603 599
f 601 605 604
f 601 604 600
f 602 606 605
f 602 605 601
f 599 603 606
f 599 606 602
o LandingEdge_1
usemtl white
v 23.036797 20.120000 -156.661121
v -16.023203 20.120000 71.178879
v -15.776797 20.120000 71.221121
v 23.283203 20.120000 -156.618879
v 23.036797 20.160000 -156.661121
v -16.023203 20.160000 71.178879
v -15.776797 20.160000 71.221121
v 23.283203 20.160000 -156.618879
f 607 610 609
f 609 608 607
f 613 614 611
f 611 612 613
f 608 612 611
f 608 611 607
f 609 613 612
f 609 612 608
f 610 614 613
f 610 613 609
f 607 611 614
f 607 614 610
o Centreline_0
usemtl white
v 10.987516 20.130000 -156.669570
v 9.732016 20.130000 -149.346141
v 10.076984 20.130000 -149.287002
v 11.332484 20.130000 -156.610430
v 10.987516 20.170000 -156.669570
v 9.732016 20.170000 -149.346141
v 10.076984 20.170000 -149.287002
v 11.332484 20.170000 -156.610430
f 615 618 617
f 617 616 615
f 621 622 619
f 619 620 621
f 616 620 619
f 616 619 615
f 617 621 620
f 617 620 616
f 618 622 621
f 618 621 617
f 615 619 622
f 615 622 618
o Centreline_1
usemtl white
v 8.197516 20.130000 -140.395284
v 6.942016 20.130000 -133.071856
v 7.286984 20.130000 -133.012716
v 8.542484 20.130000 -140.336144
v 8.197516 20.170000 -140.395284
v 6.942016 20.170000 -133.071856
v 7.286984 20.170000 -133.012716
v 8.542484 20.170000 -140.336144
f 623 626 625
f 625 624 623
f 629 630 627
f 627 628 629
f 624 628 627
f 624 627 623
f 625 629 628
f 625 628 624
f 626 630 629
f 626 629 625
f 623 627 630
f 623 630 626
o Centreline_2
usemtl white
v 5.407516 20.130000 -124.120998
v 4.152016 20.130000 -116.797570
v 4.496984 20.130000 -116.738430
v 5.752484 20.130000 -124.061859
v 5.407516 20.170000 -124.120998
v 4.152016 20.170000 -116.797570
v 4.496984 20.170000 -116.738430
v 5.752484 20.170000 -124.061859
f 631 634 633
f 633 632 631
f 637 638 635
f 635 636 637
f 632 636 635
f 632 635 631
f 633 637 636
f 633 636 632
f 634 638 637
f 634 637 633
f 631 635 638
f 631 638 634
o Centreline_3
usemtl white
v 2.617516 20.130000 -107.846713
v 1.362016 20.130000 -100.523284
v 1.706984 20.130000 -100.464144
v 2.962484 20.130000 -107.787573
v 2.617516 20.170000 -107.846713
v 1.362016 20.170000 -100.523284
v 1.706984 20.170000 -100.464144
v 2.962484 20.170000 -107.787573
f 639 642 641
f 641 640 639
f 645 646 643
f 643 644 645
f 640 644 643
f 640 643 639
f 641 645 644
f 641 644 640
f 642 646 645
f 642 645 641
f 639 643 646
f 639 646 642
o Centreline_4
usemtl white
v -0.172484 20.130000 -91.572427
v -1.427984 20.130000 -84.248998
v -1.083016 20.130000 -84.189859
v 0.172484 20.130000 -91.513287
v -0.172484 20.170000 -91.572427
v -1.427984 20.170000 -84.248998
v -1.083016 20.170000 -84.189859
v 0.172484 20.170000 -91.513287
f 647 650 649
f 649 648 647
f 653 654 651
f 651 652 653
f 648 652 651
f 648 651 647
f 649 653 652
f 649 652 648
f 650 654 653
f 650 653 649
f 647 651 654
f 647 654 650
o Centreline_5
usemtl white
v -2.962484 20.130000 -75.298141
v -4.217984 20.130000 -67.974713
v -3.873016 20.130000 -67.915573
v -2.617516 20.130000 -75.239002
v -2.962484 20.170000 -75.298141
v -4.217984 20.170000 -67.974713
v -3.873016 20.170000 -67.915573
v -2.617516 20.170000 -75.239002
f 655 658 657
f 657 656 655
f 661 662 659
f 659 660 661
f 656 660 659
f 656 659 655
f 657 661 660
f 657 660 656
f 658 662 661
f 658 661 657
f 655 659 662
f 655 662 658
o Centreline_6
usemtl white
v -5.752484 20.130000 -59.023856
v -7.007984 20.130000 -51.700427
v -6.663016 20.130000 -51.641287
v -5.407516 20.130000 -58.964716
v -5.752484 20.170000 -59.023856
v -7.007984 20.170000 -51.700427
v -6.663016 20.170000 -51.641287
v -5.407516 20.170000 -58.964716
f 663 666 665
f 665 664 663
f 669 670 667
f 667 668 669
f 664 668 667
f 664 667 663
f 665 669 668
f 665 668 664
f 666 670 669
f 666 669 665
f 663 667 670
f 663 670 666
o Centreline_7
usemtl white
v -8.542484 20.130000 -42.749570
v -9.797984 20.130000 -35.426141
v -9.453016 20.130000 -35.367002
v -8.197516 20.130000 -42.690430
v -8.542484 20.170000 -42.749570
v -9.797984 20.170000 -35.426141
v -9.453016 20.170000 -35.367002
v -8.197516 20.170000 -42.690430
f 671 674 673
f 673 672 671
f 677 678 675
f 675 676 677
f 672 676 675
f 672 675 671
f 673 677 676
f 673 676 672
f 674 678 677
f 674 677 673
f 671 675 678
f 671 678 674
o Centreline_8
usemtl white
v -11.332484 20.130000 -26.475284
v -12.587984 20.130000 -19.151856
v -12.243016 20.130000 -19.092716
v -10.987516 20.130000 -26.416144
v -11.332484 20.170000 -26.475284
v -12.587984 20.170000 -19.151856
v -12.243016 20.170000 -19.092716
v -10.987516 20.170000 -26.416144
f 679 682 681
f 681 680 679
f 685 686 683
f 683 684 685
f 680 684 683
f 680 683 679
f 681 685 684
f 681 684 680
f 682 686 685
f 682 685 681
f 679 683 686
f 679 686 682
o Centreline_9
usemtl white
v -14.122484 20.130000 -10.200998
v -15.377984 20.130000 -2.877570
v -15.033016 20.130000 -2.818430
v -13.777516 20.130000 -10.141859
v -14.122484 20.170000 -10.200998
v -15.377984 20.170000 -2.877570
v -15.033016 20.170000 -2.818430
v -13.777516 20.170000 -10.141859
f 687 690 689
f 689 688 687
f 693 694 691
f 691 692 693
f 688 692 691
f 688 691 687
f 689 693 692
f 689 692 688
f 690 694 693
f 690 693 689
f 687 691 694
f 687 694 690
o Centreline_10
usemtl white
v -16.912484 20.130000 6.073287
v -18.167984 20.130000 13.396716
v -17.823016 20.130000 13.455856
v -16.567516 20.130000 6.132427
v -16.912484 20.170000 6.073287
v -18.167984 20.170000 13.396716
v -17.823016 20.170000 13.455856
v -16.567516 20.170000 6.132427
f 695 698 697
f 697 696 695
f 701 702 699
f 699 700 701
f 696 700 699
f 696 699 695
f 697 701 700
f 697 700 696
f 698 702 701
f 698 701 697
f 695 699 702
f 695 702 698
o Centreline_11
usemtl white
v -19.702484 20.130000 22.347573
v -20.957984 20.130000 29.671002
v -20.613016 20.130000 29.730141
v -19.357516 20.130000 22.406713
v -19.702484 20.170000 22.347573
v -20.957984 20.170000 29.671002
v -20.613016 20.170000 29.730141
v -19.357516 20.170000 22.406713
f 703 706 705
f 705 704 703
f 709 710 707
f 707 708 709
f 704 708 707
f 704 707 703
f 705 709 708
f 705 708 704
f 706 710 709
f 706 709 705
f 703 707 710
f 703 710 706
o Centreline_12
usemtl white
v -22.492484 20.130000 38.621859
v -23.747984 20.130000 45.945287
v -23.403016 20.130000 46.004427
v -22.147516 20.130000 38.680998
v -22.492484 20.170000 38.621859
v -23.747984 20.170000 45.945287
v -23.403016 20.170000 46.004427
v -22.147516 20.170000 38.680998
f 711 714 713
f 713 712 711
f 717 718 715
f 715 716 717
f 712 716 715
f 712 715 711
f 713 717 716
f 713 716 712
f 714 718 717
f 714 717 713
f 711 715 718
f 711 718 714
o Centreline_13
usemtl white
v -25.282484 20.130000 54.896144
v -26.537984 20.130000 62.219573
v -26.193016 20.130000 62.278713
v -24.937516 20.130000 54.955284
v -25.282484 20.170000 54.896144
v -26.537984 20.170000 62.219573
v -26.193016 20.170000 62.278713
v -24.937516 20.170000 54.955284
f 719 722 721
f 721 720 719
f 725 726 723
f 723 724 725
f 720 724 723
f 720 723 719
f 721 725 724
f 721 724 720
f 722 726 725
f 722 725 721
f 719 723 726
f 719 726 722
o Sponson_1
usemtl hull
v -48.140000 18.100000 94.680000
v -41.140000 18.100000 94.680000
v -41.140000 19.500000 94.680000
v -48.140000 19.500000 94.680000
v -48.140000 18.100000 104.680000
v -41.140000 18.100000 104.680000
v -41.140000 19.500000 104.680000
v -48.140000 19.500000 104.680000
f 727 730 729
f 727 729 728
f 731 732 733
f 731 733 734
f 727 728 732
f 727 732 731
f 730 734 733
f 730 733 729
f 727 731 734
f 727 734 730
f 728 729 733
f 728 733 732
o AA_Base_1
usemtl island
v -42.840000 19.500000 99.680000
v -42.977017 19.500000 100.368830
v -43.367208 19.500000 100.952792
v -43.951170 19.500000 101.342983
v -44.640000 19.500000 101.480000
v -45.328830 19.500000 101.342983
v -45.912792 19.500000 100.952792
v -46.302983 19.500000 100.368830
v -46.440000 19.500000 99.680000
v -46.302983 19.500000 98.991170
v -45.912792 19.500000 98.407208
v -45.328830 19.500000 98.017017
v -44.640000 19.500000 97.880000
v -43.951170 19.500000 98.017017
v -43.367208 19.500000 98.407208
v -42.977017 19.500000 98.991170
v -42.840000 21.500000 99.680000
v -42.977017 21.500000 100.368830
v -43.367208 21.500000 100.952792
v -43.951170 21.500000 101.342983
v -44.640000 21.500000 101.480000
v -45.328830 21.500000 101.342983
v -45.912792 21.500000 100.952792
v -46.302983 21.500000 100.368830
v -46.440000 21.500000 99.680000
v -46.302983 21.500000 98.991170
v -45.912792 21.500000 98.407208
v -45.328830 21.500000 98.017017
v -44.640000 21.500000 97.880000
v -43.951170 21.500000 98.017017
v -43.367208 21.500000 98.407208
v -42.977017 21.500000 98.991170
f 750 735 736
f 750 736 737
f 750 737 738
f 750 738 739
f 750 739 740
f 750 740 741
f 750 741 742
f 750 742 743
f 750 743 744
f 750 744 745
f 750 745 746
f 750 746 747
f 750 747 748
f 748 749 750
f 752 751 766
f 753 752 766
f 754 753 766
f 755 754 766
f 756 755 766
f 757 756 766
f 758 757 766
f 759 758 766
f 760 759 766
f 761 760 766
f 762 761 766
f 763 762 766
f 764 763 766
f 766 765 764
f 735 751 752
f 735 752 736
f 736 752 753
f 736 753 737
f 737 753 754
f 737 754 738
f 738 754 755
f 738 755 739
f 739 755 756
f 739 756 740
f 740 756 757
f 740 757 741
f 741 757 758
f 741 758 742
f 742 758 759
f 742 759 743
f 743 759 760
f 743 760 744
f 744 760 761
f 744 761 745
f 745 761 762
f 745 762 746
f 746 762 763
f 746 763 747
f 747 763 764
f 747 764 748
f 748 764 765
f 748 765 749
f 749 765 766
f 749 766 750
f 750 766 751
f 750 751 735
o CIWS_Radome_1
usemtl white
v -43.840000 21.500000 99.680000
v -43.900896 21.500000 99.986147
v -44.074315 21.500000 100.245685
v -44.333853 21.500000 100.419104
v -44.640000 21.500000 100.480000
v -44.946147 21.500000 100.419104
v -45.205685 21.500000 100.245685
v -45.379104 21.500000 99.986147
v -45.440000 21.500000 99.680000
v -45.379104 21.500000 99.373853
v -45.205685 21.500000 99.114315
v -44.946147 21.500000 98.940896
v -44.640000 21.500000 98.880000
v -44.333853 21.500000 98.940896
v -44.074315 21.500000 99.114315
v -43.900896 21.500000 99.373853
v -43.840000 23.400000 99.680000
v -43.900896 23.400000 99.986147
v -44.074315 23.400000 100.245685
v -44.333853 23.400000 100.419104
v -44.640000 23.400000 100.480000
v -44.946147 23.400000 100.419104
v -45.205685 23.400000 100.245685
v -45.379104 23.400000 99.986147
v -45.440000 23.400000 99.680000
v -45.379104 23.400000 99.373853
v -45.205685 23.400000 99.114315
v -44.946147 23.400000 98.940896
v -44.640000 23.400000 98.880000
v -44.333853 23.400000 98.940896
v -44.074315 23.400000 99.114315
v -43.900896 23.400000 99.373853
f 782 767 768
f 782 768 769
f 782 769 770
f 782 770 771
f 782 771 772
f 782 772 773
f 782 773 774
f 782 774 775
f 782 775 776
f 782 776 777
f 782 777 778
f 782 778 779
f 782 779 780
f 780 781 782
f 784 783 798
f 785 784 798
f 786 785 798
f 787 786 798
f 788 787 798
f 789 788 798
f 790 789 798
f 791 790 798
f 792 791 798
f 793 792 798
f 794 793 798
f 795 794 798
f 796 795 798
f 798 797 796
f 767 783 784
f 767 784 768
f 768 784 785
f 768 785 769
f 769 785 786
f 769 786 770
f 770 786 787
f 770 787 771
f 771 787 788
f 771 788 772
f 772 788 789
f 772 789 773
f 773 789 790
f 773 790 774
f 774 790 791
f 774 791 775
f 775 791 792
f 775 792 776
f 776 792 793
f 776 793 777
f 777 793 794
f 777 794 778
f 778 794 795
f 778 795 779
f 779 795 796
f 779 796 780
f 780 796 797
f 780 797 781
f 781 797 798
f 781 798 782
f 782 798 783
f 782 783 767
o Sponson_2
usemtl hull
v 39.280000 18.100000 94.680000
v 46.280000 18.100000 94.680000
v 46.280000 19.500000 94.680000
v 39.280000 19.500000 94.680000
v 39.280000 18.100000 104.680000
v 46.280000 18.100000 104.680000
v 46.280000 19.500000 104.680000
v 39.280000 19.500000 104.680000
f 799 802 801
f 799 801 800
f 803 804 805
f 803 805 806
f 799 800 804
f 799 804 803
f 802 806 805
f 802 805 801
f 799 803 806
f 799 806 802
f 800 801 805
f 800 805 804
o AA_Base_2
usemtl island
v 44.580000 19.500000 99.680000
v 44.442983 19.500000 100.368830
v 44.052792 19.500000 100.952792
v 43.468830 19.500000 101.342983
v 42.780000 19.500000 101.480000
v 42.091170 19.500000 101.342983
v 41.507208 19.500000 100.952792
v 41.117017 19.500000 100.368830
v 40.980000 19.500000 99.680000
v 41.117017 19.500000 98.991170
v 41.507208 19.500000 98.407208
v 42.091170 19.500000 98.017017
v 42.780000 19.500000 97.880000
v 43.468830 19.500000 98.017017
v 44.052792 19.500000 98.407208
v 44.442983 19.500000 98.991170
v 44.580000 21.500000 99.680000
v 44.442983 21.500000 100.368830
v 44.052792 21.500000 100.952792
v 43.468830 21.500000 101.342983
v 42.780000 21.500000 101.480000
v 42.091170 21.500000 101.342983
v 41.507208 21.500000 100.952792
v 41.117017 21.500000 100.368830
v 40.980000 21.500000 99.680000
v 41.117017 21.500000 98.991170
v 41.507208 21.500000 98.407208
v 42.091170 21.500000 98.017017
v 42.780000 21.500000 97.880000
v 43.468830 21.500000 98.017017
v 44.052792 21.500000 98.407208
v 44.442983 21.500000 98.991170
f 822 807 808
f 822 808 809
f 822 809 810
f 822 810 811
f 822 811 812
f 822 812 813
f 822 813 814
f 822 814 815
f 822 815 816
f 822 816 817
f 822 817 818
f 822 818 819
f 822 819 820
f 820 821 822
f 824 823 838
f 825 824 838
f 826 825 838
f 827 826 838
f 828 827 838
f 829 828 838
f 830 829 838
f 831 830 838
f 832 831 838
f 833 832 838
f 834 833 838
f 835 834 838
f 836 835 838
f 838 837 836
f 807 823 824
f 807 824 808
f 808 824 825
f 808 825 809
f 809 825 826
f 809 826 810
f 810 826 827
f 810 827 811
f 811 827 828
f 811 828 812
f 812 828 829
f 812 829 813
f 813 829 830
f 813 830 814
f 814 830 831
f 814 831 815
f 815 831 832
f 815 832 816
f 816 832 833
f 816 833 817
f 817 833 834
f 817 834 818
f 818 834 835
f 818 835 819
f 819 835 836
f 819 836 820
f 820 836 837
f 820 837 821
f 821 837 838
f 821 838 822
f 822 838 823
f 822 823 807
o CIWS_Radome_2
usemtl white
v 43.580000 21.500000 99.680000
v 43.519104 21.500000 99.986147
v 43.345685 21.500000 100.245685
v 43.086147 21.500000 100.419104
v 42.780000 21.500000 100.480000
v 42.473853 21.500000 100.419104
v 42.214315 21.500000 100.245685
v 42.040896 21.500000 99.986147
v 41.980000 21.500000 99.680000
v 42.040896 21.500000 99.373853
v 42.214315 21.500000 99.114315
v 42.473853 21.500000 98.940896
v 42.780000 21.500000 98.880000
v 43.086147 21.500000 98.940896
v 43.345685 21.500000 99.114315
v 43.519104 21.500000 99.373853
v 43.580000 23.400000 99.680000
v 43.519104 23.400000 99.986147
v 43.345685 23.400000 100.245685
v 43.086147 23.400000 100.419104
v 42.780000 23.400000 100.480000
v 42.473853 23.400000 100.419104
v 42.214315 23.400000 100.245685
v 42.040896 23.400000 99.986147
v 41.980000 23.400000 99.680000
v 42.040896 23.400000 99.373853
v 42.214315 23.400000 99.114315
v 42.473853 23.400000 98.940896
v 42.780000 23.400000 98.880000
v 43.086147 23.400000 98.940896
v 43.345685 23.400000 99.114315
v 43.519104 23.400000 99.373853
f 854 839 840
f 854 840 841
f 854 841 842
f 854 842 843
f 854 843 844
f 854 844 845
f 854 845 846
f 854 846 847
f 854 847 848
f 854 848 849
f 854 849 850
f 854 850 851
f 854 851 852
f 852 853 854
f 856 855 870
f 857 856 870
f 858 857 870
f 859 858 870
f 860 859 870
f 861 860 870
f 862 861 870
f 863 862 870
f 864 863 870
f 865 864 870
f 866 865 870
f 867 866 870
f 868 867 870
f 870 869 868
f 839 855 856
f 839 856 840
f 840 856 857
f 840 857 841
f 841 857 858
f 841 858 842
f 842 858 859
f 842 859 843
f 843 859 860
f 843 860 844
f 844 860 861
f 844 861 845
f 845 861 862
f 845 862 846
f 846 862 863
f 846 863 847
f 847 863 864
f 847 864 848
f 848 864 865
f 848 865 849
f 849 865 866
f 849 866 850
f 850 866 867
f 850 867 851
f 851 867 868
f 851 868 852
f 852 868 869
f 852 869 853
f 853 869 870
f 853 870 854
f 854 870 855
f 854 855 839
o Sponson_3
usemtl hull
v -44.420000 18.100000 -147.400000
v -37.420000 18.100000 -147.400000
v -37.420000 19.500000 -147.400000
v -44.420000 19.500000 -147.400000
v -44.420000 18.100000 -137.400000
v -37.420000 18.100000 -137.400000
v -37.420000 19.500000 -137.400000
v -44.420000 19.500000 -137.400000
f 871 874 873
f 871 873 872
f 875 876 877
f 875 877 878
f 871 872 876
f 871 876 875
f 874 878 877
f 874 877 873
f 871 875 878
f 871 878 874
f 872 873 877
f 872 877 876
o AA_Base_3
usemtl island
v -39.120000 19.500000 -142.400000
v -39.257017 19.500000 -141.711170
v -39.647208 19.500000 -141.127208
v -40.231170 19.500000 -140.737017
v -40.920000 19.500000 -140.600000
v -41.608830 19.500000 -140.737017
v -42.192792 19.500000 -141.127208
v -42.582983 19.500000 -141.711170
v -42.720000 19.500000 -142.400000
v -42.582983 19.500000 -143.088830
v -42.192792 19.500000 -143.672792
v -41.608830 19.500000 -144.062983
v -40.920000 19.500000 -144.200000
v -40.231170 19.500000 -144.062983
v -39.647208 19.500000 -143.672792
v -39.257017 19.500000 -143.088830
v -39.120000 21.500000 -142.400000
v -39.257017 21.500000 -141.711170
v -39.647208 21.500000 -141.127208
v -40.231170 21.500000 -140.737017
v -40.920000 21.500000 -140.600000
v -41.608830 21.500000 -140.737017
v -42.192792 21.500000 -141.127208
v -42.582983 21.500000 -141.711170
v -42.720000 21.500000 -142.400000
v -42.582983 21.500000 -143.088830
v -42.192792 21.500000 -143.672792
v -41.608830 21.500000 -144.062983
v -40.920000 21.500000 -144.200000
v -40.231170 21.500000 -144.062983
v -39.647208 21.500000 -143.672792
v -39.257017 21.500000 -143.088830
f 894 879 880
f 894 880 881
f 894 881 882
f 894 882 883
f 894 883 884
f 894 884 885
f 894 885 886
f 894 886 887
f 894 887 888
f 894 888 889
f 894 889 890
f 894 890 891
f 894 891 892
f 892 893 894
f 896 895 910
f 897 896 910
f 898 897 910
f 899 898 910
f 900 899 910
f 901 900 910
f 902 901 910
f 903 902 910
f 904 903 910
f 905 904 910
f 906 905 910
f 907 906 910
f 908 907 910
f 910 909 908
f 879 895 896
f 879 896 880
f 880 896 897
f 880 897 881
f 881 897 898
f 881 898 882
f 882 898 899
f 882 899 883
f 883 899 900
f 883 900 884
f 884 900 901
f 884 901 885
f 885 901 902
f 885 902 886
f 886 902 903
f 886 903 887
f 887 903 904
f 887 904 888
f 888 904 905
f 888 905 889
f 889 905 906
f 889 906 890
f 890 906 907
f 890 907 891
f 891 907 908
f 891 908 892
f 892 908 909
f 892 909 893
f 893 909 910
f 893 910 894
f 894 910 895
f 894 895 879
o CIWS_Radome_3
usemtl white
v -40.120000 21.500000 -142.400000
v -40.180896 21.500000 -142.093853
v -40.354315 21.500000 -141.834315
v -40.613853 21.500000 -141.660896
v -40.920000 21.500000 -141.600000
v -41.226147 21.500000 -141.660896
v -41.485685 21.500000 -141.834315
v -41.659104 21.500000 -142.093853
v -41.720000 21.500000 -142.400000
v -41.659104 21.500000 -142.706147
v -41.485685 21.500000 -142.965685
v -41.226147 21.500000 -143.139104
v -40.920000 21.500000 -143.200000
v -40.613853 21.500000 -143.139104
v -40.354315 21.500000 -142.965685
v -40.180896 21.500000 -142.706147
v -40.120000 23.400000 -142.400000
v -40.180896 23.400000 -142.093853
v -40.354315 23.400000 -141.834315
v -40.613853 23.400000 -141.660896
v -40.920000 23.400000 -141.600000
v -41.226147 23.400000 -141.660896
v -41.485685 23.400000 -141.834315
v -41.659104 23.400000 -142.093853
v -41.720000 23.400000 -142.400000
v -41.659104 23.400000 -142.706147
v -41.485685 23.400000 -142.965685
v -41.226147 23.400000 -143.139104
v -40.920000 23.400000 -143.200000
v -40.613853 23.400000 -143.139104
v -40.354315 23.400000 -142.965685
v -40.180896 23.400000 -142.706147
f 926 911 912
f 926 912 913
f 926 913 914
f 926 914 915
f 926 915 916
f 926 916 917
f 926 917 918
f 926 918 919
f 926 919 920
f 926 920 921
f 926 921 922
f 926 922 923
f 926 923 924
f 924 925 926
f 928 927 942
f 929 928 942
f 930 929 942
f 931 930 942
f 932 931 942
f 933 932 942
f 934 933 942
f 935 934 942
f 936 935 942
f 937 936 942
f 938 937 942
f 939 938 942
f 940 939 942
f 942 941 940
f 911 927 928
f 911 928 912
f 912 928 929
f 912 929 913
f 913 929 930
f 913 930 914
f 914 930 931
f 914 931 915
f 915 931 932
f 915 932 916
f 916 932 933
f 916 933 917
f 917 933 934
f 917 934 918
f 918 934 935
f 918 935 919
f 919 935 936
f 919 936 920
f 920 936 937
f 920 937 921
f 921 937 938
f 921 938 922
f 922 938 939
f 922 939 923
f 923 939 940
f 923 940 924
f 924 940 941
f 924 941 925
f 925 941 942
f 925 942 926
f 926 942 927
f 926 927 911
o Sponson_4
usemtl hull
v 36.490000 18.100000 -147.400000
v 43.490000 18.100000 -147.400000
v 43.490000 19.500000 -147.400000
v 36.490000 19.500000 -147.400000
v 36.490000 18.100000 -137.400000
v 43.490000 18.100000 -137.400000
v 43.490000 19.500000 -137.400000
v 36.490000 19.500000 -137.400000
f 943 946 945
f 943 945 944
f 947 948 949
f 947 949 950
f 943 944 948
f 943 948 947
f 946 950 949
f 946 949 945
f 943 947 950
f 943 950 946
f 944 945 949
f 944 949 948
o AA_Base_4
usemtl island
v 41.790000 19.500000 -142.400000
v 41.652983 19.500000 -141.711170
v 41.262792 19.500000 -141.127208
v 40.678830 19.500000 -140.737017
v 39.990000 19.500000 -140.600000
v 39.301170 19.500000 -140.737017
v 38.717208 19.500000 -141.127208
v 38.327017 19.500000 -141.711170
v 38.190000 19.500000 -142.400000
v 38.327017 19.500000 -143.088830
v 38.717208 19.500000 -143.672792
v 39.301170 19.500000 -144.062983
v 39.990000 19.500000 -144.200000
v 40.678830 19.500000 -144.062983
v 41.262792 19.500000 -143.672792
v 41.652983 19.500000 -143.088830
v 41.790000 21.500000 -142.400000
v 41.652983 21.500000 -141.711170
v 41.262792 21.500000 -141.127208
v 40.678830 21.500000 -140.737017
v 39.990000 21.500000 -140.600000
v 39.301170 21.500000 -140.737017
v 38.717208 21.500000 -141.127208
v 38.327017 21.500000 -141.711170
v 38.190000 21.500000 -142.400000
v 38.327017 21.500000 -143.088830
v 38.717208 21.500000 -143.672792
v 39.301170 21.500000 -144.062983
v 39.990000 21.500000 -144.200000
v 40.678830 21.500000 -144.062983
v 41.262792 21.500000 -143.672792
v 41.652983 21.500000 -143.088830
f 966 951 952
f 966 952 953
f 966 953 954
f 966 954 955
f 966 955 956
f 966 956 957
f 966 957 958
f 966 958 959
f 966 959 960
f 966 960 961
f 966 961 962
f 966 962 963
f 966 963 964
f 964 965 966
f 968 967 982
f 969 968 982
f 970 969 982
f 971 970 982
f 972 971 982
f 973 972 982
f 974 973 982
f 975 974 982
f 976 975 982
f 977 976 982
f 978 977 982
f 979 978 982
f 980 979 982
f 982 981 980
f 951 967 968
f 951 968 952
f 952 968 969
f 952 969 953
f 953 969 970
f 953 970 954
f 954 970 971
f 954 971 955
f 955 971 972
f 955 972 956
f 956 972 973
f 956 973 957
f 957 973 974
f 957 974 958
f 958 974 975
f 958 975 959
f 959 975 976
f 959 976 960
f 960 976 977
f 960 977 961
f 961 977 978
f 961 978 962
f 962 978 979
f 962 979 963
f 963 979 980
f 963 980 964
f 964 980 981
f 964 981 965
f 965 981 982
f 965 982 966
f 966 982 967
f 966 967 951
o CIWS_Radome_4
usemtl white
v 40.790000 21.500000 -142.400000
v 40.729104 21.500000 -142.093853
v 40.555685 21.500000 -141.834315
v 40.296147 21.500000 -141.660896
v 39.990000 21.500000 -141.600000
v 39.683853 21.500000 -141.660896
v 39.424315 21.500000 -141.834315
v 39.250896 21.500000 -142.093853
v 39.190000 21.500000 -142.400000
v 39.250896 21.500000 -142.706147
v 39.424315 21.500000 -142.965685
v 39.683853 21.500000 -143.139104
v 39.990000 21.500000 -143.200000
v 40.296147 21.500000 -143.139104
v 40.555685 21.500000 -142.965685
v 40.729104 21.500000 -142.706147
v 40.790000 23.400000 -142.400000
v 40.729104 23.400000 -142.093853
v 40.555685 23.400000 -141.834315
v 40.296147 23.400000 -141.660896
v 39.990000 23.400000 -141.600000
v 39.683853 23.400000 -141.660896
v 39.424315 23.400000 -141.834315
v 39.250896 23.400000 -142.093853
v 39.190000 23.400000 -142.400000
v 39.250896 23.400000 -142.706147
v 39.424315 23.400000 -142.965685
v 39.683853 23.400000 -143.139104
v 39.990000 23.400000 -143.200000
v 40.296147 23.400000 -143.139104
v 40.555685 23.400000 -142.965685
v 40.729104 23.400000 -142.706147
f 998 983 984
f 998 984 985
f 998 985 986
f 998 986 987
f 998 987 988
f 998 988 989
f 998 989 990
f 998 990 991
f 998 991 992
f 998 992 993
f 998 993 994
f 998 994 995
f 998 995 996
f 996 997 998
f 1000 999 1014
f 1001 1000 1014
f 1002 1001 1014
f 1003 1002 1014
f 1004 1003 1014
f 1005 1004 1014
f 1006 1005 1014
f 1007 1006 1014
f 1008 1007 1014
f 1009 1008 1014
f 1010 1009 1014
f 1011 1010 1014
f 1012 1011 1014
f 1014 1013 1012
f 983 999 1000
f 983 1000 984
f 984 1000 1001
f 984 1001 985
f 985 1001 1002
f 985 1002 986
f 986 1002 1003
f 986 1003 987
f 987 1003 1004
f 987 1004 988
f 988 1004 1005
f 988 1005 989
f 989 1005 1006
f 989 1006 990
f 990 1006 1007
f 990 1007 991
f 991 1007 1008
f 991 1008 992
f 992 1008 1009
f 992 1009 993
f 993 1009 1010
f 993 1010 994
f 994 1010 1011
f 994 1011 995
f 995 1011 1012
f 995 1012 996
f 996 1012 1013
f 996 1013 997
f 997 1013 1014
f 997 1014 998
f 998 1014 999
f 998 999 983
o SonarDome
usemtl dark
v 3.400000 -9.000000 135.280000
v 3.141190 -9.000000 136.581124
v 2.404163 -9.000000 137.684163
v 1.301124 -9.000000 138.421190
v 0.000000 -9.000000 138.680000
v -1.301124 -9.000000 138.421190
v -2.404163 -9.000000 137.684163
v -3.141190 -9.000000 136.581124
v -3.400000 -9.000000 135.280000
v -3.141190 -9.000000 133.978876
v -2.404163 -9.000000 132.875837
v -1.301124 -9.000000 132.138810
v -0.000000 -9.000000 131.880000
v 1.301124 -9.000000 132.138810
v 2.404163 -9.000000 132.875837
v 3.141190 -9.000000 133.978876
v 3.400000 -7.000000 135.280000
v 3.141190 -7.000000 136.581124
v 2.404163 -7.000000 137.684163
v 1.301124 -7.000000 138.421190
v 0.000000 -7.000000 138.680000
v -1.301124 -7.000000 138.421190
v -2.404163 -7.000000 137.684163
v -3.141190 -7.000000 136.581124
v -3.400000 -7.000000 135.280000
v -3.141190 -7.000000 133.978876
v -2.404163 -7.000000 132.875837
v -1.301124 -7.000000 132.138810
v -0.000000 -7.000000 131.880000
v 1.301124 -7.000000 132.138810
v 2.404163 -7.000000 132.875837
v 3.141190 -7.000000 133.978876
f 1030 1015 1016
f 1030 1016 1017
f 1030 1017 1018
f 1030 1018 1019
f 1030 1019 1020
f 1030 1020 1021
f 1030 1021 1022
f 1030 1022 1023
f 1030 1023 1024
f 1030 1024 1025
f 1030 1025 1026
f 1030 1026 1027
f 1030 1027 1028
f 1028 1029 1030
f 1032 1031 1046
f 1033 1032 1046
f 1034 1033 1046
f 1035 1034 1046
f 1036 1035 1046
f 1037 1036 1046
f 1038 1037 1046
f 1039 1038 1046
f 1040 1039 1046
f 1041 1040 1046
f 1042 1041 1046
f 1043 1042 1046
f 1044 1043 1046
f 1046 1045 1044
f 1015 1031 1032
f 1015 1032 1016
f 1016 1032 1033
f 1016 1033 1017
f 1017 1033 1034
f 1017 1034 1018
f 1018 1034 1035
f 1018 1035 1019
f 1019 1035 1036
f 1019 1036 1020
f 1020 1036 1037
f 1020 1037 1021
f 1021 1037 1038
f 1021 1038 1022
f 1022 1038 1039
f 1022 1039 1023
f 1023 1039 1040
f 1023 1040 1024
f 1024 1040 1041
f 1024 1041 1025
f 1025 1041 1042
f 1025 1042 1026
f 1026 1042 1043
f 1026 1043 1027
f 1027 1043 1044
f 1027 1044 1028
f 1028 1044 1045
f 1028 1045 1029
f 1029 1045 1046
f 1029 1046 1030
f 1030 1046 1031
f 1030 1031 1015
o NoisemakerPort
usemtl dark
v -11.627500 15.300000 -161.200000
v -10.227500 15.300000 -161.200000
v -10.227500 16.700000 -161.200000
v -11.627500 16.700000 -161.200000
v -11.627500 15.300000 -159.200000
v -10.227500 15.300000 -159.200000
v -10.227500 16.700000 -159.200000
v -11.627500 16.700000 -159.200000
f 1047 1050 1049
f 1047 1049 1048
f 1051 1052 1053
f 1051 1053 1054
f 1047 1048 1052
f 1047 1052 1051
f 1050 1054 1053
f 1050 1053 1049
f 1047 1051 1054
f 1047 1054 1050
f 1048 1049 1053
f 1048 1053 1052
o ASW_Sponson_-1
usemtl hull
v -41.560000 16.250000 39.220000
v -36.560000 16.250000 39.220000
v -36.560000 17.750000 39.220000
v -41.560000 17.750000 39.220000
v -41.560000 16.250000 46.220000
v -36.560000 16.250000 46.220000
v -36.560000 17.750000 46.220000
v -41.560000 17.750000 46.220000
f 1055 1058 1057
f 1055 1057 1056
f 1059 1060 1061
f 1059 1061 1062
f 1055 1056 1060
f 1055 1060 1059
f 1058 1062 1061
f 1058 1061 1057
f 1055 1059 1062
f 1055 1062 1058
f 1056 1057 1061
f 1056 1061 1060
o ASW_Tube_-1_0
usemtl dark
v -39.935000 17.950000 41.220000
v -39.485000 17.950000 41.220000
v -39.485000 18.450000 41.220000
v -39.935000 18.450000 41.220000
v -39.935000 17.950000 44.220000
v -39.485000 17.950000 44.220000
v -39.485000 18.450000 44.220000
v -39.935000 18.450000 44.220000
f 1063 1066 1065
f 1063 1065 1064
f 1067 1068 1069
f 1067 1069 1070
f 1063 1064 1068
f 1063 1068 1067
f 1066 1070 1069
f 1066 1069 1065
f 1063 1067 1070
f 1063 1070 1066
f 1064 1065 1069
f 1064 1069 1068
o ASW_Tube_-1_1
usemtl dark
v -39.285000 17.950000 41.220000
v -38.835000 17.950000 41.220000
v -38.835000 18.450000 41.220000
v -39.285000 18.450000 41.220000
v -39.285000 17.950000 44.220000
v -38.835000 17.950000 44.220000
v -38.835000 18.450000 44.220000
v -39.285000 18.450000 44.220000
f 1071 1074 1073
f 1071 1073 1072
f 1075 1076 1077
f 1075 1077 1078
f 1071 1072 1076
f 1071 1076 1075
f 1074 1078 1077
f 1074 1077 1073
f 1071 1075 1078
f 1071 1078 1074
f 1072 1073 1077
f 1072 1077 1076
o ASW_Tube_-1_2
usemtl dark
v -38.635000 17.950000 41.220000
v -38.185000 17.950000 41.220000
v -38.185000 18.450000 41.220000
v -38.635000 18.450000 41.220000
v -38.635000 17.950000 44.220000
v -38.185000 17.950000 44.220000
v -38.185000 18.450000 44.220000
v -38.635000 18.450000 44.220000
f 1079 1082 1081
f 1079 1081 1080
f 1083 1084 1085
f 1083 1085 1086
f 1079 1080 1084
f 1079 1084 1083
f 1082 1086 1085
f 1082 1085 1081
f 1079 1083 1086
f 1079 1086 1082
f 1080 1081 1085
f 1080 1085 1084
o ASW_Launcher_-1
usemtl island
v -40.560000 16.950000 33.720000
v -37.560000 16.950000 33.720000
v -37.560000 19.050000 33.720000
v -40.560000 19.050000 33.720000
v -40.560000 16.950000 37.720000
v -37.560000 16.950000 37.720000
v -37.560000 19.050000 37.720000
v -40.560000 19.050000 37.720000
f 1087 1090 1089
f 1087 1089 1088
f 1091 1092 1093
f 1091 1093 1094
f 1087 1088 1092
f 1087 1092 1091
f 1090 1094 1093
f 1090 1093 1089
f 1087 1091 1094
f 1087 1094 1090
f 1088 1089 1093
f 1088 1093 1092
o SAM_Sponson_-1
usemtl hull
v -43.920000 17.650000 134.840000
v -37.920000 17.650000 134.840000
v -37.920000 18.950000 134.840000
v -43.920000 18.950000 134.840000
v -43.920000 17.650000 142.840000
v -37.920000 17.650000 142.840000
v -37.920000 18.950000 142.840000
v -43.920000 18.950000 142.840000
f 1095 1098 1097
f 1095 1097 1096
f 1099 1100 1101
f 1099 1101 1102
f 1095 1096 1100
f 1095 1100 1099
f 1098 1102 1101
f 1098 1101 1097
f 1095 1099 1102
f 1095 1102 1098
f 1096 1097 1101
f 1096 1101 1100
o SAM_Launcher_-1
usemtl island
v -42.820000 18.700000 137.340000
v -39.020000 18.700000 137.340000
v -39.020000 21.100000 137.340000
v -42.820000 21.100000 137.340000
v -42.820000 18.700000 140.340000
v -39.020000 18.700000 140.340000
v -39.020000 21.100000 140.340000
v -42.820000 21.100000 140.340000
f 1103 1106 1105
f 1103 1105 1104
f 1107 1108 1109
f 1107 1109 1110
f 1103 1104 1108
f 1103 1108 1107
f 1106 1110 1109
f 1106 1109 1105
f 1103 1107 1110
f 1103 1110 1106
f 1104 1105 1109
f 1104 1109 1108
o NoisemakerStarboard
usemtl dark
v 10.227500 15.300000 -161.200000
v 11.627500 15.300000 -161.200000
v 11.627500 16.700000 -161.200000
v 10.227500 16.700000 -161.200000
v 10.227500 15.300000 -159.200000
v 11.627500 15.300000 -159.200000
v 11.627500 16.700000 -159.200000
v 10.227500 16.700000 -159.200000
f 1111 1114 1113
f 1111 1113 1112
f 1115 1116 1117
f 1115 1117 1118
f 1111 1112 1116
f 1111 1116 1115
f 1114 1118 1117
f 1114 1117 1113
f 1111 1115 1118
f 1111 1118 1114
f 1112 1113 1117
f 1112 1117 1116
o ASW_Sponson_1
usemtl hull
v 36.560000 16.250000 39.220000
v 41.560000 16.250000 39.220000
v 41.560000 17.750000 39.220000
v 36.560000 17.750000 39.220000
v 36.560000 16.250000 46.220000
v 41.560000 16.250000 46.220000
v 41.560000 17.750000 46.220000
v 36.560000 17.750000 46.220000
f 1119 1122 1121
f 1119 1121 1120
f 1123 1124 1125
f 1123 1125 1126
f 1119 1120 1124
f 1119 1124 1123
f 1122 1126 1125
f 1122 1125 1121
f 1119 1123 1126
f 1119 1126 1122
f 1120 1121 1125
f 1120 1125 1124
o ASW_Tube_1_0
usemtl dark
v 38.185000 17.950000 41.220000
v 38.635000 17.950000 41.220000
v 38.635000 18.450000 41.220000
v 38.185000 18.450000 41.220000
v 38.185000 17.950000 44.220000
v 38.635000 17.950000 44.220000
v 38.635000 18.450000 44.220000
v 38.185000 18.450000 44.220000
f 1127 1130 1129
f 1127 1129 1128
f 1131 1132 1133
f 1131 1133 1134
f 1127 1128 1132
f 1127 1132 1131
f 1130 1134 1133
f 1130 1133 1129
f 1127 1131 1134
f 1127 1134 1130
f 1128 1129 1133
f 1128 1133 1132
o ASW_Tube_1_1
usemtl dark
v 38.835000 17.950000 41.220000
v 39.285000 17.950000 41.220000
v 39.285000 18.450000 41.220000
v 38.835000 18.450000 41.220000
v 38.835000 17.950000 44.220000
v 39.285000 17.950000 44.220000
v 39.285000 18.450000 44.220000
v 38.835000 18.450000 44.220000
f 1135 1138 1137
f 1135 1137 1136
f 1139 1140 1141
f 1139 1141 1142
f 1135 1136 1140
f 1135 1140 1139
f 1138 1142 1141
f 1138 1141 1137
f 1135 1139 1142
f 1135 1142 1138
f 1136 1137 1141
f 1136 1141 1140
o ASW_Tube_1_2
usemtl dark
v 39.485000 17.950000 41.220000
v 39.935000 17.950000 41.220000
v 39.935000 18.450000 41.220000
v 39.485000 18.450000 41.220000
v 39.485000 17.950000 44.220000
v 39.935000 17.950000 44.220000
v 39.935000 18.450000 44.220000
v 39.485000 18.450000 44.220000
f 1143 1146 1145
f 1143 1145 1144
f 1147 1148 1149
f 1147 1149 1150
f 1143 1144 1148
f 1143 1148 1147
f 1146 1150 1149
f 1146 1149 1145
f 1143 1147 1150
f 1143 1150 1146
f 1144 1145 1149
f 1144 1149 1148
o ASW_Launcher_1
usemtl island
v 37.560000 16.950000 33.720000
v 40.560000 16.950000 33.720000
v 40.560000 19.050000 33.720000
v 37.560000 19.050000 33.720000
v 37.560000 16.950000 37.720000
v 40.560000 16.950000 37.720000
v 40.560000 19.050000 37.720000
v 37.560000 19.050000 37.720000
f 1151 1154 1153
f 1151 1153 1152
f 1155 1156 1157
f 1155 1157 1158
f 1151 1152 1156
f 1151 1156 1155
f 1154 1158 1157
f 1154 1157 1153
f 1151 1155 1158
f 1151 1158 1154
f 1152 1153 1157
f 1152 1157 1156
o SAM_Sponson_1
usemtl hull
v 37.920000 17.650000 134.840000
v 43.920000 17.650000 134.840000
v 43.920000 18.950000 134.840000
v 37.920000 18.950000 134.840000
v 37.920000 17.650000 142.840000
v 43.920000 17.650000 142.840000
v 43.920000 18.950000 142.840000
v 37.920000 18.950000 142.840000
f 1159 1162 1161
f 1159 1161 1160
f 1163 1164 1165
f 1163 1165 1166
f 1159 1160 1164
f 1159 1164 1163
f 1162 1166 1165
f 1162 1165 1161
f 1159 1163 1166
f 1159 1166 1162
f 1160 1161 1165
f 1160 1165 1164
o SAM_Launcher_1
usemtl island
v 39.020000 18.700000 137.340000
v 42.820000 18.700000 137.340000
v 42.820000 21.100000 137.340000
v 39.020000 21.100000 137.340000
v 39.020000 18.700000 140.340000
v 42.820000 18.700000 140.340000
v 42.820000 21.100000 140.340000
v 39.020000 21.100000 140.340000
f 1167 1170 1169
f 1167 1169 1168
f 1171 1172 1173
f 1171 1173 1174
f 1167 1168 1172
f 1167 1172 1171
f 1170 1174 1173
f 1170 1173 1169
f 1167 1171 1174
f 1167 1174 1170
f 1168 1169 1173
f 1168 1173 1172
o OffensiveECM_Module
usemtl island
v 31.445000 46.800000 -30.580000
v 36.445000 46.800000 -30.580000
v 36.445000 49.200000 -30.580000
v 31.445000 49.200000 -30.580000
v 31.445000 46.800000 -26.380000
v 36.445000 46.800000 -26.380000
v 36.445000 49.200000 -26.380000
v 31.445000 49.200000 -26.380000
f 1175 1178 1177
f 1175 1177 1176
f 1179 1180 1181
f 1179 1181 1182
f 1175 1176 1180
f 1175 1180 1179
f 1178 1182 1181
f 1178 1181 1177
f 1175 1179 1182
f 1175 1182 1178
f 1176 1177 1181
f 1176 1181 1180
o OffensiveECM_Array_-1
usemtl dark
v 31.270000 47.100000 -30.230000
v 31.420000 47.100000 -30.230000
v 31.420000 48.900000 -30.230000
v 31.270000 48.900000 -30.230000
v 31.270000 47.100000 -26.730000
v 31.420000 47.100000 -26.730000
v 31.420000 48.900000 -26.730000
v 31.270000 48.900000 -26.730000
f 1183 1186 1185
f 1183 1185 1184
f 1187 1188 1189
f 1187 1189 1190
f 1183 1184 1188
f 1183 1188 1187
f 1186 1190 1189
f 1186 1189 1185
f 1183 1187 1190
f 1183 1190 1186
f 1184 1185 1189
f 1184 1189 1188
o OffensiveECM_Array_1
usemtl dark
v 36.470000 47.100000 -30.230000
v 36.620000 47.100000 -30.230000
v 36.620000 48.900000 -30.230000
v 36.470000 48.900000 -30.230000
v 36.470000 47.100000 -26.730000
v 36.620000 47.100000 -26.730000
v 36.620000 48.900000 -26.730000
v 36.470000 48.900000 -26.730000
f 1191 1194 1193
f 1191 1193 1192
f 1195 1196 1197
f 1195 1197 1198
f 1191 1192 1196
f 1191 1196 1195
f 1194 1198 1197
f 1194 1197 1193
f 1191 1195 1198
f 1191 1198 1194
f 1192 1193 1197
f 1192 1197 1196
