# RAN Carrier Restart: original model study; coordinates in metres
mtllib ran_cvn_australis_2023.mtl
o Hull
usemtl hull
v -16.740648 0.000000 -177.600000
v -17.258400 3.000000 -177.600000
v -17.085816 18.700000 -177.600000
v 17.085816 18.700000 -177.600000
v 17.258400 3.000000 -177.600000
v 16.740648 0.000000 -177.600000
v -17.146190 0.000000 -167.579167
v -17.676485 3.000000 -167.579167
v -17.499720 18.700000 -167.579167
v 17.499720 18.700000 -167.579167
v 17.676485 3.000000 -167.579167
v 17.146190 0.000000 -167.579167
v -17.550157 0.000000 -157.558333
v -18.092945 3.000000 -157.558333
v -17.912016 18.700000 -157.558333
v 17.912016 18.700000 -157.558333
v 18.092945 3.000000 -157.558333
v 17.550157 0.000000 -157.558333
v -17.950979 0.000000 -147.537500
v -18.506164 3.000000 -147.537500
v -18.321103 18.700000 -147.537500
v 18.321103 18.700000 -147.537500
v 18.506164 3.000000 -147.537500
v 17.950979 0.000000 -147.537500
v -18.347101 0.000000 -137.516667
v -18.914537 3.000000 -137.516667
v -18.725392 18.700000 -137.516667
v 18.725392 18.700000 -137.516667
v 18.914537 3.000000 -137.516667
v 18.347101 0.000000 -137.516667
v -18.736983 0.000000 -127.495833
v -19.316477 3.000000 -127.495833
v -19.123312 18.700000 -127.495833
v 19.123312 18.700000 -127.495833
v 19.316477 3.000000 -127.495833
v 18.736983 0.000000 -127.495833
v -19.119110 0.000000 -117.475000
v -19.710423 3.000000 -117.475000
v -19.513319 18.700000 -117.475000
v 19.513319 18.700000 -117.475000
v 19.710423 3.000000 -117.475000
v 19.119110 0.000000 -117.475000
v -19.491999 0.000000 -107.454167
v -20.094845 3.000000 -107.454167
v -19.893896 18.700000 -107.454167
v 19.893896 18.700000 -107.454167
v 20.094845 3.000000 -107.454167
v 19.491999 0.000000 -107.454167
v -19.854202 0.000000 -97.433333
v -20.468249 3.000000 -97.433333
v -20.263567 18.700000 -97.433333
v 20.263567 18.700000 -97.433333
v 20.468249 3.000000 -97.433333
v 19.854202 0.000000 -97.433333
v -20.204311 0.000000 -87.412500
v -20.829186 3.000000 -87.412500
v -20.620895 18.700000 -87.412500
v 20.620895 18.700000 -87.412500
v 20.829186 3.000000 -87.412500
v 20.204311 0.000000 -87.412500
v -20.540966 0.000000 -77.391667
v -21.176254 3.000000 -77.391667
v -20.964491 18.700000 -77.391667
v 20.964491 18.700000 -77.391667
v 21.176254 3.000000 -77.391667
v 20.540966 0.000000 -77.391667
v -20.862861 0.000000 -67.370833
v -21.508104 3.000000 -67.370833
v -21.293023 18.700000 -67.370833
v 21.293023 18.700000 -67.370833
v 21.508104 3.000000 -67.370833
v 20.862861 0.000000 -67.370833
v -21.168744 0.000000 -57.350000
v -21.823447 3.000000 -57.350000
v -21.605213 18.700000 -57.350000
v 21.605213 18.700000 -57.350000
v 21.823447 3.000000 -57.350000
v 21.168744 0.000000 -57.350000
v -21.457428 0.000000 -47.329167
v -22.121059 3.000000 -47.329167
v -21.899849 18.700000 -47.329167
v 21.899849 18.700000 -47.329167
v 22.121059 3.000000 -47.329167
v 21.457428 0.000000 -47.329167
v -21.727790 0.000000 -37.308333
v -22.399784 3.000000 -37.308333
v -22.175786 18.700000 -37.308333
v 22.175786 18.700000 -37.308333
v 22.399784 3.000000 -37.308333
v 21.727790 0.000000 -37.308333
v -21.978782 0.000000 -27.287500
v -22.658538 3.000000 -27.287500
v -22.431953 18.700000 -27.287500
v 22.431953 18.700000 -27.287500
v 22.658538 3.000000 -27.287500
v 21.978782 0.000000 -27.287500
v -22.209428 0.000000 -17.266667
v -22.896318 3.000000 -17.266667
v -22.667355 18.700000 -17.266667
v 22.667355 18.700000 -17.266667
v 22.896318 3.000000 -17.266667
v 22.209428 0.000000 -17.266667
v -22.418833 0.000000 -7.245833
v -23.112199 3.000000 -7.245833
v -22.881077 18.700000 -7.245833
v 22.881077 18.700000 -7.245833
v 23.112199 3.000000 -7.245833
v 22.418833 0.000000 -7.245833
v -22.606182 0.000000 2.775000
v -23.305343 3.000000 2.775000
v -23.072289 18.700000 2.775000
v 23.072289 18.700000 2.775000
v 23.305343 3.000000 2.775000
v 22.606182 0.000000 2.775000
v -22.770749 0.000000 12.795833
v -23.474999 3.000000 12.795833
v -23.240249 18.700000 12.795833
v 23.240249 18.700000 12.795833
v 23.474999 3.000000 12.795833
v 22.770749 0.000000 12.795833
v -22.911894 0.000000 22.816667
v -23.620509 3.000000 22.816667
v -23.384304 18.700000 22.816667
v 23.384304 18.700000 22.816667
v 23.620509 3.000000 22.816667
v 22.911894 0.000000 22.816667
v -23.029069 0.000000 32.837500
v -23.741308 3.000000 32.837500
v -23.503895 18.700000 32.837500
v 23.503895 18.700000 32.837500
v 23.741308 3.000000 32.837500
v 23.029069 0.000000 32.837500
v -23.121818 0.000000 42.858333
v -23.836926 3.000000 42.858333
v -23.598556 18.700000 42.858333
v 23.598556 18.700000 42.858333
v 23.836926 3.000000 42.858333
v 23.121818 0.000000 42.858333
v -23.189782 0.000000 52.879167
v -23.906991 3.000000 52.879167
v -23.667922 18.700000 52.879167
v 23.667922 18.700000 52.879167
v 23.906991 3.000000 52.879167
v 23.189782 0.000000 52.879167
v -23.232696 0.000000 62.900000
v -23.951233 3.000000 62.900000
v -23.711721 18.700000 62.900000
v 23.711721 18.700000 62.900000
v 23.951233 3.000000 62.900000
v 23.232696 0.000000 62.900000
v -23.250394 0.000000 72.920833
v -23.969478 3.000000 72.920833
v -23.729784 18.700000 72.920833
v 23.729784 18.700000 72.920833
v 23.969478 3.000000 72.920833
v 23.250394 0.000000 72.920833
v -23.250900 0.000000 82.941667
v -23.970000 3.000000 82.941667
v -23.730300 18.700000 82.941667
v 23.730300 18.700000 82.941667
v 23.970000 3.000000 82.941667
v 23.250900 0.000000 82.941667
v -23.250900 0.000000 92.962500
v -23.970000 3.000000 92.962500
v -23.730300 18.700000 92.962500
v 23.730300 18.700000 92.962500
v 23.970000 3.000000 92.962500
v 23.250900 0.000000 92.962500
v -22.796215 0.000000 102.983333
v -23.501252 3.000000 102.983333
v -23.266240 18.700000 102.983333
v 23.266240 18.700000 102.983333
v 23.501252 3.000000 102.983333
v 22.796215 0.000000 102.983333
v -21.385781 0.000000 113.004167
v -22.047196 3.000000 113.004167
v -21.826724 18.700000 113.004167
v 21.826724 18.700000 113.004167
v 22.047196 3.000000 113.004167
v 21.385781 0.000000 113.004167
v -19.441586 0.000000 123.025000
v -20.042872 3.000000 123.025000
v -19.842443 18.700000 123.025000
v 19.842443 18.700000 123.025000
v 20.042872 3.000000 123.025000
v 19.441586 0.000000 123.025000
v -17.083630 0.000000 133.045833
v -17.611990 3.000000 133.045833
v -17.435870 18.700000 133.045833
v 17.435870 18.700000 133.045833
v 17.611990 3.000000 133.045833
v 17.083630 0.000000 133.045833
v -14.374888 0.000000 143.066667
v -14.819473 3.000000 143.066667
v -14.671278 18.700000 143.066667
v 14.671278 18.700000 143.066667
v 14.819473 3.000000 143.066667
v 14.374888 0.000000 143.066667
v -11.356034 0.000000 153.087500
v -11.707252 3.000000 153.087500
v -11.590179 18.700000 153.087500
v 11.590179 18.700000 153.087500
v 11.707252 3.000000 153.087500
v 11.356034 0.000000 153.087500
v -8.056169 0.000000 163.108333
v -8.305329 3.000000 163.108333
v -8.222276 18.700000 163.108333
v 8.222276 18.700000 163.108333
v 8.305329 3.000000 163.108333
v 8.056169 0.000000 163.108333
v -4.497461 0.000000 173.129167
v -4.636557 3.000000 173.129167
v -4.590192 18.700000 173.129167
v 4.590192 18.700000 173.129167
v 4.636557 3.000000 173.129167
v 4.497461 0.000000 173.129167
v -0.697527 0.000000 183.150000
v -0.719100 3.000000 183.150000
v -0.711909 18.700000 183.150000
v 0.711909 18.700000 183.150000
v 0.719100 3.000000 183.150000
v 0.697527 0.000000 183.150000
f 7 8 2
f 7 2 1
f 8 9 3
f 8 3 2
f 9 10 4
f 9 4 3
f 10 11 5
f 10 5 4
f 11 12 6
f 11 6 5
f 12 7 1
f 12 1 6
f 13 14 8
f 13 8 7
f 14 15 9
f 14 9 8
f 15 16 10
f 15 10 9
f 16 17 11
f 16 11 10
f 17 18 12
f 17 12 11
f 18 13 7
f 18 7 12
f 19 20 14
f 19 14 13
f 20 21 15
f 20 15 14
f 21 22 16
f 21 16 15
f 22 23 17
f 22 17 16
f 23 24 18
f 23 18 17
f 24 19 13
f 24 13 18
f 25 26 20
f 25 20 19
f 26 27 21
f 26 21 20
f 27 28 22
f 27 22 21
f 28 29 23
f 28 23 22
f 29 30 24
f 29 24 23
f 30 25 19
f 30 19 24
f 31 32 26
f 31 26 25
f 32 33 27
f 32 27 26
f 33 34 28
f 33 28 27
f 34 35 29
f 34 29 28
f 35 36 30
f 35 30 29
f 36 31 25
f 36 25 30
f 37 38 32
f 37 32 31
f 38 39 33
f 38 33 32
f 39 40 34
f 39 34 33
f 40 41 35
f 40 35 34
f 41 42 36
f 41 36 35
f 42 37 31
f 42 31 36
f 43 44 38
f 43 38 37
f 44 45 39
f 44 39 38
f 45 46 40
f 45 40 39
f 46 47 41
f 46 41 40
f 47 48 42
f 47 42 41
f 48 43 37
f 48 37 42
f 49 50 44
f 49 44 43
f 50 51 45
f 50 45 44
f 51 52 46
f 51 46 45
f 52 53 47
f 52 47 46
f 53 54 48
f 53 48 47
f 54 49 43
f 54 43 48
f 55 56 50
f 55 50 49
f 56 57 51
f 56 51 50
f 57 58 52
f 57 52 51
f 58 59 53
f 58 53 52
f 59 60 54
f 59 54 53
f 60 55 49
f 60 49 54
f 61 62 56
f 61 56 55
f 62 63 57
f 62 57 56
f 63 64 58
f 63 58 57
f 64 65 59
f 64 59 58
f 65 66 60
f 65 60 59
f 66 61 55
f 66 55 60
f 67 68 62
f 67 62 61
f 68 69 63
f 68 63 62
f 69 70 64
f 69 64 63
f 70 71 65
f 70 65 64
f 71 72 66
f 71 66 65
f 72 67 61
f 72 61 66
f 73 74 68
f 73 68 67
f 74 75 69
f 74 69 68
f 75 76 70
f 75 70 69
f 76 77 71
f 76 71 70
f 77 78 72
f 77 72 71
f 78 73 67
f 78 67 72
f 79 80 74
f 79 74 73
f 80 81 75
f 80 75 74
f 81 82 76
f 81 76 75
f 82 83 77
f 82 77 76
f 83 84 78
f 83 78 77
f 84 79 73
f 84 73 78
f 85 86 80
f 85 80 79
f 86 87 81
f 86 81 80
f 87 88 82
f 87 82 81
f 88 89 83
f 88 83 82
f 89 90 84
f 89 84 83
f 90 85 79
f 90 79 84
f 91 92 86
f 91 86 85
f 92 93 87
f 92 87 86
f 93 94 88
f 93 88 87
f 94 95 89
f 94 89 88
f 95 96 90
f 95 90 89
f 96 91 85
f 96 85 90
f 97 98 92
f 97 92 91
f 98 99 93
f 98 93 92
f 99 100 94
f 99 94 93
f 100 101 95
f 100 95 94
f 101 102 96
f 101 96 95
f 102 97 91
f 102 91 96
f 103 104 98
f 103 98 97
f 104 105 99
f 104 99 98
f 105 106 100
f 105 100 99
f 106 107 101
f 106 101 100
f 107 108 102
f 107 102 101
f 108 103 97
f 108 97 102
f 109 110 104
f 109 104 103
f 110 111 105
f 110 105 104
f 111 112 106
f 111 106 105
f 112 113 107
f 112 107 106
f 113 114 108
f 113 108 107
f 114 109 103
f 114 103 108
f 115 116 110
f 115 110 109
f 116 117 111
f 116 111 110
f 117 118 112
f 117 112 111
f 118 119 113
f 118 113 112
f 119 120 114
f 119 114 113
f 120 115 109
f 120 109 114
f 121 122 116
f 121 116 115
f 122 123 117
f 122 117 116
f 123 124 118
f 123 118 117
f 124 125 119
f 124 119 118
f 125 126 120
f 125 120 119
f 126 121 115
f 126 115 120
f 127 128 122
f 127 122 121
f 128 129 123
f 128 123 122
f 129 130 124
f 129 124 123
f 130 131 125
f 130 125 124
f 131 132 126
f 131 126 125
f 132 127 121
f 132 121 126
f 133 134 128
f 133 128 127
f 134 135 129
f 134 129 128
f 135 136 130
f 135 130 129
f 136 137 131
f 136 131 130
f 137 138 132
f 137 132 131
f 138 133 127
f 138 127 132
f 139 140 134
f 139 134 133
f 140 141 135
f 140 135 134
f 141 142 136
f 141 136 135
f 142 143 137
f 142 137 136
f 143 144 138
f 143 138 137
f 144 139 133
f 144 133 138
f 145 146 140
f 145 140 139
f 146 147 141
f 146 141 140
f 147 148 142
f 147 142 141
f 148 149 143
f 148 143 142
f 149 150 144
f 149 144 143
f 150 145 139
f 150 139 144
f 151 152 146
f 151 146 145
f 152 153 147
f 152 147 146
f 153 154 148
f 153 148 147
f 154 155 149
f 154 149 148
f 155 156 150
f 155 150 149
f 156 151 145
f 156 145 150
f 157 158 152
f 157 152 151
f 158 159 153
f 158 153 152
f 159 160 154
f 159 154 153
f 160 161 155
f 160 155 154
f 161 162 156
f 161 156 155
f 162 157 151
f 162 151 156
f 163 164 158
f 163 158 157
f 164 165 159
f 164 159 158
f 165 166 160
f 165 160 159
f 166 167 161
f 166 161 160
f 167 168 162
f 167 162 161
f 168 163 157
f 168 157 162
f 169 170 164
f 169 164 163
f 170 171 165
f 170 165 164
f 171 172 166
f 171 166 165
f 172 173 167
f 172 167 166
f 173 174 168
f 173 168 167
f 174 169 163
f 174 163 168
f 175 176 170
f 175 170 169
f 176 177 171
f 176 171 170
f 177 178 172
f 177 172 171
f 178 179 173
f 178 173 172
f 179 180 174
f 179 174 173
f 180 175 169
f 180 169 174
f 181 182 176
f 181 176 175
f 182 183 177
f 182 177 176
f 183 184 178
f 183 178 177
f 184 185 179
f 184 179 178
f 185 186 180
f 185 180 179
f 186 181 175
f 186 175 180
f 187 188 182
f 187 182 181
f 188 189 183
f 188 183 182
f 189 190 184
f 189 184 183
f 190 191 185
f 190 185 184
f 191 192 186
f 191 186 185
f 192 187 181
f 192 181 186
f 193 194 188
f 193 188 187
f 194 195 189
f 194 189 188
f 195 196 190
f 195 190 189
f 196 197 191
f 196 191 190
f 197 198 192
f 197 192 191
f 198 193 187
f 198 187 192
f 199 200 194
f 199 194 193
f 200 201 195
f 200 195 194
f 201 202 196
f 201 196 195
f 202 203 197
f 202 197 196
f 203 204 198
f 203 198 197
f 204 199 193
f 204 193 198
f 205 206 200
f 205 200 199
f 206 207 201
f 206 201 200
f 207 208 202
f 207 202 201
f 208 209 203
f 208 203 202
f 209 210 204
f 209 204 203
f 210 205 199
f 210 199 204
f 211 212 206
f 211 206 205
f 212 213 207
f 212 207 206
f 213 214 208
f 213 208 207
f 214 215 209
f 214 209 208
f 215 216 210
f 215 210 209
f 216 211 205
f 216 205 210
f 217 218 212
f 217 212 211
f 218 219 213
f 218 213 212
f 219 220 214
f 219 214 213
f 220 221 215
f 220 215 214
f 221 222 216
f 221 216 215
f 222 217 211
f 222 211 216
f 1 2 3
f 1 3 4
f 1 4 5
f 1 5 6
f 222 221 220
f 222 220 219
f 222 219 218
f 222 218 217
o UnderwaterHull
usemtl underwater
v -10.355040 -8.500000 -177.600000
v -16.050312 -3.000000 -177.600000
v -16.740648 0.000000 -177.600000
v 16.740648 0.000000 -177.600000
v 16.050312 -3.000000 -177.600000
v 10.355040 -8.500000 -177.600000
v -10.605891 -8.500000 -167.579167
v -16.439131 -3.000000 -167.579167
v -17.146190 0.000000 -167.579167
v 17.146190 0.000000 -167.579167
v 16.439131 -3.000000 -167.579167
v 10.605891 -8.500000 -167.579167
v -10.855767 -8.500000 -157.558333
v -16.826439 -3.000000 -157.558333
v -17.550157 0.000000 -157.558333
v 17.550157 0.000000 -157.558333
v 16.826439 -3.000000 -157.558333
v 10.855767 -8.500000 -157.558333
v -11.103699 -8.500000 -147.537500
v -17.210733 -3.000000 -147.537500
v -17.950979 0.000000 -147.537500
v 17.950979 0.000000 -147.537500
v 17.210733 -3.000000 -147.537500
v 11.103699 -8.500000 -147.537500
v -11.348722 -8.500000 -137.516667
v -17.590519 -3.000000 -137.516667
v -18.347101 0.000000 -137.516667
v 18.347101 0.000000 -137.516667
v 17.590519 -3.000000 -137.516667
v 11.348722 -8.500000 -137.516667
v -11.589886 -8.500000 -127.495833
v -17.964323 -3.000000 -127.495833
v -18.736983 0.000000 -127.495833
v 18.736983 0.000000 -127.495833
v 17.964323 -3.000000 -127.495833
v 11.589886 -8.500000 -127.495833
v -11.826254 -8.500000 -117.475000
v -18.330693 -3.000000 -117.475000
v -19.119110 0.000000 -117.475000
v 19.119110 0.000000 -117.475000
v 18.330693 -3.000000 -117.475000
v 11.826254 -8.500000 -117.475000
v -12.056907 -8.500000 -107.454167
v -18.688206 -3.000000 -107.454167
v -19.491999 0.000000 -107.454167
v 19.491999 0.000000 -107.454167
v 18.688206 -3.000000 -107.454167
v 12.056907 -8.500000 -107.454167
v -12.280950 -8.500000 -97.433333
v -19.035472 -3.000000 -97.433333
v -19.854202 0.000000 -97.433333
v 19.854202 0.000000 -97.433333
v 19.035472 -3.000000 -97.433333
v 12.280950 -8.500000 -97.433333
v -12.497512 -8.500000 -87.412500
v -19.371143 -3.000000 -87.412500
v -20.204311 0.000000 -87.412500
v 20.204311 0.000000 -87.412500
v 19.371143 -3.000000 -87.412500
v 12.497512 -8.500000 -87.412500
v -12.705752 -8.500000 -77.391667
v -19.693916 -3.000000 -77.391667
v -20.540966 0.000000 -77.391667
v 20.540966 0.000000 -77.391667
v 19.693916 -3.000000 -77.391667
v 12.705752 -8.500000 -77.391667
v -12.904862 -8.500000 -67.370833
v -20.002537 -3.000000 -67.370833
v -20.862861 0.000000 -67.370833
v 20.862861 0.000000 -67.370833
v 20.002537 -3.000000 -67.370833
v 12.904862 -8.500000 -67.370833
v -13.094068 -8.500000 -57.350000
v -20.295806 -3.000000 -57.350000
v -21.168744 0.000000 -57.350000
v 21.168744 0.000000 -57.350000
v 20.295806 -3.000000 -57.350000
v 13.094068 -8.500000 -57.350000
v -13.272636 -8.500000 -47.329167
v -20.572585 -3.000000 -47.329167
v -21.457428 0.000000 -47.329167
v 21.457428 0.000000 -47.329167
v 20.572585 -3.000000 -47.329167
v 13.272636 -8.500000 -47.329167
v -13.439870 -8.500000 -37.308333
v -20.831799 -3.000000 -37.308333
v -21.727790 0.000000 -37.308333
v 21.727790 0.000000 -37.308333
v 20.831799 -3.000000 -37.308333
v 13.439870 -8.500000 -37.308333
v -13.595123 -8.500000 -27.287500
v -21.072441 -3.000000 -27.287500
v -21.978782 0.000000 -27.287500
v 21.978782 0.000000 -27.287500
v 21.072441 -3.000000 -27.287500
v 13.595123 -8.500000 -27.287500
v -13.737791 -8.500000 -17.266667
v -21.293576 -3.000000 -17.266667
v -22.209428 0.000000 -17.266667
v 22.209428 0.000000 -17.266667
v 21.293576 -3.000000 -17.266667
v 13.737791 -8.500000 -17.266667
v -13.867319 -8.500000 -7.245833
v -21.494345 -3.000000 -7.245833
v -22.418833 0.000000 -7.245833
v 22.418833 0.000000 -7.245833
v 21.494345 -3.000000 -7.245833
v 13.867319 -8.500000 -7.245833
v -13.983206 -8.500000 2.775000
v -21.673969 -3.000000 2.775000
v -22.606182 0.000000 2.775000
v 22.606182 0.000000 2.775000
v 21.673969 -3.000000 2.775000
v 13.983206 -8.500000 2.775000
v -14.084999 -8.500000 12.795833
v -21.831749 -3.000000 12.795833
v -22.770749 0.000000 12.795833
v 22.770749 0.000000 12.795833
v 21.831749 -3.000000 12.795833
v 14.084999 -8.500000 12.795833
v -14.172306 -8.500000 22.816667
v -21.967074 -3.000000 22.816667
v -22.911894 0.000000 22.816667
v 22.911894 0.000000 22.816667
v 21.967074 -3.000000 22.816667
v 14.172306 -8.500000 22.816667
v -14.244785 -8.500000 32.837500
v -22.079416 -3.000000 32.837500
v -23.029069 0.000000 32.837500
v 23.029069 0.000000 32.837500
v 22.079416 -3.000000 32.837500
v 14.244785 -8.500000 32.837500
v -14.302155 -8.500000 42.858333
v -22.168341 -3.000000 42.858333
v -23.121818 0.000000 42.858333
v 23.121818 0.000000 42.858333
v 22.168341 -3.000000 42.858333
v 14.302155 -8.500000 42.858333
v -14.344195 -8.500000 52.879167
v -22.233502 -3.000000 52.879167
v -23.189782 0.000000 52.879167
v 23.189782 0.000000 52.879167
v 22.233502 -3.000000 52.879167
v 14.344195 -8.500000 52.879167
v -14.370740 -8.500000 62.900000
v -22.274647 -3.000000 62.900000
v -23.232696 0.000000 62.900000
v 23.232696 0.000000 62.900000
v 22.274647 -3.000000 62.900000
v 14.370740 -8.500000 62.900000
v -14.381687 -8.500000 72.920833
v -22.291615 -3.000000 72.920833
v -23.250394 0.000000 72.920833
v 23.250394 0.000000 72.920833
v 22.291615 -3.000000 72.920833
v 14.381687 -8.500000 72.920833
v -14.382000 -8.500000 82.941667
v -22.292100 -3.000000 82.941667
v -23.250900 0.000000 82.941667
v 23.250900 0.000000 82.941667
v 22.292100 -3.000000 82.941667
v 14.382000 -8.500000 82.941667
v -14.382000 -8.500000 92.962500
v -22.292100 -3.000000 92.962500
v -23.250900 0.000000 92.962500
v 23.250900 0.000000 92.962500
v 22.292100 -3.000000 92.962500
v 14.382000 -8.500000 92.962500
v -14.100751 -8.500000 102.983333
v -21.856165 -3.000000 102.983333
v -22.796215 0.000000 102.983333
v 22.796215 0.000000 102.983333
v 21.856165 -3.000000 102.983333
v 14.100751 -8.500000 102.983333
v -13.228318 -8.500000 113.004167
v -20.503893 -3.000000 113.004167
v -21.385781 0.000000 113.004167
v 21.385781 0.000000 113.004167
v 20.503893 -3.000000 113.004167
v 13.228318 -8.500000 113.004167
v -12.025723 -8.500000 123.025000
v -18.639871 -3.000000 123.025000
v -19.441586 0.000000 123.025000
v 19.441586 0.000000 123.025000
v 18.639871 -3.000000 123.025000
v 12.025723 -8.500000 123.025000
v -10.567194 -8.500000 133.045833
v -16.379150 -3.000000 133.045833
v -17.083630 0.000000 133.045833
v 17.083630 0.000000 133.045833
v 16.379150 -3.000000 133.045833
v 10.567194 -8.500000 133.045833
v -8.891684 -8.500000 143.066667
v -13.782110 -3.000000 143.066667
v -14.374888 0.000000 143.066667
v 14.374888 0.000000 143.066667
v 13.782110 -3.000000 143.066667
v 8.891684 -8.500000 143.066667
v -7.024351 -8.500000 153.087500
v -10.887744 -3.000000 153.087500
v -11.356034 0.000000 153.087500
v 11.356034 0.000000 153.087500
v 10.887744 -3.000000 153.087500
v 7.024351 -8.500000 153.087500
v -4.983197 -8.500000 163.108333
v -7.723956 -3.000000 163.108333
v -8.056169 0.000000 163.108333
v 8.056169 0.000000 163.108333
v 7.723956 -3.000000 163.108333
v 4.983197 -8.500000 163.108333
v -2.781934 -8.500000 173.129167
v -4.311998 -3.000000 173.129167
v -4.497461 0.000000 173.129167
v 4.497461 0.000000 173.129167
v 4.311998 -3.000000 173.129167
v 2.781934 -8.500000 173.129167
v -0.431460 -8.500000 183.150000
v -0.668763 -3.000000 183.150000
v -0.697527 0.000000 183.150000
v 0.697527 0.000000 183.150000
v 0.668763 -3.000000 183.150000
v 0.431460 -8.500000 183.150000
f 229 230 224
f 229 224 223
f 230 231 225
f 230 225 224
f 231 232 226
f 231 226 225
f 232 233 227
f 232 227 226
f 233 234 228
f 233 228 227
f 234 229 223
f 234 223 228
f 235 236 230
f 235 230 229
f 236 237 231
f 236 231 230
f 237 238 232
f 237 232 231
f 238 239 233
f 238 233 232
f 239 240 234
f 239 234 233
f 240 235 229
f 240 229 234
f 241 242 236
f 241 236 235
f 242 243 237
f 242 237 236
f 243 244 238
f 243 238 237
f 244 245 239
f 244 239 238
f 245 246 240
f 245 240 239
f 246 241 235
f 246 235 240
f 247 248 242
f 247 242 241
f 248 249 243
f 248 243 242
f 249 250 244
f 249 244 243
f 250 251 245
f 250 245 244
f 251 252 246
f 251 246 245
f 252 247 241
f 252 241 246
f 253 254 248
f 253 248 247
f 254 255 249
f 254 249 248
f 255 256 250
f 255 250 249
f 256 257 251
f 256 251 250
f 257 258 252
f 257 252 251
f 258 253 247
f 258 247 252
f 259 260 254
f 259 254 253
f 260 261 255
f 260 255 254
f 261 262 256
f 261 256 255
f 262 263 257
f 262 257 256
f 263 264 258
f 263 258 257
f 264 259 253
f 264 253 258
f 265 266 260
f 265 260 259
f 266 267 261
f 266 261 260
f 267 268 262
f 267 262 261
f 268 269 263
f 268 263 262
f 269 270 264
f 269 264 263
f 270 265 259
f 270 259 264
f 271 272 266
f 271 266 265
f 272 273 267
f 272 267 266
f 273 274 268
f 273 268 267
f 274 275 269
f 274 269 268
f 275 276 270
f 275 270 269
f 276 271 265
f 276 265 270
f 277 278 272
f 277 272 271
f 278 279 273
f 278 273 272
f 279 280 274
f 279 274 273
f 280 281 275
f 280 275 274
f 281 282 276
f 281 276 275
f 282 277 271
f 282 271 276
f 283 284 278
f 283 278 277
f 284 285 279
f 284 279 278
f 285 286 280
f 285 280 279
f 286 287 281
f 286 281 280
f 287 288 282
f 287 282 281
f 288 283 277
f 288 277 282
f 289 290 284
f 289 284 283
f 290 291 285
f 290 285 284
f 291 292 286
f 291 286 285
f 292 293 287
f 292 287 286
f 293 294 288
f 293 288 287
f 294 289 283
f 294 283 288
f 295 296 290
f 295 290 289
f 296 297 291
f 296 291 290
f 297 298 292
f 297 292 291
f 298 299 293
f 298 293 292
f 299 300 294
f 299 294 293
f 300 295 289
f 300 289 294
f 301 302 296
f 301 296 295
f 302 303 297
f 302 297 296
f 303 304 298
f 303 298 297
f 304 305 299
f 304 299 298
f 305 306 300
f 305 300 299
f 306 301 295
f 306 295 300
f 307 308 302
f 307 302 301
f 308 309 303
f 308 303 302
f 309 310 304
f 309 304 303
f 310 311 305
f 310 305 304
f 311 312 306
f 311 306 305
f 312 307 301
f 312 301 306
f 313 314 308
f 313 308 307
f 314 315 309
f 314 309 308
f 315 316 310
f 315 310 309
f 316 317 311
f 316 311 310
f 317 318 312
f 317 312 311
f 318 313 307
f 318 307 312
f 319 320 314
f 319 314 313
f 320 321 315
f 320 315 314
f 321 322 316
f 321 316 315
f 322 323 317
f 322 317 316
f 323 324 318
f 323 318 317
f 324 319 313
f 324 313 318
f 325 326 320
f 325 320 319
f 326 327 321
f 326 321 320
f 327 328 322
f 327 322 321
f 328 329 323
f 328 323 322
f 329 330 324
f 329 324 323
f 330 325 319
f 330 319 324
f 331 332 326
f 331 326 325
f 332 333 327
f 332 327 326
f 333 334 328
f 333 328 327
f 334 335 329
f 334 329 328
f 335 336 330
f 335 330 329
f 336 331 325
f 336 325 330
f 337 338 332
f 337 332 331
f 338 339 333
f 338 333 332
f 339 340 334
f 339 334 333
f 340 341 335
f 340 335 334
f 341 342 336
f 341 336 335
f 342 337 331
f 342 331 336
f 343 344 338
f 343 338 337
f 344 345 339
f 344 339 338
f 345 346 340
f 345 340 339
f 346 347 341
f 346 341 340
f 347 348 342
f 347 342 341
f 348 343 337
f 348 337 342
f 349 350 344
f 349 344 343
f 350 351 345
f 350 345 344
f 351 352 346
f 351 346 345
f 352 353 347
f 352 347 346
f 353 354 348
f 353 348 347
f 354 349 343
f 354 343 348
f 355 356 350
f 355 350 349
f 356 357 351
f 356 351 350
f 357 358 352
f 357 352 351
f 358 359 353
f 358 353 352
f 359 360 354
f 359 354 353
f 360 355 349
f 360 349 354
f 361 362 356
f 361 356 355
f 362 363 357
f 362 357 356
f 363 364 358
f 363 358 357
f 364 365 359
f 364 359 358
f 365 366 360
f 365 360 359
f 366 361 355
f 366 355 360
f 367 368 362
f 367 362 361
f 368 369 363
f 368 363 362
f 369 370 364
f 369 364 363
f 370 371 365
f 370 365 364
f 371 372 366
f 371 366 365
f 372 367 361
f 372 361 366
f 373 374 368
f 373 368 367
f 374 375 369
f 374 369 368
f 375 376 370
f 375 370 369
f 376 377 371
f 376 371 370
f 377 378 372
f 377 372 371
f 378 373 367
f 378 367 372
f 379 380 374
f 379 374 373
f 380 381 375
f 380 375 374
f 381 382 376
f 381 376 375
f 382 383 377
f 382 377 376
f 383 384 378
f 383 378 377
f 384 379 373
f 384 373 378
f 385 386 380
f 385 380 379
f 386 387 381
f 386 381 380
f 387 388 382
f 387 382 381
f 388 389 383
f 388 383 382
f 389 390 384
f 389 384 383
f 390 385 379
f 390 379 384
f 391 392 386
f 391 386 385
f 392 393 387
f 392 387 386
f 393 394 388
f 393 388 387
f 394 395 389
f 394 389 388
f 395 396 390
f 395 390 389
f 396 391 385
f 396 385 390
f 397 398 392
f 397 392 391
f 398 399 393
f 398 393 392
f 399 400 394
f 399 394 393
f 400 401 395
f 400 395 394
f 401 402 396
f 401 396 395
f 402 397 391
f 402 391 396
f 403 404 398
f 403 398 397
f 404 405 399
f 404 399 398
f 405 406 400
f 405 400 399
f 406 407 401
f 406 401 400
f 407 408 402
f 407 402 401
f 408 403 397
f 408 397 402
f 409 410 404
f 409 404 403
f 410 411 405
f 410 405 404
f 411 412 406
f 411 406 405
f 412 413 407
f 412 407 406
f 413 414 408
f 413 408 407
f 414 409 403
f 414 403 408
f 415 416 410
f 415 410 409
f 416 417 411
f 416 411 410
f 417 418 412
f 417 412 411
f 418 419 413
f 418 413 412
f 419 420 414
f 419 414 413
f 420 415 409
f 420 409 414
f 421 422 416
f 421 416 415
f 422 423 417
f 422 417 416
f 423 424 418
f 423 418 417
f 424 425 419
f 424 419 418
f 425 426 420
f 425 420 419
f 426 421 415
f 426 415 420
f 427 428 422
f 427 422 421
f 428 429 423
f 428 423 422
f 429 430 424
f 429 424 423
f 430 431 425
f 430 425 424
f 431 432 426
f 431 426 425
f 432 427 421
f 432 421 426
f 433 434 428
f 433 428 427
f 434 435 429
f 434 429 428
f 435 436 430
f 435 430 429
f 436 437 431
f 436 431 430
f 437 438 432
f 437 432 431
f 438 433 427
f 438 427 432
f 439 440 434
f 439 434 433
f 440 441 435
f 440 435 434
f 441 442 436
f 441 436 435
f 442 443 437
f 442 437 436
f 443 444 438
f 443 438 437
f 444 439 433
f 444 433 438
f 223 224 225
f 223 225 226
f 223 226 227
f 223 227 228
f 444 443 442
f 444 442 441
f 444 441 440
f 444 440 439
o FlightDeck
usemtl deck
v -36.720000 19.000000 -185.000000
v 35.700000 19.000000 -185.000000
v 49.980000 19.000000 -140.600000
v 49.980000 19.000000 111.000000
v 38.760000 19.000000 185.000000
v -34.680000 19.000000 185.000000
v -48.960000 19.000000 114.700000
v -56.100000 19.000000 -44.400000
v -55.080000 19.000000 -118.400000
v -36.720000 20.000000 -185.000000
v 35.700000 20.000000 -185.000000
v 49.980000 20.000000 -140.600000
v 49.980000 20.000000 111.000000
v 38.760000 20.000000 185.000000
v -34.680000 20.000000 185.000000
v -48.960000 20.000000 114.700000
v -56.100000 20.000000 -44.400000
v -55.080000 20.000000 -118.400000
f 453 445 446
f 453 446 447
f 453 447 448
f 453 448 449
f 453 449 450
f 453 450 451
f 451 452 453
f 455 454 462
f 456 455 462
f 457 456 462
f 458 457 462
f 459 458 462
f 460 459 462
f 462 461 460
f 445 454 455
f 445 455 446
f 446 455 456
f 446 456 447
f 447 456 457
f 447 457 448
f 448 457 458
f 448 458 449
f 449 458 459
f 449 459 450
f 450 459 460
f 450 460 451
f 451 460 461
f 451 461 452
f 452 461 462
f 452 462 453
f 453 462 454
f 453 454 445
o Island
usemtl island
v 30.600000 20.000000 -70.300000
v 43.860000 20.000000 -70.300000
v 41.820000 20.000000 11.100000
v 32.640000 20.000000 11.100000
v 30.600000 32.000000 -70.300000
v 43.860000 32.000000 -70.300000
v 41.820000 32.000000 11.100000
v 32.640000 32.000000 11.100000
f 466 463 464
f 464 465 466
f 468 467 470
f 470 469 468
f 463 467 468
f 463 468 464
f 464 468 469
f 464 469 465
f 465 469 470
f 465 470 466
f 466 470 467
f 466 467 463
o Bridge
usemtl island
v 30.090000 32.500000 -24.050000
v 44.370000 32.500000 -24.050000
v 44.370000 35.500000 -24.050000
v 30.090000 35.500000 -24.050000
v 30.090000 32.500000 9.250000
v 44.370000 32.500000 9.250000
v 44.370000 35.500000 9.250000
v 30.090000 35.500000 9.250000
f 471 474 473
f 471 473 472
f 475 476 477
f 475 477 478
f 471 472 476
f 471 476 475
f 474 478 477
f 474 477 473
f 471 475 478
f 471 478 474
f 472 473 477
f 472 477 476
o BridgeGlass
usemtl glass
v 29.898000 33.200000 -23.125000
v 30.078000 33.200000 -23.125000
v 30.078000 34.800000 -23.125000
v 29.898000 34.800000 -23.125000
v 29.898000 33.200000 8.325000
v 30.078000 33.200000 8.325000
v 30.078000 34.800000 8.325000
v 29.898000 34.800000 8.325000
f 479 482 481
f 479 481 480
f 483 484 485
f 483 485 486
f 479 480 484
f 479 484 483
f 482 486 485
f 482 485 481
f 479 483 486
f 479 486 482
f 480 481 485
f 480 485 484
o IntegratedMast
usemtl island
v 33.230000 32.000000 -33.600000
v 41.230000 32.000000 -33.600000
v 40.230000 32.000000 -26.600000
v 34.230000 32.000000 -26.600000
v 33.230000 47.000000 -33.600000
v 41.230000 47.000000 -33.600000
v 40.230000 47.000000 -26.600000
v 34.230000 47.000000 -26.600000
f 490 487 488
f 488 489 490
f 492 491 494
f 494 493 492
f 487 491 492
f 487 492 488
f 488 492 493
f 488 493 489
f 489 493 494
f 489 494 490
f 490 494 491
f 490 491 487
o AviationIsland
usemtl island
v 32.130000 20.000000 -117.475000
v 42.330000 20.000000 -117.475000
v 42.330000 32.000000 -117.475000
v 32.130000 32.000000 -117.475000
v 32.130000 20.000000 -89.725000
v 42.330000 20.000000 -89.725000
v 42.330000 32.000000 -89.725000
v 32.130000 32.000000 -89.725000
f 495 498 497
f 495 497 496
f 499 500 501
f 499 501 502
f 495 496 500
f 495 500 499
f 498 502 501
f 498 501 497
f 495 499 502
f 495 502 498
f 496 497 501
f 496 501 500
o AviationGlass
usemtl glass
v 31.938000 29.000000 -115.625000
v 32.118000 29.000000 -115.625000
v 32.118000 31.000000 -115.625000
v 31.938000 31.000000 -115.625000
v 31.938000 29.000000 -91.575000
v 32.118000 29.000000 -91.575000
v 32.118000 31.000000 -91.575000
v 31.938000 31.000000 -91.575000
f 503 506 505
f 503 505 504
f 507 508 509
f 507 509 510
f 503 504 508
f 503 508 507
f 506 510 509
f 506 509 505
f 503 507 510
f 503 510 506
f 504 505 509
f 504 509 508
o Elevator_1
usemtl hull
v 31.800000 20.000000 75.100000
v 49.800000 20.000000 75.100000
v 49.800000 20.160000 75.100000
v 31.800000 20.160000 75.100000
v 31.800000 20.000000 95.100000
v 49.800000 20.000000 95.100000
v 49.800000 20.160000 95.100000
v 31.800000 20.160000 95.100000
f 511 514 513
f 511 513 512
f 515 516 517
f 515 517 518
f 511 512 516
f 511 516 515
f 514 518 517
f 514 517 513
f 511 515 518
f 511 518 514
f 512 513 517
f 512 517 516
o Elevator_2
usemtl hull
v 31.800000 20.000000 -76.600000
v 49.800000 20.000000 -76.600000
v 49.800000 20.160000 -76.600000
v 31.800000 20.160000 -76.600000
v 31.800000 20.000000 -56.600000
v 49.800000 20.000000 -56.600000
v 49.800000 20.160000 -56.600000
v 31.800000 20.160000 -56.600000
f 519 522 521
f 519 521 520
f 523 524 525
f 523 525 526
f 519 520 524
f 519 524 523
f 522 526 525
f 522 525 521
f 519 523 526
f 519 526 522
f 520 521 525
f 520 525 524
o Elevator_3
usemtl hull
v 31.800000 20.000000 -135.800000
v 49.800000 20.000000 -135.800000
v 49.800000 20.160000 -135.800000
v 31.800000 20.160000 -135.800000
v 31.800000 20.000000 -115.800000
v 49.800000 20.000000 -115.800000
v 49.800000 20.160000 -115.800000
v 31.800000 20.160000 -115.800000
f 527 530 529
f 527 529 528
f 531 532 533
f 531 533 534
f 527 528 532
f 527 532 531
f 530 534 533
f 530 533 529
f 527 531 534
f 527 534 530
f 528 529 533
f 528 533 532
o Elevator_4
usemtl hull
v -51.840000 20.000000 -91.400000
v -33.840000 20.000000 -91.400000
v -33.840000 20.160000 -91.400000
v -51.840000 20.160000 -91.400000
v -51.840000 20.000000 -71.400000
v -33.840000 20.000000 -71.400000
v -33.840000 20.160000 -71.400000
v -51.840000 20.160000 -71.400000
f 535 538 537
f 535 537 536
f 539 540 541
f 539 541 542
f 535 536 540
f 535 540 539
f 538 542 541
f 538 541 537
f 535 539 542
f 535 542 538
f 536 537 541
f 536 541 540
o Catapult_1
usemtl gold
v 13.930015 20.110000 88.803290
v 14.730015 20.110000 173.903290
v 15.429985 20.110000 173.896710
v 14.629985 20.110000 88.796710
v 13.930015 20.150000 88.803290
v 14.730015 20.150000 173.903290
v 15.429985 20.150000 173.896710
v 14.629985 20.150000 88.796710
f 543 546 545
f 545 544 543
f 549 550 547
f 547 548 549
f 544 548 547
f 544 547 543
f 545 549 548
f 545 548 544
f 546 550 549
f 546 549 545
f 543 547 550
f 543 550 546
o Catapult_2
usemtl gold
v -15.649985 20.110000 88.803290
v -14.849985 20.110000 173.903290
v -14.150015 20.110000 173.896710
v -14.950015 20.110000 88.796710
v -15.649985 20.150000 88.803290
v -14.849985 20.150000 173.903290
v -14.150015 20.150000 173.896710
v -14.950015 20.150000 88.796710
f 551 554 553
f 553 552 551
f 557 558 555
f 555 556 557
f 552 556 555
f 552 555 551
f 553 557 556
f 553 556 552
f 554 558 557
f 554 557 553
f 551 555 558
f 551 558 554
o Catapult_3
usemtl gold
v -30.949985 20.110000 -36.996710
v -30.149985 20.110000 48.103290
v -29.450015 20.110000 48.096710
v -30.250015 20.110000 -37.003290
v -30.949985 20.150000 -36.996710
v -30.149985 20.150000 48.103290
v -29.450015 20.150000 48.096710
v -30.250015 20.150000 -37.003290
f 559 562 561
f 561 560 559
f 565 566 563
f 563 564 565
f 560 564 563
f 560 563 559
f 561 565 564
f 561 564 560
f 562 566 565
f 562 565 561
f 559 563 566
f 559 566 562
o Catapult_4
usemtl gold
v -40.129985 20.110000 -36.996710
v -39.329985 20.110000 48.103290
v -38.630015 20.110000 48.096710
v -39.430015 20.110000 -37.003290
v -40.129985 20.150000 -36.996710
v -39.329985 20.150000 48.103290
v -38.630015 20.150000 48.096710
v -39.430015 20.150000 -37.003290
f 567 570 569
f 569 568 567
f 573 574 571
f 571 572 573
f 568 572 571
f 568 571 567
f 569 573 572
f 569 572 568
f 570 574 573
f 570 573 569
f 567 571 574
f 567 574 570
o LandingEdge_-1
usemtl white
v 0.116997 20.120000 -162.822253
v -42.723003 20.120000 73.977747
v -42.476997 20.120000 74.022253
v 0.363003 20.120000 -162.777747
v 0.116997 20.160000 -162.822253
v -42.723003 20.160000 73.977747
v -42.476997 20.160000 74.022253
v 0.363003 20.160000 -162.777747
f 575 578 577
f 577 576 575
f 581 582 579
f 579 580 581
f 576 580 579
f 576 579 575
f 577 581 580
f 577 580 576
f 578 582 581
f 578 581 577
f 575 579 582
f 575 582 578
o LandingEdge_1
usemtl white
v 24.116997 20.120000 -162.822253
v -18.723003 20.120000 73.977747
v -18.476997 20.120000 74.022253
v 24.363003 20.120000 -162.777747
v 24.116997 20.160000 -162.822253
v -18.723003 20.160000 73.977747
v -18.476997 20.160000 74.022253
v 24.363003 20.160000 -162.777747
f 583 586 585
f 585 584 583
f 589 590 587
f 587 588 589
f 584 588 587
f 584 587 583
f 585 589 588
f 585 588 584
f 586 590 589
f 586 589 585
f 583 587 590
f 583 590 586
o Centreline_0
usemtl white
v 12.067795 20.130000 -162.831154
v 10.690795 20.130000 -155.219725
v 11.035205 20.130000 -155.157418
v 12.412205 20.130000 -162.768846
v 12.067795 20.170000 -162.831154
v 10.690795 20.170000 -155.219725
v 11.035205 20.170000 -155.157418
v 12.412205 20.170000 -162.768846
f 591 594 593
f 593 592 591
f 597 598 595
f 595 596 597
f 592 596 595
f 592 595 591
f 593 597 596
f 593 596 592
f 594 598 597
f 594 597 593
f 591 595 598
f 591 598 594
o Centreline_1
usemtl white
v 9.007795 20.130000 -145.916868
v 7.630795 20.130000 -138.305440
v 7.975205 20.130000 -138.243132
v 9.352205 20.130000 -145.854560
v 9.007795 20.170000 -145.916868
v 7.630795 20.170000 -138.305440
v 7.975205 20.170000 -138.243132
v 9.352205 20.170000 -145.854560
f 599 602 601
f 601 600 599
f 605 606 603
f 603 604 605
f 600 604 603
f 600 603 599
f 601 605 604
f 601 604 600
f 602 606 605
f 602 605 601
f 599 603 606
f 599 606 602
o Centreline_2
usemtl white
v 5.947795 20.130000 -129.002582
v 4.570795 20.130000 -121.391154
v 4.915205 20.130000 -121.328846
v 6.292205 20.130000 -128.940275
v 5.947795 20.170000 -129.002582
v 4.570795 20.170000 -121.391154
v 4.915205 20.170000 -121.328846
v 6.292205 20.170000 -128.940275
f 607 610 609
f 609 608 607
f 613 614 611
f 611 612 613
f 608 612 611
f 608 611 607
f 609 613 612
f 609 612 608
f 610 614 613
f 610 613 609
f 607 611 614
f 607 614 610
o Centreline_3
usemtl white
v 2.887795 20.130000 -112.088297
v 1.510795 20.130000 -104.476868
v 1.855205 20.130000 -104.414560
v 3.232205 20.130000 -112.025989
v 2.887795 20.170000 -112.088297
v 1.510795 20.170000 -104.476868
v 1.855205 20.170000 -104.414560
v 3.232205 20.170000 -112.025989
f 615 618 617
f 617 616 615
f 621 622 619
f 619 620 621
f 616 620 619
f 616 619 615
f 617 621 620
f 617 620 616
f 618 622 621
f 618 621 617
f 615 619 622
f 615 622 618
o Centreline_4
usemtl white
v -0.172205 20.130000 -95.174011
v -1.549205 20.130000 -87.562582
v -1.204795 20.130000 -87.500275
v 0.172205 20.130000 -95.111703
v -0.172205 20.170000 -95.174011
v -1.549205 20.170000 -87.562582
v -1.204795 20.170000 -87.500275
v 0.172205 20.170000 -95.111703
f 623 626 625
f 625 624 623
f 629 630 627
f 627 628 629
f 624 628 627
f 624 627 623
f 625 629 628
f 625 628 624
f 626 630 629
f 626 629 625
f 623 627 630
f 623 630 626
o Centreline_5
usemtl white
v -3.232205 20.130000 -78.259725
v -4.609205 20.130000 -70.648297
v -4.264795 20.130000 -70.585989
v -2.887795 20.130000 -78.197418
v -3.232205 20.170000 -78.259725
v -4.609205 20.170000 -70.648297
v -4.264795 20.170000 -70.585989
v -2.887795 20.170000 -78.197418
f 631 634 633
f 633 632 631
f 637 638 635
f 635 636 637
f 632 636 635
f 632 635 631
f 633 637 636
f 633 636 632
f 634 638 637
f 634 637 633
f 631 635 638
f 631 638 634
o Centreline_6
usemtl white
v -6.292205 20.130000 -61.345440
v -7.669205 20.130000 -53.734011
v -7.324795 20.130000 -53.671703
v -5.947795 20.130000 -61.283132
v -6.292205 20.170000 -61.345440
v -7.669205 20.170000 -53.734011
v -7.324795 20.170000 -53.671703
v -5.947795 20.170000 -61.283132
f 639 642 641
f 641 640 639
f 645 646 643
f 643 644 645
f 640 644 643
f 640 643 639
f 641 645 644
f 641 644 640
f 642 646 645
f 642 645 641
f 639 643 646
f 639 646 642
o Centreline_7
usemtl white
v -9.352205 20.130000 -44.431154
v -10.729205 20.130000 -36.819725
v -10.384795 20.130000 -36.757418
v -9.007795 20.130000 -44.368846
v -9.352205 20.170000 -44.431154
v -10.729205 20.170000 -36.819725
v -10.384795 20.170000 -36.757418
v -9.007795 20.170000 -44.368846
f 647 650 649
f 649 648 647
f 653 654 651
f 651 652 653
f 648 652 651
f 648 651 647
f 649 653 652
f 649 652 648
f 650 654 653
f 650 653 649
f 647 651 654
f 647 654 650
o Centreline_8
usemtl white
v -12.412205 20.130000 -27.516868
v -13.789205 20.130000 -19.905440
v -13.444795 20.130000 -19.843132
v -12.067795 20.130000 -27.454560
v -12.412205 20.170000 -27.516868
v -13.789205 20.170000 -19.905440
v -13.444795 20.170000 -19.843132
v -12.067795 20.170000 -27.454560
f 655 658 657
f 657 656 655
f 661 662 659
f 659 660 661
f 656 660 659
f 656 659 655
f 657 661 660
f 657 660 656
f 658 662 661
f 658 661 657
f 655 659 662
f 655 662 658
o Centreline_9
usemtl white
v -15.472205 20.130000 -10.602582
v -16.849205 20.130000 -2.991154
v -16.504795 20.130000 -2.928846
v -15.127795 20.130000 -10.540275
v -15.472205 20.170000 -10.602582
v -16.849205 20.170000 -2.991154
v -16.504795 20.170000 -2.928846
v -15.127795 20.170000 -10.540275
f 663 666 665
f 665 664 663
f 669 670 667
f 667 668 669
f 664 668 667
f 664 667 663
f 665 669 668
f 665 668 664
f 666 670 669
f 666 669 665
f 663 667 670
f 663 670 666
o Centreline_10
usemtl white
v -18.532205 20.130000 6.311703
v -19.909205 20.130000 13.923132
v -19.564795 20.130000 13.985440
v -18.187795 20.130000 6.374011
v -18.532205 20.170000 6.311703
v -19.909205 20.170000 13.923132
v -19.564795 20.170000 13.985440
v -18.187795 20.170000 6.374011
f 671 674 673
f 673 672 671
f 677 678 675
f 675 676 677
f 672 676 675
f 672 675 671
f 673 677 676
f 673 676 672
f 674 678 677
f 674 677 673
f 671 675 678
f 671 678 674
o Centreline_11
usemtl white
v -21.592205 20.130000 23.225989
v -22.969205 20.130000 30.837418
v -22.624795 20.130000 30.899725
v -21.247795 20.130000 23.288297
v -21.592205 20.170000 23.225989
v -22.969205 20.170000 30.837418
v -22.624795 20.170000 30.899725
v -21.247795 20.170000 23.288297
f 679 682 681
f 681 680 679
f 685 686 683
f 683 684 685
f 680 684 683
f 680 683 679
f 681 685 684
f 681 684 680
f 682 686 685
f 682 685 681
f 679 683 686
f 679 686 682
o Centreline_12
usemtl white
v -24.652205 20.130000 40.140275
v -26.029205 20.130000 47.751703
v -25.684795 20.130000 47.814011
v -24.307795 20.130000 40.202582
v -24.652205 20.170000 40.140275
v -26.029205 20.170000 47.751703
v -25.684795 20.170000 47.814011
v -24.307795 20.170000 40.202582
f 687 690 689
f 689 688 687
f 693 694 691
f 691 692 693
f 688 692 691
f 688 691 687
f 689 693 692
f 689 692 688
f 690 694 693
f 690 693 689
f 687 691 694
f 687 694 690
o Centreline_13
usemtl white
v -27.712205 20.130000 57.054560
v -29.089205 20.130000 64.665989
v -28.744795 20.130000 64.728297
v -27.367795 20.130000 57.116868
v -27.712205 20.170000 57.054560
v -29.089205 20.170000 64.665989
v -28.744795 20.170000 64.728297
v -27.367795 20.170000 57.116868
f 695 698 697
f 697 696 695
f 701 702 699
f 699 700 701
f 696 700 699
f 696 699 695
f 697 701 700
f 697 700 696
f 698 702 701
f 698 701 697
f 695 699 702
f 695 702 698
o Sponson_1
usemtl hull
v -52.460000 18.100000 98.600000
v -45.460000 18.100000 98.600000
v -45.460000 19.500000 98.600000
v -52.460000 19.500000 98.600000
v -52.460000 18.100000 108.600000
v -45.460000 18.100000 108.600000
v -45.460000 19.500000 108.600000
v -52.460000 19.500000 108.600000
f 703 706 705
f 703 705 704
f 707 708 709
f 707 709 710
f 703 704 708
f 703 708 707
f 706 710 709
f 706 709 705
f 703 707 710
f 703 710 706
f 704 705 709
f 704 709 708
o AA_Base_1
usemtl island
v -47.160000 19.500000 103.600000
v -47.297017 19.500000 104.288830
v -47.687208 19.500000 104.872792
v -48.271170 19.500000 105.262983
v -48.960000 19.500000 105.400000
v -49.648830 19.500000 105.262983
v -50.232792 19.500000 104.872792
v -50.622983 19.500000 104.288830
v -50.760000 19.500000 103.600000
v -50.622983 19.500000 102.911170
v -50.232792 19.500000 102.327208
v -49.648830 19.500000 101.937017
v -48.960000 19.500000 101.800000
v -48.271170 19.500000 101.937017
v -47.687208 19.500000 102.327208
v -47.297017 19.500000 102.911170
v -47.160000 21.500000 103.600000
v -47.297017 21.500000 104.288830
v -47.687208 21.500000 104.872792
v -48.271170 21.500000 105.262983
v -48.960000 21.500000 105.400000
v -49.648830 21.500000 105.262983
v -50.232792 21.500000 104.872792
v -50.622983 21.500000 104.288830
v -50.760000 21.500000 103.600000
v -50.622983 21.500000 102.911170
v -50.232792 21.500000 102.327208
v -49.648830 21.500000 101.937017
v -48.960000 21.500000 101.800000
v -48.271170 21.500000 101.937017
v -47.687208 21.500000 102.327208
v -47.297017 21.500000 102.911170
f 726 711 712
f 726 712 713
f 726 713 714
f 726 714 715
f 726 715 716
f 726 716 717
f 726 717 718
f 726 718 719
f 726 719 720
f 726 720 721
f 726 721 722
f 726 722 723
f 726 723 724
f 724 725 726
f 728 727 742
f 729 728 742
f 730 729 742
f 731 730 742
f 732 731 742
f 733 732 742
f 734 733 742
f 735 734 742
f 736 735 742
f 737 736 742
f 738 737 742
f 739 738 742
f 740 739 742
f 742 741 740
f 711 727 728
f 711 728 712
f 712 728 729
f 712 729 713
f 713 729 730
f 713 730 714
f 714 730 731
f 714 731 715
f 715 731 732
f 715 732 716
f 716 732 733
f 716 733 717
f 717 733 734
f 717 734 718
f 718 734 735
f 718 735 719
f 719 735 736
f 719 736 720
f 720 736 737
f 720 737 721
f 721 737 738
f 721 738 722
f 722 738 739
f 722 739 723
f 723 739 740
f 723 740 724
f 724 740 741
f 724 741 725
f 725 741 742
f 725 742 726
f 726 742 727
f 726 727 711
o CIWS_Radome_1
usemtl white
v -48.160000 21.500000 103.600000
v -48.220896 21.500000 103.906147
v -48.394315 21.500000 104.165685
v -48.653853 21.500000 104.339104
v -48.960000 21.500000 104.400000
v -49.266147 21.500000 104.339104
v -49.525685 21.500000 104.165685
v -49.699104 21.500000 103.906147
v -49.760000 21.500000 103.600000
v -49.699104 21.500000 103.293853
v -49.525685 21.500000 103.034315
v -49.266147 21.500000 102.860896
v -48.960000 21.500000 102.800000
v -48.653853 21.500000 102.860896
v -48.394315 21.500000 103.034315
v -48.220896 21.500000 103.293853
v -48.160000 23.400000 103.600000
v -48.220896 23.400000 103.906147
v -48.394315 23.400000 104.165685
v -48.653853 23.400000 104.339104
v -48.960000 23.400000 104.400000
v -49.266147 23.400000 104.339104
v -49.525685 23.400000 104.165685
v -49.699104 23.400000 103.906147
v -49.760000 23.400000 103.600000
v -49.699104 23.400000 103.293853
v -49.525685 23.400000 103.034315
v -49.266147 23.400000 102.860896
v -48.960000 23.400000 102.800000
v -48.653853 23.400000 102.860896
v -48.394315 23.400000 103.034315
v -48.220896 23.400000 103.293853
f 758 743 744
f 758 744 745
f 758 745 746
f 758 746 747
f 758 747 748
f 758 748 749
f 758 749 750
f 758 750 751
f 758 751 752
f 758 752 753
f 758 753 754
f 758 754 755
f 758 755 756
f 756 757 758
f 760 759 774
f 761 760 774
f 762 761 774
f 763 762 774
f 764 763 774
f 765 764 774
f 766 765 774
f 767 766 774
f 768 767 774
f 769 768 774
f 770 769 774
f 771 770 774
f 772 771 774
f 774 773 772
f 743 759 760
f 743 760 744
f 744 760 761
f 744 761 745
f 745 761 762
f 745 762 746
f 746 762 763
f 746 763 747
f 747 763 764
f 747 764 748
f 748 764 765
f 748 765 749
f 749 765 766
f 749 766 750
f 750 766 767
f 750 767 751
f 751 767 768
f 751 768 752
f 752 768 769
f 752 769 753
f 753 769 770
f 753 770 754
f 754 770 771
f 754 771 755
f 755 771 772
f 755 772 756
f 756 772 773
f 756 773 757
f 757 773 774
f 757 774 758
f 758 774 759
f 758 759 743
o LaserMount_1
usemtl island
v -50.060000 20.500000 102.200000
v -47.860000 20.500000 102.200000
v -47.860000 22.500000 102.200000
v -50.060000 22.500000 102.200000
v -50.060000 20.500000 105.000000
v -47.860000 20.500000 105.000000
v -47.860000 22.500000 105.000000
v -50.060000 22.500000 105.000000
f 775 778 777
f 775 777 776
f 779 780 781
f 779 781 782
f 775 776 780
f 775 780 779
f 778 782 781
f 778 781 777
f 775 779 782
f 775 782 778
f 776 777 781
f 776 781 780
o LaserAperture_1
usemtl laser
v -49.560000 20.900000 105.025000
v -48.360000 20.900000 105.025000
v -48.360000 22.100000 105.025000
v -49.560000 22.100000 105.025000
v -49.560000 20.900000 105.175000
v -48.360000 20.900000 105.175000
v -48.360000 22.100000 105.175000
v -49.560000 22.100000 105.175000
f 783 786 785
f 783 785 784
f 787 788 789
f 787 789 790
f 783 784 788
f 783 788 787
f 786 790 789
f 786 789 785
f 783 787 790
f 783 790 786
f 784 785 789
f 784 789 788
o Sponson_2
usemtl hull
v 43.420000 18.100000 98.600000
v 50.420000 18.100000 98.600000
v 50.420000 19.500000 98.600000
v 43.420000 19.500000 98.600000
v 43.420000 18.100000 108.600000
v 50.420000 18.100000 108.600000
v 50.420000 19.500000 108.600000
v 43.420000 19.500000 108.600000
f 791 794 793
f 791 793 792
f 795 796 797
f 795 797 798
f 791 792 796
f 791 796 795
f 794 798 797
f 794 797 793
f 791 795 798
f 791 798 794
f 792 793 797
f 792 797 796
o AA_Base_2
usemtl island
v 48.720000 19.500000 103.600000
v 48.582983 19.500000 104.288830
v 48.192792 19.500000 104.872792
v 47.608830 19.500000 105.262983
v 46.920000 19.500000 105.400000
v 46.231170 19.500000 105.262983
v 45.647208 19.500000 104.872792
v 45.257017 19.500000 104.288830
v 45.120000 19.500000 103.600000
v 45.257017 19.500000 102.911170
v 45.647208 19.500000 102.327208
v 46.231170 19.500000 101.937017
v 46.920000 19.500000 101.800000
v 47.608830 19.500000 101.937017
v 48.192792 19.500000 102.327208
v 48.582983 19.500000 102.911170
v 48.720000 21.500000 103.600000
v 48.582983 21.500000 104.288830
v 48.192792 21.500000 104.872792
v 47.608830 21.500000 105.262983
v 46.920000 21.500000 105.400000
v 46.231170 21.500000 105.262983
v 45.647208 21.500000 104.872792
v 45.257017 21.500000 104.288830
v 45.120000 21.500000 103.600000
v 45.257017 21.500000 102.911170
v 45.647208 21.500000 102.327208
v 46.231170 21.500000 101.937017
v 46.920000 21.500000 101.800000
v 47.608830 21.500000 101.937017
v 48.192792 21.500000 102.327208
v 48.582983 21.500000 102.911170
f 814 799 800
f 814 800 801
f 814 801 802
f 814 802 803
f 814 803 804
f 814 804 805
f 814 805 806
f 814 806 807
f 814 807 808
f 814 808 809
f 814 809 810
f 814 810 811
f 814 811 812
f 812 813 814
f 816 815 830
f 817 816 830
f 818 817 830
f 819 818 830
f 820 819 830
f 821 820 830
f 822 821 830
f 823 822 830
f 824 823 830
f 825 824 830
f 826 825 830
f 827 826 830
f 828 827 830
f 830 829 828
f 799 815 816
f 799 816 800
f 800 816 817
f 800 817 801
f 801 817 818
f 801 818 802
f 802 818 819
f 802 819 803
f 803 819 820
f 803 820 804
f 804 820 821
f 804 821 805
f 805 821 822
f 805 822 806
f 806 822 823
f 806 823 807
f 807 823 824
f 807 824 808
f 808 824 825
f 808 825 809
f 809 825 826
f 809 826 810
f 810 826 827
f 810 827 811
f 811 827 828
f 811 828 812
f 812 828 829
f 812 829 813
f 813 829 830
f 813 830 814
f 814 830 815
f 814 815 799
o CIWS_Radome_2
usemtl white
v 47.720000 21.500000 103.600000
v 47.659104 21.500000 103.906147
v 47.485685 21.500000 104.165685
v 47.226147 21.500000 104.339104
v 46.920000 21.500000 104.400000
v 46.613853 21.500000 104.339104
v 46.354315 21.500000 104.165685
v 46.180896 21.500000 103.906147
v 46.120000 21.500000 103.600000
v 46.180896 21.500000 103.293853
v 46.354315 21.500000 103.034315
v 46.613853 21.500000 102.860896
v 46.920000 21.500000 102.800000
v 47.226147 21.500000 102.860896
v 47.485685 21.500000 103.034315
v 47.659104 21.500000 103.293853
v 47.720000 23.400000 103.600000
v 47.659104 23.400000 103.906147
v 47.485685 23.400000 104.165685
v 47.226147 23.400000 104.339104
v 46.920000 23.400000 104.400000
v 46.613853 23.400000 104.339104
v 46.354315 23.400000 104.165685
v 46.180896 23.400000 103.906147
v 46.120000 23.400000 103.600000
v 46.180896 23.400000 103.293853
v 46.354315 23.400000 103.034315
v 46.613853 23.400000 102.860896
v 46.920000 23.400000 102.800000
v 47.226147 23.400000 102.860896
v 47.485685 23.400000 103.034315
v 47.659104 23.400000 103.293853
f 846 831 832
f 846 832 833
f 846 833 834
f 846 834 835
f 846 835 836
f 846 836 837
f 846 837 838
f 846 838 839
f 846 839 840
f 846 840 841
f 846 841 842
f 846 842 843
f 846 843 844
f 844 845 846
f 848 847 862
f 849 848 862
f 850 849 862
f 851 850 862
f 852 851 862
f 853 852 862
f 854 853 862
f 855 854 862
f 856 855 862
f 857 856 862
f 858 857 862
f 859 858 862
f 860 859 862
f 862 861 860
f 831 847 848
f 831 848 832
f 832 848 849
f 832 849 833
f 833 849 850
f 833 850 834
f 834 850 851
f 834 851 835
f 835 851 852
f 835 852 836
f 836 852 853
f 836 853 837
f 837 853 854
f 837 854 838
f 838 854 855
f 838 855 839
f 839 855 856
f 839 856 840
f 840 856 857
f 840 857 841
f 841 857 858
f 841 858 842
f 842 858 859
f 842 859 843
f 843 859 860
f 843 860 844
f 844 860 861
f 844 861 845
f 845 861 862
f 845 862 846
f 846 862 847
f 846 847 831
o LaserMount_2
usemtl island
v 45.820000 20.500000 102.200000
v 48.020000 20.500000 102.200000
v 48.020000 22.500000 102.200000
v 45.820000 22.500000 102.200000
v 45.820000 20.500000 105.000000
v 48.020000 20.500000 105.000000
v 48.020000 22.500000 105.000000
v 45.820000 22.500000 105.000000
f 863 866 865
f 863 865 864
f 867 868 869
f 867 869 870
f 863 864 868
f 863 868 867
f 866 870 869
f 866 869 865
f 863 867 870
f 863 870 866
f 864 865 869
f 864 869 868
o LaserAperture_2
usemtl laser
v 46.320000 20.900000 105.025000
v 47.520000 20.900000 105.025000
v 47.520000 22.100000 105.025000
v 46.320000 22.100000 105.025000
v 46.320000 20.900000 105.175000
v 47.520000 20.900000 105.175000
v 47.520000 22.100000 105.175000
v 46.320000 22.100000 105.175000
f 871 874 873
f 871 873 872
f 875 876 877
f 875 877 878
f 871 872 876
f 871 876 875
f 874 878 877
f 874 877 873
f 871 875 878
f 871 878 874
f 872 873 877
f 872 877 876
o Sponson_3
usemtl hull
v -48.380000 18.100000 -153.000000
v -41.380000 18.100000 -153.000000
v -41.380000 19.500000 -153.000000
v -48.380000 19.500000 -153.000000
v -48.380000 18.100000 -143.000000
v -41.380000 18.100000 -143.000000
v -41.380000 19.500000 -143.000000
v -48.380000 19.500000 -143.000000
f 879 882 881
f 879 881 880
f 883 884 885
f 883 885 886
f 879 880 884
f 879 884 883
f 882 886 885
f 882 885 881
f 879 883 886
f 879 886 882
f 880 881 885
f 880 885 884
o AA_Base_3
usemtl island
v -43.080000 19.500000 -148.000000
v -43.217017 19.500000 -147.311170
v -43.607208 19.500000 -146.727208
v -44.191170 19.500000 -146.337017
v -44.880000 19.500000 -146.200000
v -45.568830 19.500000 -146.337017
v -46.152792 19.500000 -146.727208
v -46.542983 19.500000 -147.311170
v -46.680000 19.500000 -148.000000
v -46.542983 19.500000 -148.688830
v -46.152792 19.500000 -149.272792
v -45.568830 19.500000 -149.662983
v -44.880000 19.500000 -149.800000
v -44.191170 19.500000 -149.662983
v -43.607208 19.500000 -149.272792
v -43.217017 19.500000 -148.688830
v -43.080000 21.500000 -148.000000
v -43.217017 21.500000 -147.311170
v -43.607208 21.500000 -146.727208
v -44.191170 21.500000 -146.337017
v -44.880000 21.500000 -146.200000
v -45.568830 21.500000 -146.337017
v -46.152792 21.500000 -146.727208
v -46.542983 21.500000 -147.311170
v -46.680000 21.500000 -148.000000
v -46.542983 21.500000 -148.688830
v -46.152792 21.500000 -149.272792
v -45.568830 21.500000 -149.662983
v -44.880000 21.500000 -149.800000
v -44.191170 21.500000 -149.662983
v -43.607208 21.500000 -149.272792
v -43.217017 21.500000 -148.688830
f 902 887 888
f 902 888 889
f 902 889 890
f 902 890 891
f 902 891 892
f 902 892 893
f 902 893 894
f 902 894 895
f 902 895 896
f 902 896 897
f 902 897 898
f 902 898 899
f 902 899 900
f 900 901 902
f 904 903 918
f 905 904 918
f 906 905 918
f 907 906 918
f 908 907 918
f 909 908 918
f 910 909 918
f 911 910 918
f 912 911 918
f 913 912 918
f 914 913 918
f 915 914 918
f 916 915 918
f 918 917 916
f 887 903 904
f 887 904 888
f 888 904 905
f 888 905 889
f 889 905 906
f 889 906 890
f 890 906 907
f 890 907 891
f 891 907 908
f 891 908 892
f 892 908 909
f 892 909 893
f 893 909 910
f 893 910 894
f 894 910 911
f 894 911 895
f 895 911 912
f 895 912 896
f 896 912 913
f 896 913 897
f 897 913 914
f 897 914 898
f 898 914 915
f 898 915 899
f 899 915 916
f 899 916 900
f 900 916 917
f 900 917 901
f 901 917 918
f 901 918 902
f 902 918 903
f 902 903 887
o CIWS_Radome_3
usemtl white
v -44.080000 21.500000 -148.000000
v -44.140896 21.500000 -147.693853
v -44.314315 21.500000 -147.434315
v -44.573853 21.500000 -147.260896
v -44.880000 21.500000 -147.200000
v -45.186147 21.500000 -147.260896
v -45.445685 21.500000 -147.434315
v -45.619104 21.500000 -147.693853
v -45.680000 21.500000 -148.000000
v -45.619104 21.500000 -148.306147
v -45.445685 21.500000 -148.565685
v -45.186147 21.500000 -148.739104
v -44.880000 21.500000 -148.800000
v -44.573853 21.500000 -148.739104
v -44.314315 21.500000 -148.565685
v -44.140896 21.500000 -148.306147
v -44.080000 23.400000 -148.000000
v -44.140896 23.400000 -147.693853
v -44.314315 23.400000 -147.434315
v -44.573853 23.400000 -147.260896
v -44.880000 23.400000 -147.200000
v -45.186147 23.400000 -147.260896
v -45.445685 23.400000 -147.434315
v -45.619104 23.400000 -147.693853
v -45.680000 23.400000 -148.000000
v -45.619104 23.400000 -148.306147
v -45.445685 23.400000 -148.565685
v -45.186147 23.400000 -148.739104
v -44.880000 23.400000 -148.800000
v -44.573853 23.400000 -148.739104
v -44.314315 23.400000 -148.565685
v -44.140896 23.400000 -148.306147
f 934 919 920
f 934 920 921
f 934 921 922
f 934 922 923
f 934 923 924
f 934 924 925
f 934 925 926
f 934 926 927
f 934 927 928
f 934 928 929
f 934 929 930
f 934 930 931
f 934 931 932
f 932 933 934
f 936 935 950
f 937 936 950
f 938 937 950
f 939 938 950
f 940 939 950
f 941 940 950
f 942 941 950
f 943 942 950
f 944 943 950
f 945 944 950
f 946 945 950
f 947 946 950
f 948 947 950
f 950 949 948
f 919 935 936
f 919 936 920
f 920 936 937
f 920 937 921
f 921 937 938
f 921 938 922
f 922 938 939
f 922 939 923
f 923 939 940
f 923 940 924
f 924 940 941
f 924 941 925
f 925 941 942
f 925 942 926
f 926 942 943
f 926 943 927
f 927 943 944
f 927 944 928
f 928 944 945
f 928 945 929
f 929 945 946
f 929 946 930
f 930 946 947
f 930 947 931
f 931 947 948
f 931 948 932
f 932 948 949
f 932 949 933
f 933 949 950
f 933 950 934
f 934 950 935
f 934 935 919
o LaserMount_3
usemtl island
v -45.980000 20.500000 -149.400000
v -43.780000 20.500000 -149.400000
v -43.780000 22.500000 -149.400000
v -45.980000 22.500000 -149.400000
v -45.980000 20.500000 -146.600000
v -43.780000 20.500000 -146.600000
v -43.780000 22.500000 -146.600000
v -45.980000 22.500000 -146.600000
f 951 954 953
f 951 953 952
f 955 956 957
f 955 957 958
f 951 952 956
f 951 956 955
f 954 958 957
f 954 957 953
f 951 955 958
f 951 958 954
f 952 953 957
f 952 957 956
o LaserAperture_3
usemtl laser
v -45.480000 20.900000 -146.575000
v -44.280000 20.900000 -146.575000
v -44.280000 22.100000 -146.575000
v -45.480000 22.100000 -146.575000
v -45.480000 20.900000 -146.425000
v -44.280000 20.900000 -146.425000
v -44.280000 22.100000 -146.425000
v -45.480000 22.100000 -146.425000
f 959 962 961
f 959 961 960
f 963 964 965
f 963 965 966
f 959 960 964
f 959 964 963
f 962 966 965
f 962 965 961
f 959 963 966
f 959 966 962
f 960 961 965
f 960 965 964
o Sponson_4
usemtl hull
v 40.360000 18.100000 -153.000000
v 47.360000 18.100000 -153.000000
v 47.360000 19.500000 -153.000000
v 40.360000 19.500000 -153.000000
v 40.360000 18.100000 -143.000000
v 47.360000 18.100000 -143.000000
v 47.360000 19.500000 -143.000000
v 40.360000 19.500000 -143.000000
f 967 970 969
f 967 969 968
f 971 972 973
f 971 973 974
f 967 968 972
f 967 972 971
f 970 974 973
f 970 973 969
f 967 971 974
f 967 974 970
f 968 969 973
f 968 973 972
o AA_Base_4
usemtl island
v 45.660000 19.500000 -148.000000
v 45.522983 19.500000 -147.311170
v 45.132792 19.500000 -146.727208
v 44.548830 19.500000 -146.337017
v 43.860000 19.500000 -146.200000
v 43.171170 19.500000 -146.337017
v 42.587208 19.500000 -146.727208
v 42.197017 19.500000 -147.311170
v 42.060000 19.500000 -148.000000
v 42.197017 19.500000 -148.688830
v 42.587208 19.500000 -149.272792
v 43.171170 19.500000 -149.662983
v 43.860000 19.500000 -149.800000
v 44.548830 19.500000 -149.662983
v 45.132792 19.500000 -149.272792
v 45.522983 19.500000 -148.688830
v 45.660000 21.500000 -148.000000
v 45.522983 21.500000 -147.311170
v 45.132792 21.500000 -146.727208
v 44.548830 21.500000 -146.337017
v 43.860000 21.500000 -146.200000
v 43.171170 21.500000 -146.337017
v 42.587208 21.500000 -146.727208
v 42.197017 21.500000 -147.311170
v 42.060000 21.500000 -148.000000
v 42.197017 21.500000 -148.688830
v 42.587208 21.500000 -149.272792
v 43.171170 21.500000 -149.662983
v 43.860000 21.500000 -149.800000
v 44.548830 21.500000 -149.662983
v 45.132792 21.500000 -149.272792
v 45.522983 21.500000 -148.688830
f 990 975 976
f 990 976 977
f 990 977 978
f 990 978 979
f 990 979 980
f 990 980 981
f 990 981 982
f 990 982 983
f 990 983 984
f 990 984 985
f 990 985 986
f 990 986 987
f 990 987 988
f 988 989 990
f 992 991 1006
f 993 992 1006
f 994 993 1006
f 995 994 1006
f 996 995 1006
f 997 996 1006
f 998 997 1006
f 999 998 1006
f 1000 999 1006
f 1001 1000 1006
f 1002 1001 1006
f 1003 1002 1006
f 1004 1003 1006
f 1006 1005 1004
f 975 991 992
f 975 992 976
f 976 992 993
f 976 993 977
f 977 993 994
f 977 994 978
f 978 994 995
f 978 995 979
f 979 995 996
f 979 996 980
f 980 996 997
f 980 997 981
f 981 997 998
f 981 998 982
f 982 998 999
f 982 999 983
f 983 999 1000
f 983 1000 984
f 984 1000 1001
f 984 1001 985
f 985 1001 1002
f 985 1002 986
f 986 1002 1003
f 986 1003 987
f 987 1003 1004
f 987 1004 988
f 988 1004 1005
f 988 1005 989
f 989 1005 1006
f 989 1006 990
f 990 1006 991
f 990 991 975
o CIWS_Radome_4
usemtl white
v 44.660000 21.500000 -148.000000
v 44.599104 21.500000 -147.693853
v 44.425685 21.500000 -147.434315
v 44.166147 21.500000 -147.260896
v 43.860000 21.500000 -147.200000
v 43.553853 21.500000 -147.260896
v 43.294315 21.500000 -147.434315
v 43.120896 21.500000 -147.693853
v 43.060000 21.500000 -148.000000
v 43.120896 21.500000 -148.306147
v 43.294315 21.500000 -148.565685
v 43.553853 21.500000 -148.739104
v 43.860000 21.500000 -148.800000
v 44.166147 21.500000 -148.739104
v 44.425685 21.500000 -148.565685
v 44.599104 21.500000 -148.306147
v 44.660000 23.400000 -148.000000
v 44.599104 23.400000 -147.693853
v 44.425685 23.400000 -147.434315
v 44.166147 23.400000 -147.260896
v 43.860000 23.400000 -147.200000
v 43.553853 23.400000 -147.260896
v 43.294315 23.400000 -147.434315
v 43.120896 23.400000 -147.693853
v 43.060000 23.400000 -148.000000
v 43.120896 23.400000 -148.306147
v 43.294315 23.400000 -148.565685
v 43.553853 23.400000 -148.739104
v 43.860000 23.400000 -148.800000
v 44.166147 23.400000 -148.739104
v 44.425685 23.400000 -148.565685
v 44.599104 23.400000 -148.306147
f 1022 1007 1008
f 1022 1008 1009
f 1022 1009 1010
f 1022 1010 1011
f 1022 1011 1012
f 1022 1012 1013
f 1022 1013 1014
f 1022 1014 1015
f 1022 1015 1016
f 1022 1016 1017
f 1022 1017 1018
f 1022 1018 1019
f 1022 1019 1020
f 1020 1021 1022
f 1024 1023 1038
f 1025 1024 1038
f 1026 1025 1038
f 1027 1026 1038
f 1028 1027 1038
f 1029 1028 1038
f 1030 1029 1038
f 1031 1030 1038
f 1032 1031 1038
f 1033 1032 1038
f 1034 1033 1038
f 1035 1034 1038
f 1036 1035 1038
f 1038 1037 1036
f 1007 1023 1024
f 1007 1024 1008
f 1008 1024 1025
f 1008 1025 1009
f 1009 1025 1026
f 1009 1026 1010
f 1010 1026 1027
f 1010 1027 1011
f 1011 1027 1028
f 1011 1028 1012
f 1012 1028 1029
f 1012 1029 1013
f 1013 1029 1030
f 1013 1030 1014
f 1014 1030 1031
f 1014 1031 1015
f 1015 1031 1032
f 1015 1032 1016
f 1016 1032 1033
f 1016 1033 1017
f 1017 1033 1034
f 1017 1034 1018
f 1018 1034 1035
f 1018 1035 1019
f 1019 1035 1036
f 1019 1036 1020
f 1020 1036 1037
f 1020 1037 1021
f 1021 1037 1038
f 1021 1038 1022
f 1022 1038 1023
f 1022 1023 1007
o LaserMount_4
usemtl island
v 42.760000 20.500000 -149.400000
v 44.960000 20.500000 -149.400000
v 44.960000 22.500000 -149.400000
v 42.760000 22.500000 -149.400000
v 42.760000 20.500000 -146.600000
v 44.960000 20.500000 -146.600000
v 44.960000 22.500000 -146.600000
v 42.760000 22.500000 -146.600000
f 1039 1042 1041
f 1039 1041 1040
f 1043 1044 1045
f 1043 1045 1046
f 1039 1040 1044
f 1039 1044 1043
f 1042 1046 1045
f 1042 1045 1041
f 1039 1043 1046
f 1039 1046 1042
f 1040 1041 1045
f 1040 1045 1044
o LaserAperture_4
usemtl laser
v 43.260000 20.900000 -146.575000
v 44.460000 20.900000 -146.575000
v 44.460000 22.100000 -146.575000
v 43.260000 22.100000 -146.575000
v 43.260000 20.900000 -146.425000
v 44.460000 20.900000 -146.425000
v 44.460000 22.100000 -146.425000
v 43.260000 22.100000 -146.425000
f 1047 1050 1049
f 1047 1049 1048
f 1051 1052 1053
f 1051 1053 1054
f 1047 1048 1052
f 1047 1052 1051
f 1050 1054 1053
f 1050 1053 1049
f 1047 1051 1054
f 1047 1054 1050
f 1048 1049 1053
f 1048 1053 1052
o SonarDome
usemtl dark
v 3.400000 -9.000000 140.600000
v 3.141190 -9.000000 141.901124
v 2.404163 -9.000000 143.004163
v 1.301124 -9.000000 143.741190
v 0.000000 -9.000000 144.000000
v -1.301124 -9.000000 143.741190
v -2.404163 -9.000000 143.004163
v -3.141190 -9.000000 141.901124
v -3.400000 -9.000000 140.600000
v -3.141190 -9.000000 139.298876
v -2.404163 -9.000000 138.195837
v -1.301124 -9.000000 137.458810
v -0.000000 -9.000000 137.200000
v 1.301124 -9.000000 137.458810
v 2.404163 -9.000000 138.195837
v 3.141190 -9.000000 139.298876
v 3.400000 -7.000000 140.600000
v 3.141190 -7.000000 141.901124
v 2.404163 -7.000000 143.004163
v 1.301124 -7.000000 143.741190
v 0.000000 -7.000000 144.000000
v -1.301124 -7.000000 143.741190
v -2.404163 -7.000000 143.004163
v -3.141190 -7.000000 141.901124
v -3.400000 -7.000000 140.600000
v -3.141190 -7.000000 139.298876
v -2.404163 -7.000000 138.195837
v -1.301124 -7.000000 137.458810
v -0.000000 -7.000000 137.200000
v 1.301124 -7.000000 137.458810
v 2.404163 -7.000000 138.195837
v 3.141190 -7.000000 139.298876
f 1070 1055 1056
f 1070 1056 1057
f 1070 1057 1058
f 1070 1058 1059
f 1070 1059 1060
f 1070 1060 1061
f 1070 1061 1062
f 1070 1062 1063
f 1070 1063 1064
f 1070 1064 1065
f 1070 1065 1066
f 1070 1066 1067
f 1070 1067 1068
f 1068 1069 1070
f 1072 1071 1086
f 1073 1072 1086
f 1074 1073 1086
f 1075 1074 1086
f 1076 1075 1086
f 1077 1076 1086
f 1078 1077 1086
f 1079 1078 1086
f 1080 1079 1086
f 1081 1080 1086
f 1082 1081 1086
f 1083 1082 1086
f 1084 1083 1086
f 1086 1085 1084
f 1055 1071 1072
f 1055 1072 1056
f 1056 1072 1073
f 1056 1073 1057
f 1057 1073 1074
f 1057 1074 1058
f 1058 1074 1075
f 1058 1075 1059
f 1059 1075 1076
f 1059 1076 1060
f 1060 1076 1077
f 1060 1077 1061
f 1061 1077 1078
f 1061 1078 1062
f 1062 1078 1079
f 1062 1079 1063
f 1063 1079 1080
f 1063 1080 1064
f 1064 1080 1081
f 1064 1081 1065
f 1065 1081 1082
f 1065 1082 1066
f 1066 1082 1083
f 1066 1083 1067
f 1067 1083 1084
f 1067 1084 1068
f 1068 1084 1085
f 1068 1085 1069
f 1069 1085 1086
f 1069 1086 1070
f 1070 1086 1071
f 1070 1071 1055
o NoisemakerPort
usemtl dark
v -12.685000 15.300000 -167.500000
v -11.285000 15.300000 -167.500000
v -11.285000 16.700000 -167.500000
v -12.685000 16.700000 -167.500000
v -12.685000 15.300000 -165.500000
v -11.285000 15.300000 -165.500000
v -11.285000 16.700000 -165.500000
v -12.685000 16.700000 -165.500000
f 1087 1090 1089
f 1087 1089 1088
f 1091 1092 1093
f 1091 1093 1094
f 1087 1088 1092
f 1087 1092 1091
f 1090 1094 1093
f 1090 1093 1089
f 1087 1091 1094
f 1087 1094 1090
f 1088 1089 1093
f 1088 1093 1092
o ASW_Sponson_-1
usemtl hull
v -45.340000 16.250000 40.900000
v -40.340000 16.250000 40.900000
v -40.340000 17.750000 40.900000
v -45.340000 17.750000 40.900000
v -45.340000 16.250000 47.900000
v -40.340000 16.250000 47.900000
v -40.340000 17.750000 47.900000
v -45.340000 17.750000 47.900000
f 1095 1098 1097
f 1095 1097 1096
f 1099 1100 1101
f 1099 1101 1102
f 1095 1096 1100
f 1095 1100 1099
f 1098 1102 1101
f 1098 1101 1097
f 1095 1099 1102
f 1095 1102 1098
f 1096 1097 1101
f 1096 1101 1100
o ASW_Tube_-1_0
usemtl dark
v -43.715000 17.950000 42.900000
v -43.265000 17.950000 42.900000
v -43.265000 18.450000 42.900000
v -43.715000 18.450000 42.900000
v -43.715000 17.950000 45.900000
v -43.265000 17.950000 45.900000
v -43.265000 18.450000 45.900000
v -43.715000 18.450000 45.900000
f 1103 1106 1105
f 1103 1105 1104
f 1107 1108 1109
f 1107 1109 1110
f 1103 1104 1108
f 1103 1108 1107
f 1106 1110 1109
f 1106 1109 1105
f 1103 1107 1110
f 1103 1110 1106
f 1104 1105 1109
f 1104 1109 1108
o ASW_Tube_-1_1
usemtl dark
v -43.065000 17.950000 42.900000
v -42.615000 17.950000 42.900000
v -42.615000 18.450000 42.900000
v -43.065000 18.450000 42.900000
v -43.065000 17.950000 45.900000
v -42.615000 17.950000 45.900000
v -42.615000 18.450000 45.900000
v -43.065000 18.450000 45.900000
f 1111 1114 1113
f 1111 1113 1112
f 1115 1116 1117
f 1115 1117 1118
f 1111 1112 1116
f 1111 1116 1115
f 1114 1118 1117
f 1114 1117 1113
f 1111 1115 1118
f 1111 1118 1114
f 1112 1113 1117
f 1112 1117 1116
o ASW_Tube_-1_2
usemtl dark
v -42.415000 17.950000 42.900000
v -41.965000 17.950000 42.900000
v -41.965000 18.450000 42.900000
v -42.415000 18.450000 42.900000
v -42.415000 17.950000 45.900000
v -41.965000 17.950000 45.900000
v -41.965000 18.450000 45.900000
v -42.415000 18.450000 45.900000
f 1119 1122 1121
f 1119 1121 1120
f 1123 1124 1125
f 1123 1125 1126
f 1119 1120 1124
f 1119 1124 1123
f 1122 1126 1125
f 1122 1125 1121
f 1119 1123 1126
f 1119 1126 1122
f 1120 1121 1125
f 1120 1125 1124
o ASW_Launcher_-1
usemtl island
v -44.340000 16.950000 35.400000
v -41.340000 16.950000 35.400000
v -41.340000 19.050000 35.400000
v -44.340000 19.050000 35.400000
v -44.340000 16.950000 39.400000
v -41.340000 16.950000 39.400000
v -41.340000 19.050000 39.400000
v -44.340000 19.050000 39.400000
f 1127 1130 1129
f 1127 1129 1128
f 1131 1132 1133
f 1131 1133 1134
f 1127 1128 1132
f 1127 1132 1131
f 1130 1134 1133
f 1130 1133 1129
f 1127 1131 1134
f 1127 1134 1130
f 1128 1129 1133
f 1128 1133 1132
o SAM_Sponson_-1
usemtl hull
v -47.880000 17.650000 140.300000
v -41.880000 17.650000 140.300000
v -41.880000 18.950000 140.300000
v -47.880000 18.950000 140.300000
v -47.880000 17.650000 148.300000
v -41.880000 17.650000 148.300000
v -41.880000 18.950000 148.300000
v -47.880000 18.950000 148.300000
f 1135 1138 1137
f 1135 1137 1136
f 1139 1140 1141
f 1139 1141 1142
f 1135 1136 1140
f 1135 1140 1139
f 1138 1142 1141
f 1138 1141 1137
f 1135 1139 1142
f 1135 1142 1138
f 1136 1137 1141
f 1136 1141 1140
o SAM_Launcher_-1
usemtl island
v -46.780000 18.700000 142.800000
v -42.980000 18.700000 142.800000
v -42.980000 21.100000 142.800000
v -46.780000 21.100000 142.800000
v -46.780000 18.700000 145.800000
v -42.980000 18.700000 145.800000
v -42.980000 21.100000 145.800000
v -46.780000 21.100000 145.800000
f 1143 1146 1145
f 1143 1145 1144
f 1147 1148 1149
f 1147 1149 1150
f 1143 1144 1148
f 1143 1148 1147
f 1146 1150 1149
f 1146 1149 1145
f 1143 1147 1150
f 1143 1150 1146
f 1144 1145 1149
f 1144 1149 1148
o NoisemakerStarboard
usemtl dark
v 11.285000 15.300000 -167.500000
v 12.685000 15.300000 -167.500000
v 12.685000 16.700000 -167.500000
v 11.285000 16.700000 -167.500000
v 11.285000 15.300000 -165.500000
v 12.685000 15.300000 -165.500000
v 12.685000 16.700000 -165.500000
v 11.285000 16.700000 -165.500000
f 1151 1154 1153
f 1151 1153 1152
f 1155 1156 1157
f 1155 1157 1158
f 1151 1152 1156
f 1151 1156 1155
f 1154 1158 1157
f 1154 1157 1153
f 1151 1155 1158
f 1151 1158 1154
f 1152 1153 1157
f 1152 1157 1156
o ASW_Sponson_1
usemtl hull
v 40.340000 16.250000 40.900000
v 45.340000 16.250000 40.900000
v 45.340000 17.750000 40.900000
v 40.340000 17.750000 40.900000
v 40.340000 16.250000 47.900000
v 45.340000 16.250000 47.900000
v 45.340000 17.750000 47.900000
v 40.340000 17.750000 47.900000
f 1159 1162 1161
f 1159 1161 1160
f 1163 1164 1165
f 1163 1165 1166
f 1159 1160 1164
f 1159 1164 1163
f 1162 1166 1165
f 1162 1165 1161
f 1159 1163 1166
f 1159 1166 1162
f 1160 1161 1165
f 1160 1165 1164
o ASW_Tube_1_0
usemtl dark
v 41.965000 17.950000 42.900000
v 42.415000 17.950000 42.900000
v 42.415000 18.450000 42.900000
v 41.965000 18.450000 42.900000
v 41.965000 17.950000 45.900000
v 42.415000 17.950000 45.900000
v 42.415000 18.450000 45.900000
v 41.965000 18.450000 45.900000
f 1167 1170 1169
f 1167 1169 1168
f 1171 1172 1173
f 1171 1173 1174
f 1167 1168 1172
f 1167 1172 1171
f 1170 1174 1173
f 1170 1173 1169
f 1167 1171 1174
f 1167 1174 1170
f 1168 1169 1173
f 1168 1173 1172
o ASW_Tube_1_1
usemtl dark
v 42.615000 17.950000 42.900000
v 43.065000 17.950000 42.900000
v 43.065000 18.450000 42.900000
v 42.615000 18.450000 42.900000
v 42.615000 17.950000 45.900000
v 43.065000 17.950000 45.900000
v 43.065000 18.450000 45.900000
v 42.615000 18.450000 45.900000
f 1175 1178 1177
f 1175 1177 1176
f 1179 1180 1181
f 1179 1181 1182
f 1175 1176 1180
f 1175 1180 1179
f 1178 1182 1181
f 1178 1181 1177
f 1175 1179 1182
f 1175 1182 1178
f 1176 1177 1181
f 1176 1181 1180
o ASW_Tube_1_2
usemtl dark
v 43.265000 17.950000 42.900000
v 43.715000 17.950000 42.900000
v 43.715000 18.450000 42.900000
v 43.265000 18.450000 42.900000
v 43.265000 17.950000 45.900000
v 43.715000 17.950000 45.900000
v 43.715000 18.450000 45.900000
v 43.265000 18.450000 45.900000
f 1183 1186 1185
f 1183 1185 1184
f 1187 1188 1189
f 1187 1189 1190
f 1183 1184 1188
f 1183 1188 1187
f 1186 1190 1189
f 1186 1189 1185
f 1183 1187 1190
f 1183 1190 1186
f 1184 1185 1189
f 1184 1189 1188
o ASW_Launcher_1
usemtl island
v 41.340000 16.950000 35.400000
v 44.340000 16.950000 35.400000
v 44.340000 19.050000 35.400000
v 41.340000 19.050000 35.400000
v 41.340000 16.950000 39.400000
v 44.340000 16.950000 39.400000
v 44.340000 19.050000 39.400000
v 41.340000 19.050000 39.400000
f 1191 1194 1193
f 1191 1193 1192
f 1195 1196 1197
f 1195 1197 1198
f 1191 1192 1196
f 1191 1196 1195
f 1194 1198 1197
f 1194 1197 1193
f 1191 1195 1198
f 1191 1198 1194
f 1192 1193 1197
f 1192 1197 1196
o SAM_Sponson_1
usemtl hull
v 41.880000 17.650000 140.300000
v 47.880000 17.650000 140.300000
v 47.880000 18.950000 140.300000
v 41.880000 18.950000 140.300000
v 41.880000 17.650000 148.300000
v 47.880000 17.650000 148.300000
v 47.880000 18.950000 148.300000
v 41.880000 18.950000 148.300000
f 1199 1202 1201
f 1199 1201 1200
f 1203 1204 1205
f 1203 1205 1206
f 1199 1200 1204
f 1199 1204 1203
f 1202 1206 1205
f 1202 1205 1201
f 1199 1203 1206
f 1199 1206 1202
f 1200 1201 1205
f 1200 1205 1204
o SAM_Launcher_1
usemtl island
v 42.980000 18.700000 142.800000
v 46.780000 18.700000 142.800000
v 46.780000 21.100000 142.800000
v 42.980000 21.100000 142.800000
v 42.980000 18.700000 145.800000
v 46.780000 18.700000 145.800000
v 46.780000 21.100000 145.800000
v 42.980000 21.100000 145.800000
f 1207 1210 1209
f 1207 1209 1208
f 1211 1212 1213
f 1211 1213 1214
f 1207 1208 1212
f 1207 1212 1211
f 1210 1214 1213
f 1210 1213 1209
f 1207 1211 1214
f 1207 1214 1210
f 1208 1209 1213
f 1208 1213 1212
o OffensiveECM_Module
usemtl island
v 34.730000 46.800000 -31.700000
v 39.730000 46.800000 -31.700000
v 39.730000 49.200000 -31.700000
v 34.730000 49.200000 -31.700000
v 34.730000 46.800000 -27.500000
v 39.730000 46.800000 -27.500000
v 39.730000 49.200000 -27.500000
v 34.730000 49.200000 -27.500000
f 1215 1218 1217
f 1215 1217 1216
f 1219 1220 1221
f 1219 1221 1222
f 1215 1216 1220
f 1215 1220 1219
f 1218 1222 1221
f 1218 1221 1217
f 1215 1219 1222
f 1215 1222 1218
f 1216 1217 1221
f 1216 1221 1220
o OffensiveECM_Array_-1
usemtl dark
v 34.555000 47.100000 -31.350000
v 34.705000 47.100000 -31.350000
v 34.705000 48.900000 -31.350000
v 34.555000 48.900000 -31.350000
v 34.555000 47.100000 -27.850000
v 34.705000 47.100000 -27.850000
v 34.705000 48.900000 -27.850000
v 34.555000 48.900000 -27.850000
f 1223 1226 1225
f 1223 1225 1224
f 1227 1228 1229
f 1227 1229 1230
f 1223 1224 1228
f 1223 1228 1227
f 1226 1230 1229
f 1226 1229 1225
f 1223 1227 1230
f 1223 1230 1226
f 1224 1225 1229
f 1224 1229 1228
o OffensiveECM_Array_1
usemtl dark
v 39.755000 47.100000 -31.350000
v 39.905000 47.100000 -31.350000
v 39.905000 48.900000 -31.350000
v 39.755000 48.900000 -31.350000
v 39.755000 47.100000 -27.850000
v 39.905000 47.100000 -27.850000
v 39.905000 48.900000 -27.850000
v 39.755000 48.900000 -27.850000
f 1231 1234 1233
f 1231 1233 1232
f 1235 1236 1237
f 1235 1237 1238
f 1231 1232 1236
f 1231 1236 1235
f 1234 1238 1237
f 1234 1237 1233
f 1231 1235 1238
f 1231 1238 1234
f 1232 1233 1237
f 1232 1237 1236
