# Original RAN carrier model study scaled to an observed Sea Power reference mesh.
# Approximate game scale only; engine origin, deck routing and collision need an in-game test.
# RAN Carrier Restart: original model study; coordinates in metres
mtllib ran_cvl_endeavour_1944.mtl
o Hull
usemtl hull
v -0.10583643 0.00000000 -1.34288884
v -0.10910972 0.04371383 -1.34288884
v -0.10801862 0.20691213 -1.34288884
v 0.10801862 0.20691213 -1.34288884
v 0.10910972 0.04371383 -1.34288884
v 0.10583643 0.00000000 -1.34288884
v -0.10840032 0.00000000 -1.26711820
v -0.11175290 0.04371383 -1.26711820
v -0.11063537 0.20691213 -1.26711820
v 0.11063537 0.20691213 -1.26711820
v 0.11175290 0.04371383 -1.26711820
v 0.10840032 0.00000000 -1.26711820
v -0.11095424 0.00000000 -1.19134757
v -0.11438582 0.04371383 -1.19134757
v -0.11324196 0.20691213 -1.19134757
v 0.11324196 0.20691213 -1.19134757
v 0.11438582 0.04371383 -1.19134757
v 0.11095424 0.00000000 -1.19134757
v -0.11348829 0.00000000 -1.11557693
v -0.11699824 0.04371383 -1.11557693
v -0.11582826 0.20691213 -1.11557693
v 0.11582826 0.20691213 -1.11557693
v 0.11699824 0.04371383 -1.11557693
v 0.11348829 0.00000000 -1.11557693
v -0.11599262 0.00000000 -1.03980629
v -0.11958003 0.04371383 -1.03980629
v -0.11838422 0.20691213 -1.03980629
v 0.11838422 0.20691213 -1.03980629
v 0.11958003 0.04371383 -1.03980629
v 0.11599262 0.00000000 -1.03980629
v -0.11845750 0.00000000 -0.96403565
v -0.12212113 0.04371383 -0.96403565
v -0.12089992 0.20691213 -0.96403565
v 0.12089992 0.20691213 -0.96403565
v 0.12212113 0.04371383 -0.96403565
v 0.11845750 0.00000000 -0.96403565
v -0.12087336 0.00000000 -0.88826502
v -0.12461171 0.04371383 -0.88826502
v -0.12336559 0.20691213 -0.88826502
v 0.12336559 0.20691213 -0.88826502
v 0.12461171 0.04371383 -0.88826502
v 0.12087336 0.00000000 -0.88826502
v -0.12323080 0.00000000 -0.81249438
v -0.12704206 0.04371383 -0.81249438
v -0.12577165 0.20691213 -0.81249438
v 0.12577165 0.20691213 -0.81249438
v 0.12704206 0.04371383 -0.81249438
v 0.12323080 0.00000000 -0.81249438
v -0.12552069 0.00000000 -0.73672374
v -0.12940279 0.04371383 -0.73672374
v -0.12810875 0.20691213 -0.73672374
v 0.12810875 0.20691213 -0.73672374
v 0.12940279 0.04371383 -0.73672374
v 0.12552069 0.00000000 -0.73672374
v -0.12773413 0.00000000 -0.66095310
v -0.13168466 0.04371383 -0.66095310
v -0.13036783 0.20691213 -0.66095310
v 0.13036783 0.20691213 -0.66095310
v 0.13168466 0.04371383 -0.66095310
v 0.12773413 0.00000000 -0.66095310
v -0.12986251 0.00000000 -0.58518246
v -0.13387888 0.04371383 -0.58518246
v -0.13254008 0.20691213 -0.58518246
v 0.13254008 0.20691213 -0.58518246
v 0.13387888 0.04371383 -0.58518246
v 0.12986251 0.00000000 -0.58518246
v -0.13189756 0.00000000 -0.50941183
v -0.13597686 0.04371383 -0.50941183
v -0.13461710 0.20691213 -0.50941183
v 0.13461710 0.20691213 -0.50941183
v 0.13597686 0.04371383 -0.50941183
v 0.13189756 0.00000000 -0.50941183
v -0.13383139 0.00000000 -0.43364119
v -0.13797051 0.04371383 -0.43364119
v -0.13659080 0.20691213 -0.43364119
v 0.13659080 0.20691213 -0.43364119
v 0.13797051 0.04371383 -0.43364119
v 0.13383139 0.00000000 -0.43364119
v -0.13565649 0.00000000 -0.35787055
v -0.13985205 0.04371383 -0.35787055
v -0.13845353 0.20691213 -0.35787055
v 0.13845353 0.20691213 -0.35787055
v 0.13985205 0.04371383 -0.35787055
v 0.13565649 0.00000000 -0.35787055
v -0.13736575 0.00000000 -0.28209991
v -0.14161417 0.04371383 -0.28209991
v -0.14019803 0.20691213 -0.28209991
v 0.14019803 0.20691213 -0.28209991
v 0.14161417 0.04371383 -0.28209991
v 0.13736575 0.00000000 -0.28209991
v -0.13895255 0.00000000 -0.20632928
v -0.14325006 0.04371383 -0.20632928
v -0.14181756 0.20691213 -0.20632928
v 0.14181756 0.20691213 -0.20632928
v 0.14325006 0.04371383 -0.20632928
v 0.13895255 0.00000000 -0.20632928
v -0.14041073 0.00000000 -0.13055864
v -0.14475332 0.04371383 -0.13055864
v -0.14330579 0.20691213 -0.13055864
v 0.14330579 0.20691213 -0.13055864
v 0.14475332 0.04371383 -0.13055864
v 0.14041073 0.00000000 -0.13055864
v -0.14173460 0.00000000 -0.05478800
v -0.14611815 0.04371383 -0.05478800
v -0.14465697 0.20691213 -0.05478800
v 0.14465697 0.20691213 -0.05478800
v 0.14611815 0.04371383 -0.05478800
v 0.14173460 0.00000000 -0.05478800
v -0.14291906 0.00000000 0.02098264
v -0.14733923 0.04371383 0.02098264
v -0.14586584 0.20691213 0.02098264
v 0.14586584 0.20691213 0.02098264
v 0.14733923 0.04371383 0.02098264
v 0.14291906 0.00000000 0.02098264
v -0.14395946 0.00000000 0.09675328
v -0.14841182 0.04371383 0.09675328
v -0.14692770 0.20691213 0.09675328
v 0.14692770 0.20691213 0.09675328
v 0.14841182 0.04371383 0.09675328
v 0.14395946 0.00000000 0.09675328
v -0.14485179 0.00000000 0.17252391
v -0.14933175 0.04371383 0.17252391
v -0.14783844 0.20691213 0.17252391
v 0.14783844 0.20691213 0.17252391
v 0.14933175 0.04371383 0.17252391
v 0.14485179 0.00000000 0.17252391
v -0.14559260 0.00000000 0.24829455
v -0.15009546 0.04371383 0.24829455
v -0.14859450 0.20691213 0.24829455
v 0.14859450 0.20691213 0.24829455
v 0.15009546 0.04371383 0.24829455
v 0.14559260 0.00000000 0.24829455
v -0.14617896 0.00000000 0.32406519
v -0.15069996 0.04371383 0.32406519
v -0.14919297 0.20691213 0.32406519
v 0.14919297 0.20691213 0.32406519
v 0.15069996 0.04371383 0.32406519
v 0.14617896 0.00000000 0.32406519
v -0.14660864 0.00000000 0.39983583
v -0.15114293 0.04371383 0.39983583
v -0.14963151 0.20691213 0.39983583
v 0.14963151 0.20691213 0.39983583
v 0.15114293 0.04371383 0.39983583
v 0.14660864 0.00000000 0.39983583
v -0.14687995 0.00000000 0.47560646
v -0.15142262 0.04371383 0.47560646
v -0.14990840 0.20691213 0.47560646
v 0.14990840 0.20691213 0.47560646
v 0.15142262 0.04371383 0.47560646
v 0.14687995 0.00000000 0.47560646
v -0.14699185 0.00000000 0.55137710
v -0.15153798 0.04371383 0.55137710
v -0.15002260 0.20691213 0.55137710
v 0.15002260 0.20691213 0.55137710
v 0.15153798 0.04371383 0.55137710
v 0.14699185 0.00000000 0.55137710
v -0.14699504 0.00000000 0.62714774
v -0.15154128 0.04371383 0.62714774
v -0.15002586 0.20691213 0.62714774
v 0.15002586 0.20691213 0.62714774
v 0.15154128 0.04371383 0.62714774
v 0.14699504 0.00000000 0.62714774
v -0.14699504 0.00000000 0.70291838
v -0.15154128 0.04371383 0.70291838
v -0.15002586 0.20691213 0.70291838
v 0.15002586 0.20691213 0.70291838
v 0.15154128 0.04371383 0.70291838
v 0.14699504 0.00000000 0.70291838
v -0.14412046 0.00000000 0.77868902
v -0.14857780 0.04371383 0.77868902
v -0.14709202 0.20691213 0.77868902
v 0.14709202 0.20691213 0.77868902
v 0.14857780 0.04371383 0.77868902
v 0.14412046 0.00000000 0.77868902
v -0.13520352 0.00000000 0.85445965
v -0.13938507 0.04371383 0.85445965
v -0.13799123 0.20691213 0.85445965
v 0.13799123 0.20691213 0.85445965
v 0.13938507 0.04371383 0.85445965
v 0.13520352 0.00000000 0.85445965
v -0.12291208 0.00000000 0.93023029
v -0.12671350 0.04371383 0.93023029
v -0.12544636 0.20691213 0.93023029
v 0.12544636 0.20691213 0.93023029
v 0.12671350 0.04371383 0.93023029
v 0.12291208 0.00000000 0.93023029
v -0.10800481 0.00000000 1.00600093
v -0.11134516 0.04371383 1.00600093
v -0.11023171 0.20691213 1.00600093
v 0.11023171 0.20691213 1.00600093
v 0.11134516 0.04371383 1.00600093
v 0.10800481 0.00000000 1.00600093
v -0.09087980 0.00000000 1.08177157
v -0.09369052 0.04371383 1.08177157
v -0.09275362 0.20691213 1.08177157
v 0.09275362 0.20691213 1.08177157
v 0.09369052 0.04371383 1.08177157
v 0.09087980 0.00000000 1.08177157
v -0.07179424 0.00000000 1.15754220
v -0.07401468 0.04371383 1.15754220
v -0.07327453 0.20691213 1.15754220
v 0.07327453 0.20691213 1.15754220
v 0.07401468 0.04371383 1.15754220
v 0.07179424 0.00000000 1.15754220
v -0.05093209 0.00000000 1.23331284
v -0.05250730 0.04371383 1.23331284
v -0.05198224 0.20691213 1.23331284
v 0.05198224 0.20691213 1.23331284
v 0.05250730 0.04371383 1.23331284
v 0.05093209 0.00000000 1.23331284
v -0.02843350 0.00000000 1.30908348
v -0.02931289 0.04371383 1.30908348
v -0.02901976 0.20691213 1.30908348
v 0.02901976 0.20691213 1.30908348
v 0.02931289 0.04371383 1.30908348
v 0.02843350 0.00000000 1.30908348
v -0.00440985 0.00000000 1.38485412
v -0.00454624 0.04371383 1.38485412
v -0.00450078 0.20691213 1.38485412
v 0.00450078 0.20691213 1.38485412
v 0.00454624 0.04371383 1.38485412
v 0.00440985 0.00000000 1.38485412
f 7 8 2
f 7 2 1
f 8 9 3
f 8 3 2
f 9 10 4
f 9 4 3
f 10 11 5
f 10 5 4
f 11 12 6
f 11 6 5
f 12 7 1
f 12 1 6
f 13 14 8
f 13 8 7
f 14 15 9
f 14 9 8
f 15 16 10
f 15 10 9
f 16 17 11
f 16 11 10
f 17 18 12
f 17 12 11
f 18 13 7
f 18 7 12
f 19 20 14
f 19 14 13
f 20 21 15
f 20 15 14
f 21 22 16
f 21 16 15
f 22 23 17
f 22 17 16
f 23 24 18
f 23 18 17
f 24 19 13
f 24 13 18
f 25 26 20
f 25 20 19
f 26 27 21
f 26 21 20
f 27 28 22
f 27 22 21
f 28 29 23
f 28 23 22
f 29 30 24
f 29 24 23
f 30 25 19
f 30 19 24
f 31 32 26
f 31 26 25
f 32 33 27
f 32 27 26
f 33 34 28
f 33 28 27
f 34 35 29
f 34 29 28
f 35 36 30
f 35 30 29
f 36 31 25
f 36 25 30
f 37 38 32
f 37 32 31
f 38 39 33
f 38 33 32
f 39 40 34
f 39 34 33
f 40 41 35
f 40 35 34
f 41 42 36
f 41 36 35
f 42 37 31
f 42 31 36
f 43 44 38
f 43 38 37
f 44 45 39
f 44 39 38
f 45 46 40
f 45 40 39
f 46 47 41
f 46 41 40
f 47 48 42
f 47 42 41
f 48 43 37
f 48 37 42
f 49 50 44
f 49 44 43
f 50 51 45
f 50 45 44
f 51 52 46
f 51 46 45
f 52 53 47
f 52 47 46
f 53 54 48
f 53 48 47
f 54 49 43
f 54 43 48
f 55 56 50
f 55 50 49
f 56 57 51
f 56 51 50
f 57 58 52
f 57 52 51
f 58 59 53
f 58 53 52
f 59 60 54
f 59 54 53
f 60 55 49
f 60 49 54
f 61 62 56
f 61 56 55
f 62 63 57
f 62 57 56
f 63 64 58
f 63 58 57
f 64 65 59
f 64 59 58
f 65 66 60
f 65 60 59
f 66 61 55
f 66 55 60
f 67 68 62
f 67 62 61
f 68 69 63
f 68 63 62
f 69 70 64
f 69 64 63
f 70 71 65
f 70 65 64
f 71 72 66
f 71 66 65
f 72 67 61
f 72 61 66
f 73 74 68
f 73 68 67
f 74 75 69
f 74 69 68
f 75 76 70
f 75 70 69
f 76 77 71
f 76 71 70
f 77 78 72
f 77 72 71
f 78 73 67
f 78 67 72
f 79 80 74
f 79 74 73
f 80 81 75
f 80 75 74
f 81 82 76
f 81 76 75
f 82 83 77
f 82 77 76
f 83 84 78
f 83 78 77
f 84 79 73
f 84 73 78
f 85 86 80
f 85 80 79
f 86 87 81
f 86 81 80
f 87 88 82
f 87 82 81
f 88 89 83
f 88 83 82
f 89 90 84
f 89 84 83
f 90 85 79
f 90 79 84
f 91 92 86
f 91 86 85
f 92 93 87
f 92 87 86
f 93 94 88
f 93 88 87
f 94 95 89
f 94 89 88
f 95 96 90
f 95 90 89
f 96 91 85
f 96 85 90
f 97 98 92
f 97 92 91
f 98 99 93
f 98 93 92
f 99 100 94
f 99 94 93
f 100 101 95
f 100 95 94
f 101 102 96
f 101 96 95
f 102 97 91
f 102 91 96
f 103 104 98
f 103 98 97
f 104 105 99
f 104 99 98
f 105 106 100
f 105 100 99
f 106 107 101
f 106 101 100
f 107 108 102
f 107 102 101
f 108 103 97
f 108 97 102
f 109 110 104
f 109 104 103
f 110 111 105
f 110 105 104
f 111 112 106
f 111 106 105
f 112 113 107
f 112 107 106
f 113 114 108
f 113 108 107
f 114 109 103
f 114 103 108
f 115 116 110
f 115 110 109
f 116 117 111
f 116 111 110
f 117 118 112
f 117 112 111
f 118 119 113
f 118 113 112
f 119 120 114
f 119 114 113
f 120 115 109
f 120 109 114
f 121 122 116
f 121 116 115
f 122 123 117
f 122 117 116
f 123 124 118
f 123 118 117
f 124 125 119
f 124 119 118
f 125 126 120
f 125 120 119
f 126 121 115
f 126 115 120
f 127 128 122
f 127 122 121
f 128 129 123
f 128 123 122
f 129 130 124
f 129 124 123
f 130 131 125
f 130 125 124
f 131 132 126
f 131 126 125
f 132 127 121
f 132 121 126
f 133 134 128
f 133 128 127
f 134 135 129
f 134 129 128
f 135 136 130
f 135 130 129
f 136 137 131
f 136 131 130
f 137 138 132
f 137 132 131
f 138 133 127
f 138 127 132
f 139 140 134
f 139 134 133
f 140 141 135
f 140 135 134
f 141 142 136
f 141 136 135
f 142 143 137
f 142 137 136
f 143 144 138
f 143 138 137
f 144 139 133
f 144 133 138
f 145 146 140
f 145 140 139
f 146 147 141
f 146 141 140
f 147 148 142
f 147 142 141
f 148 149 143
f 148 143 142
f 149 150 144
f 149 144 143
f 150 145 139
f 150 139 144
f 151 152 146
f 151 146 145
f 152 153 147
f 152 147 146
f 153 154 148
f 153 148 147
f 154 155 149
f 154 149 148
f 155 156 150
f 155 150 149
f 156 151 145
f 156 145 150
f 157 158 152
f 157 152 151
f 158 159 153
f 158 153 152
f 159 160 154
f 159 154 153
f 160 161 155
f 160 155 154
f 161 162 156
f 161 156 155
f 162 157 151
f 162 151 156
f 163 164 158
f 163 158 157
f 164 165 159
f 164 159 158
f 165 166 160
f 165 160 159
f 166 167 161
f 166 161 160
f 167 168 162
f 167 162 161
f 168 163 157
f 168 157 162
f 169 170 164
f 169 164 163
f 170 171 165
f 170 165 164
f 171 172 166
f 171 166 165
f 172 173 167
f 172 167 166
f 173 174 168
f 173 168 167
f 174 169 163
f 174 163 168
f 175 176 170
f 175 170 169
f 176 177 171
f 176 171 170
f 177 178 172
f 177 172 171
f 178 179 173
f 178 173 172
f 179 180 174
f 179 174 173
f 180 175 169
f 180 169 174
f 181 182 176
f 181 176 175
f 182 183 177
f 182 177 176
f 183 184 178
f 183 178 177
f 184 185 179
f 184 179 178
f 185 186 180
f 185 180 179
f 186 181 175
f 186 175 180
f 187 188 182
f 187 182 181
f 188 189 183
f 188 183 182
f 189 190 184
f 189 184 183
f 190 191 185
f 190 185 184
f 191 192 186
f 191 186 185
f 192 187 181
f 192 181 186
f 193 194 188
f 193 188 187
f 194 195 189
f 194 189 188
f 195 196 190
f 195 190 189
f 196 197 191
f 196 191 190
f 197 198 192
f 197 192 191
f 198 193 187
f 198 187 192
f 199 200 194
f 199 194 193
f 200 201 195
f 200 195 194
f 201 202 196
f 201 196 195
f 202 203 197
f 202 197 196
f 203 204 198
f 203 198 197
f 204 199 193
f 204 193 198
f 205 206 200
f 205 200 199
f 206 207 201
f 206 201 200
f 207 208 202
f 207 202 201
f 208 209 203
f 208 203 202
f 209 210 204
f 209 204 203
f 210 205 199
f 210 199 204
f 211 212 206
f 211 206 205
f 212 213 207
f 212 207 206
f 213 214 208
f 213 208 207
f 214 215 209
f 214 209 208
f 215 216 210
f 215 210 209
f 216 211 205
f 216 205 210
f 217 218 212
f 217 212 211
f 218 219 213
f 218 213 212
f 219 220 214
f 219 214 213
f 220 221 215
f 220 215 214
f 221 222 216
f 221 216 215
f 222 217 211
f 222 211 216
f 1 2 3
f 1 3 4
f 1 4 5
f 1 5 6
f 222 221 220
f 222 220 219
f 222 219 218
f 222 218 217
o UnderwaterHull
usemtl underwater
v -0.06546583 -0.12385585 -1.34288884
v -0.10147204 -0.04371383 -1.34288884
v -0.10583643 0.00000000 -1.34288884
v 0.10583643 0.00000000 -1.34288884
v 0.10147204 -0.04371383 -1.34288884
v 0.06546583 -0.12385585 -1.34288884
v -0.06705174 -0.12385585 -1.26711820
v -0.10393020 -0.04371383 -1.26711820
v -0.10840032 0.00000000 -1.26711820
v 0.10840032 0.00000000 -1.26711820
v 0.10393020 -0.04371383 -1.26711820
v 0.06705174 -0.12385585 -1.26711820
v -0.06863148 -0.12385585 -1.19134757
v -0.10637881 -0.04371383 -1.19134757
v -0.11095424 0.00000000 -1.19134757
v 0.11095424 0.00000000 -1.19134757
v 0.10637881 -0.04371383 -1.19134757
v 0.06863148 -0.12385585 -1.19134757
v -0.07019895 -0.12385585 -1.11557693
v -0.10880836 -0.04371383 -1.11557693
v -0.11348829 0.00000000 -1.11557693
v 0.11348829 0.00000000 -1.11557693
v 0.10880836 -0.04371383 -1.11557693
v 0.07019895 -0.12385585 -1.11557693
v -0.07174802 -0.12385585 -1.03980629
v -0.11120942 -0.04371383 -1.03980629
v -0.11599262 0.00000000 -1.03980629
v 0.11599262 0.00000000 -1.03980629
v 0.11120942 -0.04371383 -1.03980629
v 0.07174802 -0.12385585 -1.03980629
v -0.07327268 -0.12385585 -0.96403565
v -0.11357265 -0.04371383 -0.96403565
v -0.11845750 0.00000000 -0.96403565
v 0.11845750 0.00000000 -0.96403565
v 0.11357265 -0.04371383 -0.96403565
v 0.07327268 -0.12385585 -0.96403565
v -0.07476703 -0.12385585 -0.88826502
v -0.11588889 -0.04371383 -0.88826502
v -0.12087336 0.00000000 -0.88826502
v 0.12087336 0.00000000 -0.88826502
v 0.11588889 -0.04371383 -0.88826502
v 0.07476703 -0.12385585 -0.88826502
v -0.07622525 -0.12385585 -0.81249438
v -0.11814913 -0.04371383 -0.81249438
v -0.12323080 0.00000000 -0.81249438
v 0.12323080 0.00000000 -0.81249438
v 0.11814913 -0.04371383 -0.81249438
v 0.07622525 -0.12385585 -0.81249438
v -0.07764166 -0.12385585 -0.73672374
v -0.12034458 -0.04371383 -0.73672374
v -0.12552069 0.00000000 -0.73672374
v 0.12552069 0.00000000 -0.73672374
v 0.12034458 -0.04371383 -0.73672374
v 0.07764166 -0.12385585 -0.73672374
v -0.07901079 -0.12385585 -0.66095310
v -0.12246674 -0.04371383 -0.66095310
v -0.12773413 0.00000000 -0.66095310
v 0.12773413 0.00000000 -0.66095310
v 0.12246674 -0.04371383 -0.66095310
v 0.07901079 -0.12385585 -0.66095310
v -0.08032732 -0.12385585 -0.58518246
v -0.12450735 -0.04371383 -0.58518246
v -0.12986251 0.00000000 -0.58518246
v 0.12986251 0.00000000 -0.58518246
v 0.12450735 -0.04371383 -0.58518246
v 0.08032732 -0.12385585 -0.58518246
v -0.08158612 -0.12385585 -0.50941183
v -0.12645848 -0.04371383 -0.50941183
v -0.13189756 0.00000000 -0.50941183
v 0.13189756 0.00000000 -0.50941183
v 0.12645848 -0.04371383 -0.50941183
v 0.08158612 -0.12385585 -0.50941183
v -0.08278231 -0.12385585 -0.43364119
v -0.12831258 -0.04371383 -0.43364119
v -0.13383139 0.00000000 -0.43364119
v 0.13383139 0.00000000 -0.43364119
v 0.12831258 -0.04371383 -0.43364119
v 0.08278231 -0.12385585 -0.43364119
v -0.08391123 -0.12385585 -0.35787055
v -0.13006240 -0.04371383 -0.35787055
v -0.13565649 0.00000000 -0.35787055
v 0.13565649 0.00000000 -0.35787055
v 0.13006240 -0.04371383 -0.35787055
v 0.08391123 -0.12385585 -0.35787055
v -0.08496851 -0.12385585 -0.28209991
v -0.13170119 -0.04371383 -0.28209991
v -0.13736575 0.00000000 -0.28209991
v 0.13736575 0.00000000 -0.28209991
v 0.13170119 -0.04371383 -0.28209991
v 0.08496851 -0.12385585 -0.28209991
v -0.08595003 -0.12385585 -0.20632928
v -0.13322256 -0.04371383 -0.20632928
v -0.13895255 0.00000000 -0.20632928
v 0.13895255 0.00000000 -0.20632928
v 0.13322256 -0.04371383 -0.20632928
v 0.08595003 -0.12385585 -0.20632928
v -0.08685199 -0.12385585 -0.13055864
v -0.13462060 -0.04371383 -0.13055864
v -0.14041073 0.00000000 -0.13055864
v 0.14041073 0.00000000 -0.13055864
v 0.13462060 -0.04371383 -0.13055864
v 0.08685199 -0.12385585 -0.13055864
v -0.08767090 -0.12385585 -0.05478800
v -0.13588987 -0.04371383 -0.05478800
v -0.14173460 0.00000000 -0.05478800
v 0.14173460 0.00000000 -0.05478800
v 0.13588987 -0.04371383 -0.05478800
v 0.08767090 -0.12385585 -0.05478800
v -0.08840354 -0.12385585 0.02098264
v -0.13702549 -0.04371383 0.02098264
v -0.14291906 0.00000000 0.02098264
v 0.14291906 0.00000000 0.02098264
v 0.13702549 -0.04371383 0.02098264
v 0.08840354 -0.12385585 0.02098264
v -0.08904710 -0.12385585 0.09675328
v -0.13802299 -0.04371383 0.09675328
v -0.14395946 0.00000000 0.09675328
v 0.14395946 0.00000000 0.09675328
v 0.13802299 -0.04371383 0.09675328
v 0.08904710 -0.12385585 0.09675328
v -0.08959906 -0.12385585 0.17252391
v -0.13887853 -0.04371383 0.17252391
v -0.14485179 0.00000000 0.17252391
v 0.14485179 0.00000000 0.17252391
v 0.13887853 -0.04371383 0.17252391
v 0.08959906 -0.12385585 0.17252391
v -0.09005728 -0.12385585 0.24829455
v -0.13958878 -0.04371383 0.24829455
v -0.14559260 0.00000000 0.24829455
v 0.14559260 0.00000000 0.24829455
v 0.13958878 -0.04371383 0.24829455
v 0.09005728 -0.12385585 0.24829455
v -0.09041997 -0.12385585 0.32406519
v -0.14015097 -0.04371383 0.32406519
v -0.14617896 0.00000000 0.32406519
v 0.14617896 0.00000000 0.32406519
v 0.14015097 -0.04371383 0.32406519
v 0.09041997 -0.12385585 0.32406519
v -0.09068575 -0.12385585 0.39983583
v -0.14056293 -0.04371383 0.39983583
v -0.14660864 0.00000000 0.39983583
v 0.14660864 0.00000000 0.39983583
v 0.14056293 -0.04371383 0.39983583
v 0.09068575 -0.12385585 0.39983583
v -0.09085357 -0.12385585 0.47560646
v -0.14082304 -0.04371383 0.47560646
v -0.14687995 0.00000000 0.47560646
v 0.14687995 0.00000000 0.47560646
v 0.14082304 -0.04371383 0.47560646
v 0.09085357 -0.12385585 0.47560646
v -0.09092278 -0.12385585 0.55137710
v -0.14093033 -0.04371383 0.55137710
v -0.14699185 0.00000000 0.55137710
v 0.14699185 0.00000000 0.55137710
v 0.14093033 -0.04371383 0.55137710
v 0.09092278 -0.12385585 0.55137710
v -0.09092477 -0.12385585 0.62714774
v -0.14093339 -0.04371383 0.62714774
v -0.14699504 0.00000000 0.62714774
v 0.14699504 0.00000000 0.62714774
v 0.14093339 -0.04371383 0.62714774
v 0.09092477 -0.12385585 0.62714774
v -0.09092477 -0.12385585 0.70291838
v -0.14093339 -0.04371383 0.70291838
v -0.14699504 0.00000000 0.70291838
v 0.14699504 0.00000000 0.70291838
v 0.14093339 -0.04371383 0.70291838
v 0.09092477 -0.12385585 0.70291838
v -0.08914668 -0.12385585 0.77868902
v -0.13817735 -0.04371383 0.77868902
v -0.14412046 0.00000000 0.77868902
v 0.14412046 0.00000000 0.77868902
v 0.13817735 -0.04371383 0.77868902
v 0.08914668 -0.12385585 0.77868902
v -0.08363104 -0.12385585 0.85445965
v -0.12962812 -0.04371383 0.85445965
v -0.13520352 0.00000000 0.85445965
v 0.13520352 0.00000000 0.85445965
v 0.12962812 -0.04371383 0.85445965
v 0.08363104 -0.12385585 0.85445965
v -0.07602810 -0.12385585 0.93023029
v -0.11784355 -0.04371383 0.93023029
v -0.12291208 0.00000000 0.93023029
v 0.12291208 0.00000000 0.93023029
v 0.11784355 -0.04371383 0.93023029
v 0.07602810 -0.12385585 0.93023029
v -0.06680709 -0.12385585 1.00600093
v -0.10355100 -0.04371383 1.00600093
v -0.10800481 0.00000000 1.00600093
v 0.10800481 0.00000000 1.00600093
v 0.10355100 -0.04371383 1.00600093
v 0.06680709 -0.12385585 1.00600093
v -0.05621431 -0.12385585 1.08177157
v -0.08713218 -0.04371383 1.08177157
v -0.09087980 0.00000000 1.08177157
v 0.09087980 0.00000000 1.08177157
v 0.08713218 -0.04371383 1.08177157
v 0.05621431 -0.12385585 1.08177157
v -0.04440881 -0.12385585 1.15754220
v -0.06883365 -0.04371383 1.15754220
v -0.07179424 0.00000000 1.15754220
v 0.07179424 0.00000000 1.15754220
v 0.06883365 -0.04371383 1.15754220
v 0.04440881 -0.12385585 1.15754220
v -0.03150438 -0.12385585 1.23331284
v -0.04883180 -0.04371383 1.23331284
v -0.05093209 0.00000000 1.23331284
v 0.05093209 0.00000000 1.23331284
v 0.04883180 -0.04371383 1.23331284
v 0.03150438 -0.12385585 1.23331284
v -0.01758773 -0.12385585 1.30908348
v -0.02726098 -0.04371383 1.30908348
v -0.02843350 0.00000000 1.30908348
v 0.02843350 0.00000000 1.30908348
v 0.02726098 -0.04371383 1.30908348
v 0.01758773 -0.12385585 1.30908348
v -0.00272774 -0.12385585 1.38485412
v -0.00422800 -0.04371383 1.38485412
v -0.00440985 0.00000000 1.38485412
v 0.00440985 0.00000000 1.38485412
v 0.00422800 -0.04371383 1.38485412
v 0.00272774 -0.12385585 1.38485412
f 229 230 224
f 229 224 223
f 230 231 225
f 230 225 224
f 231 232 226
f 231 226 225
f 232 233 227
f 232 227 226
f 233 234 228
f 233 228 227
f 234 229 223
f 234 223 228
f 235 236 230
f 235 230 229
f 236 237 231
f 236 231 230
f 237 238 232
f 237 232 231
f 238 239 233
f 238 233 232
f 239 240 234
f 239 234 233
f 240 235 229
f 240 229 234
f 241 242 236
f 241 236 235
f 242 243 237
f 242 237 236
f 243 244 238
f 243 238 237
f 244 245 239
f 244 239 238
f 245 246 240
f 245 240 239
f 246 241 235
f 246 235 240
f 247 248 242
f 247 242 241
f 248 249 243
f 248 243 242
f 249 250 244
f 249 244 243
f 250 251 245
f 250 245 244
f 251 252 246
f 251 246 245
f 252 247 241
f 252 241 246
f 253 254 248
f 253 248 247
f 254 255 249
f 254 249 248
f 255 256 250
f 255 250 249
f 256 257 251
f 256 251 250
f 257 258 252
f 257 252 251
f 258 253 247
f 258 247 252
f 259 260 254
f 259 254 253
f 260 261 255
f 260 255 254
f 261 262 256
f 261 256 255
f 262 263 257
f 262 257 256
f 263 264 258
f 263 258 257
f 264 259 253
f 264 253 258
f 265 266 260
f 265 260 259
f 266 267 261
f 266 261 260
f 267 268 262
f 267 262 261
f 268 269 263
f 268 263 262
f 269 270 264
f 269 264 263
f 270 265 259
f 270 259 264
f 271 272 266
f 271 266 265
f 272 273 267
f 272 267 266
f 273 274 268
f 273 268 267
f 274 275 269
f 274 269 268
f 275 276 270
f 275 270 269
f 276 271 265
f 276 265 270
f 277 278 272
f 277 272 271
f 278 279 273
f 278 273 272
f 279 280 274
f 279 274 273
f 280 281 275
f 280 275 274
f 281 282 276
f 281 276 275
f 282 277 271
f 282 271 276
f 283 284 278
f 283 278 277
f 284 285 279
f 284 279 278
f 285 286 280
f 285 280 279
f 286 287 281
f 286 281 280
f 287 288 282
f 287 282 281
f 288 283 277
f 288 277 282
f 289 290 284
f 289 284 283
f 290 291 285
f 290 285 284
f 291 292 286
f 291 286 285
f 292 293 287
f 292 287 286
f 293 294 288
f 293 288 287
f 294 289 283
f 294 283 288
f 295 296 290
f 295 290 289
f 296 297 291
f 296 291 290
f 297 298 292
f 297 292 291
f 298 299 293
f 298 293 292
f 299 300 294
f 299 294 293
f 300 295 289
f 300 289 294
f 301 302 296
f 301 296 295
f 302 303 297
f 302 297 296
f 303 304 298
f 303 298 297
f 304 305 299
f 304 299 298
f 305 306 300
f 305 300 299
f 306 301 295
f 306 295 300
f 307 308 302
f 307 302 301
f 308 309 303
f 308 303 302
f 309 310 304
f 309 304 303
f 310 311 305
f 310 305 304
f 311 312 306
f 311 306 305
f 312 307 301
f 312 301 306
f 313 314 308
f 313 308 307
f 314 315 309
f 314 309 308
f 315 316 310
f 315 310 309
f 316 317 311
f 316 311 310
f 317 318 312
f 317 312 311
f 318 313 307
f 318 307 312
f 319 320 314
f 319 314 313
f 320 321 315
f 320 315 314
f 321 322 316
f 321 316 315
f 322 323 317
f 322 317 316
f 323 324 318
f 323 318 317
f 324 319 313
f 324 313 318
f 325 326 320
f 325 320 319
f 326 327 321
f 326 321 320
f 327 328 322
f 327 322 321
f 328 329 323
f 328 323 322
f 329 330 324
f 329 324 323
f 330 325 319
f 330 319 324
f 331 332 326
f 331 326 325
f 332 333 327
f 332 327 326
f 333 334 328
f 333 328 327
f 334 335 329
f 334 329 328
f 335 336 330
f 335 330 329
f 336 331 325
f 336 325 330
f 337 338 332
f 337 332 331
f 338 339 333
f 338 333 332
f 339 340 334
f 339 334 333
f 340 341 335
f 340 335 334
f 341 342 336
f 341 336 335
f 342 337 331
f 342 331 336
f 343 344 338
f 343 338 337
f 344 345 339
f 344 339 338
f 345 346 340
f 345 340 339
f 346 347 341
f 346 341 340
f 347 348 342
f 347 342 341
f 348 343 337
f 348 337 342
f 349 350 344
f 349 344 343
f 350 351 345
f 350 345 344
f 351 352 346
f 351 346 345
f 352 353 347
f 352 347 346
f 353 354 348
f 353 348 347
f 354 349 343
f 354 343 348
f 355 356 350
f 355 350 349
f 356 357 351
f 356 351 350
f 357 358 352
f 357 352 351
f 358 359 353
f 358 353 352
f 359 360 354
f 359 354 353
f 360 355 349
f 360 349 354
f 361 362 356
f 361 356 355
f 362 363 357
f 362 357 356
f 363 364 358
f 363 358 357
f 364 365 359
f 364 359 358
f 365 366 360
f 365 360 359
f 366 361 355
f 366 355 360
f 367 368 362
f 367 362 361
f 368 369 363
f 368 363 362
f 369 370 364
f 369 364 363
f 370 371 365
f 370 365 364
f 371 372 366
f 371 366 365
f 372 367 361
f 372 361 366
f 373 374 368
f 373 368 367
f 374 375 369
f 374 369 368
f 375 376 370
f 375 370 369
f 376 377 371
f 376 371 370
f 377 378 372
f 377 372 371
f 378 373 367
f 378 367 372
f 379 380 374
f 379 374 373
f 380 381 375
f 380 375 374
f 381 382 376
f 381 376 375
f 382 383 377
f 382 377 376
f 383 384 378
f 383 378 377
f 384 379 373
f 384 373 378
f 385 386 380
f 385 380 379
f 386 387 381
f 386 381 380
f 387 388 382
f 387 382 381
f 388 389 383
f 388 383 382
f 389 390 384
f 389 384 383
f 390 385 379
f 390 379 384
f 391 392 386
f 391 386 385
f 392 393 387
f 392 387 386
f 393 394 388
f 393 388 387
f 394 395 389
f 394 389 388
f 395 396 390
f 395 390 389
f 396 391 385
f 396 385 390
f 397 398 392
f 397 392 391
f 398 399 393
f 398 393 392
f 399 400 394
f 399 394 393
f 400 401 395
f 400 395 394
f 401 402 396
f 401 396 395
f 402 397 391
f 402 391 396
f 403 404 398
f 403 398 397
f 404 405 399
f 404 399 398
f 405 406 400
f 405 400 399
f 406 407 401
f 406 401 400
f 407 408 402
f 407 402 401
f 408 403 397
f 408 397 402
f 409 410 404
f 409 404 403
f 410 411 405
f 410 405 404
f 411 412 406
f 411 406 405
f 412 413 407
f 412 407 406
f 413 414 408
f 413 408 407
f 414 409 403
f 414 403 408
f 415 416 410
f 415 410 409
f 416 417 411
f 416 411 410
f 417 418 412
f 417 412 411
f 418 419 413
f 418 413 412
f 419 420 414
f 419 414 413
f 420 415 409
f 420 409 414
f 421 422 416
f 421 416 415
f 422 423 417
f 422 417 416
f 423 424 418
f 423 418 417
f 424 425 419
f 424 419 418
f 425 426 420
f 425 420 419
f 426 421 415
f 426 415 420
f 427 428 422
f 427 422 421
f 428 429 423
f 428 423 422
f 429 430 424
f 429 424 423
f 430 431 425
f 430 425 424
f 431 432 426
f 431 426 425
f 432 427 421
f 432 421 426
f 433 434 428
f 433 428 427
f 434 435 429
f 434 429 428
f 435 436 430
f 435 430 429
f 436 437 431
f 436 431 430
f 437 438 432
f 437 432 431
f 438 433 427
f 438 427 432
f 439 440 434
f 439 434 433
f 440 441 435
f 440 435 434
f 441 442 436
f 441 436 435
f 442 443 437
f 442 437 436
f 443 444 438
f 443 438 437
f 444 439 433
f 444 433 438
f 223 224 225
f 223 225 226
f 223 226 227
f 223 227 228
f 444 443 442
f 444 442 441
f 444 441 440
f 444 440 439
o FlightDeck
usemtl deck
v -0.20050076 0.21128351 -1.37086569
v 0.20050076 0.21128351 -1.37086569
v 0.23314042 0.21128351 -0.83930553
v 0.23314042 0.21128351 1.06312033
v 0.18651234 0.21128351 1.39884254
v -0.18651234 0.21128351 1.39884254
v -0.23314042 0.21128351 1.06312033
v -0.23314042 0.21128351 -0.83930553
v -0.20050076 0.22585479 -1.37086569
v 0.20050076 0.22585479 -1.37086569
v 0.23314042 0.22585479 -0.83930553
v 0.23314042 0.22585479 1.06312033
v 0.18651234 0.22585479 1.39884254
v -0.18651234 0.22585479 1.39884254
v -0.23314042 0.22585479 1.06312033
v -0.23314042 0.22585479 -0.83930553
f 452 445 446
f 452 446 447
f 452 447 448
f 452 448 449
f 452 449 450
f 450 451 452
f 454 453 460
f 455 454 460
f 456 455 460
f 457 456 460
f 458 457 460
f 460 459 458
f 445 453 454
f 445 454 446
f 446 454 455
f 446 455 447
f 447 455 456
f 447 456 448
f 448 456 457
f 448 457 449
f 449 457 458
f 449 458 450
f 450 458 459
f 450 459 451
f 451 459 460
f 451 460 452
f 452 460 453
f 452 453 445
o Island
usemtl island
v 0.13289004 0.22585479 -0.50358332
v 0.20749498 0.22585479 -0.50358332
v 0.20749498 0.34242500 -0.50358332
v 0.13289004 0.34242500 -0.50358332
v 0.13289004 0.22585479 0.05595370
v 0.20749498 0.22585479 0.05595370
v 0.20749498 0.34242500 0.05595370
v 0.13289004 0.34242500 0.05595370
f 461 464 463
f 461 463 462
f 465 466 467
f 465 467 468
f 461 462 466
f 461 466 465
f 464 468 467
f 464 467 463
f 461 465 468
f 461 468 464
f 462 463 467
f 462 467 466
o Bridge
usemtl island
v 0.12589583 0.34242500 -0.23780323
v 0.20050076 0.34242500 -0.23780323
v 0.20050076 0.40071010 -0.23780323
v 0.12589583 0.40071010 -0.23780323
v 0.12589583 0.34242500 -0.01398843
v 0.20050076 0.34242500 -0.01398843
v 0.20050076 0.40071010 -0.01398843
v 0.12589583 0.40071010 -0.01398843
f 469 472 471
f 469 471 470
f 473 474 475
f 473 475 476
f 469 470 474
f 469 474 473
f 472 476 475
f 472 475 471
f 469 473 476
f 469 476 472
f 470 471 475
f 470 475 474
o BridgeGlass
usemtl glass
v 0.12433670 0.35918197 -0.22381481
v 0.12652239 0.35918197 -0.22381481
v 0.12652239 0.38395314 -0.22381481
v 0.12433670 0.38395314 -0.22381481
v 0.12433670 0.35918197 -0.02797685
v 0.12652239 0.35918197 -0.02797685
v 0.12652239 0.38395314 -0.02797685
v 0.12433670 0.38395314 -0.02797685
f 477 480 479
f 477 479 478
f 481 482 483
f 481 483 484
f 477 478 482
f 477 482 481
f 480 484 483
f 480 483 479
f 477 481 484
f 477 484 480
f 478 479 483
f 478 483 482
o Mast
usemtl island
v 0.18184953 0.40071010 -0.28209991
v 0.18096220 0.40071010 -0.27763896
v 0.17843526 0.40071010 -0.27385716
v 0.17465346 0.40071010 -0.27133022
v 0.17019251 0.40071010 -0.27044289
v 0.16573156 0.40071010 -0.27133022
v 0.16194976 0.40071010 -0.27385716
v 0.15942282 0.40071010 -0.27763896
v 0.15853549 0.40071010 -0.28209991
v 0.15942282 0.40071010 -0.28656087
v 0.16194976 0.40071010 -0.29034267
v 0.16573156 0.40071010 -0.29286960
v 0.17019251 0.40071010 -0.29375693
v 0.17465346 0.40071010 -0.29286960
v 0.17843526 0.40071010 -0.29034267
v 0.18096220 0.40071010 -0.28656087
v 0.18184953 0.60470797 -0.28209991
v 0.18096220 0.60470797 -0.27763896
v 0.17843526 0.60470797 -0.27385716
v 0.17465346 0.60470797 -0.27133022
v 0.17019251 0.60470797 -0.27044289
v 0.16573156 0.60470797 -0.27133022
v 0.16194976 0.60470797 -0.27385716
v 0.15942282 0.60470797 -0.27763896
v 0.15853549 0.60470797 -0.28209991
v 0.15942282 0.60470797 -0.28656087
v 0.16194976 0.60470797 -0.29034267
v 0.16573156 0.60470797 -0.29286960
v 0.17019251 0.60470797 -0.29375693
v 0.17465346 0.60470797 -0.29286960
v 0.17843526 0.60470797 -0.29034267
v 0.18096220 0.60470797 -0.28656087
f 500 485 486
f 500 486 487
f 500 487 488
f 500 488 489
f 500 489 490
f 500 490 491
f 500 491 492
f 500 492 493
f 500 493 494
f 500 494 495
f 500 495 496
f 500 496 497
f 500 497 498
f 498 499 500
f 502 501 516
f 503 502 516
f 504 503 516
f 505 504 516
f 506 505 516
f 507 506 516
f 508 507 516
f 509 508 516
f 510 509 516
f 511 510 516
f 512 511 516
f 513 512 516
f 514 513 516
f 516 515 514
f 485 501 502
f 485 502 486
f 486 502 503
f 486 503 487
f 487 503 504
f 487 504 488
f 488 504 505
f 488 505 489
f 489 505 506
f 489 506 490
f 490 506 507
f 490 507 491
f 491 507 508
f 491 508 492
f 492 508 509
f 492 509 493
f 493 509 510
f 493 510 494
f 494 510 511
f 494 511 495
f 495 511 512
f 495 512 496
f 496 512 513
f 496 513 497
f 497 513 514
f 497 514 498
f 498 514 515
f 498 515 499
f 499 515 516
f 499 516 500
f 500 516 501
f 500 501 485
o Funnel
usemtl dark
v 0.15270698 0.26956862 -0.42664698
v 0.18767804 0.26956862 -0.42664698
v 0.18767804 0.41528138 -0.42664698
v 0.15270698 0.41528138 -0.42664698
v 0.15270698 0.26956862 -0.30075115
v 0.18767804 0.26956862 -0.30075115
v 0.18767804 0.41528138 -0.30075115
v 0.15270698 0.41528138 -0.30075115
f 517 520 519
f 517 519 518
f 521 522 523
f 521 523 524
f 517 518 522
f 517 522 521
f 520 524 523
f 520 523 519
f 517 521 524
f 517 524 520
f 518 519 523
f 518 523 522
o Elevator_1
usemtl hull
v 0.11365596 0.22585479 0.55603991
v 0.25936872 0.22585479 0.55603991
v 0.25936872 0.22818619 0.55603991
v 0.11365596 0.22818619 0.55603991
v 0.11365596 0.22585479 0.73089523
v 0.25936872 0.22585479 0.73089523
v 0.25936872 0.22818619 0.73089523
v 0.11365596 0.22818619 0.73089523
f 525 528 527
f 525 527 526
f 529 530 531
f 529 531 532
f 525 526 530
f 525 530 529
f 528 532 531
f 528 531 527
f 525 529 532
f 525 532 528
f 526 527 531
f 526 531 530
o Elevator_2
usemtl hull
v 0.11365596 0.22585479 -0.59101097
v 0.25936872 0.22585479 -0.59101097
v 0.25936872 0.22818619 -0.59101097
v 0.11365596 0.22818619 -0.59101097
v 0.11365596 0.22585479 -0.41615566
v 0.25936872 0.22585479 -0.41615566
v 0.25936872 0.22818619 -0.41615566
v 0.11365596 0.22818619 -0.41615566
f 533 536 535
f 533 535 534
f 537 538 539
f 537 539 540
f 533 534 538
f 533 538 537
f 536 540 539
f 536 539 535
f 533 537 540
f 533 540 536
f 534 535 539
f 534 539 538
o Catapult_1
usemtl gold
v 0.06018020 0.22745763 0.67153680
v 0.07183722 0.22745763 1.31500437
v 0.08203546 0.22745763 1.31481961
v 0.07037843 0.22745763 0.67135204
v 0.06018020 0.22804048 0.67153680
v 0.07183722 0.22804048 1.31500437
v 0.08203546 0.22804048 1.31481961
v 0.07037843 0.22804048 0.67135204
f 541 544 543
f 543 542 541
f 547 548 545
f 545 546 547
f 542 546 545
f 542 545 541
f 543 547 546
f 543 546 542
f 544 548 547
f 544 547 543
f 541 545 548
f 541 548 544
o LandingEdge_-1
usemtl white
v -0.10382035 0.22760334 -1.25895829
v -0.10382035 0.22760334 1.23098144
v -0.10017753 0.22760334 1.23098144
v -0.10017753 0.22760334 -1.25895829
v -0.10382035 0.22818619 -1.25895829
v -0.10382035 0.22818619 1.23098144
v -0.10017753 0.22818619 1.23098144
v -0.10017753 0.22818619 -1.25895829
f 549 552 551
f 551 550 549
f 555 556 553
f 553 554 555
f 550 554 553
f 550 553 549
f 551 555 554
f 551 554 550
f 552 556 555
f 552 555 551
f 549 553 556
f 549 556 552
o LandingEdge_1
usemtl white
v 0.10017753 0.22760334 -1.25895829
v 0.10017753 0.22760334 1.23098144
v 0.10382035 0.22760334 1.23098144
v 0.10382035 0.22760334 -1.25895829
v 0.10017753 0.22818619 -1.25895829
v 0.10017753 0.22818619 1.23098144
v 0.10382035 0.22818619 1.23098144
v 0.10382035 0.22818619 -1.25895829
f 557 560 559
f 559 558 557
f 563 564 561
f 561 562 563
f 558 562 561
f 558 561 557
f 559 563 562
f 559 562 558
f 560 564 563
f 560 563 559
f 557 561 564
f 557 564 560
o Centreline_0
usemtl white
v -0.00254997 0.22774905 -1.25895829
v -0.00254997 0.22774905 -1.17892452
v 0.00254997 0.22774905 -1.17892452
v 0.00254997 0.22774905 -1.25895829
v -0.00254997 0.22833190 -1.25895829
v -0.00254997 0.22833190 -1.17892452
v 0.00254997 0.22833190 -1.17892452
v 0.00254997 0.22833190 -1.25895829
f 565 568 567
f 567 566 565
f 571 572 569
f 569 570 571
f 566 570 569
f 566 569 565
f 567 571 570
f 567 570 566
f 568 572 571
f 568 571 567
f 565 569 572
f 565 572 568
o Centreline_1
usemtl white
v -0.00254997 0.22774905 -1.08110546
v -0.00254997 0.22774905 -1.00107167
v 0.00254997 0.22774905 -1.00107167
v 0.00254997 0.22774905 -1.08110546
v -0.00254997 0.22833190 -1.08110546
v -0.00254997 0.22833190 -1.00107167
v 0.00254997 0.22833190 -1.00107167
v 0.00254997 0.22833190 -1.08110546
f 573 576 575
f 575 574 573
f 579 580 577
f 577 578 579
f 574 578 577
f 574 577 573
f 575 579 578
f 575 578 574
f 576 580 579
f 576 579 575
f 573 577 580
f 573 580 576
o Centreline_2
usemtl white
v -0.00254997 0.22774905 -0.90325261
v -0.00254997 0.22774905 -0.82321884
v 0.00254997 0.22774905 -0.82321884
v 0.00254997 0.22774905 -0.90325261
v -0.00254997 0.22833190 -0.90325261
v -0.00254997 0.22833190 -0.82321884
v 0.00254997 0.22833190 -0.82321884
v 0.00254997 0.22833190 -0.90325261
f 581 584 583
f 583 582 581
f 587 588 585
f 585 586 587
f 582 586 585
f 582 585 581
f 583 587 586
f 583 586 582
f 584 588 587
f 584 587 583
f 581 585 588
f 581 588 584
o Centreline_3
usemtl white
v -0.00254997 0.22774905 -0.72539977
v -0.00254997 0.22774905 -0.64536600
v 0.00254997 0.22774905 -0.64536600
v 0.00254997 0.22774905 -0.72539977
v -0.00254997 0.22833190 -0.72539977
v -0.00254997 0.22833190 -0.64536600
v 0.00254997 0.22833190 -0.64536600
v 0.00254997 0.22833190 -0.72539977
f 589 592 591
f 591 590 589
f 595 596 593
f 593 594 595
f 590 594 593
f 590 593 589
f 591 595 594
f 591 594 590
f 592 596 595
f 592 595 591
f 589 593 596
f 589 596 592
o Centreline_4
usemtl white
v -0.00254997 0.22774905 -0.54754694
v -0.00254997 0.22774905 -0.46751316
v 0.00254997 0.22774905 -0.46751316
v 0.00254997 0.22774905 -0.54754694
v -0.00254997 0.22833190 -0.54754694
v -0.00254997 0.22833190 -0.46751316
v 0.00254997 0.22833190 -0.46751316
v 0.00254997 0.22833190 -0.54754694
f 597 600 599
f 599 598 597
f 603 604 601
f 601 602 603
f 598 602 601
f 598 601 597
f 599 603 602
f 599 602 598
f 600 604 603
f 600 603 599
f 597 601 604
f 597 604 600
o Centreline_5
usemtl white
v -0.00254997 0.22774905 -0.36969411
v -0.00254997 0.22774905 -0.28966032
v 0.00254997 0.22774905 -0.28966032
v 0.00254997 0.22774905 -0.36969411
v -0.00254997 0.22833190 -0.36969411
v -0.00254997 0.22833190 -0.28966032
v 0.00254997 0.22833190 -0.28966032
v 0.00254997 0.22833190 -0.36969411
f 605 608 607
f 607 606 605
f 611 612 609
f 609 610 611
f 606 610 609
f 606 609 605
f 607 611 610
f 607 610 606
f 608 612 611
f 608 611 607
f 605 609 612
f 605 612 608
o Centreline_6
usemtl white
v -0.00254997 0.22774905 -0.19184126
v -0.00254997 0.22774905 -0.11180749
v 0.00254997 0.22774905 -0.11180749
v 0.00254997 0.22774905 -0.19184126
v -0.00254997 0.22833190 -0.19184126
v -0.00254997 0.22833190 -0.11180749
v 0.00254997 0.22833190 -0.11180749
v 0.00254997 0.22833190 -0.19184126
f 613 616 615
f 615 614 613
f 619 620 617
f 617 618 619
f 614 618 617
f 614 617 613
f 615 619 618
f 615 618 614
f 616 620 619
f 616 619 615
f 613 617 620
f 613 620 616
o Centreline_7
usemtl white
v -0.00254997 0.22774905 -0.01398843
v -0.00254997 0.22774905 0.06604535
v 0.00254997 0.22774905 0.06604535
v 0.00254997 0.22774905 -0.01398843
v -0.00254997 0.22833190 -0.01398843
v -0.00254997 0.22833190 0.06604535
v 0.00254997 0.22833190 0.06604535
v 0.00254997 0.22833190 -0.01398843
f 621 624 623
f 623 622 621
f 627 628 625
f 625 626 627
f 622 626 625
f 622 625 621
f 623 627 626
f 623 626 622
f 624 628 627
f 624 627 623
f 621 625 628
f 621 628 624
o Centreline_8
usemtl white
v -0.00254997 0.22774905 0.16386441
v -0.00254997 0.22774905 0.24389819
v 0.00254997 0.22774905 0.24389819
v 0.00254997 0.22774905 0.16386441
v -0.00254997 0.22833190 0.16386441
v -0.00254997 0.22833190 0.24389819
v 0.00254997 0.22833190 0.24389819
v 0.00254997 0.22833190 0.16386441
f 629 632 631
f 631 630 629
f 635 636 633
f 633 634 635
f 630 634 633
f 630 633 629
f 631 635 634
f 631 634 630
f 632 636 635
f 632 635 631
f 629 633 636
f 629 636 632
o Centreline_9
usemtl white
v -0.00254997 0.22774905 0.34171726
v -0.00254997 0.22774905 0.42175103
v 0.00254997 0.22774905 0.42175103
v 0.00254997 0.22774905 0.34171726
v -0.00254997 0.22833190 0.34171726
v -0.00254997 0.22833190 0.42175103
v 0.00254997 0.22833190 0.42175103
v 0.00254997 0.22833190 0.34171726
f 637 640 639
f 639 638 637
f 643 644 641
f 641 642 643
f 638 642 641
f 638 641 637
f 639 643 642
f 639 642 638
f 640 644 643
f 640 643 639
f 637 641 644
f 637 644 640
o Centreline_10
usemtl white
v -0.00254997 0.22774905 0.51957009
v -0.00254997 0.22774905 0.59960386
v 0.00254997 0.22774905 0.59960386
v 0.00254997 0.22774905 0.51957009
v -0.00254997 0.22833190 0.51957009
v -0.00254997 0.22833190 0.59960386
v 0.00254997 0.22833190 0.59960386
v 0.00254997 0.22833190 0.51957009
f 645 648 647
f 647 646 645
f 651 652 649
f 649 650 651
f 646 650 649
f 646 649 645
f 647 651 650
f 647 650 646
f 648 652 651
f 648 651 647
f 645 649 652
f 645 652 648
o Centreline_11
usemtl white
v -0.00254997 0.22774905 0.69742292
v -0.00254997 0.22774905 0.77745671
v 0.00254997 0.22774905 0.77745671
v 0.00254997 0.22774905 0.69742292
v -0.00254997 0.22833190 0.69742292
v -0.00254997 0.22833190 0.77745671
v 0.00254997 0.22833190 0.77745671
v 0.00254997 0.22833190 0.69742292
f 653 656 655
f 655 654 653
f 659 660 657
f 657 658 659
f 654 658 657
f 654 657 653
f 655 659 658
f 655 658 654
f 656 660 659
f 656 659 655
f 653 657 660
f 653 660 656
o Centreline_12
usemtl white
v -0.00254997 0.22774905 0.87527576
v -0.00254997 0.22774905 0.95530954
v 0.00254997 0.22774905 0.95530954
v 0.00254997 0.22774905 0.87527576
v -0.00254997 0.22833190 0.87527576
v -0.00254997 0.22833190 0.95530954
v 0.00254997 0.22833190 0.95530954
v 0.00254997 0.22833190 0.87527576
f 661 664 663
f 663 662 661
f 667 668 665
f 665 666 667
f 662 666 665
f 662 665 661
f 663 667 666
f 663 666 662
f 664 668 667
f 664 667 663
f 661 665 668
f 661 668 664
o Centreline_13
usemtl white
v -0.00254997 0.22774905 1.05312860
v -0.00254997 0.22774905 1.13316238
v 0.00254997 0.22774905 1.13316238
v 0.00254997 0.22774905 1.05312860
v -0.00254997 0.22833190 1.05312860
v -0.00254997 0.22833190 1.13316238
v 0.00254997 0.22833190 1.13316238
v 0.00254997 0.22833190 1.05312860
f 669 672 671
f 671 670 669
f 675 676 673
f 673 674 675
f 670 674 673
f 670 673 669
f 671 675 674
f 671 674 670
f 672 676 675
f 672 675 671
f 669 673 676
f 669 676 672
o Sponson_1
usemtl hull
v -0.26024300 0.19816936 0.73235236
v -0.18738662 0.19816936 0.73235236
v -0.18738662 0.21856915 0.73235236
v -0.26024300 0.21856915 0.73235236
v -0.26024300 0.19816936 0.83435129
v -0.18738662 0.19816936 0.83435129
v -0.18738662 0.21856915 0.83435129
v -0.26024300 0.21856915 0.83435129
f 677 680 679
f 677 679 678
f 681 682 683
f 681 683 684
f 677 678 682
f 677 682 681
f 680 684 683
f 680 683 679
f 677 681 684
f 677 684 680
f 678 679 683
f 678 683 682
o AA_Base_1
usemtl island
v -0.20632928 0.21856915 0.78335182
v -0.20766029 0.21856915 0.79004325
v -0.21145067 0.21856915 0.79571596
v -0.21712339 0.21856915 0.79950634
v -0.22381481 0.21856915 0.80083736
v -0.23050623 0.21856915 0.79950634
v -0.23617894 0.21856915 0.79571596
v -0.23996933 0.21856915 0.79004325
v -0.24130034 0.21856915 0.78335182
v -0.23996933 0.21856915 0.77666040
v -0.23617894 0.21856915 0.77098769
v -0.23050623 0.21856915 0.76719731
v -0.22381481 0.21856915 0.76586629
v -0.21712339 0.21856915 0.76719731
v -0.21145067 0.21856915 0.77098769
v -0.20766029 0.21856915 0.77666040
v -0.20632928 0.24771170 0.78335182
v -0.20766029 0.24771170 0.79004325
v -0.21145067 0.24771170 0.79571596
v -0.21712339 0.24771170 0.79950634
v -0.22381481 0.24771170 0.80083736
v -0.23050623 0.24771170 0.79950634
v -0.23617894 0.24771170 0.79571596
v -0.23996933 0.24771170 0.79004325
v -0.24130034 0.24771170 0.78335182
v -0.23996933 0.24771170 0.77666040
v -0.23617894 0.24771170 0.77098769
v -0.23050623 0.24771170 0.76719731
v -0.22381481 0.24771170 0.76586629
v -0.21712339 0.24771170 0.76719731
v -0.21145067 0.24771170 0.77098769
v -0.20766029 0.24771170 0.77666040
f 700 685 686
f 700 686 687
f 700 687 688
f 700 688 689
f 700 689 690
f 700 690 691
f 700 691 692
f 700 692 693
f 700 693 694
f 700 694 695
f 700 695 696
f 700 696 697
f 700 697 698
f 698 699 700
f 702 701 716
f 703 702 716
f 704 703 716
f 705 704 716
f 706 705 716
f 707 706 716
f 708 707 716
f 709 708 716
f 710 709 716
f 711 710 716
f 712 711 716
f 713 712 716
f 714 713 716
f 716 715 714
f 685 701 702
f 685 702 686
f 686 702 703
f 686 703 687
f 687 703 704
f 687 704 688
f 688 704 705
f 688 705 689
f 689 705 706
f 689 706 690
f 690 706 707
f 690 707 691
f 691 707 708
f 691 708 692
f 692 708 709
f 692 709 693
f 693 709 710
f 693 710 694
f 694 710 711
f 694 711 695
f 695 711 712
f 695 712 696
f 696 712 713
f 696 713 697
f 697 713 714
f 697 714 698
f 698 714 715
f 698 715 699
f 699 715 716
f 699 716 700
f 700 716 701
f 700 701 685
o AA_Gun_1_-1
usemtl dark
v -0.23000760 0.24151891 0.76149491
v -0.22636478 0.24151891 0.76149491
v -0.22636478 0.24516173 0.76149491
v -0.23000760 0.24516173 0.76149491
v -0.23000760 0.24151891 0.80520874
v -0.22636478 0.24151891 0.80520874
v -0.22636478 0.24516173 0.80520874
v -0.23000760 0.24516173 0.80520874
f 717 720 719
f 717 719 718
f 721 722 723
f 721 723 724
f 717 718 722
f 717 722 721
f 720 724 723
f 720 723 719
f 717 721 724
f 717 724 720
f 718 719 723
f 718 723 722
o AA_Gun_1_1
usemtl dark
v -0.22126483 0.24151891 0.76149491
v -0.21762201 0.24151891 0.76149491
v -0.21762201 0.24516173 0.76149491
v -0.22126483 0.24516173 0.76149491
v -0.22126483 0.24151891 0.80520874
v -0.21762201 0.24151891 0.80520874
v -0.21762201 0.24516173 0.80520874
v -0.22126483 0.24516173 0.80520874
f 725 728 727
f 725 727 726
f 729 730 731
f 729 731 732
f 725 726 730
f 725 730 729
f 728 732 731
f 728 731 727
f 725 729 732
f 725 732 728
f 726 727 731
f 726 731 730
o Sponson_2
usemtl hull
v 0.17806100 0.19816936 0.73235236
v 0.25091738 0.19816936 0.73235236
v 0.25091738 0.21856915 0.73235236
v 0.17806100 0.21856915 0.73235236
v 0.17806100 0.19816936 0.83435129
v 0.25091738 0.19816936 0.83435129
v 0.25091738 0.21856915 0.83435129
v 0.17806100 0.21856915 0.83435129
f 733 736 735
f 733 735 734
f 737 738 739
f 737 739 740
f 733 734 738
f 733 738 737
f 736 740 739
f 736 739 735
f 733 737 740
f 733 740 736
f 734 735 739
f 734 739 738
o AA_Base_2
usemtl island
v 0.23197472 0.21856915 0.78335182
v 0.23064371 0.21856915 0.79004325
v 0.22685333 0.21856915 0.79571596
v 0.22118061 0.21856915 0.79950634
v 0.21448919 0.21856915 0.80083736
v 0.20779777 0.21856915 0.79950634
v 0.20212505 0.21856915 0.79571596
v 0.19833467 0.21856915 0.79004325
v 0.19700366 0.21856915 0.78335182
v 0.19833467 0.21856915 0.77666040
v 0.20212505 0.21856915 0.77098769
v 0.20779777 0.21856915 0.76719731
v 0.21448919 0.21856915 0.76586629
v 0.22118061 0.21856915 0.76719731
v 0.22685333 0.21856915 0.77098769
v 0.23064371 0.21856915 0.77666040
v 0.23197472 0.24771170 0.78335182
v 0.23064371 0.24771170 0.79004325
v 0.22685333 0.24771170 0.79571596
v 0.22118061 0.24771170 0.79950634
v 0.21448919 0.24771170 0.80083736
v 0.20779777 0.24771170 0.79950634
v 0.20212505 0.24771170 0.79571596
v 0.19833467 0.24771170 0.79004325
v 0.19700366 0.24771170 0.78335182
v 0.19833467 0.24771170 0.77666040
v 0.20212505 0.24771170 0.77098769
v 0.20779777 0.24771170 0.76719731
v 0.21448919 0.24771170 0.76586629
v 0.22118061 0.24771170 0.76719731
v 0.22685333 0.24771170 0.77098769
v 0.23064371 0.24771170 0.77666040
f 756 741 742
f 756 742 743
f 756 743 744
f 756 744 745
f 756 745 746
f 756 746 747
f 756 747 748
f 756 748 749
f 756 749 750
f 756 750 751
f 756 751 752
f 756 752 753
f 756 753 754
f 754 755 756
f 758 757 772
f 759 758 772
f 760 759 772
f 761 760 772
f 762 761 772
f 763 762 772
f 764 763 772
f 765 764 772
f 766 765 772
f 767 766 772
f 768 767 772
f 769 768 772
f 770 769 772
f 772 771 770
f 741 757 758
f 741 758 742
f 742 758 759
f 742 759 743
f 743 759 760
f 743 760 744
f 744 760 761
f 744 761 745
f 745 761 762
f 745 762 746
f 746 762 763
f 746 763 747
f 747 763 764
f 747 764 748
f 748 764 765
f 748 765 749
f 749 765 766
f 749 766 750
f 750 766 767
f 750 767 751
f 751 767 768
f 751 768 752
f 752 768 769
f 752 769 753
f 753 769 770
f 753 770 754
f 754 770 771
f 754 771 755
f 755 771 772
f 755 772 756
f 756 772 757
f 756 757 741
o AA_Gun_2_-1
usemtl dark
v 0.20829640 0.24151891 0.76149491
v 0.21193922 0.24151891 0.76149491
v 0.21193922 0.24516173 0.76149491
v 0.20829640 0.24516173 0.76149491
v 0.20829640 0.24151891 0.80520874
v 0.21193922 0.24151891 0.80520874
v 0.21193922 0.24516173 0.80520874
v 0.20829640 0.24516173 0.80520874
f 773 776 775
f 773 775 774
f 777 778 779
f 777 779 780
f 773 774 778
f 773 778 777
f 776 780 779
f 776 779 775
f 773 777 780
f 773 780 776
f 774 775 779
f 774 779 778
o AA_Gun_2_1
usemtl dark
v 0.21703916 0.24151891 0.76149491
v 0.22068198 0.24151891 0.76149491
v 0.22068198 0.24516173 0.76149491
v 0.21703916 0.24516173 0.76149491
v 0.21703916 0.24151891 0.80520874
v 0.22068198 0.24151891 0.80520874
v 0.22068198 0.24516173 0.80520874
v 0.21703916 0.24516173 0.80520874
f 781 784 783
f 781 783 782
f 785 786 787
f 785 787 788
f 781 782 786
f 781 786 785
f 784 788 787
f 784 787 783
f 781 785 788
f 781 788 784
f 782 783 787
f 782 787 786
o Sponson_3
usemtl hull
v -0.24159176 0.19816936 -1.17007350
v -0.16873538 0.19816936 -1.17007350
v -0.16873538 0.21856915 -1.17007350
v -0.24159176 0.21856915 -1.17007350
v -0.24159176 0.19816936 -1.06807457
v -0.16873538 0.19816936 -1.06807457
v -0.16873538 0.21856915 -1.06807457
v -0.24159176 0.21856915 -1.06807457
f 789 792 791
f 789 791 790
f 793 794 795
f 793 795 796
f 789 790 794
f 789 794 793
f 792 796 795
f 792 795 791
f 789 793 796
f 789 796 792
f 790 791 795
f 790 795 794
o AA_Base_3
usemtl island
v -0.18767804 0.21856915 -1.11907404
v -0.18900905 0.21856915 -1.11238261
v -0.19279944 0.21856915 -1.10670990
v -0.19847215 0.21856915 -1.10291952
v -0.20516357 0.21856915 -1.10158850
v -0.21185499 0.21856915 -1.10291952
v -0.21752771 0.21856915 -1.10670990
v -0.22131809 0.21856915 -1.11238261
v -0.22264910 0.21856915 -1.11907404
v -0.22131809 0.21856915 -1.12576546
v -0.21752771 0.21856915 -1.13143817
v -0.21185499 0.21856915 -1.13522855
v -0.20516357 0.21856915 -1.13655957
v -0.19847215 0.21856915 -1.13522855
v -0.19279944 0.21856915 -1.13143817
v -0.18900905 0.21856915 -1.12576546
v -0.18767804 0.24771170 -1.11907404
v -0.18900905 0.24771170 -1.11238261
v -0.19279944 0.24771170 -1.10670990
v -0.19847215 0.24771170 -1.10291952
v -0.20516357 0.24771170 -1.10158850
v -0.21185499 0.24771170 -1.10291952
v -0.21752771 0.24771170 -1.10670990
v -0.22131809 0.24771170 -1.11238261
v -0.22264910 0.24771170 -1.11907404
v -0.22131809 0.24771170 -1.12576546
v -0.21752771 0.24771170 -1.13143817
v -0.21185499 0.24771170 -1.13522855
v -0.20516357 0.24771170 -1.13655957
v -0.19847215 0.24771170 -1.13522855
v -0.19279944 0.24771170 -1.13143817
v -0.18900905 0.24771170 -1.12576546
f 812 797 798
f 812 798 799
f 812 799 800
f 812 800 801
f 812 801 802
f 812 802 803
f 812 803 804
f 812 804 805
f 812 805 806
f 812 806 807
f 812 807 808
f 812 808 809
f 812 809 810
f 810 811 812
f 814 813 828
f 815 814 828
f 816 815 828
f 817 816 828
f 818 817 828
f 819 818 828
f 820 819 828
f 821 820 828
f 822 821 828
f 823 822 828
f 824 823 828
f 825 824 828
f 826 825 828
f 828 827 826
f 797 813 814
f 797 814 798
f 798 814 815
f 798 815 799
f 799 815 816
f 799 816 800
f 800 816 817
f 800 817 801
f 801 817 818
f 801 818 802
f 802 818 819
f 802 819 803
f 803 819 820
f 803 820 804
f 804 820 821
f 804 821 805
f 805 821 822
f 805 822 806
f 806 822 823
f 806 823 807
f 807 823 824
f 807 824 808
f 808 824 825
f 808 825 809
f 809 825 826
f 809 826 810
f 810 826 827
f 810 827 811
f 811 827 828
f 811 828 812
f 812 828 813
f 812 813 797
o AA_Gun_3_-1
usemtl dark
v -0.21135637 0.24151891 -1.14093095
v -0.20771355 0.24151891 -1.14093095
v -0.20771355 0.24516173 -1.14093095
v -0.21135637 0.24516173 -1.14093095
v -0.21135637 0.24151891 -1.09721712
v -0.20771355 0.24151891 -1.09721712
v -0.20771355 0.24516173 -1.09721712
v -0.21135637 0.24516173 -1.09721712
f 829 832 831
f 829 831 830
f 833 834 835
f 833 835 836
f 829 830 834
f 829 834 833
f 832 836 835
f 832 835 831
f 829 833 836
f 829 836 832
f 830 831 835
f 830 835 834
o AA_Gun_3_1
usemtl dark
v -0.20261360 0.24151891 -1.14093095
v -0.19897078 0.24151891 -1.14093095
v -0.19897078 0.24516173 -1.14093095
v -0.20261360 0.24516173 -1.14093095
v -0.20261360 0.24151891 -1.09721712
v -0.19897078 0.24151891 -1.09721712
v -0.19897078 0.24516173 -1.09721712
v -0.20261360 0.24516173 -1.09721712
f 837 840 839
f 837 839 838
f 841 842 843
f 841 843 844
f 837 838 842
f 837 842 841
f 840 844 843
f 840 843 839
f 837 841 844
f 837 844 840
f 838 839 843
f 838 843 842
o Sponson_4
usemtl hull
v 0.16407257 0.19816936 -1.17007350
v 0.23692896 0.19816936 -1.17007350
v 0.23692896 0.21856915 -1.17007350
v 0.16407257 0.21856915 -1.17007350
v 0.16407257 0.19816936 -1.06807457
v 0.23692896 0.19816936 -1.06807457
v 0.23692896 0.21856915 -1.06807457
v 0.16407257 0.21856915 -1.06807457
f 845 848 847
f 845 847 846
f 849 850 851
f 849 851 852
f 845 846 850
f 845 850 849
f 848 852 851
f 848 851 847
f 845 849 852
f 845 852 848
f 846 847 851
f 846 851 850
o AA_Base_4
usemtl island
v 0.21798630 0.21856915 -1.11907404
v 0.21665528 0.21856915 -1.11238261
v 0.21286490 0.21856915 -1.10670990
v 0.20719219 0.21856915 -1.10291952
v 0.20050076 0.21856915 -1.10158850
v 0.19380934 0.21856915 -1.10291952
v 0.18813663 0.21856915 -1.10670990
v 0.18434625 0.21856915 -1.11238261
v 0.18301523 0.21856915 -1.11907404
v 0.18434625 0.21856915 -1.12576546
v 0.18813663 0.21856915 -1.13143817
v 0.19380934 0.21856915 -1.13522855
v 0.20050076 0.21856915 -1.13655957
v 0.20719219 0.21856915 -1.13522855
v 0.21286490 0.21856915 -1.13143817
v 0.21665528 0.21856915 -1.12576546
v 0.21798630 0.24771170 -1.11907404
v 0.21665528 0.24771170 -1.11238261
v 0.21286490 0.24771170 -1.10670990
v 0.20719219 0.24771170 -1.10291952
v 0.20050076 0.24771170 -1.10158850
v 0.19380934 0.24771170 -1.10291952
v 0.18813663 0.24771170 -1.10670990
v 0.18434625 0.24771170 -1.11238261
v 0.18301523 0.24771170 -1.11907404
v 0.18434625 0.24771170 -1.12576546
v 0.18813663 0.24771170 -1.13143817
v 0.19380934 0.24771170 -1.13522855
v 0.20050076 0.24771170 -1.13655957
v 0.20719219 0.24771170 -1.13522855
v 0.21286490 0.24771170 -1.13143817
v 0.21665528 0.24771170 -1.12576546
f 868 853 854
f 868 854 855
f 868 855 856
f 868 856 857
f 868 857 858
f 868 858 859
f 868 859 860
f 868 860 861
f 868 861 862
f 868 862 863
f 868 863 864
f 868 864 865
f 868 865 866
f 866 867 868
f 870 869 884
f 871 870 884
f 872 871 884
f 873 872 884
f 874 873 884
f 875 874 884
f 876 875 884
f 877 876 884
f 878 877 884
f 879 878 884
f 880 879 884
f 881 880 884
f 882 881 884
f 884 883 882
f 853 869 870
f 853 870 854
f 854 870 871
f 854 871 855
f 855 871 872
f 855 872 856
f 856 872 873
f 856 873 857
f 857 873 874
f 857 874 858
f 858 874 875
f 858 875 859
f 859 875 876
f 859 876 860
f 860 876 877
f 860 877 861
f 861 877 878
f 861 878 862
f 862 878 879
f 862 879 863
f 863 879 880
f 863 880 864
f 864 880 881
f 864 881 865
f 865 881 882
f 865 882 866
f 866 882 883
f 866 883 867
f 867 883 884
f 867 884 868
f 868 884 869
f 868 869 853
o AA_Gun_4_-1
usemtl dark
v 0.19430797 0.24151891 -1.14093095
v 0.19795079 0.24151891 -1.14093095
v 0.19795079 0.24516173 -1.14093095
v 0.19430797 0.24516173 -1.14093095
v 0.19430797 0.24151891 -1.09721712
v 0.19795079 0.24151891 -1.09721712
v 0.19795079 0.24516173 -1.09721712
v 0.19430797 0.24516173 -1.09721712
f 885 888 887
f 885 887 886
f 889 890 891
f 889 891 892
f 885 886 890
f 885 890 889
f 888 892 891
f 888 891 887
f 885 889 892
f 885 892 888
f 886 887 891
f 886 891 890
o AA_Gun_4_1
usemtl dark
v 0.20305074 0.24151891 -1.14093095
v 0.20669356 0.24151891 -1.14093095
v 0.20669356 0.24516173 -1.14093095
v 0.20305074 0.24516173 -1.14093095
v 0.20305074 0.24151891 -1.09721712
v 0.20669356 0.24151891 -1.09721712
v 0.20669356 0.24516173 -1.09721712
v 0.20305074 0.24516173 -1.09721712
f 893 896 895
f 893 895 894
f 897 898 899
f 897 899 900
f 893 894 898
f 893 898 897
f 896 900 899
f 896 899 895
f 893 897 900
f 893 900 896
f 894 895 899
f 894 899 898
o SonarDome
usemtl dark
v 0.02185691 -0.13114149 1.06312033
v 0.02019315 -0.13114149 1.07148461
v 0.01545517 -0.13114149 1.07857550
v 0.00836428 -0.13114149 1.08331349
v 0.00000000 -0.13114149 1.08497725
v -0.00836428 -0.13114149 1.08331349
v -0.01545517 -0.13114149 1.07857550
v -0.02019315 -0.13114149 1.07148461
v -0.02185691 -0.13114149 1.06312033
v -0.02019315 -0.13114149 1.05475606
v -0.01545517 -0.13114149 1.04766516
v -0.00836428 -0.13114149 1.04292718
v -0.00000000 -0.13114149 1.04126342
v 0.00836428 -0.13114149 1.04292718
v 0.01545517 -0.13114149 1.04766516
v 0.02019315 -0.13114149 1.05475606
v 0.02185691 -0.10199894 1.06312033
v 0.02019315 -0.10199894 1.07148461
v 0.01545517 -0.10199894 1.07857550
v 0.00836428 -0.10199894 1.08331349
v 0.00000000 -0.10199894 1.08497725
v -0.00836428 -0.10199894 1.08331349
v -0.01545517 -0.10199894 1.07857550
v -0.02019315 -0.10199894 1.07148461
v -0.02185691 -0.10199894 1.06312033
v -0.02019315 -0.10199894 1.05475606
v -0.01545517 -0.10199894 1.04766516
v -0.00836428 -0.10199894 1.04292718
v -0.00000000 -0.10199894 1.04126342
v 0.00836428 -0.10199894 1.04292718
v 0.01545517 -0.10199894 1.04766516
v 0.02019315 -0.10199894 1.05475606
f 916 901 902
f 916 902 903
f 916 903 904
f 916 904 905
f 916 905 906
f 916 906 907
f 916 907 908
f 916 908 909
f 916 909 910
f 916 910 911
f 916 911 912
f 916 912 913
f 916 913 914
f 914 915 916
f 918 917 932
f 919 918 932
f 920 919 932
f 921 920 932
f 922 921 932
f 923 922 932
f 924 923 932
f 925 924 932
f 926 925 932
f 927 926 932
f 928 927 932
f 929 928 932
f 930 929 932
f 932 931 930
f 901 917 918
f 901 918 902
f 902 918 919
f 902 919 903
f 903 919 920
f 903 920 904
f 904 920 921
f 904 921 905
f 905 921 922
f 905 922 906
f 906 922 923
f 906 923 907
f 907 923 924
f 907 924 908
f 908 924 925
f 908 925 909
f 909 925 926
f 909 926 910
f 910 926 927
f 910 927 911
f 911 927 928
f 911 928 912
f 912 928 929
f 912 929 913
f 913 929 930
f 913 930 914
f 914 930 931
f 914 931 915
f 915 931 932
f 915 932 916
f 916 932 917
f 916 917 901
o NoisemakerPort
usemtl dark
v -0.08597053 0.15736979 -1.27352957
v -0.06557074 0.15736979 -1.27352957
v -0.06557074 0.17776957 -1.27352957
v -0.08597053 0.17776957 -1.27352957
v -0.08597053 0.15736979 -1.24438701
v -0.06557074 0.15736979 -1.24438701
v -0.06557074 0.17776957 -1.24438701
v -0.08597053 0.17776957 -1.24438701
f 933 936 935
f 933 935 934
f 937 938 939
f 937 939 940
f 933 934 938
f 933 938 937
f 936 940 939
f 936 939 935
f 933 937 940
f 933 940 936
f 934 935 939
f 934 939 938
o NoisemakerStarboard
usemtl dark
v 0.06557074 0.15736979 -1.27352957
v 0.08597053 0.15736979 -1.27352957
v 0.08597053 0.17776957 -1.27352957
v 0.06557074 0.17776957 -1.27352957
v 0.06557074 0.15736979 -1.24438701
v 0.08597053 0.15736979 -1.24438701
v 0.08597053 0.17776957 -1.24438701
v 0.06557074 0.17776957 -1.24438701
f 941 944 943
f 941 943 942
f 945 946 947
f 945 947 948
f 941 942 946
f 941 946 945
f 944 948 947
f 944 947 943
f 941 945 948
f 941 948 944
f 942 943 947
f 942 947 946
