# Original RAN carrier model study scaled to an observed Sea Power reference mesh.
# Approximate game scale only; engine origin, deck routing and collision need an in-game test.
# RAN Carrier Restart: original model study; coordinates in metres
mtllib ran_cvn_federation_1968.mtl
o Hull
usemtl hull
v -0.18653670 0.00000000 -2.39202075
v -0.19230588 0.04371383 -2.39202075
v -0.19038282 0.27248287 -2.39202075
v 0.19038282 0.27248287 -2.39202075
v 0.19230588 0.04371383 -2.39202075
v 0.18653670 0.00000000 -2.39202075
v -0.19105555 0.00000000 -2.25705430
v -0.19696449 0.04371383 -2.25705430
v -0.19499485 0.27248287 -2.25705430
v 0.19499485 0.27248287 -2.25705430
v 0.19696449 0.04371383 -2.25705430
v 0.19105555 0.00000000 -2.25705430
v -0.19555685 0.00000000 -2.12208785
v -0.20160501 0.04371383 -2.12208785
v -0.19958895 0.27248287 -2.12208785
v 0.19958895 0.27248287 -2.12208785
v 0.20160501 0.04371383 -2.12208785
v 0.19555685 0.00000000 -2.12208785
v -0.20002312 0.00000000 -1.98712140
v -0.20620940 0.04371383 -1.98712140
v -0.20414730 0.27248287 -1.98712140
v 0.20414730 0.27248287 -1.98712140
v 0.20620940 0.04371383 -1.98712140
v 0.20002312 0.00000000 -1.98712140
v -0.20443699 0.00000000 -1.85215496
v -0.21075979 0.04371383 -1.85215496
v -0.20865218 0.27248287 -1.85215496
v 0.20865218 0.27248287 -1.85215496
v 0.21075979 0.04371383 -1.85215496
v 0.20443699 0.00000000 -1.85215496
v -0.20878134 0.00000000 -1.71718851
v -0.21523849 0.04371383 -1.71718851
v -0.21308611 0.27248287 -1.71718851
v 0.21308611 0.27248287 -1.71718851
v 0.21523849 0.04371383 -1.71718851
v 0.20878134 0.00000000 -1.71718851
v -0.21303929 0.00000000 -1.58222206
v -0.21962813 0.04371383 -1.58222206
v -0.21743186 0.27248287 -1.58222206
v 0.21743186 0.27248287 -1.58222206
v 0.21962813 0.04371383 -1.58222206
v 0.21303929 0.00000000 -1.58222206
v -0.21719430 0.00000000 -1.44725561
v -0.22391165 0.04371383 -1.44725561
v -0.22167254 0.27248287 -1.44725561
v 0.22167254 0.27248287 -1.44725561
v 0.22391165 0.04371383 -1.44725561
v 0.21719430 0.00000000 -1.44725561
v -0.22123023 0.00000000 -1.31228916
v -0.22807240 0.04371383 -1.31228916
v -0.22579168 0.27248287 -1.31228916
v 0.22579168 0.27248287 -1.31228916
v 0.22807240 0.04371383 -1.31228916
v 0.22123023 0.00000000 -1.31228916
v -0.22513139 0.00000000 -1.17732271
v -0.23209422 0.04371383 -1.17732271
v -0.22977328 0.27248287 -1.17732271
v 0.22977328 0.27248287 -1.17732271
v 0.23209422 0.04371383 -1.17732271
v 0.22513139 0.00000000 -1.17732271
v -0.22888267 0.00000000 -1.04235626
v -0.23596151 0.04371383 -1.04235626
v -0.23360190 0.27248287 -1.04235626
v 0.23360190 0.27248287 -1.04235626
v 0.23596151 0.04371383 -1.04235626
v 0.22888267 0.00000000 -1.04235626
v -0.23246945 0.00000000 -0.90738982
v -0.23965923 0.04371383 -0.90738982
v -0.23726264 0.27248287 -0.90738982
v 0.23726264 0.27248287 -0.90738982
v 0.23965923 0.04371383 -0.90738982
v 0.23246945 0.00000000 -0.90738982
v -0.23587783 0.00000000 -0.77242337
v -0.24317302 0.04371383 -0.77242337
v -0.24074128 0.27248287 -0.77242337
v 0.24074128 0.27248287 -0.77242337
v 0.24317302 0.04371383 -0.77242337
v 0.23587783 0.00000000 -0.77242337
v -0.23909455 0.00000000 -0.63745692
v -0.24648923 0.04371383 -0.63745692
v -0.24402434 0.27248287 -0.63745692
v 0.24402434 0.27248287 -0.63745692
v 0.24648923 0.04371383 -0.63745692
v 0.23909455 0.00000000 -0.63745692
v -0.24210714 0.00000000 -0.50249047
v -0.24959498 0.04371383 -0.50249047
v -0.24709904 0.27248287 -0.50249047
v 0.24709904 0.27248287 -0.50249047
v 0.24959498 0.04371383 -0.50249047
v 0.24210714 0.00000000 -0.50249047
v -0.24490387 0.00000000 -0.36752402
v -0.25247823 0.04371383 -0.36752402
v -0.24995343 0.27248287 -0.36752402
v 0.24995343 0.27248287 -0.36752402
v 0.25247823 0.04371383 -0.36752402
v 0.24490387 0.00000000 -0.36752402
v -0.24747391 0.00000000 -0.23255757
v -0.25512774 0.04371383 -0.23255757
v -0.25257647 0.27248287 -0.23255757
v 0.25257647 0.27248287 -0.23255757
v 0.25512774 0.04371383 -0.23255757
v 0.24747391 0.00000000 -0.23255757
v -0.24980724 0.00000000 -0.09759112
v -0.25753324 0.04371383 -0.09759112
v -0.25495791 0.27248287 -0.09759112
v 0.25495791 0.27248287 -0.09759112
v 0.25753324 0.04371383 -0.09759112
v 0.24980724 0.00000000 -0.09759112
v -0.25189484 0.00000000 0.03737532
v -0.25968540 0.04371383 0.03737532
v -0.25708854 0.27248287 0.03737532
v 0.25708854 0.27248287 0.03737532
v 0.25968540 0.04371383 0.03737532
v 0.25189484 0.00000000 0.03737532
v -0.25372856 0.00000000 0.17234177
v -0.26157583 0.04371383 0.17234177
v -0.25896007 0.27248287 0.17234177
v 0.25896007 0.27248287 0.17234177
v 0.26157583 0.04371383 0.17234177
v 0.25372856 0.00000000 0.17234177
v -0.25530130 0.00000000 0.30730822
v -0.26319721 0.04371383 0.30730822
v -0.26056524 0.27248287 0.30730822
v 0.26056524 0.27248287 0.30730822
v 0.26319721 0.04371383 0.30730822
v 0.25530130 0.00000000 0.30730822
v -0.25660694 0.00000000 0.44227467
v -0.26454324 0.04371383 0.44227467
v -0.26189781 0.27248287 0.44227467
v 0.26189781 0.27248287 0.44227467
v 0.26454324 0.04371383 0.44227467
v 0.25660694 0.00000000 0.44227467
v -0.25764042 0.00000000 0.57724112
v -0.26560868 0.04371383 0.57724112
v -0.26295260 0.27248287 0.57724112
v 0.26295260 0.27248287 0.57724112
v 0.26560868 0.04371383 0.57724112
v 0.25764042 0.00000000 0.57724112
v -0.25839772 0.00000000 0.71220757
v -0.26638941 0.04371383 0.71220757
v -0.26372552 0.27248287 0.71220757
v 0.26372552 0.27248287 0.71220757
v 0.26638941 0.04371383 0.71220757
v 0.25839772 0.00000000 0.71220757
v -0.25887591 0.00000000 0.84717402
v -0.26688239 0.04371383 0.84717402
v -0.26421355 0.27248287 0.84717402
v 0.26421355 0.27248287 0.84717402
v 0.26688239 0.04371383 0.84717402
v 0.25887591 0.00000000 0.84717402
v -0.25907311 0.00000000 0.98214046
v -0.26708568 0.04371383 0.98214046
v -0.26441483 0.27248287 0.98214046
v 0.26441483 0.27248287 0.98214046
v 0.26708568 0.04371383 0.98214046
v 0.25907311 0.00000000 0.98214046
v -0.25907875 0.00000000 1.11710691
v -0.26709150 0.04371383 1.11710691
v -0.26442058 0.27248287 1.11710691
v 0.26442058 0.27248287 1.11710691
v 0.26709150 0.04371383 1.11710691
v 0.25907875 0.00000000 1.11710691
v -0.25907875 0.00000000 1.25207336
v -0.26709150 0.04371383 1.25207336
v -0.26442058 0.27248287 1.25207336
v 0.26442058 0.27248287 1.25207336
v 0.26709150 0.04371383 1.25207336
v 0.25907875 0.00000000 1.25207336
v -0.25401232 0.00000000 1.38703981
v -0.26186837 0.04371383 1.38703981
v -0.25924967 0.27248287 1.38703981
v 0.25924967 0.27248287 1.38703981
v 0.26186837 0.04371383 1.38703981
v 0.25401232 0.00000000 1.38703981
v -0.23829621 0.00000000 1.52200626
v -0.24566620 0.04371383 1.52200626
v -0.24320954 0.27248287 1.52200626
v 0.24320954 0.27248287 1.52200626
v 0.24566620 0.04371383 1.52200626
v 0.23829621 0.00000000 1.52200626
v -0.21663255 0.00000000 1.65697271
v -0.22333253 0.04371383 1.65697271
v -0.22109920 0.27248287 1.65697271
v 0.22109920 0.27248287 1.65697271
v 0.22333253 0.04371383 1.65697271
v 0.21663255 0.00000000 1.65697271
v -0.19035846 0.00000000 1.79193916
v -0.19624584 0.04371383 1.79193916
v -0.19428338 0.27248287 1.79193916
v 0.19428338 0.27248287 1.79193916
v 0.19624584 0.04371383 1.79193916
v 0.19035846 0.00000000 1.79193916
v -0.16017566 0.00000000 1.92690560
v -0.16512954 0.04371383 1.92690560
v -0.16347824 0.27248287 1.92690560
v 0.16347824 0.27248287 1.92690560
v 0.16512954 0.04371383 1.92690560
v 0.16017566 0.00000000 1.92690560
v -0.12653734 0.00000000 2.06187205
v -0.13045087 0.04371383 2.06187205
v -0.12914636 0.27248287 2.06187205
v 0.12914636 0.27248287 2.06187205
v 0.13045087 0.04371383 2.06187205
v 0.12653734 0.00000000 2.06187205
v -0.08976781 0.00000000 2.19683850
v -0.09254413 0.04371383 2.19683850
v -0.09161869 0.27248287 2.19683850
v 0.09161869 0.27248287 2.19683850
v 0.09254413 0.04371383 2.19683850
v 0.08976781 0.00000000 2.19683850
v -0.05011404 0.00000000 2.33180495
v -0.05166396 0.04371383 2.33180495
v -0.05114732 0.27248287 2.33180495
v 0.05114732 0.27248287 2.33180495
v 0.05166396 0.04371383 2.33180495
v 0.05011404 0.00000000 2.33180495
v -0.00777236 0.00000000 2.46677140
v -0.00801274 0.04371383 2.46677140
v -0.00793262 0.27248287 2.46677140
v 0.00793262 0.27248287 2.46677140
v 0.00801274 0.04371383 2.46677140
v 0.00777236 0.00000000 2.46677140
f 7 8 2
f 7 2 1
f 8 9 3
f 8 3 2
f 9 10 4
f 9 4 3
f 10 11 5
f 10 5 4
f 11 12 6
f 11 6 5
f 12 7 1
f 12 1 6
f 13 14 8
f 13 8 7
f 14 15 9
f 14 9 8
f 15 16 10
f 15 10 9
f 16 17 11
f 16 11 10
f 17 18 12
f 17 12 11
f 18 13 7
f 18 7 12
f 19 20 14
f 19 14 13
f 20 21 15
f 20 15 14
f 21 22 16
f 21 16 15
f 22 23 17
f 22 17 16
f 23 24 18
f 23 18 17
f 24 19 13
f 24 13 18
f 25 26 20
f 25 20 19
f 26 27 21
f 26 21 20
f 27 28 22
f 27 22 21
f 28 29 23
f 28 23 22
f 29 30 24
f 29 24 23
f 30 25 19
f 30 19 24
f 31 32 26
f 31 26 25
f 32 33 27
f 32 27 26
f 33 34 28
f 33 28 27
f 34 35 29
f 34 29 28
f 35 36 30
f 35 30 29
f 36 31 25
f 36 25 30
f 37 38 32
f 37 32 31
f 38 39 33
f 38 33 32
f 39 40 34
f 39 34 33
f 40 41 35
f 40 35 34
f 41 42 36
f 41 36 35
f 42 37 31
f 42 31 36
f 43 44 38
f 43 38 37
f 44 45 39
f 44 39 38
f 45 46 40
f 45 40 39
f 46 47 41
f 46 41 40
f 47 48 42
f 47 42 41
f 48 43 37
f 48 37 42
f 49 50 44
f 49 44 43
f 50 51 45
f 50 45 44
f 51 52 46
f 51 46 45
f 52 53 47
f 52 47 46
f 53 54 48
f 53 48 47
f 54 49 43
f 54 43 48
f 55 56 50
f 55 50 49
f 56 57 51
f 56 51 50
f 57 58 52
f 57 52 51
f 58 59 53
f 58 53 52
f 59 60 54
f 59 54 53
f 60 55 49
f 60 49 54
f 61 62 56
f 61 56 55
f 62 63 57
f 62 57 56
f 63 64 58
f 63 58 57
f 64 65 59
f 64 59 58
f 65 66 60
f 65 60 59
f 66 61 55
f 66 55 60
f 67 68 62
f 67 62 61
f 68 69 63
f 68 63 62
f 69 70 64
f 69 64 63
f 70 71 65
f 70 65 64
f 71 72 66
f 71 66 65
f 72 67 61
f 72 61 66
f 73 74 68
f 73 68 67
f 74 75 69
f 74 69 68
f 75 76 70
f 75 70 69
f 76 77 71
f 76 71 70
f 77 78 72
f 77 72 71
f 78 73 67
f 78 67 72
f 79 80 74
f 79 74 73
f 80 81 75
f 80 75 74
f 81 82 76
f 81 76 75
f 82 83 77
f 82 77 76
f 83 84 78
f 83 78 77
f 84 79 73
f 84 73 78
f 85 86 80
f 85 80 79
f 86 87 81
f 86 81 80
f 87 88 82
f 87 82 81
f 88 89 83
f 88 83 82
f 89 90 84
f 89 84 83
f 90 85 79
f 90 79 84
f 91 92 86
f 91 86 85
f 92 93 87
f 92 87 86
f 93 94 88
f 93 88 87
f 94 95 89
f 94 89 88
f 95 96 90
f 95 90 89
f 96 91 85
f 96 85 90
f 97 98 92
f 97 92 91
f 98 99 93
f 98 93 92
f 99 100 94
f 99 94 93
f 100 101 95
f 100 95 94
f 101 102 96
f 101 96 95
f 102 97 91
f 102 91 96
f 103 104 98
f 103 98 97
f 104 105 99
f 104 99 98
f 105 106 100
f 105 100 99
f 106 107 101
f 106 101 100
f 107 108 102
f 107 102 101
f 108 103 97
f 108 97 102
f 109 110 104
f 109 104 103
f 110 111 105
f 110 105 104
f 111 112 106
f 111 106 105
f 112 113 107
f 112 107 106
f 113 114 108
f 113 108 107
f 114 109 103
f 114 103 108
f 115 116 110
f 115 110 109
f 116 117 111
f 116 111 110
f 117 118 112
f 117 112 111
f 118 119 113
f 118 113 112
f 119 120 114
f 119 114 113
f 120 115 109
f 120 109 114
f 121 122 116
f 121 116 115
f 122 123 117
f 122 117 116
f 123 124 118
f 123 118 117
f 124 125 119
f 124 119 118
f 125 126 120
f 125 120 119
f 126 121 115
f 126 115 120
f 127 128 122
f 127 122 121
f 128 129 123
f 128 123 122
f 129 130 124
f 129 124 123
f 130 131 125
f 130 125 124
f 131 132 126
f 131 126 125
f 132 127 121
f 132 121 126
f 133 134 128
f 133 128 127
f 134 135 129
f 134 129 128
f 135 136 130
f 135 130 129
f 136 137 131
f 136 131 130
f 137 138 132
f 137 132 131
f 138 133 127
f 138 127 132
f 139 140 134
f 139 134 133
f 140 141 135
f 140 135 134
f 141 142 136
f 141 136 135
f 142 143 137
f 142 137 136
f 143 144 138
f 143 138 137
f 144 139 133
f 144 133 138
f 145 146 140
f 145 140 139
f 146 147 141
f 146 141 140
f 147 148 142
f 147 142 141
f 148 149 143
f 148 143 142
f 149 150 144
f 149 144 143
f 150 145 139
f 150 139 144
f 151 152 146
f 151 146 145
f 152 153 147
f 152 147 146
f 153 154 148
f 153 148 147
f 154 155 149
f 154 149 148
f 155 156 150
f 155 150 149
f 156 151 145
f 156 145 150
f 157 158 152
f 157 152 151
f 158 159 153
f 158 153 152
f 159 160 154
f 159 154 153
f 160 161 155
f 160 155 154
f 161 162 156
f 161 156 155
f 162 157 151
f 162 151 156
f 163 164 158
f 163 158 157
f 164 165 159
f 164 159 158
f 165 166 160
f 165 160 159
f 166 167 161
f 166 161 160
f 167 168 162
f 167 162 161
f 168 163 157
f 168 157 162
f 169 170 164
f 169 164 163
f 170 171 165
f 170 165 164
f 171 172 166
f 171 166 165
f 172 173 167
f 172 167 166
f 173 174 168
f 173 168 167
f 174 169 163
f 174 163 168
f 175 176 170
f 175 170 169
f 176 177 171
f 176 171 170
f 177 178 172
f 177 172 171
f 178 179 173
f 178 173 172
f 179 180 174
f 179 174 173
f 180 175 169
f 180 169 174
f 181 182 176
f 181 176 175
f 182 183 177
f 182 177 176
f 183 184 178
f 183 178 177
f 184 185 179
f 184 179 178
f 185 186 180
f 185 180 179
f 186 181 175
f 186 175 180
f 187 188 182
f 187 182 181
f 188 189 183
f 188 183 182
f 189 190 184
f 189 184 183
f 190 191 185
f 190 185 184
f 191 192 186
f 191 186 185
f 192 187 181
f 192 181 186
f 193 194 188
f 193 188 187
f 194 195 189
f 194 189 188
f 195 196 190
f 195 190 189
f 196 197 191
f 196 191 190
f 197 198 192
f 197 192 191
f 198 193 187
f 198 187 192
f 199 200 194
f 199 194 193
f 200 201 195
f 200 195 194
f 201 202 196
f 201 196 195
f 202 203 197
f 202 197 196
f 203 204 198
f 203 198 197
f 204 199 193
f 204 193 198
f 205 206 200
f 205 200 199
f 206 207 201
f 206 201 200
f 207 208 202
f 207 202 201
f 208 209 203
f 208 203 202
f 209 210 204
f 209 204 203
f 210 205 199
f 210 199 204
f 211 212 206
f 211 206 205
f 212 213 207
f 212 207 206
f 213 214 208
f 213 208 207
f 214 215 209
f 214 209 208
f 215 216 210
f 215 210 209
f 216 211 205
f 216 205 210
f 217 218 212
f 217 212 211
f 218 219 213
f 218 213 212
f 219 220 214
f 219 214 213
f 220 221 215
f 220 215 214
f 221 222 216
f 221 216 215
f 222 217 211
f 222 211 216
f 1 2 3
f 1 3 4
f 1 4 5
f 1 5 6
f 222 221 220
f 222 220 219
f 222 219 218
f 222 218 217
o UnderwaterHull
usemtl underwater
v -0.11538353 -0.12385585 -2.39202075
v -0.17884447 -0.04371383 -2.39202075
v -0.18653670 0.00000000 -2.39202075
v 0.18653670 0.00000000 -2.39202075
v 0.17884447 -0.04371383 -2.39202075
v 0.11538353 -0.12385585 -2.39202075
v -0.11817869 -0.12385585 -2.25705430
v -0.18317697 -0.04371383 -2.25705430
v -0.19105555 0.00000000 -2.25705430
v 0.19105555 0.00000000 -2.25705430
v 0.18317697 -0.04371383 -2.25705430
v 0.11817869 -0.12385585 -2.25705430
v -0.12096300 -0.12385585 -2.12208785
v -0.18749265 -0.04371383 -2.12208785
v -0.19555685 0.00000000 -2.12208785
v 0.19555685 0.00000000 -2.12208785
v 0.18749265 -0.04371383 -2.12208785
v 0.12096300 -0.12385585 -2.12208785
v -0.12372564 -0.12385585 -1.98712140
v -0.19177474 -0.04371383 -1.98712140
v -0.20002312 0.00000000 -1.98712140
v 0.20002312 0.00000000 -1.98712140
v 0.19177474 -0.04371383 -1.98712140
v 0.12372564 -0.12385585 -1.98712140
v -0.12645588 -0.12385585 -1.85215496
v -0.19600660 -0.04371383 -1.85215496
v -0.20443699 0.00000000 -1.85215496
v 0.20443699 0.00000000 -1.85215496
v 0.19600660 -0.04371383 -1.85215496
v 0.12645588 -0.12385585 -1.85215496
v -0.12914310 -0.12385585 -1.71718851
v -0.20017180 -0.04371383 -1.71718851
v -0.20878134 0.00000000 -1.71718851
v 0.20878134 0.00000000 -1.71718851
v 0.20017180 -0.04371383 -1.71718851
v 0.12914310 -0.12385585 -1.71718851
v -0.13177688 -0.12385585 -1.58222206
v -0.20425417 -0.04371383 -1.58222206
v -0.21303929 0.00000000 -1.58222206
v 0.21303929 0.00000000 -1.58222206
v 0.20425417 -0.04371383 -1.58222206
v 0.13177688 -0.12385585 -1.58222206
v -0.13434699 -0.12385585 -1.44725561
v -0.20823784 -0.04371383 -1.44725561
v -0.21719430 0.00000000 -1.44725561
v 0.21719430 0.00000000 -1.44725561
v 0.20823784 -0.04371383 -1.44725561
v 0.13434699 -0.12385585 -1.44725561
v -0.13684343 -0.12385585 -1.31228916
v -0.21210733 -0.04371383 -1.31228916
v -0.22123023 0.00000000 -1.31228916
v 0.22123023 0.00000000 -1.31228916
v 0.21210733 -0.04371383 -1.31228916
v 0.13684343 -0.12385585 -1.31228916
v -0.13925654 -0.12385585 -1.17732271
v -0.21584763 -0.04371383 -1.17732271
v -0.22513139 0.00000000 -1.17732271
v 0.22513139 0.00000000 -1.17732271
v 0.21584763 -0.04371383 -1.17732271
v 0.13925654 -0.12385585 -1.17732271
v -0.14157691 -0.12385585 -1.04235626
v -0.21944421 -0.04371383 -1.04235626
v -0.22888267 0.00000000 -1.04235626
v 0.22888267 0.00000000 -1.04235626
v 0.21944421 -0.04371383 -1.04235626
v 0.14157691 -0.12385585 -1.04235626
v -0.14379553 -0.12385585 -0.90738982
v -0.22288308 -0.04371383 -0.90738982
v -0.23246945 0.00000000 -0.90738982
v 0.23246945 0.00000000 -0.90738982
v 0.22288308 -0.04371383 -0.90738982
v 0.14379553 -0.12385585 -0.90738982
v -0.14590381 -0.12385585 -0.77242337
v -0.22615090 -0.04371383 -0.77242337
v -0.23587783 0.00000000 -0.77242337
v 0.23587783 0.00000000 -0.77242337
v 0.22615090 -0.04371383 -0.77242337
v 0.14590381 -0.12385585 -0.77242337
v -0.14789355 -0.12385585 -0.63745692
v -0.22923499 -0.04371383 -0.63745692
v -0.23909455 0.00000000 -0.63745692
v 0.23909455 0.00000000 -0.63745692
v 0.22923499 -0.04371383 -0.63745692
v 0.14789355 -0.12385585 -0.63745692
v -0.14975699 -0.12385585 -0.50249047
v -0.23212333 -0.04371383 -0.50249047
v -0.24210714 0.00000000 -0.50249047
v 0.24210714 0.00000000 -0.50249047
v 0.23212333 -0.04371383 -0.50249047
v 0.14975699 -0.12385585 -0.50249047
v -0.15148694 -0.12385585 -0.36752402
v -0.23480474 -0.04371383 -0.36752402
v -0.24490387 0.00000000 -0.36752402
v 0.24490387 0.00000000 -0.36752402
v 0.23480474 -0.04371383 -0.36752402
v 0.15148694 -0.12385585 -0.36752402
v -0.15307664 -0.12385585 -0.23255757
v -0.23726880 -0.04371383 -0.23255757
v -0.24747391 0.00000000 -0.23255757
v 0.24747391 0.00000000 -0.23255757
v 0.23726880 -0.04371383 -0.23255757
v 0.15307664 -0.12385585 -0.23255757
v -0.15451995 -0.12385585 -0.09759112
v -0.23950592 -0.04371383 -0.09759112
v -0.24980724 0.00000000 -0.09759112
v 0.24980724 0.00000000 -0.09759112
v 0.23950592 -0.04371383 -0.09759112
v 0.15451995 -0.12385585 -0.09759112
v -0.15581124 -0.12385585 0.03737532
v -0.24150741 -0.04371383 0.03737532
v -0.25189484 0.00000000 0.03737532
v 0.25189484 0.00000000 0.03737532
v 0.24150741 -0.04371383 0.03737532
v 0.15581124 -0.12385585 0.03737532
v -0.15694550 -0.12385585 0.17234177
v -0.24326552 -0.04371383 0.17234177
v -0.25372856 0.00000000 0.17234177
v 0.25372856 0.00000000 0.17234177
v 0.24326552 -0.04371383 0.17234177
v 0.15694550 -0.12385585 0.17234177
v -0.15791832 -0.12385585 0.30730822
v -0.24477340 -0.04371383 0.30730822
v -0.25530130 0.00000000 0.30730822
v 0.25530130 0.00000000 0.30730822
v 0.24477340 -0.04371383 0.30730822
v 0.15791832 -0.12385585 0.30730822
v -0.15872595 -0.12385585 0.44227467
v -0.24602521 -0.04371383 0.44227467
v -0.25660694 0.00000000 0.44227467
v 0.25660694 0.00000000 0.44227467
v 0.24602521 -0.04371383 0.44227467
v 0.15872595 -0.12385585 0.44227467
v -0.15936521 -0.12385585 0.57724112
v -0.24701608 -0.04371383 0.57724112
v -0.25764042 0.00000000 0.57724112
v 0.25764042 0.00000000 0.57724112
v 0.24701608 -0.04371383 0.57724112
v 0.15936521 -0.12385585 0.57724112
v -0.15983364 -0.12385585 0.71220757
v -0.24774215 -0.04371383 0.71220757
v -0.25839772 0.00000000 0.71220757
v 0.25839772 0.00000000 0.71220757
v 0.24774215 -0.04371383 0.71220757
v 0.15983364 -0.12385585 0.71220757
v -0.16012943 -0.12385585 0.84717402
v -0.24820061 -0.04371383 0.84717402
v -0.25887591 0.00000000 0.84717402
v 0.25887591 0.00000000 0.84717402
v 0.24820061 -0.04371383 0.84717402
v 0.16012943 -0.12385585 0.84717402
v -0.16025142 -0.12385585 0.98214046
v -0.24838969 -0.04371383 0.98214046
v -0.25907311 0.00000000 0.98214046
v 0.25907311 0.00000000 0.98214046
v 0.24838969 -0.04371383 0.98214046
v 0.16025142 -0.12385585 0.98214046
v -0.16025490 -0.12385585 1.11710691
v -0.24839509 -0.04371383 1.11710691
v -0.25907875 0.00000000 1.11710691
v 0.25907875 0.00000000 1.11710691
v 0.24839509 -0.04371383 1.11710691
v 0.16025490 -0.12385585 1.11710691
v -0.16025490 -0.12385585 1.25207336
v -0.24839509 -0.04371383 1.25207336
v -0.25907875 0.00000000 1.25207336
v 0.25907875 0.00000000 1.25207336
v 0.24839509 -0.04371383 1.25207336
v 0.16025490 -0.12385585 1.25207336
v -0.15712103 -0.12385585 1.38703981
v -0.24353758 -0.04371383 1.38703981
v -0.25401232 0.00000000 1.38703981
v 0.25401232 0.00000000 1.38703981
v 0.24353758 -0.04371383 1.38703981
v 0.15712103 -0.12385585 1.38703981
v -0.14739971 -0.12385585 1.52200626
v -0.22846956 -0.04371383 1.52200626
v -0.23829621 0.00000000 1.52200626
v 0.23829621 0.00000000 1.52200626
v 0.22846956 -0.04371383 1.52200626
v 0.14739971 -0.12385585 1.52200626
v -0.13399951 -0.12385585 1.65697271
v -0.20769925 -0.04371383 1.65697271
v -0.21663255 0.00000000 1.65697271
v 0.21663255 0.00000000 1.65697271
v 0.20769925 -0.04371383 1.65697271
v 0.13399951 -0.12385585 1.65697271
v -0.11774750 -0.12385585 1.79193916
v -0.18250863 -0.04371383 1.79193916
v -0.19035846 0.00000000 1.79193916
v 0.19035846 0.00000000 1.79193916
v 0.18250863 -0.04371383 1.79193916
v 0.11774750 -0.12385585 1.79193916
v -0.09907773 -0.12385585 1.92690560
v -0.15357047 -0.04371383 1.92690560
v -0.16017566 0.00000000 1.92690560
v 0.16017566 0.00000000 1.92690560
v 0.15357047 -0.04371383 1.92690560
v 0.09907773 -0.12385585 1.92690560
v -0.07827053 -0.12385585 2.06187205
v -0.12131931 -0.04371383 2.06187205
v -0.12653734 0.00000000 2.06187205
v 0.12653734 0.00000000 2.06187205
v 0.12131931 -0.04371383 2.06187205
v 0.07827053 -0.12385585 2.06187205
v -0.05552647 -0.12385585 2.19683850
v -0.08606605 -0.04371383 2.19683850
v -0.08976781 0.00000000 2.19683850
v 0.08976781 0.00000000 2.19683850
v 0.08606605 -0.04371383 2.19683850
v 0.05552647 -0.12385585 2.19683850
v -0.03099838 -0.12385585 2.33180495
v -0.04804749 -0.04371383 2.33180495
v -0.05011404 0.00000000 2.33180495
v 0.05011404 0.00000000 2.33180495
v 0.04804749 -0.04371383 2.33180495
v 0.03099838 -0.12385585 2.33180495
v -0.00480765 -0.12385585 2.46677140
v -0.00745185 -0.04371383 2.46677140
v -0.00777236 0.00000000 2.46677140
v 0.00777236 0.00000000 2.46677140
v 0.00745185 -0.04371383 2.46677140
v 0.00480765 -0.12385585 2.46677140
f 229 230 224
f 229 224 223
f 230 231 225
f 230 225 224
f 231 232 226
f 231 226 225
f 232 233 227
f 232 227 226
f 233 234 228
f 233 228 227
f 234 229 223
f 234 223 228
f 235 236 230
f 235 230 229
f 236 237 231
f 236 231 230
f 237 238 232
f 237 232 231
f 238 239 233
f 238 233 232
f 239 240 234
f 239 234 233
f 240 235 229
f 240 229 234
f 241 242 236
f 241 236 235
f 242 243 237
f 242 237 236
f 243 244 238
f 243 238 237
f 244 245 239
f 244 239 238
f 245 246 240
f 245 240 239
f 246 241 235
f 246 235 240
f 247 248 242
f 247 242 241
f 248 249 243
f 248 243 242
f 249 250 244
f 249 244 243
f 250 251 245
f 250 245 244
f 251 252 246
f 251 246 245
f 252 247 241
f 252 241 246
f 253 254 248
f 253 248 247
f 254 255 249
f 254 249 248
f 255 256 250
f 255 250 249
f 256 257 251
f 256 251 250
f 257 258 252
f 257 252 251
f 258 253 247
f 258 247 252
f 259 260 254
f 259 254 253
f 260 261 255
f 260 255 254
f 261 262 256
f 261 256 255
f 262 263 257
f 262 257 256
f 263 264 258
f 263 258 257
f 264 259 253
f 264 253 258
f 265 266 260
f 265 260 259
f 266 267 261
f 266 261 260
f 267 268 262
f 267 262 261
f 268 269 263
f 268 263 262
f 269 270 264
f 269 264 263
f 270 265 259
f 270 259 264
f 271 272 266
f 271 266 265
f 272 273 267
f 272 267 266
f 273 274 268
f 273 268 267
f 274 275 269
f 274 269 268
f 275 276 270
f 275 270 269
f 276 271 265
f 276 265 270
f 277 278 272
f 277 272 271
f 278 279 273
f 278 273 272
f 279 280 274
f 279 274 273
f 280 281 275
f 280 275 274
f 281 282 276
f 281 276 275
f 282 277 271
f 282 271 276
f 283 284 278
f 283 278 277
f 284 285 279
f 284 279 278
f 285 286 280
f 285 280 279
f 286 287 281
f 286 281 280
f 287 288 282
f 287 282 281
f 288 283 277
f 288 277 282
f 289 290 284
f 289 284 283
f 290 291 285
f 290 285 284
f 291 292 286
f 291 286 285
f 292 293 287
f 292 287 286
f 293 294 288
f 293 288 287
f 294 289 283
f 294 283 288
f 295 296 290
f 295 290 289
f 296 297 291
f 296 291 290
f 297 298 292
f 297 292 291
f 298 299 293
f 298 293 292
f 299 300 294
f 299 294 293
f 300 295 289
f 300 289 294
f 301 302 296
f 301 296 295
f 302 303 297
f 302 297 296
f 303 304 298
f 303 298 297
f 304 305 299
f 304 299 298
f 305 306 300
f 305 300 299
f 306 301 295
f 306 295 300
f 307 308 302
f 307 302 301
f 308 309 303
f 308 303 302
f 309 310 304
f 309 304 303
f 310 311 305
f 310 305 304
f 311 312 306
f 311 306 305
f 312 307 301
f 312 301 306
f 313 314 308
f 313 308 307
f 314 315 309
f 314 309 308
f 315 316 310
f 315 310 309
f 316 317 311
f 316 311 310
f 317 318 312
f 317 312 311
f 318 313 307
f 318 307 312
f 319 320 314
f 319 314 313
f 320 321 315
f 320 315 314
f 321 322 316
f 321 316 315
f 322 323 317
f 322 317 316
f 323 324 318
f 323 318 317
f 324 319 313
f 324 313 318
f 325 326 320
f 325 320 319
f 326 327 321
f 326 321 320
f 327 328 322
f 327 322 321
f 328 329 323
f 328 323 322
f 329 330 324
f 329 324 323
f 330 325 319
f 330 319 324
f 331 332 326
f 331 326 325
f 332 333 327
f 332 327 326
f 333 334 328
f 333 328 327
f 334 335 329
f 334 329 328
f 335 336 330
f 335 330 329
f 336 331 325
f 336 325 330
f 337 338 332
f 337 332 331
f 338 339 333
f 338 333 332
f 339 340 334
f 339 334 333
f 340 341 335
f 340 335 334
f 341 342 336
f 341 336 335
f 342 337 331
f 342 331 336
f 343 344 338
f 343 338 337
f 344 345 339
f 344 339 338
f 345 346 340
f 345 340 339
f 346 347 341
f 346 341 340
f 347 348 342
f 347 342 341
f 348 343 337
f 348 337 342
f 349 350 344
f 349 344 343
f 350 351 345
f 350 345 344
f 351 352 346
f 351 346 345
f 352 353 347
f 352 347 346
f 353 354 348
f 353 348 347
f 354 349 343
f 354 343 348
f 355 356 350
f 355 350 349
f 356 357 351
f 356 351 350
f 357 358 352
f 357 352 351
f 358 359 353
f 358 353 352
f 359 360 354
f 359 354 353
f 360 355 349
f 360 349 354
f 361 362 356
f 361 356 355
f 362 363 357
f 362 357 356
f 363 364 358
f 363 358 357
f 364 365 359
f 364 359 358
f 365 366 360
f 365 360 359
f 366 361 355
f 366 355 360
f 367 368 362
f 367 362 361
f 368 369 363
f 368 363 362
f 369 370 364
f 369 364 363
f 370 371 365
f 370 365 364
f 371 372 366
f 371 366 365
f 372 367 361
f 372 361 366
f 373 374 368
f 373 368 367
f 374 375 369
f 374 369 368
f 375 376 370
f 375 370 369
f 376 377 371
f 376 371 370
f 377 378 372
f 377 372 371
f 378 373 367
f 378 367 372
f 379 380 374
f 379 374 373
f 380 381 375
f 380 375 374
f 381 382 376
f 381 376 375
f 382 383 377
f 382 377 376
f 383 384 378
f 383 378 377
f 384 379 373
f 384 373 378
f 385 386 380
f 385 380 379
f 386 387 381
f 386 381 380
f 387 388 382
f 387 382 381
f 388 389 383
f 388 383 382
f 389 390 384
f 389 384 383
f 390 385 379
f 390 379 384
f 391 392 386
f 391 386 385
f 392 393 387
f 392 387 386
f 393 394 388
f 393 388 387
f 394 395 389
f 394 389 388
f 395 396 390
f 395 390 389
f 396 391 385
f 396 385 390
f 397 398 392
f 397 392 391
f 398 399 393
f 398 393 392
f 399 400 394
f 399 394 393
f 400 401 395
f 400 395 394
f 401 402 396
f 401 396 395
f 402 397 391
f 402 391 396
f 403 404 398
f 403 398 397
f 404 405 399
f 404 399 398
f 405 406 400
f 405 400 399
f 406 407 401
f 406 401 400
f 407 408 402
f 407 402 401
f 408 403 397
f 408 397 402
f 409 410 404
f 409 404 403
f 410 411 405
f 410 405 404
f 411 412 406
f 411 406 405
f 412 413 407
f 412 407 406
f 413 414 408
f 413 408 407
f 414 409 403
f 414 403 408
f 415 416 410
f 415 410 409
f 416 417 411
f 416 411 410
f 417 418 412
f 417 412 411
f 418 419 413
f 418 413 412
f 419 420 414
f 419 414 413
f 420 415 409
f 420 409 414
f 421 422 416
f 421 416 415
f 422 423 417
f 422 417 416
f 423 424 418
f 423 418 417
f 424 425 419
f 424 419 418
f 425 426 420
f 425 420 419
f 426 421 415
f 426 415 420
f 427 428 422
f 427 422 421
f 428 429 423
f 428 423 422
f 429 430 424
f 429 424 423
f 430 431 425
f 430 425 424
f 431 432 426
f 431 426 425
f 432 427 421
f 432 421 426
f 433 434 428
f 433 428 427
f 434 435 429
f 434 429 428
f 435 436 430
f 435 430 429
f 436 437 431
f 436 431 430
f 437 438 432
f 437 432 431
f 438 433 427
f 438 427 432
f 439 440 434
f 439 434 433
f 440 441 435
f 440 435 434
f 441 442 436
f 441 436 435
f 442 443 437
f 442 437 436
f 443 444 438
f 443 438 437
f 444 439 433
f 444 433 438
f 223 224 225
f 223 225 226
f 223 226 227
f 223 227 228
f 444 443 442
f 444 442 441
f 444 441 440
f 444 440 439
o FlightDeck
usemtl deck
v -0.40916144 0.27685425 -2.49168828
v 0.39779585 0.27685425 -2.49168828
v 0.55691419 0.27685425 -1.89368309
v 0.55691419 0.27685425 1.49501297
v 0.43189264 0.27685425 2.49168828
v -0.38643025 0.27685425 2.49168828
v -0.54554859 0.27685425 1.54484673
v -0.62510776 0.27685425 -0.59800519
v -0.61374217 0.27685425 -1.59468050
v -0.40916144 0.29142553 -2.49168828
v 0.39779585 0.29142553 -2.49168828
v 0.55691419 0.29142553 -1.89368309
v 0.55691419 0.29142553 1.49501297
v 0.43189264 0.29142553 2.49168828
v -0.38643025 0.29142553 2.49168828
v -0.54554859 0.29142553 1.54484673
v -0.62510776 0.29142553 -0.59800519
v -0.61374217 0.29142553 -1.59468050
f 453 445 446
f 453 446 447
f 453 447 448
f 453 448 449
f 453 449 450
f 453 450 451
f 451 452 453
f 455 454 462
f 456 455 462
f 457 456 462
f 458 457 462
f 459 458 462
f 460 459 462
f 462 461 460
f 445 454 455
f 445 455 446
f 446 455 456
f 446 456 447
f 447 456 457
f 447 457 448
f 448 457 458
f 448 458 449
f 449 458 459
f 449 459 450
f 450 459 460
f 450 460 451
f 451 460 461
f 451 461 452
f 452 461 462
f 452 462 453
f 453 462 454
f 453 454 445
o Island
usemtl island
v 0.34665067 0.29142553 -0.89700778
v 0.48303782 0.29142553 -0.89700778
v 0.48303782 0.40799574 -0.89700778
v 0.34665067 0.40799574 -0.89700778
v 0.34665067 0.29142553 0.09966753
v 0.48303782 0.29142553 0.09966753
v 0.48303782 0.40799574 0.09966753
v 0.34665067 0.40799574 0.09966753
f 463 466 465
f 463 465 464
f 467 468 469
f 467 469 470
f 463 464 468
f 463 468 467
f 466 470 469
f 466 469 465
f 463 467 470
f 463 470 466
f 464 465 469
f 464 469 468
o Bridge
usemtl island
v 0.30687108 0.40799574 -0.42358701
v 0.48872061 0.40799574 -0.42358701
v 0.48872061 0.46628085 -0.42358701
v 0.30687108 0.46628085 -0.42358701
v 0.30687108 0.40799574 -0.02491688
v 0.48872061 0.40799574 -0.02491688
v 0.48872061 0.46628085 -0.02491688
v 0.30687108 0.46628085 -0.02491688
f 471 474 473
f 471 473 472
f 475 476 477
f 475 477 478
f 471 472 476
f 471 476 475
f 474 478 477
f 474 477 473
f 471 475 478
f 471 478 474
f 472 473 477
f 472 477 476
o BridgeGlass
usemtl glass
v 0.30464168 0.42475271 -0.39867012
v 0.30682737 0.42475271 -0.39867012
v 0.30682737 0.44952388 -0.39867012
v 0.30464168 0.44952388 -0.39867012
v 0.30464168 0.42475271 -0.04983377
v 0.30682737 0.42475271 -0.04983377
v 0.30682737 0.44952388 -0.04983377
v 0.30464168 0.44952388 -0.04983377
f 479 482 481
f 479 481 480
f 483 484 485
f 483 485 486
f 479 480 484
f 479 484 483
f 482 486 485
f 482 485 481
f 479 483 486
f 479 486 482
f 480 481 485
f 480 485 484
o Mast
usemtl island
v 0.43232977 0.46628085 -0.45695523
v 0.43099876 0.46628085 -0.45026381
v 0.42720838 0.46628085 -0.44459109
v 0.42153566 0.46628085 -0.44080071
v 0.41484424 0.46628085 -0.43946970
v 0.40815282 0.46628085 -0.44080071
v 0.40248011 0.46628085 -0.44459109
v 0.39868972 0.46628085 -0.45026381
v 0.39735871 0.46628085 -0.45695523
v 0.39868972 0.46628085 -0.46364665
v 0.40248011 0.46628085 -0.46931937
v 0.40815282 0.46628085 -0.47310975
v 0.41484424 0.46628085 -0.47444076
v 0.42153566 0.46628085 -0.47310975
v 0.42720838 0.46628085 -0.46931937
v 0.43099876 0.46628085 -0.46364665
v 0.43232977 0.67027872 -0.45695523
v 0.43099876 0.67027872 -0.45026381
v 0.42720838 0.67027872 -0.44459109
v 0.42153566 0.67027872 -0.44080071
v 0.41484424 0.67027872 -0.43946970
v 0.40815282 0.67027872 -0.44080071
v 0.40248011 0.67027872 -0.44459109
v 0.39868972 0.67027872 -0.45026381
v 0.39735871 0.67027872 -0.45695523
v 0.39868972 0.67027872 -0.46364665
v 0.40248011 0.67027872 -0.46931937
v 0.40815282 0.67027872 -0.47310975
v 0.41484424 0.67027872 -0.47444076
v 0.42153566 0.67027872 -0.47310975
v 0.42720838 0.67027872 -0.46931937
v 0.43099876 0.67027872 -0.46364665
f 502 487 488
f 502 488 489
f 502 489 490
f 502 490 491
f 502 491 492
f 502 492 493
f 502 493 494
f 502 494 495
f 502 495 496
f 502 496 497
f 502 497 498
f 502 498 499
f 502 499 500
f 500 501 502
f 504 503 518
f 505 504 518
f 506 505 518
f 507 506 518
f 508 507 518
f 509 508 518
f 510 509 518
f 511 510 518
f 512 511 518
f 513 512 518
f 514 513 518
f 515 514 518
f 516 515 518
f 518 517 516
f 487 503 504
f 487 504 488
f 488 504 505
f 488 505 489
f 489 505 506
f 489 506 490
f 490 506 507
f 490 507 491
f 491 507 508
f 491 508 492
f 492 508 509
f 492 509 493
f 493 509 510
f 493 510 494
f 494 510 511
f 494 511 495
f 495 511 512
f 495 512 496
f 496 512 513
f 496 513 497
f 497 513 514
f 497 514 498
f 498 514 515
f 498 515 499
f 499 515 516
f 499 516 500
f 500 516 517
f 500 517 501
f 501 517 518
f 501 518 502
f 502 518 503
f 502 503 487
o AirRadar
usemtl dark
v 0.32960227 0.66299308 -0.46205518
v 0.50008621 0.66299308 -0.46205518
v 0.50008621 0.70670691 -0.46205518
v 0.32960227 0.70670691 -0.46205518
v 0.32960227 0.66299308 -0.45185528
v 0.50008621 0.66299308 -0.45185528
v 0.50008621 0.70670691 -0.45185528
v 0.32960227 0.70670691 -0.45185528
f 519 522 521
f 519 521 520
f 523 524 525
f 523 525 526
f 519 520 524
f 519 524 523
f 522 526 525
f 522 525 521
f 519 523 526
f 519 526 522
f 520 521 525
f 520 525 524
o SurfaceRadar
usemtl dark
v 0.35801626 0.57629399 -0.20297788
v 0.47167222 0.57629399 -0.20297788
v 0.47167222 0.58940813 -0.20297788
v 0.35801626 0.58940813 -0.20297788
v 0.35801626 0.57629399 -0.19569224
v 0.47167222 0.57629399 -0.19569224
v 0.47167222 0.58940813 -0.19569224
v 0.35801626 0.58940813 -0.19569224
f 527 530 529
f 527 529 528
f 531 532 533
f 531 533 534
f 527 528 532
f 527 532 531
f 530 534 533
f 530 533 529
f 527 531 534
f 527 534 530
f 528 529 533
f 528 533 532
o Elevator_1
usemtl hull
v 0.32348234 0.29142553 1.00046384
v 0.58576532 0.29142553 1.00046384
v 0.58576532 0.29375693 1.00046384
v 0.32348234 0.29375693 1.00046384
v 0.32348234 0.29142553 1.29188937
v 0.58576532 0.29142553 1.29188937
v 0.58576532 0.29375693 1.29188937
v 0.32348234 0.29375693 1.29188937
f 535 538 537
f 535 537 536
f 539 540 541
f 539 541 542
f 535 536 540
f 535 540 539
f 538 542 541
f 538 541 537
f 535 539 542
f 535 542 538
f 536 537 541
f 536 541 540
o Elevator_2
usemtl hull
v 0.32348234 0.29142553 -1.04272055
v 0.58576532 0.29142553 -1.04272055
v 0.58576532 0.29375693 -1.04272055
v 0.32348234 0.29375693 -1.04272055
v 0.32348234 0.29142553 -0.75129502
v 0.58576532 0.29142553 -0.75129502
v 0.58576532 0.29375693 -0.75129502
v 0.32348234 0.29375693 -0.75129502
f 543 546 545
f 543 545 544
f 547 548 549
f 547 549 550
f 543 544 548
f 543 548 547
f 546 550 549
f 546 549 545
f 543 547 550
f 543 550 546
f 544 545 549
f 544 549 548
o Elevator_3
usemtl hull
v 0.32348234 0.29142553 -1.84006080
v 0.58576532 0.29142553 -1.84006080
v 0.58576532 0.29375693 -1.84006080
v 0.32348234 0.29375693 -1.84006080
v 0.32348234 0.29142553 -1.54863527
v 0.58576532 0.29142553 -1.54863527
v 0.58576532 0.29375693 -1.54863527
v 0.32348234 0.29375693 -1.54863527
f 551 554 553
f 551 553 552
f 555 556 557
f 555 557 558
f 551 552 556
f 551 556 555
f 554 558 557
f 554 557 553
f 551 555 558
f 551 558 554
f 552 553 557
f 552 557 556
o Elevator_4
usemtl hull
v -0.60849651 0.29142553 -1.24205561
v -0.34621353 0.29142553 -1.24205561
v -0.34621353 0.29375693 -1.24205561
v -0.60849651 0.29375693 -1.24205561
v -0.60849651 0.29142553 -0.95063008
v -0.34621353 0.29142553 -0.95063008
v -0.34621353 0.29375693 -0.95063008
v -0.60849651 0.29375693 -0.95063008
f 559 562 561
f 559 561 560
f 563 564 565
f 563 565 566
f 559 560 564
f 559 564 563
f 562 566 565
f 562 565 561
f 559 563 566
f 559 566 562
f 560 561 565
f 560 565 564
o Catapult_1
usemtl gold
v 0.15401865 0.29302837 1.19606223
v 0.16567568 0.29302837 2.34223884
v 0.17587505 0.29302837 2.34213513
v 0.16421802 0.29302837 1.19595852
v 0.15401865 0.29361122 1.19606223
v 0.16567568 0.29361122 2.34223884
v 0.17587505 0.29361122 2.34213513
v 0.16421802 0.29361122 1.19595852
f 567 570 569
f 569 568 567
f 573 574 571
f 571 572 573
f 568 572 571
f 568 571 567
f 569 573 572
f 569 572 568
f 570 574 573
f 570 573 569
f 567 571 574
f 567 574 570
o Catapult_2
usemtl gold
v -0.17558362 0.29302837 1.19606223
v -0.16392660 0.29302837 2.34223884
v -0.15372723 0.29302837 2.34213513
v -0.16538425 0.29302837 1.19595852
v -0.17558362 0.29361122 1.19606223
v -0.16392660 0.29361122 2.34223884
v -0.15372723 0.29361122 2.34213513
v -0.16538425 0.29361122 1.19595852
f 575 578 577
f 577 576 575
f 581 582 579
f 579 580 581
f 576 580 579
f 576 579 575
f 577 581 580
f 577 580 576
f 578 582 581
f 578 581 577
f 575 579 582
f 575 582 578
o Catapult_3
usemtl gold
v -0.34606755 0.29302837 -0.49828580
v -0.33441053 0.29302837 0.64789081
v -0.32421116 0.29302837 0.64778709
v -0.33586819 0.29302837 -0.49838952
v -0.34606755 0.29361122 -0.49828580
v -0.33441053 0.29361122 0.64789081
v -0.32421116 0.29361122 0.64778709
v -0.33586819 0.29361122 -0.49838952
f 583 586 585
f 585 584 583
f 589 590 587
f 587 588 589
f 584 588 587
f 584 587 583
f 585 589 588
f 585 588 584
f 586 590 589
f 586 589 585
f 583 587 590
f 583 590 586
o Catapult_4
usemtl gold
v -0.44835792 0.29302837 -0.49828580
v -0.43670089 0.29302837 0.64789081
v -0.42650153 0.29302837 0.64778709
v -0.43815855 0.29302837 -0.49838952
v -0.44835792 0.29361122 -0.49828580
v -0.43670089 0.29361122 0.64789081
v -0.42650153 0.29361122 0.64778709
v -0.43815855 0.29361122 -0.49838952
f 591 594 593
f 593 592 591
f 597 598 595
f 595 596 597
f 592 596 595
f 592 595 591
f 593 597 596
f 593 596 592
f 594 598 597
f 594 597 593
f 591 595 598
f 591 598 594
o LandingEdge_-1
usemtl white
v -0.04026951 0.29317408 -2.19295530
v -0.51762453 0.29317408 0.99640570
v -0.51402184 0.29317408 0.99694492
v -0.03666683 0.29317408 -2.19241608
v -0.04026951 0.29375693 -2.19295530
v -0.51762453 0.29375693 0.99640570
v -0.51402184 0.29375693 0.99694492
v -0.03666683 0.29375693 -2.19241608
f 599 602 601
f 601 600 599
f 605 606 603
f 603 604 605
f 600 604 603
f 600 603 599
f 601 605 604
f 601 604 600
f 602 606 605
f 602 605 601
f 599 603 606
f 599 606 602
o LandingEdge_1
usemtl white
v 0.30944112 0.29317408 -2.19295530
v -0.16791390 0.29317408 0.99640570
v -0.16431121 0.29317408 0.99694492
v 0.31304381 0.29317408 -2.19241608
v 0.30944112 0.29375693 -2.19295530
v -0.16791390 0.29375693 0.99640570
v -0.16431121 0.29375693 0.99694492
v 0.31304381 0.29375693 -2.19241608
f 607 610 609
f 609 608 607
f 613 614 611
f 611 612 613
f 608 612 611
f 608 611 607
f 609 613 612
f 609 612 608
f 610 614 613
f 610 613 609
f 607 611 614
f 607 614 610
o Centreline_0
usemtl white
v 0.13386527 0.29331980 -2.19306314
v 0.11852171 0.29331980 -2.09054796
v 0.12356547 0.29331980 -2.08979307
v 0.13890903 0.29331980 -2.19230823
v 0.13386527 0.29390265 -2.19306314
v 0.11852171 0.29390265 -2.09054796
v 0.12356547 0.29390265 -2.08979307
v 0.13890903 0.29390265 -2.19230823
f 615 618 617
f 617 616 615
f 621 622 619
f 619 620 621
f 616 620 619
f 616 619 615
f 617 621 620
f 617 620 616
f 618 622 621
f 618 621 617
f 615 619 622
f 615 622 618
o Centreline_1
usemtl white
v 0.09976848 0.29331980 -1.96525164
v 0.08442493 0.29331980 -1.86273647
v 0.08946869 0.29331980 -1.86198156
v 0.10481224 0.29331980 -1.96449673
v 0.09976848 0.29390265 -1.96525164
v 0.08442493 0.29390265 -1.86273647
v 0.08946869 0.29390265 -1.86198156
v 0.10481224 0.29390265 -1.96449673
f 623 626 625
f 625 624 623
f 629 630 627
f 627 628 629
f 624 628 627
f 624 627 623
f 625 629 628
f 625 628 624
f 626 630 629
f 626 629 625
f 623 627 630
f 623 630 626
o Centreline_2
usemtl white
v 0.06567169 0.29331980 -1.73744013
v 0.05032814 0.29331980 -1.63492497
v 0.05537190 0.29331980 -1.63417006
v 0.07071545 0.29331980 -1.73668524
v 0.06567169 0.29390265 -1.73744013
v 0.05032814 0.29390265 -1.63492497
v 0.05537190 0.29390265 -1.63417006
v 0.07071545 0.29390265 -1.73668524
f 631 634 633
f 633 632 631
f 637 638 635
f 635 636 637
f 632 636 635
f 632 635 631
f 633 637 636
f 633 636 632
f 634 638 637
f 634 637 633
f 631 635 638
f 631 638 634
o Centreline_3
usemtl white
v 0.03157491 0.29331980 -1.50962864
v 0.01623135 0.29331980 -1.40711346
v 0.02127511 0.29331980 -1.40635855
v 0.03661867 0.29331980 -1.50887374
v 0.03157491 0.29390265 -1.50962864
v 0.01623135 0.29390265 -1.40711346
v 0.02127511 0.29390265 -1.40635855
v 0.03661867 0.29390265 -1.50887374
f 639 642 641
f 641 640 639
f 645 646 643
f 643 644 645
f 640 644 643
f 640 643 639
f 641 645 644
f 641 644 640
f 642 646 645
f 642 645 641
f 639 643 646
f 639 646 642
o Centreline_4
usemtl white
v -0.00252188 0.29331980 -1.28181714
v -0.01786543 0.29331980 -1.17930196
v -0.01282167 0.29331980 -1.17854706
v 0.00252188 0.29331980 -1.28106223
v -0.00252188 0.29390265 -1.28181714
v -0.01786543 0.29390265 -1.17930196
v -0.01282167 0.29390265 -1.17854706
v 0.00252188 0.29390265 -1.28106223
f 647 650 649
f 649 648 647
f 653 654 651
f 651 652 653
f 648 652 651
f 648 651 647
f 649 653 652
f 649 652 648
f 650 654 653
f 650 653 649
f 647 651 654
f 647 654 650
o Centreline_5
usemtl white
v -0.03661867 0.29331980 -1.05400564
v -0.05196222 0.29331980 -0.95149047
v -0.04691846 0.29331980 -0.95073556
v -0.03157491 0.29331980 -1.05325074
v -0.03661867 0.29390265 -1.05400564
v -0.05196222 0.29390265 -0.95149047
v -0.04691846 0.29390265 -0.95073556
v -0.03157491 0.29390265 -1.05325074
f 655 658 657
f 657 656 655
f 661 662 659
f 659 660 661
f 656 660 659
f 656 659 655
f 657 661 660
f 657 660 656
f 658 662 661
f 658 661 657
f 655 659 662
f 655 662 658
o Centreline_6
usemtl white
v -0.07071545 0.29331980 -0.82619415
v -0.08605901 0.29331980 -0.72367896
v -0.08101525 0.29331980 -0.72292406
v -0.06567169 0.29331980 -0.82543924
v -0.07071545 0.29390265 -0.82619415
v -0.08605901 0.29390265 -0.72367896
v -0.08101525 0.29390265 -0.72292406
v -0.06567169 0.29390265 -0.82543924
f 663 666 665
f 665 664 663
f 669 670 667
f 667 668 669
f 664 668 667
f 664 667 663
f 665 669 668
f 665 668 664
f 666 670 669
f 666 669 665
f 663 667 670
f 663 670 666
o Centreline_7
usemtl white
v -0.10481224 0.29331980 -0.59838264
v -0.12015580 0.29331980 -0.49586746
v -0.11511204 0.29331980 -0.49511257
v -0.09976848 0.29331980 -0.59762773
v -0.10481224 0.29390265 -0.59838264
v -0.12015580 0.29390265 -0.49586746
v -0.11511204 0.29390265 -0.49511257
v -0.09976848 0.29390265 -0.59762773
f 671 674 673
f 673 672 671
f 677 678 675
f 675 676 677
f 672 676 675
f 672 675 671
f 673 677 676
f 673 676 672
f 674 678 677
f 674 677 673
f 671 675 678
f 671 678 674
o Centreline_8
usemtl white
v -0.13890903 0.29331980 -0.37057114
v -0.15425258 0.29331980 -0.26805597
v -0.14920882 0.29331980 -0.26730106
v -0.13386527 0.29331980 -0.36981623
v -0.13890903 0.29390265 -0.37057114
v -0.15425258 0.29390265 -0.26805597
v -0.14920882 0.29390265 -0.26730106
v -0.13386527 0.29390265 -0.36981623
f 679 682 681
f 681 680 679
f 685 686 683
f 683 684 685
f 680 684 683
f 680 683 679
f 681 685 684
f 681 684 680
f 682 686 685
f 682 685 681
f 679 683 686
f 679 686 682
o Centreline_9
usemtl white
v -0.17300581 0.29331980 -0.14275963
v -0.18834937 0.29331980 -0.04024447
v -0.18330561 0.29331980 -0.03948956
v -0.16796206 0.29331980 -0.14200474
v -0.17300581 0.29390265 -0.14275963
v -0.18834937 0.29390265 -0.04024447
v -0.18330561 0.29390265 -0.03948956
v -0.16796206 0.29390265 -0.14200474
f 687 690 689
f 689 688 687
f 693 694 691
f 691 692 693
f 688 692 691
f 688 691 687
f 689 693 692
f 689 692 688
f 690 694 693
f 690 693 689
f 687 691 694
f 687 694 690
o Centreline_10
usemtl white
v -0.20710260 0.29331980 0.08505186
v -0.22244616 0.29331980 0.18756704
v -0.21740240 0.29331980 0.18832195
v -0.20205884 0.29331980 0.08580676
v -0.20710260 0.29390265 0.08505186
v -0.22244616 0.29390265 0.18756704
v -0.21740240 0.29390265 0.18832195
v -0.20205884 0.29390265 0.08580676
f 695 698 697
f 697 696 695
f 701 702 699
f 699 700 701
f 696 700 699
f 696 699 695
f 697 701 700
f 697 700 696
f 698 702 701
f 698 701 697
f 695 699 702
f 695 702 698
o Centreline_11
usemtl white
v -0.24119939 0.29331980 0.31286336
v -0.25654294 0.29331980 0.41537854
v -0.25149918 0.29331980 0.41613344
v -0.23615563 0.29331980 0.31361827
v -0.24119939 0.29390265 0.31286336
v -0.25654294 0.29390265 0.41537854
v -0.25149918 0.29390265 0.41613344
v -0.23615563 0.29390265 0.31361827
f 703 706 705
f 705 704 703
f 709 710 707
f 707 708 709
f 704 708 707
f 704 707 703
f 705 709 708
f 705 708 704
f 706 710 709
f 706 709 705
f 703 707 710
f 703 710 706
o Centreline_12
usemtl white
v -0.27529618 0.29331980 0.54067486
v -0.29063973 0.29331980 0.64319003
v -0.28559597 0.29331980 0.64394494
v -0.27025242 0.29331980 0.54142976
v -0.27529618 0.29390265 0.54067486
v -0.29063973 0.29390265 0.64319003
v -0.28559597 0.29390265 0.64394494
v -0.27025242 0.29390265 0.54142976
f 711 714 713
f 713 712 711
f 717 718 715
f 715 716 717
f 712 716 715
f 712 715 711
f 713 717 716
f 713 716 712
f 714 718 717
f 714 717 713
f 711 715 718
f 711 718 714
o Centreline_13
usemtl white
v -0.30939296 0.29331980 0.76848635
v -0.32473652 0.29331980 0.87100154
v -0.31969276 0.29331980 0.87175644
v -0.30434920 0.29331980 0.76924126
v -0.30939296 0.29390265 0.76848635
v -0.32473652 0.29390265 0.87100154
v -0.31969276 0.29390265 0.87175644
v -0.30434920 0.29390265 0.76924126
f 719 722 721
f 721 720 719
f 725 726 723
f 723 724 725
f 720 724 723
f 720 723 719
f 721 725 724
f 721 724 720
f 722 726 725
f 722 725 721
f 719 723 726
f 719 726 722
o Sponson_1
usemtl hull
v -0.59654806 0.26374010 1.32248905
v -0.49454912 0.26374010 1.32248905
v -0.49454912 0.28413989 1.32248905
v -0.59654806 0.28413989 1.32248905
v -0.59654806 0.26374010 1.46820182
v -0.49454912 0.26374010 1.46820182
v -0.49454912 0.28413989 1.46820182
v -0.59654806 0.28413989 1.46820182
f 727 730 729
f 727 729 728
f 731 732 733
f 731 733 734
f 727 728 732
f 727 732 731
f 730 734 733
f 730 733 729
f 727 731 734
f 727 734 730
f 728 729 733
f 728 733 732
o AA_Base_1
usemtl island
v -0.51932029 0.28413989 1.39534544
v -0.52131681 0.28413989 1.40538257
v -0.52700239 0.28413989 1.41389164
v -0.53551146 0.28413989 1.41957722
v -0.54554859 0.28413989 1.42157374
v -0.55558572 0.28413989 1.41957722
v -0.56409480 0.28413989 1.41389164
v -0.56978038 0.28413989 1.40538257
v -0.57177689 0.28413989 1.39534544
v -0.56978038 0.28413989 1.38530831
v -0.56409480 0.28413989 1.37679923
v -0.55558572 0.28413989 1.37111365
v -0.54554859 0.28413989 1.36911714
v -0.53551146 0.28413989 1.37111365
v -0.52700239 0.28413989 1.37679923
v -0.52131681 0.28413989 1.38530831
v -0.51932029 0.31328244 1.39534544
v -0.52131681 0.31328244 1.40538257
v -0.52700239 0.31328244 1.41389164
v -0.53551146 0.31328244 1.41957722
v -0.54554859 0.31328244 1.42157374
v -0.55558572 0.31328244 1.41957722
v -0.56409480 0.31328244 1.41389164
v -0.56978038 0.31328244 1.40538257
v -0.57177689 0.31328244 1.39534544
v -0.56978038 0.31328244 1.38530831
v -0.56409480 0.31328244 1.37679923
v -0.55558572 0.31328244 1.37111365
v -0.54554859 0.31328244 1.36911714
v -0.53551146 0.31328244 1.37111365
v -0.52700239 0.31328244 1.37679923
v -0.52131681 0.31328244 1.38530831
f 750 735 736
f 750 736 737
f 750 737 738
f 750 738 739
f 750 739 740
f 750 740 741
f 750 741 742
f 750 742 743
f 750 743 744
f 750 744 745
f 750 745 746
f 750 746 747
f 750 747 748
f 748 749 750
f 752 751 766
f 753 752 766
f 754 753 766
f 755 754 766
f 756 755 766
f 757 756 766
f 758 757 766
f 759 758 766
f 760 759 766
f 761 760 766
f 762 761 766
f 763 762 766
f 764 763 766
f 766 765 764
f 735 751 752
f 735 752 736
f 736 752 753
f 736 753 737
f 737 753 754
f 737 754 738
f 738 754 755
f 738 755 739
f 739 755 756
f 739 756 740
f 740 756 757
f 740 757 741
f 741 757 758
f 741 758 742
f 742 758 759
f 742 759 743
f 743 759 760
f 743 760 744
f 744 760 761
f 744 761 745
f 745 761 762
f 745 762 746
f 746 762 763
f 746 763 747
f 747 763 764
f 747 764 748
f 748 764 765
f 748 765 749
f 749 765 766
f 749 766 750
f 750 766 751
f 750 751 735
o AA_Gun_1_-1
usemtl dark
v -0.55174138 0.30708965 1.37348852
v -0.54809857 0.30708965 1.37348852
v -0.54809857 0.31073247 1.37348852
v -0.55174138 0.31073247 1.37348852
v -0.55174138 0.30708965 1.41720235
v -0.54809857 0.30708965 1.41720235
v -0.54809857 0.31073247 1.41720235
v -0.55174138 0.31073247 1.41720235
f 767 770 769
f 767 769 768
f 771 772 773
f 771 773 774
f 767 768 772
f 767 772 771
f 770 774 773
f 770 773 769
f 767 771 774
f 767 774 770
f 768 769 773
f 768 773 772
o AA_Gun_1_1
usemtl dark
v -0.54299862 0.30708965 1.37348852
v -0.53935580 0.30708965 1.37348852
v -0.53935580 0.31073247 1.37348852
v -0.54299862 0.31073247 1.37348852
v -0.54299862 0.30708965 1.41720235
v -0.53935580 0.30708965 1.41720235
v -0.53935580 0.31073247 1.41720235
v -0.54299862 0.31073247 1.41720235
f 775 778 777
f 775 777 776
f 779 780 781
f 779 781 782
f 775 776 780
f 775 780 779
f 778 782 781
f 778 781 777
f 775 779 782
f 775 782 778
f 776 777 781
f 776 781 780
o Sponson_2
usemtl hull
v 0.47181793 0.26374010 1.32248905
v 0.57381687 0.26374010 1.32248905
v 0.57381687 0.28413989 1.32248905
v 0.47181793 0.28413989 1.32248905
v 0.47181793 0.26374010 1.46820182
v 0.57381687 0.26374010 1.46820182
v 0.57381687 0.28413989 1.46820182
v 0.47181793 0.28413989 1.46820182
f 783 786 785
f 783 785 784
f 787 788 789
f 787 789 790
f 783 784 788
f 783 788 787
f 786 790 789
f 786 789 785
f 783 787 790
f 783 790 786
f 784 785 789
f 784 789 788
o AA_Base_2
usemtl island
v 0.54904570 0.28413989 1.39534544
v 0.54704919 0.28413989 1.40538257
v 0.54136360 0.28413989 1.41389164
v 0.53285453 0.28413989 1.41957722
v 0.52281740 0.28413989 1.42157374
v 0.51278027 0.28413989 1.41957722
v 0.50427120 0.28413989 1.41389164
v 0.49858562 0.28413989 1.40538257
v 0.49658910 0.28413989 1.39534544
v 0.49858562 0.28413989 1.38530831
v 0.50427120 0.28413989 1.37679923
v 0.51278027 0.28413989 1.37111365
v 0.52281740 0.28413989 1.36911714
v 0.53285453 0.28413989 1.37111365
v 0.54136360 0.28413989 1.37679923
v 0.54704919 0.28413989 1.38530831
v 0.54904570 0.31328244 1.39534544
v 0.54704919 0.31328244 1.40538257
v 0.54136360 0.31328244 1.41389164
v 0.53285453 0.31328244 1.41957722
v 0.52281740 0.31328244 1.42157374
v 0.51278027 0.31328244 1.41957722
v 0.50427120 0.31328244 1.41389164
v 0.49858562 0.31328244 1.40538257
v 0.49658910 0.31328244 1.39534544
v 0.49858562 0.31328244 1.38530831
v 0.50427120 0.31328244 1.37679923
v 0.51278027 0.31328244 1.37111365
v 0.52281740 0.31328244 1.36911714
v 0.53285453 0.31328244 1.37111365
v 0.54136360 0.31328244 1.37679923
v 0.54704919 0.31328244 1.38530831
f 806 791 792
f 806 792 793
f 806 793 794
f 806 794 795
f 806 795 796
f 806 796 797
f 806 797 798
f 806 798 799
f 806 799 800
f 806 800 801
f 806 801 802
f 806 802 803
f 806 803 804
f 804 805 806
f 808 807 822
f 809 808 822
f 810 809 822
f 811 810 822
f 812 811 822
f 813 812 822
f 814 813 822
f 815 814 822
f 816 815 822
f 817 816 822
f 818 817 822
f 819 818 822
f 820 819 822
f 822 821 820
f 791 807 808
f 791 808 792
f 792 808 809
f 792 809 793
f 793 809 810
f 793 810 794
f 794 810 811
f 794 811 795
f 795 811 812
f 795 812 796
f 796 812 813
f 796 813 797
f 797 813 814
f 797 814 798
f 798 814 815
f 798 815 799
f 799 815 816
f 799 816 800
f 800 816 817
f 800 817 801
f 801 817 818
f 801 818 802
f 802 818 819
f 802 819 803
f 803 819 820
f 803 820 804
f 804 820 821
f 804 821 805
f 805 821 822
f 805 822 806
f 806 822 807
f 806 807 791
o AA_Gun_2_-1
usemtl dark
v 0.51662461 0.30708965 1.37348852
v 0.52026743 0.30708965 1.37348852
v 0.52026743 0.31073247 1.37348852
v 0.51662461 0.31073247 1.37348852
v 0.51662461 0.30708965 1.41720235
v 0.52026743 0.30708965 1.41720235
v 0.52026743 0.31073247 1.41720235
v 0.51662461 0.31073247 1.41720235
f 823 826 825
f 823 825 824
f 827 828 829
f 827 829 830
f 823 824 828
f 823 828 827
f 826 830 829
f 826 829 825
f 823 827 830
f 823 830 826
f 824 825 829
f 824 829 828
o AA_Gun_2_1
usemtl dark
v 0.52536737 0.30708965 1.37348852
v 0.52901019 0.30708965 1.37348852
v 0.52901019 0.31073247 1.37348852
v 0.52536737 0.31073247 1.37348852
v 0.52536737 0.30708965 1.41720235
v 0.52901019 0.30708965 1.41720235
v 0.52901019 0.31073247 1.41720235
v 0.52536737 0.31073247 1.41720235
f 831 834 833
f 831 833 832
f 835 836 837
f 835 837 838
f 831 832 836
f 831 836 835
f 834 838 837
f 834 837 833
f 831 835 838
f 831 838 834
f 832 833 837
f 832 837 836
o Sponson_3
usemtl hull
v -0.55108568 0.26374010 -2.06620701
v -0.44908674 0.26374010 -2.06620701
v -0.44908674 0.28413989 -2.06620701
v -0.55108568 0.28413989 -2.06620701
v -0.55108568 0.26374010 -1.92049424
v -0.44908674 0.26374010 -1.92049424
v -0.44908674 0.28413989 -1.92049424
v -0.55108568 0.28413989 -1.92049424
f 839 842 841
f 839 841 840
f 843 844 845
f 843 845 846
f 839 840 844
f 839 844 843
f 842 846 845
f 842 845 841
f 839 843 846
f 839 846 842
f 840 841 845
f 840 845 844
o AA_Base_3
usemtl island
v -0.47385791 0.28413989 -1.99335062
v -0.47585442 0.28413989 -1.98331349
v -0.48154001 0.28413989 -1.97480442
v -0.49004908 0.28413989 -1.96911884
v -0.50008621 0.28413989 -1.96712233
v -0.51012334 0.28413989 -1.96911884
v -0.51863241 0.28413989 -1.97480442
v -0.52431799 0.28413989 -1.98331349
v -0.52631451 0.28413989 -1.99335062
v -0.52431799 0.28413989 -2.00338776
v -0.51863241 0.28413989 -2.01189683
v -0.51012334 0.28413989 -2.01758241
v -0.50008621 0.28413989 -2.01957892
v -0.49004908 0.28413989 -2.01758241
v -0.48154001 0.28413989 -2.01189683
v -0.47585442 0.28413989 -2.00338776
v -0.47385791 0.31328244 -1.99335062
v -0.47585442 0.31328244 -1.98331349
v -0.48154001 0.31328244 -1.97480442
v -0.49004908 0.31328244 -1.96911884
v -0.50008621 0.31328244 -1.96712233
v -0.51012334 0.31328244 -1.96911884
v -0.51863241 0.31328244 -1.97480442
v -0.52431799 0.31328244 -1.98331349
v -0.52631451 0.31328244 -1.99335062
v -0.52431799 0.31328244 -2.00338776
v -0.51863241 0.31328244 -2.01189683
v -0.51012334 0.31328244 -2.01758241
v -0.50008621 0.31328244 -2.01957892
v -0.49004908 0.31328244 -2.01758241
v -0.48154001 0.31328244 -2.01189683
v -0.47585442 0.31328244 -2.00338776
f 862 847 848
f 862 848 849
f 862 849 850
f 862 850 851
f 862 851 852
f 862 852 853
f 862 853 854
f 862 854 855
f 862 855 856
f 862 856 857
f 862 857 858
f 862 858 859
f 862 859 860
f 860 861 862
f 864 863 878
f 865 864 878
f 866 865 878
f 867 866 878
f 868 867 878
f 869 868 878
f 870 869 878
f 871 870 878
f 872 871 878
f 873 872 878
f 874 873 878
f 875 874 878
f 876 875 878
f 878 877 876
f 847 863 864
f 847 864 848
f 848 864 865
f 848 865 849
f 849 865 866
f 849 866 850
f 850 866 867
f 850 867 851
f 851 867 868
f 851 868 852
f 852 868 869
f 852 869 853
f 853 869 870
f 853 870 854
f 854 870 871
f 854 871 855
f 855 871 872
f 855 872 856
f 856 872 873
f 856 873 857
f 857 873 874
f 857 874 858
f 858 874 875
f 858 875 859
f 859 875 876
f 859 876 860
f 860 876 877
f 860 877 861
f 861 877 878
f 861 878 862
f 862 878 863
f 862 863 847
o AA_Gun_3_-1
usemtl dark
v -0.50627900 0.30708965 -2.01520754
v -0.50263618 0.30708965 -2.01520754
v -0.50263618 0.31073247 -2.01520754
v -0.50627900 0.31073247 -2.01520754
v -0.50627900 0.30708965 -1.97149371
v -0.50263618 0.30708965 -1.97149371
v -0.50263618 0.31073247 -1.97149371
v -0.50627900 0.31073247 -1.97149371
f 879 882 881
f 879 881 880
f 883 884 885
f 883 885 886
f 879 880 884
f 879 884 883
f 882 886 885
f 882 885 881
f 879 883 886
f 879 886 882
f 880 881 885
f 880 885 884
o AA_Gun_3_1
usemtl dark
v -0.49753624 0.30708965 -2.01520754
v -0.49389342 0.30708965 -2.01520754
v -0.49389342 0.31073247 -2.01520754
v -0.49753624 0.31073247 -2.01520754
v -0.49753624 0.30708965 -1.97149371
v -0.49389342 0.30708965 -1.97149371
v -0.49389342 0.31073247 -1.97149371
v -0.49753624 0.31073247 -1.97149371
f 887 890 889
f 887 889 888
f 891 892 893
f 891 893 894
f 887 888 892
f 887 892 891
f 890 894 893
f 890 893 889
f 887 891 894
f 887 894 890
f 888 889 893
f 888 893 892
o Sponson_4
usemtl hull
v 0.43772115 0.26374010 -2.06620701
v 0.53972008 0.26374010 -2.06620701
v 0.53972008 0.28413989 -2.06620701
v 0.43772115 0.28413989 -2.06620701
v 0.43772115 0.26374010 -1.92049424
v 0.53972008 0.26374010 -1.92049424
v 0.53972008 0.28413989 -1.92049424
v 0.43772115 0.28413989 -1.92049424
f 895 898 897
f 895 897 896
f 899 900 901
f 899 901 902
f 895 896 900
f 895 900 899
f 898 902 901
f 898 901 897
f 895 899 902
f 895 902 898
f 896 897 901
f 896 901 900
o AA_Base_4
usemtl island
v 0.51494891 0.28413989 -1.99335062
v 0.51295240 0.28413989 -1.98331349
v 0.50726682 0.28413989 -1.97480442
v 0.49875775 0.28413989 -1.96911884
v 0.48872061 0.28413989 -1.96712233
v 0.47868348 0.28413989 -1.96911884
v 0.47017441 0.28413989 -1.97480442
v 0.46448883 0.28413989 -1.98331349
v 0.46249232 0.28413989 -1.99335062
v 0.46448883 0.28413989 -2.00338776
v 0.47017441 0.28413989 -2.01189683
v 0.47868348 0.28413989 -2.01758241
v 0.48872061 0.28413989 -2.01957892
v 0.49875775 0.28413989 -2.01758241
v 0.50726682 0.28413989 -2.01189683
v 0.51295240 0.28413989 -2.00338776
v 0.51494891 0.31328244 -1.99335062
v 0.51295240 0.31328244 -1.98331349
v 0.50726682 0.31328244 -1.97480442
v 0.49875775 0.31328244 -1.96911884
v 0.48872061 0.31328244 -1.96712233
v 0.47868348 0.31328244 -1.96911884
v 0.47017441 0.31328244 -1.97480442
v 0.46448883 0.31328244 -1.98331349
v 0.46249232 0.31328244 -1.99335062
v 0.46448883 0.31328244 -2.00338776
v 0.47017441 0.31328244 -2.01189683
v 0.47868348 0.31328244 -2.01758241
v 0.48872061 0.31328244 -2.01957892
v 0.49875775 0.31328244 -2.01758241
v 0.50726682 0.31328244 -2.01189683
v 0.51295240 0.31328244 -2.00338776
f 918 903 904
f 918 904 905
f 918 905 906
f 918 906 907
f 918 907 908
f 918 908 909
f 918 909 910
f 918 910 911
f 918 911 912
f 918 912 913
f 918 913 914
f 918 914 915
f 918 915 916
f 916 917 918
f 920 919 934
f 921 920 934
f 922 921 934
f 923 922 934
f 924 923 934
f 925 924 934
f 926 925 934
f 927 926 934
f 928 927 934
f 929 928 934
f 930 929 934
f 931 930 934
f 932 931 934
f 934 933 932
f 903 919 920
f 903 920 904
f 904 920 921
f 904 921 905
f 905 921 922
f 905 922 906
f 906 922 923
f 906 923 907
f 907 923 924
f 907 924 908
f 908 924 925
f 908 925 909
f 909 925 926
f 909 926 910
f 910 926 927
f 910 927 911
f 911 927 928
f 911 928 912
f 912 928 929
f 912 929 913
f 913 929 930
f 913 930 914
f 914 930 931
f 914 931 915
f 915 931 932
f 915 932 916
f 916 932 933
f 916 933 917
f 917 933 934
f 917 934 918
f 918 934 919
f 918 919 903
o AA_Gun_4_-1
usemtl dark
v 0.48252782 0.30708965 -2.01520754
v 0.48617064 0.30708965 -2.01520754
v 0.48617064 0.31073247 -2.01520754
v 0.48252782 0.31073247 -2.01520754
v 0.48252782 0.30708965 -1.97149371
v 0.48617064 0.30708965 -1.97149371
v 0.48617064 0.31073247 -1.97149371
v 0.48252782 0.31073247 -1.97149371
f 935 938 937
f 935 937 936
f 939 940 941
f 939 941 942
f 935 936 940
f 935 940 939
f 938 942 941
f 938 941 937
f 935 939 942
f 935 942 938
f 936 937 941
f 936 941 940
o AA_Gun_4_1
usemtl dark
v 0.49127059 0.30708965 -2.01520754
v 0.49491341 0.30708965 -2.01520754
v 0.49491341 0.31073247 -2.01520754
v 0.49127059 0.31073247 -2.01520754
v 0.49127059 0.30708965 -1.97149371
v 0.49491341 0.30708965 -1.97149371
v 0.49491341 0.31073247 -1.97149371
v 0.49127059 0.31073247 -1.97149371
f 943 946 945
f 943 945 944
f 947 948 949
f 947 949 950
f 943 944 948
f 943 948 947
f 946 950 949
f 946 949 945
f 943 947 950
f 943 950 946
f 944 945 949
f 944 949 948
o SonarDome
usemtl dark
v 0.04954234 -0.13114149 1.89368309
v 0.04577115 -0.13114149 1.91264213
v 0.03503172 -0.13114149 1.92871482
v 0.01895904 -0.13114149 1.93945424
v 0.00000000 -0.13114149 1.94322543
v -0.01895904 -0.13114149 1.93945424
v -0.03503172 -0.13114149 1.92871482
v -0.04577115 -0.13114149 1.91264213
v -0.04954234 -0.13114149 1.89368309
v -0.04577115 -0.13114149 1.87472406
v -0.03503172 -0.13114149 1.85865137
v -0.01895904 -0.13114149 1.84791195
v -0.00000000 -0.13114149 1.84414075
v 0.01895904 -0.13114149 1.84791195
v 0.03503172 -0.13114149 1.85865137
v 0.04577115 -0.13114149 1.87472406
v 0.04954234 -0.10199894 1.89368309
v 0.04577115 -0.10199894 1.91264213
v 0.03503172 -0.10199894 1.92871482
v 0.01895904 -0.10199894 1.93945424
v 0.00000000 -0.10199894 1.94322543
v -0.01895904 -0.10199894 1.93945424
v -0.03503172 -0.10199894 1.92871482
v -0.04577115 -0.10199894 1.91264213
v -0.04954234 -0.10199894 1.89368309
v -0.04577115 -0.10199894 1.87472406
v -0.03503172 -0.10199894 1.85865137
v -0.01895904 -0.10199894 1.84791195
v -0.00000000 -0.10199894 1.84414075
v 0.01895904 -0.10199894 1.84791195
v 0.03503172 -0.10199894 1.85865137
v 0.04577115 -0.10199894 1.87472406
f 966 951 952
f 966 952 953
f 966 953 954
f 966 954 955
f 966 955 956
f 966 956 957
f 966 957 958
f 966 958 959
f 966 959 960
f 966 960 961
f 966 961 962
f 966 962 963
f 966 963 964
f 964 965 966
f 968 967 982
f 969 968 982
f 970 969 982
f 971 970 982
f 972 971 982
f 973 972 982
f 974 973 982
f 975 974 982
f 976 975 982
f 977 976 982
f 978 977 982
f 979 978 982
f 980 979 982
f 982 981 980
f 951 967 968
f 951 968 952
f 952 968 969
f 952 969 953
f 953 969 970
f 953 970 954
f 954 970 971
f 954 971 955
f 955 971 972
f 955 972 956
f 956 972 973
f 956 973 957
f 957 973 974
f 957 974 958
f 958 974 975
f 958 975 959
f 959 975 976
f 959 976 960
f 960 976 977
f 960 977 961
f 961 977 978
f 961 978 962
f 962 978 979
f 962 979 963
f 963 979 980
f 963 980 964
f 964 980 981
f 964 981 965
f 965 981 982
f 965 982 966
f 966 982 967
f 966 967 951
o NoisemakerPort
usemtl dark
v -0.14374564 0.22294053 -2.25709073
v -0.12334586 0.22294053 -2.25709073
v -0.12334586 0.24334032 -2.25709073
v -0.14374564 0.24334032 -2.25709073
v -0.14374564 0.22294053 -2.22794818
v -0.12334586 0.22294053 -2.22794818
v -0.12334586 0.24334032 -2.22794818
v -0.14374564 0.24334032 -2.22794818
f 983 986 985
f 983 985 984
f 987 988 989
f 987 989 990
f 983 984 988
f 983 988 987
f 986 990 989
f 986 989 985
f 983 987 990
f 983 990 986
f 984 985 989
f 984 989 988
o ASW_Sponson_-1
usemtl hull
v -0.51378321 0.23678324 0.54700572
v -0.44092683 0.23678324 0.54700572
v -0.44092683 0.25864016 0.54700572
v -0.51378321 0.25864016 0.54700572
v -0.51378321 0.23678324 0.64900466
v -0.44092683 0.23678324 0.64900466
v -0.44092683 0.25864016 0.64900466
v -0.51378321 0.25864016 0.64900466
f 991 994 993
f 991 993 992
f 995 996 997
f 995 997 998
f 991 992 996
f 991 996 995
f 994 998 997
f 994 997 993
f 991 995 998
f 991 998 994
f 992 993 997
f 992 997 996
o ASW_Tube_-1_0
usemtl dark
v -0.49010488 0.26155441 0.57614827
v -0.48354781 0.26155441 0.57614827
v -0.48354781 0.26884005 0.57614827
v -0.49010488 0.26884005 0.57614827
v -0.49010488 0.26155441 0.61986210
v -0.48354781 0.26155441 0.61986210
v -0.48354781 0.26884005 0.61986210
v -0.49010488 0.26884005 0.61986210
f 999 1002 1001
f 999 1001 1000
f 1003 1004 1005
f 1003 1005 1006
f 999 1000 1004
f 999 1004 1003
f 1002 1006 1005
f 1002 1005 1001
f 999 1003 1006
f 999 1006 1002
f 1000 1001 1005
f 1000 1005 1004
o ASW_Tube_-1_1
usemtl dark
v -0.48063356 0.26155441 0.57614827
v -0.47407648 0.26155441 0.57614827
v -0.47407648 0.26884005 0.57614827
v -0.48063356 0.26884005 0.57614827
v -0.48063356 0.26155441 0.61986210
v -0.47407648 0.26155441 0.61986210
v -0.47407648 0.26884005 0.61986210
v -0.48063356 0.26884005 0.61986210
f 1007 1010 1009
f 1007 1009 1008
f 1011 1012 1013
f 1011 1013 1014
f 1007 1008 1012
f 1007 1012 1011
f 1010 1014 1013
f 1010 1013 1009
f 1007 1011 1014
f 1007 1014 1010
f 1008 1009 1013
f 1008 1013 1012
o ASW_Tube_-1_2
usemtl dark
v -0.47116223 0.26155441 0.57614827
v -0.46460515 0.26155441 0.57614827
v -0.46460515 0.26884005 0.57614827
v -0.47116223 0.26884005 0.57614827
v -0.47116223 0.26155441 0.61986210
v -0.46460515 0.26155441 0.61986210
v -0.46460515 0.26884005 0.61986210
v -0.47116223 0.26884005 0.61986210
f 1015 1018 1017
f 1015 1017 1016
f 1019 1020 1021
f 1019 1021 1022
f 1015 1016 1020
f 1015 1020 1019
f 1018 1022 1021
f 1018 1021 1017
f 1015 1019 1022
f 1015 1022 1018
f 1016 1017 1021
f 1016 1021 1020
o ASW_Launcher_-1
usemtl island
v -0.49921193 0.24698314 0.46686370
v -0.45549810 0.24698314 0.46686370
v -0.45549810 0.27758282 0.46686370
v -0.49921193 0.27758282 0.46686370
v -0.49921193 0.24698314 0.52514880
v -0.45549810 0.24698314 0.52514880
v -0.45549810 0.27758282 0.52514880
v -0.49921193 0.27758282 0.52514880
f 1023 1026 1025
f 1023 1025 1024
f 1027 1028 1029
f 1027 1029 1030
f 1023 1024 1028
f 1023 1028 1027
f 1026 1030 1029
f 1026 1029 1025
f 1023 1027 1030
f 1023 1030 1026
f 1024 1025 1029
f 1024 1029 1028
o SAM_Sponson_-1
usemtl hull
v -0.54380004 0.25718303 1.88523175
v -0.45637238 0.25718303 1.88523175
v -0.45637238 0.27612569 1.88523175
v -0.54380004 0.27612569 1.88523175
v -0.54380004 0.25718303 2.00180197
v -0.45637238 0.25718303 2.00180197
v -0.45637238 0.27612569 2.00180197
v -0.54380004 0.27612569 2.00180197
f 1031 1034 1033
f 1031 1033 1032
f 1035 1036 1037
f 1035 1037 1038
f 1031 1032 1036
f 1031 1036 1035
f 1034 1038 1037
f 1034 1037 1033
f 1031 1035 1038
f 1031 1038 1034
f 1032 1033 1037
f 1032 1037 1036
o SAM_Launcher_-1
usemtl island
v -0.52777163 0.27248287 1.92165994
v -0.47240078 0.27248287 1.92165994
v -0.47240078 0.30745393 1.92165994
v -0.52777163 0.30745393 1.92165994
v -0.52777163 0.27248287 1.96537377
v -0.47240078 0.27248287 1.96537377
v -0.47240078 0.30745393 1.96537377
v -0.52777163 0.30745393 1.96537377
f 1039 1042 1041
f 1039 1041 1040
f 1043 1044 1045
f 1043 1045 1046
f 1039 1040 1044
f 1039 1044 1043
f 1042 1046 1045
f 1042 1045 1041
f 1039 1043 1046
f 1039 1046 1042
f 1040 1041 1045
f 1040 1045 1044
o NoisemakerStarboard
usemtl dark
v 0.12334586 0.22294053 -2.25709073
v 0.14374564 0.22294053 -2.25709073
v 0.14374564 0.24334032 -2.25709073
v 0.12334586 0.24334032 -2.25709073
v 0.12334586 0.22294053 -2.22794818
v 0.14374564 0.22294053 -2.22794818
v 0.14374564 0.24334032 -2.22794818
v 0.12334586 0.24334032 -2.22794818
f 1047 1050 1049
f 1047 1049 1048
f 1051 1052 1053
f 1051 1053 1054
f 1047 1048 1052
f 1047 1052 1051
f 1050 1054 1053
f 1050 1053 1049
f 1047 1051 1054
f 1047 1054 1050
f 1048 1049 1053
f 1048 1053 1052
o ASW_Sponson_1
usemtl hull
v 0.44092683 0.23678324 0.54700572
v 0.51378321 0.23678324 0.54700572
v 0.51378321 0.25864016 0.54700572
v 0.44092683 0.25864016 0.54700572
v 0.44092683 0.23678324 0.64900466
v 0.51378321 0.23678324 0.64900466
v 0.51378321 0.25864016 0.64900466
v 0.44092683 0.25864016 0.64900466
f 1055 1058 1057
f 1055 1057 1056
f 1059 1060 1061
f 1059 1061 1062
f 1055 1056 1060
f 1055 1060 1059
f 1058 1062 1061
f 1058 1061 1057
f 1055 1059 1062
f 1055 1062 1058
f 1056 1057 1061
f 1056 1061 1060
o ASW_Tube_1_0
usemtl dark
v 0.46460515 0.26155441 0.57614827
v 0.47116223 0.26155441 0.57614827
v 0.47116223 0.26884005 0.57614827
v 0.46460515 0.26884005 0.57614827
v 0.46460515 0.26155441 0.61986210
v 0.47116223 0.26155441 0.61986210
v 0.47116223 0.26884005 0.61986210
v 0.46460515 0.26884005 0.61986210
f 1063 1066 1065
f 1063 1065 1064
f 1067 1068 1069
f 1067 1069 1070
f 1063 1064 1068
f 1063 1068 1067
f 1066 1070 1069
f 1066 1069 1065
f 1063 1067 1070
f 1063 1070 1066
f 1064 1065 1069
f 1064 1069 1068
o ASW_Tube_1_1
usemtl dark
v 0.47407648 0.26155441 0.57614827
v 0.48063356 0.26155441 0.57614827
v 0.48063356 0.26884005 0.57614827
v 0.47407648 0.26884005 0.57614827
v 0.47407648 0.26155441 0.61986210
v 0.48063356 0.26155441 0.61986210
v 0.48063356 0.26884005 0.61986210
v 0.47407648 0.26884005 0.61986210
f 1071 1074 1073
f 1071 1073 1072
f 1075 1076 1077
f 1075 1077 1078
f 1071 1072 1076
f 1071 1076 1075
f 1074 1078 1077
f 1074 1077 1073
f 1071 1075 1078
f 1071 1078 1074
f 1072 1073 1077
f 1072 1077 1076
o ASW_Tube_1_2
usemtl dark
v 0.48354781 0.26155441 0.57614827
v 0.49010488 0.26155441 0.57614827
v 0.49010488 0.26884005 0.57614827
v 0.48354781 0.26884005 0.57614827
v 0.48354781 0.26155441 0.61986210
v 0.49010488 0.26155441 0.61986210
v 0.49010488 0.26884005 0.61986210
v 0.48354781 0.26884005 0.61986210
f 1079 1082 1081
f 1079 1081 1080
f 1083 1084 1085
f 1083 1085 1086
f 1079 1080 1084
f 1079 1084 1083
f 1082 1086 1085
f 1082 1085 1081
f 1079 1083 1086
f 1079 1086 1082
f 1080 1081 1085
f 1080 1085 1084
o ASW_Launcher_1
usemtl island
v 0.45549810 0.24698314 0.46686370
v 0.49921193 0.24698314 0.46686370
v 0.49921193 0.27758282 0.46686370
v 0.45549810 0.27758282 0.46686370
v 0.45549810 0.24698314 0.52514880
v 0.49921193 0.24698314 0.52514880
v 0.49921193 0.27758282 0.52514880
v 0.45549810 0.27758282 0.52514880
f 1087 1090 1089
f 1087 1089 1088
f 1091 1092 1093
f 1091 1093 1094
f 1087 1088 1092
f 1087 1092 1091
f 1090 1094 1093
f 1090 1093 1089
f 1087 1091 1094
f 1087 1094 1090
f 1088 1089 1093
f 1088 1093 1092
o SAM_Sponson_1
usemtl hull
v 0.45637238 0.25718303 1.88523175
v 0.54380004 0.25718303 1.88523175
v 0.54380004 0.27612569 1.88523175
v 0.45637238 0.27612569 1.88523175
v 0.45637238 0.25718303 2.00180197
v 0.54380004 0.25718303 2.00180197
v 0.54380004 0.27612569 2.00180197
v 0.45637238 0.27612569 2.00180197
f 1095 1098 1097
f 1095 1097 1096
f 1099 1100 1101
f 1099 1101 1102
f 1095 1096 1100
f 1095 1100 1099
f 1098 1102 1101
f 1098 1101 1097
f 1095 1099 1102
f 1095 1102 1098
f 1096 1097 1101
f 1096 1101 1100
o SAM_Launcher_1
usemtl island
v 0.47240078 0.27248287 1.92165994
v 0.52777163 0.27248287 1.92165994
v 0.52777163 0.30745393 1.92165994
v 0.47240078 0.30745393 1.92165994
v 0.47240078 0.27248287 1.96537377
v 0.52777163 0.27248287 1.96537377
v 0.52777163 0.30745393 1.96537377
v 0.47240078 0.30745393 1.96537377
f 1103 1106 1105
f 1103 1105 1104
f 1107 1108 1109
f 1107 1109 1110
f 1103 1104 1108
f 1103 1108 1107
f 1106 1110 1109
f 1106 1109 1105
f 1103 1107 1110
f 1103 1110 1106
f 1104 1105 1109
f 1104 1109 1108
