# Approximate Sea Power scale; origin, deck routing and collision untested
mtllib ran_cvn_australis_2030.mtl
o HardChineHull
usemtl hull
v -0.148627 0.000000 -2.695686
v -0.218569 0.043714 -2.695686
v -0.214198 0.174855 -2.695686
v -0.166113 0.295797 -2.695686
v 0.166113 0.295797 -2.695686
v 0.214198 0.174855 -2.695686
v 0.218569 0.043714 -2.695686
v 0.148627 0.000000 -2.695686
v -0.227895 0.000000 -2.535402
v -0.335139 0.043714 -2.535402
v -0.328437 0.174855 -2.535402
v -0.254706 0.295797 -2.535402
v 0.254706 0.295797 -2.535402
v 0.328437 0.174855 -2.535402
v 0.335139 0.043714 -2.535402
v 0.227895 0.000000 -2.535402
v -0.267529 0.000000 -2.156549
v -0.393424 0.043714 -2.156549
v -0.385556 0.174855 -2.156549
v -0.299003 0.295797 -2.156549
v 0.299003 0.295797 -2.156549
v 0.385556 0.174855 -2.156549
v 0.393424 0.043714 -2.156549
v 0.267529 0.000000 -2.156549
v -0.277437 0.000000 -1.515413
v -0.407996 0.043714 -1.515413
v -0.399836 0.174855 -1.515413
v -0.310077 0.295797 -1.515413
v 0.310077 0.295797 -1.515413
v 0.399836 0.174855 -1.515413
v 0.407996 0.043714 -1.515413
v 0.277437 0.000000 -1.515413
v -0.287346 0.000000 -0.524566
v -0.422567 0.043714 -0.524566
v -0.414116 0.174855 -0.524566
v -0.321151 0.295797 -0.524566
v 0.321151 0.295797 -0.524566
v 0.414116 0.174855 -0.524566
v 0.422567 0.043714 -0.524566
v 0.287346 0.000000 -0.524566
v -0.287346 0.000000 0.655707
v -0.422567 0.043714 0.655707
v -0.414116 0.174855 0.655707
v -0.321151 0.295797 0.655707
v 0.321151 0.295797 0.655707
v 0.414116 0.174855 0.655707
v 0.422567 0.043714 0.655707
v 0.287346 0.000000 0.655707
v -0.277437 0.000000 1.646554
v -0.407996 0.043714 1.646554
v -0.399836 0.174855 1.646554
v -0.310077 0.295797 1.646554
v 0.310077 0.295797 1.646554
v 0.399836 0.174855 1.646554
v 0.407996 0.043714 1.646554
v 0.277437 0.000000 1.646554
v -0.227895 0.000000 2.229405
v -0.335139 0.043714 2.229405
v -0.328437 0.174855 2.229405
v -0.254706 0.295797 2.229405
v 0.254706 0.295797 2.229405
v 0.328437 0.174855 2.229405
v 0.335139 0.043714 2.229405
v 0.227895 0.000000 2.229405
v -0.118902 0.000000 2.535402
v -0.174855 0.043714 2.535402
v -0.171358 0.174855 2.535402
v -0.132890 0.295797 2.535402
v 0.132890 0.295797 2.535402
v 0.171358 0.174855 2.535402
v 0.174855 0.043714 2.535402
v 0.118902 0.000000 2.535402
v -0.012881 0.000000 2.695686
v -0.018943 0.043714 2.695686
v -0.018564 0.174855 2.695686
v -0.014396 0.295797 2.695686
v 0.014396 0.295797 2.695686
v 0.018564 0.174855 2.695686
v 0.018943 0.043714 2.695686
v 0.012881 0.000000 2.695686
f 1 2 3
f 1 3 4
f 1 4 5
f 1 5 6
f 1 6 7
f 1 7 8
f 80 79 78
f 80 78 77
f 80 77 76
f 80 76 75
f 80 75 74
f 80 74 73
f 9 10 2
f 9 2 1
f 10 11 3
f 10 3 2
f 11 12 4
f 11 4 3
f 12 13 5
f 12 5 4
f 13 14 6
f 13 6 5
f 14 15 7
f 14 7 6
f 15 16 8
f 15 8 7
f 16 9 1
f 16 1 8
f 17 18 10
f 17 10 9
f 18 19 11
f 18 11 10
f 19 20 12
f 19 12 11
f 20 21 13
f 20 13 12
f 21 22 14
f 21 14 13
f 22 23 15
f 22 15 14
f 23 24 16
f 23 16 15
f 24 17 9
f 24 9 16
f 25 26 18
f 25 18 17
f 26 27 19
f 26 19 18
f 27 28 20
f 27 20 19
f 28 29 21
f 28 21 20
f 29 30 22
f 29 22 21
f 30 31 23
f 30 23 22
f 31 32 24
f 31 24 23
f 32 25 17
f 32 17 24
f 33 34 26
f 33 26 25
f 34 35 27
f 34 27 26
f 35 36 28
f 35 28 27
f 36 37 29
f 36 29 28
f 37 38 30
f 37 30 29
f 38 39 31
f 38 31 30
f 39 40 32
f 39 32 31
f 40 33 25
f 40 25 32
f 41 42 34
f 41 34 33
f 42 43 35
f 42 35 34
f 43 44 36
f 43 36 35
f 44 45 37
f 44 37 36
f 45 46 38
f 45 38 37
f 46 47 39
f 46 39 38
f 47 48 40
f 47 40 39
f 48 41 33
f 48 33 40
f 49 50 42
f 49 42 41
f 50 51 43
f 50 43 42
f 51 52 44
f 51 44 43
f 52 53 45
f 52 45 44
f 53 54 46
f 53 46 45
f 54 55 47
f 54 47 46
f 55 56 48
f 55 48 47
f 56 49 41
f 56 41 48
f 57 58 50
f 57 50 49
f 58 59 51
f 58 51 50
f 59 60 52
f 59 52 51
f 60 61 53
f 60 53 52
f 61 62 54
f 61 54 53
f 62 63 55
f 62 55 54
f 63 64 56
f 63 56 55
f 64 57 49
f 64 49 56
f 65 66 58
f 65 58 57
f 66 67 59
f 66 59 58
f 67 68 60
f 67 60 59
f 68 69 61
f 68 61 60
f 69 70 62
f 69 62 61
f 70 71 63
f 70 63 62
f 71 72 64
f 71 64 63
f 72 65 57
f 72 57 64
f 73 74 66
f 73 66 65
f 74 75 67
f 74 67 66
f 75 76 68
f 75 68 67
f 76 77 69
f 76 69 68
f 77 78 70
f 77 70 69
f 78 79 71
f 78 71 70
f 79 80 72
f 79 72 71
f 80 73 65
f 80 65 72
o UnderwaterBody
usemtl underwater
v -0.148627 0.000000 -2.695686
v -0.209826 -0.036428 -2.695686
v -0.139884 -0.116570 -2.695686
v 0.139884 -0.116570 -2.695686
v 0.209826 -0.036428 -2.695686
v 0.148627 0.000000 -2.695686
v -0.227895 0.000000 -2.535402
v -0.321734 -0.036428 -2.535402
v -0.214489 -0.116570 -2.535402
v 0.214489 -0.116570 -2.535402
v 0.321734 -0.036428 -2.535402
v 0.227895 0.000000 -2.535402
v -0.267529 0.000000 -2.156549
v -0.377687 -0.036428 -2.156549
v -0.251792 -0.116570 -2.156549
v 0.251792 -0.116570 -2.156549
v 0.377687 -0.036428 -2.156549
v 0.267529 0.000000 -2.156549
v -0.277437 0.000000 -1.515413
v -0.391676 -0.036428 -1.515413
v -0.261117 -0.116570 -1.515413
v 0.261117 -0.116570 -1.515413
v 0.391676 -0.036428 -1.515413
v 0.277437 0.000000 -1.515413
v -0.287346 0.000000 -0.524566
v -0.405664 -0.036428 -0.524566
v -0.270443 -0.116570 -0.524566
v 0.270443 -0.116570 -0.524566
v 0.405664 -0.036428 -0.524566
v 0.287346 0.000000 -0.524566
v -0.287346 0.000000 0.655707
v -0.405664 -0.036428 0.655707
v -0.270443 -0.116570 0.655707
v 0.270443 -0.116570 0.655707
v 0.405664 -0.036428 0.655707
v 0.287346 0.000000 0.655707
v -0.277437 0.000000 1.646554
v -0.391676 -0.036428 1.646554
v -0.261117 -0.116570 1.646554
v 0.261117 -0.116570 1.646554
v 0.391676 -0.036428 1.646554
v 0.277437 0.000000 1.646554
v -0.227895 0.000000 2.229405
v -0.321734 -0.036428 2.229405
v -0.214489 -0.116570 2.229405
v 0.214489 -0.116570 2.229405
v 0.321734 -0.036428 2.229405
v 0.227895 0.000000 2.229405
v -0.118902 0.000000 2.535402
v -0.167861 -0.036428 2.535402
v -0.111907 -0.116570 2.535402
v 0.111907 -0.116570 2.535402
v 0.167861 -0.036428 2.535402
v 0.118902 0.000000 2.535402
v -0.012881 0.000000 2.695686
v -0.018185 -0.036428 2.695686
v -0.012123 -0.116570 2.695686
v 0.012123 -0.116570 2.695686
v 0.018185 -0.036428 2.695686
v 0.012881 0.000000 2.695686
f 86 85 84
f 86 84 83
f 86 83 82
f 86 82 81
f 135 136 137
f 135 137 138
f 135 138 139
f 135 139 140
f 81 82 88
f 81 88 87
f 82 83 89
f 82 89 88
f 83 84 90
f 83 90 89
f 84 85 91
f 84 91 90
f 85 86 92
f 85 92 91
f 86 81 87
f 86 87 92
f 87 88 94
f 87 94 93
f 88 89 95
f 88 95 94
f 89 90 96
f 89 96 95
f 90 91 97
f 90 97 96
f 91 92 98
f 91 98 97
f 92 87 93
f 92 93 98
f 93 94 100
f 93 100 99
f 94 95 101
f 94 101 100
f 95 96 102
f 95 102 101
f 96 97 103
f 96 103 102
f 97 98 104
f 97 104 103
f 98 93 99
f 98 99 104
f 99 100 106
f 99 106 105
f 100 101 107
f 100 107 106
f 101 102 108
f 101 108 107
f 102 103 109
f 102 109 108
f 103 104 110
f 103 110 109
f 104 99 105
f 104 105 110
f 105 106 112
f 105 112 111
f 106 107 113
f 106 113 112
f 107 108 114
f 107 114 113
f 108 109 115
f 108 115 114
f 109 110 116
f 109 116 115
f 110 105 111
f 110 111 116
f 111 112 118
f 111 118 117
f 112 113 119
f 112 119 118
f 113 114 120
f 113 120 119
f 114 115 121
f 114 121 120
f 115 116 122
f 115 122 121
f 116 111 117
f 116 117 122
f 117 118 124
f 117 124 123
f 118 119 125
f 118 125 124
f 119 120 126
f 119 126 125
f 120 121 127
f 120 127 126
f 121 122 128
f 121 128 127
f 122 117 123
f 122 123 128
f 123 124 130
f 123 130 129
f 124 125 131
f 124 131 130
f 125 126 132
f 125 132 131
f 126 127 133
f 126 133 132
f 127 128 134
f 127 134 133
f 128 123 129
f 128 129 134
f 129 130 136
f 129 136 135
f 130 131 137
f 130 137 136
f 131 132 138
f 131 138 137
f 132 133 139
f 132 139 138
f 133 134 140
f 133 140 139
f 134 129 135
f 134 135 140
o FacetedFlightDeck
usemtl deck
v -0.466281 0.295797 -2.695686
v 0.393424 0.295797 -2.695686
v 0.597422 0.295797 -2.462546
v 0.713993 0.295797 -2.010836
v 0.728564 0.295797 -1.107417
v 0.757706 0.295797 -0.480852
v 0.757706 0.295797 1.049132
v 0.713993 0.295797 1.821410
v 0.582851 0.295797 2.375118
v 0.218569 0.295797 2.695686
v -0.218569 0.295797 2.695686
v -0.568280 0.295797 2.345976
v -0.699421 0.295797 1.792267
v -0.699421 0.295797 0.874277
v -0.757706 0.295797 -0.597422
v -0.757706 0.295797 -1.661126
v -0.626565 0.295797 -2.447974
v -0.466281 0.320568 -2.695686
v 0.393424 0.320568 -2.695686
v 0.597422 0.320568 -2.462546
v 0.713993 0.320568 -2.010836
v 0.728564 0.320568 -1.107417
v 0.757706 0.320568 -0.480852
v 0.757706 0.320568 1.049132
v 0.713993 0.320568 1.821410
v 0.582851 0.320568 2.375118
v 0.218569 0.320568 2.695686
v -0.218569 0.320568 2.695686
v -0.568280 0.320568 2.345976
v -0.699421 0.320568 1.792267
v -0.699421 0.320568 0.874277
v -0.757706 0.320568 -0.597422
v -0.757706 0.320568 -1.661126
v -0.626565 0.320568 -2.447974
f 157 141 142
f 157 142 143
f 157 143 144
f 157 144 145
f 157 145 146
f 157 146 147
f 157 147 148
f 157 148 149
f 157 149 150
f 157 150 151
f 157 151 152
f 157 152 153
f 157 153 154
f 157 154 155
f 155 156 157
f 159 158 174
f 160 159 174
f 161 160 174
f 162 161 174
f 163 162 174
f 164 163 174
f 165 164 174
f 166 165 174
f 167 166 174
f 168 167 174
f 169 168 174
f 170 169 174
f 171 170 174
f 172 171 174
f 174 173 172
f 141 158 159
f 141 159 142
f 142 159 160
f 142 160 143
f 143 160 161
f 143 161 144
f 144 161 162
f 144 162 145
f 145 162 163
f 145 163 146
f 146 163 164
f 146 164 147
f 147 164 165
f 147 165 148
f 148 165 166
f 148 166 149
f 149 166 167
f 149 167 150
f 150 167 168
f 150 168 151
f 151 168 169
f 151 169 152
f 152 169 170
f 152 170 153
f 153 170 171
f 153 171 154
f 154 171 172
f 154 172 155
f 155 172 173
f 155 173 156
f 156 173 174
f 156 174 157
f 157 174 158
f 157 158 141
o DeckEdge_01
usemtl edge
v -0.466281 0.321588 -2.693646
v 0.393424 0.321588 -2.693646
v 0.393424 0.321588 -2.697726
v -0.466281 0.321588 -2.697726
v -0.466281 0.322171 -2.693646
v 0.393424 0.322171 -2.693646
v 0.393424 0.322171 -2.697726
v -0.466281 0.322171 -2.697726
f 175 178 177
f 177 176 175
f 181 182 179
f 179 180 181
f 176 180 179
f 176 179 175
f 177 181 180
f 177 180 176
f 178 182 181
f 178 181 177
f 175 179 182
f 175 182 178
o DeckEdge_02
usemtl edge
v 0.391889 0.321588 -2.694343
v 0.595887 0.321588 -2.461202
v 0.598958 0.321588 -2.463889
v 0.394960 0.321588 -2.697029
v 0.391889 0.322171 -2.694343
v 0.595887 0.322171 -2.461202
v 0.598958 0.322171 -2.463889
v 0.394960 0.322171 -2.697029
f 183 186 185
f 185 184 183
f 189 190 187
f 187 188 189
f 184 188 187
f 184 187 183
f 185 189 188
f 185 188 184
f 186 190 189
f 186 189 185
f 183 187 190
f 183 190 186
o DeckEdge_03
usemtl edge
v 0.595447 0.321588 -2.462036
v 0.712017 0.321588 -2.010326
v 0.715968 0.321588 -2.011346
v 0.599398 0.321588 -2.463055
v 0.595447 0.322171 -2.462036
v 0.712017 0.322171 -2.010326
v 0.715968 0.322171 -2.011346
v 0.599398 0.322171 -2.463055
f 191 194 193
f 193 192 191
f 197 198 195
f 195 196 197
f 192 196 195
f 192 195 191
f 193 197 196
f 193 196 192
f 194 198 197
f 194 197 193
f 191 195 198
f 191 198 194
o DeckEdge_04
usemtl edge
v 0.711953 0.321588 -2.010803
v 0.726524 0.321588 -1.107384
v 0.730604 0.321588 -1.107450
v 0.716032 0.321588 -2.010869
v 0.711953 0.322171 -2.010803
v 0.726524 0.322171 -1.107384
v 0.730604 0.322171 -1.107450
v 0.716032 0.322171 -2.010869
f 199 202 201
f 201 200 199
f 205 206 203
f 203 204 205
f 200 204 203
f 200 203 199
f 201 205 204
f 201 204 200
f 202 206 205
f 202 205 201
f 199 203 206
f 199 206 202
o DeckEdge_05
usemtl edge
v 0.726526 0.321588 -1.107322
v 0.755669 0.321588 -0.480757
v 0.759744 0.321588 -0.480947
v 0.730602 0.321588 -1.107512
v 0.726526 0.322171 -1.107322
v 0.755669 0.322171 -0.480757
v 0.759744 0.322171 -0.480947
v 0.730602 0.322171 -1.107512
f 207 210 209
f 209 208 207
f 213 214 211
f 211 212 213
f 208 212 211
f 208 211 207
f 209 213 212
f 209 212 208
f 210 214 213
f 210 213 209
f 207 211 214
f 207 214 210
o DeckEdge_06
usemtl edge
v 0.755666 0.321588 -0.480852
v 0.755666 0.321588 1.049132
v 0.759746 0.321588 1.049132
v 0.759746 0.321588 -0.480852
v 0.755666 0.322171 -0.480852
v 0.755666 0.322171 1.049132
v 0.759746 0.322171 1.049132
v 0.759746 0.322171 -0.480852
f 215 218 217
f 217 216 215
f 221 222 219
f 219 220 221
f 216 220 219
f 216 219 215
f 217 221 220
f 217 220 216
f 218 222 221
f 218 221 217
f 215 219 222
f 215 222 218
o DeckEdge_07
usemtl edge
v 0.755670 0.321588 1.049017
v 0.711956 0.321588 1.821294
v 0.716029 0.321588 1.821525
v 0.759743 0.321588 1.049247
v 0.755670 0.322171 1.049017
v 0.711956 0.322171 1.821294
v 0.716029 0.322171 1.821525
v 0.759743 0.322171 1.049247
f 223 226 225
f 225 224 223
f 229 230 227
f 227 228 229
f 224 228 227
f 224 227 223
f 225 229 228
f 225 228 224
f 226 230 229
f 226 229 225
f 223 227 230
f 223 230 226
o DeckEdge_08
usemtl edge
v 0.712007 0.321588 1.820939
v 0.580866 0.321588 2.374648
v 0.584836 0.321588 2.375588
v 0.715978 0.321588 1.821880
v 0.712007 0.322171 1.820939
v 0.580866 0.322171 2.374648
v 0.584836 0.322171 2.375588
v 0.715978 0.322171 1.821880
f 231 234 233
f 233 232 231
f 237 238 235
f 235 236 237
f 232 236 235
f 232 235 231
f 233 237 236
f 233 236 232
f 234 238 237
f 234 237 233
f 231 235 238
f 231 238 234
o DeckEdge_09
usemtl edge
v 0.581503 0.321588 2.373587
v 0.217221 0.321588 2.694155
v 0.219917 0.321588 2.697218
v 0.584199 0.321588 2.376650
v 0.581503 0.322171 2.373587
v 0.217221 0.322171 2.694155
v 0.219917 0.322171 2.697218
v 0.584199 0.322171 2.376650
f 239 242 241
f 241 240 239
f 245 246 243
f 243 244 245
f 240 244 243
f 240 243 239
f 241 245 244
f 241 244 240
f 242 246 245
f 242 245 241
f 239 243 246
f 239 246 242
o DeckEdge_10
usemtl edge
v 0.218569 0.321588 2.693646
v -0.218569 0.321588 2.693646
v -0.218569 0.321588 2.697726
v 0.218569 0.321588 2.697726
v 0.218569 0.322171 2.693646
v -0.218569 0.322171 2.693646
v -0.218569 0.322171 2.697726
v 0.218569 0.322171 2.697726
f 247 250 249
f 249 248 247
f 253 254 251
f 251 252 253
f 248 252 251
f 248 251 247
f 249 253 252
f 249 252 248
f 250 254 253
f 250 253 249
f 247 251 254
f 247 254 250
o DeckEdge_11
usemtl edge
v -0.217127 0.321588 2.694244
v -0.566837 0.321588 2.344533
v -0.569722 0.321588 2.347418
v -0.220012 0.321588 2.697129
v -0.217127 0.322171 2.694244
v -0.566837 0.322171 2.344533
v -0.569722 0.322171 2.347418
v -0.220012 0.322171 2.697129
f 255 258 257
f 257 256 255
f 261 262 259
f 259 260 261
f 256 260 259
f 256 259 255
f 257 261 260
f 257 260 256
f 258 262 261
f 258 261 257
f 255 259 262
f 255 262 258
o DeckEdge_12
usemtl edge
v -0.566295 0.321588 2.345505
v -0.697436 0.321588 1.791797
v -0.701406 0.321588 1.792737
v -0.570265 0.321588 2.346446
v -0.566295 0.322171 2.345505
v -0.697436 0.322171 1.791797
v -0.701406 0.322171 1.792737
v -0.570265 0.322171 2.346446
f 263 266 265
f 265 264 263
f 269 270 267
f 267 268 269
f 264 268 267
f 264 267 263
f 265 269 268
f 265 268 264
f 266 270 269
f 266 269 265
f 263 267 270
f 263 270 266
o DeckEdge_13
usemtl edge
v -0.697381 0.321588 1.792267
v -0.697381 0.321588 0.874277
v -0.701461 0.321588 0.874277
v -0.701461 0.321588 1.792267
v -0.697381 0.322171 1.792267
v -0.697381 0.322171 0.874277
v -0.701461 0.322171 0.874277
v -0.701461 0.322171 1.792267
f 271 274 273
f 273 272 271
f 277 278 275
f 275 276 277
f 272 276 275
f 272 275 271
f 273 277 276
f 273 276 272
f 274 278 277
f 274 277 273
f 271 275 278
f 271 278 274
o DeckEdge_14
usemtl edge
v -0.697383 0.321588 0.874196
v -0.755668 0.321588 -0.597503
v -0.759745 0.321588 -0.597342
v -0.701460 0.321588 0.874357
v -0.697383 0.322171 0.874196
v -0.755668 0.322171 -0.597503
v -0.759745 0.322171 -0.597342
v -0.701460 0.322171 0.874357
f 279 282 281
f 281 280 279
f 285 286 283
f 283 284 285
f 280 284 283
f 280 283 279
f 281 285 284
f 281 284 280
f 282 286 285
f 282 285 281
f 279 283 286
f 279 286 282
o DeckEdge_15
usemtl edge
v -0.755666 0.321588 -0.597422
v -0.755666 0.321588 -1.661126
v -0.759746 0.321588 -1.661126
v -0.759746 0.321588 -0.597422
v -0.755666 0.322171 -0.597422
v -0.755666 0.322171 -1.661126
v -0.759746 0.322171 -1.661126
v -0.759746 0.322171 -0.597422
f 287 290 289
f 289 288 287
f 293 294 291
f 291 292 293
f 288 292 291
f 288 291 287
f 289 293 292
f 289 292 288
f 290 294 293
f 290 293 289
f 287 291 294
f 287 294 290
o DeckEdge_16
usemtl edge
v -0.755694 0.321588 -1.660790
v -0.624553 0.321588 -2.447639
v -0.628577 0.321588 -2.448310
v -0.759719 0.321588 -1.661461
v -0.755694 0.322171 -1.660790
v -0.624553 0.322171 -2.447639
v -0.628577 0.322171 -2.448310
v -0.759719 0.322171 -1.661461
f 295 298 297
f 297 296 295
f 301 302 299
f 299 300 301
f 296 300 299
f 296 299 295
f 297 301 300
f 297 300 296
f 298 302 301
f 298 301 297
f 295 299 302
f 295 302 298
o DeckEdge_17
usemtl edge
v -0.624852 0.321588 -2.446866
v -0.464568 0.321588 -2.694578
v -0.467994 0.321588 -2.696794
v -0.628278 0.321588 -2.449083
v -0.624852 0.322171 -2.446866
v -0.464568 0.322171 -2.694578
v -0.467994 0.322171 -2.696794
v -0.628278 0.322171 -2.449083
f 303 306 305
f 305 304 303
f 309 310 307
f 307 308 309
f 304 308 307
f 304 307 303
f 305 309 308
f 305 308 304
f 306 310 309
f 306 309 305
f 303 307 310
f 303 310 306
o MainRakedIsland
usemtl island
v 0.451710 0.320568 -0.437138
v 0.582851 0.320568 -0.480852
v 0.684850 0.320568 -0.335139
v 0.699421 0.320568 0.407996
v 0.568280 0.320568 0.568280
v 0.451710 0.320568 0.466281
v 0.472692 0.539137 -0.350585
v 0.580228 0.539137 -0.386430
v 0.663867 0.539137 -0.266946
v 0.675816 0.539137 0.342425
v 0.568280 0.539137 0.473858
v 0.472692 0.539137 0.390219
f 311 312 313
f 311 313 314
f 311 314 315
f 311 315 316
f 322 321 320
f 322 320 319
f 322 319 318
f 322 318 317
f 317 318 312
f 317 312 311
f 318 319 313
f 318 313 312
f 319 320 314
f 319 314 313
f 320 321 315
f 320 315 314
f 321 322 316
f 321 316 315
f 322 317 311
f 322 311 316
o IntegratedBridge
usemtl island
v 0.480852 0.533309 -0.247712
v 0.597422 0.533309 -0.276854
v 0.670279 0.533309 -0.174855
v 0.670279 0.533309 0.378853
v 0.553709 0.533309 0.480852
v 0.480852 0.533309 0.393424
v 0.496589 0.641136 -0.191758
v 0.592177 0.641136 -0.216238
v 0.651919 0.641136 -0.130559
v 0.651919 0.641136 0.334557
v 0.556331 0.641136 0.420236
v 0.496589 0.641136 0.346796
f 323 324 325
f 323 325 326
f 323 326 327
f 323 327 328
f 334 333 332
f 334 332 331
f 334 331 330
f 334 330 329
f 329 330 324
f 329 324 323
f 330 331 325
f 330 325 324
f 331 332 326
f 331 326 325
f 332 333 327
f 332 327 326
f 333 334 328
f 333 328 327
f 334 329 323
f 334 323 328
o BridgeWindowPort
usemtl glass
v 0.477064 0.570465 -0.116570
v 0.480269 0.570465 -0.116570
v 0.480269 0.595237 -0.116570
v 0.477064 0.595237 -0.116570
v 0.477064 0.570465 0.320568
v 0.480269 0.570465 0.320568
v 0.480269 0.595237 0.320568
v 0.477064 0.595237 0.320568
f 335 338 337
f 335 337 336
f 339 340 341
f 339 341 342
f 335 336 340
f 335 340 339
f 338 342 341
f 338 341 337
f 335 339 342
f 335 342 338
f 336 337 341
f 336 341 340
o BridgeWindowStarboard
usemtl glass
v 0.662119 0.570465 -0.116570
v 0.665324 0.570465 -0.116570
v 0.665324 0.595237 -0.116570
v 0.662119 0.595237 -0.116570
v 0.662119 0.570465 0.320568
v 0.665324 0.570465 0.320568
v 0.665324 0.595237 0.320568
v 0.662119 0.595237 0.320568
f 343 346 345
f 343 345 344
f 347 348 349
f 347 349 350
f 343 344 348
f 343 348 347
f 346 350 349
f 346 349 345
f 343 347 350
f 343 350 346
f 344 345 349
f 344 349 348
o BridgeWindowForward
usemtl glass
v 0.502709 0.571194 0.467592
v 0.633851 0.571194 0.467592
v 0.633851 0.594508 0.467592
v 0.502709 0.594508 0.467592
v 0.502709 0.571194 0.470798
v 0.633851 0.571194 0.470798
v 0.633851 0.594508 0.470798
v 0.502709 0.594508 0.470798
f 351 354 353
f 351 353 352
f 355 356 357
f 355 357 358
f 351 352 356
f 351 356 355
f 354 358 357
f 354 357 353
f 351 355 358
f 351 358 354
f 352 353 357
f 352 357 356
o EnclosedSensorMast
usemtl island
v 0.509995 0.636765 -0.043714
v 0.597422 0.636765 -0.058285
v 0.641136 0.636765 0.014571
v 0.641136 0.636765 0.276854
v 0.553709 0.636765 0.349711
v 0.509995 0.636765 0.262283
v 0.530977 0.801420 0.016903
v 0.590428 0.801420 0.006994
v 0.620154 0.801420 0.056537
v 0.620154 0.801420 0.234889
v 0.560703 0.801420 0.284431
v 0.530977 0.801420 0.224981
f 359 360 361
f 359 361 362
f 359 362 363
f 359 363 364
f 370 369 368
f 370 368 367
f 370 367 366
f 370 366 365
f 365 366 360
f 365 360 359
f 366 367 361
f 366 361 360
f 367 368 362
f 367 362 361
f 368 369 363
f 368 363 362
f 369 370 364
f 369 364 363
f 370 365 359
f 370 359 364
o IntegratedRadar_Port
usemtl sensor
v 0.505623 0.673922 0.080142
v 0.508538 0.673922 0.080142
v 0.508538 0.754064 0.080142
v 0.505623 0.754064 0.080142
v 0.505623 0.673922 0.211284
v 0.508538 0.673922 0.211284
v 0.508538 0.754064 0.211284
v 0.505623 0.754064 0.211284
f 371 374 373
f 371 373 372
f 375 376 377
f 375 377 378
f 371 372 376
f 371 376 375
f 374 378 377
f 374 377 373
f 371 375 378
f 371 378 374
f 372 373 377
f 372 377 376
o IntegratedRadar_Starboard
usemtl sensor
v 0.642593 0.673922 0.080142
v 0.645508 0.673922 0.080142
v 0.645508 0.754064 0.080142
v 0.642593 0.754064 0.080142
v 0.642593 0.673922 0.211284
v 0.645508 0.673922 0.211284
v 0.645508 0.754064 0.211284
v 0.642593 0.754064 0.211284
f 379 382 381
f 379 381 380
f 383 384 385
f 383 385 386
f 379 380 384
f 379 384 383
f 382 386 385
f 382 385 381
f 379 383 386
f 379 386 382
f 380 381 385
f 380 385 384
o IntegratedRadar_Fore
usemtl sensor
v 0.531852 0.673922 0.322025
v 0.619279 0.673922 0.322025
v 0.619279 0.754064 0.322025
v 0.531852 0.754064 0.322025
v 0.531852 0.673922 0.324939
v 0.619279 0.673922 0.324939
v 0.619279 0.754064 0.324939
v 0.531852 0.754064 0.324939
f 387 390 389
f 387 389 388
f 391 392 393
f 391 393 394
f 387 388 392
f 387 392 391
f 390 394 393
f 390 393 389
f 387 391 394
f 387 394 390
f 388 389 393
f 388 393 392
o IntegratedRadar_Aft
usemtl sensor
v 0.531852 0.673922 -0.045171
v 0.619279 0.673922 -0.045171
v 0.619279 0.754064 -0.045171
v 0.531852 0.754064 -0.045171
v 0.531852 0.673922 -0.042257
v 0.619279 0.673922 -0.042257
v 0.619279 0.754064 -0.042257
v 0.531852 0.754064 -0.042257
f 395 398 397
f 395 397 396
f 399 400 401
f 399 401 402
f 395 396 400
f 395 400 399
f 398 402 401
f 398 401 397
f 395 399 402
f 395 402 398
f 396 397 401
f 396 401 400
o ShipboardECM_Module_PortPanel
usemtl dark
v 0.511160 0.761349 0.109285
v 0.514657 0.761349 0.109285
v 0.514657 0.791949 0.109285
v 0.511160 0.791949 0.109285
v 0.511160 0.761349 0.182141
v 0.514657 0.761349 0.182141
v 0.514657 0.791949 0.182141
v 0.511160 0.791949 0.182141
f 403 406 405
f 403 405 404
f 407 408 409
f 407 409 410
f 403 404 408
f 403 408 407
f 406 410 409
f 406 409 405
f 403 407 410
f 403 410 406
f 404 405 409
f 404 409 408
o ShipboardECM_Module_StarboardPanel
usemtl dark
v 0.635016 0.761349 0.109285
v 0.638513 0.761349 0.109285
v 0.638513 0.791949 0.109285
v 0.635016 0.791949 0.109285
v 0.635016 0.761349 0.182141
v 0.638513 0.761349 0.182141
v 0.638513 0.791949 0.182141
v 0.635016 0.791949 0.182141
f 411 414 413
f 411 413 412
f 415 416 417
f 415 417 418
f 411 412 416
f 411 416 415
f 414 418 417
f 414 417 413
f 411 415 418
f 411 418 414
f 412 413 417
f 412 417 416
o AftAviationIsland
usemtl island
v 0.480852 0.320568 -1.602840
v 0.597422 0.320568 -1.631983
v 0.699421 0.320568 -1.515413
v 0.699421 0.320568 -1.078274
v 0.597422 0.320568 -0.961704
v 0.480852 0.320568 -1.005418
v 0.500523 0.488138 -1.541641
v 0.596111 0.488138 -1.564955
v 0.679750 0.488138 -1.471699
v 0.679750 0.488138 -1.121988
v 0.596111 0.488138 -1.028732
v 0.500523 0.488138 -1.063703
f 419 420 421
f 419 421 422
f 419 422 423
f 419 423 424
f 430 429 428
f 430 428 427
f 430 427 426
f 430 426 425
f 425 426 420
f 425 420 419
f 426 427 421
f 426 421 420
f 427 428 422
f 427 422 421
f 428 429 423
f 428 423 422
f 429 430 424
f 429 424 423
f 430 425 419
f 430 419 424
o AftAviationBridge
usemtl island
v 0.509995 0.485224 -1.515413
v 0.597422 0.485224 -1.529984
v 0.670279 0.485224 -1.427985
v 0.670279 0.485224 -1.136560
v 0.582851 0.485224 -1.049132
v 0.509995 0.485224 -1.107417
v 0.524566 0.568280 -1.473447
v 0.594508 0.568280 -1.485396
v 0.652793 0.568280 -1.401757
v 0.652793 0.568280 -1.162788
v 0.582851 0.568280 -1.091097
v 0.524566 0.568280 -1.138891
f 431 432 433
f 431 433 434
f 431 434 435
f 431 435 436
f 442 441 440
f 442 440 439
f 442 439 438
f 442 438 437
f 437 438 432
f 437 432 431
f 438 439 433
f 438 433 432
f 439 440 434
f 439 434 433
f 440 441 435
f 440 435 434
f 441 442 436
f 441 436 435
f 442 437 431
f 442 431 436
o AftAviationWindowPort
usemtl glass
v 0.506206 0.524930 -1.471699
v 0.509412 0.524930 -1.471699
v 0.509412 0.547516 -1.471699
v 0.506206 0.547516 -1.471699
v 0.506206 0.524930 -1.121988
v 0.509412 0.524930 -1.121988
v 0.509412 0.547516 -1.121988
v 0.506206 0.547516 -1.121988
f 443 446 445
f 443 445 444
f 447 448 449
f 447 449 450
f 443 444 448
f 443 448 447
f 446 450 449
f 446 449 445
f 443 447 450
f 443 450 446
f 444 445 449
f 444 449 448
o AftAviationWindowStarboard
usemtl glass
v 0.665033 0.524930 -1.427985
v 0.668239 0.524930 -1.427985
v 0.668239 0.547516 -1.427985
v 0.665033 0.547516 -1.427985
v 0.665033 0.524930 -1.136560
v 0.668239 0.524930 -1.136560
v 0.668239 0.547516 -1.136560
v 0.665033 0.547516 -1.136560
f 451 454 453
f 451 453 452
f 455 456 457
f 455 457 458
f 451 452 456
f 451 456 455
f 454 458 457
f 454 457 453
f 451 455 458
f 451 458 454
f 452 453 457
f 452 457 456
o AftAviationWindowForward
usemtl glass
v 0.524566 0.524930 -1.053503
v 0.641136 0.524930 -1.053503
v 0.641136 0.547516 -1.053503
v 0.524566 0.547516 -1.053503
v 0.524566 0.524930 -1.050589
v 0.641136 0.524930 -1.050589
v 0.641136 0.547516 -1.050589
v 0.524566 0.547516 -1.050589
f 459 462 461
f 459 461 460
f 463 464 465
f 463 465 466
f 459 460 464
f 459 464 463
f 462 466 465
f 462 465 461
f 459 463 466
f 459 466 462
f 460 461 465
f 460 465 464
o AftEnclosedMast
usemtl island
v 0.539137 0.565366 -1.384271
v 0.611994 0.565366 -1.398843
v 0.641136 0.565366 -1.325986
v 0.641136 0.565366 -1.209416
v 0.568280 0.565366 -1.165702
v 0.539137 0.565366 -1.223987
v 0.554437 0.641136 -1.353672
v 0.605437 0.641136 -1.363871
v 0.625836 0.641136 -1.312872
v 0.625836 0.641136 -1.231273
v 0.574837 0.641136 -1.200673
v 0.554437 0.641136 -1.241473
f 467 468 469
f 467 469 470
f 467 470 471
f 467 471 472
f 478 477 476
f 478 476 475
f 478 475 474
f 478 474 473
f 473 474 468
f 473 468 467
f 474 475 469
f 474 469 468
f 475 476 470
f 475 470 469
f 476 477 471
f 476 471 470
f 477 478 472
f 477 472 471
f 478 473 467
f 478 467 472
o DeckEdgeLift_1
usemtl hatch
v 0.633851 0.321078 -0.859705
v 0.823277 0.321078 -0.859705
v 0.823277 0.323555 -0.859705
v 0.633851 0.323555 -0.859705
v 0.633851 0.321078 -0.597422
v 0.823277 0.321078 -0.597422
v 0.823277 0.323555 -0.597422
v 0.633851 0.323555 -0.597422
f 479 482 481
f 479 481 480
f 483 484 485
f 483 485 486
f 479 480 484
f 479 484 483
f 482 486 485
f 482 485 481
f 479 483 486
f 479 486 482
f 480 481 485
f 480 485 484
o LiftEdge_1_-1
usemtl white
v 0.635308 0.324211 -0.855188
v 0.821820 0.324211 -0.855188
v 0.821820 0.324211 -0.858394
v 0.635308 0.324211 -0.858394
v 0.635308 0.324794 -0.855188
v 0.821820 0.324794 -0.855188
v 0.821820 0.324794 -0.858394
v 0.635308 0.324794 -0.858394
f 487 490 489
f 489 488 487
f 493 494 491
f 491 492 493
f 488 492 491
f 488 491 487
f 489 493 492
f 489 492 488
f 490 494 493
f 490 493 489
f 487 491 494
f 487 494 490
o LiftEdge_1_1
usemtl white
v 0.635308 0.324211 -0.598734
v 0.821820 0.324211 -0.598734
v 0.821820 0.324211 -0.601939
v 0.635308 0.324211 -0.601939
v 0.635308 0.324794 -0.598734
v 0.821820 0.324794 -0.598734
v 0.821820 0.324794 -0.601939
v 0.635308 0.324794 -0.601939
f 495 498 497
f 497 496 495
f 501 502 499
f 499 500 501
f 496 500 499
f 496 499 495
f 497 501 500
f 497 500 496
f 498 502 501
f 498 501 497
f 495 499 502
f 495 502 498
o DeckEdgeLift_2
usemtl hatch
v 0.648422 0.321078 0.874277
v 0.837848 0.321078 0.874277
v 0.837848 0.323555 0.874277
v 0.648422 0.323555 0.874277
v 0.648422 0.321078 1.136560
v 0.837848 0.321078 1.136560
v 0.837848 0.323555 1.136560
v 0.648422 0.323555 1.136560
f 503 506 505
f 503 505 504
f 507 508 509
f 507 509 510
f 503 504 508
f 503 508 507
f 506 510 509
f 506 509 505
f 503 507 510
f 503 510 506
f 504 505 509
f 504 509 508
o LiftEdge_2_-1
usemtl white
v 0.649879 0.324211 0.878794
v 0.836391 0.324211 0.878794
v 0.836391 0.324211 0.875588
v 0.649879 0.324211 0.875588
v 0.649879 0.324794 0.878794
v 0.836391 0.324794 0.878794
v 0.836391 0.324794 0.875588
v 0.649879 0.324794 0.875588
f 511 514 513
f 513 512 511
f 517 518 515
f 515 516 517
f 512 516 515
f 512 515 511
f 513 517 516
f 513 516 512
f 514 518 517
f 514 517 513
f 511 515 518
f 511 518 514
o LiftEdge_2_1
usemtl white
v 0.649879 0.324211 1.135248
v 0.836391 0.324211 1.135248
v 0.836391 0.324211 1.132042
v 0.649879 0.324211 1.132042
v 0.649879 0.324794 1.135248
v 0.836391 0.324794 1.135248
v 0.836391 0.324794 1.132042
v 0.649879 0.324794 1.132042
f 519 522 521
f 521 520 519
f 525 526 523
f 523 524 525
f 520 524 523
f 520 523 519
f 521 525 524
f 521 524 520
f 522 526 525
f 522 525 521
f 519 523 526
f 519 526 522
o DeckEdgeLift_3
usemtl hatch
v -0.794135 0.321078 1.209416
v -0.604708 0.321078 1.209416
v -0.604708 0.323555 1.209416
v -0.794135 0.323555 1.209416
v -0.794135 0.321078 1.471699
v -0.604708 0.321078 1.471699
v -0.604708 0.323555 1.471699
v -0.794135 0.323555 1.471699
f 527 530 529
f 527 529 528
f 531 532 533
f 531 533 534
f 527 528 532
f 527 532 531
f 530 534 533
f 530 533 529
f 527 531 534
f 527 534 530
f 528 529 533
f 528 533 532
o LiftEdge_3_-1
usemtl white
v -0.792677 0.324211 1.213933
v -0.606165 0.324211 1.213933
v -0.606165 0.324211 1.210727
v -0.792677 0.324211 1.210727
v -0.792677 0.324794 1.213933
v -0.606165 0.324794 1.213933
v -0.606165 0.324794 1.210727
v -0.792677 0.324794 1.210727
f 535 538 537
f 537 536 535
f 541 542 539
f 539 540 541
f 536 540 539
f 536 539 535
f 537 541 540
f 537 540 536
f 538 542 541
f 538 541 537
f 535 539 542
f 535 542 538
o LiftEdge_3_1
usemtl white
v -0.792677 0.324211 1.470388
v -0.606165 0.324211 1.470388
v -0.606165 0.324211 1.467182
v -0.792677 0.324211 1.467182
v -0.792677 0.324794 1.470388
v -0.606165 0.324794 1.470388
v -0.606165 0.324794 1.467182
v -0.792677 0.324794 1.467182
f 543 546 545
f 545 544 543
f 549 550 547
f 547 548 549
f 544 548 547
f 544 547 543
f 545 549 548
f 545 548 544
f 546 550 549
f 546 549 545
f 543 547 550
f 543 550 546
o DeckEdgeLift_4
usemtl hatch
v 0.677564 0.321078 -2.054550
v 0.866991 0.321078 -2.054550
v 0.866991 0.323555 -2.054550
v 0.677564 0.323555 -2.054550
v 0.677564 0.321078 -1.792267
v 0.866991 0.321078 -1.792267
v 0.866991 0.323555 -1.792267
v 0.677564 0.323555 -1.792267
f 551 554 553
f 551 553 552
f 555 556 557
f 555 557 558
f 551 552 556
f 551 556 555
f 554 558 557
f 554 557 553
f 551 555 558
f 551 558 554
f 552 553 557
f 552 557 556
o LiftEdge_4_-1
usemtl white
v 0.679021 0.324211 -2.050033
v 0.865534 0.324211 -2.050033
v 0.865534 0.324211 -2.053239
v 0.679021 0.324211 -2.053239
v 0.679021 0.324794 -2.050033
v 0.865534 0.324794 -2.050033
v 0.865534 0.324794 -2.053239
v 0.679021 0.324794 -2.053239
f 559 562 561
f 561 560 559
f 565 566 563
f 563 564 565
f 560 564 563
f 560 563 559
f 561 565 564
f 561 564 560
f 562 566 565
f 562 565 561
f 559 563 566
f 559 566 562
o LiftEdge_4_1
usemtl white
v 0.679021 0.324211 -1.793578
v 0.865534 0.324211 -1.793578
v 0.865534 0.324211 -1.796784
v 0.679021 0.324211 -1.796784
v 0.679021 0.324794 -1.793578
v 0.865534 0.324794 -1.793578
v 0.865534 0.324794 -1.796784
v 0.679021 0.324794 -1.796784
f 567 570 569
f 569 568 567
f 573 574 571
f 571 572 573
f 568 572 571
f 568 571 567
f 569 573 572
f 569 572 568
f 570 574 573
f 570 573 569
f 567 571 574
f 567 574 570
o CatapultTrack_1
usemtl gold
v -0.222358 0.322462 0.859705
v -0.222358 0.322462 2.287690
v -0.214781 0.322462 2.287690
v -0.214781 0.322462 0.859705
v -0.222358 0.323045 0.859705
v -0.222358 0.323045 2.287690
v -0.214781 0.323045 2.287690
v -0.214781 0.323045 0.859705
f 575 578 577
f 577 576 575
f 581 582 579
f 579 580 581
f 576 580 579
f 576 579 575
f 577 581 580
f 577 580 576
f 578 582 581
f 578 581 577
f 575 579 582
f 575 582 578
o CatapultDeckGuide_1
usemtl edge
v -0.201521 0.322608 0.859705
v -0.201521 0.322608 2.287690
v -0.199189 0.322608 2.287690
v -0.199189 0.322608 0.859705
v -0.201521 0.323191 0.859705
v -0.201521 0.323191 2.287690
v -0.199189 0.323191 2.287690
v -0.199189 0.323191 0.859705
f 583 586 585
f 585 584 583
f 589 590 587
f 587 588 589
f 584 588 587
f 584 587 583
f 585 589 588
f 585 588 584
f 586 590 589
f 586 589 585
f 583 587 590
f 583 590 586
o CatapultTrack_2
usemtl gold
v 0.112782 0.322462 0.801420
v 0.112782 0.322462 2.345976
v 0.120359 0.322462 2.345976
v 0.120359 0.322462 0.801420
v 0.112782 0.323045 0.801420
v 0.112782 0.323045 2.345976
v 0.120359 0.323045 2.345976
v 0.120359 0.323045 0.801420
f 591 594 593
f 593 592 591
f 597 598 595
f 595 596 597
f 592 596 595
f 592 595 591
f 593 597 596
f 593 596 592
f 594 598 597
f 594 597 593
f 591 595 598
f 591 598 594
o CatapultDeckGuide_2
usemtl edge
v 0.133619 0.322608 0.801420
v 0.133619 0.322608 2.345976
v 0.135950 0.322608 2.345976
v 0.135950 0.322608 0.801420
v 0.133619 0.323191 0.801420
v 0.133619 0.323191 2.345976
v 0.135950 0.323191 2.345976
v 0.135950 0.323191 0.801420
f 599 602 601
f 601 600 599
f 605 606 603
f 603 604 605
f 600 604 603
f 600 603 599
f 601 605 604
f 601 604 600
f 602 606 605
f 602 605 601
f 599 603 606
f 599 606 602
o CatapultTrack_3
usemtl gold
v 0.331356 0.322462 0.757912
v 0.404213 0.322462 2.098469
v 0.411779 0.322462 2.098058
v 0.338922 0.322462 0.757501
v 0.331356 0.323045 0.757912
v 0.404213 0.323045 2.098469
v 0.411779 0.323045 2.098058
v 0.338922 0.323045 0.757501
f 607 610 609
f 609 608 607
f 613 614 611
f 611 612 613
f 608 612 611
f 608 611 607
f 609 613 612
f 609 612 608
f 610 614 613
f 610 613 609
f 607 611 614
f 607 614 610
o CatapultDeckGuide_3
usemtl edge
v 0.352189 0.322608 0.757770
v 0.425046 0.322608 2.098327
v 0.427374 0.322608 2.098201
v 0.354517 0.322608 0.757643
v 0.352189 0.323191 0.757770
v 0.425046 0.323191 2.098327
v 0.427374 0.323191 2.098201
v 0.354517 0.323191 0.757643
f 615 618 617
f 617 616 615
f 621 622 619
f 619 620 621
f 616 620 619
f 616 619 615
f 617 621 620
f 617 620 616
f 618 622 621
f 618 621 617
f 615 619 622
f 615 622 618
o AngledLandingEdge_-1
usemtl white
v -0.560554 0.322754 -2.258422
v -0.400270 0.322754 0.903545
v -0.395322 0.322754 0.903294
v -0.555606 0.322754 -2.258673
v -0.560554 0.323337 -2.258422
v -0.400270 0.323337 0.903545
v -0.395322 0.323337 0.903294
v -0.555606 0.323337 -2.258673
f 623 626 625
f 625 624 623
f 629 630 627
f 627 628 629
f 624 628 627
f 624 627 623
f 625 629 628
f 625 628 624
f 626 630 629
f 626 629 625
f 623 627 630
f 623 630 626
o AngledLandingEdge_1
usemtl white
v -0.231243 0.322754 -2.258422
v -0.070959 0.322754 0.903545
v -0.066011 0.322754 0.903294
v -0.226295 0.322754 -2.258673
v -0.231243 0.323337 -2.258422
v -0.070959 0.323337 0.903545
v -0.066011 0.323337 0.903294
v -0.226295 0.323337 -2.258673
f 631 634 633
f 633 632 631
f 637 638 635
f 635 636 637
f 632 636 635
f 632 635 631
f 633 637 636
f 633 636 632
f 634 638 637
f 634 637 633
f 631 635 638
f 631 638 634
o LandingCentreline_01
usemtl white
v -0.395393 0.322899 -2.234063
v -0.390585 0.322899 -2.139204
v -0.384181 0.322899 -2.139528
v -0.388990 0.322899 -2.234387
v -0.395393 0.323482 -2.234063
v -0.390585 0.323482 -2.139204
v -0.384181 0.323482 -2.139528
v -0.388990 0.323482 -2.234387
f 639 642 641
f 641 640 639
f 645 646 643
f 643 644 645
f 640 644 643
f 640 643 639
f 641 645 644
f 641 644 640
f 642 646 645
f 642 645 641
f 639 643 646
f 639 646 642
o LandingCentreline_02
usemtl white
v -0.383064 0.322899 -1.990835
v -0.378255 0.322899 -1.895976
v -0.371852 0.322899 -1.896300
v -0.376660 0.322899 -1.991159
v -0.383064 0.323482 -1.990835
v -0.378255 0.323482 -1.895976
v -0.371852 0.323482 -1.896300
v -0.376660 0.323482 -1.991159
f 647 650 649
f 649 648 647
f 653 654 651
f 651 652 653
f 648 652 651
f 648 651 647
f 649 653 652
f 649 652 648
f 650 654 653
f 650 653 649
f 647 651 654
f 647 654 650
o LandingCentreline_03
usemtl white
v -0.370734 0.322899 -1.747606
v -0.365925 0.322899 -1.652747
v -0.359522 0.322899 -1.653072
v -0.364331 0.322899 -1.747931
v -0.370734 0.323482 -1.747606
v -0.365925 0.323482 -1.652747
v -0.359522 0.323482 -1.653072
v -0.364331 0.323482 -1.747931
f 655 658 657
f 657 656 655
f 661 662 659
f 659 660 661
f 656 660 659
f 656 659 655
f 657 661 660
f 657 660 656
f 658 662 661
f 658 661 657
f 655 659 662
f 655 662 658
o LandingCentreline_04
usemtl white
v -0.358404 0.322899 -1.504378
v -0.353596 0.322899 -1.409519
v -0.347193 0.322899 -1.409844
v -0.352001 0.322899 -1.504703
v -0.358404 0.323482 -1.504378
v -0.353596 0.323482 -1.409519
v -0.347193 0.323482 -1.409844
v -0.352001 0.323482 -1.504703
f 663 666 665
f 665 664 663
f 669 670 667
f 667 668 669
f 664 668 667
f 664 667 663
f 665 669 668
f 665 668 664
f 666 670 669
f 666 669 665
f 663 667 670
f 663 670 666
o LandingCentreline_05
usemtl white
v -0.346075 0.322899 -1.261150
v -0.341266 0.322899 -1.166291
v -0.334863 0.322899 -1.166615
v -0.339672 0.322899 -1.261474
v -0.346075 0.323482 -1.261150
v -0.341266 0.323482 -1.166291
v -0.334863 0.323482 -1.166615
v -0.339672 0.323482 -1.261474
f 671 674 673
f 673 672 671
f 677 678 675
f 675 676 677
f 672 676 675
f 672 675 671
f 673 677 676
f 673 676 672
f 674 678 677
f 674 677 673
f 671 675 678
f 671 678 674
o LandingCentreline_06
usemtl white
v -0.333745 0.322899 -1.017922
v -0.328937 0.322899 -0.923063
v -0.322534 0.322899 -0.923387
v -0.327342 0.322899 -1.018246
v -0.333745 0.323482 -1.017922
v -0.328937 0.323482 -0.923063
v -0.322534 0.323482 -0.923387
v -0.327342 0.323482 -1.018246
f 679 682 681
f 681 680 679
f 685 686 683
f 683 684 685
f 680 684 683
f 680 683 679
f 681 685 684
f 681 684 680
f 682 686 685
f 682 685 681
f 679 683 686
f 679 686 682
o LandingCentreline_07
usemtl white
v -0.321416 0.322899 -0.774693
v -0.316607 0.322899 -0.679834
v -0.310204 0.322899 -0.680159
v -0.315013 0.322899 -0.775018
v -0.321416 0.323482 -0.774693
v -0.316607 0.323482 -0.679834
v -0.310204 0.323482 -0.680159
v -0.315013 0.323482 -0.775018
f 687 690 689
f 689 688 687
f 693 694 691
f 691 692 693
f 688 692 691
f 688 691 687
f 689 693 692
f 689 692 688
f 690 694 693
f 690 693 689
f 687 691 694
f 687 694 690
o LandingCentreline_08
usemtl white
v -0.309086 0.322899 -0.531465
v -0.304278 0.322899 -0.436606
v -0.297875 0.322899 -0.436931
v -0.302683 0.322899 -0.531790
v -0.309086 0.323482 -0.531465
v -0.304278 0.323482 -0.436606
v -0.297875 0.323482 -0.436931
v -0.302683 0.323482 -0.531790
f 695 698 697
f 697 696 695
f 701 702 699
f 699 700 701
f 696 700 699
f 696 699 695
f 697 701 700
f 697 700 696
f 698 702 701
f 698 701 697
f 695 699 702
f 695 702 698
o LandingCentreline_09
usemtl white
v -0.296757 0.322899 -0.288237
v -0.291948 0.322899 -0.193378
v -0.285545 0.322899 -0.193702
v -0.290354 0.322899 -0.288561
v -0.296757 0.323482 -0.288237
v -0.291948 0.323482 -0.193378
v -0.285545 0.323482 -0.193702
v -0.290354 0.323482 -0.288561
f 703 706 705
f 705 704 703
f 709 710 707
f 707 708 709
f 704 708 707
f 704 707 703
f 705 709 708
f 705 708 704
f 706 710 709
f 706 709 705
f 703 707 710
f 703 710 706
o LandingCentreline_10
usemtl white
v -0.284427 0.322899 -0.045009
v -0.279619 0.322899 0.049850
v -0.273216 0.322899 0.049526
v -0.278024 0.322899 -0.045333
v -0.284427 0.323482 -0.045009
v -0.279619 0.323482 0.049850
v -0.273216 0.323482 0.049526
v -0.278024 0.323482 -0.045333
f 711 714 713
f 713 712 711
f 717 718 715
f 715 716 717
f 712 716 715
f 712 715 711
f 713 717 716
f 713 716 712
f 714 718 717
f 714 717 713
f 711 715 718
f 711 718 714
o LandingCentreline_11
usemtl white
v -0.272098 0.322899 0.198220
v -0.267289 0.322899 0.293079
v -0.260886 0.322899 0.292754
v -0.265695 0.322899 0.197895
v -0.272098 0.323482 0.198220
v -0.267289 0.323482 0.293079
v -0.260886 0.323482 0.292754
v -0.265695 0.323482 0.197895
f 719 722 721
f 721 720 719
f 725 726 723
f 723 724 725
f 720 724 723
f 720 723 719
f 721 725 724
f 721 724 720
f 722 726 725
f 722 725 721
f 719 723 726
f 719 726 722
o LandingCentreline_12
usemtl white
v -0.259768 0.322899 0.441448
v -0.254960 0.322899 0.536307
v -0.248556 0.322899 0.535982
v -0.253365 0.322899 0.441123
v -0.259768 0.323482 0.441448
v -0.254960 0.323482 0.536307
v -0.248556 0.323482 0.535982
v -0.253365 0.323482 0.441123
f 727 730 729
f 729 728 727
f 733 734 731
f 731 732 733
f 728 732 731
f 728 731 727
f 729 733 732
f 729 732 728
f 730 734 733
f 730 733 729
f 727 731 734
f 727 734 730
o LandingCentreline_13
usemtl white
v -0.247439 0.322899 0.684676
v -0.242630 0.322899 0.779535
v -0.236227 0.322899 0.779210
v -0.241035 0.322899 0.684351
v -0.247439 0.323482 0.684676
v -0.242630 0.323482 0.779535
v -0.236227 0.323482 0.779210
v -0.241035 0.323482 0.684351
f 735 738 737
f 737 736 735
f 741 742 739
f 739 740 741
f 736 740 739
f 736 739 735
f 737 741 740
f 737 740 736
f 738 742 741
f 738 741 737
f 735 739 742
f 735 742 738
o ArrestingWire_1
usemtl dark
v -0.504020 0.323337 -1.277172
v -0.183452 0.323337 -1.277172
v -0.183452 0.323337 -1.279504
v -0.504020 0.323337 -1.279504
v -0.504020 0.323919 -1.277172
v -0.183452 0.323919 -1.277172
v -0.183452 0.323919 -1.279504
v -0.504020 0.323919 -1.279504
f 743 746 745
f 745 744 743
f 749 750 747
f 747 748 749
f 744 748 747
f 744 747 743
f 745 749 748
f 745 748 744
f 746 750 749
f 746 749 745
f 743 747 750
f 743 750 746
o ArrestingWire_2
usemtl dark
v -0.491198 0.323337 -1.024215
v -0.170630 0.323337 -1.024215
v -0.170630 0.323337 -1.026546
v -0.491198 0.323337 -1.026546
v -0.491198 0.323919 -1.024215
v -0.170630 0.323919 -1.024215
v -0.170630 0.323919 -1.026546
v -0.491198 0.323919 -1.026546
f 751 754 753
f 753 752 751
f 757 758 755
f 755 756 757
f 752 756 755
f 752 755 751
f 753 757 756
f 753 756 752
f 754 758 757
f 754 757 753
f 751 755 758
f 751 758 754
o ArrestingWire_3
usemtl dark
v -0.478375 0.323337 -0.771258
v -0.157807 0.323337 -0.771258
v -0.157807 0.323337 -0.773589
v -0.478375 0.323337 -0.773589
v -0.478375 0.323919 -0.771258
v -0.157807 0.323919 -0.771258
v -0.157807 0.323919 -0.773589
v -0.478375 0.323919 -0.773589
f 759 762 761
f 761 760 759
f 765 766 763
f 763 764 765
f 760 764 763
f 760 763 759
f 761 765 764
f 761 764 760
f 762 766 765
f 762 765 761
f 759 763 766
f 759 766 762
o ArrestingWire_4
usemtl dark
v -0.465552 0.323337 -0.518300
v -0.144984 0.323337 -0.518300
v -0.144984 0.323337 -0.520632
v -0.465552 0.323337 -0.520632
v -0.465552 0.323919 -0.518300
v -0.144984 0.323919 -0.518300
v -0.144984 0.323919 -0.520632
v -0.465552 0.323919 -0.520632
f 767 770 769
f 769 768 767
f 773 774 771
f 771 772 773
f 768 772 771
f 768 771 767
f 769 773 772
f 769 772 768
f 770 774 773
f 770 773 769
f 767 771 774
f 767 774 770
o AftVTOL_HeloSpot_1
usemtl hatch
v 0.152998 0.320714 -2.447974
v 0.145510 0.320714 -2.400695
v 0.123778 0.320714 -2.358044
v 0.089930 0.320714 -2.324196
v 0.047279 0.320714 -2.302464
v 0.000000 0.320714 -2.294976
v -0.047279 0.320714 -2.302464
v -0.089930 0.320714 -2.324196
v -0.123778 0.320714 -2.358044
v -0.145510 0.320714 -2.400695
v -0.152998 0.320714 -2.447974
v -0.145510 0.320714 -2.495254
v -0.123778 0.320714 -2.537905
v -0.089930 0.320714 -2.571753
v -0.047279 0.320714 -2.593485
v -0.000000 0.320714 -2.600973
v 0.047279 0.320714 -2.593485
v 0.089930 0.320714 -2.571753
v 0.123778 0.320714 -2.537905
v 0.145510 0.320714 -2.495254
v 0.152998 0.321734 -2.447974
v 0.145510 0.321734 -2.400695
v 0.123778 0.321734 -2.358044
v 0.089930 0.321734 -2.324196
v 0.047279 0.321734 -2.302464
v 0.000000 0.321734 -2.294976
v -0.047279 0.321734 -2.302464
v -0.089930 0.321734 -2.324196
v -0.123778 0.321734 -2.358044
v -0.145510 0.321734 -2.400695
v -0.152998 0.321734 -2.447974
v -0.145510 0.321734 -2.495254
v -0.123778 0.321734 -2.537905
v -0.089930 0.321734 -2.571753
v -0.047279 0.321734 -2.593485
v -0.000000 0.321734 -2.600973
v 0.047279 0.321734 -2.593485
v 0.089930 0.321734 -2.571753
v 0.123778 0.321734 -2.537905
v 0.145510 0.321734 -2.495254
f 794 775 776
f 794 776 777
f 794 777 778
f 794 778 779
f 794 779 780
f 794 780 781
f 794 781 782
f 794 782 783
f 794 783 784
f 794 784 785
f 794 785 786
f 794 786 787
f 794 787 788
f 794 788 789
f 794 789 790
f 794 790 791
f 794 791 792
f 792 793 794
f 796 795 814
f 797 796 814
f 798 797 814
f 799 798 814
f 800 799 814
f 801 800 814
f 802 801 814
f 803 802 814
f 804 803 814
f 805 804 814
f 806 805 814
f 807 806 814
f 808 807 814
f 809 808 814
f 810 809 814
f 811 810 814
f 812 811 814
f 814 813 812
f 775 795 796
f 775 796 776
f 776 796 797
f 776 797 777
f 777 797 798
f 777 798 778
f 778 798 799
f 778 799 779
f 779 799 800
f 779 800 780
f 780 800 801
f 780 801 781
f 781 801 802
f 781 802 782
f 782 802 803
f 782 803 783
f 783 803 804
f 783 804 784
f 784 804 805
f 784 805 785
f 785 805 806
f 785 806 786
f 786 806 807
f 786 807 787
f 787 807 808
f 787 808 788
f 788 808 809
f 788 809 789
f 789 809 810
f 789 810 790
f 790 810 811
f 790 811 791
f 791 811 812
f 791 812 792
f 792 812 813
f 792 813 793
f 793 813 814
f 793 814 794
f 794 814 795
f 794 795 775
o AftSpot_1_HStem_-1
usemtl white
v -0.074014 0.322317 -2.480806
v 0.054262 0.322317 -2.508072
v 0.052807 0.322317 -2.514913
v -0.075468 0.322317 -2.487647
v -0.074014 0.322899 -2.480806
v 0.054262 0.322899 -2.508072
v 0.052807 0.322899 -2.514913
v -0.075468 0.322899 -2.487647
f 815 818 817
f 817 816 815
f 821 822 819
f 819 820 821
f 816 820 819
f 816 819 815
f 817 821 820
f 817 820 816
f 818 822 821
f 818 821 817
f 815 819 822
f 815 822 818
o AftSpot_1_HStem_1
usemtl white
v -0.052807 0.322317 -2.381036
v 0.075468 0.322317 -2.408302
v 0.074014 0.322317 -2.415143
v -0.054262 0.322317 -2.387877
v -0.052807 0.322899 -2.381036
v 0.075468 0.322899 -2.408302
v 0.074014 0.322899 -2.415143
v -0.054262 0.322899 -2.387877
f 823 826 825
f 825 824 823
f 829 830 827
f 827 828 829
f 824 828 827
f 824 827 823
f 825 829 828
f 825 828 824
f 826 830 829
f 826 829 825
f 823 827 830
f 823 830 826
o AftSpot_1_HBar
usemtl white
v -0.014024 0.322462 -2.497132
v 0.007183 0.322462 -2.397362
v 0.014024 0.322462 -2.398817
v -0.007183 0.322462 -2.498587
v -0.014024 0.323045 -2.497132
v 0.007183 0.323045 -2.397362
v 0.014024 0.323045 -2.398817
v -0.007183 0.323045 -2.498587
f 831 834 833
f 833 832 831
f 837 838 835
f 835 836 837
f 832 836 835
f 832 835 831
f 833 837 836
f 833 836 832
f 834 838 837
f 834 837 833
f 831 835 838
f 831 838 834
o AftVTOL_HeloSpot_2
usemtl hatch
v 0.386139 0.320714 -2.083693
v 0.378651 0.320714 -2.036413
v 0.356919 0.320714 -1.993762
v 0.323071 0.320714 -1.959914
v 0.280420 0.320714 -1.938182
v 0.233140 0.320714 -1.930694
v 0.185861 0.320714 -1.938182
v 0.143210 0.320714 -1.959914
v 0.109362 0.320714 -1.993762
v 0.087630 0.320714 -2.036413
v 0.080142 0.320714 -2.083693
v 0.087630 0.320714 -2.130972
v 0.109362 0.320714 -2.173623
v 0.143210 0.320714 -2.207471
v 0.185861 0.320714 -2.229203
v 0.233140 0.320714 -2.236691
v 0.280420 0.320714 -2.229203
v 0.323071 0.320714 -2.207471
v 0.356919 0.320714 -2.173623
v 0.378651 0.320714 -2.130972
v 0.386139 0.321734 -2.083693
v 0.378651 0.321734 -2.036413
v 0.356919 0.321734 -1.993762
v 0.323071 0.321734 -1.959914
v 0.280420 0.321734 -1.938182
v 0.233140 0.321734 -1.930694
v 0.185861 0.321734 -1.938182
v 0.143210 0.321734 -1.959914
v 0.109362 0.321734 -1.993762
v 0.087630 0.321734 -2.036413
v 0.080142 0.321734 -2.083693
v 0.087630 0.321734 -2.130972
v 0.109362 0.321734 -2.173623
v 0.143210 0.321734 -2.207471
v 0.185861 0.321734 -2.229203
v 0.233140 0.321734 -2.236691
v 0.280420 0.321734 -2.229203
v 0.323071 0.321734 -2.207471
v 0.356919 0.321734 -2.173623
v 0.378651 0.321734 -2.130972
f 858 839 840
f 858 840 841
f 858 841 842
f 858 842 843
f 858 843 844
f 858 844 845
f 858 845 846
f 858 846 847
f 858 847 848
f 858 848 849
f 858 849 850
f 858 850 851
f 858 851 852
f 858 852 853
f 858 853 854
f 858 854 855
f 858 855 856
f 856 857 858
f 860 859 878
f 861 860 878
f 862 861 878
f 863 862 878
f 864 863 878
f 865 864 878
f 866 865 878
f 867 866 878
f 868 867 878
f 869 868 878
f 870 869 878
f 871 870 878
f 872 871 878
f 873 872 878
f 874 873 878
f 875 874 878
f 876 875 878
f 878 877 876
f 839 859 860
f 839 860 840
f 840 860 861
f 840 861 841
f 841 861 862
f 841 862 842
f 842 862 863
f 842 863 843
f 843 863 864
f 843 864 844
f 844 864 865
f 844 865 845
f 845 865 866
f 845 866 846
f 846 866 867
f 846 867 847
f 847 867 868
f 847 868 848
f 848 868 869
f 848 869 849
f 849 869 870
f 849 870 850
f 850 870 871
f 850 871 851
f 851 871 872
f 851 872 852
f 852 872 873
f 852 873 853
f 853 873 874
f 853 874 854
f 854 874 875
f 854 875 855
f 855 875 876
f 855 876 856
f 856 876 877
f 856 877 857
f 857 877 878
f 857 878 858
f 858 878 859
f 858 859 839
o AftSpot_2_HStem_-1
usemtl white
v 0.159126 0.322317 -2.116524
v 0.287402 0.322317 -2.143790
v 0.285948 0.322317 -2.150631
v 0.157672 0.322317 -2.123365
v 0.159126 0.322899 -2.116524
v 0.287402 0.322899 -2.143790
v 0.285948 0.322899 -2.150631
v 0.157672 0.322899 -2.123365
f 879 882 881
f 881 880 879
f 885 886 883
f 883 884 885
f 880 884 883
f 880 883 879
f 881 885 884
f 881 884 880
f 882 886 885
f 882 885 881
f 879 883 886
f 879 886 882
o AftSpot_2_HStem_1
usemtl white
v 0.180333 0.322317 -2.016754
v 0.308609 0.322317 -2.044020
v 0.307155 0.322317 -2.050861
v 0.178879 0.322317 -2.023595
v 0.180333 0.322899 -2.016754
v 0.308609 0.322899 -2.044020
v 0.307155 0.322899 -2.050861
v 0.178879 0.322899 -2.023595
f 887 890 889
f 889 888 887
f 893 894 891
f 891 892 893
f 888 892 891
f 888 891 887
f 889 893 892
f 889 892 888
f 890 894 893
f 890 893 889
f 887 891 894
f 887 894 890
o AftSpot_2_HBar
usemtl white
v 0.219116 0.322462 -2.132850
v 0.240323 0.322462 -2.033080
v 0.247164 0.322462 -2.034535
v 0.225958 0.322462 -2.134305
v 0.219116 0.323045 -2.132850
v 0.240323 0.323045 -2.033080
v 0.247164 0.323045 -2.034535
v 0.225958 0.323045 -2.134305
f 895 898 897
f 897 896 895
f 901 902 899
f 899 900 901
f 896 900 899
f 896 899 895
f 897 901 900
f 897 900 896
f 898 902 901
f 898 901 897
f 895 899 902
f 895 902 898
o AftVTOL_HeloSpot_3
usemtl hatch
v 0.152998 0.320714 -1.719411
v 0.145510 0.320714 -1.672132
v 0.123778 0.320714 -1.629480
v 0.089930 0.320714 -1.595632
v 0.047279 0.320714 -1.573900
v 0.000000 0.320714 -1.566412
v -0.047279 0.320714 -1.573900
v -0.089930 0.320714 -1.595632
v -0.123778 0.320714 -1.629480
v -0.145510 0.320714 -1.672132
v -0.152998 0.320714 -1.719411
v -0.145510 0.320714 -1.766690
v -0.123778 0.320714 -1.809341
v -0.089930 0.320714 -1.843189
v -0.047279 0.320714 -1.864921
v -0.000000 0.320714 -1.872409
v 0.047279 0.320714 -1.864921
v 0.089930 0.320714 -1.843189
v 0.123778 0.320714 -1.809341
v 0.145510 0.320714 -1.766690
v 0.152998 0.321734 -1.719411
v 0.145510 0.321734 -1.672132
v 0.123778 0.321734 -1.629480
v 0.089930 0.321734 -1.595632
v 0.047279 0.321734 -1.573900
v 0.000000 0.321734 -1.566412
v -0.047279 0.321734 -1.573900
v -0.089930 0.321734 -1.595632
v -0.123778 0.321734 -1.629480
v -0.145510 0.321734 -1.672132
v -0.152998 0.321734 -1.719411
v -0.145510 0.321734 -1.766690
v -0.123778 0.321734 -1.809341
v -0.089930 0.321734 -1.843189
v -0.047279 0.321734 -1.864921
v -0.000000 0.321734 -1.872409
v 0.047279 0.321734 -1.864921
v 0.089930 0.321734 -1.843189
v 0.123778 0.321734 -1.809341
v 0.145510 0.321734 -1.766690
f 922 903 904
f 922 904 905
f 922 905 906
f 922 906 907
f 922 907 908
f 922 908 909
f 922 909 910
f 922 910 911
f 922 911 912
f 922 912 913
f 922 913 914
f 922 914 915
f 922 915 916
f 922 916 917
f 922 917 918
f 922 918 919
f 922 919 920
f 920 921 922
f 924 923 942
f 925 924 942
f 926 925 942
f 927 926 942
f 928 927 942
f 929 928 942
f 930 929 942
f 931 930 942
f 932 931 942
f 933 932 942
f 934 933 942
f 935 934 942
f 936 935 942
f 937 936 942
f 938 937 942
f 939 938 942
f 940 939 942
f 942 941 940
f 903 923 924
f 903 924 904
f 904 924 925
f 904 925 905
f 905 925 926
f 905 926 906
f 906 926 927
f 906 927 907
f 907 927 928
f 907 928 908
f 908 928 929
f 908 929 909
f 909 929 930
f 909 930 910
f 910 930 931
f 910 931 911
f 911 931 932
f 911 932 912
f 912 932 933
f 912 933 913
f 913 933 934
f 913 934 914
f 914 934 935
f 914 935 915
f 915 935 936
f 915 936 916
f 916 936 937
f 916 937 917
f 917 937 938
f 917 938 918
f 918 938 939
f 918 939 919
f 919 939 940
f 919 940 920
f 920 940 941
f 920 941 921
f 921 941 942
f 921 942 922
f 922 942 923
f 922 923 903
o AftSpot_3_HStem_-1
usemtl white
v -0.074014 0.322317 -1.752242
v 0.054262 0.322317 -1.779508
v 0.052807 0.322317 -1.786349
v -0.075468 0.322317 -1.759083
v -0.074014 0.322899 -1.752242
v 0.054262 0.322899 -1.779508
v 0.052807 0.322899 -1.786349
v -0.075468 0.322899 -1.759083
f 943 946 945
f 945 944 943
f 949 950 947
f 947 948 949
f 944 948 947
f 944 947 943
f 945 949 948
f 945 948 944
f 946 950 949
f 946 949 945
f 943 947 950
f 943 950 946
o AftSpot_3_HStem_1
usemtl white
v -0.052807 0.322317 -1.652472
v 0.075468 0.322317 -1.679738
v 0.074014 0.322317 -1.686579
v -0.054262 0.322317 -1.659313
v -0.052807 0.322899 -1.652472
v 0.075468 0.322899 -1.679738
v 0.074014 0.322899 -1.686579
v -0.054262 0.322899 -1.659313
f 951 954 953
f 953 952 951
f 957 958 955
f 955 956 957
f 952 956 955
f 952 955 951
f 953 957 956
f 953 956 952
f 954 958 957
f 954 957 953
f 951 955 958
f 951 958 954
o AftSpot_3_HBar
usemtl white
v -0.014024 0.322462 -1.768569
v 0.007183 0.322462 -1.668799
v 0.014024 0.322462 -1.670253
v -0.007183 0.322462 -1.770023
v -0.014024 0.323045 -1.768569
v 0.007183 0.323045 -1.668799
v 0.014024 0.323045 -1.670253
v -0.007183 0.323045 -1.770023
f 959 962 961
f 961 960 959
f 965 966 963
f 963 964 965
f 960 964 963
f 960 963 959
f 961 965 964
f 961 964 960
f 962 966 965
f 962 965 961
f 959 963 966
f 959 966 962
o AftVTOL_HeloSpot_4
usemtl hatch
v 0.386139 0.320714 -1.355129
v 0.378651 0.320714 -1.307850
v 0.356919 0.320714 -1.265199
v 0.323071 0.320714 -1.231350
v 0.280420 0.320714 -1.209619
v 0.233140 0.320714 -1.202130
v 0.185861 0.320714 -1.209619
v 0.143210 0.320714 -1.231350
v 0.109362 0.320714 -1.265199
v 0.087630 0.320714 -1.307850
v 0.080142 0.320714 -1.355129
v 0.087630 0.320714 -1.402408
v 0.109362 0.320714 -1.445059
v 0.143210 0.320714 -1.478907
v 0.185861 0.320714 -1.500639
v 0.233140 0.320714 -1.508127
v 0.280420 0.320714 -1.500639
v 0.323071 0.320714 -1.478907
v 0.356919 0.320714 -1.445059
v 0.378651 0.320714 -1.402408
v 0.386139 0.321734 -1.355129
v 0.378651 0.321734 -1.307850
v 0.356919 0.321734 -1.265199
v 0.323071 0.321734 -1.231350
v 0.280420 0.321734 -1.209619
v 0.233140 0.321734 -1.202130
v 0.185861 0.321734 -1.209619
v 0.143210 0.321734 -1.231350
v 0.109362 0.321734 -1.265199
v 0.087630 0.321734 -1.307850
v 0.080142 0.321734 -1.355129
v 0.087630 0.321734 -1.402408
v 0.109362 0.321734 -1.445059
v 0.143210 0.321734 -1.478907
v 0.185861 0.321734 -1.500639
v 0.233140 0.321734 -1.508127
v 0.280420 0.321734 -1.500639
v 0.323071 0.321734 -1.478907
v 0.356919 0.321734 -1.445059
v 0.378651 0.321734 -1.402408
f 986 967 968
f 986 968 969
f 986 969 970
f 986 970 971
f 986 971 972
f 986 972 973
f 986 973 974
f 986 974 975
f 986 975 976
f 986 976 977
f 986 977 978
f 986 978 979
f 986 979 980
f 986 980 981
f 986 981 982
f 986 982 983
f 986 983 984
f 984 985 986
f 988 987 1006
f 989 988 1006
f 990 989 1006
f 991 990 1006
f 992 991 1006
f 993 992 1006
f 994 993 1006
f 995 994 1006
f 996 995 1006
f 997 996 1006
f 998 997 1006
f 999 998 1006
f 1000 999 1006
f 1001 1000 1006
f 1002 1001 1006
f 1003 1002 1006
f 1004 1003 1006
f 1006 1005 1004
f 967 987 988
f 967 988 968
f 968 988 989
f 968 989 969
f 969 989 990
f 969 990 970
f 970 990 991
f 970 991 971
f 971 991 992
f 971 992 972
f 972 992 993
f 972 993 973
f 973 993 994
f 973 994 974
f 974 994 995
f 974 995 975
f 975 995 996
f 975 996 976
f 976 996 997
f 976 997 977
f 977 997 998
f 977 998 978
f 978 998 999
f 978 999 979
f 979 999 1000
f 979 1000 980
f 980 1000 1001
f 980 1001 981
f 981 1001 1002
f 981 1002 982
f 982 1002 1003
f 982 1003 983
f 983 1003 1004
f 983 1004 984
f 984 1004 1005
f 984 1005 985
f 985 1005 1006
f 985 1006 986
f 986 1006 987
f 986 987 967
o AftSpot_4_HStem_-1
usemtl white
v 0.159126 0.322317 -1.387960
v 0.287402 0.322317 -1.415226
v 0.285948 0.322317 -1.422067
v 0.157672 0.322317 -1.394801
v 0.159126 0.322899 -1.387960
v 0.287402 0.322899 -1.415226
v 0.285948 0.322899 -1.422067
v 0.157672 0.322899 -1.394801
f 1007 1010 1009
f 1009 1008 1007
f 1013 1014 1011
f 1011 1012 1013
f 1008 1012 1011
f 1008 1011 1007
f 1009 1013 1012
f 1009 1012 1008
f 1010 1014 1013
f 1010 1013 1009
f 1007 1011 1014
f 1007 1014 1010
o AftSpot_4_HStem_1
usemtl white
v 0.180333 0.322317 -1.288190
v 0.308609 0.322317 -1.315456
v 0.307155 0.322317 -1.322297
v 0.178879 0.322317 -1.295031
v 0.180333 0.322899 -1.288190
v 0.308609 0.322899 -1.315456
v 0.307155 0.322899 -1.322297
v 0.178879 0.322899 -1.295031
f 1015 1018 1017
f 1017 1016 1015
f 1021 1022 1019
f 1019 1020 1021
f 1016 1020 1019
f 1016 1019 1015
f 1017 1021 1020
f 1017 1020 1016
f 1018 1022 1021
f 1018 1021 1017
f 1015 1019 1022
f 1015 1022 1018
o AftSpot_4_HBar
usemtl white
v 0.219116 0.322462 -1.404287
v 0.240323 0.322462 -1.304517
v 0.247164 0.322462 -1.305971
v 0.225958 0.322462 -1.405741
v 0.219116 0.323045 -1.404287
v 0.240323 0.323045 -1.304517
v 0.247164 0.323045 -1.305971
v 0.225958 0.323045 -1.405741
f 1023 1026 1025
f 1025 1024 1023
f 1029 1030 1027
f 1027 1028 1029
f 1024 1028 1027
f 1024 1027 1023
f 1025 1029 1028
f 1025 1028 1024
f 1026 1030 1029
f 1026 1029 1025
f 1023 1027 1030
f 1023 1030 1026
o OutboardFairing_1
usemtl hull
v -0.684850 0.259369 1.486270
v -0.786849 0.259369 1.486270
v -0.845134 0.259369 1.544555
v -0.845134 0.259369 1.631983
v -0.786849 0.259369 1.690268
v -0.684850 0.259369 1.690268
v -0.684850 0.313282 1.486270
v -0.786849 0.313282 1.486270
v -0.845134 0.313282 1.544555
v -0.845134 0.313282 1.631983
v -0.786849 0.313282 1.690268
v -0.684850 0.313282 1.690268
f 1031 1036 1035
f 1031 1035 1034
f 1031 1034 1033
f 1033 1032 1031
f 1041 1042 1037
f 1040 1041 1037
f 1039 1040 1037
f 1037 1038 1039
f 1032 1038 1037
f 1032 1037 1031
f 1033 1039 1038
f 1033 1038 1032
f 1034 1040 1039
f 1034 1039 1033
f 1035 1041 1040
f 1035 1040 1034
f 1036 1042 1041
f 1036 1041 1035
f 1031 1037 1042
f 1031 1042 1036
o LaserEnclosure_1
usemtl island
v -0.801420 0.313282 1.537270
v -0.713993 0.313282 1.537270
v -0.703793 0.313282 1.588269
v -0.713993 0.313282 1.639269
v -0.801420 0.313282 1.639269
v -0.811620 0.313282 1.588269
v -0.783498 0.373025 1.556139
v -0.731915 0.373025 1.556139
v -0.725897 0.373025 1.588269
v -0.731915 0.373025 1.620399
v -0.783498 0.373025 1.620399
v -0.789515 0.373025 1.588269
f 1043 1044 1045
f 1043 1045 1046
f 1043 1046 1047
f 1043 1047 1048
f 1054 1053 1052
f 1054 1052 1051
f 1054 1051 1050
f 1054 1050 1049
f 1049 1050 1044
f 1049 1044 1043
f 1050 1051 1045
f 1050 1045 1044
f 1051 1052 1046
f 1051 1046 1045
f 1052 1053 1047
f 1052 1047 1046
f 1053 1054 1048
f 1053 1048 1047
f 1054 1049 1043
f 1054 1043 1048
o LaserAperture_1
usemtl laser
v -0.773006 0.350803 1.624843
v -0.742407 0.350803 1.624843
v -0.742407 0.360275 1.624843
v -0.773006 0.360275 1.624843
v -0.773006 0.350803 1.627466
v -0.742407 0.350803 1.627466
v -0.742407 0.360275 1.627466
v -0.773006 0.360275 1.627466
f 1055 1058 1057
f 1055 1057 1056
f 1059 1060 1061
f 1059 1061 1062
f 1055 1056 1060
f 1055 1060 1059
f 1058 1062 1061
f 1058 1061 1057
f 1055 1059 1062
f 1055 1062 1058
f 1056 1057 1061
f 1056 1061 1060
o OutboardFairing_2
usemtl hull
v 0.699421 0.259369 1.500841
v 0.801420 0.259369 1.500841
v 0.859705 0.259369 1.559127
v 0.859705 0.259369 1.646554
v 0.801420 0.259369 1.704839
v 0.699421 0.259369 1.704839
v 0.699421 0.313282 1.500841
v 0.801420 0.313282 1.500841
v 0.859705 0.313282 1.559127
v 0.859705 0.313282 1.646554
v 0.801420 0.313282 1.704839
v 0.699421 0.313282 1.704839
f 1068 1063 1064
f 1068 1064 1065
f 1068 1065 1066
f 1066 1067 1068
f 1070 1069 1074
f 1071 1070 1074
f 1072 1071 1074
f 1074 1073 1072
f 1063 1069 1070
f 1063 1070 1064
f 1064 1070 1071
f 1064 1071 1065
f 1065 1071 1072
f 1065 1072 1066
f 1066 1072 1073
f 1066 1073 1067
f 1067 1073 1074
f 1067 1074 1068
f 1068 1074 1069
f 1068 1069 1063
o LaserEnclosure_2
usemtl island
v 0.728564 0.313282 1.551841
v 0.815991 0.313282 1.551841
v 0.826191 0.313282 1.602840
v 0.815991 0.313282 1.653840
v 0.728564 0.313282 1.653840
v 0.718364 0.313282 1.602840
v 0.746486 0.373025 1.570711
v 0.798069 0.373025 1.570711
v 0.804087 0.373025 1.602840
v 0.798069 0.373025 1.634970
v 0.746486 0.373025 1.634970
v 0.740469 0.373025 1.602840
f 1075 1076 1077
f 1075 1077 1078
f 1075 1078 1079
f 1075 1079 1080
f 1086 1085 1084
f 1086 1084 1083
f 1086 1083 1082
f 1086 1082 1081
f 1081 1082 1076
f 1081 1076 1075
f 1082 1083 1077
f 1082 1077 1076
f 1083 1084 1078
f 1083 1078 1077
f 1084 1085 1079
f 1084 1079 1078
f 1085 1086 1080
f 1085 1080 1079
f 1086 1081 1075
f 1086 1075 1080
o LaserAperture_2
usemtl laser
v 0.756978 0.350803 1.639414
v 0.787577 0.350803 1.639414
v 0.787577 0.360275 1.639414
v 0.756978 0.360275 1.639414
v 0.756978 0.350803 1.642037
v 0.787577 0.350803 1.642037
v 0.787577 0.360275 1.642037
v 0.756978 0.360275 1.642037
f 1087 1090 1089
f 1087 1089 1088
f 1091 1092 1093
f 1091 1093 1094
f 1087 1088 1092
f 1087 1092 1091
f 1090 1094 1093
f 1090 1093 1089
f 1087 1091 1094
f 1087 1094 1090
f 1088 1089 1093
f 1088 1093 1092
o OutboardFairing_3
usemtl hull
v -0.772278 0.259369 -1.923408
v -0.874277 0.259369 -1.923408
v -0.932562 0.259369 -1.865123
v -0.932562 0.259369 -1.777696
v -0.874277 0.259369 -1.719411
v -0.772278 0.259369 -1.719411
v -0.772278 0.313282 -1.923408
v -0.874277 0.313282 -1.923408
v -0.932562 0.313282 -1.865123
v -0.932562 0.313282 -1.777696
v -0.874277 0.313282 -1.719411
v -0.772278 0.313282 -1.719411
f 1095 1100 1099
f 1095 1099 1098
f 1095 1098 1097
f 1097 1096 1095
f 1105 1106 1101
f 1104 1105 1101
f 1103 1104 1101
f 1101 1102 1103
f 1096 1102 1101
f 1096 1101 1095
f 1097 1103 1102
f 1097 1102 1096
f 1098 1104 1103
f 1098 1103 1097
f 1099 1105 1104
f 1099 1104 1098
f 1100 1106 1105
f 1100 1105 1099
f 1095 1101 1106
f 1095 1106 1100
o LaserEnclosure_3
usemtl island
v -0.888848 0.313282 -1.872409
v -0.801420 0.313282 -1.872409
v -0.791220 0.313282 -1.821410
v -0.801420 0.313282 -1.770410
v -0.888848 0.313282 -1.770410
v -0.899048 0.313282 -1.821410
v -0.870925 0.373025 -1.853539
v -0.819343 0.373025 -1.853539
v -0.813325 0.373025 -1.821410
v -0.819343 0.373025 -1.789280
v -0.870925 0.373025 -1.789280
v -0.876943 0.373025 -1.821410
f 1107 1108 1109
f 1107 1109 1110
f 1107 1110 1111
f 1107 1111 1112
f 1118 1117 1116
f 1118 1116 1115
f 1118 1115 1114
f 1118 1114 1113
f 1113 1114 1108
f 1113 1108 1107
f 1114 1115 1109
f 1114 1109 1108
f 1115 1116 1110
f 1115 1110 1109
f 1116 1117 1111
f 1116 1111 1110
f 1117 1118 1112
f 1117 1112 1111
f 1118 1113 1107
f 1118 1107 1112
o LaserAperture_3
usemtl laser
v -0.860434 0.350803 -1.784836
v -0.829834 0.350803 -1.784836
v -0.829834 0.360275 -1.784836
v -0.860434 0.360275 -1.784836
v -0.860434 0.350803 -1.782213
v -0.829834 0.350803 -1.782213
v -0.829834 0.360275 -1.782213
v -0.860434 0.360275 -1.782213
f 1119 1122 1121
f 1119 1121 1120
f 1123 1124 1125
f 1123 1125 1126
f 1119 1120 1124
f 1119 1124 1123
f 1122 1126 1125
f 1122 1125 1121
f 1119 1123 1126
f 1119 1126 1122
f 1120 1121 1125
f 1120 1125 1124
o OutboardFairing_4
usemtl hull
v 0.728564 0.259369 -2.433403
v 0.830563 0.259369 -2.433403
v 0.888848 0.259369 -2.375118
v 0.888848 0.259369 -2.287690
v 0.830563 0.259369 -2.229405
v 0.728564 0.259369 -2.229405
v 0.728564 0.313282 -2.433403
v 0.830563 0.313282 -2.433403
v 0.888848 0.313282 -2.375118
v 0.888848 0.313282 -2.287690
v 0.830563 0.313282 -2.229405
v 0.728564 0.313282 -2.229405
f 1132 1127 1128
f 1132 1128 1129
f 1132 1129 1130
f 1130 1131 1132
f 1134 1133 1138
f 1135 1134 1138
f 1136 1135 1138
f 1138 1137 1136
f 1127 1133 1134
f 1127 1134 1128
f 1128 1134 1135
f 1128 1135 1129
f 1129 1135 1136
f 1129 1136 1130
f 1130 1136 1137
f 1130 1137 1131
f 1131 1137 1138
f 1131 1138 1132
f 1132 1138 1133
f 1132 1133 1127
o LaserEnclosure_4
usemtl island
v 0.757706 0.313282 -2.382404
v 0.845134 0.313282 -2.382404
v 0.855334 0.313282 -2.331404
v 0.845134 0.313282 -2.280405
v 0.757706 0.313282 -2.280405
v 0.747506 0.313282 -2.331404
v 0.775629 0.373025 -2.363534
v 0.827211 0.373025 -2.363534
v 0.833229 0.373025 -2.331404
v 0.827211 0.373025 -2.299275
v 0.775629 0.373025 -2.299275
v 0.769611 0.373025 -2.331404
f 1139 1140 1141
f 1139 1141 1142
f 1139 1142 1143
f 1139 1143 1144
f 1150 1149 1148
f 1150 1148 1147
f 1150 1147 1146
f 1150 1146 1145
f 1145 1146 1140
f 1145 1140 1139
f 1146 1147 1141
f 1146 1141 1140
f 1147 1148 1142
f 1147 1142 1141
f 1148 1149 1143
f 1148 1143 1142
f 1149 1150 1144
f 1149 1144 1143
f 1150 1145 1139
f 1150 1139 1144
o LaserAperture_4
usemtl laser
v 0.786120 0.350803 -2.294830
v 0.816720 0.350803 -2.294830
v 0.816720 0.360275 -2.294830
v 0.786120 0.360275 -2.294830
v 0.786120 0.350803 -2.292208
v 0.816720 0.350803 -2.292208
v 0.816720 0.360275 -2.292208
v 0.786120 0.360275 -2.292208
f 1151 1154 1153
f 1151 1153 1152
f 1155 1156 1157
f 1155 1157 1158
f 1151 1152 1156
f 1151 1156 1155
f 1154 1158 1157
f 1154 1157 1153
f 1151 1155 1158
f 1151 1158 1154
f 1152 1153 1157
f 1152 1157 1156
o DefensiveHatch_1
usemtl hatch
v -0.740221 0.320860 0.400710
v -0.658622 0.320860 0.400710
v -0.658622 0.322899 0.400710
v -0.740221 0.322899 0.400710
v -0.740221 0.320860 0.502709
v -0.658622 0.320860 0.502709
v -0.658622 0.322899 0.502709
v -0.740221 0.322899 0.502709
f 1159 1162 1161
f 1159 1161 1160
f 1163 1164 1165
f 1163 1165 1166
f 1159 1160 1164
f 1159 1164 1163
f 1162 1166 1165
f 1162 1165 1161
f 1159 1163 1166
f 1159 1166 1162
f 1160 1161 1165
f 1160 1165 1164
o DefensiveHatch_2
usemtl hatch
v 0.673193 0.320860 -1.376986
v 0.754792 0.320860 -1.376986
v 0.754792 0.322899 -1.376986
v 0.673193 0.322899 -1.376986
v 0.673193 0.320860 -1.274987
v 0.754792 0.320860 -1.274987
v 0.754792 0.322899 -1.274987
v 0.673193 0.322899 -1.274987
f 1167 1170 1169
f 1167 1169 1168
f 1171 1172 1173
f 1171 1173 1174
f 1167 1168 1172
f 1167 1172 1171
f 1170 1174 1173
f 1170 1173 1169
f 1167 1171 1174
f 1167 1174 1170
f 1168 1169 1173
f 1168 1173 1172
o BowSonarFairingStudy
usemtl dark
v -0.043714 -0.105642 2.331404
v 0.043714 -0.105642 2.331404
v 0.043714 -0.054642 2.331404
v -0.043714 -0.054642 2.331404
v -0.043714 -0.105642 2.447974
v 0.043714 -0.105642 2.447974
v 0.043714 -0.054642 2.447974
v -0.043714 -0.054642 2.447974
f 1175 1178 1177
f 1175 1177 1176
f 1179 1180 1181
f 1179 1181 1182
f 1175 1176 1180
f 1175 1180 1179
f 1178 1182 1181
f 1178 1181 1177
f 1175 1179 1182
f 1175 1182 1178
f 1176 1177 1181
f 1176 1181 1180
